G04 #@! TF.GenerationSoftware,KiCad,Pcbnew,9.0.1*
G04 #@! TF.CreationDate,2025-10-22T23:56:24+02:00*
G04 #@! TF.ProjectId,RPi_Hat,5250695f-4861-4742-9e6b-696361645f70,1*
G04 #@! TF.SameCoordinates,Original*
G04 #@! TF.FileFunction,Copper,L1,Top*
G04 #@! TF.FilePolarity,Positive*
%FSLAX46Y46*%
G04 Gerber Fmt 4.6, Leading zero omitted, Abs format (unit mm)*
G04 Created by KiCad (PCBNEW 9.0.1) date 2025-10-22 23:56:24*
%MOMM*%
%LPD*%
G01*
G04 APERTURE LIST*
G04 Aperture macros list*
%AMRoundRect*
0 Rectangle with rounded corners*
0 $1 Rounding radius*
0 $2 $3 $4 $5 $6 $7 $8 $9 X,Y pos of 4 corners*
0 Add a 4 corners polygon primitive as box body*
4,1,4,$2,$3,$4,$5,$6,$7,$8,$9,$2,$3,0*
0 Add four circle primitives for the rounded corners*
1,1,$1+$1,$2,$3*
1,1,$1+$1,$4,$5*
1,1,$1+$1,$6,$7*
1,1,$1+$1,$8,$9*
0 Add four rect primitives between the rounded corners*
20,1,$1+$1,$2,$3,$4,$5,0*
20,1,$1+$1,$4,$5,$6,$7,0*
20,1,$1+$1,$6,$7,$8,$9,0*
20,1,$1+$1,$8,$9,$2,$3,0*%
G04 Aperture macros list end*
G04 #@! TA.AperFunction,ComponentPad*
%ADD10R,1.524000X1.524000*%
G04 #@! TD*
G04 #@! TA.AperFunction,ComponentPad*
%ADD11C,1.524000*%
G04 #@! TD*
G04 #@! TA.AperFunction,ComponentPad*
%ADD12R,1.800000X1.800000*%
G04 #@! TD*
G04 #@! TA.AperFunction,ComponentPad*
%ADD13C,1.800000*%
G04 #@! TD*
G04 #@! TA.AperFunction,ComponentPad*
%ADD14C,1.600000*%
G04 #@! TD*
G04 #@! TA.AperFunction,ComponentPad*
%ADD15O,1.600000X1.600000*%
G04 #@! TD*
G04 #@! TA.AperFunction,ComponentPad*
%ADD16R,2.000000X2.000000*%
G04 #@! TD*
G04 #@! TA.AperFunction,ComponentPad*
%ADD17C,2.000000*%
G04 #@! TD*
G04 #@! TA.AperFunction,ComponentPad*
%ADD18RoundRect,0.250000X-0.600000X-0.600000X0.600000X-0.600000X0.600000X0.600000X-0.600000X0.600000X0*%
G04 #@! TD*
G04 #@! TA.AperFunction,ComponentPad*
%ADD19C,1.700000*%
G04 #@! TD*
G04 #@! TA.AperFunction,ComponentPad*
%ADD20R,1.700000X1.700000*%
G04 #@! TD*
G04 #@! TA.AperFunction,ViaPad*
%ADD21C,0.600000*%
G04 #@! TD*
G04 #@! TA.AperFunction,Conductor*
%ADD22C,0.250000*%
G04 #@! TD*
G04 APERTURE END LIST*
D10*
X40605000Y-39520000D03*
D11*
X43145000Y-39520000D03*
X45685000Y-39520000D03*
X48225000Y-39520000D03*
D10*
X33140000Y-48475000D03*
D11*
X33140000Y-45935000D03*
X33140000Y-43395000D03*
X33140000Y-40855000D03*
D12*
X76835000Y-82550000D03*
D13*
X76835000Y-80010000D03*
D14*
X68065000Y-39585000D03*
D15*
X68065000Y-49745000D03*
D16*
X61080000Y-57365000D03*
D17*
X68680000Y-57365000D03*
D18*
X79063200Y-50253000D03*
D19*
X81603200Y-50253000D03*
X79063200Y-52793000D03*
X81603200Y-52793000D03*
X79063200Y-55333000D03*
X81603200Y-55333000D03*
X79063200Y-57873000D03*
X81603200Y-57873000D03*
X79063200Y-60413000D03*
X81603200Y-60413000D03*
X79063200Y-62953000D03*
X81603200Y-62953000D03*
X79063200Y-65493000D03*
X81603200Y-65493000D03*
X79063200Y-68033000D03*
X81603200Y-68033000D03*
D17*
X69850000Y-76835000D03*
X69850000Y-83335000D03*
X65350000Y-76835000D03*
X65350000Y-83335000D03*
X61595000Y-76835000D03*
X61595000Y-83335000D03*
X57095000Y-76835000D03*
X57095000Y-83335000D03*
X53340000Y-76835000D03*
X53340000Y-83335000D03*
X48840000Y-76835000D03*
X48840000Y-83335000D03*
X45085000Y-76835000D03*
X45085000Y-83335000D03*
X40585000Y-76835000D03*
X40585000Y-83335000D03*
X36830000Y-76835000D03*
X36830000Y-83335000D03*
X32330000Y-76835000D03*
X32330000Y-83335000D03*
D20*
X31870000Y-33870000D03*
D19*
X31870000Y-31330000D03*
X34410000Y-33870000D03*
X34410000Y-31330000D03*
X36950000Y-33870000D03*
X36950000Y-31330000D03*
X39490000Y-33870000D03*
X39490000Y-31330000D03*
X42030000Y-33870000D03*
X42030000Y-31330000D03*
X44570000Y-33870000D03*
X44570000Y-31330000D03*
X47110000Y-33870000D03*
X47110000Y-31330000D03*
X49650000Y-33870000D03*
X49650000Y-31330000D03*
X52190000Y-33870000D03*
X52190000Y-31330000D03*
X54730000Y-33870000D03*
X54730000Y-31330000D03*
X57270000Y-33870000D03*
X57270000Y-31330000D03*
X59810000Y-33870000D03*
X59810000Y-31330000D03*
X62350000Y-33870000D03*
X62350000Y-31330000D03*
X64890000Y-33870000D03*
X64890000Y-31330000D03*
X67430000Y-33870000D03*
X67430000Y-31330000D03*
X69970000Y-33870000D03*
X69970000Y-31330000D03*
X72510000Y-33870000D03*
X72510000Y-31330000D03*
X75050000Y-33870000D03*
X75050000Y-31330000D03*
X77590000Y-33870000D03*
X77590000Y-31330000D03*
X80130000Y-33870000D03*
X80130000Y-31330000D03*
D21*
X49182400Y-68155100D03*
X74689300Y-51319900D03*
X62499500Y-54387900D03*
D22*
X85096100Y-38836100D02*
X85096100Y-64540100D01*
X85096100Y-64540100D02*
X81603200Y-68033000D01*
X80130000Y-33870000D02*
X85096100Y-38836100D01*
X55906000Y-32506000D02*
X54730000Y-31330000D01*
X55906000Y-34169116D02*
X55906000Y-32506000D01*
X61321884Y-39585000D02*
X55906000Y-34169116D01*
X68065000Y-39585000D02*
X61321884Y-39585000D01*
X69850000Y-76835000D02*
X69850000Y-83335000D01*
X61595000Y-76835000D02*
X61595000Y-83335000D01*
X53340000Y-76835000D02*
X53340000Y-83335000D01*
X45085000Y-76835000D02*
X45085000Y-83335000D01*
X36830000Y-76835000D02*
X36830000Y-83335000D01*
X38156000Y-78161000D02*
X36830000Y-76835000D01*
X43759000Y-78161000D02*
X38156000Y-78161000D01*
X45085000Y-76835000D02*
X43759000Y-78161000D01*
X52014000Y-78161000D02*
X46411000Y-78161000D01*
X53340000Y-76835000D02*
X52014000Y-78161000D01*
X46411000Y-78161000D02*
X45085000Y-76835000D01*
X54666000Y-78161000D02*
X53340000Y-76835000D01*
X60269000Y-78161000D02*
X54666000Y-78161000D01*
X61595000Y-76835000D02*
X60269000Y-78161000D01*
X62921000Y-78161000D02*
X61595000Y-76835000D01*
X69850000Y-76835000D02*
X68524000Y-78161000D01*
X68524000Y-78161000D02*
X62921000Y-78161000D01*
X80206200Y-69430000D02*
X81603200Y-68033000D01*
X78797084Y-69430000D02*
X80206200Y-69430000D01*
X68680000Y-59312916D02*
X78797084Y-69430000D01*
X68680000Y-57365000D02*
X68680000Y-59312916D01*
X35586000Y-32694000D02*
X36950000Y-31330000D01*
X30694000Y-32694000D02*
X35586000Y-32694000D01*
X30694000Y-46029000D02*
X30694000Y-32694000D01*
X33140000Y-48475000D02*
X30694000Y-46029000D01*
X38590100Y-29689900D02*
X45469900Y-29689900D01*
X45469900Y-29689900D02*
X47110000Y-31330000D01*
X36950000Y-31330000D02*
X38590100Y-29689900D01*
X53554000Y-30154000D02*
X54730000Y-31330000D01*
X47110000Y-31330000D02*
X48286000Y-30154000D01*
X48286000Y-30154000D02*
X53554000Y-30154000D01*
X38126000Y-32506000D02*
X36950000Y-31330000D01*
X40666000Y-32506000D02*
X38126000Y-32506000D01*
X42030000Y-33870000D02*
X40666000Y-32506000D01*
X55906000Y-30154000D02*
X66254000Y-30154000D01*
X66254000Y-30154000D02*
X67430000Y-31330000D01*
X54730000Y-31330000D02*
X55906000Y-30154000D01*
X77102884Y-32506000D02*
X78766000Y-32506000D01*
X78766000Y-32506000D02*
X80130000Y-33870000D01*
X76414000Y-31817116D02*
X77102884Y-32506000D01*
X76414000Y-31030884D02*
X76414000Y-31817116D01*
X75537116Y-30154000D02*
X76414000Y-31030884D01*
X73686000Y-30154000D02*
X75537116Y-30154000D01*
X72510000Y-31330000D02*
X73686000Y-30154000D01*
X68606000Y-32506000D02*
X67430000Y-31330000D01*
X71334000Y-32506000D02*
X68606000Y-32506000D01*
X72510000Y-31330000D02*
X71334000Y-32506000D01*
X83253300Y-56222900D02*
X81603200Y-57873000D01*
X83253300Y-50237900D02*
X83253300Y-56222900D01*
X70758700Y-37743300D02*
X83253300Y-50237900D01*
X62012100Y-37743300D02*
X70758700Y-37743300D01*
X58540000Y-34271200D02*
X62012100Y-37743300D01*
X58540000Y-32600000D02*
X58540000Y-34271200D01*
X57270000Y-31330000D02*
X58540000Y-32600000D01*
X43300000Y-32600000D02*
X42030000Y-31330000D01*
X43300000Y-34325000D02*
X43300000Y-32600000D01*
X44580300Y-35605300D02*
X43300000Y-34325000D01*
X46372600Y-35605300D02*
X44580300Y-35605300D01*
X65550000Y-54782700D02*
X46372600Y-35605300D01*
X69388200Y-54782700D02*
X65550000Y-54782700D01*
X71156100Y-56550600D02*
X69388200Y-54782700D01*
X79546500Y-56550600D02*
X71156100Y-56550600D01*
X80333200Y-55763900D02*
X79546500Y-56550600D01*
X80333200Y-54063000D02*
X80333200Y-55763900D01*
X81603200Y-52793000D02*
X80333200Y-54063000D01*
X49182400Y-68237600D02*
X49182400Y-68155100D01*
X40585000Y-76835000D02*
X49182400Y-68237600D01*
X76320000Y-32600000D02*
X75050000Y-31330000D01*
X76320000Y-36220700D02*
X76320000Y-32600000D01*
X84645100Y-44545800D02*
X76320000Y-36220700D01*
X84645100Y-59911100D02*
X84645100Y-44545800D01*
X81603200Y-62953000D02*
X84645100Y-59911100D01*
X84158200Y-57858000D02*
X81603200Y-60413000D01*
X84158200Y-49858000D02*
X84158200Y-57858000D01*
X70017600Y-35717400D02*
X84158200Y-49858000D01*
X67586400Y-35717400D02*
X70017600Y-35717400D01*
X66253300Y-34384300D02*
X67586400Y-35717400D01*
X66253300Y-33538700D02*
X66253300Y-34384300D01*
X65407900Y-32693300D02*
X66253300Y-33538700D01*
X63713300Y-32693300D02*
X65407900Y-32693300D01*
X62350000Y-31330000D02*
X63713300Y-32693300D01*
X69598700Y-38248500D02*
X81603200Y-50253000D01*
X61648500Y-38248500D02*
X69598700Y-38248500D01*
X57270000Y-33870000D02*
X61648500Y-38248500D01*
X40679100Y-30140900D02*
X39490000Y-31330000D01*
X45085700Y-30140900D02*
X40679100Y-30140900D01*
X45840000Y-30895200D02*
X45085700Y-30140900D01*
X45840000Y-31760100D02*
X45840000Y-30895200D01*
X46586600Y-32506700D02*
X45840000Y-31760100D01*
X47447600Y-32506700D02*
X46586600Y-32506700D01*
X48380000Y-33439100D02*
X47447600Y-32506700D01*
X48380000Y-34266500D02*
X48380000Y-33439100D01*
X66906500Y-52793000D02*
X48380000Y-34266500D01*
X79063200Y-52793000D02*
X66906500Y-52793000D01*
X80333200Y-66763000D02*
X79063200Y-68033000D01*
X80333200Y-59982200D02*
X80333200Y-66763000D01*
X81265700Y-59049700D02*
X80333200Y-59982200D01*
X82166600Y-59049700D02*
X81265700Y-59049700D01*
X83705000Y-57511300D02*
X82166600Y-59049700D01*
X83705000Y-50048200D02*
X83705000Y-57511300D01*
X70717500Y-37060700D02*
X83705000Y-50048200D01*
X63000700Y-37060700D02*
X70717500Y-37060700D01*
X59810000Y-33870000D02*
X63000700Y-37060700D01*
X31870000Y-33870000D02*
X33046700Y-33870000D01*
X31980500Y-39325100D02*
X35057300Y-36248300D01*
X31980500Y-44775500D02*
X31980500Y-39325100D01*
X33140000Y-45935000D02*
X31980500Y-44775500D01*
X39873300Y-36248300D02*
X35057300Y-36248300D01*
X43145000Y-39520000D02*
X39873300Y-36248300D01*
X33046700Y-34237700D02*
X33046700Y-33870000D01*
X35057300Y-36248300D02*
X33046700Y-34237700D01*
X53460000Y-32600000D02*
X52190000Y-31330000D01*
X53460000Y-34331100D02*
X53460000Y-32600000D01*
X65907000Y-46778100D02*
X53460000Y-34331100D01*
X70147500Y-46778100D02*
X65907000Y-46778100D01*
X74689300Y-51319900D02*
X70147500Y-46778100D01*
X77900000Y-54169800D02*
X79063200Y-55333000D01*
X65726000Y-54169800D02*
X77900000Y-54169800D01*
X45840000Y-34283800D02*
X65726000Y-54169800D01*
X45840000Y-32600000D02*
X45840000Y-34283800D01*
X44570000Y-31330000D02*
X45840000Y-32600000D01*
X82801600Y-54134600D02*
X81603200Y-55333000D01*
X82801600Y-52301000D02*
X82801600Y-54134600D01*
X82076800Y-51576200D02*
X82801600Y-52301000D01*
X76482100Y-51576200D02*
X82076800Y-51576200D01*
X76111500Y-51946800D02*
X76482100Y-51576200D01*
X68597600Y-51946800D02*
X76111500Y-51946800D01*
X50920000Y-34269200D02*
X68597600Y-51946800D01*
X50920000Y-32600000D02*
X50920000Y-34269200D01*
X49650000Y-31330000D02*
X50920000Y-32600000D01*
X46890000Y-40855000D02*
X33140000Y-40855000D01*
X48225000Y-39520000D02*
X46890000Y-40855000D01*
X38175900Y-35095900D02*
X36950000Y-33870000D01*
X41260900Y-35095900D02*
X38175900Y-35095900D01*
X45685000Y-39520000D02*
X41260900Y-35095900D01*
X76835000Y-68723400D02*
X62499500Y-54387900D01*
X76835000Y-80010000D02*
X76835000Y-68723400D01*
G04 #@! TA.AperFunction,Conductor*
G36*
X56080445Y-34549766D02*
G01*
X56105021Y-34578130D01*
X56105196Y-34578004D01*
X56106668Y-34580030D01*
X56107439Y-34580920D01*
X56108104Y-34582006D01*
X56108106Y-34582009D01*
X56233794Y-34755004D01*
X56233796Y-34755006D01*
X56233798Y-34755009D01*
X56384990Y-34906201D01*
X56384993Y-34906203D01*
X56384996Y-34906206D01*
X56557991Y-35031894D01*
X56748517Y-35128972D01*
X56951878Y-35195047D01*
X56951879Y-35195047D01*
X56951884Y-35195049D01*
X57163084Y-35228500D01*
X57163087Y-35228500D01*
X57376913Y-35228500D01*
X57376916Y-35228500D01*
X57588116Y-35195049D01*
X57598475Y-35191682D01*
X57669442Y-35189650D01*
X57726514Y-35222418D01*
X61244667Y-38740571D01*
X61348425Y-38809900D01*
X61463715Y-38857655D01*
X61586106Y-38882000D01*
X61710894Y-38882000D01*
X66749580Y-38882000D01*
X66817701Y-38902002D01*
X66864194Y-38955658D01*
X66874298Y-39025932D01*
X66861846Y-39065204D01*
X66852831Y-39082896D01*
X66852826Y-39082906D01*
X66789208Y-39278703D01*
X66757000Y-39482061D01*
X66757000Y-39687938D01*
X66789208Y-39891296D01*
X66852826Y-40087093D01*
X66852829Y-40087099D01*
X66946297Y-40270540D01*
X66946298Y-40270541D01*
X66977416Y-40313372D01*
X66977417Y-40313372D01*
X67665000Y-39625789D01*
X67665000Y-39637661D01*
X67692259Y-39739394D01*
X67744920Y-39830606D01*
X67819394Y-39905080D01*
X67910606Y-39957741D01*
X68012339Y-39985000D01*
X68024210Y-39985000D01*
X67336626Y-40672582D01*
X67336626Y-40672583D01*
X67379454Y-40703699D01*
X67562900Y-40797170D01*
X67562906Y-40797173D01*
X67758705Y-40860791D01*
X67758701Y-40860791D01*
X67962061Y-40893000D01*
X68167939Y-40893000D01*
X68371296Y-40860791D01*
X68567093Y-40797173D01*
X68567099Y-40797170D01*
X68750541Y-40703701D01*
X68793372Y-40672582D01*
X68793372Y-40672581D01*
X68105791Y-39985000D01*
X68117661Y-39985000D01*
X68219394Y-39957741D01*
X68310606Y-39905080D01*
X68385080Y-39830606D01*
X68437741Y-39739394D01*
X68465000Y-39637661D01*
X68465000Y-39625789D01*
X69152582Y-40313372D01*
X69183701Y-40270541D01*
X69277170Y-40087099D01*
X69277173Y-40087093D01*
X69340791Y-39891296D01*
X69373000Y-39687938D01*
X69373000Y-39482061D01*
X69340791Y-39278705D01*
X69314199Y-39196863D01*
X69312171Y-39125895D01*
X69348833Y-39065097D01*
X69412545Y-39033772D01*
X69483079Y-39041864D01*
X69523126Y-39068830D01*
X79280296Y-48826000D01*
X79314321Y-48888311D01*
X79317200Y-48915094D01*
X79317200Y-49822297D01*
X79256193Y-49787075D01*
X79129026Y-49753000D01*
X78997374Y-49753000D01*
X78870207Y-49787075D01*
X78809200Y-49822297D01*
X78809200Y-48895000D01*
X78412683Y-48895000D01*
X78308881Y-48905605D01*
X78308878Y-48905606D01*
X78140674Y-48961342D01*
X77989860Y-49054365D01*
X77989854Y-49054370D01*
X77864570Y-49179654D01*
X77864565Y-49179660D01*
X77771542Y-49330474D01*
X77715806Y-49498678D01*
X77715805Y-49498681D01*
X77705200Y-49602483D01*
X77705200Y-49999000D01*
X78632497Y-49999000D01*
X78597275Y-50060007D01*
X78563200Y-50187174D01*
X78563200Y-50318826D01*
X78597275Y-50445993D01*
X78632497Y-50507000D01*
X77705200Y-50507000D01*
X77705200Y-50816700D01*
X77685198Y-50884821D01*
X77631542Y-50931314D01*
X77579200Y-50942700D01*
X76419700Y-50942700D01*
X76297317Y-50967044D01*
X76297309Y-50967046D01*
X76263547Y-50981030D01*
X76263547Y-50981031D01*
X76182025Y-51014799D01*
X76078271Y-51084125D01*
X76078264Y-51084130D01*
X75886000Y-51276395D01*
X75858631Y-51291339D01*
X75832403Y-51308196D01*
X75826104Y-51309101D01*
X75823688Y-51310421D01*
X75796905Y-51313300D01*
X75615732Y-51313300D01*
X75547611Y-51293298D01*
X75501118Y-51239642D01*
X75492153Y-51211881D01*
X75470199Y-51101511D01*
X75466730Y-51084069D01*
X75405783Y-50936932D01*
X75317303Y-50804511D01*
X75317301Y-50804509D01*
X75317296Y-50804503D01*
X75204696Y-50691903D01*
X75204690Y-50691898D01*
X75204689Y-50691897D01*
X75072268Y-50603417D01*
X74925131Y-50542470D01*
X74872544Y-50532009D01*
X74816119Y-50520786D01*
X74753210Y-50487878D01*
X74751606Y-50486302D01*
X70551335Y-46286031D01*
X70551333Y-46286029D01*
X70447575Y-46216700D01*
X70332285Y-46168945D01*
X70258586Y-46154285D01*
X70209896Y-46144600D01*
X70209894Y-46144600D01*
X66221594Y-46144600D01*
X66153473Y-46124598D01*
X66132499Y-46107695D01*
X55309385Y-35284581D01*
X55275359Y-35222269D01*
X55280424Y-35151454D01*
X55322971Y-35094618D01*
X55341271Y-35083222D01*
X55442009Y-35031894D01*
X55615004Y-34906206D01*
X55766206Y-34755004D01*
X55891894Y-34582009D01*
X55891899Y-34581997D01*
X55892561Y-34580920D01*
X55892924Y-34580591D01*
X55894804Y-34578004D01*
X55895347Y-34578398D01*
X55945204Y-34533283D01*
X56015244Y-34521670D01*
X56080445Y-34549766D01*
G37*
G04 #@! TD.AperFunction*
G04 #@! TA.AperFunction,Conductor*
G36*
X39626827Y-36901802D02*
G01*
X39647801Y-36918705D01*
X40829952Y-38100856D01*
X40863978Y-38163168D01*
X40859000Y-38232766D01*
X40859000Y-39235184D01*
X40838940Y-39215124D01*
X40752061Y-39164964D01*
X40655160Y-39139000D01*
X40554840Y-39139000D01*
X40457939Y-39164964D01*
X40371060Y-39215124D01*
X40351000Y-39235184D01*
X40351000Y-38250000D01*
X39794402Y-38250000D01*
X39733906Y-38256505D01*
X39597035Y-38307555D01*
X39597034Y-38307555D01*
X39480095Y-38395095D01*
X39392555Y-38512034D01*
X39392555Y-38512035D01*
X39341505Y-38648906D01*
X39335000Y-38709402D01*
X39335000Y-39266000D01*
X40320184Y-39266000D01*
X40300124Y-39286060D01*
X40249964Y-39372939D01*
X40224000Y-39469840D01*
X40224000Y-39570160D01*
X40249964Y-39667061D01*
X40300124Y-39753940D01*
X40320184Y-39774000D01*
X39335000Y-39774000D01*
X39335000Y-40095500D01*
X39314998Y-40163621D01*
X39261342Y-40210114D01*
X39209000Y-40221500D01*
X34314360Y-40221500D01*
X34246239Y-40201498D01*
X34212424Y-40169561D01*
X34109081Y-40027322D01*
X33967680Y-39885921D01*
X33967677Y-39885919D01*
X33967675Y-39885917D01*
X33891546Y-39830606D01*
X33805890Y-39768372D01*
X33665999Y-39697094D01*
X33627703Y-39677581D01*
X33627700Y-39677580D01*
X33627698Y-39677579D01*
X33437513Y-39615785D01*
X33437517Y-39615785D01*
X33400743Y-39609960D01*
X33239991Y-39584500D01*
X33040009Y-39584500D01*
X32920408Y-39603442D01*
X32849999Y-39594343D01*
X32795685Y-39548621D01*
X32774712Y-39480793D01*
X32793739Y-39412394D01*
X32811600Y-39389903D01*
X35282799Y-36918705D01*
X35345111Y-36884679D01*
X35371894Y-36881800D01*
X39558706Y-36881800D01*
X39626827Y-36901802D01*
G37*
G04 #@! TD.AperFunction*
G04 #@! TA.AperFunction,Conductor*
G36*
X63473376Y-34634167D02*
G01*
X63473378Y-34634167D01*
X63511459Y-34581756D01*
X63512259Y-34580451D01*
X63512694Y-34580057D01*
X63514377Y-34577741D01*
X63514863Y-34578094D01*
X63564897Y-34532809D01*
X63634936Y-34521188D01*
X63700140Y-34549278D01*
X63725097Y-34578075D01*
X63725196Y-34578004D01*
X63726025Y-34579145D01*
X63727136Y-34580427D01*
X63728103Y-34582006D01*
X63803518Y-34685806D01*
X63853794Y-34755004D01*
X63853796Y-34755006D01*
X63853798Y-34755009D01*
X64004990Y-34906201D01*
X64004993Y-34906203D01*
X64004996Y-34906206D01*
X64177991Y-35031894D01*
X64368517Y-35128972D01*
X64571878Y-35195047D01*
X64571879Y-35195047D01*
X64571884Y-35195049D01*
X64783084Y-35228500D01*
X64783087Y-35228500D01*
X64996913Y-35228500D01*
X64996916Y-35228500D01*
X65208116Y-35195049D01*
X65411483Y-35128972D01*
X65602009Y-35031894D01*
X65748352Y-34925569D01*
X65815219Y-34901712D01*
X65884370Y-34917792D01*
X65911507Y-34938411D01*
X67185201Y-36212105D01*
X67219227Y-36274417D01*
X67214162Y-36345232D01*
X67171615Y-36402068D01*
X67105095Y-36426879D01*
X67096106Y-36427200D01*
X63315294Y-36427200D01*
X63247173Y-36407198D01*
X63226199Y-36390295D01*
X62278999Y-35443095D01*
X62244973Y-35380783D01*
X62250038Y-35309968D01*
X62292585Y-35253132D01*
X62359105Y-35228321D01*
X62368094Y-35228000D01*
X62456874Y-35228000D01*
X62668003Y-35194559D01*
X62871286Y-35128509D01*
X62871292Y-35128506D01*
X63061750Y-35031463D01*
X63114167Y-34993378D01*
X63114167Y-34993376D01*
X62474948Y-34354157D01*
X62542993Y-34335925D01*
X62657007Y-34270099D01*
X62750099Y-34177007D01*
X62815925Y-34062993D01*
X62834157Y-33994948D01*
X63473376Y-34634167D01*
G37*
G04 #@! TD.AperFunction*
G04 #@! TA.AperFunction,Conductor*
G36*
X40840445Y-32009766D02*
G01*
X40865021Y-32038130D01*
X40865196Y-32038004D01*
X40866668Y-32040030D01*
X40867439Y-32040920D01*
X40868104Y-32042006D01*
X40868106Y-32042009D01*
X40993794Y-32215004D01*
X40993796Y-32215006D01*
X40993798Y-32215009D01*
X41144990Y-32366201D01*
X41144993Y-32366203D01*
X41144996Y-32366206D01*
X41317991Y-32491894D01*
X41318001Y-32491899D01*
X41319567Y-32492859D01*
X41320042Y-32493384D01*
X41321996Y-32494804D01*
X41321697Y-32495214D01*
X41367200Y-32545505D01*
X41378808Y-32615546D01*
X41350707Y-32680745D01*
X41322157Y-32705484D01*
X41322259Y-32705624D01*
X41320639Y-32706800D01*
X41319574Y-32707724D01*
X41318261Y-32708528D01*
X41265831Y-32746621D01*
X41265831Y-32746622D01*
X41905051Y-33385842D01*
X41837007Y-33404075D01*
X41722993Y-33469901D01*
X41629901Y-33562993D01*
X41564075Y-33677007D01*
X41545842Y-33745051D01*
X40906622Y-33105831D01*
X40906621Y-33105831D01*
X40868528Y-33158261D01*
X40867724Y-33159574D01*
X40867288Y-33159967D01*
X40865624Y-33162259D01*
X40865142Y-33161909D01*
X40815075Y-33207203D01*
X40745033Y-33218807D01*
X40679836Y-33190702D01*
X40654901Y-33161924D01*
X40654804Y-33161996D01*
X40653975Y-33160855D01*
X40652859Y-33159567D01*
X40651899Y-33158001D01*
X40651894Y-33157991D01*
X40526206Y-32984996D01*
X40526203Y-32984993D01*
X40526201Y-32984990D01*
X40375009Y-32833798D01*
X40375006Y-32833796D01*
X40375004Y-32833794D01*
X40202009Y-32708106D01*
X40202007Y-32708105D01*
X40200920Y-32707439D01*
X40200591Y-32707075D01*
X40198004Y-32705196D01*
X40198398Y-32704652D01*
X40153283Y-32654796D01*
X40141670Y-32584756D01*
X40169766Y-32519555D01*
X40198130Y-32494978D01*
X40198004Y-32494804D01*
X40200030Y-32493331D01*
X40200920Y-32492561D01*
X40201997Y-32491899D01*
X40202009Y-32491894D01*
X40375004Y-32366206D01*
X40526206Y-32215004D01*
X40651894Y-32042009D01*
X40651899Y-32041997D01*
X40652561Y-32040920D01*
X40652924Y-32040591D01*
X40654804Y-32038004D01*
X40655347Y-32038398D01*
X40705204Y-31993283D01*
X40775244Y-31981670D01*
X40840445Y-32009766D01*
G37*
G04 #@! TD.AperFunction*
G04 #@! TA.AperFunction,Conductor*
G36*
X61160445Y-32009766D02*
G01*
X61185021Y-32038130D01*
X61185196Y-32038004D01*
X61186668Y-32040030D01*
X61187439Y-32040920D01*
X61188104Y-32042006D01*
X61188106Y-32042009D01*
X61313794Y-32215004D01*
X61313796Y-32215006D01*
X61313798Y-32215009D01*
X61464990Y-32366201D01*
X61464993Y-32366203D01*
X61464996Y-32366206D01*
X61637991Y-32491894D01*
X61638001Y-32491899D01*
X61639567Y-32492859D01*
X61640042Y-32493384D01*
X61641996Y-32494804D01*
X61641697Y-32495214D01*
X61687200Y-32545505D01*
X61698808Y-32615546D01*
X61670707Y-32680745D01*
X61642157Y-32705484D01*
X61642259Y-32705624D01*
X61640639Y-32706800D01*
X61639574Y-32707724D01*
X61638261Y-32708528D01*
X61585831Y-32746621D01*
X61585831Y-32746622D01*
X62225051Y-33385842D01*
X62157007Y-33404075D01*
X62042993Y-33469901D01*
X61949901Y-33562993D01*
X61884075Y-33677007D01*
X61865842Y-33745051D01*
X61226622Y-33105831D01*
X61226621Y-33105831D01*
X61188528Y-33158261D01*
X61187724Y-33159574D01*
X61187288Y-33159967D01*
X61185624Y-33162259D01*
X61185142Y-33161909D01*
X61135075Y-33207203D01*
X61065033Y-33218807D01*
X60999836Y-33190702D01*
X60974901Y-33161924D01*
X60974804Y-33161996D01*
X60973975Y-33160855D01*
X60972859Y-33159567D01*
X60971899Y-33158001D01*
X60971894Y-33157991D01*
X60846206Y-32984996D01*
X60846203Y-32984993D01*
X60846201Y-32984990D01*
X60695009Y-32833798D01*
X60695006Y-32833796D01*
X60695004Y-32833794D01*
X60522009Y-32708106D01*
X60522007Y-32708105D01*
X60520920Y-32707439D01*
X60520591Y-32707075D01*
X60518004Y-32705196D01*
X60518398Y-32704652D01*
X60473283Y-32654796D01*
X60461670Y-32584756D01*
X60489766Y-32519555D01*
X60518130Y-32494978D01*
X60518004Y-32494804D01*
X60520030Y-32493331D01*
X60520920Y-32492561D01*
X60521997Y-32491899D01*
X60522009Y-32491894D01*
X60695004Y-32366206D01*
X60846206Y-32215004D01*
X60971894Y-32042009D01*
X60971899Y-32041997D01*
X60972561Y-32040920D01*
X60972924Y-32040591D01*
X60974804Y-32038004D01*
X60975347Y-32038398D01*
X61025204Y-31993283D01*
X61095244Y-31981670D01*
X61160445Y-32009766D01*
G37*
G04 #@! TD.AperFunction*
G04 #@! TA.AperFunction,Conductor*
G36*
X78940445Y-32009766D02*
G01*
X78965021Y-32038130D01*
X78965196Y-32038004D01*
X78966668Y-32040030D01*
X78967439Y-32040920D01*
X78968104Y-32042006D01*
X78968106Y-32042009D01*
X79093794Y-32215004D01*
X79093796Y-32215006D01*
X79093798Y-32215009D01*
X79244990Y-32366201D01*
X79244993Y-32366203D01*
X79244996Y-32366206D01*
X79417991Y-32491894D01*
X79418001Y-32491899D01*
X79419567Y-32492859D01*
X79420042Y-32493384D01*
X79421996Y-32494804D01*
X79421697Y-32495214D01*
X79467200Y-32545505D01*
X79478808Y-32615546D01*
X79450707Y-32680745D01*
X79422157Y-32705484D01*
X79422259Y-32705624D01*
X79420639Y-32706800D01*
X79419574Y-32707724D01*
X79418261Y-32708528D01*
X79365831Y-32746621D01*
X79365831Y-32746622D01*
X80005051Y-33385842D01*
X79937007Y-33404075D01*
X79822993Y-33469901D01*
X79729901Y-33562993D01*
X79664075Y-33677007D01*
X79645842Y-33745051D01*
X79006622Y-33105831D01*
X79006621Y-33105831D01*
X78968528Y-33158261D01*
X78967724Y-33159574D01*
X78967288Y-33159967D01*
X78965624Y-33162259D01*
X78965142Y-33161909D01*
X78915075Y-33207203D01*
X78845033Y-33218807D01*
X78779836Y-33190702D01*
X78754901Y-33161924D01*
X78754804Y-33161996D01*
X78753975Y-33160855D01*
X78752859Y-33159567D01*
X78751899Y-33158001D01*
X78751894Y-33157991D01*
X78626206Y-32984996D01*
X78626203Y-32984993D01*
X78626201Y-32984990D01*
X78475009Y-32833798D01*
X78475006Y-32833796D01*
X78475004Y-32833794D01*
X78302009Y-32708106D01*
X78302007Y-32708105D01*
X78300920Y-32707439D01*
X78300591Y-32707075D01*
X78298004Y-32705196D01*
X78298398Y-32704652D01*
X78253283Y-32654796D01*
X78241670Y-32584756D01*
X78269766Y-32519555D01*
X78298130Y-32494978D01*
X78298004Y-32494804D01*
X78300030Y-32493331D01*
X78300920Y-32492561D01*
X78301997Y-32491899D01*
X78302009Y-32491894D01*
X78475004Y-32366206D01*
X78626206Y-32215004D01*
X78751894Y-32042009D01*
X78751899Y-32041997D01*
X78752561Y-32040920D01*
X78752924Y-32040591D01*
X78754804Y-32038004D01*
X78755347Y-32038398D01*
X78805204Y-31993283D01*
X78875244Y-31981670D01*
X78940445Y-32009766D01*
G37*
G04 #@! TD.AperFunction*
G04 #@! TA.AperFunction,Conductor*
G36*
X36484075Y-31522993D02*
G01*
X36549901Y-31637007D01*
X36642993Y-31730099D01*
X36757007Y-31795925D01*
X36825051Y-31814157D01*
X36185831Y-32453378D01*
X36238247Y-32491461D01*
X36239566Y-32492270D01*
X36239962Y-32492708D01*
X36242258Y-32494376D01*
X36241907Y-32494858D01*
X36287199Y-32544915D01*
X36298809Y-32614956D01*
X36270708Y-32680155D01*
X36241925Y-32705098D01*
X36241996Y-32705196D01*
X36240862Y-32706019D01*
X36239580Y-32707131D01*
X36237998Y-32708100D01*
X36064993Y-32833796D01*
X36064990Y-32833798D01*
X35913798Y-32984990D01*
X35913796Y-32984993D01*
X35788108Y-33157987D01*
X35787434Y-33159088D01*
X35787068Y-33159418D01*
X35785196Y-33161996D01*
X35784654Y-33161602D01*
X35734787Y-33206721D01*
X35664745Y-33218328D01*
X35599547Y-33190226D01*
X35574976Y-33161870D01*
X35574804Y-33161996D01*
X35573341Y-33159982D01*
X35572566Y-33159088D01*
X35571896Y-33157996D01*
X35571894Y-33157991D01*
X35446206Y-32984996D01*
X35446203Y-32984993D01*
X35446201Y-32984990D01*
X35295009Y-32833798D01*
X35295006Y-32833796D01*
X35295004Y-32833794D01*
X35122009Y-32708106D01*
X35122007Y-32708105D01*
X35120920Y-32707439D01*
X35120591Y-32707075D01*
X35118004Y-32705196D01*
X35118398Y-32704652D01*
X35073283Y-32654796D01*
X35061670Y-32584756D01*
X35089766Y-32519555D01*
X35118130Y-32494978D01*
X35118004Y-32494804D01*
X35120030Y-32493331D01*
X35120920Y-32492561D01*
X35121997Y-32491899D01*
X35122009Y-32491894D01*
X35295004Y-32366206D01*
X35446206Y-32215004D01*
X35571894Y-32042009D01*
X35571902Y-32041992D01*
X35572854Y-32040441D01*
X35573377Y-32039967D01*
X35574804Y-32038004D01*
X35575216Y-32038303D01*
X35625497Y-31992804D01*
X35695537Y-31981189D01*
X35760738Y-32009285D01*
X35785485Y-32037842D01*
X35785624Y-32037742D01*
X35786794Y-32039353D01*
X35787726Y-32040428D01*
X35788536Y-32041750D01*
X35826620Y-32094167D01*
X35826621Y-32094168D01*
X36465841Y-31454947D01*
X36484075Y-31522993D01*
G37*
G04 #@! TD.AperFunction*
G04 #@! TA.AperFunction,Conductor*
G36*
X38073376Y-32094167D02*
G01*
X38073378Y-32094167D01*
X38111459Y-32041756D01*
X38112259Y-32040451D01*
X38112694Y-32040057D01*
X38114377Y-32037741D01*
X38114863Y-32038094D01*
X38164897Y-31992809D01*
X38234936Y-31981188D01*
X38300140Y-32009278D01*
X38325097Y-32038075D01*
X38325196Y-32038004D01*
X38326025Y-32039145D01*
X38327136Y-32040427D01*
X38328103Y-32042006D01*
X38403518Y-32145806D01*
X38453794Y-32215004D01*
X38453796Y-32215006D01*
X38453798Y-32215009D01*
X38604990Y-32366201D01*
X38604993Y-32366203D01*
X38604996Y-32366206D01*
X38777991Y-32491894D01*
X38777996Y-32491896D01*
X38779088Y-32492566D01*
X38779418Y-32492931D01*
X38781996Y-32494804D01*
X38781602Y-32495345D01*
X38826721Y-32545213D01*
X38838328Y-32615255D01*
X38810226Y-32680453D01*
X38781870Y-32705023D01*
X38781996Y-32705196D01*
X38779982Y-32706658D01*
X38779088Y-32707434D01*
X38777987Y-32708108D01*
X38604993Y-32833796D01*
X38604990Y-32833798D01*
X38453798Y-32984990D01*
X38453796Y-32984993D01*
X38328108Y-33157987D01*
X38327434Y-33159088D01*
X38327068Y-33159418D01*
X38325196Y-33161996D01*
X38324654Y-33161602D01*
X38274787Y-33206721D01*
X38204745Y-33218328D01*
X38139547Y-33190226D01*
X38114976Y-33161870D01*
X38114804Y-33161996D01*
X38113341Y-33159982D01*
X38112566Y-33159088D01*
X38111896Y-33157996D01*
X38111894Y-33157991D01*
X37986206Y-32984996D01*
X37986203Y-32984993D01*
X37986201Y-32984990D01*
X37835009Y-32833798D01*
X37835006Y-32833796D01*
X37835004Y-32833794D01*
X37715022Y-32746622D01*
X37662006Y-32708103D01*
X37660427Y-32707136D01*
X37659952Y-32706611D01*
X37658004Y-32705196D01*
X37658301Y-32704786D01*
X37612797Y-32654488D01*
X37601191Y-32584446D01*
X37629296Y-32519249D01*
X37657843Y-32494517D01*
X37657741Y-32494377D01*
X37659384Y-32493182D01*
X37660451Y-32492259D01*
X37661756Y-32491459D01*
X37714167Y-32453378D01*
X37714167Y-32453376D01*
X37074948Y-31814157D01*
X37142993Y-31795925D01*
X37257007Y-31730099D01*
X37350099Y-31637007D01*
X37415925Y-31522993D01*
X37434157Y-31454948D01*
X38073376Y-32094167D01*
G37*
G04 #@! TD.AperFunction*
G04 #@! TA.AperFunction,Conductor*
G36*
X55853376Y-32094167D02*
G01*
X55853378Y-32094167D01*
X55891459Y-32041756D01*
X55892259Y-32040451D01*
X55892694Y-32040057D01*
X55894377Y-32037741D01*
X55894863Y-32038094D01*
X55944897Y-31992809D01*
X56014936Y-31981188D01*
X56080140Y-32009278D01*
X56105097Y-32038075D01*
X56105196Y-32038004D01*
X56106025Y-32039145D01*
X56107136Y-32040427D01*
X56108103Y-32042006D01*
X56183518Y-32145806D01*
X56233794Y-32215004D01*
X56233796Y-32215006D01*
X56233798Y-32215009D01*
X56384990Y-32366201D01*
X56384993Y-32366203D01*
X56384996Y-32366206D01*
X56557991Y-32491894D01*
X56557996Y-32491896D01*
X56559088Y-32492566D01*
X56559418Y-32492931D01*
X56561996Y-32494804D01*
X56561602Y-32495345D01*
X56606721Y-32545213D01*
X56618328Y-32615255D01*
X56590226Y-32680453D01*
X56561870Y-32705023D01*
X56561996Y-32705196D01*
X56559982Y-32706658D01*
X56559088Y-32707434D01*
X56557987Y-32708108D01*
X56384993Y-32833796D01*
X56384990Y-32833798D01*
X56233798Y-32984990D01*
X56233796Y-32984993D01*
X56108108Y-33157987D01*
X56107434Y-33159088D01*
X56107068Y-33159418D01*
X56105196Y-33161996D01*
X56104654Y-33161602D01*
X56054787Y-33206721D01*
X55984745Y-33218328D01*
X55919547Y-33190226D01*
X55894976Y-33161870D01*
X55894804Y-33161996D01*
X55893341Y-33159982D01*
X55892566Y-33159088D01*
X55891896Y-33157996D01*
X55891894Y-33157991D01*
X55766206Y-32984996D01*
X55766203Y-32984993D01*
X55766201Y-32984990D01*
X55615009Y-32833798D01*
X55615006Y-32833796D01*
X55615004Y-32833794D01*
X55495022Y-32746622D01*
X55442006Y-32708103D01*
X55440427Y-32707136D01*
X55439952Y-32706611D01*
X55438004Y-32705196D01*
X55438301Y-32704786D01*
X55392797Y-32654488D01*
X55381191Y-32584446D01*
X55409296Y-32519249D01*
X55437843Y-32494517D01*
X55437741Y-32494377D01*
X55439384Y-32493182D01*
X55440451Y-32492259D01*
X55441756Y-32491459D01*
X55494167Y-32453378D01*
X55494167Y-32453376D01*
X54854948Y-31814157D01*
X54922993Y-31795925D01*
X55037007Y-31730099D01*
X55130099Y-31637007D01*
X55195925Y-31522993D01*
X55214157Y-31454948D01*
X55853376Y-32094167D01*
G37*
G04 #@! TD.AperFunction*
G04 #@! TA.AperFunction,Conductor*
G36*
X68553376Y-32094167D02*
G01*
X68553378Y-32094167D01*
X68591459Y-32041756D01*
X68592259Y-32040451D01*
X68592694Y-32040057D01*
X68594377Y-32037741D01*
X68594863Y-32038094D01*
X68644897Y-31992809D01*
X68714936Y-31981188D01*
X68780140Y-32009278D01*
X68805097Y-32038075D01*
X68805196Y-32038004D01*
X68806025Y-32039145D01*
X68807136Y-32040427D01*
X68808103Y-32042006D01*
X68883518Y-32145806D01*
X68933794Y-32215004D01*
X68933796Y-32215006D01*
X68933798Y-32215009D01*
X69084990Y-32366201D01*
X69084993Y-32366203D01*
X69084996Y-32366206D01*
X69257991Y-32491894D01*
X69257996Y-32491896D01*
X69259088Y-32492566D01*
X69259418Y-32492931D01*
X69261996Y-32494804D01*
X69261602Y-32495345D01*
X69306721Y-32545213D01*
X69318328Y-32615255D01*
X69290226Y-32680453D01*
X69261870Y-32705023D01*
X69261996Y-32705196D01*
X69259982Y-32706658D01*
X69259088Y-32707434D01*
X69257987Y-32708108D01*
X69084993Y-32833796D01*
X69084990Y-32833798D01*
X68933798Y-32984990D01*
X68933796Y-32984993D01*
X68808108Y-33157987D01*
X68807434Y-33159088D01*
X68807068Y-33159418D01*
X68805196Y-33161996D01*
X68804654Y-33161602D01*
X68754787Y-33206721D01*
X68684745Y-33218328D01*
X68619547Y-33190226D01*
X68594976Y-33161870D01*
X68594804Y-33161996D01*
X68593341Y-33159982D01*
X68592566Y-33159088D01*
X68591896Y-33157996D01*
X68591894Y-33157991D01*
X68466206Y-32984996D01*
X68466203Y-32984993D01*
X68466201Y-32984990D01*
X68315009Y-32833798D01*
X68315006Y-32833796D01*
X68315004Y-32833794D01*
X68195022Y-32746622D01*
X68142006Y-32708103D01*
X68140427Y-32707136D01*
X68139952Y-32706611D01*
X68138004Y-32705196D01*
X68138301Y-32704786D01*
X68092797Y-32654488D01*
X68081191Y-32584446D01*
X68109296Y-32519249D01*
X68137843Y-32494517D01*
X68137741Y-32494377D01*
X68139384Y-32493182D01*
X68140451Y-32492259D01*
X68141756Y-32491459D01*
X68194167Y-32453378D01*
X68194167Y-32453376D01*
X67554948Y-31814157D01*
X67622993Y-31795925D01*
X67737007Y-31730099D01*
X67830099Y-31637007D01*
X67895925Y-31522993D01*
X67914157Y-31454948D01*
X68553376Y-32094167D01*
G37*
G04 #@! TD.AperFunction*
G04 #@! TA.AperFunction,Conductor*
G36*
X72044075Y-31522993D02*
G01*
X72109901Y-31637007D01*
X72202993Y-31730099D01*
X72317007Y-31795925D01*
X72385051Y-31814157D01*
X71745831Y-32453378D01*
X71798247Y-32491461D01*
X71799566Y-32492270D01*
X71799962Y-32492708D01*
X71802258Y-32494376D01*
X71801907Y-32494858D01*
X71847199Y-32544915D01*
X71858809Y-32614956D01*
X71830708Y-32680155D01*
X71801925Y-32705098D01*
X71801996Y-32705196D01*
X71800862Y-32706019D01*
X71799580Y-32707131D01*
X71797998Y-32708100D01*
X71624993Y-32833796D01*
X71624990Y-32833798D01*
X71473798Y-32984990D01*
X71473796Y-32984993D01*
X71348108Y-33157987D01*
X71347434Y-33159088D01*
X71347068Y-33159418D01*
X71345196Y-33161996D01*
X71344654Y-33161602D01*
X71294787Y-33206721D01*
X71224745Y-33218328D01*
X71159547Y-33190226D01*
X71134976Y-33161870D01*
X71134804Y-33161996D01*
X71133341Y-33159982D01*
X71132566Y-33159088D01*
X71131896Y-33157996D01*
X71131894Y-33157991D01*
X71006206Y-32984996D01*
X71006203Y-32984993D01*
X71006201Y-32984990D01*
X70855009Y-32833798D01*
X70855006Y-32833796D01*
X70855004Y-32833794D01*
X70682009Y-32708106D01*
X70682007Y-32708105D01*
X70680920Y-32707439D01*
X70680591Y-32707075D01*
X70678004Y-32705196D01*
X70678398Y-32704652D01*
X70633283Y-32654796D01*
X70621670Y-32584756D01*
X70649766Y-32519555D01*
X70678130Y-32494978D01*
X70678004Y-32494804D01*
X70680030Y-32493331D01*
X70680920Y-32492561D01*
X70681997Y-32491899D01*
X70682009Y-32491894D01*
X70855004Y-32366206D01*
X71006206Y-32215004D01*
X71131894Y-32042009D01*
X71131902Y-32041992D01*
X71132854Y-32040441D01*
X71133377Y-32039967D01*
X71134804Y-32038004D01*
X71135216Y-32038303D01*
X71185497Y-31992804D01*
X71255537Y-31981189D01*
X71320738Y-32009285D01*
X71345485Y-32037842D01*
X71345624Y-32037742D01*
X71346794Y-32039353D01*
X71347726Y-32040428D01*
X71348536Y-32041750D01*
X71386620Y-32094167D01*
X71386621Y-32094168D01*
X72025841Y-31454947D01*
X72044075Y-31522993D01*
G37*
G04 #@! TD.AperFunction*
G04 #@! TA.AperFunction,Conductor*
G36*
X73633376Y-32094167D02*
G01*
X73633378Y-32094167D01*
X73671459Y-32041756D01*
X73672259Y-32040451D01*
X73672694Y-32040057D01*
X73674377Y-32037741D01*
X73674863Y-32038094D01*
X73724897Y-31992809D01*
X73794936Y-31981188D01*
X73860140Y-32009278D01*
X73885097Y-32038075D01*
X73885196Y-32038004D01*
X73886025Y-32039145D01*
X73887136Y-32040427D01*
X73888103Y-32042006D01*
X73963518Y-32145806D01*
X74013794Y-32215004D01*
X74013796Y-32215006D01*
X74013798Y-32215009D01*
X74164990Y-32366201D01*
X74164993Y-32366203D01*
X74164996Y-32366206D01*
X74337991Y-32491894D01*
X74337996Y-32491896D01*
X74339088Y-32492566D01*
X74339418Y-32492931D01*
X74341996Y-32494804D01*
X74341602Y-32495345D01*
X74386721Y-32545213D01*
X74398328Y-32615255D01*
X74370226Y-32680453D01*
X74341870Y-32705023D01*
X74341996Y-32705196D01*
X74339982Y-32706658D01*
X74339088Y-32707434D01*
X74337987Y-32708108D01*
X74164993Y-32833796D01*
X74164990Y-32833798D01*
X74013798Y-32984990D01*
X74013796Y-32984993D01*
X73888108Y-33157987D01*
X73887434Y-33159088D01*
X73887068Y-33159418D01*
X73885196Y-33161996D01*
X73884654Y-33161602D01*
X73834787Y-33206721D01*
X73764745Y-33218328D01*
X73699547Y-33190226D01*
X73674976Y-33161870D01*
X73674804Y-33161996D01*
X73673341Y-33159982D01*
X73672566Y-33159088D01*
X73671896Y-33157996D01*
X73671894Y-33157991D01*
X73546206Y-32984996D01*
X73546203Y-32984993D01*
X73546201Y-32984990D01*
X73395009Y-32833798D01*
X73395006Y-32833796D01*
X73395004Y-32833794D01*
X73275022Y-32746622D01*
X73222006Y-32708103D01*
X73220427Y-32707136D01*
X73219952Y-32706611D01*
X73218004Y-32705196D01*
X73218301Y-32704786D01*
X73172797Y-32654488D01*
X73161191Y-32584446D01*
X73189296Y-32519249D01*
X73217843Y-32494517D01*
X73217741Y-32494377D01*
X73219384Y-32493182D01*
X73220451Y-32492259D01*
X73221756Y-32491459D01*
X73274167Y-32453378D01*
X73274167Y-32453376D01*
X72634948Y-31814157D01*
X72702993Y-31795925D01*
X72817007Y-31730099D01*
X72910099Y-31637007D01*
X72975925Y-31522993D01*
X72994157Y-31454948D01*
X73633376Y-32094167D01*
G37*
G04 #@! TD.AperFunction*
G04 #@! TA.AperFunction,Conductor*
G36*
X33220445Y-32009766D02*
G01*
X33245021Y-32038130D01*
X33245196Y-32038004D01*
X33246668Y-32040030D01*
X33247439Y-32040920D01*
X33248104Y-32042006D01*
X33248106Y-32042009D01*
X33373794Y-32215004D01*
X33373796Y-32215006D01*
X33373798Y-32215009D01*
X33524990Y-32366201D01*
X33524993Y-32366203D01*
X33524996Y-32366206D01*
X33697991Y-32491894D01*
X33697996Y-32491896D01*
X33699088Y-32492566D01*
X33699418Y-32492931D01*
X33701996Y-32494804D01*
X33701602Y-32495345D01*
X33746721Y-32545213D01*
X33758328Y-32615255D01*
X33730226Y-32680453D01*
X33701870Y-32705023D01*
X33701996Y-32705196D01*
X33699982Y-32706658D01*
X33699088Y-32707434D01*
X33697987Y-32708108D01*
X33524995Y-32833794D01*
X33422018Y-32936771D01*
X33359706Y-32970796D01*
X33288890Y-32965730D01*
X33232054Y-32923184D01*
X33214871Y-32891715D01*
X33170889Y-32773796D01*
X33170886Y-32773792D01*
X33170886Y-32773791D01*
X33083261Y-32656738D01*
X32966207Y-32569112D01*
X32966203Y-32569110D01*
X32848291Y-32525131D01*
X32791455Y-32482585D01*
X32766645Y-32416064D01*
X32781737Y-32346690D01*
X32803226Y-32317983D01*
X32906206Y-32215004D01*
X33031894Y-32042009D01*
X33031899Y-32041997D01*
X33032561Y-32040920D01*
X33032924Y-32040591D01*
X33034804Y-32038004D01*
X33035347Y-32038398D01*
X33085204Y-31993283D01*
X33155244Y-31981670D01*
X33220445Y-32009766D01*
G37*
G04 #@! TD.AperFunction*
G04 #@! TA.AperFunction,Conductor*
G36*
X66964075Y-31522993D02*
G01*
X67029901Y-31637007D01*
X67122993Y-31730099D01*
X67237007Y-31795925D01*
X67305051Y-31814157D01*
X66665831Y-32453378D01*
X66718247Y-32491461D01*
X66719566Y-32492270D01*
X66719962Y-32492708D01*
X66722258Y-32494376D01*
X66721907Y-32494858D01*
X66742052Y-32517123D01*
X66765338Y-32541218D01*
X66765758Y-32543322D01*
X66767199Y-32544915D01*
X66772680Y-32577986D01*
X66779242Y-32610840D01*
X66778457Y-32612837D01*
X66778809Y-32614956D01*
X66765543Y-32645734D01*
X66753298Y-32676927D01*
X66751345Y-32678676D01*
X66750708Y-32680155D01*
X66727509Y-32701849D01*
X66720893Y-32706627D01*
X66717991Y-32708106D01*
X66573889Y-32812801D01*
X66573446Y-32813122D01*
X66540237Y-32824865D01*
X66506864Y-32836773D01*
X66506684Y-32836731D01*
X66506512Y-32836792D01*
X66472384Y-32828754D01*
X66437713Y-32820692D01*
X66437517Y-32820543D01*
X66437405Y-32820517D01*
X66437190Y-32820294D01*
X66410577Y-32800073D01*
X65959926Y-32349422D01*
X65925900Y-32287110D01*
X65930965Y-32216295D01*
X65947085Y-32186266D01*
X66013998Y-32094168D01*
X66051894Y-32042009D01*
X66051902Y-32041992D01*
X66052854Y-32040441D01*
X66053377Y-32039967D01*
X66054804Y-32038004D01*
X66055216Y-32038303D01*
X66105497Y-31992804D01*
X66175537Y-31981189D01*
X66240738Y-32009285D01*
X66265485Y-32037842D01*
X66265624Y-32037742D01*
X66266794Y-32039353D01*
X66267726Y-32040428D01*
X66268536Y-32041750D01*
X66306620Y-32094167D01*
X66306621Y-32094168D01*
X66945841Y-31454947D01*
X66964075Y-31522993D01*
G37*
G04 #@! TD.AperFunction*
G04 #@! TA.AperFunction,Conductor*
G36*
X82492121Y-29230002D02*
G01*
X82538614Y-29283658D01*
X82550000Y-29336000D01*
X82550000Y-36195000D01*
X88139000Y-36195000D01*
X88207121Y-36215002D01*
X88253614Y-36268658D01*
X88265000Y-36321000D01*
X88265000Y-77979000D01*
X88244998Y-78047121D01*
X88191342Y-78093614D01*
X88139000Y-78105000D01*
X81280000Y-78105000D01*
X81280000Y-84329000D01*
X81259998Y-84397121D01*
X81206342Y-84443614D01*
X81154000Y-84455000D01*
X71147551Y-84455000D01*
X71079430Y-84434998D01*
X71032937Y-84381342D01*
X71022833Y-84311068D01*
X71045615Y-84254939D01*
X71139754Y-84125367D01*
X71247519Y-83913867D01*
X71320866Y-83688129D01*
X71358000Y-83453678D01*
X71358000Y-83216321D01*
X71320866Y-82981870D01*
X71247519Y-82756132D01*
X71139757Y-82544637D01*
X71139756Y-82544636D01*
X71080766Y-82463442D01*
X71080765Y-82463442D01*
X70374982Y-83169225D01*
X70362518Y-83122708D01*
X70290110Y-82997292D01*
X70187708Y-82894890D01*
X70062292Y-82822482D01*
X70015771Y-82810016D01*
X70721556Y-82104232D01*
X70721556Y-82104230D01*
X70640368Y-82045246D01*
X70428867Y-81937480D01*
X70203129Y-81864133D01*
X69968679Y-81827000D01*
X69731321Y-81827000D01*
X69496870Y-81864133D01*
X69271132Y-81937480D01*
X69059634Y-82045243D01*
X68978442Y-82104231D01*
X69684227Y-82810017D01*
X69637708Y-82822482D01*
X69512292Y-82894890D01*
X69409890Y-82997292D01*
X69337482Y-83122708D01*
X69325017Y-83169227D01*
X68619232Y-82463442D01*
X68619231Y-82463442D01*
X68560243Y-82544634D01*
X68452480Y-82756132D01*
X68379133Y-82981870D01*
X68342000Y-83216321D01*
X68342000Y-83453678D01*
X68379133Y-83688129D01*
X68452480Y-83913867D01*
X68560245Y-84125367D01*
X68654385Y-84254939D01*
X68678243Y-84321807D01*
X68662163Y-84390958D01*
X68611249Y-84440438D01*
X68552449Y-84455000D01*
X66648170Y-84455000D01*
X66580049Y-84434998D01*
X66533556Y-84381342D01*
X66523452Y-84311068D01*
X66546234Y-84254939D01*
X66640185Y-84125627D01*
X66747982Y-83914063D01*
X66821356Y-83688241D01*
X66858500Y-83453722D01*
X66858500Y-83216278D01*
X66821356Y-82981759D01*
X66747982Y-82755937D01*
X66640185Y-82544373D01*
X66500620Y-82352278D01*
X66500617Y-82352275D01*
X66500615Y-82352272D01*
X66332727Y-82184384D01*
X66332724Y-82184382D01*
X66332722Y-82184380D01*
X66182173Y-82075000D01*
X66140630Y-82044817D01*
X66140629Y-82044816D01*
X66140627Y-82044815D01*
X65929063Y-81937018D01*
X65929060Y-81937017D01*
X65929058Y-81937016D01*
X65703246Y-81863645D01*
X65703242Y-81863644D01*
X65703241Y-81863644D01*
X65468722Y-81826500D01*
X65231278Y-81826500D01*
X64996759Y-81863644D01*
X64996753Y-81863645D01*
X64770941Y-81937016D01*
X64770935Y-81937019D01*
X64559369Y-82044817D01*
X64367275Y-82184382D01*
X64367272Y-82184384D01*
X64199384Y-82352272D01*
X64199382Y-82352275D01*
X64059817Y-82544369D01*
X63952019Y-82755935D01*
X63952016Y-82755941D01*
X63878645Y-82981753D01*
X63878644Y-82981758D01*
X63878644Y-82981759D01*
X63841500Y-83216278D01*
X63841500Y-83453722D01*
X63876184Y-83672708D01*
X63878645Y-83688246D01*
X63951954Y-83913867D01*
X63952018Y-83914063D01*
X63974660Y-83958500D01*
X64059817Y-84125630D01*
X64153766Y-84254939D01*
X64177624Y-84321806D01*
X64161544Y-84390958D01*
X64110630Y-84440438D01*
X64051830Y-84455000D01*
X62892551Y-84455000D01*
X62824430Y-84434998D01*
X62777937Y-84381342D01*
X62767833Y-84311068D01*
X62790615Y-84254939D01*
X62884754Y-84125367D01*
X62992519Y-83913867D01*
X63065866Y-83688129D01*
X63103000Y-83453678D01*
X63103000Y-83216321D01*
X63065866Y-82981870D01*
X62992519Y-82756132D01*
X62884757Y-82544637D01*
X62884756Y-82544636D01*
X62825766Y-82463442D01*
X62825765Y-82463442D01*
X62119982Y-83169225D01*
X62107518Y-83122708D01*
X62035110Y-82997292D01*
X61932708Y-82894890D01*
X61807292Y-82822482D01*
X61760771Y-82810016D01*
X62466556Y-82104232D01*
X62466556Y-82104230D01*
X62385368Y-82045246D01*
X62173867Y-81937480D01*
X61948129Y-81864133D01*
X61713679Y-81827000D01*
X61476321Y-81827000D01*
X61241870Y-81864133D01*
X61016132Y-81937480D01*
X60804634Y-82045243D01*
X60723442Y-82104231D01*
X61429227Y-82810017D01*
X61382708Y-82822482D01*
X61257292Y-82894890D01*
X61154890Y-82997292D01*
X61082482Y-83122708D01*
X61070017Y-83169227D01*
X60364232Y-82463442D01*
X60364231Y-82463442D01*
X60305243Y-82544634D01*
X60197480Y-82756132D01*
X60124133Y-82981870D01*
X60087000Y-83216321D01*
X60087000Y-83453678D01*
X60124133Y-83688129D01*
X60197480Y-83913867D01*
X60305245Y-84125367D01*
X60399385Y-84254939D01*
X60423243Y-84321807D01*
X60407163Y-84390958D01*
X60356249Y-84440438D01*
X60297449Y-84455000D01*
X58393170Y-84455000D01*
X58325049Y-84434998D01*
X58278556Y-84381342D01*
X58268452Y-84311068D01*
X58291234Y-84254939D01*
X58385185Y-84125627D01*
X58492982Y-83914063D01*
X58566356Y-83688241D01*
X58603500Y-83453722D01*
X58603500Y-83216278D01*
X58566356Y-82981759D01*
X58492982Y-82755937D01*
X58385185Y-82544373D01*
X58245620Y-82352278D01*
X58245617Y-82352275D01*
X58245615Y-82352272D01*
X58077727Y-82184384D01*
X58077724Y-82184382D01*
X58077722Y-82184380D01*
X57927173Y-82075000D01*
X57885630Y-82044817D01*
X57885629Y-82044816D01*
X57885627Y-82044815D01*
X57674063Y-81937018D01*
X57674060Y-81937017D01*
X57674058Y-81937016D01*
X57448246Y-81863645D01*
X57448242Y-81863644D01*
X57448241Y-81863644D01*
X57213722Y-81826500D01*
X56976278Y-81826500D01*
X56741759Y-81863644D01*
X56741753Y-81863645D01*
X56515941Y-81937016D01*
X56515935Y-81937019D01*
X56304369Y-82044817D01*
X56112275Y-82184382D01*
X56112272Y-82184384D01*
X55944384Y-82352272D01*
X55944382Y-82352275D01*
X55804817Y-82544369D01*
X55697019Y-82755935D01*
X55697016Y-82755941D01*
X55623645Y-82981753D01*
X55623644Y-82981758D01*
X55623644Y-82981759D01*
X55586500Y-83216278D01*
X55586500Y-83453722D01*
X55621184Y-83672708D01*
X55623645Y-83688246D01*
X55696954Y-83913867D01*
X55697018Y-83914063D01*
X55719660Y-83958500D01*
X55804817Y-84125630D01*
X55898766Y-84254939D01*
X55922624Y-84321806D01*
X55906544Y-84390958D01*
X55855630Y-84440438D01*
X55796830Y-84455000D01*
X54637551Y-84455000D01*
X54569430Y-84434998D01*
X54522937Y-84381342D01*
X54512833Y-84311068D01*
X54535615Y-84254939D01*
X54629754Y-84125367D01*
X54737519Y-83913867D01*
X54810866Y-83688129D01*
X54848000Y-83453678D01*
X54848000Y-83216321D01*
X54810866Y-82981870D01*
X54737519Y-82756132D01*
X54629757Y-82544637D01*
X54629756Y-82544636D01*
X54570766Y-82463442D01*
X54570765Y-82463442D01*
X53864982Y-83169225D01*
X53852518Y-83122708D01*
X53780110Y-82997292D01*
X53677708Y-82894890D01*
X53552292Y-82822482D01*
X53505771Y-82810016D01*
X54211556Y-82104232D01*
X54211556Y-82104230D01*
X54130368Y-82045246D01*
X53918867Y-81937480D01*
X53693129Y-81864133D01*
X53458679Y-81827000D01*
X53221321Y-81827000D01*
X52986870Y-81864133D01*
X52761132Y-81937480D01*
X52549634Y-82045243D01*
X52468442Y-82104231D01*
X53174227Y-82810017D01*
X53127708Y-82822482D01*
X53002292Y-82894890D01*
X52899890Y-82997292D01*
X52827482Y-83122708D01*
X52815017Y-83169227D01*
X52109232Y-82463442D01*
X52109231Y-82463442D01*
X52050243Y-82544634D01*
X51942480Y-82756132D01*
X51869133Y-82981870D01*
X51832000Y-83216321D01*
X51832000Y-83453678D01*
X51869133Y-83688129D01*
X51942480Y-83913867D01*
X52050245Y-84125367D01*
X52144385Y-84254939D01*
X52168243Y-84321807D01*
X52152163Y-84390958D01*
X52101249Y-84440438D01*
X52042449Y-84455000D01*
X50138170Y-84455000D01*
X50070049Y-84434998D01*
X50023556Y-84381342D01*
X50013452Y-84311068D01*
X50036234Y-84254939D01*
X50130185Y-84125627D01*
X50237982Y-83914063D01*
X50311356Y-83688241D01*
X50348500Y-83453722D01*
X50348500Y-83216278D01*
X50311356Y-82981759D01*
X50237982Y-82755937D01*
X50130185Y-82544373D01*
X49990620Y-82352278D01*
X49990617Y-82352275D01*
X49990615Y-82352272D01*
X49822727Y-82184384D01*
X49822724Y-82184382D01*
X49822722Y-82184380D01*
X49672173Y-82075000D01*
X49630630Y-82044817D01*
X49630629Y-82044816D01*
X49630627Y-82044815D01*
X49419063Y-81937018D01*
X49419060Y-81937017D01*
X49419058Y-81937016D01*
X49193246Y-81863645D01*
X49193242Y-81863644D01*
X49193241Y-81863644D01*
X48958722Y-81826500D01*
X48721278Y-81826500D01*
X48486759Y-81863644D01*
X48486753Y-81863645D01*
X48260941Y-81937016D01*
X48260935Y-81937019D01*
X48049369Y-82044817D01*
X47857275Y-82184382D01*
X47857272Y-82184384D01*
X47689384Y-82352272D01*
X47689382Y-82352275D01*
X47549817Y-82544369D01*
X47442019Y-82755935D01*
X47442016Y-82755941D01*
X47368645Y-82981753D01*
X47368644Y-82981758D01*
X47368644Y-82981759D01*
X47331500Y-83216278D01*
X47331500Y-83453722D01*
X47366184Y-83672708D01*
X47368645Y-83688246D01*
X47441954Y-83913867D01*
X47442018Y-83914063D01*
X47464660Y-83958500D01*
X47549817Y-84125630D01*
X47643766Y-84254939D01*
X47667624Y-84321806D01*
X47651544Y-84390958D01*
X47600630Y-84440438D01*
X47541830Y-84455000D01*
X46382551Y-84455000D01*
X46314430Y-84434998D01*
X46267937Y-84381342D01*
X46257833Y-84311068D01*
X46280615Y-84254939D01*
X46374754Y-84125367D01*
X46482519Y-83913867D01*
X46555866Y-83688129D01*
X46593000Y-83453678D01*
X46593000Y-83216321D01*
X46555866Y-82981870D01*
X46482519Y-82756132D01*
X46374757Y-82544637D01*
X46374756Y-82544636D01*
X46315766Y-82463442D01*
X46315765Y-82463442D01*
X45609982Y-83169225D01*
X45597518Y-83122708D01*
X45525110Y-82997292D01*
X45422708Y-82894890D01*
X45297292Y-82822482D01*
X45250771Y-82810016D01*
X45956556Y-82104232D01*
X45956556Y-82104230D01*
X45875368Y-82045246D01*
X45663867Y-81937480D01*
X45438129Y-81864133D01*
X45203679Y-81827000D01*
X44966321Y-81827000D01*
X44731870Y-81864133D01*
X44506132Y-81937480D01*
X44294634Y-82045243D01*
X44213442Y-82104231D01*
X44919227Y-82810017D01*
X44872708Y-82822482D01*
X44747292Y-82894890D01*
X44644890Y-82997292D01*
X44572482Y-83122708D01*
X44560017Y-83169227D01*
X43854232Y-82463442D01*
X43854231Y-82463442D01*
X43795243Y-82544634D01*
X43687480Y-82756132D01*
X43614133Y-82981870D01*
X43577000Y-83216321D01*
X43577000Y-83453678D01*
X43614133Y-83688129D01*
X43687480Y-83913867D01*
X43795245Y-84125367D01*
X43889385Y-84254939D01*
X43913243Y-84321807D01*
X43897163Y-84390958D01*
X43846249Y-84440438D01*
X43787449Y-84455000D01*
X41883170Y-84455000D01*
X41815049Y-84434998D01*
X41768556Y-84381342D01*
X41758452Y-84311068D01*
X41781234Y-84254939D01*
X41875185Y-84125627D01*
X41982982Y-83914063D01*
X42056356Y-83688241D01*
X42093500Y-83453722D01*
X42093500Y-83216278D01*
X42056356Y-82981759D01*
X41982982Y-82755937D01*
X41875185Y-82544373D01*
X41735620Y-82352278D01*
X41735617Y-82352275D01*
X41735615Y-82352272D01*
X41567727Y-82184384D01*
X41567724Y-82184382D01*
X41567722Y-82184380D01*
X41417173Y-82075000D01*
X41375630Y-82044817D01*
X41375629Y-82044816D01*
X41375627Y-82044815D01*
X41164063Y-81937018D01*
X41164060Y-81937017D01*
X41164058Y-81937016D01*
X40938246Y-81863645D01*
X40938242Y-81863644D01*
X40938241Y-81863644D01*
X40703722Y-81826500D01*
X40466278Y-81826500D01*
X40231759Y-81863644D01*
X40231753Y-81863645D01*
X40005941Y-81937016D01*
X40005935Y-81937019D01*
X39794369Y-82044817D01*
X39602275Y-82184382D01*
X39602272Y-82184384D01*
X39434384Y-82352272D01*
X39434382Y-82352275D01*
X39294817Y-82544369D01*
X39187019Y-82755935D01*
X39187016Y-82755941D01*
X39113645Y-82981753D01*
X39113644Y-82981758D01*
X39113644Y-82981759D01*
X39076500Y-83216278D01*
X39076500Y-83453722D01*
X39111184Y-83672708D01*
X39113645Y-83688246D01*
X39186954Y-83913867D01*
X39187018Y-83914063D01*
X39209660Y-83958500D01*
X39294817Y-84125630D01*
X39388766Y-84254939D01*
X39412624Y-84321806D01*
X39396544Y-84390958D01*
X39345630Y-84440438D01*
X39286830Y-84455000D01*
X38127551Y-84455000D01*
X38059430Y-84434998D01*
X38012937Y-84381342D01*
X38002833Y-84311068D01*
X38025615Y-84254939D01*
X38119754Y-84125367D01*
X38227519Y-83913867D01*
X38300866Y-83688129D01*
X38338000Y-83453678D01*
X38338000Y-83216321D01*
X38300866Y-82981870D01*
X38227519Y-82756132D01*
X38119757Y-82544637D01*
X38119756Y-82544636D01*
X38060766Y-82463442D01*
X38060765Y-82463442D01*
X37354982Y-83169225D01*
X37342518Y-83122708D01*
X37270110Y-82997292D01*
X37167708Y-82894890D01*
X37042292Y-82822482D01*
X36995771Y-82810016D01*
X37701556Y-82104232D01*
X37701556Y-82104230D01*
X37620368Y-82045246D01*
X37408867Y-81937480D01*
X37183129Y-81864133D01*
X36948679Y-81827000D01*
X36711321Y-81827000D01*
X36476870Y-81864133D01*
X36251132Y-81937480D01*
X36039634Y-82045243D01*
X35958442Y-82104231D01*
X36664227Y-82810017D01*
X36617708Y-82822482D01*
X36492292Y-82894890D01*
X36389890Y-82997292D01*
X36317482Y-83122708D01*
X36305017Y-83169227D01*
X35599232Y-82463442D01*
X35599231Y-82463442D01*
X35540243Y-82544634D01*
X35432480Y-82756132D01*
X35359133Y-82981870D01*
X35322000Y-83216321D01*
X35322000Y-83453678D01*
X35359133Y-83688129D01*
X35432480Y-83913867D01*
X35540245Y-84125367D01*
X35634385Y-84254939D01*
X35658243Y-84321807D01*
X35642163Y-84390958D01*
X35591249Y-84440438D01*
X35532449Y-84455000D01*
X33628170Y-84455000D01*
X33560049Y-84434998D01*
X33513556Y-84381342D01*
X33503452Y-84311068D01*
X33526234Y-84254939D01*
X33620185Y-84125627D01*
X33727982Y-83914063D01*
X33801356Y-83688241D01*
X33838500Y-83453722D01*
X33838500Y-83216278D01*
X33801356Y-82981759D01*
X33727982Y-82755937D01*
X33620185Y-82544373D01*
X33480620Y-82352278D01*
X33480617Y-82352275D01*
X33480615Y-82352272D01*
X33312727Y-82184384D01*
X33312724Y-82184382D01*
X33312722Y-82184380D01*
X33162173Y-82075000D01*
X33120630Y-82044817D01*
X33120629Y-82044816D01*
X33120627Y-82044815D01*
X32909063Y-81937018D01*
X32909060Y-81937017D01*
X32909058Y-81937016D01*
X32683246Y-81863645D01*
X32683242Y-81863644D01*
X32683241Y-81863644D01*
X32448722Y-81826500D01*
X32211278Y-81826500D01*
X31976759Y-81863644D01*
X31976753Y-81863645D01*
X31750941Y-81937016D01*
X31750935Y-81937019D01*
X31539369Y-82044817D01*
X31347275Y-82184382D01*
X31347272Y-82184384D01*
X31179384Y-82352272D01*
X31179382Y-82352275D01*
X31039817Y-82544369D01*
X30932019Y-82755935D01*
X30932016Y-82755941D01*
X30858645Y-82981753D01*
X30858644Y-82981758D01*
X30858644Y-82981759D01*
X30821500Y-83216278D01*
X30821500Y-83453722D01*
X30856184Y-83672708D01*
X30858645Y-83688246D01*
X30931954Y-83913867D01*
X30932018Y-83914063D01*
X30954660Y-83958500D01*
X31039817Y-84125630D01*
X31133766Y-84254939D01*
X31157624Y-84321806D01*
X31141544Y-84390958D01*
X31090630Y-84440438D01*
X31031830Y-84455000D01*
X30606000Y-84455000D01*
X30537879Y-84434998D01*
X30491386Y-84381342D01*
X30480000Y-84329000D01*
X30480000Y-78105000D01*
X24256000Y-78105000D01*
X24187879Y-78084998D01*
X24141386Y-78031342D01*
X24130000Y-77979000D01*
X24130000Y-76716278D01*
X30821500Y-76716278D01*
X30821500Y-76953722D01*
X30836320Y-77047292D01*
X30858645Y-77188246D01*
X30931954Y-77413867D01*
X30932018Y-77414063D01*
X31039815Y-77625627D01*
X31179380Y-77817722D01*
X31179382Y-77817724D01*
X31179384Y-77817727D01*
X31347272Y-77985615D01*
X31347275Y-77985617D01*
X31347278Y-77985620D01*
X31539373Y-78125185D01*
X31750937Y-78232982D01*
X31976759Y-78306356D01*
X32211278Y-78343500D01*
X32211281Y-78343500D01*
X32448719Y-78343500D01*
X32448722Y-78343500D01*
X32683241Y-78306356D01*
X32909063Y-78232982D01*
X33120627Y-78125185D01*
X33312722Y-77985620D01*
X33319342Y-77979000D01*
X33369693Y-77928650D01*
X33480615Y-77817727D01*
X33480620Y-77817722D01*
X33620185Y-77625627D01*
X33727982Y-77414063D01*
X33801356Y-77188241D01*
X33838500Y-76953722D01*
X33838500Y-76716321D01*
X35322000Y-76716321D01*
X35322000Y-76953678D01*
X35359133Y-77188129D01*
X35432480Y-77413867D01*
X35540246Y-77625368D01*
X35599230Y-77706556D01*
X35599232Y-77706556D01*
X36305016Y-77000771D01*
X36317482Y-77047292D01*
X36389890Y-77172708D01*
X36492292Y-77275110D01*
X36617708Y-77347518D01*
X36664226Y-77359982D01*
X35958442Y-78065766D01*
X36039636Y-78124756D01*
X36039637Y-78124757D01*
X36251132Y-78232519D01*
X36476870Y-78305866D01*
X36711321Y-78343000D01*
X36948679Y-78343000D01*
X37183129Y-78305866D01*
X37408867Y-78232519D01*
X37620367Y-78124754D01*
X37701556Y-78065767D01*
X37701556Y-78065765D01*
X36995773Y-77359982D01*
X37042292Y-77347518D01*
X37167708Y-77275110D01*
X37270110Y-77172708D01*
X37342518Y-77047292D01*
X37354982Y-77000773D01*
X38060765Y-77706556D01*
X38060767Y-77706556D01*
X38119754Y-77625367D01*
X38227519Y-77413867D01*
X38300866Y-77188129D01*
X38338000Y-76953678D01*
X38338000Y-76716321D01*
X38337993Y-76716278D01*
X39076500Y-76716278D01*
X39076500Y-76953722D01*
X39091320Y-77047292D01*
X39113645Y-77188246D01*
X39186954Y-77413867D01*
X39187018Y-77414063D01*
X39294815Y-77625627D01*
X39434380Y-77817722D01*
X39434382Y-77817724D01*
X39434384Y-77817727D01*
X39602272Y-77985615D01*
X39602275Y-77985617D01*
X39602278Y-77985620D01*
X39794373Y-78125185D01*
X40005937Y-78232982D01*
X40231759Y-78306356D01*
X40466278Y-78343500D01*
X40466281Y-78343500D01*
X40703719Y-78343500D01*
X40703722Y-78343500D01*
X40938241Y-78306356D01*
X41164063Y-78232982D01*
X41375627Y-78125185D01*
X41567722Y-77985620D01*
X41574342Y-77979000D01*
X41624693Y-77928650D01*
X41735615Y-77817727D01*
X41735620Y-77817722D01*
X41875185Y-77625627D01*
X41982982Y-77414063D01*
X42056356Y-77188241D01*
X42093500Y-76953722D01*
X42093500Y-76716321D01*
X43577000Y-76716321D01*
X43577000Y-76953678D01*
X43614133Y-77188129D01*
X43687480Y-77413867D01*
X43795246Y-77625368D01*
X43854230Y-77706556D01*
X43854232Y-77706556D01*
X44560016Y-77000771D01*
X44572482Y-77047292D01*
X44644890Y-77172708D01*
X44747292Y-77275110D01*
X44872708Y-77347518D01*
X44919226Y-77359982D01*
X44213442Y-78065766D01*
X44294636Y-78124756D01*
X44294637Y-78124757D01*
X44506132Y-78232519D01*
X44731870Y-78305866D01*
X44966321Y-78343000D01*
X45203679Y-78343000D01*
X45438129Y-78305866D01*
X45663867Y-78232519D01*
X45875367Y-78124754D01*
X45956556Y-78065767D01*
X45956556Y-78065765D01*
X45250773Y-77359982D01*
X45297292Y-77347518D01*
X45422708Y-77275110D01*
X45525110Y-77172708D01*
X45597518Y-77047292D01*
X45609982Y-77000773D01*
X46315765Y-77706556D01*
X46315767Y-77706556D01*
X46374754Y-77625367D01*
X46482519Y-77413867D01*
X46555866Y-77188129D01*
X46593000Y-76953678D01*
X46593000Y-76716321D01*
X46592993Y-76716278D01*
X47331500Y-76716278D01*
X47331500Y-76953722D01*
X47346320Y-77047292D01*
X47368645Y-77188246D01*
X47441954Y-77413867D01*
X47442018Y-77414063D01*
X47549815Y-77625627D01*
X47689380Y-77817722D01*
X47689382Y-77817724D01*
X47689384Y-77817727D01*
X47857272Y-77985615D01*
X47857275Y-77985617D01*
X47857278Y-77985620D01*
X48049373Y-78125185D01*
X48260937Y-78232982D01*
X48486759Y-78306356D01*
X48721278Y-78343500D01*
X48721281Y-78343500D01*
X48958719Y-78343500D01*
X48958722Y-78343500D01*
X49193241Y-78306356D01*
X49419063Y-78232982D01*
X49630627Y-78125185D01*
X49822722Y-77985620D01*
X49829342Y-77979000D01*
X49879693Y-77928650D01*
X49990615Y-77817727D01*
X49990620Y-77817722D01*
X50130185Y-77625627D01*
X50237982Y-77414063D01*
X50311356Y-77188241D01*
X50348500Y-76953722D01*
X50348500Y-76716321D01*
X51832000Y-76716321D01*
X51832000Y-76953678D01*
X51869133Y-77188129D01*
X51942480Y-77413867D01*
X52050246Y-77625368D01*
X52109230Y-77706556D01*
X52109232Y-77706556D01*
X52815016Y-77000771D01*
X52827482Y-77047292D01*
X52899890Y-77172708D01*
X53002292Y-77275110D01*
X53127708Y-77347518D01*
X53174226Y-77359982D01*
X52468442Y-78065766D01*
X52549636Y-78124756D01*
X52549637Y-78124757D01*
X52761132Y-78232519D01*
X52986870Y-78305866D01*
X53221321Y-78343000D01*
X53458679Y-78343000D01*
X53693129Y-78305866D01*
X53918867Y-78232519D01*
X54130367Y-78124754D01*
X54211556Y-78065767D01*
X54211556Y-78065765D01*
X53505773Y-77359982D01*
X53552292Y-77347518D01*
X53677708Y-77275110D01*
X53780110Y-77172708D01*
X53852518Y-77047292D01*
X53864982Y-77000773D01*
X54570765Y-77706556D01*
X54570767Y-77706556D01*
X54629754Y-77625367D01*
X54737519Y-77413867D01*
X54810866Y-77188129D01*
X54848000Y-76953678D01*
X54848000Y-76716321D01*
X54847993Y-76716278D01*
X55586500Y-76716278D01*
X55586500Y-76953722D01*
X55601320Y-77047292D01*
X55623645Y-77188246D01*
X55696954Y-77413867D01*
X55697018Y-77414063D01*
X55804815Y-77625627D01*
X55944380Y-77817722D01*
X55944382Y-77817724D01*
X55944384Y-77817727D01*
X56112272Y-77985615D01*
X56112275Y-77985617D01*
X56112278Y-77985620D01*
X56304373Y-78125185D01*
X56515937Y-78232982D01*
X56741759Y-78306356D01*
X56976278Y-78343500D01*
X56976281Y-78343500D01*
X57213719Y-78343500D01*
X57213722Y-78343500D01*
X57448241Y-78306356D01*
X57674063Y-78232982D01*
X57885627Y-78125185D01*
X58077722Y-77985620D01*
X58084342Y-77979000D01*
X58134693Y-77928650D01*
X58245615Y-77817727D01*
X58245620Y-77817722D01*
X58385185Y-77625627D01*
X58492982Y-77414063D01*
X58566356Y-77188241D01*
X58603500Y-76953722D01*
X58603500Y-76716321D01*
X60087000Y-76716321D01*
X60087000Y-76953678D01*
X60124133Y-77188129D01*
X60197480Y-77413867D01*
X60305246Y-77625368D01*
X60364230Y-77706556D01*
X60364232Y-77706556D01*
X61070016Y-77000771D01*
X61082482Y-77047292D01*
X61154890Y-77172708D01*
X61257292Y-77275110D01*
X61382708Y-77347518D01*
X61429226Y-77359982D01*
X60723442Y-78065766D01*
X60804636Y-78124756D01*
X60804637Y-78124757D01*
X61016132Y-78232519D01*
X61241870Y-78305866D01*
X61476321Y-78343000D01*
X61713679Y-78343000D01*
X61948129Y-78305866D01*
X62173867Y-78232519D01*
X62385367Y-78124754D01*
X62466556Y-78065767D01*
X62466556Y-78065765D01*
X61760773Y-77359982D01*
X61807292Y-77347518D01*
X61932708Y-77275110D01*
X62035110Y-77172708D01*
X62107518Y-77047292D01*
X62119982Y-77000773D01*
X62825765Y-77706556D01*
X62825767Y-77706556D01*
X62884754Y-77625367D01*
X62992519Y-77413867D01*
X63065866Y-77188129D01*
X63103000Y-76953678D01*
X63103000Y-76716321D01*
X63102993Y-76716278D01*
X63841500Y-76716278D01*
X63841500Y-76953722D01*
X63856320Y-77047292D01*
X63878645Y-77188246D01*
X63951954Y-77413867D01*
X63952018Y-77414063D01*
X64059815Y-77625627D01*
X64199380Y-77817722D01*
X64199382Y-77817724D01*
X64199384Y-77817727D01*
X64367272Y-77985615D01*
X64367275Y-77985617D01*
X64367278Y-77985620D01*
X64559373Y-78125185D01*
X64770937Y-78232982D01*
X64996759Y-78306356D01*
X65231278Y-78343500D01*
X65231281Y-78343500D01*
X65468719Y-78343500D01*
X65468722Y-78343500D01*
X65703241Y-78306356D01*
X65929063Y-78232982D01*
X66140627Y-78125185D01*
X66332722Y-77985620D01*
X66339342Y-77979000D01*
X66389693Y-77928650D01*
X66500615Y-77817727D01*
X66500620Y-77817722D01*
X66640185Y-77625627D01*
X66747982Y-77414063D01*
X66821356Y-77188241D01*
X66858500Y-76953722D01*
X66858500Y-76716321D01*
X68342000Y-76716321D01*
X68342000Y-76953678D01*
X68379133Y-77188129D01*
X68452480Y-77413867D01*
X68560246Y-77625368D01*
X68619230Y-77706556D01*
X68619232Y-77706556D01*
X69325016Y-77000771D01*
X69337482Y-77047292D01*
X69409890Y-77172708D01*
X69512292Y-77275110D01*
X69637708Y-77347518D01*
X69684226Y-77359982D01*
X68978442Y-78065766D01*
X69059636Y-78124756D01*
X69059637Y-78124757D01*
X69271132Y-78232519D01*
X69496870Y-78305866D01*
X69731321Y-78343000D01*
X69968679Y-78343000D01*
X70203129Y-78305866D01*
X70428867Y-78232519D01*
X70640367Y-78124754D01*
X70721556Y-78065767D01*
X70721556Y-78065765D01*
X70015773Y-77359982D01*
X70062292Y-77347518D01*
X70187708Y-77275110D01*
X70290110Y-77172708D01*
X70362518Y-77047292D01*
X70374982Y-77000773D01*
X71080765Y-77706556D01*
X71080767Y-77706556D01*
X71139754Y-77625367D01*
X71247519Y-77413867D01*
X71320866Y-77188129D01*
X71358000Y-76953678D01*
X71358000Y-76716321D01*
X71320866Y-76481870D01*
X71247519Y-76256132D01*
X71139757Y-76044637D01*
X71139756Y-76044636D01*
X71080766Y-75963442D01*
X70374982Y-76669226D01*
X70362518Y-76622708D01*
X70290110Y-76497292D01*
X70187708Y-76394890D01*
X70062292Y-76322482D01*
X70015771Y-76310016D01*
X70721556Y-75604232D01*
X70721556Y-75604230D01*
X70640368Y-75545246D01*
X70428867Y-75437480D01*
X70203129Y-75364133D01*
X69968679Y-75327000D01*
X69731321Y-75327000D01*
X69496870Y-75364133D01*
X69271132Y-75437480D01*
X69059634Y-75545243D01*
X68978442Y-75604231D01*
X69684227Y-76310017D01*
X69637708Y-76322482D01*
X69512292Y-76394890D01*
X69409890Y-76497292D01*
X69337482Y-76622708D01*
X69325017Y-76669227D01*
X68619231Y-75963442D01*
X68560243Y-76044634D01*
X68452480Y-76256132D01*
X68379133Y-76481870D01*
X68342000Y-76716321D01*
X66858500Y-76716321D01*
X66858500Y-76716278D01*
X66821356Y-76481759D01*
X66747982Y-76255937D01*
X66640185Y-76044373D01*
X66500620Y-75852278D01*
X66500617Y-75852275D01*
X66500615Y-75852272D01*
X66332727Y-75684384D01*
X66332724Y-75684382D01*
X66332722Y-75684380D01*
X66140627Y-75544815D01*
X65929063Y-75437018D01*
X65929060Y-75437017D01*
X65929058Y-75437016D01*
X65703246Y-75363645D01*
X65703242Y-75363644D01*
X65703241Y-75363644D01*
X65468722Y-75326500D01*
X65231278Y-75326500D01*
X64997416Y-75363540D01*
X64996753Y-75363645D01*
X64770941Y-75437016D01*
X64770935Y-75437019D01*
X64559369Y-75544817D01*
X64367275Y-75684382D01*
X64367272Y-75684384D01*
X64199384Y-75852272D01*
X64199382Y-75852275D01*
X64059817Y-76044369D01*
X63952019Y-76255935D01*
X63952016Y-76255941D01*
X63878645Y-76481753D01*
X63878644Y-76481758D01*
X63878644Y-76481759D01*
X63841500Y-76716278D01*
X63102993Y-76716278D01*
X63065866Y-76481870D01*
X62992519Y-76256132D01*
X62884757Y-76044637D01*
X62884756Y-76044636D01*
X62825766Y-75963442D01*
X62119982Y-76669226D01*
X62107518Y-76622708D01*
X62035110Y-76497292D01*
X61932708Y-76394890D01*
X61807292Y-76322482D01*
X61760771Y-76310016D01*
X62466556Y-75604232D01*
X62466556Y-75604230D01*
X62385368Y-75545246D01*
X62173867Y-75437480D01*
X61948129Y-75364133D01*
X61713679Y-75327000D01*
X61476321Y-75327000D01*
X61241870Y-75364133D01*
X61016132Y-75437480D01*
X60804634Y-75545243D01*
X60723442Y-75604231D01*
X61429227Y-76310017D01*
X61382708Y-76322482D01*
X61257292Y-76394890D01*
X61154890Y-76497292D01*
X61082482Y-76622708D01*
X61070017Y-76669227D01*
X60364231Y-75963442D01*
X60305243Y-76044634D01*
X60197480Y-76256132D01*
X60124133Y-76481870D01*
X60087000Y-76716321D01*
X58603500Y-76716321D01*
X58603500Y-76716278D01*
X58566356Y-76481759D01*
X58492982Y-76255937D01*
X58385185Y-76044373D01*
X58245620Y-75852278D01*
X58245617Y-75852275D01*
X58245615Y-75852272D01*
X58077727Y-75684384D01*
X58077724Y-75684382D01*
X58077722Y-75684380D01*
X57885627Y-75544815D01*
X57674063Y-75437018D01*
X57674060Y-75437017D01*
X57674058Y-75437016D01*
X57448246Y-75363645D01*
X57448242Y-75363644D01*
X57448241Y-75363644D01*
X57213722Y-75326500D01*
X56976278Y-75326500D01*
X56742416Y-75363540D01*
X56741753Y-75363645D01*
X56515941Y-75437016D01*
X56515935Y-75437019D01*
X56304369Y-75544817D01*
X56112275Y-75684382D01*
X56112272Y-75684384D01*
X55944384Y-75852272D01*
X55944382Y-75852275D01*
X55804817Y-76044369D01*
X55697019Y-76255935D01*
X55697016Y-76255941D01*
X55623645Y-76481753D01*
X55623644Y-76481758D01*
X55623644Y-76481759D01*
X55586500Y-76716278D01*
X54847993Y-76716278D01*
X54810866Y-76481870D01*
X54737519Y-76256132D01*
X54629757Y-76044637D01*
X54629756Y-76044636D01*
X54570766Y-75963442D01*
X53864982Y-76669226D01*
X53852518Y-76622708D01*
X53780110Y-76497292D01*
X53677708Y-76394890D01*
X53552292Y-76322482D01*
X53505771Y-76310016D01*
X54211556Y-75604232D01*
X54211556Y-75604230D01*
X54130368Y-75545246D01*
X53918867Y-75437480D01*
X53693129Y-75364133D01*
X53458679Y-75327000D01*
X53221321Y-75327000D01*
X52986870Y-75364133D01*
X52761132Y-75437480D01*
X52549634Y-75545243D01*
X52468442Y-75604231D01*
X53174227Y-76310017D01*
X53127708Y-76322482D01*
X53002292Y-76394890D01*
X52899890Y-76497292D01*
X52827482Y-76622708D01*
X52815017Y-76669227D01*
X52109231Y-75963442D01*
X52050243Y-76044634D01*
X51942480Y-76256132D01*
X51869133Y-76481870D01*
X51832000Y-76716321D01*
X50348500Y-76716321D01*
X50348500Y-76716278D01*
X50311356Y-76481759D01*
X50237982Y-76255937D01*
X50130185Y-76044373D01*
X49990620Y-75852278D01*
X49990617Y-75852275D01*
X49990615Y-75852272D01*
X49822727Y-75684384D01*
X49822724Y-75684382D01*
X49822722Y-75684380D01*
X49630627Y-75544815D01*
X49419063Y-75437018D01*
X49419060Y-75437017D01*
X49419058Y-75437016D01*
X49193246Y-75363645D01*
X49193242Y-75363644D01*
X49193241Y-75363644D01*
X48958722Y-75326500D01*
X48721278Y-75326500D01*
X48487416Y-75363540D01*
X48486753Y-75363645D01*
X48260941Y-75437016D01*
X48260935Y-75437019D01*
X48049369Y-75544817D01*
X47857275Y-75684382D01*
X47857272Y-75684384D01*
X47689384Y-75852272D01*
X47689382Y-75852275D01*
X47549817Y-76044369D01*
X47442019Y-76255935D01*
X47442016Y-76255941D01*
X47368645Y-76481753D01*
X47368644Y-76481758D01*
X47368644Y-76481759D01*
X47331500Y-76716278D01*
X46592993Y-76716278D01*
X46555866Y-76481870D01*
X46482519Y-76256132D01*
X46374757Y-76044637D01*
X46374756Y-76044636D01*
X46315766Y-75963442D01*
X45609982Y-76669226D01*
X45597518Y-76622708D01*
X45525110Y-76497292D01*
X45422708Y-76394890D01*
X45297292Y-76322482D01*
X45250771Y-76310016D01*
X45956556Y-75604232D01*
X45956556Y-75604230D01*
X45875368Y-75545246D01*
X45663867Y-75437480D01*
X45438129Y-75364133D01*
X45203679Y-75327000D01*
X44966321Y-75327000D01*
X44731870Y-75364133D01*
X44506132Y-75437480D01*
X44294634Y-75545243D01*
X44213442Y-75604231D01*
X44919227Y-76310017D01*
X44872708Y-76322482D01*
X44747292Y-76394890D01*
X44644890Y-76497292D01*
X44572482Y-76622708D01*
X44560017Y-76669227D01*
X43854231Y-75963442D01*
X43795243Y-76044634D01*
X43687480Y-76256132D01*
X43614133Y-76481870D01*
X43577000Y-76716321D01*
X42093500Y-76716321D01*
X42093500Y-76716278D01*
X42056356Y-76481759D01*
X42051977Y-76468283D01*
X42025721Y-76387474D01*
X42023693Y-76316507D01*
X42056457Y-76259445D01*
X49347693Y-68968210D01*
X49410003Y-68934186D01*
X49412155Y-68933738D01*
X49418231Y-68932530D01*
X49565368Y-68871583D01*
X49697789Y-68783103D01*
X49810403Y-68670489D01*
X49898883Y-68538068D01*
X49959830Y-68390931D01*
X49990900Y-68234730D01*
X49990900Y-68075470D01*
X49959830Y-67919269D01*
X49898883Y-67772132D01*
X49810403Y-67639711D01*
X49810401Y-67639709D01*
X49810396Y-67639703D01*
X49697796Y-67527103D01*
X49697790Y-67527098D01*
X49697789Y-67527097D01*
X49565368Y-67438617D01*
X49418231Y-67377670D01*
X49340130Y-67362135D01*
X49262032Y-67346600D01*
X49262030Y-67346600D01*
X49102770Y-67346600D01*
X49102767Y-67346600D01*
X48985619Y-67369902D01*
X48946569Y-67377670D01*
X48946567Y-67377671D01*
X48799432Y-67438617D01*
X48667009Y-67527098D01*
X48667003Y-67527103D01*
X48554403Y-67639703D01*
X48554398Y-67639709D01*
X48504094Y-67714996D01*
X48465917Y-67772132D01*
X48404970Y-67919269D01*
X48403614Y-67926087D01*
X48373900Y-68075467D01*
X48373900Y-68098005D01*
X48353898Y-68166126D01*
X48336995Y-68187100D01*
X41160554Y-75363540D01*
X41098242Y-75397566D01*
X41032523Y-75394278D01*
X40938246Y-75363645D01*
X40938242Y-75363644D01*
X40938241Y-75363644D01*
X40703722Y-75326500D01*
X40466278Y-75326500D01*
X40232416Y-75363540D01*
X40231753Y-75363645D01*
X40005941Y-75437016D01*
X40005935Y-75437019D01*
X39794369Y-75544817D01*
X39602275Y-75684382D01*
X39602272Y-75684384D01*
X39434384Y-75852272D01*
X39434382Y-75852275D01*
X39294817Y-76044369D01*
X39187019Y-76255935D01*
X39187016Y-76255941D01*
X39113645Y-76481753D01*
X39113644Y-76481758D01*
X39113644Y-76481759D01*
X39076500Y-76716278D01*
X38337993Y-76716278D01*
X38300866Y-76481870D01*
X38227519Y-76256132D01*
X38119757Y-76044637D01*
X38119756Y-76044636D01*
X38060766Y-75963442D01*
X37354982Y-76669226D01*
X37342518Y-76622708D01*
X37270110Y-76497292D01*
X37167708Y-76394890D01*
X37042292Y-76322482D01*
X36995771Y-76310016D01*
X37701556Y-75604232D01*
X37701556Y-75604230D01*
X37620368Y-75545246D01*
X37408867Y-75437480D01*
X37183129Y-75364133D01*
X36948679Y-75327000D01*
X36711321Y-75327000D01*
X36476870Y-75364133D01*
X36251132Y-75437480D01*
X36039634Y-75545243D01*
X35958442Y-75604231D01*
X36664227Y-76310017D01*
X36617708Y-76322482D01*
X36492292Y-76394890D01*
X36389890Y-76497292D01*
X36317482Y-76622708D01*
X36305017Y-76669227D01*
X35599231Y-75963442D01*
X35540243Y-76044634D01*
X35432480Y-76256132D01*
X35359133Y-76481870D01*
X35322000Y-76716321D01*
X33838500Y-76716321D01*
X33838500Y-76716278D01*
X33801356Y-76481759D01*
X33727982Y-76255937D01*
X33620185Y-76044373D01*
X33480620Y-75852278D01*
X33480617Y-75852275D01*
X33480615Y-75852272D01*
X33312727Y-75684384D01*
X33312724Y-75684382D01*
X33312722Y-75684380D01*
X33120627Y-75544815D01*
X32909063Y-75437018D01*
X32909060Y-75437017D01*
X32909058Y-75437016D01*
X32683246Y-75363645D01*
X32683242Y-75363644D01*
X32683241Y-75363644D01*
X32448722Y-75326500D01*
X32211278Y-75326500D01*
X31977416Y-75363540D01*
X31976753Y-75363645D01*
X31750941Y-75437016D01*
X31750935Y-75437019D01*
X31539369Y-75544817D01*
X31347275Y-75684382D01*
X31347272Y-75684384D01*
X31179384Y-75852272D01*
X31179382Y-75852275D01*
X31039817Y-76044369D01*
X30932019Y-76255935D01*
X30932016Y-76255941D01*
X30858645Y-76481753D01*
X30858644Y-76481758D01*
X30858644Y-76481759D01*
X30821500Y-76716278D01*
X24130000Y-76716278D01*
X24130000Y-66801000D01*
X24150002Y-66732879D01*
X24203658Y-66686386D01*
X24256000Y-66675000D01*
X29210000Y-66675000D01*
X29210000Y-56316350D01*
X59571500Y-56316350D01*
X59571500Y-58413649D01*
X59578009Y-58474196D01*
X59578011Y-58474204D01*
X59629110Y-58611202D01*
X59629112Y-58611207D01*
X59716738Y-58728261D01*
X59833792Y-58815887D01*
X59833794Y-58815888D01*
X59833796Y-58815889D01*
X59887356Y-58835866D01*
X59970795Y-58866988D01*
X59970803Y-58866990D01*
X60031350Y-58873499D01*
X60031355Y-58873499D01*
X60031362Y-58873500D01*
X60031368Y-58873500D01*
X62128632Y-58873500D01*
X62128638Y-58873500D01*
X62128645Y-58873499D01*
X62128649Y-58873499D01*
X62189196Y-58866990D01*
X62189199Y-58866989D01*
X62189201Y-58866989D01*
X62326204Y-58815889D01*
X62357164Y-58792713D01*
X62443261Y-58728261D01*
X62530887Y-58611207D01*
X62530887Y-58611206D01*
X62530889Y-58611204D01*
X62581989Y-58474201D01*
X62588500Y-58413638D01*
X62588500Y-56316362D01*
X62588499Y-56316350D01*
X62581990Y-56255803D01*
X62581988Y-56255795D01*
X62530889Y-56118797D01*
X62530887Y-56118792D01*
X62443261Y-56001738D01*
X62326207Y-55914112D01*
X62326202Y-55914110D01*
X62189204Y-55863011D01*
X62189196Y-55863009D01*
X62128649Y-55856500D01*
X62128638Y-55856500D01*
X60031362Y-55856500D01*
X60031350Y-55856500D01*
X59970803Y-55863009D01*
X59970795Y-55863011D01*
X59833797Y-55914110D01*
X59833792Y-55914112D01*
X59716738Y-56001738D01*
X59629112Y-56118792D01*
X59629110Y-56118797D01*
X59578011Y-56255795D01*
X59578009Y-56255803D01*
X59571500Y-56316350D01*
X29210000Y-56316350D01*
X29210000Y-47625000D01*
X24256000Y-47625000D01*
X24187879Y-47604998D01*
X24141386Y-47551342D01*
X24130000Y-47499000D01*
X24130000Y-36321000D01*
X24150002Y-36252879D01*
X24203658Y-36206386D01*
X24256000Y-36195000D01*
X29210000Y-36195000D01*
X29210000Y-31223084D01*
X30511500Y-31223084D01*
X30511500Y-31436916D01*
X30544951Y-31648116D01*
X30544952Y-31648121D01*
X30611026Y-31851478D01*
X30611028Y-31851483D01*
X30708106Y-32042009D01*
X30833794Y-32215004D01*
X30833796Y-32215006D01*
X30833798Y-32215009D01*
X30936770Y-32317981D01*
X30970796Y-32380293D01*
X30965731Y-32451108D01*
X30923184Y-32507944D01*
X30891708Y-32525131D01*
X30773797Y-32569110D01*
X30773792Y-32569112D01*
X30656738Y-32656738D01*
X30569112Y-32773792D01*
X30569110Y-32773797D01*
X30518011Y-32910795D01*
X30518009Y-32910803D01*
X30511500Y-32971350D01*
X30511500Y-34768649D01*
X30518009Y-34829196D01*
X30518011Y-34829204D01*
X30569110Y-34966202D01*
X30569112Y-34966207D01*
X30656738Y-35083261D01*
X30773792Y-35170887D01*
X30773794Y-35170888D01*
X30773796Y-35170889D01*
X30797757Y-35179826D01*
X30910795Y-35221988D01*
X30910803Y-35221990D01*
X30971350Y-35228499D01*
X30971355Y-35228499D01*
X30971362Y-35228500D01*
X30971368Y-35228500D01*
X32768632Y-35228500D01*
X32768638Y-35228500D01*
X32768645Y-35228499D01*
X32768649Y-35228499D01*
X32829196Y-35221990D01*
X32829197Y-35221989D01*
X32829201Y-35221989D01*
X32966204Y-35170889D01*
X32966205Y-35170887D01*
X32974648Y-35167739D01*
X32975852Y-35170967D01*
X33028911Y-35159397D01*
X33095444Y-35184174D01*
X33109081Y-35195985D01*
X34072301Y-36159206D01*
X34106326Y-36221516D01*
X34101261Y-36292331D01*
X34072300Y-36337394D01*
X31576667Y-38833029D01*
X31488431Y-38921264D01*
X31488426Y-38921271D01*
X31419101Y-39025023D01*
X31371346Y-39140312D01*
X31347000Y-39262703D01*
X31347000Y-44837896D01*
X31356685Y-44886586D01*
X31371345Y-44960285D01*
X31419100Y-45075575D01*
X31488429Y-45179333D01*
X31488431Y-45179335D01*
X31861649Y-45552553D01*
X31895675Y-45614865D01*
X31897003Y-45661358D01*
X31874742Y-45801907D01*
X31869500Y-45835009D01*
X31869500Y-46034991D01*
X31898280Y-46216700D01*
X31900785Y-46232515D01*
X31962579Y-46422698D01*
X31962581Y-46422703D01*
X31962582Y-46422704D01*
X32053372Y-46600890D01*
X32133683Y-46711428D01*
X32170917Y-46762675D01*
X32170919Y-46762677D01*
X32170921Y-46762680D01*
X32312319Y-46904078D01*
X32312322Y-46904080D01*
X32312325Y-46904083D01*
X32412775Y-46977064D01*
X32456129Y-47033286D01*
X32462204Y-47104022D01*
X32429073Y-47166814D01*
X32367253Y-47201726D01*
X32338714Y-47205000D01*
X32329402Y-47205000D01*
X32268906Y-47211505D01*
X32132035Y-47262555D01*
X32132034Y-47262555D01*
X32015095Y-47350095D01*
X31927555Y-47467034D01*
X31927555Y-47467035D01*
X31876505Y-47603906D01*
X31870000Y-47664402D01*
X31870000Y-48221000D01*
X32855184Y-48221000D01*
X32835124Y-48241060D01*
X32784964Y-48327939D01*
X32759000Y-48424840D01*
X32759000Y-48525160D01*
X32784964Y-48622061D01*
X32835124Y-48708940D01*
X32855184Y-48729000D01*
X31870000Y-48729000D01*
X31870000Y-49285597D01*
X31876505Y-49346093D01*
X31927555Y-49482964D01*
X31927555Y-49482965D01*
X32015095Y-49599904D01*
X32132034Y-49687444D01*
X32268906Y-49738494D01*
X32329402Y-49744999D01*
X32329415Y-49745000D01*
X32886000Y-49745000D01*
X32886000Y-48759816D01*
X32906060Y-48779876D01*
X32992939Y-48830036D01*
X33089840Y-48856000D01*
X33190160Y-48856000D01*
X33287061Y-48830036D01*
X33373940Y-48779876D01*
X33394000Y-48759816D01*
X33394000Y-49745000D01*
X33950585Y-49745000D01*
X33950597Y-49744999D01*
X34011093Y-49738494D01*
X34147964Y-49687444D01*
X34147965Y-49687444D01*
X34264904Y-49599904D01*
X34352444Y-49482965D01*
X34352444Y-49482964D01*
X34403494Y-49346093D01*
X34409999Y-49285597D01*
X34410000Y-49285585D01*
X34410000Y-48729000D01*
X33424816Y-48729000D01*
X33444876Y-48708940D01*
X33495036Y-48622061D01*
X33521000Y-48525160D01*
X33521000Y-48424840D01*
X33495036Y-48327939D01*
X33444876Y-48241060D01*
X33424816Y-48221000D01*
X34410000Y-48221000D01*
X34410000Y-47664414D01*
X34409999Y-47664402D01*
X34403494Y-47603906D01*
X34352444Y-47467035D01*
X34352444Y-47467034D01*
X34264904Y-47350095D01*
X34147965Y-47262555D01*
X34011093Y-47211505D01*
X33950597Y-47205000D01*
X33941286Y-47205000D01*
X33873165Y-47184998D01*
X33826672Y-47131342D01*
X33816568Y-47061068D01*
X33846062Y-46996488D01*
X33867225Y-46977064D01*
X33967675Y-46904083D01*
X34109083Y-46762675D01*
X34226629Y-46600887D01*
X34317419Y-46422703D01*
X34379216Y-46232510D01*
X34410500Y-46034991D01*
X34410500Y-45835009D01*
X34379216Y-45637490D01*
X34317419Y-45447297D01*
X34226629Y-45269113D01*
X34226627Y-45269109D01*
X34161396Y-45179328D01*
X34109083Y-45107325D01*
X34109080Y-45107322D01*
X34109078Y-45107319D01*
X33967680Y-44965921D01*
X33967677Y-44965919D01*
X33967675Y-44965917D01*
X33805887Y-44848371D01*
X33666335Y-44777265D01*
X33614722Y-44728519D01*
X33597656Y-44659604D01*
X33620557Y-44592402D01*
X33666334Y-44552735D01*
X33805887Y-44481629D01*
X33967675Y-44364083D01*
X34109083Y-44222675D01*
X34226629Y-44060887D01*
X34317419Y-43882703D01*
X34379216Y-43692510D01*
X34410500Y-43494991D01*
X34410500Y-43295009D01*
X34379216Y-43097490D01*
X34317419Y-42907297D01*
X34226629Y-42729113D01*
X34226627Y-42729109D01*
X34164932Y-42644195D01*
X34109083Y-42567325D01*
X34109080Y-42567322D01*
X34109078Y-42567319D01*
X33967680Y-42425921D01*
X33967677Y-42425919D01*
X33967675Y-42425917D01*
X33805887Y-42308371D01*
X33666335Y-42237265D01*
X33614722Y-42188519D01*
X33597656Y-42119604D01*
X33620557Y-42052402D01*
X33666334Y-42012735D01*
X33805887Y-41941629D01*
X33967675Y-41824083D01*
X34109083Y-41682675D01*
X34212424Y-41540439D01*
X34268647Y-41497085D01*
X34314360Y-41488500D01*
X46952393Y-41488500D01*
X46952394Y-41488500D01*
X47074785Y-41464155D01*
X47190075Y-41416400D01*
X47293833Y-41347071D01*
X47842554Y-40798348D01*
X47904865Y-40764325D01*
X47951356Y-40762996D01*
X48125009Y-40790500D01*
X48125012Y-40790500D01*
X48324988Y-40790500D01*
X48324991Y-40790500D01*
X48522510Y-40759216D01*
X48712703Y-40697419D01*
X48890887Y-40606629D01*
X49052675Y-40489083D01*
X49194083Y-40347675D01*
X49311629Y-40185887D01*
X49402419Y-40007703D01*
X49455781Y-39843468D01*
X49495853Y-39784866D01*
X49561249Y-39757228D01*
X49631206Y-39769335D01*
X49664708Y-39793312D01*
X65057929Y-55186533D01*
X65146167Y-55274771D01*
X65249925Y-55344100D01*
X65365215Y-55391855D01*
X65487606Y-55416200D01*
X69073606Y-55416200D01*
X69141727Y-55436202D01*
X69162701Y-55453105D01*
X69549004Y-55839408D01*
X69583030Y-55901720D01*
X69577965Y-55972535D01*
X69535418Y-56029371D01*
X69468898Y-56054182D01*
X69402706Y-56040770D01*
X69258867Y-55967480D01*
X69033129Y-55894133D01*
X68798679Y-55857000D01*
X68561321Y-55857000D01*
X68326870Y-55894133D01*
X68101132Y-55967480D01*
X67889634Y-56075243D01*
X67808442Y-56134231D01*
X67808442Y-56134232D01*
X68555052Y-56880842D01*
X68487007Y-56899075D01*
X68372993Y-56964901D01*
X68279901Y-57057993D01*
X68214075Y-57172007D01*
X68195842Y-57240052D01*
X67449232Y-56493442D01*
X67449231Y-56493442D01*
X67390243Y-56574634D01*
X67282480Y-56786132D01*
X67209133Y-57011870D01*
X67172000Y-57246321D01*
X67172000Y-57483678D01*
X67209133Y-57718129D01*
X67279665Y-57935201D01*
X67281693Y-58006168D01*
X67245030Y-58066966D01*
X67181318Y-58098292D01*
X67110784Y-58090199D01*
X67070737Y-58063232D01*
X63333096Y-54325592D01*
X63299070Y-54263280D01*
X63298625Y-54261143D01*
X63276930Y-54152069D01*
X63276928Y-54152066D01*
X63276928Y-54152062D01*
X63215985Y-54004936D01*
X63215983Y-54004932D01*
X63207710Y-53992551D01*
X63127503Y-53872511D01*
X63127501Y-53872509D01*
X63127496Y-53872503D01*
X63014896Y-53759903D01*
X63014890Y-53759898D01*
X63014889Y-53759897D01*
X62882468Y-53671417D01*
X62735331Y-53610470D01*
X62657230Y-53594935D01*
X62579132Y-53579400D01*
X62579130Y-53579400D01*
X62419870Y-53579400D01*
X62419867Y-53579400D01*
X62302719Y-53602702D01*
X62263669Y-53610470D01*
X62263667Y-53610471D01*
X62116532Y-53671417D01*
X61984109Y-53759898D01*
X61984103Y-53759903D01*
X61871503Y-53872503D01*
X61871498Y-53872509D01*
X61783017Y-54004932D01*
X61722071Y-54152067D01*
X61722070Y-54152070D01*
X61691000Y-54308267D01*
X61691000Y-54308270D01*
X61691000Y-54467530D01*
X61722070Y-54623731D01*
X61783017Y-54770868D01*
X61859456Y-54885268D01*
X61871498Y-54903290D01*
X61871503Y-54903296D01*
X61984103Y-55015896D01*
X61984109Y-55015901D01*
X61984111Y-55015903D01*
X62116532Y-55104383D01*
X62116536Y-55104385D01*
X62263662Y-55165328D01*
X62263666Y-55165328D01*
X62263669Y-55165330D01*
X62372679Y-55187012D01*
X62435587Y-55219919D01*
X62437192Y-55221496D01*
X76164595Y-68948899D01*
X76198621Y-69011211D01*
X76201500Y-69037994D01*
X76201500Y-78674775D01*
X76181498Y-78742896D01*
X76132704Y-78787041D01*
X76096784Y-78805343D01*
X75917421Y-78935658D01*
X75760658Y-79092421D01*
X75630345Y-79271781D01*
X75529693Y-79469322D01*
X75529690Y-79469328D01*
X75461183Y-79680170D01*
X75461182Y-79680175D01*
X75461182Y-79680176D01*
X75426500Y-79899149D01*
X75426500Y-80120851D01*
X75440007Y-80206130D01*
X75461183Y-80339829D01*
X75529690Y-80550671D01*
X75529692Y-80550676D01*
X75630343Y-80748215D01*
X75630345Y-80748218D01*
X75760658Y-80927578D01*
X75800270Y-80967190D01*
X75834296Y-81029502D01*
X75829231Y-81100317D01*
X75786684Y-81157153D01*
X75755208Y-81174340D01*
X75688797Y-81199110D01*
X75688792Y-81199112D01*
X75571738Y-81286738D01*
X75484112Y-81403792D01*
X75484110Y-81403797D01*
X75433011Y-81540795D01*
X75433009Y-81540803D01*
X75426500Y-81601350D01*
X75426500Y-83498649D01*
X75433009Y-83559196D01*
X75433011Y-83559204D01*
X75484110Y-83696202D01*
X75484112Y-83696207D01*
X75571738Y-83813261D01*
X75688792Y-83900887D01*
X75688794Y-83900888D01*
X75688796Y-83900889D01*
X75747875Y-83922924D01*
X75825795Y-83951988D01*
X75825803Y-83951990D01*
X75886350Y-83958499D01*
X75886355Y-83958499D01*
X75886362Y-83958500D01*
X75886368Y-83958500D01*
X77783632Y-83958500D01*
X77783638Y-83958500D01*
X77783645Y-83958499D01*
X77783649Y-83958499D01*
X77844196Y-83951990D01*
X77844199Y-83951989D01*
X77844201Y-83951989D01*
X77981204Y-83900889D01*
X78098261Y-83813261D01*
X78185889Y-83696204D01*
X78236989Y-83559201D01*
X78238270Y-83547292D01*
X78243499Y-83498649D01*
X78243500Y-83498632D01*
X78243500Y-81601367D01*
X78243499Y-81601350D01*
X78236990Y-81540803D01*
X78236988Y-81540795D01*
X78207924Y-81462875D01*
X78185889Y-81403796D01*
X78185888Y-81403794D01*
X78185887Y-81403792D01*
X78098261Y-81286738D01*
X77981208Y-81199113D01*
X77981205Y-81199112D01*
X77981204Y-81199111D01*
X77914788Y-81174338D01*
X77857956Y-81131794D01*
X77833145Y-81065274D01*
X77848237Y-80995899D01*
X77869730Y-80967189D01*
X77909341Y-80927578D01*
X77909343Y-80927576D01*
X78039657Y-80748215D01*
X78140308Y-80550676D01*
X78208818Y-80339824D01*
X78243500Y-80120851D01*
X78243500Y-79899149D01*
X78208818Y-79680176D01*
X78140308Y-79469324D01*
X78039657Y-79271785D01*
X77909343Y-79092424D01*
X77909341Y-79092421D01*
X77752578Y-78935658D01*
X77573215Y-78805343D01*
X77537296Y-78787041D01*
X77485681Y-78738293D01*
X77468500Y-78674775D01*
X77468500Y-68661007D01*
X77468499Y-68661003D01*
X77444155Y-68538615D01*
X77444153Y-68538610D01*
X77424330Y-68490752D01*
X77424306Y-68490697D01*
X77396402Y-68423327D01*
X77396401Y-68423325D01*
X77327072Y-68319567D01*
X70456706Y-61449201D01*
X67981767Y-58974262D01*
X67947741Y-58911950D01*
X67952806Y-58841135D01*
X67995353Y-58784299D01*
X68061873Y-58759488D01*
X68109799Y-58765334D01*
X68326872Y-58835866D01*
X68561321Y-58873000D01*
X68798679Y-58873000D01*
X69033129Y-58835866D01*
X69258867Y-58762519D01*
X69470367Y-58654754D01*
X69551556Y-58595767D01*
X69551556Y-58595765D01*
X68804948Y-57849157D01*
X68872993Y-57830925D01*
X68987007Y-57765099D01*
X69080099Y-57672007D01*
X69145925Y-57557993D01*
X69164157Y-57489948D01*
X69910765Y-58236556D01*
X69910767Y-58236556D01*
X69969754Y-58155367D01*
X70077519Y-57943867D01*
X70150866Y-57718129D01*
X70188000Y-57483678D01*
X70188000Y-57246321D01*
X70150866Y-57011870D01*
X70077519Y-56786132D01*
X70004229Y-56642293D01*
X69991125Y-56572516D01*
X70017825Y-56506732D01*
X70075852Y-56465825D01*
X70146784Y-56462784D01*
X70205591Y-56495995D01*
X70664029Y-56954433D01*
X70752267Y-57042671D01*
X70856025Y-57112000D01*
X70971315Y-57159755D01*
X71093706Y-57184100D01*
X77685201Y-57184100D01*
X77753322Y-57204102D01*
X77799815Y-57257758D01*
X77809919Y-57328032D01*
X77805034Y-57349036D01*
X77738152Y-57554878D01*
X77738151Y-57554883D01*
X77738151Y-57554884D01*
X77704700Y-57766084D01*
X77704700Y-57979916D01*
X77723449Y-58098292D01*
X77738152Y-58191121D01*
X77804226Y-58394478D01*
X77804228Y-58394483D01*
X77901306Y-58585009D01*
X78026994Y-58758004D01*
X78026996Y-58758006D01*
X78026998Y-58758009D01*
X78178190Y-58909201D01*
X78178193Y-58909203D01*
X78178196Y-58909206D01*
X78351191Y-59034894D01*
X78351196Y-59034896D01*
X78352288Y-59035566D01*
X78352618Y-59035931D01*
X78355196Y-59037804D01*
X78354802Y-59038345D01*
X78399921Y-59088213D01*
X78411528Y-59158255D01*
X78383426Y-59223453D01*
X78355070Y-59248023D01*
X78355196Y-59248196D01*
X78353182Y-59249658D01*
X78352288Y-59250434D01*
X78351187Y-59251108D01*
X78178193Y-59376796D01*
X78178190Y-59376798D01*
X78026998Y-59527990D01*
X78026996Y-59527993D01*
X77901308Y-59700987D01*
X77804229Y-59891515D01*
X77804226Y-59891521D01*
X77738152Y-60094878D01*
X77738152Y-60094881D01*
X77738151Y-60094884D01*
X77704700Y-60306084D01*
X77704700Y-60519916D01*
X77738151Y-60731116D01*
X77738152Y-60731121D01*
X77804226Y-60934478D01*
X77804228Y-60934483D01*
X77901306Y-61125009D01*
X78026994Y-61298004D01*
X78026996Y-61298006D01*
X78026998Y-61298009D01*
X78178190Y-61449201D01*
X78178193Y-61449203D01*
X78178196Y-61449206D01*
X78351191Y-61574894D01*
X78351196Y-61574896D01*
X78352288Y-61575566D01*
X78352618Y-61575931D01*
X78355196Y-61577804D01*
X78354802Y-61578345D01*
X78399921Y-61628213D01*
X78411528Y-61698255D01*
X78383426Y-61763453D01*
X78355070Y-61788023D01*
X78355196Y-61788196D01*
X78353182Y-61789658D01*
X78352288Y-61790434D01*
X78351187Y-61791108D01*
X78178193Y-61916796D01*
X78178190Y-61916798D01*
X78026998Y-62067990D01*
X78026996Y-62067993D01*
X77901308Y-62240987D01*
X77804229Y-62431515D01*
X77804226Y-62431521D01*
X77738152Y-62634878D01*
X77738152Y-62634881D01*
X77738151Y-62634884D01*
X77704700Y-62846084D01*
X77704700Y-63059916D01*
X77738151Y-63271116D01*
X77738152Y-63271121D01*
X77804226Y-63474478D01*
X77804228Y-63474483D01*
X77901306Y-63665009D01*
X78026994Y-63838004D01*
X78026996Y-63838006D01*
X78026998Y-63838009D01*
X78178190Y-63989201D01*
X78178193Y-63989203D01*
X78178196Y-63989206D01*
X78351191Y-64114894D01*
X78351196Y-64114896D01*
X78352288Y-64115566D01*
X78352618Y-64115931D01*
X78355196Y-64117804D01*
X78354802Y-64118345D01*
X78399921Y-64168213D01*
X78411528Y-64238255D01*
X78383426Y-64303453D01*
X78355070Y-64328023D01*
X78355196Y-64328196D01*
X78353182Y-64329658D01*
X78352288Y-64330434D01*
X78351187Y-64331108D01*
X78178193Y-64456796D01*
X78178190Y-64456798D01*
X78026998Y-64607990D01*
X78026996Y-64607993D01*
X77901308Y-64780987D01*
X77804229Y-64971515D01*
X77804226Y-64971521D01*
X77738152Y-65174878D01*
X77738151Y-65174883D01*
X77738151Y-65174884D01*
X77704700Y-65386084D01*
X77704700Y-65599916D01*
X77738151Y-65811116D01*
X77738152Y-65811121D01*
X77788044Y-65964673D01*
X77804228Y-66014483D01*
X77901306Y-66205009D01*
X78026994Y-66378004D01*
X78026996Y-66378006D01*
X78026998Y-66378009D01*
X78178190Y-66529201D01*
X78178193Y-66529203D01*
X78178196Y-66529206D01*
X78351191Y-66654894D01*
X78351196Y-66654896D01*
X78352288Y-66655566D01*
X78352618Y-66655931D01*
X78355196Y-66657804D01*
X78354802Y-66658345D01*
X78399921Y-66708213D01*
X78411528Y-66778255D01*
X78383426Y-66843453D01*
X78355070Y-66868023D01*
X78355196Y-66868196D01*
X78353182Y-66869658D01*
X78352288Y-66870434D01*
X78351187Y-66871108D01*
X78178193Y-66996796D01*
X78178190Y-66996798D01*
X78026998Y-67147990D01*
X78026996Y-67147993D01*
X77901308Y-67320987D01*
X77804229Y-67511515D01*
X77804226Y-67511521D01*
X77738152Y-67714878D01*
X77738151Y-67714883D01*
X77738151Y-67714884D01*
X77704700Y-67926084D01*
X77704700Y-68139916D01*
X77738133Y-68351003D01*
X77738152Y-68351121D01*
X77799072Y-68538615D01*
X77804228Y-68554483D01*
X77901306Y-68745009D01*
X78026994Y-68918004D01*
X78026996Y-68918006D01*
X78026998Y-68918009D01*
X78178190Y-69069201D01*
X78178193Y-69069203D01*
X78178196Y-69069206D01*
X78351191Y-69194894D01*
X78541717Y-69291972D01*
X78745078Y-69358047D01*
X78745079Y-69358047D01*
X78745084Y-69358049D01*
X78956284Y-69391500D01*
X78956287Y-69391500D01*
X79170113Y-69391500D01*
X79170116Y-69391500D01*
X79381316Y-69358049D01*
X79584683Y-69291972D01*
X79775209Y-69194894D01*
X79948204Y-69069206D01*
X79948209Y-69069201D01*
X79998150Y-69019261D01*
X80099401Y-68918009D01*
X80099406Y-68918004D01*
X80225094Y-68745009D01*
X80225102Y-68744992D01*
X80226054Y-68743441D01*
X80226577Y-68742967D01*
X80228004Y-68741004D01*
X80228416Y-68741303D01*
X80278697Y-68695804D01*
X80348737Y-68684189D01*
X80413938Y-68712285D01*
X80438685Y-68740842D01*
X80438824Y-68740742D01*
X80439994Y-68742353D01*
X80440926Y-68743428D01*
X80441736Y-68744750D01*
X80479820Y-68797167D01*
X80479821Y-68797168D01*
X81119041Y-68157947D01*
X81137275Y-68225993D01*
X81203101Y-68340007D01*
X81296193Y-68433099D01*
X81410207Y-68498925D01*
X81478251Y-68517157D01*
X80839031Y-69156378D01*
X80891449Y-69194463D01*
X80891451Y-69194464D01*
X81081907Y-69291506D01*
X81081913Y-69291509D01*
X81285196Y-69357559D01*
X81496326Y-69391000D01*
X81710074Y-69391000D01*
X81921203Y-69357559D01*
X82124486Y-69291509D01*
X82124492Y-69291506D01*
X82314950Y-69194463D01*
X82367367Y-69156378D01*
X82367367Y-69156376D01*
X81728148Y-68517157D01*
X81796193Y-68498925D01*
X81910207Y-68433099D01*
X82003299Y-68340007D01*
X82069125Y-68225993D01*
X82087357Y-68157948D01*
X82726576Y-68797167D01*
X82726578Y-68797167D01*
X82764663Y-68744750D01*
X82861706Y-68554292D01*
X82861709Y-68554286D01*
X82927759Y-68351003D01*
X82961200Y-68139873D01*
X82961200Y-67926126D01*
X82927759Y-67714996D01*
X82861709Y-67511713D01*
X82861706Y-67511707D01*
X82764664Y-67321251D01*
X82764663Y-67321249D01*
X82726578Y-67268831D01*
X82087357Y-67908051D01*
X82069125Y-67840007D01*
X82003299Y-67725993D01*
X81910207Y-67632901D01*
X81796193Y-67567075D01*
X81728147Y-67548841D01*
X82367368Y-66909621D01*
X82367367Y-66909620D01*
X82314950Y-66871536D01*
X82313628Y-66870726D01*
X82313230Y-66870286D01*
X82310942Y-66868624D01*
X82311291Y-66868143D01*
X82265997Y-66818078D01*
X82254391Y-66748036D01*
X82282495Y-66682839D01*
X82311275Y-66657903D01*
X82311204Y-66657804D01*
X82312358Y-66656965D01*
X82313641Y-66655854D01*
X82315192Y-66654902D01*
X82315209Y-66654894D01*
X82488204Y-66529206D01*
X82639406Y-66378004D01*
X82765094Y-66205009D01*
X82862172Y-66014483D01*
X82928249Y-65811116D01*
X82961700Y-65599916D01*
X82961700Y-65386084D01*
X82928249Y-65174884D01*
X82862172Y-64971517D01*
X82765094Y-64780991D01*
X82639406Y-64607996D01*
X82639403Y-64607993D01*
X82639401Y-64607990D01*
X82488209Y-64456798D01*
X82488206Y-64456796D01*
X82488204Y-64456794D01*
X82315209Y-64331106D01*
X82315207Y-64331105D01*
X82314120Y-64330439D01*
X82313791Y-64330075D01*
X82311204Y-64328196D01*
X82311598Y-64327652D01*
X82266483Y-64277796D01*
X82254870Y-64207756D01*
X82282966Y-64142555D01*
X82311330Y-64117978D01*
X82311204Y-64117804D01*
X82313230Y-64116331D01*
X82314120Y-64115561D01*
X82315197Y-64114899D01*
X82315209Y-64114894D01*
X82488204Y-63989206D01*
X82639406Y-63838004D01*
X82765094Y-63665009D01*
X82862172Y-63474483D01*
X82928249Y-63271116D01*
X82961700Y-63059916D01*
X82961700Y-62846084D01*
X82928249Y-62634884D01*
X82924879Y-62624515D01*
X82922852Y-62553549D01*
X82955615Y-62496487D01*
X85137171Y-60314933D01*
X85206500Y-60211175D01*
X85254255Y-60095885D01*
X85278600Y-59973494D01*
X85278600Y-59848706D01*
X85278600Y-44483406D01*
X85254255Y-44361015D01*
X85206500Y-44245725D01*
X85137171Y-44141967D01*
X85048933Y-44053729D01*
X76990405Y-35995201D01*
X76956379Y-35932889D01*
X76953500Y-35906106D01*
X76953500Y-35265024D01*
X76973502Y-35196903D01*
X77027158Y-35150410D01*
X77097432Y-35140306D01*
X77118431Y-35145189D01*
X77271878Y-35195047D01*
X77271879Y-35195047D01*
X77271884Y-35195049D01*
X77483084Y-35228500D01*
X77483087Y-35228500D01*
X77696913Y-35228500D01*
X77696916Y-35228500D01*
X77908116Y-35195049D01*
X78111483Y-35128972D01*
X78302009Y-35031894D01*
X78475004Y-34906206D01*
X78489808Y-34891402D01*
X78524950Y-34856261D01*
X78626201Y-34755009D01*
X78626206Y-34755004D01*
X78751894Y-34582009D01*
X78751902Y-34581992D01*
X78752854Y-34580441D01*
X78753377Y-34579967D01*
X78754804Y-34578004D01*
X78755216Y-34578303D01*
X78805497Y-34532804D01*
X78875537Y-34521189D01*
X78940738Y-34549285D01*
X78965485Y-34577842D01*
X78965624Y-34577742D01*
X78966794Y-34579353D01*
X78967726Y-34580428D01*
X78968536Y-34581750D01*
X79006620Y-34634167D01*
X79006621Y-34634168D01*
X79645841Y-33994947D01*
X79664075Y-34062993D01*
X79729901Y-34177007D01*
X79822993Y-34270099D01*
X79937007Y-34335925D01*
X80005051Y-34354157D01*
X79365831Y-34993378D01*
X79418249Y-35031463D01*
X79418251Y-35031464D01*
X79608707Y-35128506D01*
X79608713Y-35128509D01*
X79811996Y-35194559D01*
X80023126Y-35228000D01*
X80236874Y-35228000D01*
X80448003Y-35194559D01*
X80651286Y-35128509D01*
X80651292Y-35128506D01*
X80841750Y-35031463D01*
X80894167Y-34993378D01*
X80894167Y-34993376D01*
X80254948Y-34354157D01*
X80322993Y-34335925D01*
X80437007Y-34270099D01*
X80530099Y-34177007D01*
X80595925Y-34062993D01*
X80614157Y-33994948D01*
X81253376Y-34634167D01*
X81253378Y-34634167D01*
X81291463Y-34581750D01*
X81388506Y-34391292D01*
X81388509Y-34391286D01*
X81454559Y-34188003D01*
X81488000Y-33976873D01*
X81488000Y-33763126D01*
X81454559Y-33551996D01*
X81388509Y-33348713D01*
X81388506Y-33348707D01*
X81291464Y-33158251D01*
X81291463Y-33158249D01*
X81253378Y-33105831D01*
X80614157Y-33745051D01*
X80595925Y-33677007D01*
X80530099Y-33562993D01*
X80437007Y-33469901D01*
X80322993Y-33404075D01*
X80254947Y-33385841D01*
X80894168Y-32746621D01*
X80894167Y-32746620D01*
X80841750Y-32708536D01*
X80840428Y-32707726D01*
X80840030Y-32707286D01*
X80837742Y-32705624D01*
X80838091Y-32705143D01*
X80792797Y-32655078D01*
X80781191Y-32585036D01*
X80809295Y-32519839D01*
X80838075Y-32494903D01*
X80838004Y-32494804D01*
X80839158Y-32493965D01*
X80840441Y-32492854D01*
X80841992Y-32491902D01*
X80842009Y-32491894D01*
X81015004Y-32366206D01*
X81166206Y-32215004D01*
X81291894Y-32042009D01*
X81388972Y-31851483D01*
X81455049Y-31648116D01*
X81488500Y-31436916D01*
X81488500Y-31223084D01*
X81455049Y-31011884D01*
X81388972Y-30808517D01*
X81291894Y-30617991D01*
X81166206Y-30444996D01*
X81166203Y-30444993D01*
X81166201Y-30444990D01*
X81015009Y-30293798D01*
X81015006Y-30293796D01*
X81015004Y-30293794D01*
X80842601Y-30168536D01*
X80842012Y-30168108D01*
X80842011Y-30168107D01*
X80842009Y-30168106D01*
X80651483Y-30071028D01*
X80651480Y-30071027D01*
X80651478Y-30071026D01*
X80448120Y-30004952D01*
X80448123Y-30004952D01*
X80408801Y-29998724D01*
X80236916Y-29971500D01*
X80023084Y-29971500D01*
X79811884Y-30004951D01*
X79811878Y-30004952D01*
X79608521Y-30071026D01*
X79608515Y-30071029D01*
X79417987Y-30168108D01*
X79244993Y-30293796D01*
X79244990Y-30293798D01*
X79093798Y-30444990D01*
X79093796Y-30444993D01*
X78968108Y-30617987D01*
X78967434Y-30619088D01*
X78967068Y-30619418D01*
X78965196Y-30621996D01*
X78964654Y-30621602D01*
X78914787Y-30666721D01*
X78844745Y-30678328D01*
X78779547Y-30650226D01*
X78754976Y-30621870D01*
X78754804Y-30621996D01*
X78753341Y-30619982D01*
X78752566Y-30619088D01*
X78751896Y-30617996D01*
X78751894Y-30617991D01*
X78626206Y-30444996D01*
X78626203Y-30444993D01*
X78626201Y-30444990D01*
X78475009Y-30293798D01*
X78475006Y-30293796D01*
X78475004Y-30293794D01*
X78302601Y-30168536D01*
X78302012Y-30168108D01*
X78302011Y-30168107D01*
X78302009Y-30168106D01*
X78111483Y-30071028D01*
X78111480Y-30071027D01*
X78111478Y-30071026D01*
X77908120Y-30004952D01*
X77908123Y-30004952D01*
X77868801Y-29998724D01*
X77696916Y-29971500D01*
X77483084Y-29971500D01*
X77271884Y-30004951D01*
X77271878Y-30004952D01*
X77068521Y-30071026D01*
X77068515Y-30071029D01*
X76877987Y-30168108D01*
X76704993Y-30293796D01*
X76704990Y-30293798D01*
X76553798Y-30444990D01*
X76553796Y-30444993D01*
X76428108Y-30617987D01*
X76427434Y-30619088D01*
X76427068Y-30619418D01*
X76425196Y-30621996D01*
X76424654Y-30621602D01*
X76374787Y-30666721D01*
X76304745Y-30678328D01*
X76239547Y-30650226D01*
X76214976Y-30621870D01*
X76214804Y-30621996D01*
X76213341Y-30619982D01*
X76212566Y-30619088D01*
X76211896Y-30617996D01*
X76211894Y-30617991D01*
X76086206Y-30444996D01*
X76086203Y-30444993D01*
X76086201Y-30444990D01*
X75935009Y-30293798D01*
X75935006Y-30293796D01*
X75935004Y-30293794D01*
X75762601Y-30168536D01*
X75762012Y-30168108D01*
X75762011Y-30168107D01*
X75762009Y-30168106D01*
X75571483Y-30071028D01*
X75571480Y-30071027D01*
X75571478Y-30071026D01*
X75368120Y-30004952D01*
X75368123Y-30004952D01*
X75328801Y-29998724D01*
X75156916Y-29971500D01*
X74943084Y-29971500D01*
X74731884Y-30004951D01*
X74731878Y-30004952D01*
X74528521Y-30071026D01*
X74528515Y-30071029D01*
X74337987Y-30168108D01*
X74164993Y-30293796D01*
X74164990Y-30293798D01*
X74013798Y-30444990D01*
X74013796Y-30444993D01*
X73888100Y-30617998D01*
X73887131Y-30619580D01*
X73886606Y-30620054D01*
X73885196Y-30621996D01*
X73884787Y-30621699D01*
X73834479Y-30667206D01*
X73764437Y-30678807D01*
X73699242Y-30650697D01*
X73674514Y-30622157D01*
X73674376Y-30622258D01*
X73673199Y-30620639D01*
X73672270Y-30619566D01*
X73671461Y-30618247D01*
X73633378Y-30565831D01*
X72994157Y-31205051D01*
X72975925Y-31137007D01*
X72910099Y-31022993D01*
X72817007Y-30929901D01*
X72702993Y-30864075D01*
X72634947Y-30845841D01*
X73274168Y-30206621D01*
X73274167Y-30206620D01*
X73221750Y-30168536D01*
X73221748Y-30168535D01*
X73031292Y-30071493D01*
X73031286Y-30071490D01*
X72828003Y-30005440D01*
X72616874Y-29972000D01*
X72403126Y-29972000D01*
X72191996Y-30005440D01*
X71988713Y-30071490D01*
X71988707Y-30071493D01*
X71798253Y-30168534D01*
X71745831Y-30206621D01*
X71745831Y-30206622D01*
X72385051Y-30845842D01*
X72317007Y-30864075D01*
X72202993Y-30929901D01*
X72109901Y-31022993D01*
X72044075Y-31137007D01*
X72025842Y-31205051D01*
X71386622Y-30565831D01*
X71386621Y-30565831D01*
X71348528Y-30618261D01*
X71347724Y-30619574D01*
X71347288Y-30619967D01*
X71345624Y-30622259D01*
X71345142Y-30621909D01*
X71295075Y-30667203D01*
X71225033Y-30678807D01*
X71159836Y-30650702D01*
X71134901Y-30621924D01*
X71134804Y-30621996D01*
X71133975Y-30620855D01*
X71132859Y-30619567D01*
X71131899Y-30618001D01*
X71131894Y-30617991D01*
X71006206Y-30444996D01*
X71006203Y-30444993D01*
X71006201Y-30444990D01*
X70855009Y-30293798D01*
X70855006Y-30293796D01*
X70855004Y-30293794D01*
X70682601Y-30168536D01*
X70682012Y-30168108D01*
X70682011Y-30168107D01*
X70682009Y-30168106D01*
X70491483Y-30071028D01*
X70491480Y-30071027D01*
X70491478Y-30071026D01*
X70288120Y-30004952D01*
X70288123Y-30004952D01*
X70248801Y-29998724D01*
X70076916Y-29971500D01*
X69863084Y-29971500D01*
X69651884Y-30004951D01*
X69651878Y-30004952D01*
X69448521Y-30071026D01*
X69448515Y-30071029D01*
X69257987Y-30168108D01*
X69084993Y-30293796D01*
X69084990Y-30293798D01*
X68933798Y-30444990D01*
X68933796Y-30444993D01*
X68808100Y-30617998D01*
X68807131Y-30619580D01*
X68806606Y-30620054D01*
X68805196Y-30621996D01*
X68804787Y-30621699D01*
X68754479Y-30667206D01*
X68684437Y-30678807D01*
X68619242Y-30650697D01*
X68594514Y-30622157D01*
X68594376Y-30622258D01*
X68593199Y-30620639D01*
X68592270Y-30619566D01*
X68591461Y-30618247D01*
X68553378Y-30565831D01*
X67914157Y-31205051D01*
X67895925Y-31137007D01*
X67830099Y-31022993D01*
X67737007Y-30929901D01*
X67622993Y-30864075D01*
X67554947Y-30845841D01*
X68194168Y-30206621D01*
X68194167Y-30206620D01*
X68141750Y-30168536D01*
X68141748Y-30168535D01*
X67951292Y-30071493D01*
X67951286Y-30071490D01*
X67748003Y-30005440D01*
X67536874Y-29972000D01*
X67323126Y-29972000D01*
X67111996Y-30005440D01*
X66908713Y-30071490D01*
X66908707Y-30071493D01*
X66718253Y-30168534D01*
X66665831Y-30206621D01*
X66665831Y-30206622D01*
X67305051Y-30845842D01*
X67237007Y-30864075D01*
X67122993Y-30929901D01*
X67029901Y-31022993D01*
X66964075Y-31137007D01*
X66945842Y-31205051D01*
X66306622Y-30565831D01*
X66306621Y-30565831D01*
X66268528Y-30618261D01*
X66267724Y-30619574D01*
X66267288Y-30619967D01*
X66265624Y-30622259D01*
X66265142Y-30621909D01*
X66215075Y-30667203D01*
X66145033Y-30678807D01*
X66079836Y-30650702D01*
X66054901Y-30621924D01*
X66054804Y-30621996D01*
X66053975Y-30620855D01*
X66052859Y-30619567D01*
X66051899Y-30618001D01*
X66051894Y-30617991D01*
X65926206Y-30444996D01*
X65926203Y-30444993D01*
X65926201Y-30444990D01*
X65775009Y-30293798D01*
X65775006Y-30293796D01*
X65775004Y-30293794D01*
X65602601Y-30168536D01*
X65602012Y-30168108D01*
X65602011Y-30168107D01*
X65602009Y-30168106D01*
X65411483Y-30071028D01*
X65411480Y-30071027D01*
X65411478Y-30071026D01*
X65208120Y-30004952D01*
X65208123Y-30004952D01*
X65168801Y-29998724D01*
X64996916Y-29971500D01*
X64783084Y-29971500D01*
X64571884Y-30004951D01*
X64571878Y-30004952D01*
X64368521Y-30071026D01*
X64368515Y-30071029D01*
X64177987Y-30168108D01*
X64004993Y-30293796D01*
X64004990Y-30293798D01*
X63853798Y-30444990D01*
X63853796Y-30444993D01*
X63728108Y-30617987D01*
X63727434Y-30619088D01*
X63727068Y-30619418D01*
X63725196Y-30621996D01*
X63724654Y-30621602D01*
X63674787Y-30666721D01*
X63604745Y-30678328D01*
X63539547Y-30650226D01*
X63514976Y-30621870D01*
X63514804Y-30621996D01*
X63513341Y-30619982D01*
X63512566Y-30619088D01*
X63511896Y-30617996D01*
X63511894Y-30617991D01*
X63386206Y-30444996D01*
X63386203Y-30444993D01*
X63386201Y-30444990D01*
X63235009Y-30293798D01*
X63235006Y-30293796D01*
X63235004Y-30293794D01*
X63062601Y-30168536D01*
X63062012Y-30168108D01*
X63062011Y-30168107D01*
X63062009Y-30168106D01*
X62871483Y-30071028D01*
X62871480Y-30071027D01*
X62871478Y-30071026D01*
X62668120Y-30004952D01*
X62668123Y-30004952D01*
X62628801Y-29998724D01*
X62456916Y-29971500D01*
X62243084Y-29971500D01*
X62031884Y-30004951D01*
X62031878Y-30004952D01*
X61828521Y-30071026D01*
X61828515Y-30071029D01*
X61637987Y-30168108D01*
X61464993Y-30293796D01*
X61464990Y-30293798D01*
X61313798Y-30444990D01*
X61313796Y-30444993D01*
X61188108Y-30617987D01*
X61187434Y-30619088D01*
X61187068Y-30619418D01*
X61185196Y-30621996D01*
X61184654Y-30621602D01*
X61134787Y-30666721D01*
X61064745Y-30678328D01*
X60999547Y-30650226D01*
X60974976Y-30621870D01*
X60974804Y-30621996D01*
X60973341Y-30619982D01*
X60972566Y-30619088D01*
X60971896Y-30617996D01*
X60971894Y-30617991D01*
X60846206Y-30444996D01*
X60846203Y-30444993D01*
X60846201Y-30444990D01*
X60695009Y-30293798D01*
X60695006Y-30293796D01*
X60695004Y-30293794D01*
X60522601Y-30168536D01*
X60522012Y-30168108D01*
X60522011Y-30168107D01*
X60522009Y-30168106D01*
X60331483Y-30071028D01*
X60331480Y-30071027D01*
X60331478Y-30071026D01*
X60128120Y-30004952D01*
X60128123Y-30004952D01*
X60088801Y-29998724D01*
X59916916Y-29971500D01*
X59703084Y-29971500D01*
X59491884Y-30004951D01*
X59491878Y-30004952D01*
X59288521Y-30071026D01*
X59288515Y-30071029D01*
X59097987Y-30168108D01*
X58924993Y-30293796D01*
X58924990Y-30293798D01*
X58773798Y-30444990D01*
X58773796Y-30444993D01*
X58648108Y-30617987D01*
X58647434Y-30619088D01*
X58647068Y-30619418D01*
X58645196Y-30621996D01*
X58644654Y-30621602D01*
X58594787Y-30666721D01*
X58524745Y-30678328D01*
X58459547Y-30650226D01*
X58434976Y-30621870D01*
X58434804Y-30621996D01*
X58433341Y-30619982D01*
X58432566Y-30619088D01*
X58431896Y-30617996D01*
X58431894Y-30617991D01*
X58306206Y-30444996D01*
X58306203Y-30444993D01*
X58306201Y-30444990D01*
X58155009Y-30293798D01*
X58155006Y-30293796D01*
X58155004Y-30293794D01*
X57982601Y-30168536D01*
X57982012Y-30168108D01*
X57982011Y-30168107D01*
X57982009Y-30168106D01*
X57791483Y-30071028D01*
X57791480Y-30071027D01*
X57791478Y-30071026D01*
X57588120Y-30004952D01*
X57588123Y-30004952D01*
X57548801Y-29998724D01*
X57376916Y-29971500D01*
X57163084Y-29971500D01*
X56951884Y-30004951D01*
X56951878Y-30004952D01*
X56748521Y-30071026D01*
X56748515Y-30071029D01*
X56557987Y-30168108D01*
X56384993Y-30293796D01*
X56384990Y-30293798D01*
X56233798Y-30444990D01*
X56233796Y-30444993D01*
X56108100Y-30617998D01*
X56107131Y-30619580D01*
X56106606Y-30620054D01*
X56105196Y-30621996D01*
X56104787Y-30621699D01*
X56054479Y-30667206D01*
X55984437Y-30678807D01*
X55919242Y-30650697D01*
X55894514Y-30622157D01*
X55894376Y-30622258D01*
X55893199Y-30620639D01*
X55892270Y-30619566D01*
X55891461Y-30618247D01*
X55853378Y-30565831D01*
X55214157Y-31205051D01*
X55195925Y-31137007D01*
X55130099Y-31022993D01*
X55037007Y-30929901D01*
X54922993Y-30864075D01*
X54854947Y-30845841D01*
X55494168Y-30206621D01*
X55494167Y-30206620D01*
X55441750Y-30168536D01*
X55441748Y-30168535D01*
X55251292Y-30071493D01*
X55251286Y-30071490D01*
X55048003Y-30005440D01*
X54836874Y-29972000D01*
X54623126Y-29972000D01*
X54411996Y-30005440D01*
X54208713Y-30071490D01*
X54208707Y-30071493D01*
X54018253Y-30168534D01*
X53965831Y-30206621D01*
X53965831Y-30206622D01*
X54605051Y-30845842D01*
X54537007Y-30864075D01*
X54422993Y-30929901D01*
X54329901Y-31022993D01*
X54264075Y-31137007D01*
X54245842Y-31205051D01*
X53606622Y-30565831D01*
X53606621Y-30565831D01*
X53568528Y-30618261D01*
X53567724Y-30619574D01*
X53567288Y-30619967D01*
X53565624Y-30622259D01*
X53565142Y-30621909D01*
X53515075Y-30667203D01*
X53445033Y-30678807D01*
X53379836Y-30650702D01*
X53354901Y-30621924D01*
X53354804Y-30621996D01*
X53353975Y-30620855D01*
X53352859Y-30619567D01*
X53351899Y-30618001D01*
X53351894Y-30617991D01*
X53226206Y-30444996D01*
X53226203Y-30444993D01*
X53226201Y-30444990D01*
X53075009Y-30293798D01*
X53075006Y-30293796D01*
X53075004Y-30293794D01*
X52902601Y-30168536D01*
X52902012Y-30168108D01*
X52902011Y-30168107D01*
X52902009Y-30168106D01*
X52711483Y-30071028D01*
X52711480Y-30071027D01*
X52711478Y-30071026D01*
X52508120Y-30004952D01*
X52508123Y-30004952D01*
X52468801Y-29998724D01*
X52296916Y-29971500D01*
X52083084Y-29971500D01*
X51871884Y-30004951D01*
X51871878Y-30004952D01*
X51668521Y-30071026D01*
X51668515Y-30071029D01*
X51477987Y-30168108D01*
X51304993Y-30293796D01*
X51304990Y-30293798D01*
X51153798Y-30444990D01*
X51153796Y-30444993D01*
X51028108Y-30617987D01*
X51027434Y-30619088D01*
X51027068Y-30619418D01*
X51025196Y-30621996D01*
X51024654Y-30621602D01*
X50974787Y-30666721D01*
X50904745Y-30678328D01*
X50839547Y-30650226D01*
X50814976Y-30621870D01*
X50814804Y-30621996D01*
X50813341Y-30619982D01*
X50812566Y-30619088D01*
X50811896Y-30617996D01*
X50811894Y-30617991D01*
X50686206Y-30444996D01*
X50686203Y-30444993D01*
X50686201Y-30444990D01*
X50535009Y-30293798D01*
X50535006Y-30293796D01*
X50535004Y-30293794D01*
X50362601Y-30168536D01*
X50362012Y-30168108D01*
X50362011Y-30168107D01*
X50362009Y-30168106D01*
X50171483Y-30071028D01*
X50171480Y-30071027D01*
X50171478Y-30071026D01*
X49968120Y-30004952D01*
X49968123Y-30004952D01*
X49928801Y-29998724D01*
X49756916Y-29971500D01*
X49543084Y-29971500D01*
X49331884Y-30004951D01*
X49331878Y-30004952D01*
X49128521Y-30071026D01*
X49128515Y-30071029D01*
X48937987Y-30168108D01*
X48764993Y-30293796D01*
X48764990Y-30293798D01*
X48613798Y-30444990D01*
X48613796Y-30444993D01*
X48488100Y-30617998D01*
X48487131Y-30619580D01*
X48486606Y-30620054D01*
X48485196Y-30621996D01*
X48484787Y-30621699D01*
X48434479Y-30667206D01*
X48364437Y-30678807D01*
X48299242Y-30650697D01*
X48274514Y-30622157D01*
X48274376Y-30622258D01*
X48273199Y-30620639D01*
X48272270Y-30619566D01*
X48271461Y-30618247D01*
X48233378Y-30565831D01*
X48233377Y-30565830D01*
X47594157Y-31205050D01*
X47575925Y-31137007D01*
X47510099Y-31022993D01*
X47417007Y-30929901D01*
X47302993Y-30864075D01*
X47234947Y-30845841D01*
X47874168Y-30206621D01*
X47874167Y-30206620D01*
X47821750Y-30168536D01*
X47821748Y-30168535D01*
X47631292Y-30071493D01*
X47631286Y-30071490D01*
X47428003Y-30005440D01*
X47216874Y-29972000D01*
X47003126Y-29972000D01*
X46791996Y-30005440D01*
X46588713Y-30071490D01*
X46588707Y-30071493D01*
X46398249Y-30168536D01*
X46260000Y-30268981D01*
X46193132Y-30292839D01*
X46123981Y-30276759D01*
X46096844Y-30256140D01*
X45489535Y-29648831D01*
X45489533Y-29648829D01*
X45385775Y-29579500D01*
X45270485Y-29531745D01*
X45196786Y-29517085D01*
X45148096Y-29507400D01*
X45148094Y-29507400D01*
X40741493Y-29507400D01*
X40616706Y-29507400D01*
X40616703Y-29507400D01*
X40543668Y-29521928D01*
X40494315Y-29531745D01*
X40494313Y-29531745D01*
X40494312Y-29531746D01*
X40379023Y-29579501D01*
X40275271Y-29648826D01*
X40275269Y-29648827D01*
X39946513Y-29977581D01*
X39884201Y-30011606D01*
X39818488Y-30008320D01*
X39808122Y-30004952D01*
X39808123Y-30004952D01*
X39768801Y-29998724D01*
X39596916Y-29971500D01*
X39383084Y-29971500D01*
X39171884Y-30004951D01*
X39171878Y-30004952D01*
X38968521Y-30071026D01*
X38968515Y-30071029D01*
X38777987Y-30168108D01*
X38604993Y-30293796D01*
X38604990Y-30293798D01*
X38453798Y-30444990D01*
X38453796Y-30444993D01*
X38328100Y-30617998D01*
X38327131Y-30619580D01*
X38326606Y-30620054D01*
X38325196Y-30621996D01*
X38324787Y-30621699D01*
X38274479Y-30667206D01*
X38204437Y-30678807D01*
X38139242Y-30650697D01*
X38114514Y-30622157D01*
X38114376Y-30622258D01*
X38113199Y-30620639D01*
X38112270Y-30619566D01*
X38111461Y-30618247D01*
X38073378Y-30565831D01*
X37434157Y-31205051D01*
X37415925Y-31137007D01*
X37350099Y-31022993D01*
X37257007Y-30929901D01*
X37142993Y-30864075D01*
X37074947Y-30845841D01*
X37714168Y-30206621D01*
X37714167Y-30206620D01*
X37661750Y-30168536D01*
X37661748Y-30168535D01*
X37471292Y-30071493D01*
X37471286Y-30071490D01*
X37268003Y-30005440D01*
X37056874Y-29972000D01*
X36843126Y-29972000D01*
X36631996Y-30005440D01*
X36428713Y-30071490D01*
X36428707Y-30071493D01*
X36238253Y-30168534D01*
X36185831Y-30206621D01*
X36185831Y-30206622D01*
X36825051Y-30845842D01*
X36757007Y-30864075D01*
X36642993Y-30929901D01*
X36549901Y-31022993D01*
X36484075Y-31137007D01*
X36465842Y-31205051D01*
X35826622Y-30565831D01*
X35826621Y-30565831D01*
X35788528Y-30618261D01*
X35787724Y-30619574D01*
X35787288Y-30619967D01*
X35785624Y-30622259D01*
X35785142Y-30621909D01*
X35735075Y-30667203D01*
X35665033Y-30678807D01*
X35599836Y-30650702D01*
X35574901Y-30621924D01*
X35574804Y-30621996D01*
X35573975Y-30620855D01*
X35572859Y-30619567D01*
X35571899Y-30618001D01*
X35571894Y-30617991D01*
X35446206Y-30444996D01*
X35446203Y-30444993D01*
X35446201Y-30444990D01*
X35295009Y-30293798D01*
X35295006Y-30293796D01*
X35295004Y-30293794D01*
X35122601Y-30168536D01*
X35122012Y-30168108D01*
X35122011Y-30168107D01*
X35122009Y-30168106D01*
X34931483Y-30071028D01*
X34931480Y-30071027D01*
X34931478Y-30071026D01*
X34728120Y-30004952D01*
X34728123Y-30004952D01*
X34688801Y-29998724D01*
X34516916Y-29971500D01*
X34303084Y-29971500D01*
X34091884Y-30004951D01*
X34091878Y-30004952D01*
X33888521Y-30071026D01*
X33888515Y-30071029D01*
X33697987Y-30168108D01*
X33524993Y-30293796D01*
X33524990Y-30293798D01*
X33373798Y-30444990D01*
X33373796Y-30444993D01*
X33248108Y-30617987D01*
X33247434Y-30619088D01*
X33247068Y-30619418D01*
X33245196Y-30621996D01*
X33244654Y-30621602D01*
X33194787Y-30666721D01*
X33124745Y-30678328D01*
X33059547Y-30650226D01*
X33034976Y-30621870D01*
X33034804Y-30621996D01*
X33033341Y-30619982D01*
X33032566Y-30619088D01*
X33031896Y-30617996D01*
X33031894Y-30617991D01*
X32906206Y-30444996D01*
X32906203Y-30444993D01*
X32906201Y-30444990D01*
X32755009Y-30293798D01*
X32755006Y-30293796D01*
X32755004Y-30293794D01*
X32582601Y-30168536D01*
X32582012Y-30168108D01*
X32582011Y-30168107D01*
X32582009Y-30168106D01*
X32391483Y-30071028D01*
X32391480Y-30071027D01*
X32391478Y-30071026D01*
X32188120Y-30004952D01*
X32188123Y-30004952D01*
X32148801Y-29998724D01*
X31976916Y-29971500D01*
X31763084Y-29971500D01*
X31551884Y-30004951D01*
X31551878Y-30004952D01*
X31348521Y-30071026D01*
X31348515Y-30071029D01*
X31157987Y-30168108D01*
X30984993Y-30293796D01*
X30984990Y-30293798D01*
X30833798Y-30444990D01*
X30833796Y-30444993D01*
X30708108Y-30617987D01*
X30611029Y-30808515D01*
X30611026Y-30808521D01*
X30544952Y-31011878D01*
X30544951Y-31011883D01*
X30544951Y-31011884D01*
X30511500Y-31223084D01*
X29210000Y-31223084D01*
X29210000Y-29336000D01*
X29230002Y-29267879D01*
X29283658Y-29221386D01*
X29336000Y-29210000D01*
X82424000Y-29210000D01*
X82492121Y-29230002D01*
G37*
G04 #@! TD.AperFunction*
M02*
