M48
; DRILL file {KiCad 9.0.1} date 2025-10-22T23:57:10+0200
; FORMAT={-:-/ absolute / metric / decimal}
; #@! TF.CreationDate,2025-10-22T23:57:10+02:00
; #@! TF.GenerationSoftware,Kicad,Pcbnew,9.0.1
; #@! TF.FileFunction,Plated,1,2,PTH
FMAT,2
METRIC
; #@! TA.AperFunction,Plated,PTH,ViaDrill
T1C0.400
; #@! TA.AperFunction,Plated,PTH,ComponentDrill
T2C0.762
; #@! TA.AperFunction,Plated,PTH,ComponentDrill
T3C0.800
; #@! TA.AperFunction,Plated,PTH,ComponentDrill
T4C0.900
; #@! TA.AperFunction,Plated,PTH,ComponentDrill
T5C1.000
; #@! TA.AperFunction,Plated,PTH,ComponentDrill
T6C1.100
%
G90
G05
T1
X49.182Y-68.155
X62.499Y-54.388
X74.689Y-51.32
T2
X33.14Y-40.855
X33.14Y-43.395
X33.14Y-45.935
X33.14Y-48.475
X40.605Y-39.52
X43.145Y-39.52
X45.685Y-39.52
X48.225Y-39.52
T3
X68.065Y-39.585
X68.065Y-49.745
T4
X76.835Y-80.01
X76.835Y-82.55
T5
X31.87Y-31.33
X31.87Y-33.87
X34.41Y-31.33
X34.41Y-33.87
X36.95Y-31.33
X36.95Y-33.87
X39.49Y-31.33
X39.49Y-33.87
X42.03Y-31.33
X42.03Y-33.87
X44.57Y-31.33
X44.57Y-33.87
X47.11Y-31.33
X47.11Y-33.87
X49.65Y-31.33
X49.65Y-33.87
X52.19Y-31.33
X52.19Y-33.87
X54.73Y-31.33
X54.73Y-33.87
X57.27Y-31.33
X57.27Y-33.87
X59.81Y-31.33
X59.81Y-33.87
X61.08Y-57.365
X62.35Y-31.33
X62.35Y-33.87
X64.89Y-31.33
X64.89Y-33.87
X67.43Y-31.33
X67.43Y-33.87
X68.68Y-57.365
X69.97Y-31.33
X69.97Y-33.87
X72.51Y-31.33
X72.51Y-33.87
X75.05Y-31.33
X75.05Y-33.87
X77.59Y-31.33
X77.59Y-33.87
X79.063Y-50.253
X79.063Y-52.793
X79.063Y-55.333
X79.063Y-57.873
X79.063Y-60.413
X79.063Y-62.953
X79.063Y-65.493
X79.063Y-68.033
X80.13Y-31.33
X80.13Y-33.87
X81.603Y-50.253
X81.603Y-52.793
X81.603Y-55.333
X81.603Y-57.873
X81.603Y-60.413
X81.603Y-62.953
X81.603Y-65.493
X81.603Y-68.033
T6
X32.33Y-76.835
X32.33Y-83.335
X36.83Y-76.835
X36.83Y-83.335
X40.585Y-76.835
X40.585Y-83.335
X45.085Y-76.835
X45.085Y-83.335
X48.84Y-76.835
X48.84Y-83.335
X53.34Y-76.835
X53.34Y-83.335
X57.095Y-76.835
X57.095Y-83.335
X61.595Y-76.835
X61.595Y-83.335
X65.35Y-76.835
X65.35Y-83.335
X69.85Y-76.835
X69.85Y-83.335
M30
