%TF.GenerationSoftware,KiCad,Pcbnew,9.0.1*%
%TF.CreationDate,2025-12-07T21:34:19+01:00*%
%TF.ProjectId,RPi_Hat,5250695f-4861-4742-9e6b-696361645f70,1*%
%TF.SameCoordinates,Original*%
%TF.FileFunction,Drillmap*%
%TF.FilePolarity,Positive*%
%FSLAX45Y45*%
G04 Gerber Fmt 4.5, Leading zero omitted, Abs format (unit mm)*
G04 Created by KiCad (PCBNEW 9.0.1) date 2025-12-07 21:34:19*
%MOMM*%
%LPD*%
G01*
G04 APERTURE LIST*
%ADD10C,0.100000*%
%ADD11C,0.200000*%
%ADD12C,0.110000*%
G04 APERTURE END LIST*
D10*
X8549500Y-2857500D02*
G75*
G02*
X8849500Y-3157500I0J-300000D01*
G01*
X2349500Y-3157500D02*
G75*
G02*
X2649500Y-2857500I300000J0D01*
G01*
X2649500Y-8507500D02*
G75*
G02*
X2349500Y-8207500I0J300000D01*
G01*
X8849500Y-8207500D02*
G75*
G02*
X8549500Y-8507500I-300000J0D01*
G01*
X2449500Y-4857500D02*
G75*
G02*
X2349500Y-4757500I0J100000D01*
G01*
X2749500Y-4857500D02*
G75*
G02*
X2849500Y-4957500I0J-100000D01*
G01*
X2849500Y-6457500D02*
G75*
G02*
X2749500Y-6557500I-100000J0D01*
G01*
X2349500Y-6657500D02*
G75*
G02*
X2449500Y-6557500I100000J0D01*
G01*
X2649500Y-2857500D02*
X8549500Y-2857500D01*
X2349500Y-3157500D02*
X2349500Y-4757500D01*
X2449500Y-4857500D02*
X2749500Y-4857500D01*
X2649500Y-8507500D02*
X8549500Y-8507500D01*
X2849500Y-4957500D02*
X2849500Y-6457500D01*
X8849500Y-3157500D02*
X8849500Y-8207500D01*
X2449500Y-6557500D02*
X2749500Y-6557500D01*
X2349500Y-6657500D02*
X2349500Y-8207500D01*
D11*
D10*
X3167000Y-3815540D02*
X3207000Y-3855540D01*
X3207000Y-3815540D02*
X3167000Y-3855540D01*
X3544000Y-4037020D02*
X3584000Y-4077020D01*
X3584000Y-4037020D02*
X3544000Y-4077020D01*
X3663000Y-8042900D02*
X3703000Y-8082900D01*
X3703000Y-8042900D02*
X3663000Y-8082900D01*
X4032700Y-3506050D02*
X4072700Y-3546050D01*
X4072700Y-3506050D02*
X4032700Y-3546050D01*
X4358630Y-5659780D02*
X4398630Y-5699780D01*
X4398630Y-5659780D02*
X4358630Y-5699780D01*
X4425160Y-4443980D02*
X4465160Y-4483980D01*
X4465160Y-4443980D02*
X4425160Y-4483980D01*
X4503840Y-4345370D02*
X4543840Y-4385370D01*
X4543840Y-4345370D02*
X4503840Y-4385370D01*
X4658320Y-4495170D02*
X4698320Y-4535170D01*
X4698320Y-4495170D02*
X4658320Y-4535170D01*
X4738680Y-3738130D02*
X4778680Y-3778130D01*
X4778680Y-3738130D02*
X4738680Y-3778130D01*
X4913620Y-4091880D02*
X4953620Y-4131880D01*
X4953620Y-4091880D02*
X4913620Y-4131880D01*
X4935330Y-3656090D02*
X4975330Y-3696090D01*
X4975330Y-3656090D02*
X4935330Y-3696090D01*
X4985460Y-4821230D02*
X5025460Y-4861230D01*
X5025460Y-4821230D02*
X4985460Y-4861230D01*
X5072000Y-4184050D02*
X5112000Y-4224050D01*
X5112000Y-4184050D02*
X5072000Y-4224050D01*
X5453560Y-2944930D02*
X5493560Y-2984930D01*
X5493560Y-2944930D02*
X5453560Y-2984930D01*
X5615590Y-4616270D02*
X5655590Y-4656270D01*
X5655590Y-4616270D02*
X5615590Y-4656270D01*
X5715600Y-5358440D02*
X5755600Y-5398440D01*
X5755600Y-5358440D02*
X5715600Y-5398440D01*
X5955770Y-4422790D02*
X5995770Y-4462790D01*
X5995770Y-4422790D02*
X5955770Y-4462790D01*
X6175760Y-4745750D02*
X6215760Y-4785750D01*
X6215760Y-4745750D02*
X6175760Y-4785750D01*
X6242320Y-3578730D02*
X6282320Y-3618730D01*
X6282320Y-3578730D02*
X6242320Y-3618730D01*
X6455490Y-4254300D02*
X6495490Y-4294300D01*
X6495490Y-4254300D02*
X6455490Y-4294300D01*
X6472530Y-6969650D02*
X6512530Y-7009650D01*
X6512530Y-6969650D02*
X6472530Y-7009650D01*
X6489820Y-5644010D02*
X6529820Y-5684010D01*
X6529820Y-5644010D02*
X6489820Y-5684010D01*
X6579060Y-6713730D02*
X6619060Y-6753730D01*
X6619060Y-6713730D02*
X6579060Y-6753730D01*
X6711870Y-4301720D02*
X6751870Y-4341720D01*
X6751870Y-4301720D02*
X6711870Y-4341720D01*
X6719890Y-6574370D02*
X6759890Y-6614370D01*
X6759890Y-6574370D02*
X6719890Y-6614370D01*
X6761950Y-3832590D02*
X6801950Y-3872590D01*
X6801950Y-3832590D02*
X6761950Y-3872590D01*
X6804730Y-3506180D02*
X6844730Y-3546180D01*
X6844730Y-3506180D02*
X6804730Y-3546180D01*
X6838250Y-4853830D02*
X6878250Y-4893830D01*
X6878250Y-4853830D02*
X6838250Y-4893830D01*
X7083190Y-5025610D02*
X7123190Y-5065610D01*
X7123190Y-5025610D02*
X7083190Y-5065610D01*
X7099120Y-5906860D02*
X7139120Y-5946860D01*
X7139120Y-5906860D02*
X7099120Y-5946860D01*
X7125390Y-4047720D02*
X7165390Y-4087720D01*
X7165390Y-4047720D02*
X7125390Y-4087720D01*
X7128390Y-4555720D02*
X7168390Y-4595720D01*
X7168390Y-4555720D02*
X7128390Y-4595720D01*
X7297470Y-6148980D02*
X7337470Y-6188980D01*
X7337470Y-6148980D02*
X7297470Y-6188980D01*
X7375450Y-3652700D02*
X7415450Y-3692700D01*
X7415450Y-3652700D02*
X7375450Y-3692700D01*
X7431200Y-6364370D02*
X7471200Y-6404370D01*
X7471200Y-6364370D02*
X7431200Y-6404370D01*
X7509080Y-5754600D02*
X7549080Y-5794600D01*
X7549080Y-5754600D02*
X7509080Y-5794600D01*
X7534200Y-3505730D02*
X7574200Y-3545730D01*
X7574200Y-3505730D02*
X7534200Y-3545730D01*
X7544860Y-5310650D02*
X7584860Y-5350650D01*
X7584860Y-5310650D02*
X7544860Y-5350650D01*
X7593050Y-5844390D02*
X7633050Y-5884390D01*
X7633050Y-5844390D02*
X7593050Y-5884390D01*
X7625430Y-3862190D02*
X7665430Y-3902190D01*
X7665430Y-3862190D02*
X7625430Y-3902190D01*
X7772640Y-3509490D02*
X7812640Y-3549490D01*
X7812640Y-3509490D02*
X7772640Y-3549490D01*
X7806560Y-6149030D02*
X7846560Y-6189030D01*
X7846560Y-6149030D02*
X7806560Y-6189030D01*
X7880490Y-4533470D02*
X7920490Y-4573470D01*
X7920490Y-4533470D02*
X7880490Y-4573470D01*
X8035370Y-6712360D02*
X8075370Y-6752360D01*
X8075370Y-6712360D02*
X8035370Y-6752360D01*
X8051840Y-3587310D02*
X8091840Y-3627310D01*
X8091840Y-3587310D02*
X8051840Y-3627310D01*
X8488010Y-4269660D02*
X8528010Y-4309660D01*
X8528010Y-4269660D02*
X8488010Y-4309660D01*
X6120100Y-5124800D02*
G75*
G02*
X6045100Y-5124800I-37500J0D01*
G01*
X6045100Y-5124800D02*
G75*
G02*
X6120100Y-5124800I37500J0D01*
G01*
X6120100Y-6841400D02*
G75*
G02*
X6045100Y-6841400I-37500J0D01*
G01*
X6045100Y-6841400D02*
G75*
G02*
X6120100Y-6841400I37500J0D01*
G01*
X6247100Y-5124800D02*
G75*
G02*
X6172100Y-5124800I-37500J0D01*
G01*
X6172100Y-5124800D02*
G75*
G02*
X6247100Y-5124800I37500J0D01*
G01*
X6247100Y-6841400D02*
G75*
G02*
X6172100Y-6841400I-37500J0D01*
G01*
X6172100Y-6841400D02*
G75*
G02*
X6247100Y-6841400I37500J0D01*
G01*
X6374100Y-5124800D02*
G75*
G02*
X6299100Y-5124800I-37500J0D01*
G01*
X6299100Y-5124800D02*
G75*
G02*
X6374100Y-5124800I37500J0D01*
G01*
X6374100Y-6841400D02*
G75*
G02*
X6299100Y-6841400I-37500J0D01*
G01*
X6299100Y-6841400D02*
G75*
G02*
X6374100Y-6841400I37500J0D01*
G01*
X6729700Y-5124800D02*
G75*
G02*
X6654700Y-5124800I-37500J0D01*
G01*
X6654700Y-5124800D02*
G75*
G02*
X6729700Y-5124800I37500J0D01*
G01*
X6729700Y-6841400D02*
G75*
G02*
X6654700Y-6841400I-37500J0D01*
G01*
X6654700Y-6841400D02*
G75*
G02*
X6729700Y-6841400I37500J0D01*
G01*
X6856700Y-5124800D02*
G75*
G02*
X6781700Y-5124800I-37500J0D01*
G01*
X6781700Y-5124800D02*
G75*
G02*
X6856700Y-5124800I37500J0D01*
G01*
X6856700Y-6841400D02*
G75*
G02*
X6781700Y-6841400I-37500J0D01*
G01*
X6781700Y-6841400D02*
G75*
G02*
X6856700Y-6841400I37500J0D01*
G01*
X6983700Y-5124800D02*
G75*
G02*
X6908700Y-5124800I-37500J0D01*
G01*
X6908700Y-5124800D02*
G75*
G02*
X6983700Y-5124800I37500J0D01*
G01*
X6983700Y-6841400D02*
G75*
G02*
X6908700Y-6841400I-37500J0D01*
G01*
X6908700Y-6841400D02*
G75*
G02*
X6983700Y-6841400I37500J0D01*
G01*
X3314000Y-4047400D02*
X3314000Y-4123600D01*
X3275900Y-4085500D02*
X3352100Y-4085500D01*
X3314000Y-4301400D02*
X3314000Y-4377600D01*
X3275900Y-4339500D02*
X3352100Y-4339500D01*
X3314000Y-4555400D02*
X3314000Y-4631600D01*
X3275900Y-4593500D02*
X3352100Y-4593500D01*
X3314000Y-4809400D02*
X3314000Y-4885600D01*
X3275900Y-4847500D02*
X3352100Y-4847500D01*
X4060500Y-3913900D02*
X4060500Y-3990100D01*
X4022400Y-3952000D02*
X4098600Y-3952000D01*
X4314500Y-3913900D02*
X4314500Y-3990100D01*
X4276400Y-3952000D02*
X4352600Y-3952000D01*
X4568500Y-3913900D02*
X4568500Y-3990100D01*
X4530400Y-3952000D02*
X4606600Y-3952000D01*
X4822500Y-3913900D02*
X4822500Y-3990100D01*
X4784400Y-3952000D02*
X4860600Y-3952000D01*
X6034684Y-3745484D02*
X6034684Y-3688915D01*
X5978115Y-3688915D01*
X5978115Y-3745484D01*
X6034684Y-3745484D01*
X6034684Y-4761485D02*
X6034684Y-4704916D01*
X5978115Y-4704916D01*
X5978115Y-4761485D01*
X6034684Y-4761485D01*
X6034684Y-5498085D02*
X6034684Y-5441516D01*
X5978115Y-5441516D01*
X5978115Y-5498085D01*
X6034684Y-5498085D01*
X6034684Y-6514084D02*
X6034684Y-6457515D01*
X5978115Y-6457515D01*
X5978115Y-6514084D01*
X6034684Y-6514084D01*
X6356414Y-3745484D02*
X6356414Y-3688915D01*
X6299845Y-3688915D01*
X6299845Y-3745484D01*
X6356414Y-3745484D01*
X6356414Y-4761485D02*
X6356414Y-4704916D01*
X6299845Y-4704916D01*
X6299845Y-4761485D01*
X6356414Y-4761485D01*
X6356414Y-5498085D02*
X6356414Y-5441516D01*
X6299845Y-5441516D01*
X6299845Y-5498085D01*
X6356414Y-5498085D01*
X6356414Y-6514084D02*
X6356414Y-6457515D01*
X6299845Y-6457515D01*
X6299845Y-6514084D01*
X6356414Y-6514084D01*
X6678154Y-3745484D02*
X6678154Y-3688915D01*
X6621585Y-3688915D01*
X6621585Y-3745484D01*
X6678154Y-3745484D01*
X6678154Y-4761485D02*
X6678154Y-4704916D01*
X6621585Y-4704916D01*
X6621585Y-4761485D01*
X6678154Y-4761485D01*
X6678154Y-5498085D02*
X6678154Y-5441516D01*
X6621585Y-5441516D01*
X6621585Y-5498085D01*
X6678154Y-5498085D01*
X6678154Y-6514084D02*
X6678154Y-6457515D01*
X6621585Y-6457515D01*
X6621585Y-6514084D01*
X6678154Y-6514084D01*
X6999884Y-3745484D02*
X6999884Y-3688915D01*
X6943315Y-3688915D01*
X6943315Y-3745484D01*
X6999884Y-3745484D01*
X6999884Y-4761485D02*
X6999884Y-4704916D01*
X6943315Y-4704916D01*
X6943315Y-4761485D01*
X6999884Y-4761485D01*
X6999884Y-5498085D02*
X6999884Y-5441516D01*
X6943315Y-5441516D01*
X6943315Y-5498085D01*
X6999884Y-5498085D01*
X6999884Y-6514084D02*
X6999884Y-6457515D01*
X6943315Y-6457515D01*
X6943315Y-6514084D01*
X6999884Y-6514084D01*
X7507884Y-6844284D02*
X7507884Y-6787715D01*
X7451315Y-6787715D01*
X7451315Y-6844284D01*
X7507884Y-6844284D01*
X7507884Y-7580884D02*
X7507884Y-7524315D01*
X7451315Y-7524315D01*
X7451315Y-7580884D01*
X7507884Y-7580884D01*
X8523885Y-6844284D02*
X8523885Y-6787715D01*
X8467316Y-6787715D01*
X8467316Y-6844284D01*
X8523885Y-6844284D01*
X8523885Y-7580884D02*
X8523885Y-7524315D01*
X8467316Y-7524315D01*
X8467316Y-7580884D01*
X8523885Y-7580884D01*
X7683500Y-8046000D02*
X7728500Y-8001000D01*
X7683500Y-7956000D01*
X7638500Y-8001000D01*
X7683500Y-8046000D01*
X7683500Y-8300000D02*
X7728500Y-8255000D01*
X7683500Y-8210000D01*
X7638500Y-8255000D01*
X7683500Y-8300000D01*
X7723600Y-7233200D02*
X7768600Y-7188200D01*
X7723600Y-7143200D01*
X7678600Y-7188200D01*
X7723600Y-7233200D01*
X8485600Y-7233200D02*
X8530600Y-7188200D01*
X8485600Y-7143200D01*
X8440600Y-7188200D01*
X8485600Y-7233200D01*
X3137000Y-3083000D02*
X3237000Y-3183000D01*
X3237000Y-3083000D02*
X3137000Y-3183000D01*
X3237000Y-3133000D02*
G75*
G02*
X3137000Y-3133000I-50000J0D01*
G01*
X3137000Y-3133000D02*
G75*
G02*
X3237000Y-3133000I50000J0D01*
G01*
X3137000Y-3337000D02*
X3237000Y-3437000D01*
X3237000Y-3337000D02*
X3137000Y-3437000D01*
X3237000Y-3387000D02*
G75*
G02*
X3137000Y-3387000I-50000J0D01*
G01*
X3137000Y-3387000D02*
G75*
G02*
X3237000Y-3387000I50000J0D01*
G01*
X3238600Y-6715200D02*
X3338600Y-6815200D01*
X3338600Y-6715200D02*
X3238600Y-6815200D01*
X3338600Y-6765200D02*
G75*
G02*
X3238600Y-6765200I-50000J0D01*
G01*
X3238600Y-6765200D02*
G75*
G02*
X3338600Y-6765200I50000J0D01*
G01*
X3391000Y-3083000D02*
X3491000Y-3183000D01*
X3491000Y-3083000D02*
X3391000Y-3183000D01*
X3491000Y-3133000D02*
G75*
G02*
X3391000Y-3133000I-50000J0D01*
G01*
X3391000Y-3133000D02*
G75*
G02*
X3491000Y-3133000I50000J0D01*
G01*
X3391000Y-3337000D02*
X3491000Y-3437000D01*
X3491000Y-3337000D02*
X3391000Y-3437000D01*
X3491000Y-3387000D02*
G75*
G02*
X3391000Y-3387000I-50000J0D01*
G01*
X3391000Y-3387000D02*
G75*
G02*
X3491000Y-3387000I50000J0D01*
G01*
X3492600Y-6715200D02*
X3592600Y-6815200D01*
X3592600Y-6715200D02*
X3492600Y-6815200D01*
X3592600Y-6765200D02*
G75*
G02*
X3492600Y-6765200I-50000J0D01*
G01*
X3492600Y-6765200D02*
G75*
G02*
X3592600Y-6765200I50000J0D01*
G01*
X3645000Y-3083000D02*
X3745000Y-3183000D01*
X3745000Y-3083000D02*
X3645000Y-3183000D01*
X3745000Y-3133000D02*
G75*
G02*
X3645000Y-3133000I-50000J0D01*
G01*
X3645000Y-3133000D02*
G75*
G02*
X3745000Y-3133000I50000J0D01*
G01*
X3645000Y-3337000D02*
X3745000Y-3437000D01*
X3745000Y-3337000D02*
X3645000Y-3437000D01*
X3745000Y-3387000D02*
G75*
G02*
X3645000Y-3387000I-50000J0D01*
G01*
X3645000Y-3387000D02*
G75*
G02*
X3745000Y-3387000I50000J0D01*
G01*
X3746600Y-6715200D02*
X3846600Y-6815200D01*
X3846600Y-6715200D02*
X3746600Y-6815200D01*
X3846600Y-6765200D02*
G75*
G02*
X3746600Y-6765200I-50000J0D01*
G01*
X3746600Y-6765200D02*
G75*
G02*
X3846600Y-6765200I50000J0D01*
G01*
X3899000Y-3083000D02*
X3999000Y-3183000D01*
X3999000Y-3083000D02*
X3899000Y-3183000D01*
X3999000Y-3133000D02*
G75*
G02*
X3899000Y-3133000I-50000J0D01*
G01*
X3899000Y-3133000D02*
G75*
G02*
X3999000Y-3133000I50000J0D01*
G01*
X3899000Y-3337000D02*
X3999000Y-3437000D01*
X3999000Y-3337000D02*
X3899000Y-3437000D01*
X3999000Y-3387000D02*
G75*
G02*
X3899000Y-3387000I-50000J0D01*
G01*
X3899000Y-3387000D02*
G75*
G02*
X3999000Y-3387000I50000J0D01*
G01*
X4000600Y-6715200D02*
X4100600Y-6815200D01*
X4100600Y-6715200D02*
X4000600Y-6815200D01*
X4100600Y-6765200D02*
G75*
G02*
X4000600Y-6765200I-50000J0D01*
G01*
X4000600Y-6765200D02*
G75*
G02*
X4100600Y-6765200I50000J0D01*
G01*
X4028000Y-5800800D02*
X4128000Y-5900800D01*
X4128000Y-5800800D02*
X4028000Y-5900800D01*
X4128000Y-5850800D02*
G75*
G02*
X4028000Y-5850800I-50000J0D01*
G01*
X4028000Y-5850800D02*
G75*
G02*
X4128000Y-5850800I50000J0D01*
G01*
X4153000Y-3083000D02*
X4253000Y-3183000D01*
X4253000Y-3083000D02*
X4153000Y-3183000D01*
X4253000Y-3133000D02*
G75*
G02*
X4153000Y-3133000I-50000J0D01*
G01*
X4153000Y-3133000D02*
G75*
G02*
X4253000Y-3133000I50000J0D01*
G01*
X4153000Y-3337000D02*
X4253000Y-3437000D01*
X4253000Y-3337000D02*
X4153000Y-3437000D01*
X4253000Y-3387000D02*
G75*
G02*
X4153000Y-3387000I-50000J0D01*
G01*
X4153000Y-3387000D02*
G75*
G02*
X4253000Y-3387000I50000J0D01*
G01*
X4254600Y-6715200D02*
X4354600Y-6815200D01*
X4354600Y-6715200D02*
X4254600Y-6815200D01*
X4354600Y-6765200D02*
G75*
G02*
X4254600Y-6765200I-50000J0D01*
G01*
X4254600Y-6765200D02*
G75*
G02*
X4354600Y-6765200I50000J0D01*
G01*
X4407000Y-3083000D02*
X4507000Y-3183000D01*
X4507000Y-3083000D02*
X4407000Y-3183000D01*
X4507000Y-3133000D02*
G75*
G02*
X4407000Y-3133000I-50000J0D01*
G01*
X4407000Y-3133000D02*
G75*
G02*
X4507000Y-3133000I50000J0D01*
G01*
X4407000Y-3337000D02*
X4507000Y-3437000D01*
X4507000Y-3337000D02*
X4407000Y-3437000D01*
X4507000Y-3387000D02*
G75*
G02*
X4407000Y-3387000I-50000J0D01*
G01*
X4407000Y-3387000D02*
G75*
G02*
X4507000Y-3387000I50000J0D01*
G01*
X4661000Y-3083000D02*
X4761000Y-3183000D01*
X4761000Y-3083000D02*
X4661000Y-3183000D01*
X4761000Y-3133000D02*
G75*
G02*
X4661000Y-3133000I-50000J0D01*
G01*
X4661000Y-3133000D02*
G75*
G02*
X4761000Y-3133000I50000J0D01*
G01*
X4661000Y-3337000D02*
X4761000Y-3437000D01*
X4761000Y-3337000D02*
X4661000Y-3437000D01*
X4761000Y-3387000D02*
G75*
G02*
X4661000Y-3387000I-50000J0D01*
G01*
X4661000Y-3387000D02*
G75*
G02*
X4761000Y-3387000I50000J0D01*
G01*
X4788000Y-5800800D02*
X4888000Y-5900800D01*
X4888000Y-5800800D02*
X4788000Y-5900800D01*
X4888000Y-5850800D02*
G75*
G02*
X4788000Y-5850800I-50000J0D01*
G01*
X4788000Y-5850800D02*
G75*
G02*
X4888000Y-5850800I50000J0D01*
G01*
X4915000Y-3083000D02*
X5015000Y-3183000D01*
X5015000Y-3083000D02*
X4915000Y-3183000D01*
X5015000Y-3133000D02*
G75*
G02*
X4915000Y-3133000I-50000J0D01*
G01*
X4915000Y-3133000D02*
G75*
G02*
X5015000Y-3133000I50000J0D01*
G01*
X4915000Y-3337000D02*
X5015000Y-3437000D01*
X5015000Y-3337000D02*
X4915000Y-3437000D01*
X5015000Y-3387000D02*
G75*
G02*
X4915000Y-3387000I-50000J0D01*
G01*
X4915000Y-3387000D02*
G75*
G02*
X5015000Y-3387000I50000J0D01*
G01*
X5169000Y-3083000D02*
X5269000Y-3183000D01*
X5269000Y-3083000D02*
X5169000Y-3183000D01*
X5269000Y-3133000D02*
G75*
G02*
X5169000Y-3133000I-50000J0D01*
G01*
X5169000Y-3133000D02*
G75*
G02*
X5269000Y-3133000I50000J0D01*
G01*
X5169000Y-3337000D02*
X5269000Y-3437000D01*
X5269000Y-3337000D02*
X5169000Y-3437000D01*
X5269000Y-3387000D02*
G75*
G02*
X5169000Y-3387000I-50000J0D01*
G01*
X5169000Y-3387000D02*
G75*
G02*
X5269000Y-3387000I50000J0D01*
G01*
X5423000Y-3083000D02*
X5523000Y-3183000D01*
X5523000Y-3083000D02*
X5423000Y-3183000D01*
X5523000Y-3133000D02*
G75*
G02*
X5423000Y-3133000I-50000J0D01*
G01*
X5423000Y-3133000D02*
G75*
G02*
X5523000Y-3133000I50000J0D01*
G01*
X5423000Y-3337000D02*
X5523000Y-3437000D01*
X5523000Y-3337000D02*
X5423000Y-3437000D01*
X5523000Y-3387000D02*
G75*
G02*
X5423000Y-3387000I-50000J0D01*
G01*
X5423000Y-3387000D02*
G75*
G02*
X5523000Y-3387000I50000J0D01*
G01*
X5677000Y-3083000D02*
X5777000Y-3183000D01*
X5777000Y-3083000D02*
X5677000Y-3183000D01*
X5777000Y-3133000D02*
G75*
G02*
X5677000Y-3133000I-50000J0D01*
G01*
X5677000Y-3133000D02*
G75*
G02*
X5777000Y-3133000I50000J0D01*
G01*
X5677000Y-3337000D02*
X5777000Y-3437000D01*
X5777000Y-3337000D02*
X5677000Y-3437000D01*
X5777000Y-3387000D02*
G75*
G02*
X5677000Y-3387000I-50000J0D01*
G01*
X5677000Y-3387000D02*
G75*
G02*
X5777000Y-3387000I50000J0D01*
G01*
X5931000Y-3083000D02*
X6031000Y-3183000D01*
X6031000Y-3083000D02*
X5931000Y-3183000D01*
X6031000Y-3133000D02*
G75*
G02*
X5931000Y-3133000I-50000J0D01*
G01*
X5931000Y-3133000D02*
G75*
G02*
X6031000Y-3133000I50000J0D01*
G01*
X5931000Y-3337000D02*
X6031000Y-3437000D01*
X6031000Y-3337000D02*
X5931000Y-3437000D01*
X6031000Y-3387000D02*
G75*
G02*
X5931000Y-3387000I-50000J0D01*
G01*
X5931000Y-3387000D02*
G75*
G02*
X6031000Y-3387000I50000J0D01*
G01*
X6185000Y-3083000D02*
X6285000Y-3183000D01*
X6285000Y-3083000D02*
X6185000Y-3183000D01*
X6285000Y-3133000D02*
G75*
G02*
X6185000Y-3133000I-50000J0D01*
G01*
X6185000Y-3133000D02*
G75*
G02*
X6285000Y-3133000I50000J0D01*
G01*
X6185000Y-3337000D02*
X6285000Y-3437000D01*
X6285000Y-3337000D02*
X6185000Y-3437000D01*
X6285000Y-3387000D02*
G75*
G02*
X6185000Y-3387000I-50000J0D01*
G01*
X6185000Y-3387000D02*
G75*
G02*
X6285000Y-3387000I50000J0D01*
G01*
X6439000Y-3083000D02*
X6539000Y-3183000D01*
X6539000Y-3083000D02*
X6439000Y-3183000D01*
X6539000Y-3133000D02*
G75*
G02*
X6439000Y-3133000I-50000J0D01*
G01*
X6439000Y-3133000D02*
G75*
G02*
X6539000Y-3133000I50000J0D01*
G01*
X6439000Y-3337000D02*
X6539000Y-3437000D01*
X6539000Y-3337000D02*
X6439000Y-3437000D01*
X6539000Y-3387000D02*
G75*
G02*
X6439000Y-3387000I-50000J0D01*
G01*
X6439000Y-3387000D02*
G75*
G02*
X6539000Y-3387000I50000J0D01*
G01*
X6693000Y-3083000D02*
X6793000Y-3183000D01*
X6793000Y-3083000D02*
X6693000Y-3183000D01*
X6793000Y-3133000D02*
G75*
G02*
X6693000Y-3133000I-50000J0D01*
G01*
X6693000Y-3133000D02*
G75*
G02*
X6793000Y-3133000I50000J0D01*
G01*
X6693000Y-3337000D02*
X6793000Y-3437000D01*
X6793000Y-3337000D02*
X6693000Y-3437000D01*
X6793000Y-3387000D02*
G75*
G02*
X6693000Y-3387000I-50000J0D01*
G01*
X6693000Y-3387000D02*
G75*
G02*
X6793000Y-3387000I50000J0D01*
G01*
X6947000Y-3083000D02*
X7047000Y-3183000D01*
X7047000Y-3083000D02*
X6947000Y-3183000D01*
X7047000Y-3133000D02*
G75*
G02*
X6947000Y-3133000I-50000J0D01*
G01*
X6947000Y-3133000D02*
G75*
G02*
X7047000Y-3133000I50000J0D01*
G01*
X6947000Y-3337000D02*
X7047000Y-3437000D01*
X7047000Y-3337000D02*
X6947000Y-3437000D01*
X7047000Y-3387000D02*
G75*
G02*
X6947000Y-3387000I-50000J0D01*
G01*
X6947000Y-3387000D02*
G75*
G02*
X7047000Y-3387000I50000J0D01*
G01*
X7201000Y-3083000D02*
X7301000Y-3183000D01*
X7301000Y-3083000D02*
X7201000Y-3183000D01*
X7301000Y-3133000D02*
G75*
G02*
X7201000Y-3133000I-50000J0D01*
G01*
X7201000Y-3133000D02*
G75*
G02*
X7301000Y-3133000I50000J0D01*
G01*
X7201000Y-3337000D02*
X7301000Y-3437000D01*
X7301000Y-3337000D02*
X7201000Y-3437000D01*
X7301000Y-3387000D02*
G75*
G02*
X7201000Y-3387000I-50000J0D01*
G01*
X7201000Y-3387000D02*
G75*
G02*
X7301000Y-3387000I50000J0D01*
G01*
X7328000Y-3763720D02*
X7428000Y-3863720D01*
X7428000Y-3763720D02*
X7328000Y-3863720D01*
X7428000Y-3813720D02*
G75*
G02*
X7328000Y-3813720I-50000J0D01*
G01*
X7328000Y-3813720D02*
G75*
G02*
X7428000Y-3813720I50000J0D01*
G01*
X7328000Y-4017720D02*
X7428000Y-4117720D01*
X7428000Y-4017720D02*
X7328000Y-4117720D01*
X7428000Y-4067720D02*
G75*
G02*
X7328000Y-4067720I-50000J0D01*
G01*
X7328000Y-4067720D02*
G75*
G02*
X7428000Y-4067720I50000J0D01*
G01*
X7328000Y-4271720D02*
X7428000Y-4371720D01*
X7428000Y-4271720D02*
X7328000Y-4371720D01*
X7428000Y-4321720D02*
G75*
G02*
X7328000Y-4321720I-50000J0D01*
G01*
X7328000Y-4321720D02*
G75*
G02*
X7428000Y-4321720I50000J0D01*
G01*
X7328000Y-4525720D02*
X7428000Y-4625720D01*
X7428000Y-4525720D02*
X7328000Y-4625720D01*
X7428000Y-4575720D02*
G75*
G02*
X7328000Y-4575720I-50000J0D01*
G01*
X7328000Y-4575720D02*
G75*
G02*
X7428000Y-4575720I50000J0D01*
G01*
X7328000Y-4779720D02*
X7428000Y-4879720D01*
X7428000Y-4779720D02*
X7328000Y-4879720D01*
X7428000Y-4829720D02*
G75*
G02*
X7328000Y-4829720I-50000J0D01*
G01*
X7328000Y-4829720D02*
G75*
G02*
X7428000Y-4829720I50000J0D01*
G01*
X7328000Y-5033720D02*
X7428000Y-5133720D01*
X7428000Y-5033720D02*
X7328000Y-5133720D01*
X7428000Y-5083720D02*
G75*
G02*
X7328000Y-5083720I-50000J0D01*
G01*
X7328000Y-5083720D02*
G75*
G02*
X7428000Y-5083720I50000J0D01*
G01*
X7328000Y-5287720D02*
X7428000Y-5387720D01*
X7428000Y-5287720D02*
X7328000Y-5387720D01*
X7428000Y-5337720D02*
G75*
G02*
X7328000Y-5337720I-50000J0D01*
G01*
X7328000Y-5337720D02*
G75*
G02*
X7428000Y-5337720I50000J0D01*
G01*
X7455000Y-3083000D02*
X7555000Y-3183000D01*
X7555000Y-3083000D02*
X7455000Y-3183000D01*
X7555000Y-3133000D02*
G75*
G02*
X7455000Y-3133000I-50000J0D01*
G01*
X7455000Y-3133000D02*
G75*
G02*
X7555000Y-3133000I50000J0D01*
G01*
X7455000Y-3337000D02*
X7555000Y-3437000D01*
X7555000Y-3337000D02*
X7455000Y-3437000D01*
X7555000Y-3387000D02*
G75*
G02*
X7455000Y-3387000I-50000J0D01*
G01*
X7455000Y-3387000D02*
G75*
G02*
X7555000Y-3387000I50000J0D01*
G01*
X7709000Y-3083000D02*
X7809000Y-3183000D01*
X7809000Y-3083000D02*
X7709000Y-3183000D01*
X7809000Y-3133000D02*
G75*
G02*
X7709000Y-3133000I-50000J0D01*
G01*
X7709000Y-3133000D02*
G75*
G02*
X7809000Y-3133000I50000J0D01*
G01*
X7709000Y-3337000D02*
X7809000Y-3437000D01*
X7809000Y-3337000D02*
X7709000Y-3437000D01*
X7809000Y-3387000D02*
G75*
G02*
X7709000Y-3387000I-50000J0D01*
G01*
X7709000Y-3387000D02*
G75*
G02*
X7809000Y-3387000I50000J0D01*
G01*
X7963000Y-3083000D02*
X8063000Y-3183000D01*
X8063000Y-3083000D02*
X7963000Y-3183000D01*
X8063000Y-3133000D02*
G75*
G02*
X7963000Y-3133000I-50000J0D01*
G01*
X7963000Y-3133000D02*
G75*
G02*
X8063000Y-3133000I50000J0D01*
G01*
X7963000Y-3337000D02*
X8063000Y-3437000D01*
X8063000Y-3337000D02*
X7963000Y-3437000D01*
X8063000Y-3387000D02*
G75*
G02*
X7963000Y-3387000I-50000J0D01*
G01*
X7963000Y-3387000D02*
G75*
G02*
X8063000Y-3387000I50000J0D01*
G01*
X8102700Y-4142180D02*
X8202700Y-4242180D01*
X8202700Y-4142180D02*
X8102700Y-4242180D01*
X8202700Y-4192180D02*
G75*
G02*
X8102700Y-4192180I-50000J0D01*
G01*
X8102700Y-4192180D02*
G75*
G02*
X8202700Y-4192180I50000J0D01*
G01*
X8102700Y-4396180D02*
X8202700Y-4496180D01*
X8202700Y-4396180D02*
X8102700Y-4496180D01*
X8202700Y-4446180D02*
G75*
G02*
X8102700Y-4446180I-50000J0D01*
G01*
X8102700Y-4446180D02*
G75*
G02*
X8202700Y-4446180I50000J0D01*
G01*
X8102700Y-4650180D02*
X8202700Y-4750180D01*
X8202700Y-4650180D02*
X8102700Y-4750180D01*
X8202700Y-4700180D02*
G75*
G02*
X8102700Y-4700180I-50000J0D01*
G01*
X8102700Y-4700180D02*
G75*
G02*
X8202700Y-4700180I50000J0D01*
G01*
X8102700Y-4904180D02*
X8202700Y-5004180D01*
X8202700Y-4904180D02*
X8102700Y-5004180D01*
X8202700Y-4954180D02*
G75*
G02*
X8102700Y-4954180I-50000J0D01*
G01*
X8102700Y-4954180D02*
G75*
G02*
X8202700Y-4954180I50000J0D01*
G01*
X8102700Y-5158180D02*
X8202700Y-5258180D01*
X8202700Y-5158180D02*
X8102700Y-5258180D01*
X8202700Y-5208180D02*
G75*
G02*
X8102700Y-5208180I-50000J0D01*
G01*
X8102700Y-5208180D02*
G75*
G02*
X8202700Y-5208180I50000J0D01*
G01*
X8102700Y-5412180D02*
X8202700Y-5512180D01*
X8202700Y-5412180D02*
X8102700Y-5512180D01*
X8202700Y-5462180D02*
G75*
G02*
X8102700Y-5462180I-50000J0D01*
G01*
X8102700Y-5462180D02*
G75*
G02*
X8202700Y-5462180I50000J0D01*
G01*
X8102700Y-5666180D02*
X8202700Y-5766180D01*
X8202700Y-5666180D02*
X8102700Y-5766180D01*
X8202700Y-5716180D02*
G75*
G02*
X8102700Y-5716180I-50000J0D01*
G01*
X8102700Y-5716180D02*
G75*
G02*
X8202700Y-5716180I50000J0D01*
G01*
X8102700Y-5920180D02*
X8202700Y-6020180D01*
X8202700Y-5920180D02*
X8102700Y-6020180D01*
X8202700Y-5970180D02*
G75*
G02*
X8102700Y-5970180I-50000J0D01*
G01*
X8102700Y-5970180D02*
G75*
G02*
X8202700Y-5970180I50000J0D01*
G01*
X8356700Y-4142180D02*
X8456700Y-4242180D01*
X8456700Y-4142180D02*
X8356700Y-4242180D01*
X8456700Y-4192180D02*
G75*
G02*
X8356700Y-4192180I-50000J0D01*
G01*
X8356700Y-4192180D02*
G75*
G02*
X8456700Y-4192180I50000J0D01*
G01*
X8356700Y-4396180D02*
X8456700Y-4496180D01*
X8456700Y-4396180D02*
X8356700Y-4496180D01*
X8456700Y-4446180D02*
G75*
G02*
X8356700Y-4446180I-50000J0D01*
G01*
X8356700Y-4446180D02*
G75*
G02*
X8456700Y-4446180I50000J0D01*
G01*
X8356700Y-4650180D02*
X8456700Y-4750180D01*
X8456700Y-4650180D02*
X8356700Y-4750180D01*
X8456700Y-4700180D02*
G75*
G02*
X8356700Y-4700180I-50000J0D01*
G01*
X8356700Y-4700180D02*
G75*
G02*
X8456700Y-4700180I50000J0D01*
G01*
X8356700Y-4904180D02*
X8456700Y-5004180D01*
X8456700Y-4904180D02*
X8356700Y-5004180D01*
X8456700Y-4954180D02*
G75*
G02*
X8356700Y-4954180I-50000J0D01*
G01*
X8356700Y-4954180D02*
G75*
G02*
X8456700Y-4954180I50000J0D01*
G01*
X8356700Y-5158180D02*
X8456700Y-5258180D01*
X8456700Y-5158180D02*
X8356700Y-5258180D01*
X8456700Y-5208180D02*
G75*
G02*
X8356700Y-5208180I-50000J0D01*
G01*
X8356700Y-5208180D02*
G75*
G02*
X8456700Y-5208180I50000J0D01*
G01*
X8356700Y-5412180D02*
X8456700Y-5512180D01*
X8456700Y-5412180D02*
X8356700Y-5512180D01*
X8456700Y-5462180D02*
G75*
G02*
X8356700Y-5462180I-50000J0D01*
G01*
X8356700Y-5462180D02*
G75*
G02*
X8456700Y-5462180I50000J0D01*
G01*
X8356700Y-5666180D02*
X8456700Y-5766180D01*
X8456700Y-5666180D02*
X8356700Y-5766180D01*
X8456700Y-5716180D02*
G75*
G02*
X8356700Y-5716180I-50000J0D01*
G01*
X8356700Y-5716180D02*
G75*
G02*
X8456700Y-5716180I50000J0D01*
G01*
X8356700Y-5920180D02*
X8456700Y-6020180D01*
X8456700Y-5920180D02*
X8356700Y-6020180D01*
X8456700Y-5970180D02*
G75*
G02*
X8356700Y-5970180I-50000J0D01*
G01*
X8356700Y-5970180D02*
G75*
G02*
X8456700Y-5970180I50000J0D01*
G01*
D12*
X3178000Y-7628500D02*
X3288000Y-7738500D01*
X3288000Y-7628500D02*
X3178000Y-7738500D01*
X3233000Y-7628500D02*
X3233000Y-7738500D01*
X3178000Y-7683500D02*
X3288000Y-7683500D01*
X3178000Y-8278500D02*
X3288000Y-8388500D01*
X3288000Y-8278500D02*
X3178000Y-8388500D01*
X3233000Y-8278500D02*
X3233000Y-8388500D01*
X3178000Y-8333500D02*
X3288000Y-8333500D01*
X3628000Y-7628500D02*
X3738000Y-7738500D01*
X3738000Y-7628500D02*
X3628000Y-7738500D01*
X3683000Y-7628500D02*
X3683000Y-7738500D01*
X3628000Y-7683500D02*
X3738000Y-7683500D01*
X3628000Y-8278500D02*
X3738000Y-8388500D01*
X3738000Y-8278500D02*
X3628000Y-8388500D01*
X3683000Y-8278500D02*
X3683000Y-8388500D01*
X3628000Y-8333500D02*
X3738000Y-8333500D01*
X4003500Y-7628500D02*
X4113500Y-7738500D01*
X4113500Y-7628500D02*
X4003500Y-7738500D01*
X4058500Y-7628500D02*
X4058500Y-7738500D01*
X4003500Y-7683500D02*
X4113500Y-7683500D01*
X4003500Y-8278500D02*
X4113500Y-8388500D01*
X4113500Y-8278500D02*
X4003500Y-8388500D01*
X4058500Y-8278500D02*
X4058500Y-8388500D01*
X4003500Y-8333500D02*
X4113500Y-8333500D01*
X4453500Y-7628500D02*
X4563500Y-7738500D01*
X4563500Y-7628500D02*
X4453500Y-7738500D01*
X4508500Y-7628500D02*
X4508500Y-7738500D01*
X4453500Y-7683500D02*
X4563500Y-7683500D01*
X4453500Y-8278500D02*
X4563500Y-8388500D01*
X4563500Y-8278500D02*
X4453500Y-8388500D01*
X4508500Y-8278500D02*
X4508500Y-8388500D01*
X4453500Y-8333500D02*
X4563500Y-8333500D01*
X4829000Y-7628500D02*
X4939000Y-7738500D01*
X4939000Y-7628500D02*
X4829000Y-7738500D01*
X4884000Y-7628500D02*
X4884000Y-7738500D01*
X4829000Y-7683500D02*
X4939000Y-7683500D01*
X4829000Y-8278500D02*
X4939000Y-8388500D01*
X4939000Y-8278500D02*
X4829000Y-8388500D01*
X4884000Y-8278500D02*
X4884000Y-8388500D01*
X4829000Y-8333500D02*
X4939000Y-8333500D01*
X5279000Y-7628500D02*
X5389000Y-7738500D01*
X5389000Y-7628500D02*
X5279000Y-7738500D01*
X5334000Y-7628500D02*
X5334000Y-7738500D01*
X5279000Y-7683500D02*
X5389000Y-7683500D01*
X5279000Y-8278500D02*
X5389000Y-8388500D01*
X5389000Y-8278500D02*
X5279000Y-8388500D01*
X5334000Y-8278500D02*
X5334000Y-8388500D01*
X5279000Y-8333500D02*
X5389000Y-8333500D01*
X5654500Y-7628500D02*
X5764500Y-7738500D01*
X5764500Y-7628500D02*
X5654500Y-7738500D01*
X5709500Y-7628500D02*
X5709500Y-7738500D01*
X5654500Y-7683500D02*
X5764500Y-7683500D01*
X5654500Y-8278500D02*
X5764500Y-8388500D01*
X5764500Y-8278500D02*
X5654500Y-8388500D01*
X5709500Y-8278500D02*
X5709500Y-8388500D01*
X5654500Y-8333500D02*
X5764500Y-8333500D01*
X6104500Y-7628500D02*
X6214500Y-7738500D01*
X6214500Y-7628500D02*
X6104500Y-7738500D01*
X6159500Y-7628500D02*
X6159500Y-7738500D01*
X6104500Y-7683500D02*
X6214500Y-7683500D01*
X6104500Y-8278500D02*
X6214500Y-8388500D01*
X6214500Y-8278500D02*
X6104500Y-8388500D01*
X6159500Y-8278500D02*
X6159500Y-8388500D01*
X6104500Y-8333500D02*
X6214500Y-8333500D01*
X6480000Y-7628500D02*
X6590000Y-7738500D01*
X6590000Y-7628500D02*
X6480000Y-7738500D01*
X6535000Y-7628500D02*
X6535000Y-7738500D01*
X6480000Y-7683500D02*
X6590000Y-7683500D01*
X6480000Y-8278500D02*
X6590000Y-8388500D01*
X6590000Y-8278500D02*
X6480000Y-8388500D01*
X6535000Y-8278500D02*
X6535000Y-8388500D01*
X6480000Y-8333500D02*
X6590000Y-8333500D01*
X6930000Y-7628500D02*
X7040000Y-7738500D01*
X7040000Y-7628500D02*
X6930000Y-7738500D01*
X6985000Y-7628500D02*
X6985000Y-7738500D01*
X6930000Y-7683500D02*
X7040000Y-7683500D01*
X6930000Y-8278500D02*
X7040000Y-8388500D01*
X7040000Y-8278500D02*
X6930000Y-8388500D01*
X6985000Y-8278500D02*
X6985000Y-8388500D01*
X6930000Y-8333500D02*
X7040000Y-8333500D01*
D11*
X2605277Y-8823984D02*
X2605277Y-8623984D01*
X2605277Y-8623984D02*
X2652896Y-8623984D01*
X2652896Y-8623984D02*
X2681467Y-8633508D01*
X2681467Y-8633508D02*
X2700515Y-8652555D01*
X2700515Y-8652555D02*
X2710039Y-8671603D01*
X2710039Y-8671603D02*
X2719563Y-8709698D01*
X2719563Y-8709698D02*
X2719563Y-8738270D01*
X2719563Y-8738270D02*
X2710039Y-8776365D01*
X2710039Y-8776365D02*
X2700515Y-8795412D01*
X2700515Y-8795412D02*
X2681467Y-8814460D01*
X2681467Y-8814460D02*
X2652896Y-8823984D01*
X2652896Y-8823984D02*
X2605277Y-8823984D01*
X2805277Y-8823984D02*
X2805277Y-8690650D01*
X2805277Y-8728746D02*
X2814801Y-8709698D01*
X2814801Y-8709698D02*
X2824324Y-8700174D01*
X2824324Y-8700174D02*
X2843372Y-8690650D01*
X2843372Y-8690650D02*
X2862420Y-8690650D01*
X2929086Y-8823984D02*
X2929086Y-8690650D01*
X2929086Y-8623984D02*
X2919562Y-8633508D01*
X2919562Y-8633508D02*
X2929086Y-8643031D01*
X2929086Y-8643031D02*
X2938610Y-8633508D01*
X2938610Y-8633508D02*
X2929086Y-8623984D01*
X2929086Y-8623984D02*
X2929086Y-8643031D01*
X3052896Y-8823984D02*
X3033848Y-8814460D01*
X3033848Y-8814460D02*
X3024324Y-8795412D01*
X3024324Y-8795412D02*
X3024324Y-8623984D01*
X3157658Y-8823984D02*
X3138610Y-8814460D01*
X3138610Y-8814460D02*
X3129086Y-8795412D01*
X3129086Y-8795412D02*
X3129086Y-8623984D01*
X3386229Y-8823984D02*
X3386229Y-8623984D01*
X3386229Y-8623984D02*
X3452896Y-8766841D01*
X3452896Y-8766841D02*
X3519562Y-8623984D01*
X3519562Y-8623984D02*
X3519562Y-8823984D01*
X3700515Y-8823984D02*
X3700515Y-8719222D01*
X3700515Y-8719222D02*
X3690991Y-8700174D01*
X3690991Y-8700174D02*
X3671943Y-8690650D01*
X3671943Y-8690650D02*
X3633848Y-8690650D01*
X3633848Y-8690650D02*
X3614801Y-8700174D01*
X3700515Y-8814460D02*
X3681467Y-8823984D01*
X3681467Y-8823984D02*
X3633848Y-8823984D01*
X3633848Y-8823984D02*
X3614801Y-8814460D01*
X3614801Y-8814460D02*
X3605277Y-8795412D01*
X3605277Y-8795412D02*
X3605277Y-8776365D01*
X3605277Y-8776365D02*
X3614801Y-8757317D01*
X3614801Y-8757317D02*
X3633848Y-8747793D01*
X3633848Y-8747793D02*
X3681467Y-8747793D01*
X3681467Y-8747793D02*
X3700515Y-8738270D01*
X3795753Y-8690650D02*
X3795753Y-8890650D01*
X3795753Y-8700174D02*
X3814801Y-8690650D01*
X3814801Y-8690650D02*
X3852896Y-8690650D01*
X3852896Y-8690650D02*
X3871943Y-8700174D01*
X3871943Y-8700174D02*
X3881467Y-8709698D01*
X3881467Y-8709698D02*
X3890991Y-8728746D01*
X3890991Y-8728746D02*
X3890991Y-8785889D01*
X3890991Y-8785889D02*
X3881467Y-8804936D01*
X3881467Y-8804936D02*
X3871943Y-8814460D01*
X3871943Y-8814460D02*
X3852896Y-8823984D01*
X3852896Y-8823984D02*
X3814801Y-8823984D01*
X3814801Y-8823984D02*
X3795753Y-8814460D01*
X3976705Y-8804936D02*
X3986229Y-8814460D01*
X3986229Y-8814460D02*
X3976705Y-8823984D01*
X3976705Y-8823984D02*
X3967182Y-8814460D01*
X3967182Y-8814460D02*
X3976705Y-8804936D01*
X3976705Y-8804936D02*
X3976705Y-8823984D01*
X3976705Y-8700174D02*
X3986229Y-8709698D01*
X3986229Y-8709698D02*
X3976705Y-8719222D01*
X3976705Y-8719222D02*
X3967182Y-8709698D01*
X3967182Y-8709698D02*
X3976705Y-8700174D01*
X3976705Y-8700174D02*
X3976705Y-8719222D01*
D10*
X2304500Y-9132500D02*
X2344500Y-9172500D01*
X2344500Y-9132500D02*
X2304500Y-9172500D01*
D11*
X2643372Y-9043984D02*
X2662420Y-9043984D01*
X2662420Y-9043984D02*
X2681467Y-9053508D01*
X2681467Y-9053508D02*
X2690991Y-9063031D01*
X2690991Y-9063031D02*
X2700515Y-9082079D01*
X2700515Y-9082079D02*
X2710039Y-9120174D01*
X2710039Y-9120174D02*
X2710039Y-9167793D01*
X2710039Y-9167793D02*
X2700515Y-9205889D01*
X2700515Y-9205889D02*
X2690991Y-9224936D01*
X2690991Y-9224936D02*
X2681467Y-9234460D01*
X2681467Y-9234460D02*
X2662420Y-9243984D01*
X2662420Y-9243984D02*
X2643372Y-9243984D01*
X2643372Y-9243984D02*
X2624324Y-9234460D01*
X2624324Y-9234460D02*
X2614801Y-9224936D01*
X2614801Y-9224936D02*
X2605277Y-9205889D01*
X2605277Y-9205889D02*
X2595753Y-9167793D01*
X2595753Y-9167793D02*
X2595753Y-9120174D01*
X2595753Y-9120174D02*
X2605277Y-9082079D01*
X2605277Y-9082079D02*
X2614801Y-9063031D01*
X2614801Y-9063031D02*
X2624324Y-9053508D01*
X2624324Y-9053508D02*
X2643372Y-9043984D01*
X2795753Y-9224936D02*
X2805277Y-9234460D01*
X2805277Y-9234460D02*
X2795753Y-9243984D01*
X2795753Y-9243984D02*
X2786229Y-9234460D01*
X2786229Y-9234460D02*
X2795753Y-9224936D01*
X2795753Y-9224936D02*
X2795753Y-9243984D01*
X2976705Y-9110650D02*
X2976705Y-9243984D01*
X2929086Y-9034460D02*
X2881467Y-9177317D01*
X2881467Y-9177317D02*
X3005277Y-9177317D01*
X3119562Y-9043984D02*
X3138610Y-9043984D01*
X3138610Y-9043984D02*
X3157658Y-9053508D01*
X3157658Y-9053508D02*
X3167182Y-9063031D01*
X3167182Y-9063031D02*
X3176705Y-9082079D01*
X3176705Y-9082079D02*
X3186229Y-9120174D01*
X3186229Y-9120174D02*
X3186229Y-9167793D01*
X3186229Y-9167793D02*
X3176705Y-9205889D01*
X3176705Y-9205889D02*
X3167182Y-9224936D01*
X3167182Y-9224936D02*
X3157658Y-9234460D01*
X3157658Y-9234460D02*
X3138610Y-9243984D01*
X3138610Y-9243984D02*
X3119562Y-9243984D01*
X3119562Y-9243984D02*
X3100515Y-9234460D01*
X3100515Y-9234460D02*
X3090991Y-9224936D01*
X3090991Y-9224936D02*
X3081467Y-9205889D01*
X3081467Y-9205889D02*
X3071943Y-9167793D01*
X3071943Y-9167793D02*
X3071943Y-9120174D01*
X3071943Y-9120174D02*
X3081467Y-9082079D01*
X3081467Y-9082079D02*
X3090991Y-9063031D01*
X3090991Y-9063031D02*
X3100515Y-9053508D01*
X3100515Y-9053508D02*
X3119562Y-9043984D01*
X3310039Y-9043984D02*
X3329086Y-9043984D01*
X3329086Y-9043984D02*
X3348134Y-9053508D01*
X3348134Y-9053508D02*
X3357658Y-9063031D01*
X3357658Y-9063031D02*
X3367182Y-9082079D01*
X3367182Y-9082079D02*
X3376705Y-9120174D01*
X3376705Y-9120174D02*
X3376705Y-9167793D01*
X3376705Y-9167793D02*
X3367182Y-9205889D01*
X3367182Y-9205889D02*
X3357658Y-9224936D01*
X3357658Y-9224936D02*
X3348134Y-9234460D01*
X3348134Y-9234460D02*
X3329086Y-9243984D01*
X3329086Y-9243984D02*
X3310039Y-9243984D01*
X3310039Y-9243984D02*
X3290991Y-9234460D01*
X3290991Y-9234460D02*
X3281467Y-9224936D01*
X3281467Y-9224936D02*
X3271943Y-9205889D01*
X3271943Y-9205889D02*
X3262420Y-9167793D01*
X3262420Y-9167793D02*
X3262420Y-9120174D01*
X3262420Y-9120174D02*
X3271943Y-9082079D01*
X3271943Y-9082079D02*
X3281467Y-9063031D01*
X3281467Y-9063031D02*
X3290991Y-9053508D01*
X3290991Y-9053508D02*
X3310039Y-9043984D01*
X3462420Y-9243984D02*
X3462420Y-9110650D01*
X3462420Y-9129698D02*
X3471943Y-9120174D01*
X3471943Y-9120174D02*
X3490991Y-9110650D01*
X3490991Y-9110650D02*
X3519563Y-9110650D01*
X3519563Y-9110650D02*
X3538610Y-9120174D01*
X3538610Y-9120174D02*
X3548134Y-9139222D01*
X3548134Y-9139222D02*
X3548134Y-9243984D01*
X3548134Y-9139222D02*
X3557658Y-9120174D01*
X3557658Y-9120174D02*
X3576705Y-9110650D01*
X3576705Y-9110650D02*
X3605277Y-9110650D01*
X3605277Y-9110650D02*
X3624324Y-9120174D01*
X3624324Y-9120174D02*
X3633848Y-9139222D01*
X3633848Y-9139222D02*
X3633848Y-9243984D01*
X3729086Y-9243984D02*
X3729086Y-9110650D01*
X3729086Y-9129698D02*
X3738610Y-9120174D01*
X3738610Y-9120174D02*
X3757658Y-9110650D01*
X3757658Y-9110650D02*
X3786229Y-9110650D01*
X3786229Y-9110650D02*
X3805277Y-9120174D01*
X3805277Y-9120174D02*
X3814801Y-9139222D01*
X3814801Y-9139222D02*
X3814801Y-9243984D01*
X3814801Y-9139222D02*
X3824324Y-9120174D01*
X3824324Y-9120174D02*
X3843372Y-9110650D01*
X3843372Y-9110650D02*
X3871943Y-9110650D01*
X3871943Y-9110650D02*
X3890991Y-9120174D01*
X3890991Y-9120174D02*
X3900515Y-9139222D01*
X3900515Y-9139222D02*
X3900515Y-9243984D01*
X4290991Y-9034460D02*
X4119563Y-9291603D01*
X4548134Y-9043984D02*
X4567182Y-9043984D01*
X4567182Y-9043984D02*
X4586229Y-9053508D01*
X4586229Y-9053508D02*
X4595753Y-9063031D01*
X4595753Y-9063031D02*
X4605277Y-9082079D01*
X4605277Y-9082079D02*
X4614801Y-9120174D01*
X4614801Y-9120174D02*
X4614801Y-9167793D01*
X4614801Y-9167793D02*
X4605277Y-9205889D01*
X4605277Y-9205889D02*
X4595753Y-9224936D01*
X4595753Y-9224936D02*
X4586229Y-9234460D01*
X4586229Y-9234460D02*
X4567182Y-9243984D01*
X4567182Y-9243984D02*
X4548134Y-9243984D01*
X4548134Y-9243984D02*
X4529087Y-9234460D01*
X4529087Y-9234460D02*
X4519563Y-9224936D01*
X4519563Y-9224936D02*
X4510039Y-9205889D01*
X4510039Y-9205889D02*
X4500515Y-9167793D01*
X4500515Y-9167793D02*
X4500515Y-9120174D01*
X4500515Y-9120174D02*
X4510039Y-9082079D01*
X4510039Y-9082079D02*
X4519563Y-9063031D01*
X4519563Y-9063031D02*
X4529087Y-9053508D01*
X4529087Y-9053508D02*
X4548134Y-9043984D01*
X4700515Y-9224936D02*
X4710039Y-9234460D01*
X4710039Y-9234460D02*
X4700515Y-9243984D01*
X4700515Y-9243984D02*
X4690991Y-9234460D01*
X4690991Y-9234460D02*
X4700515Y-9224936D01*
X4700515Y-9224936D02*
X4700515Y-9243984D01*
X4833848Y-9043984D02*
X4852896Y-9043984D01*
X4852896Y-9043984D02*
X4871944Y-9053508D01*
X4871944Y-9053508D02*
X4881468Y-9063031D01*
X4881468Y-9063031D02*
X4890991Y-9082079D01*
X4890991Y-9082079D02*
X4900515Y-9120174D01*
X4900515Y-9120174D02*
X4900515Y-9167793D01*
X4900515Y-9167793D02*
X4890991Y-9205889D01*
X4890991Y-9205889D02*
X4881468Y-9224936D01*
X4881468Y-9224936D02*
X4871944Y-9234460D01*
X4871944Y-9234460D02*
X4852896Y-9243984D01*
X4852896Y-9243984D02*
X4833848Y-9243984D01*
X4833848Y-9243984D02*
X4814801Y-9234460D01*
X4814801Y-9234460D02*
X4805277Y-9224936D01*
X4805277Y-9224936D02*
X4795753Y-9205889D01*
X4795753Y-9205889D02*
X4786229Y-9167793D01*
X4786229Y-9167793D02*
X4786229Y-9120174D01*
X4786229Y-9120174D02*
X4795753Y-9082079D01*
X4795753Y-9082079D02*
X4805277Y-9063031D01*
X4805277Y-9063031D02*
X4814801Y-9053508D01*
X4814801Y-9053508D02*
X4833848Y-9043984D01*
X5090991Y-9243984D02*
X4976706Y-9243984D01*
X5033848Y-9243984D02*
X5033848Y-9043984D01*
X5033848Y-9043984D02*
X5014801Y-9072555D01*
X5014801Y-9072555D02*
X4995753Y-9091603D01*
X4995753Y-9091603D02*
X4976706Y-9101127D01*
X5271944Y-9043984D02*
X5176706Y-9043984D01*
X5176706Y-9043984D02*
X5167182Y-9139222D01*
X5167182Y-9139222D02*
X5176706Y-9129698D01*
X5176706Y-9129698D02*
X5195753Y-9120174D01*
X5195753Y-9120174D02*
X5243372Y-9120174D01*
X5243372Y-9120174D02*
X5262420Y-9129698D01*
X5262420Y-9129698D02*
X5271944Y-9139222D01*
X5271944Y-9139222D02*
X5281468Y-9158270D01*
X5281468Y-9158270D02*
X5281468Y-9205889D01*
X5281468Y-9205889D02*
X5271944Y-9224936D01*
X5271944Y-9224936D02*
X5262420Y-9234460D01*
X5262420Y-9234460D02*
X5243372Y-9243984D01*
X5243372Y-9243984D02*
X5195753Y-9243984D01*
X5195753Y-9243984D02*
X5176706Y-9234460D01*
X5176706Y-9234460D02*
X5167182Y-9224936D01*
X5348134Y-9043984D02*
X5481468Y-9043984D01*
X5481468Y-9043984D02*
X5395753Y-9243984D01*
X5548134Y-9043984D02*
X5548134Y-9082079D01*
X5624325Y-9043984D02*
X5624325Y-9082079D01*
X5919563Y-9320174D02*
X5910039Y-9310650D01*
X5910039Y-9310650D02*
X5890991Y-9282079D01*
X5890991Y-9282079D02*
X5881468Y-9263031D01*
X5881468Y-9263031D02*
X5871944Y-9234460D01*
X5871944Y-9234460D02*
X5862420Y-9186841D01*
X5862420Y-9186841D02*
X5862420Y-9148746D01*
X5862420Y-9148746D02*
X5871944Y-9101127D01*
X5871944Y-9101127D02*
X5881468Y-9072555D01*
X5881468Y-9072555D02*
X5890991Y-9053508D01*
X5890991Y-9053508D02*
X5910039Y-9024936D01*
X5910039Y-9024936D02*
X5919563Y-9015412D01*
X6081468Y-9110650D02*
X6081468Y-9243984D01*
X6033848Y-9034460D02*
X5986229Y-9177317D01*
X5986229Y-9177317D02*
X6110039Y-9177317D01*
X6271944Y-9043984D02*
X6233848Y-9043984D01*
X6233848Y-9043984D02*
X6214801Y-9053508D01*
X6214801Y-9053508D02*
X6205277Y-9063031D01*
X6205277Y-9063031D02*
X6186229Y-9091603D01*
X6186229Y-9091603D02*
X6176706Y-9129698D01*
X6176706Y-9129698D02*
X6176706Y-9205889D01*
X6176706Y-9205889D02*
X6186229Y-9224936D01*
X6186229Y-9224936D02*
X6195753Y-9234460D01*
X6195753Y-9234460D02*
X6214801Y-9243984D01*
X6214801Y-9243984D02*
X6252896Y-9243984D01*
X6252896Y-9243984D02*
X6271944Y-9234460D01*
X6271944Y-9234460D02*
X6281468Y-9224936D01*
X6281468Y-9224936D02*
X6290991Y-9205889D01*
X6290991Y-9205889D02*
X6290991Y-9158270D01*
X6290991Y-9158270D02*
X6281468Y-9139222D01*
X6281468Y-9139222D02*
X6271944Y-9129698D01*
X6271944Y-9129698D02*
X6252896Y-9120174D01*
X6252896Y-9120174D02*
X6214801Y-9120174D01*
X6214801Y-9120174D02*
X6195753Y-9129698D01*
X6195753Y-9129698D02*
X6186229Y-9139222D01*
X6186229Y-9139222D02*
X6176706Y-9158270D01*
X6529087Y-9243984D02*
X6529087Y-9043984D01*
X6614801Y-9243984D02*
X6614801Y-9139222D01*
X6614801Y-9139222D02*
X6605277Y-9120174D01*
X6605277Y-9120174D02*
X6586230Y-9110650D01*
X6586230Y-9110650D02*
X6557658Y-9110650D01*
X6557658Y-9110650D02*
X6538610Y-9120174D01*
X6538610Y-9120174D02*
X6529087Y-9129698D01*
X6738610Y-9243984D02*
X6719563Y-9234460D01*
X6719563Y-9234460D02*
X6710039Y-9224936D01*
X6710039Y-9224936D02*
X6700515Y-9205889D01*
X6700515Y-9205889D02*
X6700515Y-9148746D01*
X6700515Y-9148746D02*
X6710039Y-9129698D01*
X6710039Y-9129698D02*
X6719563Y-9120174D01*
X6719563Y-9120174D02*
X6738610Y-9110650D01*
X6738610Y-9110650D02*
X6767182Y-9110650D01*
X6767182Y-9110650D02*
X6786230Y-9120174D01*
X6786230Y-9120174D02*
X6795753Y-9129698D01*
X6795753Y-9129698D02*
X6805277Y-9148746D01*
X6805277Y-9148746D02*
X6805277Y-9205889D01*
X6805277Y-9205889D02*
X6795753Y-9224936D01*
X6795753Y-9224936D02*
X6786230Y-9234460D01*
X6786230Y-9234460D02*
X6767182Y-9243984D01*
X6767182Y-9243984D02*
X6738610Y-9243984D01*
X6919563Y-9243984D02*
X6900515Y-9234460D01*
X6900515Y-9234460D02*
X6890991Y-9215412D01*
X6890991Y-9215412D02*
X6890991Y-9043984D01*
X7071944Y-9234460D02*
X7052896Y-9243984D01*
X7052896Y-9243984D02*
X7014801Y-9243984D01*
X7014801Y-9243984D02*
X6995753Y-9234460D01*
X6995753Y-9234460D02*
X6986230Y-9215412D01*
X6986230Y-9215412D02*
X6986230Y-9139222D01*
X6986230Y-9139222D02*
X6995753Y-9120174D01*
X6995753Y-9120174D02*
X7014801Y-9110650D01*
X7014801Y-9110650D02*
X7052896Y-9110650D01*
X7052896Y-9110650D02*
X7071944Y-9120174D01*
X7071944Y-9120174D02*
X7081468Y-9139222D01*
X7081468Y-9139222D02*
X7081468Y-9158270D01*
X7081468Y-9158270D02*
X6986230Y-9177317D01*
X7157658Y-9234460D02*
X7176706Y-9243984D01*
X7176706Y-9243984D02*
X7214801Y-9243984D01*
X7214801Y-9243984D02*
X7233849Y-9234460D01*
X7233849Y-9234460D02*
X7243372Y-9215412D01*
X7243372Y-9215412D02*
X7243372Y-9205889D01*
X7243372Y-9205889D02*
X7233849Y-9186841D01*
X7233849Y-9186841D02*
X7214801Y-9177317D01*
X7214801Y-9177317D02*
X7186230Y-9177317D01*
X7186230Y-9177317D02*
X7167182Y-9167793D01*
X7167182Y-9167793D02*
X7157658Y-9148746D01*
X7157658Y-9148746D02*
X7157658Y-9139222D01*
X7157658Y-9139222D02*
X7167182Y-9120174D01*
X7167182Y-9120174D02*
X7186230Y-9110650D01*
X7186230Y-9110650D02*
X7214801Y-9110650D01*
X7214801Y-9110650D02*
X7233849Y-9120174D01*
X7310039Y-9320174D02*
X7319563Y-9310650D01*
X7319563Y-9310650D02*
X7338611Y-9282079D01*
X7338611Y-9282079D02*
X7348134Y-9263031D01*
X7348134Y-9263031D02*
X7357658Y-9234460D01*
X7357658Y-9234460D02*
X7367182Y-9186841D01*
X7367182Y-9186841D02*
X7367182Y-9148746D01*
X7367182Y-9148746D02*
X7357658Y-9101127D01*
X7357658Y-9101127D02*
X7348134Y-9072555D01*
X7348134Y-9072555D02*
X7338611Y-9053508D01*
X7338611Y-9053508D02*
X7319563Y-9024936D01*
X7319563Y-9024936D02*
X7310039Y-9015412D01*
D10*
X2344500Y-9416500D02*
G75*
G02*
X2269500Y-9416500I-37500J0D01*
G01*
X2269500Y-9416500D02*
G75*
G02*
X2344500Y-9416500I37500J0D01*
G01*
D11*
X2643372Y-9307984D02*
X2662420Y-9307984D01*
X2662420Y-9307984D02*
X2681467Y-9317508D01*
X2681467Y-9317508D02*
X2690991Y-9327031D01*
X2690991Y-9327031D02*
X2700515Y-9346079D01*
X2700515Y-9346079D02*
X2710039Y-9384174D01*
X2710039Y-9384174D02*
X2710039Y-9431793D01*
X2710039Y-9431793D02*
X2700515Y-9469889D01*
X2700515Y-9469889D02*
X2690991Y-9488936D01*
X2690991Y-9488936D02*
X2681467Y-9498460D01*
X2681467Y-9498460D02*
X2662420Y-9507984D01*
X2662420Y-9507984D02*
X2643372Y-9507984D01*
X2643372Y-9507984D02*
X2624324Y-9498460D01*
X2624324Y-9498460D02*
X2614801Y-9488936D01*
X2614801Y-9488936D02*
X2605277Y-9469889D01*
X2605277Y-9469889D02*
X2595753Y-9431793D01*
X2595753Y-9431793D02*
X2595753Y-9384174D01*
X2595753Y-9384174D02*
X2605277Y-9346079D01*
X2605277Y-9346079D02*
X2614801Y-9327031D01*
X2614801Y-9327031D02*
X2624324Y-9317508D01*
X2624324Y-9317508D02*
X2643372Y-9307984D01*
X2795753Y-9488936D02*
X2805277Y-9498460D01*
X2805277Y-9498460D02*
X2795753Y-9507984D01*
X2795753Y-9507984D02*
X2786229Y-9498460D01*
X2786229Y-9498460D02*
X2795753Y-9488936D01*
X2795753Y-9488936D02*
X2795753Y-9507984D01*
X2871943Y-9307984D02*
X3005277Y-9307984D01*
X3005277Y-9307984D02*
X2919562Y-9507984D01*
X3176705Y-9307984D02*
X3081467Y-9307984D01*
X3081467Y-9307984D02*
X3071943Y-9403222D01*
X3071943Y-9403222D02*
X3081467Y-9393698D01*
X3081467Y-9393698D02*
X3100515Y-9384174D01*
X3100515Y-9384174D02*
X3148134Y-9384174D01*
X3148134Y-9384174D02*
X3167182Y-9393698D01*
X3167182Y-9393698D02*
X3176705Y-9403222D01*
X3176705Y-9403222D02*
X3186229Y-9422270D01*
X3186229Y-9422270D02*
X3186229Y-9469889D01*
X3186229Y-9469889D02*
X3176705Y-9488936D01*
X3176705Y-9488936D02*
X3167182Y-9498460D01*
X3167182Y-9498460D02*
X3148134Y-9507984D01*
X3148134Y-9507984D02*
X3100515Y-9507984D01*
X3100515Y-9507984D02*
X3081467Y-9498460D01*
X3081467Y-9498460D02*
X3071943Y-9488936D01*
X3310039Y-9307984D02*
X3329086Y-9307984D01*
X3329086Y-9307984D02*
X3348134Y-9317508D01*
X3348134Y-9317508D02*
X3357658Y-9327031D01*
X3357658Y-9327031D02*
X3367182Y-9346079D01*
X3367182Y-9346079D02*
X3376705Y-9384174D01*
X3376705Y-9384174D02*
X3376705Y-9431793D01*
X3376705Y-9431793D02*
X3367182Y-9469889D01*
X3367182Y-9469889D02*
X3357658Y-9488936D01*
X3357658Y-9488936D02*
X3348134Y-9498460D01*
X3348134Y-9498460D02*
X3329086Y-9507984D01*
X3329086Y-9507984D02*
X3310039Y-9507984D01*
X3310039Y-9507984D02*
X3290991Y-9498460D01*
X3290991Y-9498460D02*
X3281467Y-9488936D01*
X3281467Y-9488936D02*
X3271943Y-9469889D01*
X3271943Y-9469889D02*
X3262420Y-9431793D01*
X3262420Y-9431793D02*
X3262420Y-9384174D01*
X3262420Y-9384174D02*
X3271943Y-9346079D01*
X3271943Y-9346079D02*
X3281467Y-9327031D01*
X3281467Y-9327031D02*
X3290991Y-9317508D01*
X3290991Y-9317508D02*
X3310039Y-9307984D01*
X3462420Y-9507984D02*
X3462420Y-9374650D01*
X3462420Y-9393698D02*
X3471943Y-9384174D01*
X3471943Y-9384174D02*
X3490991Y-9374650D01*
X3490991Y-9374650D02*
X3519563Y-9374650D01*
X3519563Y-9374650D02*
X3538610Y-9384174D01*
X3538610Y-9384174D02*
X3548134Y-9403222D01*
X3548134Y-9403222D02*
X3548134Y-9507984D01*
X3548134Y-9403222D02*
X3557658Y-9384174D01*
X3557658Y-9384174D02*
X3576705Y-9374650D01*
X3576705Y-9374650D02*
X3605277Y-9374650D01*
X3605277Y-9374650D02*
X3624324Y-9384174D01*
X3624324Y-9384174D02*
X3633848Y-9403222D01*
X3633848Y-9403222D02*
X3633848Y-9507984D01*
X3729086Y-9507984D02*
X3729086Y-9374650D01*
X3729086Y-9393698D02*
X3738610Y-9384174D01*
X3738610Y-9384174D02*
X3757658Y-9374650D01*
X3757658Y-9374650D02*
X3786229Y-9374650D01*
X3786229Y-9374650D02*
X3805277Y-9384174D01*
X3805277Y-9384174D02*
X3814801Y-9403222D01*
X3814801Y-9403222D02*
X3814801Y-9507984D01*
X3814801Y-9403222D02*
X3824324Y-9384174D01*
X3824324Y-9384174D02*
X3843372Y-9374650D01*
X3843372Y-9374650D02*
X3871943Y-9374650D01*
X3871943Y-9374650D02*
X3890991Y-9384174D01*
X3890991Y-9384174D02*
X3900515Y-9403222D01*
X3900515Y-9403222D02*
X3900515Y-9507984D01*
X4290991Y-9298460D02*
X4119563Y-9555603D01*
X4548134Y-9307984D02*
X4567182Y-9307984D01*
X4567182Y-9307984D02*
X4586229Y-9317508D01*
X4586229Y-9317508D02*
X4595753Y-9327031D01*
X4595753Y-9327031D02*
X4605277Y-9346079D01*
X4605277Y-9346079D02*
X4614801Y-9384174D01*
X4614801Y-9384174D02*
X4614801Y-9431793D01*
X4614801Y-9431793D02*
X4605277Y-9469889D01*
X4605277Y-9469889D02*
X4595753Y-9488936D01*
X4595753Y-9488936D02*
X4586229Y-9498460D01*
X4586229Y-9498460D02*
X4567182Y-9507984D01*
X4567182Y-9507984D02*
X4548134Y-9507984D01*
X4548134Y-9507984D02*
X4529087Y-9498460D01*
X4529087Y-9498460D02*
X4519563Y-9488936D01*
X4519563Y-9488936D02*
X4510039Y-9469889D01*
X4510039Y-9469889D02*
X4500515Y-9431793D01*
X4500515Y-9431793D02*
X4500515Y-9384174D01*
X4500515Y-9384174D02*
X4510039Y-9346079D01*
X4510039Y-9346079D02*
X4519563Y-9327031D01*
X4519563Y-9327031D02*
X4529087Y-9317508D01*
X4529087Y-9317508D02*
X4548134Y-9307984D01*
X4700515Y-9488936D02*
X4710039Y-9498460D01*
X4710039Y-9498460D02*
X4700515Y-9507984D01*
X4700515Y-9507984D02*
X4690991Y-9498460D01*
X4690991Y-9498460D02*
X4700515Y-9488936D01*
X4700515Y-9488936D02*
X4700515Y-9507984D01*
X4833848Y-9307984D02*
X4852896Y-9307984D01*
X4852896Y-9307984D02*
X4871944Y-9317508D01*
X4871944Y-9317508D02*
X4881468Y-9327031D01*
X4881468Y-9327031D02*
X4890991Y-9346079D01*
X4890991Y-9346079D02*
X4900515Y-9384174D01*
X4900515Y-9384174D02*
X4900515Y-9431793D01*
X4900515Y-9431793D02*
X4890991Y-9469889D01*
X4890991Y-9469889D02*
X4881468Y-9488936D01*
X4881468Y-9488936D02*
X4871944Y-9498460D01*
X4871944Y-9498460D02*
X4852896Y-9507984D01*
X4852896Y-9507984D02*
X4833848Y-9507984D01*
X4833848Y-9507984D02*
X4814801Y-9498460D01*
X4814801Y-9498460D02*
X4805277Y-9488936D01*
X4805277Y-9488936D02*
X4795753Y-9469889D01*
X4795753Y-9469889D02*
X4786229Y-9431793D01*
X4786229Y-9431793D02*
X4786229Y-9384174D01*
X4786229Y-9384174D02*
X4795753Y-9346079D01*
X4795753Y-9346079D02*
X4805277Y-9327031D01*
X4805277Y-9327031D02*
X4814801Y-9317508D01*
X4814801Y-9317508D02*
X4833848Y-9307984D01*
X4976706Y-9327031D02*
X4986229Y-9317508D01*
X4986229Y-9317508D02*
X5005277Y-9307984D01*
X5005277Y-9307984D02*
X5052896Y-9307984D01*
X5052896Y-9307984D02*
X5071944Y-9317508D01*
X5071944Y-9317508D02*
X5081468Y-9327031D01*
X5081468Y-9327031D02*
X5090991Y-9346079D01*
X5090991Y-9346079D02*
X5090991Y-9365127D01*
X5090991Y-9365127D02*
X5081468Y-9393698D01*
X5081468Y-9393698D02*
X4967182Y-9507984D01*
X4967182Y-9507984D02*
X5090991Y-9507984D01*
X5186229Y-9507984D02*
X5224325Y-9507984D01*
X5224325Y-9507984D02*
X5243372Y-9498460D01*
X5243372Y-9498460D02*
X5252896Y-9488936D01*
X5252896Y-9488936D02*
X5271944Y-9460365D01*
X5271944Y-9460365D02*
X5281468Y-9422270D01*
X5281468Y-9422270D02*
X5281468Y-9346079D01*
X5281468Y-9346079D02*
X5271944Y-9327031D01*
X5271944Y-9327031D02*
X5262420Y-9317508D01*
X5262420Y-9317508D02*
X5243372Y-9307984D01*
X5243372Y-9307984D02*
X5205277Y-9307984D01*
X5205277Y-9307984D02*
X5186229Y-9317508D01*
X5186229Y-9317508D02*
X5176706Y-9327031D01*
X5176706Y-9327031D02*
X5167182Y-9346079D01*
X5167182Y-9346079D02*
X5167182Y-9393698D01*
X5167182Y-9393698D02*
X5176706Y-9412746D01*
X5176706Y-9412746D02*
X5186229Y-9422270D01*
X5186229Y-9422270D02*
X5205277Y-9431793D01*
X5205277Y-9431793D02*
X5243372Y-9431793D01*
X5243372Y-9431793D02*
X5262420Y-9422270D01*
X5262420Y-9422270D02*
X5271944Y-9412746D01*
X5271944Y-9412746D02*
X5281468Y-9393698D01*
X5462420Y-9307984D02*
X5367182Y-9307984D01*
X5367182Y-9307984D02*
X5357658Y-9403222D01*
X5357658Y-9403222D02*
X5367182Y-9393698D01*
X5367182Y-9393698D02*
X5386229Y-9384174D01*
X5386229Y-9384174D02*
X5433849Y-9384174D01*
X5433849Y-9384174D02*
X5452896Y-9393698D01*
X5452896Y-9393698D02*
X5462420Y-9403222D01*
X5462420Y-9403222D02*
X5471944Y-9422270D01*
X5471944Y-9422270D02*
X5471944Y-9469889D01*
X5471944Y-9469889D02*
X5462420Y-9488936D01*
X5462420Y-9488936D02*
X5452896Y-9498460D01*
X5452896Y-9498460D02*
X5433849Y-9507984D01*
X5433849Y-9507984D02*
X5386229Y-9507984D01*
X5386229Y-9507984D02*
X5367182Y-9498460D01*
X5367182Y-9498460D02*
X5357658Y-9488936D01*
X5548134Y-9307984D02*
X5548134Y-9346079D01*
X5624325Y-9307984D02*
X5624325Y-9346079D01*
X5919563Y-9584174D02*
X5910039Y-9574650D01*
X5910039Y-9574650D02*
X5890991Y-9546079D01*
X5890991Y-9546079D02*
X5881468Y-9527031D01*
X5881468Y-9527031D02*
X5871944Y-9498460D01*
X5871944Y-9498460D02*
X5862420Y-9450841D01*
X5862420Y-9450841D02*
X5862420Y-9412746D01*
X5862420Y-9412746D02*
X5871944Y-9365127D01*
X5871944Y-9365127D02*
X5881468Y-9336555D01*
X5881468Y-9336555D02*
X5890991Y-9317508D01*
X5890991Y-9317508D02*
X5910039Y-9288936D01*
X5910039Y-9288936D02*
X5919563Y-9279412D01*
X6100515Y-9507984D02*
X5986229Y-9507984D01*
X6043372Y-9507984D02*
X6043372Y-9307984D01*
X6043372Y-9307984D02*
X6024325Y-9336555D01*
X6024325Y-9336555D02*
X6005277Y-9355603D01*
X6005277Y-9355603D02*
X5986229Y-9365127D01*
X6176706Y-9327031D02*
X6186229Y-9317508D01*
X6186229Y-9317508D02*
X6205277Y-9307984D01*
X6205277Y-9307984D02*
X6252896Y-9307984D01*
X6252896Y-9307984D02*
X6271944Y-9317508D01*
X6271944Y-9317508D02*
X6281468Y-9327031D01*
X6281468Y-9327031D02*
X6290991Y-9346079D01*
X6290991Y-9346079D02*
X6290991Y-9365127D01*
X6290991Y-9365127D02*
X6281468Y-9393698D01*
X6281468Y-9393698D02*
X6167182Y-9507984D01*
X6167182Y-9507984D02*
X6290991Y-9507984D01*
X6529087Y-9507984D02*
X6529087Y-9307984D01*
X6614801Y-9507984D02*
X6614801Y-9403222D01*
X6614801Y-9403222D02*
X6605277Y-9384174D01*
X6605277Y-9384174D02*
X6586230Y-9374650D01*
X6586230Y-9374650D02*
X6557658Y-9374650D01*
X6557658Y-9374650D02*
X6538610Y-9384174D01*
X6538610Y-9384174D02*
X6529087Y-9393698D01*
X6738610Y-9507984D02*
X6719563Y-9498460D01*
X6719563Y-9498460D02*
X6710039Y-9488936D01*
X6710039Y-9488936D02*
X6700515Y-9469889D01*
X6700515Y-9469889D02*
X6700515Y-9412746D01*
X6700515Y-9412746D02*
X6710039Y-9393698D01*
X6710039Y-9393698D02*
X6719563Y-9384174D01*
X6719563Y-9384174D02*
X6738610Y-9374650D01*
X6738610Y-9374650D02*
X6767182Y-9374650D01*
X6767182Y-9374650D02*
X6786230Y-9384174D01*
X6786230Y-9384174D02*
X6795753Y-9393698D01*
X6795753Y-9393698D02*
X6805277Y-9412746D01*
X6805277Y-9412746D02*
X6805277Y-9469889D01*
X6805277Y-9469889D02*
X6795753Y-9488936D01*
X6795753Y-9488936D02*
X6786230Y-9498460D01*
X6786230Y-9498460D02*
X6767182Y-9507984D01*
X6767182Y-9507984D02*
X6738610Y-9507984D01*
X6919563Y-9507984D02*
X6900515Y-9498460D01*
X6900515Y-9498460D02*
X6890991Y-9479412D01*
X6890991Y-9479412D02*
X6890991Y-9307984D01*
X7071944Y-9498460D02*
X7052896Y-9507984D01*
X7052896Y-9507984D02*
X7014801Y-9507984D01*
X7014801Y-9507984D02*
X6995753Y-9498460D01*
X6995753Y-9498460D02*
X6986230Y-9479412D01*
X6986230Y-9479412D02*
X6986230Y-9403222D01*
X6986230Y-9403222D02*
X6995753Y-9384174D01*
X6995753Y-9384174D02*
X7014801Y-9374650D01*
X7014801Y-9374650D02*
X7052896Y-9374650D01*
X7052896Y-9374650D02*
X7071944Y-9384174D01*
X7071944Y-9384174D02*
X7081468Y-9403222D01*
X7081468Y-9403222D02*
X7081468Y-9422270D01*
X7081468Y-9422270D02*
X6986230Y-9441317D01*
X7157658Y-9498460D02*
X7176706Y-9507984D01*
X7176706Y-9507984D02*
X7214801Y-9507984D01*
X7214801Y-9507984D02*
X7233849Y-9498460D01*
X7233849Y-9498460D02*
X7243372Y-9479412D01*
X7243372Y-9479412D02*
X7243372Y-9469889D01*
X7243372Y-9469889D02*
X7233849Y-9450841D01*
X7233849Y-9450841D02*
X7214801Y-9441317D01*
X7214801Y-9441317D02*
X7186230Y-9441317D01*
X7186230Y-9441317D02*
X7167182Y-9431793D01*
X7167182Y-9431793D02*
X7157658Y-9412746D01*
X7157658Y-9412746D02*
X7157658Y-9403222D01*
X7157658Y-9403222D02*
X7167182Y-9384174D01*
X7167182Y-9384174D02*
X7186230Y-9374650D01*
X7186230Y-9374650D02*
X7214801Y-9374650D01*
X7214801Y-9374650D02*
X7233849Y-9384174D01*
X7310039Y-9584174D02*
X7319563Y-9574650D01*
X7319563Y-9574650D02*
X7338611Y-9546079D01*
X7338611Y-9546079D02*
X7348134Y-9527031D01*
X7348134Y-9527031D02*
X7357658Y-9498460D01*
X7357658Y-9498460D02*
X7367182Y-9450841D01*
X7367182Y-9450841D02*
X7367182Y-9412746D01*
X7367182Y-9412746D02*
X7357658Y-9365127D01*
X7357658Y-9365127D02*
X7348134Y-9336555D01*
X7348134Y-9336555D02*
X7338611Y-9317508D01*
X7338611Y-9317508D02*
X7319563Y-9288936D01*
X7319563Y-9288936D02*
X7310039Y-9279412D01*
D10*
X2306400Y-9642400D02*
X2306400Y-9718600D01*
X2268300Y-9680500D02*
X2344500Y-9680500D01*
D11*
X2643372Y-9571984D02*
X2662420Y-9571984D01*
X2662420Y-9571984D02*
X2681467Y-9581508D01*
X2681467Y-9581508D02*
X2690991Y-9591031D01*
X2690991Y-9591031D02*
X2700515Y-9610079D01*
X2700515Y-9610079D02*
X2710039Y-9648174D01*
X2710039Y-9648174D02*
X2710039Y-9695793D01*
X2710039Y-9695793D02*
X2700515Y-9733889D01*
X2700515Y-9733889D02*
X2690991Y-9752936D01*
X2690991Y-9752936D02*
X2681467Y-9762460D01*
X2681467Y-9762460D02*
X2662420Y-9771984D01*
X2662420Y-9771984D02*
X2643372Y-9771984D01*
X2643372Y-9771984D02*
X2624324Y-9762460D01*
X2624324Y-9762460D02*
X2614801Y-9752936D01*
X2614801Y-9752936D02*
X2605277Y-9733889D01*
X2605277Y-9733889D02*
X2595753Y-9695793D01*
X2595753Y-9695793D02*
X2595753Y-9648174D01*
X2595753Y-9648174D02*
X2605277Y-9610079D01*
X2605277Y-9610079D02*
X2614801Y-9591031D01*
X2614801Y-9591031D02*
X2624324Y-9581508D01*
X2624324Y-9581508D02*
X2643372Y-9571984D01*
X2795753Y-9752936D02*
X2805277Y-9762460D01*
X2805277Y-9762460D02*
X2795753Y-9771984D01*
X2795753Y-9771984D02*
X2786229Y-9762460D01*
X2786229Y-9762460D02*
X2795753Y-9752936D01*
X2795753Y-9752936D02*
X2795753Y-9771984D01*
X2871943Y-9571984D02*
X3005277Y-9571984D01*
X3005277Y-9571984D02*
X2919562Y-9771984D01*
X3167182Y-9571984D02*
X3129086Y-9571984D01*
X3129086Y-9571984D02*
X3110039Y-9581508D01*
X3110039Y-9581508D02*
X3100515Y-9591031D01*
X3100515Y-9591031D02*
X3081467Y-9619603D01*
X3081467Y-9619603D02*
X3071943Y-9657698D01*
X3071943Y-9657698D02*
X3071943Y-9733889D01*
X3071943Y-9733889D02*
X3081467Y-9752936D01*
X3081467Y-9752936D02*
X3090991Y-9762460D01*
X3090991Y-9762460D02*
X3110039Y-9771984D01*
X3110039Y-9771984D02*
X3148134Y-9771984D01*
X3148134Y-9771984D02*
X3167182Y-9762460D01*
X3167182Y-9762460D02*
X3176705Y-9752936D01*
X3176705Y-9752936D02*
X3186229Y-9733889D01*
X3186229Y-9733889D02*
X3186229Y-9686270D01*
X3186229Y-9686270D02*
X3176705Y-9667222D01*
X3176705Y-9667222D02*
X3167182Y-9657698D01*
X3167182Y-9657698D02*
X3148134Y-9648174D01*
X3148134Y-9648174D02*
X3110039Y-9648174D01*
X3110039Y-9648174D02*
X3090991Y-9657698D01*
X3090991Y-9657698D02*
X3081467Y-9667222D01*
X3081467Y-9667222D02*
X3071943Y-9686270D01*
X3262420Y-9591031D02*
X3271943Y-9581508D01*
X3271943Y-9581508D02*
X3290991Y-9571984D01*
X3290991Y-9571984D02*
X3338610Y-9571984D01*
X3338610Y-9571984D02*
X3357658Y-9581508D01*
X3357658Y-9581508D02*
X3367182Y-9591031D01*
X3367182Y-9591031D02*
X3376705Y-9610079D01*
X3376705Y-9610079D02*
X3376705Y-9629127D01*
X3376705Y-9629127D02*
X3367182Y-9657698D01*
X3367182Y-9657698D02*
X3252896Y-9771984D01*
X3252896Y-9771984D02*
X3376705Y-9771984D01*
X3462420Y-9771984D02*
X3462420Y-9638650D01*
X3462420Y-9657698D02*
X3471943Y-9648174D01*
X3471943Y-9648174D02*
X3490991Y-9638650D01*
X3490991Y-9638650D02*
X3519563Y-9638650D01*
X3519563Y-9638650D02*
X3538610Y-9648174D01*
X3538610Y-9648174D02*
X3548134Y-9667222D01*
X3548134Y-9667222D02*
X3548134Y-9771984D01*
X3548134Y-9667222D02*
X3557658Y-9648174D01*
X3557658Y-9648174D02*
X3576705Y-9638650D01*
X3576705Y-9638650D02*
X3605277Y-9638650D01*
X3605277Y-9638650D02*
X3624324Y-9648174D01*
X3624324Y-9648174D02*
X3633848Y-9667222D01*
X3633848Y-9667222D02*
X3633848Y-9771984D01*
X3729086Y-9771984D02*
X3729086Y-9638650D01*
X3729086Y-9657698D02*
X3738610Y-9648174D01*
X3738610Y-9648174D02*
X3757658Y-9638650D01*
X3757658Y-9638650D02*
X3786229Y-9638650D01*
X3786229Y-9638650D02*
X3805277Y-9648174D01*
X3805277Y-9648174D02*
X3814801Y-9667222D01*
X3814801Y-9667222D02*
X3814801Y-9771984D01*
X3814801Y-9667222D02*
X3824324Y-9648174D01*
X3824324Y-9648174D02*
X3843372Y-9638650D01*
X3843372Y-9638650D02*
X3871943Y-9638650D01*
X3871943Y-9638650D02*
X3890991Y-9648174D01*
X3890991Y-9648174D02*
X3900515Y-9667222D01*
X3900515Y-9667222D02*
X3900515Y-9771984D01*
X4290991Y-9562460D02*
X4119563Y-9819603D01*
X4548134Y-9571984D02*
X4567182Y-9571984D01*
X4567182Y-9571984D02*
X4586229Y-9581508D01*
X4586229Y-9581508D02*
X4595753Y-9591031D01*
X4595753Y-9591031D02*
X4605277Y-9610079D01*
X4605277Y-9610079D02*
X4614801Y-9648174D01*
X4614801Y-9648174D02*
X4614801Y-9695793D01*
X4614801Y-9695793D02*
X4605277Y-9733889D01*
X4605277Y-9733889D02*
X4595753Y-9752936D01*
X4595753Y-9752936D02*
X4586229Y-9762460D01*
X4586229Y-9762460D02*
X4567182Y-9771984D01*
X4567182Y-9771984D02*
X4548134Y-9771984D01*
X4548134Y-9771984D02*
X4529087Y-9762460D01*
X4529087Y-9762460D02*
X4519563Y-9752936D01*
X4519563Y-9752936D02*
X4510039Y-9733889D01*
X4510039Y-9733889D02*
X4500515Y-9695793D01*
X4500515Y-9695793D02*
X4500515Y-9648174D01*
X4500515Y-9648174D02*
X4510039Y-9610079D01*
X4510039Y-9610079D02*
X4519563Y-9591031D01*
X4519563Y-9591031D02*
X4529087Y-9581508D01*
X4529087Y-9581508D02*
X4548134Y-9571984D01*
X4700515Y-9752936D02*
X4710039Y-9762460D01*
X4710039Y-9762460D02*
X4700515Y-9771984D01*
X4700515Y-9771984D02*
X4690991Y-9762460D01*
X4690991Y-9762460D02*
X4700515Y-9752936D01*
X4700515Y-9752936D02*
X4700515Y-9771984D01*
X4833848Y-9571984D02*
X4852896Y-9571984D01*
X4852896Y-9571984D02*
X4871944Y-9581508D01*
X4871944Y-9581508D02*
X4881468Y-9591031D01*
X4881468Y-9591031D02*
X4890991Y-9610079D01*
X4890991Y-9610079D02*
X4900515Y-9648174D01*
X4900515Y-9648174D02*
X4900515Y-9695793D01*
X4900515Y-9695793D02*
X4890991Y-9733889D01*
X4890991Y-9733889D02*
X4881468Y-9752936D01*
X4881468Y-9752936D02*
X4871944Y-9762460D01*
X4871944Y-9762460D02*
X4852896Y-9771984D01*
X4852896Y-9771984D02*
X4833848Y-9771984D01*
X4833848Y-9771984D02*
X4814801Y-9762460D01*
X4814801Y-9762460D02*
X4805277Y-9752936D01*
X4805277Y-9752936D02*
X4795753Y-9733889D01*
X4795753Y-9733889D02*
X4786229Y-9695793D01*
X4786229Y-9695793D02*
X4786229Y-9648174D01*
X4786229Y-9648174D02*
X4795753Y-9610079D01*
X4795753Y-9610079D02*
X4805277Y-9591031D01*
X4805277Y-9591031D02*
X4814801Y-9581508D01*
X4814801Y-9581508D02*
X4833848Y-9571984D01*
X4967182Y-9571984D02*
X5090991Y-9571984D01*
X5090991Y-9571984D02*
X5024325Y-9648174D01*
X5024325Y-9648174D02*
X5052896Y-9648174D01*
X5052896Y-9648174D02*
X5071944Y-9657698D01*
X5071944Y-9657698D02*
X5081468Y-9667222D01*
X5081468Y-9667222D02*
X5090991Y-9686270D01*
X5090991Y-9686270D02*
X5090991Y-9733889D01*
X5090991Y-9733889D02*
X5081468Y-9752936D01*
X5081468Y-9752936D02*
X5071944Y-9762460D01*
X5071944Y-9762460D02*
X5052896Y-9771984D01*
X5052896Y-9771984D02*
X4995753Y-9771984D01*
X4995753Y-9771984D02*
X4976706Y-9762460D01*
X4976706Y-9762460D02*
X4967182Y-9752936D01*
X5214801Y-9571984D02*
X5233849Y-9571984D01*
X5233849Y-9571984D02*
X5252896Y-9581508D01*
X5252896Y-9581508D02*
X5262420Y-9591031D01*
X5262420Y-9591031D02*
X5271944Y-9610079D01*
X5271944Y-9610079D02*
X5281468Y-9648174D01*
X5281468Y-9648174D02*
X5281468Y-9695793D01*
X5281468Y-9695793D02*
X5271944Y-9733889D01*
X5271944Y-9733889D02*
X5262420Y-9752936D01*
X5262420Y-9752936D02*
X5252896Y-9762460D01*
X5252896Y-9762460D02*
X5233849Y-9771984D01*
X5233849Y-9771984D02*
X5214801Y-9771984D01*
X5214801Y-9771984D02*
X5195753Y-9762460D01*
X5195753Y-9762460D02*
X5186229Y-9752936D01*
X5186229Y-9752936D02*
X5176706Y-9733889D01*
X5176706Y-9733889D02*
X5167182Y-9695793D01*
X5167182Y-9695793D02*
X5167182Y-9648174D01*
X5167182Y-9648174D02*
X5176706Y-9610079D01*
X5176706Y-9610079D02*
X5186229Y-9591031D01*
X5186229Y-9591031D02*
X5195753Y-9581508D01*
X5195753Y-9581508D02*
X5214801Y-9571984D01*
X5405277Y-9571984D02*
X5424325Y-9571984D01*
X5424325Y-9571984D02*
X5443372Y-9581508D01*
X5443372Y-9581508D02*
X5452896Y-9591031D01*
X5452896Y-9591031D02*
X5462420Y-9610079D01*
X5462420Y-9610079D02*
X5471944Y-9648174D01*
X5471944Y-9648174D02*
X5471944Y-9695793D01*
X5471944Y-9695793D02*
X5462420Y-9733889D01*
X5462420Y-9733889D02*
X5452896Y-9752936D01*
X5452896Y-9752936D02*
X5443372Y-9762460D01*
X5443372Y-9762460D02*
X5424325Y-9771984D01*
X5424325Y-9771984D02*
X5405277Y-9771984D01*
X5405277Y-9771984D02*
X5386229Y-9762460D01*
X5386229Y-9762460D02*
X5376706Y-9752936D01*
X5376706Y-9752936D02*
X5367182Y-9733889D01*
X5367182Y-9733889D02*
X5357658Y-9695793D01*
X5357658Y-9695793D02*
X5357658Y-9648174D01*
X5357658Y-9648174D02*
X5367182Y-9610079D01*
X5367182Y-9610079D02*
X5376706Y-9591031D01*
X5376706Y-9591031D02*
X5386229Y-9581508D01*
X5386229Y-9581508D02*
X5405277Y-9571984D01*
X5548134Y-9571984D02*
X5548134Y-9610079D01*
X5624325Y-9571984D02*
X5624325Y-9610079D01*
X5919563Y-9848174D02*
X5910039Y-9838650D01*
X5910039Y-9838650D02*
X5890991Y-9810079D01*
X5890991Y-9810079D02*
X5881468Y-9791031D01*
X5881468Y-9791031D02*
X5871944Y-9762460D01*
X5871944Y-9762460D02*
X5862420Y-9714841D01*
X5862420Y-9714841D02*
X5862420Y-9676746D01*
X5862420Y-9676746D02*
X5871944Y-9629127D01*
X5871944Y-9629127D02*
X5881468Y-9600555D01*
X5881468Y-9600555D02*
X5890991Y-9581508D01*
X5890991Y-9581508D02*
X5910039Y-9552936D01*
X5910039Y-9552936D02*
X5919563Y-9543412D01*
X6024325Y-9657698D02*
X6005277Y-9648174D01*
X6005277Y-9648174D02*
X5995753Y-9638650D01*
X5995753Y-9638650D02*
X5986229Y-9619603D01*
X5986229Y-9619603D02*
X5986229Y-9610079D01*
X5986229Y-9610079D02*
X5995753Y-9591031D01*
X5995753Y-9591031D02*
X6005277Y-9581508D01*
X6005277Y-9581508D02*
X6024325Y-9571984D01*
X6024325Y-9571984D02*
X6062420Y-9571984D01*
X6062420Y-9571984D02*
X6081468Y-9581508D01*
X6081468Y-9581508D02*
X6090991Y-9591031D01*
X6090991Y-9591031D02*
X6100515Y-9610079D01*
X6100515Y-9610079D02*
X6100515Y-9619603D01*
X6100515Y-9619603D02*
X6090991Y-9638650D01*
X6090991Y-9638650D02*
X6081468Y-9648174D01*
X6081468Y-9648174D02*
X6062420Y-9657698D01*
X6062420Y-9657698D02*
X6024325Y-9657698D01*
X6024325Y-9657698D02*
X6005277Y-9667222D01*
X6005277Y-9667222D02*
X5995753Y-9676746D01*
X5995753Y-9676746D02*
X5986229Y-9695793D01*
X5986229Y-9695793D02*
X5986229Y-9733889D01*
X5986229Y-9733889D02*
X5995753Y-9752936D01*
X5995753Y-9752936D02*
X6005277Y-9762460D01*
X6005277Y-9762460D02*
X6024325Y-9771984D01*
X6024325Y-9771984D02*
X6062420Y-9771984D01*
X6062420Y-9771984D02*
X6081468Y-9762460D01*
X6081468Y-9762460D02*
X6090991Y-9752936D01*
X6090991Y-9752936D02*
X6100515Y-9733889D01*
X6100515Y-9733889D02*
X6100515Y-9695793D01*
X6100515Y-9695793D02*
X6090991Y-9676746D01*
X6090991Y-9676746D02*
X6081468Y-9667222D01*
X6081468Y-9667222D02*
X6062420Y-9657698D01*
X6338610Y-9771984D02*
X6338610Y-9571984D01*
X6424325Y-9771984D02*
X6424325Y-9667222D01*
X6424325Y-9667222D02*
X6414801Y-9648174D01*
X6414801Y-9648174D02*
X6395753Y-9638650D01*
X6395753Y-9638650D02*
X6367182Y-9638650D01*
X6367182Y-9638650D02*
X6348134Y-9648174D01*
X6348134Y-9648174D02*
X6338610Y-9657698D01*
X6548134Y-9771984D02*
X6529087Y-9762460D01*
X6529087Y-9762460D02*
X6519563Y-9752936D01*
X6519563Y-9752936D02*
X6510039Y-9733889D01*
X6510039Y-9733889D02*
X6510039Y-9676746D01*
X6510039Y-9676746D02*
X6519563Y-9657698D01*
X6519563Y-9657698D02*
X6529087Y-9648174D01*
X6529087Y-9648174D02*
X6548134Y-9638650D01*
X6548134Y-9638650D02*
X6576706Y-9638650D01*
X6576706Y-9638650D02*
X6595753Y-9648174D01*
X6595753Y-9648174D02*
X6605277Y-9657698D01*
X6605277Y-9657698D02*
X6614801Y-9676746D01*
X6614801Y-9676746D02*
X6614801Y-9733889D01*
X6614801Y-9733889D02*
X6605277Y-9752936D01*
X6605277Y-9752936D02*
X6595753Y-9762460D01*
X6595753Y-9762460D02*
X6576706Y-9771984D01*
X6576706Y-9771984D02*
X6548134Y-9771984D01*
X6729087Y-9771984D02*
X6710039Y-9762460D01*
X6710039Y-9762460D02*
X6700515Y-9743412D01*
X6700515Y-9743412D02*
X6700515Y-9571984D01*
X6881468Y-9762460D02*
X6862420Y-9771984D01*
X6862420Y-9771984D02*
X6824325Y-9771984D01*
X6824325Y-9771984D02*
X6805277Y-9762460D01*
X6805277Y-9762460D02*
X6795753Y-9743412D01*
X6795753Y-9743412D02*
X6795753Y-9667222D01*
X6795753Y-9667222D02*
X6805277Y-9648174D01*
X6805277Y-9648174D02*
X6824325Y-9638650D01*
X6824325Y-9638650D02*
X6862420Y-9638650D01*
X6862420Y-9638650D02*
X6881468Y-9648174D01*
X6881468Y-9648174D02*
X6890991Y-9667222D01*
X6890991Y-9667222D02*
X6890991Y-9686270D01*
X6890991Y-9686270D02*
X6795753Y-9705317D01*
X6967182Y-9762460D02*
X6986230Y-9771984D01*
X6986230Y-9771984D02*
X7024325Y-9771984D01*
X7024325Y-9771984D02*
X7043372Y-9762460D01*
X7043372Y-9762460D02*
X7052896Y-9743412D01*
X7052896Y-9743412D02*
X7052896Y-9733889D01*
X7052896Y-9733889D02*
X7043372Y-9714841D01*
X7043372Y-9714841D02*
X7024325Y-9705317D01*
X7024325Y-9705317D02*
X6995753Y-9705317D01*
X6995753Y-9705317D02*
X6976706Y-9695793D01*
X6976706Y-9695793D02*
X6967182Y-9676746D01*
X6967182Y-9676746D02*
X6967182Y-9667222D01*
X6967182Y-9667222D02*
X6976706Y-9648174D01*
X6976706Y-9648174D02*
X6995753Y-9638650D01*
X6995753Y-9638650D02*
X7024325Y-9638650D01*
X7024325Y-9638650D02*
X7043372Y-9648174D01*
X7119563Y-9848174D02*
X7129087Y-9838650D01*
X7129087Y-9838650D02*
X7148134Y-9810079D01*
X7148134Y-9810079D02*
X7157658Y-9791031D01*
X7157658Y-9791031D02*
X7167182Y-9762460D01*
X7167182Y-9762460D02*
X7176706Y-9714841D01*
X7176706Y-9714841D02*
X7176706Y-9676746D01*
X7176706Y-9676746D02*
X7167182Y-9629127D01*
X7167182Y-9629127D02*
X7157658Y-9600555D01*
X7157658Y-9600555D02*
X7148134Y-9581508D01*
X7148134Y-9581508D02*
X7129087Y-9552936D01*
X7129087Y-9552936D02*
X7119563Y-9543412D01*
D10*
X2332785Y-9972785D02*
X2332785Y-9916216D01*
X2276216Y-9916216D01*
X2276216Y-9972785D01*
X2332785Y-9972785D01*
D11*
X2643372Y-9835984D02*
X2662420Y-9835984D01*
X2662420Y-9835984D02*
X2681467Y-9845508D01*
X2681467Y-9845508D02*
X2690991Y-9855031D01*
X2690991Y-9855031D02*
X2700515Y-9874079D01*
X2700515Y-9874079D02*
X2710039Y-9912174D01*
X2710039Y-9912174D02*
X2710039Y-9959793D01*
X2710039Y-9959793D02*
X2700515Y-9997889D01*
X2700515Y-9997889D02*
X2690991Y-10016936D01*
X2690991Y-10016936D02*
X2681467Y-10026460D01*
X2681467Y-10026460D02*
X2662420Y-10035984D01*
X2662420Y-10035984D02*
X2643372Y-10035984D01*
X2643372Y-10035984D02*
X2624324Y-10026460D01*
X2624324Y-10026460D02*
X2614801Y-10016936D01*
X2614801Y-10016936D02*
X2605277Y-9997889D01*
X2605277Y-9997889D02*
X2595753Y-9959793D01*
X2595753Y-9959793D02*
X2595753Y-9912174D01*
X2595753Y-9912174D02*
X2605277Y-9874079D01*
X2605277Y-9874079D02*
X2614801Y-9855031D01*
X2614801Y-9855031D02*
X2624324Y-9845508D01*
X2624324Y-9845508D02*
X2643372Y-9835984D01*
X2795753Y-10016936D02*
X2805277Y-10026460D01*
X2805277Y-10026460D02*
X2795753Y-10035984D01*
X2795753Y-10035984D02*
X2786229Y-10026460D01*
X2786229Y-10026460D02*
X2795753Y-10016936D01*
X2795753Y-10016936D02*
X2795753Y-10035984D01*
X2919562Y-9921698D02*
X2900515Y-9912174D01*
X2900515Y-9912174D02*
X2890991Y-9902650D01*
X2890991Y-9902650D02*
X2881467Y-9883603D01*
X2881467Y-9883603D02*
X2881467Y-9874079D01*
X2881467Y-9874079D02*
X2890991Y-9855031D01*
X2890991Y-9855031D02*
X2900515Y-9845508D01*
X2900515Y-9845508D02*
X2919562Y-9835984D01*
X2919562Y-9835984D02*
X2957658Y-9835984D01*
X2957658Y-9835984D02*
X2976705Y-9845508D01*
X2976705Y-9845508D02*
X2986229Y-9855031D01*
X2986229Y-9855031D02*
X2995753Y-9874079D01*
X2995753Y-9874079D02*
X2995753Y-9883603D01*
X2995753Y-9883603D02*
X2986229Y-9902650D01*
X2986229Y-9902650D02*
X2976705Y-9912174D01*
X2976705Y-9912174D02*
X2957658Y-9921698D01*
X2957658Y-9921698D02*
X2919562Y-9921698D01*
X2919562Y-9921698D02*
X2900515Y-9931222D01*
X2900515Y-9931222D02*
X2890991Y-9940746D01*
X2890991Y-9940746D02*
X2881467Y-9959793D01*
X2881467Y-9959793D02*
X2881467Y-9997889D01*
X2881467Y-9997889D02*
X2890991Y-10016936D01*
X2890991Y-10016936D02*
X2900515Y-10026460D01*
X2900515Y-10026460D02*
X2919562Y-10035984D01*
X2919562Y-10035984D02*
X2957658Y-10035984D01*
X2957658Y-10035984D02*
X2976705Y-10026460D01*
X2976705Y-10026460D02*
X2986229Y-10016936D01*
X2986229Y-10016936D02*
X2995753Y-9997889D01*
X2995753Y-9997889D02*
X2995753Y-9959793D01*
X2995753Y-9959793D02*
X2986229Y-9940746D01*
X2986229Y-9940746D02*
X2976705Y-9931222D01*
X2976705Y-9931222D02*
X2957658Y-9921698D01*
X3119562Y-9835984D02*
X3138610Y-9835984D01*
X3138610Y-9835984D02*
X3157658Y-9845508D01*
X3157658Y-9845508D02*
X3167182Y-9855031D01*
X3167182Y-9855031D02*
X3176705Y-9874079D01*
X3176705Y-9874079D02*
X3186229Y-9912174D01*
X3186229Y-9912174D02*
X3186229Y-9959793D01*
X3186229Y-9959793D02*
X3176705Y-9997889D01*
X3176705Y-9997889D02*
X3167182Y-10016936D01*
X3167182Y-10016936D02*
X3157658Y-10026460D01*
X3157658Y-10026460D02*
X3138610Y-10035984D01*
X3138610Y-10035984D02*
X3119562Y-10035984D01*
X3119562Y-10035984D02*
X3100515Y-10026460D01*
X3100515Y-10026460D02*
X3090991Y-10016936D01*
X3090991Y-10016936D02*
X3081467Y-9997889D01*
X3081467Y-9997889D02*
X3071943Y-9959793D01*
X3071943Y-9959793D02*
X3071943Y-9912174D01*
X3071943Y-9912174D02*
X3081467Y-9874079D01*
X3081467Y-9874079D02*
X3090991Y-9855031D01*
X3090991Y-9855031D02*
X3100515Y-9845508D01*
X3100515Y-9845508D02*
X3119562Y-9835984D01*
X3310039Y-9835984D02*
X3329086Y-9835984D01*
X3329086Y-9835984D02*
X3348134Y-9845508D01*
X3348134Y-9845508D02*
X3357658Y-9855031D01*
X3357658Y-9855031D02*
X3367182Y-9874079D01*
X3367182Y-9874079D02*
X3376705Y-9912174D01*
X3376705Y-9912174D02*
X3376705Y-9959793D01*
X3376705Y-9959793D02*
X3367182Y-9997889D01*
X3367182Y-9997889D02*
X3357658Y-10016936D01*
X3357658Y-10016936D02*
X3348134Y-10026460D01*
X3348134Y-10026460D02*
X3329086Y-10035984D01*
X3329086Y-10035984D02*
X3310039Y-10035984D01*
X3310039Y-10035984D02*
X3290991Y-10026460D01*
X3290991Y-10026460D02*
X3281467Y-10016936D01*
X3281467Y-10016936D02*
X3271943Y-9997889D01*
X3271943Y-9997889D02*
X3262420Y-9959793D01*
X3262420Y-9959793D02*
X3262420Y-9912174D01*
X3262420Y-9912174D02*
X3271943Y-9874079D01*
X3271943Y-9874079D02*
X3281467Y-9855031D01*
X3281467Y-9855031D02*
X3290991Y-9845508D01*
X3290991Y-9845508D02*
X3310039Y-9835984D01*
X3462420Y-10035984D02*
X3462420Y-9902650D01*
X3462420Y-9921698D02*
X3471943Y-9912174D01*
X3471943Y-9912174D02*
X3490991Y-9902650D01*
X3490991Y-9902650D02*
X3519563Y-9902650D01*
X3519563Y-9902650D02*
X3538610Y-9912174D01*
X3538610Y-9912174D02*
X3548134Y-9931222D01*
X3548134Y-9931222D02*
X3548134Y-10035984D01*
X3548134Y-9931222D02*
X3557658Y-9912174D01*
X3557658Y-9912174D02*
X3576705Y-9902650D01*
X3576705Y-9902650D02*
X3605277Y-9902650D01*
X3605277Y-9902650D02*
X3624324Y-9912174D01*
X3624324Y-9912174D02*
X3633848Y-9931222D01*
X3633848Y-9931222D02*
X3633848Y-10035984D01*
X3729086Y-10035984D02*
X3729086Y-9902650D01*
X3729086Y-9921698D02*
X3738610Y-9912174D01*
X3738610Y-9912174D02*
X3757658Y-9902650D01*
X3757658Y-9902650D02*
X3786229Y-9902650D01*
X3786229Y-9902650D02*
X3805277Y-9912174D01*
X3805277Y-9912174D02*
X3814801Y-9931222D01*
X3814801Y-9931222D02*
X3814801Y-10035984D01*
X3814801Y-9931222D02*
X3824324Y-9912174D01*
X3824324Y-9912174D02*
X3843372Y-9902650D01*
X3843372Y-9902650D02*
X3871943Y-9902650D01*
X3871943Y-9902650D02*
X3890991Y-9912174D01*
X3890991Y-9912174D02*
X3900515Y-9931222D01*
X3900515Y-9931222D02*
X3900515Y-10035984D01*
X4290991Y-9826460D02*
X4119563Y-10083603D01*
X4548134Y-9835984D02*
X4567182Y-9835984D01*
X4567182Y-9835984D02*
X4586229Y-9845508D01*
X4586229Y-9845508D02*
X4595753Y-9855031D01*
X4595753Y-9855031D02*
X4605277Y-9874079D01*
X4605277Y-9874079D02*
X4614801Y-9912174D01*
X4614801Y-9912174D02*
X4614801Y-9959793D01*
X4614801Y-9959793D02*
X4605277Y-9997889D01*
X4605277Y-9997889D02*
X4595753Y-10016936D01*
X4595753Y-10016936D02*
X4586229Y-10026460D01*
X4586229Y-10026460D02*
X4567182Y-10035984D01*
X4567182Y-10035984D02*
X4548134Y-10035984D01*
X4548134Y-10035984D02*
X4529087Y-10026460D01*
X4529087Y-10026460D02*
X4519563Y-10016936D01*
X4519563Y-10016936D02*
X4510039Y-9997889D01*
X4510039Y-9997889D02*
X4500515Y-9959793D01*
X4500515Y-9959793D02*
X4500515Y-9912174D01*
X4500515Y-9912174D02*
X4510039Y-9874079D01*
X4510039Y-9874079D02*
X4519563Y-9855031D01*
X4519563Y-9855031D02*
X4529087Y-9845508D01*
X4529087Y-9845508D02*
X4548134Y-9835984D01*
X4700515Y-10016936D02*
X4710039Y-10026460D01*
X4710039Y-10026460D02*
X4700515Y-10035984D01*
X4700515Y-10035984D02*
X4690991Y-10026460D01*
X4690991Y-10026460D02*
X4700515Y-10016936D01*
X4700515Y-10016936D02*
X4700515Y-10035984D01*
X4833848Y-9835984D02*
X4852896Y-9835984D01*
X4852896Y-9835984D02*
X4871944Y-9845508D01*
X4871944Y-9845508D02*
X4881468Y-9855031D01*
X4881468Y-9855031D02*
X4890991Y-9874079D01*
X4890991Y-9874079D02*
X4900515Y-9912174D01*
X4900515Y-9912174D02*
X4900515Y-9959793D01*
X4900515Y-9959793D02*
X4890991Y-9997889D01*
X4890991Y-9997889D02*
X4881468Y-10016936D01*
X4881468Y-10016936D02*
X4871944Y-10026460D01*
X4871944Y-10026460D02*
X4852896Y-10035984D01*
X4852896Y-10035984D02*
X4833848Y-10035984D01*
X4833848Y-10035984D02*
X4814801Y-10026460D01*
X4814801Y-10026460D02*
X4805277Y-10016936D01*
X4805277Y-10016936D02*
X4795753Y-9997889D01*
X4795753Y-9997889D02*
X4786229Y-9959793D01*
X4786229Y-9959793D02*
X4786229Y-9912174D01*
X4786229Y-9912174D02*
X4795753Y-9874079D01*
X4795753Y-9874079D02*
X4805277Y-9855031D01*
X4805277Y-9855031D02*
X4814801Y-9845508D01*
X4814801Y-9845508D02*
X4833848Y-9835984D01*
X4967182Y-9835984D02*
X5090991Y-9835984D01*
X5090991Y-9835984D02*
X5024325Y-9912174D01*
X5024325Y-9912174D02*
X5052896Y-9912174D01*
X5052896Y-9912174D02*
X5071944Y-9921698D01*
X5071944Y-9921698D02*
X5081468Y-9931222D01*
X5081468Y-9931222D02*
X5090991Y-9950270D01*
X5090991Y-9950270D02*
X5090991Y-9997889D01*
X5090991Y-9997889D02*
X5081468Y-10016936D01*
X5081468Y-10016936D02*
X5071944Y-10026460D01*
X5071944Y-10026460D02*
X5052896Y-10035984D01*
X5052896Y-10035984D02*
X4995753Y-10035984D01*
X4995753Y-10035984D02*
X4976706Y-10026460D01*
X4976706Y-10026460D02*
X4967182Y-10016936D01*
X5281468Y-10035984D02*
X5167182Y-10035984D01*
X5224325Y-10035984D02*
X5224325Y-9835984D01*
X5224325Y-9835984D02*
X5205277Y-9864555D01*
X5205277Y-9864555D02*
X5186229Y-9883603D01*
X5186229Y-9883603D02*
X5167182Y-9893127D01*
X5462420Y-9835984D02*
X5367182Y-9835984D01*
X5367182Y-9835984D02*
X5357658Y-9931222D01*
X5357658Y-9931222D02*
X5367182Y-9921698D01*
X5367182Y-9921698D02*
X5386229Y-9912174D01*
X5386229Y-9912174D02*
X5433849Y-9912174D01*
X5433849Y-9912174D02*
X5452896Y-9921698D01*
X5452896Y-9921698D02*
X5462420Y-9931222D01*
X5462420Y-9931222D02*
X5471944Y-9950270D01*
X5471944Y-9950270D02*
X5471944Y-9997889D01*
X5471944Y-9997889D02*
X5462420Y-10016936D01*
X5462420Y-10016936D02*
X5452896Y-10026460D01*
X5452896Y-10026460D02*
X5433849Y-10035984D01*
X5433849Y-10035984D02*
X5386229Y-10035984D01*
X5386229Y-10035984D02*
X5367182Y-10026460D01*
X5367182Y-10026460D02*
X5357658Y-10016936D01*
X5548134Y-9835984D02*
X5548134Y-9874079D01*
X5624325Y-9835984D02*
X5624325Y-9874079D01*
X5919563Y-10112174D02*
X5910039Y-10102650D01*
X5910039Y-10102650D02*
X5890991Y-10074079D01*
X5890991Y-10074079D02*
X5881468Y-10055031D01*
X5881468Y-10055031D02*
X5871944Y-10026460D01*
X5871944Y-10026460D02*
X5862420Y-9978841D01*
X5862420Y-9978841D02*
X5862420Y-9940746D01*
X5862420Y-9940746D02*
X5871944Y-9893127D01*
X5871944Y-9893127D02*
X5881468Y-9864555D01*
X5881468Y-9864555D02*
X5890991Y-9845508D01*
X5890991Y-9845508D02*
X5910039Y-9816936D01*
X5910039Y-9816936D02*
X5919563Y-9807412D01*
X5986229Y-9855031D02*
X5995753Y-9845508D01*
X5995753Y-9845508D02*
X6014801Y-9835984D01*
X6014801Y-9835984D02*
X6062420Y-9835984D01*
X6062420Y-9835984D02*
X6081468Y-9845508D01*
X6081468Y-9845508D02*
X6090991Y-9855031D01*
X6090991Y-9855031D02*
X6100515Y-9874079D01*
X6100515Y-9874079D02*
X6100515Y-9893127D01*
X6100515Y-9893127D02*
X6090991Y-9921698D01*
X6090991Y-9921698D02*
X5976706Y-10035984D01*
X5976706Y-10035984D02*
X6100515Y-10035984D01*
X6224325Y-9835984D02*
X6243372Y-9835984D01*
X6243372Y-9835984D02*
X6262420Y-9845508D01*
X6262420Y-9845508D02*
X6271944Y-9855031D01*
X6271944Y-9855031D02*
X6281468Y-9874079D01*
X6281468Y-9874079D02*
X6290991Y-9912174D01*
X6290991Y-9912174D02*
X6290991Y-9959793D01*
X6290991Y-9959793D02*
X6281468Y-9997889D01*
X6281468Y-9997889D02*
X6271944Y-10016936D01*
X6271944Y-10016936D02*
X6262420Y-10026460D01*
X6262420Y-10026460D02*
X6243372Y-10035984D01*
X6243372Y-10035984D02*
X6224325Y-10035984D01*
X6224325Y-10035984D02*
X6205277Y-10026460D01*
X6205277Y-10026460D02*
X6195753Y-10016936D01*
X6195753Y-10016936D02*
X6186229Y-9997889D01*
X6186229Y-9997889D02*
X6176706Y-9959793D01*
X6176706Y-9959793D02*
X6176706Y-9912174D01*
X6176706Y-9912174D02*
X6186229Y-9874079D01*
X6186229Y-9874079D02*
X6195753Y-9855031D01*
X6195753Y-9855031D02*
X6205277Y-9845508D01*
X6205277Y-9845508D02*
X6224325Y-9835984D01*
X6529087Y-10035984D02*
X6529087Y-9835984D01*
X6614801Y-10035984D02*
X6614801Y-9931222D01*
X6614801Y-9931222D02*
X6605277Y-9912174D01*
X6605277Y-9912174D02*
X6586230Y-9902650D01*
X6586230Y-9902650D02*
X6557658Y-9902650D01*
X6557658Y-9902650D02*
X6538610Y-9912174D01*
X6538610Y-9912174D02*
X6529087Y-9921698D01*
X6738610Y-10035984D02*
X6719563Y-10026460D01*
X6719563Y-10026460D02*
X6710039Y-10016936D01*
X6710039Y-10016936D02*
X6700515Y-9997889D01*
X6700515Y-9997889D02*
X6700515Y-9940746D01*
X6700515Y-9940746D02*
X6710039Y-9921698D01*
X6710039Y-9921698D02*
X6719563Y-9912174D01*
X6719563Y-9912174D02*
X6738610Y-9902650D01*
X6738610Y-9902650D02*
X6767182Y-9902650D01*
X6767182Y-9902650D02*
X6786230Y-9912174D01*
X6786230Y-9912174D02*
X6795753Y-9921698D01*
X6795753Y-9921698D02*
X6805277Y-9940746D01*
X6805277Y-9940746D02*
X6805277Y-9997889D01*
X6805277Y-9997889D02*
X6795753Y-10016936D01*
X6795753Y-10016936D02*
X6786230Y-10026460D01*
X6786230Y-10026460D02*
X6767182Y-10035984D01*
X6767182Y-10035984D02*
X6738610Y-10035984D01*
X6919563Y-10035984D02*
X6900515Y-10026460D01*
X6900515Y-10026460D02*
X6890991Y-10007412D01*
X6890991Y-10007412D02*
X6890991Y-9835984D01*
X7071944Y-10026460D02*
X7052896Y-10035984D01*
X7052896Y-10035984D02*
X7014801Y-10035984D01*
X7014801Y-10035984D02*
X6995753Y-10026460D01*
X6995753Y-10026460D02*
X6986230Y-10007412D01*
X6986230Y-10007412D02*
X6986230Y-9931222D01*
X6986230Y-9931222D02*
X6995753Y-9912174D01*
X6995753Y-9912174D02*
X7014801Y-9902650D01*
X7014801Y-9902650D02*
X7052896Y-9902650D01*
X7052896Y-9902650D02*
X7071944Y-9912174D01*
X7071944Y-9912174D02*
X7081468Y-9931222D01*
X7081468Y-9931222D02*
X7081468Y-9950270D01*
X7081468Y-9950270D02*
X6986230Y-9969317D01*
X7157658Y-10026460D02*
X7176706Y-10035984D01*
X7176706Y-10035984D02*
X7214801Y-10035984D01*
X7214801Y-10035984D02*
X7233849Y-10026460D01*
X7233849Y-10026460D02*
X7243372Y-10007412D01*
X7243372Y-10007412D02*
X7243372Y-9997889D01*
X7243372Y-9997889D02*
X7233849Y-9978841D01*
X7233849Y-9978841D02*
X7214801Y-9969317D01*
X7214801Y-9969317D02*
X7186230Y-9969317D01*
X7186230Y-9969317D02*
X7167182Y-9959793D01*
X7167182Y-9959793D02*
X7157658Y-9940746D01*
X7157658Y-9940746D02*
X7157658Y-9931222D01*
X7157658Y-9931222D02*
X7167182Y-9912174D01*
X7167182Y-9912174D02*
X7186230Y-9902650D01*
X7186230Y-9902650D02*
X7214801Y-9902650D01*
X7214801Y-9902650D02*
X7233849Y-9912174D01*
X7310039Y-10112174D02*
X7319563Y-10102650D01*
X7319563Y-10102650D02*
X7338611Y-10074079D01*
X7338611Y-10074079D02*
X7348134Y-10055031D01*
X7348134Y-10055031D02*
X7357658Y-10026460D01*
X7357658Y-10026460D02*
X7367182Y-9978841D01*
X7367182Y-9978841D02*
X7367182Y-9940746D01*
X7367182Y-9940746D02*
X7357658Y-9893127D01*
X7357658Y-9893127D02*
X7348134Y-9864555D01*
X7348134Y-9864555D02*
X7338611Y-9845508D01*
X7338611Y-9845508D02*
X7319563Y-9816936D01*
X7319563Y-9816936D02*
X7310039Y-9807412D01*
D10*
X2299500Y-10253500D02*
X2344500Y-10208500D01*
X2299500Y-10163500D01*
X2254500Y-10208500D01*
X2299500Y-10253500D01*
D11*
X2643372Y-10099984D02*
X2662420Y-10099984D01*
X2662420Y-10099984D02*
X2681467Y-10109508D01*
X2681467Y-10109508D02*
X2690991Y-10119031D01*
X2690991Y-10119031D02*
X2700515Y-10138079D01*
X2700515Y-10138079D02*
X2710039Y-10176174D01*
X2710039Y-10176174D02*
X2710039Y-10223793D01*
X2710039Y-10223793D02*
X2700515Y-10261889D01*
X2700515Y-10261889D02*
X2690991Y-10280936D01*
X2690991Y-10280936D02*
X2681467Y-10290460D01*
X2681467Y-10290460D02*
X2662420Y-10299984D01*
X2662420Y-10299984D02*
X2643372Y-10299984D01*
X2643372Y-10299984D02*
X2624324Y-10290460D01*
X2624324Y-10290460D02*
X2614801Y-10280936D01*
X2614801Y-10280936D02*
X2605277Y-10261889D01*
X2605277Y-10261889D02*
X2595753Y-10223793D01*
X2595753Y-10223793D02*
X2595753Y-10176174D01*
X2595753Y-10176174D02*
X2605277Y-10138079D01*
X2605277Y-10138079D02*
X2614801Y-10119031D01*
X2614801Y-10119031D02*
X2624324Y-10109508D01*
X2624324Y-10109508D02*
X2643372Y-10099984D01*
X2795753Y-10280936D02*
X2805277Y-10290460D01*
X2805277Y-10290460D02*
X2795753Y-10299984D01*
X2795753Y-10299984D02*
X2786229Y-10290460D01*
X2786229Y-10290460D02*
X2795753Y-10280936D01*
X2795753Y-10280936D02*
X2795753Y-10299984D01*
X2900515Y-10299984D02*
X2938610Y-10299984D01*
X2938610Y-10299984D02*
X2957658Y-10290460D01*
X2957658Y-10290460D02*
X2967182Y-10280936D01*
X2967182Y-10280936D02*
X2986229Y-10252365D01*
X2986229Y-10252365D02*
X2995753Y-10214270D01*
X2995753Y-10214270D02*
X2995753Y-10138079D01*
X2995753Y-10138079D02*
X2986229Y-10119031D01*
X2986229Y-10119031D02*
X2976705Y-10109508D01*
X2976705Y-10109508D02*
X2957658Y-10099984D01*
X2957658Y-10099984D02*
X2919562Y-10099984D01*
X2919562Y-10099984D02*
X2900515Y-10109508D01*
X2900515Y-10109508D02*
X2890991Y-10119031D01*
X2890991Y-10119031D02*
X2881467Y-10138079D01*
X2881467Y-10138079D02*
X2881467Y-10185698D01*
X2881467Y-10185698D02*
X2890991Y-10204746D01*
X2890991Y-10204746D02*
X2900515Y-10214270D01*
X2900515Y-10214270D02*
X2919562Y-10223793D01*
X2919562Y-10223793D02*
X2957658Y-10223793D01*
X2957658Y-10223793D02*
X2976705Y-10214270D01*
X2976705Y-10214270D02*
X2986229Y-10204746D01*
X2986229Y-10204746D02*
X2995753Y-10185698D01*
X3119562Y-10099984D02*
X3138610Y-10099984D01*
X3138610Y-10099984D02*
X3157658Y-10109508D01*
X3157658Y-10109508D02*
X3167182Y-10119031D01*
X3167182Y-10119031D02*
X3176705Y-10138079D01*
X3176705Y-10138079D02*
X3186229Y-10176174D01*
X3186229Y-10176174D02*
X3186229Y-10223793D01*
X3186229Y-10223793D02*
X3176705Y-10261889D01*
X3176705Y-10261889D02*
X3167182Y-10280936D01*
X3167182Y-10280936D02*
X3157658Y-10290460D01*
X3157658Y-10290460D02*
X3138610Y-10299984D01*
X3138610Y-10299984D02*
X3119562Y-10299984D01*
X3119562Y-10299984D02*
X3100515Y-10290460D01*
X3100515Y-10290460D02*
X3090991Y-10280936D01*
X3090991Y-10280936D02*
X3081467Y-10261889D01*
X3081467Y-10261889D02*
X3071943Y-10223793D01*
X3071943Y-10223793D02*
X3071943Y-10176174D01*
X3071943Y-10176174D02*
X3081467Y-10138079D01*
X3081467Y-10138079D02*
X3090991Y-10119031D01*
X3090991Y-10119031D02*
X3100515Y-10109508D01*
X3100515Y-10109508D02*
X3119562Y-10099984D01*
X3310039Y-10099984D02*
X3329086Y-10099984D01*
X3329086Y-10099984D02*
X3348134Y-10109508D01*
X3348134Y-10109508D02*
X3357658Y-10119031D01*
X3357658Y-10119031D02*
X3367182Y-10138079D01*
X3367182Y-10138079D02*
X3376705Y-10176174D01*
X3376705Y-10176174D02*
X3376705Y-10223793D01*
X3376705Y-10223793D02*
X3367182Y-10261889D01*
X3367182Y-10261889D02*
X3357658Y-10280936D01*
X3357658Y-10280936D02*
X3348134Y-10290460D01*
X3348134Y-10290460D02*
X3329086Y-10299984D01*
X3329086Y-10299984D02*
X3310039Y-10299984D01*
X3310039Y-10299984D02*
X3290991Y-10290460D01*
X3290991Y-10290460D02*
X3281467Y-10280936D01*
X3281467Y-10280936D02*
X3271943Y-10261889D01*
X3271943Y-10261889D02*
X3262420Y-10223793D01*
X3262420Y-10223793D02*
X3262420Y-10176174D01*
X3262420Y-10176174D02*
X3271943Y-10138079D01*
X3271943Y-10138079D02*
X3281467Y-10119031D01*
X3281467Y-10119031D02*
X3290991Y-10109508D01*
X3290991Y-10109508D02*
X3310039Y-10099984D01*
X3462420Y-10299984D02*
X3462420Y-10166650D01*
X3462420Y-10185698D02*
X3471943Y-10176174D01*
X3471943Y-10176174D02*
X3490991Y-10166650D01*
X3490991Y-10166650D02*
X3519563Y-10166650D01*
X3519563Y-10166650D02*
X3538610Y-10176174D01*
X3538610Y-10176174D02*
X3548134Y-10195222D01*
X3548134Y-10195222D02*
X3548134Y-10299984D01*
X3548134Y-10195222D02*
X3557658Y-10176174D01*
X3557658Y-10176174D02*
X3576705Y-10166650D01*
X3576705Y-10166650D02*
X3605277Y-10166650D01*
X3605277Y-10166650D02*
X3624324Y-10176174D01*
X3624324Y-10176174D02*
X3633848Y-10195222D01*
X3633848Y-10195222D02*
X3633848Y-10299984D01*
X3729086Y-10299984D02*
X3729086Y-10166650D01*
X3729086Y-10185698D02*
X3738610Y-10176174D01*
X3738610Y-10176174D02*
X3757658Y-10166650D01*
X3757658Y-10166650D02*
X3786229Y-10166650D01*
X3786229Y-10166650D02*
X3805277Y-10176174D01*
X3805277Y-10176174D02*
X3814801Y-10195222D01*
X3814801Y-10195222D02*
X3814801Y-10299984D01*
X3814801Y-10195222D02*
X3824324Y-10176174D01*
X3824324Y-10176174D02*
X3843372Y-10166650D01*
X3843372Y-10166650D02*
X3871943Y-10166650D01*
X3871943Y-10166650D02*
X3890991Y-10176174D01*
X3890991Y-10176174D02*
X3900515Y-10195222D01*
X3900515Y-10195222D02*
X3900515Y-10299984D01*
X4290991Y-10090460D02*
X4119563Y-10347603D01*
X4548134Y-10099984D02*
X4567182Y-10099984D01*
X4567182Y-10099984D02*
X4586229Y-10109508D01*
X4586229Y-10109508D02*
X4595753Y-10119031D01*
X4595753Y-10119031D02*
X4605277Y-10138079D01*
X4605277Y-10138079D02*
X4614801Y-10176174D01*
X4614801Y-10176174D02*
X4614801Y-10223793D01*
X4614801Y-10223793D02*
X4605277Y-10261889D01*
X4605277Y-10261889D02*
X4595753Y-10280936D01*
X4595753Y-10280936D02*
X4586229Y-10290460D01*
X4586229Y-10290460D02*
X4567182Y-10299984D01*
X4567182Y-10299984D02*
X4548134Y-10299984D01*
X4548134Y-10299984D02*
X4529087Y-10290460D01*
X4529087Y-10290460D02*
X4519563Y-10280936D01*
X4519563Y-10280936D02*
X4510039Y-10261889D01*
X4510039Y-10261889D02*
X4500515Y-10223793D01*
X4500515Y-10223793D02*
X4500515Y-10176174D01*
X4500515Y-10176174D02*
X4510039Y-10138079D01*
X4510039Y-10138079D02*
X4519563Y-10119031D01*
X4519563Y-10119031D02*
X4529087Y-10109508D01*
X4529087Y-10109508D02*
X4548134Y-10099984D01*
X4700515Y-10280936D02*
X4710039Y-10290460D01*
X4710039Y-10290460D02*
X4700515Y-10299984D01*
X4700515Y-10299984D02*
X4690991Y-10290460D01*
X4690991Y-10290460D02*
X4700515Y-10280936D01*
X4700515Y-10280936D02*
X4700515Y-10299984D01*
X4833848Y-10099984D02*
X4852896Y-10099984D01*
X4852896Y-10099984D02*
X4871944Y-10109508D01*
X4871944Y-10109508D02*
X4881468Y-10119031D01*
X4881468Y-10119031D02*
X4890991Y-10138079D01*
X4890991Y-10138079D02*
X4900515Y-10176174D01*
X4900515Y-10176174D02*
X4900515Y-10223793D01*
X4900515Y-10223793D02*
X4890991Y-10261889D01*
X4890991Y-10261889D02*
X4881468Y-10280936D01*
X4881468Y-10280936D02*
X4871944Y-10290460D01*
X4871944Y-10290460D02*
X4852896Y-10299984D01*
X4852896Y-10299984D02*
X4833848Y-10299984D01*
X4833848Y-10299984D02*
X4814801Y-10290460D01*
X4814801Y-10290460D02*
X4805277Y-10280936D01*
X4805277Y-10280936D02*
X4795753Y-10261889D01*
X4795753Y-10261889D02*
X4786229Y-10223793D01*
X4786229Y-10223793D02*
X4786229Y-10176174D01*
X4786229Y-10176174D02*
X4795753Y-10138079D01*
X4795753Y-10138079D02*
X4805277Y-10119031D01*
X4805277Y-10119031D02*
X4814801Y-10109508D01*
X4814801Y-10109508D02*
X4833848Y-10099984D01*
X4967182Y-10099984D02*
X5090991Y-10099984D01*
X5090991Y-10099984D02*
X5024325Y-10176174D01*
X5024325Y-10176174D02*
X5052896Y-10176174D01*
X5052896Y-10176174D02*
X5071944Y-10185698D01*
X5071944Y-10185698D02*
X5081468Y-10195222D01*
X5081468Y-10195222D02*
X5090991Y-10214270D01*
X5090991Y-10214270D02*
X5090991Y-10261889D01*
X5090991Y-10261889D02*
X5081468Y-10280936D01*
X5081468Y-10280936D02*
X5071944Y-10290460D01*
X5071944Y-10290460D02*
X5052896Y-10299984D01*
X5052896Y-10299984D02*
X4995753Y-10299984D01*
X4995753Y-10299984D02*
X4976706Y-10290460D01*
X4976706Y-10290460D02*
X4967182Y-10280936D01*
X5271944Y-10099984D02*
X5176706Y-10099984D01*
X5176706Y-10099984D02*
X5167182Y-10195222D01*
X5167182Y-10195222D02*
X5176706Y-10185698D01*
X5176706Y-10185698D02*
X5195753Y-10176174D01*
X5195753Y-10176174D02*
X5243372Y-10176174D01*
X5243372Y-10176174D02*
X5262420Y-10185698D01*
X5262420Y-10185698D02*
X5271944Y-10195222D01*
X5271944Y-10195222D02*
X5281468Y-10214270D01*
X5281468Y-10214270D02*
X5281468Y-10261889D01*
X5281468Y-10261889D02*
X5271944Y-10280936D01*
X5271944Y-10280936D02*
X5262420Y-10290460D01*
X5262420Y-10290460D02*
X5243372Y-10299984D01*
X5243372Y-10299984D02*
X5195753Y-10299984D01*
X5195753Y-10299984D02*
X5176706Y-10290460D01*
X5176706Y-10290460D02*
X5167182Y-10280936D01*
X5452896Y-10166650D02*
X5452896Y-10299984D01*
X5405277Y-10090460D02*
X5357658Y-10233317D01*
X5357658Y-10233317D02*
X5481468Y-10233317D01*
X5548134Y-10099984D02*
X5548134Y-10138079D01*
X5624325Y-10099984D02*
X5624325Y-10138079D01*
X5919563Y-10376174D02*
X5910039Y-10366650D01*
X5910039Y-10366650D02*
X5890991Y-10338079D01*
X5890991Y-10338079D02*
X5881468Y-10319031D01*
X5881468Y-10319031D02*
X5871944Y-10290460D01*
X5871944Y-10290460D02*
X5862420Y-10242841D01*
X5862420Y-10242841D02*
X5862420Y-10204746D01*
X5862420Y-10204746D02*
X5871944Y-10157127D01*
X5871944Y-10157127D02*
X5881468Y-10128555D01*
X5881468Y-10128555D02*
X5890991Y-10109508D01*
X5890991Y-10109508D02*
X5910039Y-10080936D01*
X5910039Y-10080936D02*
X5919563Y-10071412D01*
X6081468Y-10166650D02*
X6081468Y-10299984D01*
X6033848Y-10090460D02*
X5986229Y-10233317D01*
X5986229Y-10233317D02*
X6110039Y-10233317D01*
X6338610Y-10299984D02*
X6338610Y-10099984D01*
X6424325Y-10299984D02*
X6424325Y-10195222D01*
X6424325Y-10195222D02*
X6414801Y-10176174D01*
X6414801Y-10176174D02*
X6395753Y-10166650D01*
X6395753Y-10166650D02*
X6367182Y-10166650D01*
X6367182Y-10166650D02*
X6348134Y-10176174D01*
X6348134Y-10176174D02*
X6338610Y-10185698D01*
X6548134Y-10299984D02*
X6529087Y-10290460D01*
X6529087Y-10290460D02*
X6519563Y-10280936D01*
X6519563Y-10280936D02*
X6510039Y-10261889D01*
X6510039Y-10261889D02*
X6510039Y-10204746D01*
X6510039Y-10204746D02*
X6519563Y-10185698D01*
X6519563Y-10185698D02*
X6529087Y-10176174D01*
X6529087Y-10176174D02*
X6548134Y-10166650D01*
X6548134Y-10166650D02*
X6576706Y-10166650D01*
X6576706Y-10166650D02*
X6595753Y-10176174D01*
X6595753Y-10176174D02*
X6605277Y-10185698D01*
X6605277Y-10185698D02*
X6614801Y-10204746D01*
X6614801Y-10204746D02*
X6614801Y-10261889D01*
X6614801Y-10261889D02*
X6605277Y-10280936D01*
X6605277Y-10280936D02*
X6595753Y-10290460D01*
X6595753Y-10290460D02*
X6576706Y-10299984D01*
X6576706Y-10299984D02*
X6548134Y-10299984D01*
X6729087Y-10299984D02*
X6710039Y-10290460D01*
X6710039Y-10290460D02*
X6700515Y-10271412D01*
X6700515Y-10271412D02*
X6700515Y-10099984D01*
X6881468Y-10290460D02*
X6862420Y-10299984D01*
X6862420Y-10299984D02*
X6824325Y-10299984D01*
X6824325Y-10299984D02*
X6805277Y-10290460D01*
X6805277Y-10290460D02*
X6795753Y-10271412D01*
X6795753Y-10271412D02*
X6795753Y-10195222D01*
X6795753Y-10195222D02*
X6805277Y-10176174D01*
X6805277Y-10176174D02*
X6824325Y-10166650D01*
X6824325Y-10166650D02*
X6862420Y-10166650D01*
X6862420Y-10166650D02*
X6881468Y-10176174D01*
X6881468Y-10176174D02*
X6890991Y-10195222D01*
X6890991Y-10195222D02*
X6890991Y-10214270D01*
X6890991Y-10214270D02*
X6795753Y-10233317D01*
X6967182Y-10290460D02*
X6986230Y-10299984D01*
X6986230Y-10299984D02*
X7024325Y-10299984D01*
X7024325Y-10299984D02*
X7043372Y-10290460D01*
X7043372Y-10290460D02*
X7052896Y-10271412D01*
X7052896Y-10271412D02*
X7052896Y-10261889D01*
X7052896Y-10261889D02*
X7043372Y-10242841D01*
X7043372Y-10242841D02*
X7024325Y-10233317D01*
X7024325Y-10233317D02*
X6995753Y-10233317D01*
X6995753Y-10233317D02*
X6976706Y-10223793D01*
X6976706Y-10223793D02*
X6967182Y-10204746D01*
X6967182Y-10204746D02*
X6967182Y-10195222D01*
X6967182Y-10195222D02*
X6976706Y-10176174D01*
X6976706Y-10176174D02*
X6995753Y-10166650D01*
X6995753Y-10166650D02*
X7024325Y-10166650D01*
X7024325Y-10166650D02*
X7043372Y-10176174D01*
X7119563Y-10376174D02*
X7129087Y-10366650D01*
X7129087Y-10366650D02*
X7148134Y-10338079D01*
X7148134Y-10338079D02*
X7157658Y-10319031D01*
X7157658Y-10319031D02*
X7167182Y-10290460D01*
X7167182Y-10290460D02*
X7176706Y-10242841D01*
X7176706Y-10242841D02*
X7176706Y-10204746D01*
X7176706Y-10204746D02*
X7167182Y-10157127D01*
X7167182Y-10157127D02*
X7157658Y-10128555D01*
X7157658Y-10128555D02*
X7148134Y-10109508D01*
X7148134Y-10109508D02*
X7129087Y-10080936D01*
X7129087Y-10080936D02*
X7119563Y-10071412D01*
D10*
X2244500Y-10422500D02*
X2344500Y-10522500D01*
X2344500Y-10422500D02*
X2244500Y-10522500D01*
X2344500Y-10472500D02*
G75*
G02*
X2244500Y-10472500I-50000J0D01*
G01*
X2244500Y-10472500D02*
G75*
G02*
X2344500Y-10472500I50000J0D01*
G01*
D11*
X2710039Y-10563984D02*
X2595753Y-10563984D01*
X2652896Y-10563984D02*
X2652896Y-10363984D01*
X2652896Y-10363984D02*
X2633848Y-10392555D01*
X2633848Y-10392555D02*
X2614801Y-10411603D01*
X2614801Y-10411603D02*
X2595753Y-10421127D01*
X2795753Y-10544936D02*
X2805277Y-10554460D01*
X2805277Y-10554460D02*
X2795753Y-10563984D01*
X2795753Y-10563984D02*
X2786229Y-10554460D01*
X2786229Y-10554460D02*
X2795753Y-10544936D01*
X2795753Y-10544936D02*
X2795753Y-10563984D01*
X2929086Y-10363984D02*
X2948134Y-10363984D01*
X2948134Y-10363984D02*
X2967182Y-10373508D01*
X2967182Y-10373508D02*
X2976705Y-10383031D01*
X2976705Y-10383031D02*
X2986229Y-10402079D01*
X2986229Y-10402079D02*
X2995753Y-10440174D01*
X2995753Y-10440174D02*
X2995753Y-10487793D01*
X2995753Y-10487793D02*
X2986229Y-10525889D01*
X2986229Y-10525889D02*
X2976705Y-10544936D01*
X2976705Y-10544936D02*
X2967182Y-10554460D01*
X2967182Y-10554460D02*
X2948134Y-10563984D01*
X2948134Y-10563984D02*
X2929086Y-10563984D01*
X2929086Y-10563984D02*
X2910039Y-10554460D01*
X2910039Y-10554460D02*
X2900515Y-10544936D01*
X2900515Y-10544936D02*
X2890991Y-10525889D01*
X2890991Y-10525889D02*
X2881467Y-10487793D01*
X2881467Y-10487793D02*
X2881467Y-10440174D01*
X2881467Y-10440174D02*
X2890991Y-10402079D01*
X2890991Y-10402079D02*
X2900515Y-10383031D01*
X2900515Y-10383031D02*
X2910039Y-10373508D01*
X2910039Y-10373508D02*
X2929086Y-10363984D01*
X3119562Y-10363984D02*
X3138610Y-10363984D01*
X3138610Y-10363984D02*
X3157658Y-10373508D01*
X3157658Y-10373508D02*
X3167182Y-10383031D01*
X3167182Y-10383031D02*
X3176705Y-10402079D01*
X3176705Y-10402079D02*
X3186229Y-10440174D01*
X3186229Y-10440174D02*
X3186229Y-10487793D01*
X3186229Y-10487793D02*
X3176705Y-10525889D01*
X3176705Y-10525889D02*
X3167182Y-10544936D01*
X3167182Y-10544936D02*
X3157658Y-10554460D01*
X3157658Y-10554460D02*
X3138610Y-10563984D01*
X3138610Y-10563984D02*
X3119562Y-10563984D01*
X3119562Y-10563984D02*
X3100515Y-10554460D01*
X3100515Y-10554460D02*
X3090991Y-10544936D01*
X3090991Y-10544936D02*
X3081467Y-10525889D01*
X3081467Y-10525889D02*
X3071943Y-10487793D01*
X3071943Y-10487793D02*
X3071943Y-10440174D01*
X3071943Y-10440174D02*
X3081467Y-10402079D01*
X3081467Y-10402079D02*
X3090991Y-10383031D01*
X3090991Y-10383031D02*
X3100515Y-10373508D01*
X3100515Y-10373508D02*
X3119562Y-10363984D01*
X3310039Y-10363984D02*
X3329086Y-10363984D01*
X3329086Y-10363984D02*
X3348134Y-10373508D01*
X3348134Y-10373508D02*
X3357658Y-10383031D01*
X3357658Y-10383031D02*
X3367182Y-10402079D01*
X3367182Y-10402079D02*
X3376705Y-10440174D01*
X3376705Y-10440174D02*
X3376705Y-10487793D01*
X3376705Y-10487793D02*
X3367182Y-10525889D01*
X3367182Y-10525889D02*
X3357658Y-10544936D01*
X3357658Y-10544936D02*
X3348134Y-10554460D01*
X3348134Y-10554460D02*
X3329086Y-10563984D01*
X3329086Y-10563984D02*
X3310039Y-10563984D01*
X3310039Y-10563984D02*
X3290991Y-10554460D01*
X3290991Y-10554460D02*
X3281467Y-10544936D01*
X3281467Y-10544936D02*
X3271943Y-10525889D01*
X3271943Y-10525889D02*
X3262420Y-10487793D01*
X3262420Y-10487793D02*
X3262420Y-10440174D01*
X3262420Y-10440174D02*
X3271943Y-10402079D01*
X3271943Y-10402079D02*
X3281467Y-10383031D01*
X3281467Y-10383031D02*
X3290991Y-10373508D01*
X3290991Y-10373508D02*
X3310039Y-10363984D01*
X3462420Y-10563984D02*
X3462420Y-10430650D01*
X3462420Y-10449698D02*
X3471943Y-10440174D01*
X3471943Y-10440174D02*
X3490991Y-10430650D01*
X3490991Y-10430650D02*
X3519563Y-10430650D01*
X3519563Y-10430650D02*
X3538610Y-10440174D01*
X3538610Y-10440174D02*
X3548134Y-10459222D01*
X3548134Y-10459222D02*
X3548134Y-10563984D01*
X3548134Y-10459222D02*
X3557658Y-10440174D01*
X3557658Y-10440174D02*
X3576705Y-10430650D01*
X3576705Y-10430650D02*
X3605277Y-10430650D01*
X3605277Y-10430650D02*
X3624324Y-10440174D01*
X3624324Y-10440174D02*
X3633848Y-10459222D01*
X3633848Y-10459222D02*
X3633848Y-10563984D01*
X3729086Y-10563984D02*
X3729086Y-10430650D01*
X3729086Y-10449698D02*
X3738610Y-10440174D01*
X3738610Y-10440174D02*
X3757658Y-10430650D01*
X3757658Y-10430650D02*
X3786229Y-10430650D01*
X3786229Y-10430650D02*
X3805277Y-10440174D01*
X3805277Y-10440174D02*
X3814801Y-10459222D01*
X3814801Y-10459222D02*
X3814801Y-10563984D01*
X3814801Y-10459222D02*
X3824324Y-10440174D01*
X3824324Y-10440174D02*
X3843372Y-10430650D01*
X3843372Y-10430650D02*
X3871943Y-10430650D01*
X3871943Y-10430650D02*
X3890991Y-10440174D01*
X3890991Y-10440174D02*
X3900515Y-10459222D01*
X3900515Y-10459222D02*
X3900515Y-10563984D01*
X4290991Y-10354460D02*
X4119563Y-10611603D01*
X4548134Y-10363984D02*
X4567182Y-10363984D01*
X4567182Y-10363984D02*
X4586229Y-10373508D01*
X4586229Y-10373508D02*
X4595753Y-10383031D01*
X4595753Y-10383031D02*
X4605277Y-10402079D01*
X4605277Y-10402079D02*
X4614801Y-10440174D01*
X4614801Y-10440174D02*
X4614801Y-10487793D01*
X4614801Y-10487793D02*
X4605277Y-10525889D01*
X4605277Y-10525889D02*
X4595753Y-10544936D01*
X4595753Y-10544936D02*
X4586229Y-10554460D01*
X4586229Y-10554460D02*
X4567182Y-10563984D01*
X4567182Y-10563984D02*
X4548134Y-10563984D01*
X4548134Y-10563984D02*
X4529087Y-10554460D01*
X4529087Y-10554460D02*
X4519563Y-10544936D01*
X4519563Y-10544936D02*
X4510039Y-10525889D01*
X4510039Y-10525889D02*
X4500515Y-10487793D01*
X4500515Y-10487793D02*
X4500515Y-10440174D01*
X4500515Y-10440174D02*
X4510039Y-10402079D01*
X4510039Y-10402079D02*
X4519563Y-10383031D01*
X4519563Y-10383031D02*
X4529087Y-10373508D01*
X4529087Y-10373508D02*
X4548134Y-10363984D01*
X4700515Y-10544936D02*
X4710039Y-10554460D01*
X4710039Y-10554460D02*
X4700515Y-10563984D01*
X4700515Y-10563984D02*
X4690991Y-10554460D01*
X4690991Y-10554460D02*
X4700515Y-10544936D01*
X4700515Y-10544936D02*
X4700515Y-10563984D01*
X4833848Y-10363984D02*
X4852896Y-10363984D01*
X4852896Y-10363984D02*
X4871944Y-10373508D01*
X4871944Y-10373508D02*
X4881468Y-10383031D01*
X4881468Y-10383031D02*
X4890991Y-10402079D01*
X4890991Y-10402079D02*
X4900515Y-10440174D01*
X4900515Y-10440174D02*
X4900515Y-10487793D01*
X4900515Y-10487793D02*
X4890991Y-10525889D01*
X4890991Y-10525889D02*
X4881468Y-10544936D01*
X4881468Y-10544936D02*
X4871944Y-10554460D01*
X4871944Y-10554460D02*
X4852896Y-10563984D01*
X4852896Y-10563984D02*
X4833848Y-10563984D01*
X4833848Y-10563984D02*
X4814801Y-10554460D01*
X4814801Y-10554460D02*
X4805277Y-10544936D01*
X4805277Y-10544936D02*
X4795753Y-10525889D01*
X4795753Y-10525889D02*
X4786229Y-10487793D01*
X4786229Y-10487793D02*
X4786229Y-10440174D01*
X4786229Y-10440174D02*
X4795753Y-10402079D01*
X4795753Y-10402079D02*
X4805277Y-10383031D01*
X4805277Y-10383031D02*
X4814801Y-10373508D01*
X4814801Y-10373508D02*
X4833848Y-10363984D01*
X4967182Y-10363984D02*
X5090991Y-10363984D01*
X5090991Y-10363984D02*
X5024325Y-10440174D01*
X5024325Y-10440174D02*
X5052896Y-10440174D01*
X5052896Y-10440174D02*
X5071944Y-10449698D01*
X5071944Y-10449698D02*
X5081468Y-10459222D01*
X5081468Y-10459222D02*
X5090991Y-10478270D01*
X5090991Y-10478270D02*
X5090991Y-10525889D01*
X5090991Y-10525889D02*
X5081468Y-10544936D01*
X5081468Y-10544936D02*
X5071944Y-10554460D01*
X5071944Y-10554460D02*
X5052896Y-10563984D01*
X5052896Y-10563984D02*
X4995753Y-10563984D01*
X4995753Y-10563984D02*
X4976706Y-10554460D01*
X4976706Y-10554460D02*
X4967182Y-10544936D01*
X5186229Y-10563984D02*
X5224325Y-10563984D01*
X5224325Y-10563984D02*
X5243372Y-10554460D01*
X5243372Y-10554460D02*
X5252896Y-10544936D01*
X5252896Y-10544936D02*
X5271944Y-10516365D01*
X5271944Y-10516365D02*
X5281468Y-10478270D01*
X5281468Y-10478270D02*
X5281468Y-10402079D01*
X5281468Y-10402079D02*
X5271944Y-10383031D01*
X5271944Y-10383031D02*
X5262420Y-10373508D01*
X5262420Y-10373508D02*
X5243372Y-10363984D01*
X5243372Y-10363984D02*
X5205277Y-10363984D01*
X5205277Y-10363984D02*
X5186229Y-10373508D01*
X5186229Y-10373508D02*
X5176706Y-10383031D01*
X5176706Y-10383031D02*
X5167182Y-10402079D01*
X5167182Y-10402079D02*
X5167182Y-10449698D01*
X5167182Y-10449698D02*
X5176706Y-10468746D01*
X5176706Y-10468746D02*
X5186229Y-10478270D01*
X5186229Y-10478270D02*
X5205277Y-10487793D01*
X5205277Y-10487793D02*
X5243372Y-10487793D01*
X5243372Y-10487793D02*
X5262420Y-10478270D01*
X5262420Y-10478270D02*
X5271944Y-10468746D01*
X5271944Y-10468746D02*
X5281468Y-10449698D01*
X5452896Y-10430650D02*
X5452896Y-10563984D01*
X5405277Y-10354460D02*
X5357658Y-10497317D01*
X5357658Y-10497317D02*
X5481468Y-10497317D01*
X5548134Y-10363984D02*
X5548134Y-10402079D01*
X5624325Y-10363984D02*
X5624325Y-10402079D01*
X5919563Y-10640174D02*
X5910039Y-10630650D01*
X5910039Y-10630650D02*
X5890991Y-10602079D01*
X5890991Y-10602079D02*
X5881468Y-10583031D01*
X5881468Y-10583031D02*
X5871944Y-10554460D01*
X5871944Y-10554460D02*
X5862420Y-10506841D01*
X5862420Y-10506841D02*
X5862420Y-10468746D01*
X5862420Y-10468746D02*
X5871944Y-10421127D01*
X5871944Y-10421127D02*
X5881468Y-10392555D01*
X5881468Y-10392555D02*
X5890991Y-10373508D01*
X5890991Y-10373508D02*
X5910039Y-10344936D01*
X5910039Y-10344936D02*
X5919563Y-10335412D01*
X5976706Y-10363984D02*
X6110039Y-10363984D01*
X6110039Y-10363984D02*
X6024325Y-10563984D01*
X6224325Y-10363984D02*
X6243372Y-10363984D01*
X6243372Y-10363984D02*
X6262420Y-10373508D01*
X6262420Y-10373508D02*
X6271944Y-10383031D01*
X6271944Y-10383031D02*
X6281468Y-10402079D01*
X6281468Y-10402079D02*
X6290991Y-10440174D01*
X6290991Y-10440174D02*
X6290991Y-10487793D01*
X6290991Y-10487793D02*
X6281468Y-10525889D01*
X6281468Y-10525889D02*
X6271944Y-10544936D01*
X6271944Y-10544936D02*
X6262420Y-10554460D01*
X6262420Y-10554460D02*
X6243372Y-10563984D01*
X6243372Y-10563984D02*
X6224325Y-10563984D01*
X6224325Y-10563984D02*
X6205277Y-10554460D01*
X6205277Y-10554460D02*
X6195753Y-10544936D01*
X6195753Y-10544936D02*
X6186229Y-10525889D01*
X6186229Y-10525889D02*
X6176706Y-10487793D01*
X6176706Y-10487793D02*
X6176706Y-10440174D01*
X6176706Y-10440174D02*
X6186229Y-10402079D01*
X6186229Y-10402079D02*
X6195753Y-10383031D01*
X6195753Y-10383031D02*
X6205277Y-10373508D01*
X6205277Y-10373508D02*
X6224325Y-10363984D01*
X6529087Y-10563984D02*
X6529087Y-10363984D01*
X6614801Y-10563984D02*
X6614801Y-10459222D01*
X6614801Y-10459222D02*
X6605277Y-10440174D01*
X6605277Y-10440174D02*
X6586230Y-10430650D01*
X6586230Y-10430650D02*
X6557658Y-10430650D01*
X6557658Y-10430650D02*
X6538610Y-10440174D01*
X6538610Y-10440174D02*
X6529087Y-10449698D01*
X6738610Y-10563984D02*
X6719563Y-10554460D01*
X6719563Y-10554460D02*
X6710039Y-10544936D01*
X6710039Y-10544936D02*
X6700515Y-10525889D01*
X6700515Y-10525889D02*
X6700515Y-10468746D01*
X6700515Y-10468746D02*
X6710039Y-10449698D01*
X6710039Y-10449698D02*
X6719563Y-10440174D01*
X6719563Y-10440174D02*
X6738610Y-10430650D01*
X6738610Y-10430650D02*
X6767182Y-10430650D01*
X6767182Y-10430650D02*
X6786230Y-10440174D01*
X6786230Y-10440174D02*
X6795753Y-10449698D01*
X6795753Y-10449698D02*
X6805277Y-10468746D01*
X6805277Y-10468746D02*
X6805277Y-10525889D01*
X6805277Y-10525889D02*
X6795753Y-10544936D01*
X6795753Y-10544936D02*
X6786230Y-10554460D01*
X6786230Y-10554460D02*
X6767182Y-10563984D01*
X6767182Y-10563984D02*
X6738610Y-10563984D01*
X6919563Y-10563984D02*
X6900515Y-10554460D01*
X6900515Y-10554460D02*
X6890991Y-10535412D01*
X6890991Y-10535412D02*
X6890991Y-10363984D01*
X7071944Y-10554460D02*
X7052896Y-10563984D01*
X7052896Y-10563984D02*
X7014801Y-10563984D01*
X7014801Y-10563984D02*
X6995753Y-10554460D01*
X6995753Y-10554460D02*
X6986230Y-10535412D01*
X6986230Y-10535412D02*
X6986230Y-10459222D01*
X6986230Y-10459222D02*
X6995753Y-10440174D01*
X6995753Y-10440174D02*
X7014801Y-10430650D01*
X7014801Y-10430650D02*
X7052896Y-10430650D01*
X7052896Y-10430650D02*
X7071944Y-10440174D01*
X7071944Y-10440174D02*
X7081468Y-10459222D01*
X7081468Y-10459222D02*
X7081468Y-10478270D01*
X7081468Y-10478270D02*
X6986230Y-10497317D01*
X7157658Y-10554460D02*
X7176706Y-10563984D01*
X7176706Y-10563984D02*
X7214801Y-10563984D01*
X7214801Y-10563984D02*
X7233849Y-10554460D01*
X7233849Y-10554460D02*
X7243372Y-10535412D01*
X7243372Y-10535412D02*
X7243372Y-10525889D01*
X7243372Y-10525889D02*
X7233849Y-10506841D01*
X7233849Y-10506841D02*
X7214801Y-10497317D01*
X7214801Y-10497317D02*
X7186230Y-10497317D01*
X7186230Y-10497317D02*
X7167182Y-10487793D01*
X7167182Y-10487793D02*
X7157658Y-10468746D01*
X7157658Y-10468746D02*
X7157658Y-10459222D01*
X7157658Y-10459222D02*
X7167182Y-10440174D01*
X7167182Y-10440174D02*
X7186230Y-10430650D01*
X7186230Y-10430650D02*
X7214801Y-10430650D01*
X7214801Y-10430650D02*
X7233849Y-10440174D01*
X7310039Y-10640174D02*
X7319563Y-10630650D01*
X7319563Y-10630650D02*
X7338611Y-10602079D01*
X7338611Y-10602079D02*
X7348134Y-10583031D01*
X7348134Y-10583031D02*
X7357658Y-10554460D01*
X7357658Y-10554460D02*
X7367182Y-10506841D01*
X7367182Y-10506841D02*
X7367182Y-10468746D01*
X7367182Y-10468746D02*
X7357658Y-10421127D01*
X7357658Y-10421127D02*
X7348134Y-10392555D01*
X7348134Y-10392555D02*
X7338611Y-10373508D01*
X7338611Y-10373508D02*
X7319563Y-10344936D01*
X7319563Y-10344936D02*
X7310039Y-10335412D01*
D12*
X2234500Y-10681500D02*
X2344500Y-10791500D01*
X2344500Y-10681500D02*
X2234500Y-10791500D01*
X2289500Y-10681500D02*
X2289500Y-10791500D01*
X2234500Y-10736500D02*
X2344500Y-10736500D01*
D11*
X2710039Y-10827984D02*
X2595753Y-10827984D01*
X2652896Y-10827984D02*
X2652896Y-10627984D01*
X2652896Y-10627984D02*
X2633848Y-10656555D01*
X2633848Y-10656555D02*
X2614801Y-10675603D01*
X2614801Y-10675603D02*
X2595753Y-10685127D01*
X2795753Y-10808936D02*
X2805277Y-10818460D01*
X2805277Y-10818460D02*
X2795753Y-10827984D01*
X2795753Y-10827984D02*
X2786229Y-10818460D01*
X2786229Y-10818460D02*
X2795753Y-10808936D01*
X2795753Y-10808936D02*
X2795753Y-10827984D01*
X2995753Y-10827984D02*
X2881467Y-10827984D01*
X2938610Y-10827984D02*
X2938610Y-10627984D01*
X2938610Y-10627984D02*
X2919562Y-10656555D01*
X2919562Y-10656555D02*
X2900515Y-10675603D01*
X2900515Y-10675603D02*
X2881467Y-10685127D01*
X3119562Y-10627984D02*
X3138610Y-10627984D01*
X3138610Y-10627984D02*
X3157658Y-10637508D01*
X3157658Y-10637508D02*
X3167182Y-10647031D01*
X3167182Y-10647031D02*
X3176705Y-10666079D01*
X3176705Y-10666079D02*
X3186229Y-10704174D01*
X3186229Y-10704174D02*
X3186229Y-10751793D01*
X3186229Y-10751793D02*
X3176705Y-10789889D01*
X3176705Y-10789889D02*
X3167182Y-10808936D01*
X3167182Y-10808936D02*
X3157658Y-10818460D01*
X3157658Y-10818460D02*
X3138610Y-10827984D01*
X3138610Y-10827984D02*
X3119562Y-10827984D01*
X3119562Y-10827984D02*
X3100515Y-10818460D01*
X3100515Y-10818460D02*
X3090991Y-10808936D01*
X3090991Y-10808936D02*
X3081467Y-10789889D01*
X3081467Y-10789889D02*
X3071943Y-10751793D01*
X3071943Y-10751793D02*
X3071943Y-10704174D01*
X3071943Y-10704174D02*
X3081467Y-10666079D01*
X3081467Y-10666079D02*
X3090991Y-10647031D01*
X3090991Y-10647031D02*
X3100515Y-10637508D01*
X3100515Y-10637508D02*
X3119562Y-10627984D01*
X3310039Y-10627984D02*
X3329086Y-10627984D01*
X3329086Y-10627984D02*
X3348134Y-10637508D01*
X3348134Y-10637508D02*
X3357658Y-10647031D01*
X3357658Y-10647031D02*
X3367182Y-10666079D01*
X3367182Y-10666079D02*
X3376705Y-10704174D01*
X3376705Y-10704174D02*
X3376705Y-10751793D01*
X3376705Y-10751793D02*
X3367182Y-10789889D01*
X3367182Y-10789889D02*
X3357658Y-10808936D01*
X3357658Y-10808936D02*
X3348134Y-10818460D01*
X3348134Y-10818460D02*
X3329086Y-10827984D01*
X3329086Y-10827984D02*
X3310039Y-10827984D01*
X3310039Y-10827984D02*
X3290991Y-10818460D01*
X3290991Y-10818460D02*
X3281467Y-10808936D01*
X3281467Y-10808936D02*
X3271943Y-10789889D01*
X3271943Y-10789889D02*
X3262420Y-10751793D01*
X3262420Y-10751793D02*
X3262420Y-10704174D01*
X3262420Y-10704174D02*
X3271943Y-10666079D01*
X3271943Y-10666079D02*
X3281467Y-10647031D01*
X3281467Y-10647031D02*
X3290991Y-10637508D01*
X3290991Y-10637508D02*
X3310039Y-10627984D01*
X3462420Y-10827984D02*
X3462420Y-10694650D01*
X3462420Y-10713698D02*
X3471943Y-10704174D01*
X3471943Y-10704174D02*
X3490991Y-10694650D01*
X3490991Y-10694650D02*
X3519563Y-10694650D01*
X3519563Y-10694650D02*
X3538610Y-10704174D01*
X3538610Y-10704174D02*
X3548134Y-10723222D01*
X3548134Y-10723222D02*
X3548134Y-10827984D01*
X3548134Y-10723222D02*
X3557658Y-10704174D01*
X3557658Y-10704174D02*
X3576705Y-10694650D01*
X3576705Y-10694650D02*
X3605277Y-10694650D01*
X3605277Y-10694650D02*
X3624324Y-10704174D01*
X3624324Y-10704174D02*
X3633848Y-10723222D01*
X3633848Y-10723222D02*
X3633848Y-10827984D01*
X3729086Y-10827984D02*
X3729086Y-10694650D01*
X3729086Y-10713698D02*
X3738610Y-10704174D01*
X3738610Y-10704174D02*
X3757658Y-10694650D01*
X3757658Y-10694650D02*
X3786229Y-10694650D01*
X3786229Y-10694650D02*
X3805277Y-10704174D01*
X3805277Y-10704174D02*
X3814801Y-10723222D01*
X3814801Y-10723222D02*
X3814801Y-10827984D01*
X3814801Y-10723222D02*
X3824324Y-10704174D01*
X3824324Y-10704174D02*
X3843372Y-10694650D01*
X3843372Y-10694650D02*
X3871943Y-10694650D01*
X3871943Y-10694650D02*
X3890991Y-10704174D01*
X3890991Y-10704174D02*
X3900515Y-10723222D01*
X3900515Y-10723222D02*
X3900515Y-10827984D01*
X4290991Y-10618460D02*
X4119563Y-10875603D01*
X4548134Y-10627984D02*
X4567182Y-10627984D01*
X4567182Y-10627984D02*
X4586229Y-10637508D01*
X4586229Y-10637508D02*
X4595753Y-10647031D01*
X4595753Y-10647031D02*
X4605277Y-10666079D01*
X4605277Y-10666079D02*
X4614801Y-10704174D01*
X4614801Y-10704174D02*
X4614801Y-10751793D01*
X4614801Y-10751793D02*
X4605277Y-10789889D01*
X4605277Y-10789889D02*
X4595753Y-10808936D01*
X4595753Y-10808936D02*
X4586229Y-10818460D01*
X4586229Y-10818460D02*
X4567182Y-10827984D01*
X4567182Y-10827984D02*
X4548134Y-10827984D01*
X4548134Y-10827984D02*
X4529087Y-10818460D01*
X4529087Y-10818460D02*
X4519563Y-10808936D01*
X4519563Y-10808936D02*
X4510039Y-10789889D01*
X4510039Y-10789889D02*
X4500515Y-10751793D01*
X4500515Y-10751793D02*
X4500515Y-10704174D01*
X4500515Y-10704174D02*
X4510039Y-10666079D01*
X4510039Y-10666079D02*
X4519563Y-10647031D01*
X4519563Y-10647031D02*
X4529087Y-10637508D01*
X4529087Y-10637508D02*
X4548134Y-10627984D01*
X4700515Y-10808936D02*
X4710039Y-10818460D01*
X4710039Y-10818460D02*
X4700515Y-10827984D01*
X4700515Y-10827984D02*
X4690991Y-10818460D01*
X4690991Y-10818460D02*
X4700515Y-10808936D01*
X4700515Y-10808936D02*
X4700515Y-10827984D01*
X4833848Y-10627984D02*
X4852896Y-10627984D01*
X4852896Y-10627984D02*
X4871944Y-10637508D01*
X4871944Y-10637508D02*
X4881468Y-10647031D01*
X4881468Y-10647031D02*
X4890991Y-10666079D01*
X4890991Y-10666079D02*
X4900515Y-10704174D01*
X4900515Y-10704174D02*
X4900515Y-10751793D01*
X4900515Y-10751793D02*
X4890991Y-10789889D01*
X4890991Y-10789889D02*
X4881468Y-10808936D01*
X4881468Y-10808936D02*
X4871944Y-10818460D01*
X4871944Y-10818460D02*
X4852896Y-10827984D01*
X4852896Y-10827984D02*
X4833848Y-10827984D01*
X4833848Y-10827984D02*
X4814801Y-10818460D01*
X4814801Y-10818460D02*
X4805277Y-10808936D01*
X4805277Y-10808936D02*
X4795753Y-10789889D01*
X4795753Y-10789889D02*
X4786229Y-10751793D01*
X4786229Y-10751793D02*
X4786229Y-10704174D01*
X4786229Y-10704174D02*
X4795753Y-10666079D01*
X4795753Y-10666079D02*
X4805277Y-10647031D01*
X4805277Y-10647031D02*
X4814801Y-10637508D01*
X4814801Y-10637508D02*
X4833848Y-10627984D01*
X5071944Y-10694650D02*
X5071944Y-10827984D01*
X5024325Y-10618460D02*
X4976706Y-10761317D01*
X4976706Y-10761317D02*
X5100515Y-10761317D01*
X5157658Y-10627984D02*
X5281468Y-10627984D01*
X5281468Y-10627984D02*
X5214801Y-10704174D01*
X5214801Y-10704174D02*
X5243372Y-10704174D01*
X5243372Y-10704174D02*
X5262420Y-10713698D01*
X5262420Y-10713698D02*
X5271944Y-10723222D01*
X5271944Y-10723222D02*
X5281468Y-10742270D01*
X5281468Y-10742270D02*
X5281468Y-10789889D01*
X5281468Y-10789889D02*
X5271944Y-10808936D01*
X5271944Y-10808936D02*
X5262420Y-10818460D01*
X5262420Y-10818460D02*
X5243372Y-10827984D01*
X5243372Y-10827984D02*
X5186229Y-10827984D01*
X5186229Y-10827984D02*
X5167182Y-10818460D01*
X5167182Y-10818460D02*
X5157658Y-10808936D01*
X5348134Y-10627984D02*
X5471944Y-10627984D01*
X5471944Y-10627984D02*
X5405277Y-10704174D01*
X5405277Y-10704174D02*
X5433849Y-10704174D01*
X5433849Y-10704174D02*
X5452896Y-10713698D01*
X5452896Y-10713698D02*
X5462420Y-10723222D01*
X5462420Y-10723222D02*
X5471944Y-10742270D01*
X5471944Y-10742270D02*
X5471944Y-10789889D01*
X5471944Y-10789889D02*
X5462420Y-10808936D01*
X5462420Y-10808936D02*
X5452896Y-10818460D01*
X5452896Y-10818460D02*
X5433849Y-10827984D01*
X5433849Y-10827984D02*
X5376706Y-10827984D01*
X5376706Y-10827984D02*
X5357658Y-10818460D01*
X5357658Y-10818460D02*
X5348134Y-10808936D01*
X5548134Y-10627984D02*
X5548134Y-10666079D01*
X5624325Y-10627984D02*
X5624325Y-10666079D01*
X5919563Y-10904174D02*
X5910039Y-10894650D01*
X5910039Y-10894650D02*
X5890991Y-10866079D01*
X5890991Y-10866079D02*
X5881468Y-10847031D01*
X5881468Y-10847031D02*
X5871944Y-10818460D01*
X5871944Y-10818460D02*
X5862420Y-10770841D01*
X5862420Y-10770841D02*
X5862420Y-10732746D01*
X5862420Y-10732746D02*
X5871944Y-10685127D01*
X5871944Y-10685127D02*
X5881468Y-10656555D01*
X5881468Y-10656555D02*
X5890991Y-10637508D01*
X5890991Y-10637508D02*
X5910039Y-10608936D01*
X5910039Y-10608936D02*
X5919563Y-10599412D01*
X5986229Y-10647031D02*
X5995753Y-10637508D01*
X5995753Y-10637508D02*
X6014801Y-10627984D01*
X6014801Y-10627984D02*
X6062420Y-10627984D01*
X6062420Y-10627984D02*
X6081468Y-10637508D01*
X6081468Y-10637508D02*
X6090991Y-10647031D01*
X6090991Y-10647031D02*
X6100515Y-10666079D01*
X6100515Y-10666079D02*
X6100515Y-10685127D01*
X6100515Y-10685127D02*
X6090991Y-10713698D01*
X6090991Y-10713698D02*
X5976706Y-10827984D01*
X5976706Y-10827984D02*
X6100515Y-10827984D01*
X6224325Y-10627984D02*
X6243372Y-10627984D01*
X6243372Y-10627984D02*
X6262420Y-10637508D01*
X6262420Y-10637508D02*
X6271944Y-10647031D01*
X6271944Y-10647031D02*
X6281468Y-10666079D01*
X6281468Y-10666079D02*
X6290991Y-10704174D01*
X6290991Y-10704174D02*
X6290991Y-10751793D01*
X6290991Y-10751793D02*
X6281468Y-10789889D01*
X6281468Y-10789889D02*
X6271944Y-10808936D01*
X6271944Y-10808936D02*
X6262420Y-10818460D01*
X6262420Y-10818460D02*
X6243372Y-10827984D01*
X6243372Y-10827984D02*
X6224325Y-10827984D01*
X6224325Y-10827984D02*
X6205277Y-10818460D01*
X6205277Y-10818460D02*
X6195753Y-10808936D01*
X6195753Y-10808936D02*
X6186229Y-10789889D01*
X6186229Y-10789889D02*
X6176706Y-10751793D01*
X6176706Y-10751793D02*
X6176706Y-10704174D01*
X6176706Y-10704174D02*
X6186229Y-10666079D01*
X6186229Y-10666079D02*
X6195753Y-10647031D01*
X6195753Y-10647031D02*
X6205277Y-10637508D01*
X6205277Y-10637508D02*
X6224325Y-10627984D01*
X6529087Y-10827984D02*
X6529087Y-10627984D01*
X6614801Y-10827984D02*
X6614801Y-10723222D01*
X6614801Y-10723222D02*
X6605277Y-10704174D01*
X6605277Y-10704174D02*
X6586230Y-10694650D01*
X6586230Y-10694650D02*
X6557658Y-10694650D01*
X6557658Y-10694650D02*
X6538610Y-10704174D01*
X6538610Y-10704174D02*
X6529087Y-10713698D01*
X6738610Y-10827984D02*
X6719563Y-10818460D01*
X6719563Y-10818460D02*
X6710039Y-10808936D01*
X6710039Y-10808936D02*
X6700515Y-10789889D01*
X6700515Y-10789889D02*
X6700515Y-10732746D01*
X6700515Y-10732746D02*
X6710039Y-10713698D01*
X6710039Y-10713698D02*
X6719563Y-10704174D01*
X6719563Y-10704174D02*
X6738610Y-10694650D01*
X6738610Y-10694650D02*
X6767182Y-10694650D01*
X6767182Y-10694650D02*
X6786230Y-10704174D01*
X6786230Y-10704174D02*
X6795753Y-10713698D01*
X6795753Y-10713698D02*
X6805277Y-10732746D01*
X6805277Y-10732746D02*
X6805277Y-10789889D01*
X6805277Y-10789889D02*
X6795753Y-10808936D01*
X6795753Y-10808936D02*
X6786230Y-10818460D01*
X6786230Y-10818460D02*
X6767182Y-10827984D01*
X6767182Y-10827984D02*
X6738610Y-10827984D01*
X6919563Y-10827984D02*
X6900515Y-10818460D01*
X6900515Y-10818460D02*
X6890991Y-10799412D01*
X6890991Y-10799412D02*
X6890991Y-10627984D01*
X7071944Y-10818460D02*
X7052896Y-10827984D01*
X7052896Y-10827984D02*
X7014801Y-10827984D01*
X7014801Y-10827984D02*
X6995753Y-10818460D01*
X6995753Y-10818460D02*
X6986230Y-10799412D01*
X6986230Y-10799412D02*
X6986230Y-10723222D01*
X6986230Y-10723222D02*
X6995753Y-10704174D01*
X6995753Y-10704174D02*
X7014801Y-10694650D01*
X7014801Y-10694650D02*
X7052896Y-10694650D01*
X7052896Y-10694650D02*
X7071944Y-10704174D01*
X7071944Y-10704174D02*
X7081468Y-10723222D01*
X7081468Y-10723222D02*
X7081468Y-10742270D01*
X7081468Y-10742270D02*
X6986230Y-10761317D01*
X7157658Y-10818460D02*
X7176706Y-10827984D01*
X7176706Y-10827984D02*
X7214801Y-10827984D01*
X7214801Y-10827984D02*
X7233849Y-10818460D01*
X7233849Y-10818460D02*
X7243372Y-10799412D01*
X7243372Y-10799412D02*
X7243372Y-10789889D01*
X7243372Y-10789889D02*
X7233849Y-10770841D01*
X7233849Y-10770841D02*
X7214801Y-10761317D01*
X7214801Y-10761317D02*
X7186230Y-10761317D01*
X7186230Y-10761317D02*
X7167182Y-10751793D01*
X7167182Y-10751793D02*
X7157658Y-10732746D01*
X7157658Y-10732746D02*
X7157658Y-10723222D01*
X7157658Y-10723222D02*
X7167182Y-10704174D01*
X7167182Y-10704174D02*
X7186230Y-10694650D01*
X7186230Y-10694650D02*
X7214801Y-10694650D01*
X7214801Y-10694650D02*
X7233849Y-10704174D01*
X7310039Y-10904174D02*
X7319563Y-10894650D01*
X7319563Y-10894650D02*
X7338611Y-10866079D01*
X7338611Y-10866079D02*
X7348134Y-10847031D01*
X7348134Y-10847031D02*
X7357658Y-10818460D01*
X7357658Y-10818460D02*
X7367182Y-10770841D01*
X7367182Y-10770841D02*
X7367182Y-10732746D01*
X7367182Y-10732746D02*
X7357658Y-10685127D01*
X7357658Y-10685127D02*
X7348134Y-10656555D01*
X7348134Y-10656555D02*
X7338611Y-10637508D01*
X7338611Y-10637508D02*
X7319563Y-10608936D01*
X7319563Y-10608936D02*
X7310039Y-10599412D01*
M02*
