%TF.GenerationSoftware,KiCad,Pcbnew,9.0.7*%
%TF.CreationDate,2026-02-09T23:10:19+01:00*%
%TF.ProjectId,RPi_Hat,5250695f-4861-4742-9e6b-696361645f70,3*%
%TF.SameCoordinates,Original*%
%TF.FileFunction,Legend,Bot*%
%TF.FilePolarity,Positive*%
%FSLAX46Y46*%
G04 Gerber Fmt 4.6, Leading zero omitted, Abs format (unit mm)*
G04 Created by KiCad (PCBNEW 9.0.7) date 2026-02-09 23:10:19*
%MOMM*%
%LPD*%
G01*
G04 APERTURE LIST*
%ADD10C,0.150000*%
%ADD11C,0.250000*%
%ADD12C,0.400000*%
%ADD13C,0.120000*%
G04 APERTURE END LIST*
D10*
X49040173Y-41062771D02*
X48925887Y-41062771D01*
X48925887Y-41062771D02*
X48868744Y-41091342D01*
X48868744Y-41091342D02*
X48811601Y-41148485D01*
X48811601Y-41148485D02*
X48783030Y-41262771D01*
X48783030Y-41262771D02*
X48783030Y-41462771D01*
X48783030Y-41462771D02*
X48811601Y-41577057D01*
X48811601Y-41577057D02*
X48868744Y-41634200D01*
X48868744Y-41634200D02*
X48925887Y-41662771D01*
X48925887Y-41662771D02*
X49040173Y-41662771D01*
X49040173Y-41662771D02*
X49097316Y-41634200D01*
X49097316Y-41634200D02*
X49154458Y-41577057D01*
X49154458Y-41577057D02*
X49183030Y-41462771D01*
X49183030Y-41462771D02*
X49183030Y-41262771D01*
X49183030Y-41262771D02*
X49154458Y-41148485D01*
X49154458Y-41148485D02*
X49097316Y-41091342D01*
X49097316Y-41091342D02*
X49040173Y-41062771D01*
X48240173Y-41662771D02*
X48525887Y-41662771D01*
X48525887Y-41662771D02*
X48525887Y-41062771D01*
X48040173Y-41348485D02*
X47840173Y-41348485D01*
X47754459Y-41662771D02*
X48040173Y-41662771D01*
X48040173Y-41662771D02*
X48040173Y-41062771D01*
X48040173Y-41062771D02*
X47754459Y-41062771D01*
X47497316Y-41662771D02*
X47497316Y-41062771D01*
X47497316Y-41062771D02*
X47354459Y-41062771D01*
X47354459Y-41062771D02*
X47268745Y-41091342D01*
X47268745Y-41091342D02*
X47211602Y-41148485D01*
X47211602Y-41148485D02*
X47183031Y-41205628D01*
X47183031Y-41205628D02*
X47154459Y-41319914D01*
X47154459Y-41319914D02*
X47154459Y-41405628D01*
X47154459Y-41405628D02*
X47183031Y-41519914D01*
X47183031Y-41519914D02*
X47211602Y-41577057D01*
X47211602Y-41577057D02*
X47268745Y-41634200D01*
X47268745Y-41634200D02*
X47354459Y-41662771D01*
X47354459Y-41662771D02*
X47497316Y-41662771D01*
X46440173Y-41662771D02*
X46440173Y-41062771D01*
X46440173Y-41062771D02*
X46211602Y-41062771D01*
X46211602Y-41062771D02*
X46154459Y-41091342D01*
X46154459Y-41091342D02*
X46125888Y-41119914D01*
X46125888Y-41119914D02*
X46097316Y-41177057D01*
X46097316Y-41177057D02*
X46097316Y-41262771D01*
X46097316Y-41262771D02*
X46125888Y-41319914D01*
X46125888Y-41319914D02*
X46154459Y-41348485D01*
X46154459Y-41348485D02*
X46211602Y-41377057D01*
X46211602Y-41377057D02*
X46440173Y-41377057D01*
X45725888Y-41062771D02*
X45611602Y-41062771D01*
X45611602Y-41062771D02*
X45554459Y-41091342D01*
X45554459Y-41091342D02*
X45497316Y-41148485D01*
X45497316Y-41148485D02*
X45468745Y-41262771D01*
X45468745Y-41262771D02*
X45468745Y-41462771D01*
X45468745Y-41462771D02*
X45497316Y-41577057D01*
X45497316Y-41577057D02*
X45554459Y-41634200D01*
X45554459Y-41634200D02*
X45611602Y-41662771D01*
X45611602Y-41662771D02*
X45725888Y-41662771D01*
X45725888Y-41662771D02*
X45783031Y-41634200D01*
X45783031Y-41634200D02*
X45840173Y-41577057D01*
X45840173Y-41577057D02*
X45868745Y-41462771D01*
X45868745Y-41462771D02*
X45868745Y-41262771D01*
X45868745Y-41262771D02*
X45840173Y-41148485D01*
X45840173Y-41148485D02*
X45783031Y-41091342D01*
X45783031Y-41091342D02*
X45725888Y-41062771D01*
X45268745Y-41062771D02*
X45125888Y-41662771D01*
X45125888Y-41662771D02*
X45011602Y-41234200D01*
X45011602Y-41234200D02*
X44897317Y-41662771D01*
X44897317Y-41662771D02*
X44754460Y-41062771D01*
X44525888Y-41348485D02*
X44325888Y-41348485D01*
X44240174Y-41662771D02*
X44525888Y-41662771D01*
X44525888Y-41662771D02*
X44525888Y-41062771D01*
X44525888Y-41062771D02*
X44240174Y-41062771D01*
X43640174Y-41662771D02*
X43840174Y-41377057D01*
X43983031Y-41662771D02*
X43983031Y-41062771D01*
X43983031Y-41062771D02*
X43754460Y-41062771D01*
X43754460Y-41062771D02*
X43697317Y-41091342D01*
X43697317Y-41091342D02*
X43668746Y-41119914D01*
X43668746Y-41119914D02*
X43640174Y-41177057D01*
X43640174Y-41177057D02*
X43640174Y-41262771D01*
X43640174Y-41262771D02*
X43668746Y-41319914D01*
X43668746Y-41319914D02*
X43697317Y-41348485D01*
X43697317Y-41348485D02*
X43754460Y-41377057D01*
X43754460Y-41377057D02*
X43983031Y-41377057D01*
X42925888Y-41662771D02*
X42925888Y-41062771D01*
X42925888Y-41062771D02*
X42697317Y-41062771D01*
X42697317Y-41062771D02*
X42640174Y-41091342D01*
X42640174Y-41091342D02*
X42611603Y-41119914D01*
X42611603Y-41119914D02*
X42583031Y-41177057D01*
X42583031Y-41177057D02*
X42583031Y-41262771D01*
X42583031Y-41262771D02*
X42611603Y-41319914D01*
X42611603Y-41319914D02*
X42640174Y-41348485D01*
X42640174Y-41348485D02*
X42697317Y-41377057D01*
X42697317Y-41377057D02*
X42925888Y-41377057D01*
X42325888Y-41662771D02*
X42325888Y-41062771D01*
X42040174Y-41662771D02*
X42040174Y-41062771D01*
X42040174Y-41062771D02*
X41697317Y-41662771D01*
X41697317Y-41662771D02*
X41697317Y-41062771D01*
X41297318Y-41062771D02*
X41183032Y-41062771D01*
X41183032Y-41062771D02*
X41125889Y-41091342D01*
X41125889Y-41091342D02*
X41068746Y-41148485D01*
X41068746Y-41148485D02*
X41040175Y-41262771D01*
X41040175Y-41262771D02*
X41040175Y-41462771D01*
X41040175Y-41462771D02*
X41068746Y-41577057D01*
X41068746Y-41577057D02*
X41125889Y-41634200D01*
X41125889Y-41634200D02*
X41183032Y-41662771D01*
X41183032Y-41662771D02*
X41297318Y-41662771D01*
X41297318Y-41662771D02*
X41354461Y-41634200D01*
X41354461Y-41634200D02*
X41411603Y-41577057D01*
X41411603Y-41577057D02*
X41440175Y-41462771D01*
X41440175Y-41462771D02*
X41440175Y-41262771D01*
X41440175Y-41262771D02*
X41411603Y-41148485D01*
X41411603Y-41148485D02*
X41354461Y-41091342D01*
X41354461Y-41091342D02*
X41297318Y-41062771D01*
X40783032Y-41062771D02*
X40783032Y-41548485D01*
X40783032Y-41548485D02*
X40754461Y-41605628D01*
X40754461Y-41605628D02*
X40725890Y-41634200D01*
X40725890Y-41634200D02*
X40668747Y-41662771D01*
X40668747Y-41662771D02*
X40554461Y-41662771D01*
X40554461Y-41662771D02*
X40497318Y-41634200D01*
X40497318Y-41634200D02*
X40468747Y-41605628D01*
X40468747Y-41605628D02*
X40440175Y-41548485D01*
X40440175Y-41548485D02*
X40440175Y-41062771D01*
X40240176Y-41062771D02*
X39897319Y-41062771D01*
X40068747Y-41662771D02*
X40068747Y-41062771D01*
D11*
X68297431Y-61497619D02*
X68297431Y-60497619D01*
X68297431Y-60497619D02*
X67964098Y-61211904D01*
X67964098Y-61211904D02*
X67630765Y-60497619D01*
X67630765Y-60497619D02*
X67630765Y-61497619D01*
X66726003Y-61497619D02*
X66726003Y-60973809D01*
X66726003Y-60973809D02*
X66773622Y-60878571D01*
X66773622Y-60878571D02*
X66868860Y-60830952D01*
X66868860Y-60830952D02*
X67059336Y-60830952D01*
X67059336Y-60830952D02*
X67154574Y-60878571D01*
X66726003Y-61450000D02*
X66821241Y-61497619D01*
X66821241Y-61497619D02*
X67059336Y-61497619D01*
X67059336Y-61497619D02*
X67154574Y-61450000D01*
X67154574Y-61450000D02*
X67202193Y-61354761D01*
X67202193Y-61354761D02*
X67202193Y-61259523D01*
X67202193Y-61259523D02*
X67154574Y-61164285D01*
X67154574Y-61164285D02*
X67059336Y-61116666D01*
X67059336Y-61116666D02*
X66821241Y-61116666D01*
X66821241Y-61116666D02*
X66726003Y-61069047D01*
X65821241Y-61450000D02*
X65916479Y-61497619D01*
X65916479Y-61497619D02*
X66106955Y-61497619D01*
X66106955Y-61497619D02*
X66202193Y-61450000D01*
X66202193Y-61450000D02*
X66249812Y-61402380D01*
X66249812Y-61402380D02*
X66297431Y-61307142D01*
X66297431Y-61307142D02*
X66297431Y-61021428D01*
X66297431Y-61021428D02*
X66249812Y-60926190D01*
X66249812Y-60926190D02*
X66202193Y-60878571D01*
X66202193Y-60878571D02*
X66106955Y-60830952D01*
X66106955Y-60830952D02*
X65916479Y-60830952D01*
X65916479Y-60830952D02*
X65821241Y-60878571D01*
X65392669Y-61497619D02*
X65392669Y-60830952D01*
X65392669Y-60497619D02*
X65440288Y-60545238D01*
X65440288Y-60545238D02*
X65392669Y-60592857D01*
X65392669Y-60592857D02*
X65345050Y-60545238D01*
X65345050Y-60545238D02*
X65392669Y-60497619D01*
X65392669Y-60497619D02*
X65392669Y-60592857D01*
X64535527Y-61450000D02*
X64630765Y-61497619D01*
X64630765Y-61497619D02*
X64821241Y-61497619D01*
X64821241Y-61497619D02*
X64916479Y-61450000D01*
X64916479Y-61450000D02*
X64964098Y-61354761D01*
X64964098Y-61354761D02*
X64964098Y-60973809D01*
X64964098Y-60973809D02*
X64916479Y-60878571D01*
X64916479Y-60878571D02*
X64821241Y-60830952D01*
X64821241Y-60830952D02*
X64630765Y-60830952D01*
X64630765Y-60830952D02*
X64535527Y-60878571D01*
X64535527Y-60878571D02*
X64487908Y-60973809D01*
X64487908Y-60973809D02*
X64487908Y-61069047D01*
X64487908Y-61069047D02*
X64964098Y-61164285D01*
X64059336Y-60830952D02*
X64059336Y-61688095D01*
X64059336Y-61688095D02*
X64106955Y-61783333D01*
X64106955Y-61783333D02*
X64202193Y-61830952D01*
X64202193Y-61830952D02*
X64249812Y-61830952D01*
X64059336Y-60497619D02*
X64106955Y-60545238D01*
X64106955Y-60545238D02*
X64059336Y-60592857D01*
X64059336Y-60592857D02*
X64011717Y-60545238D01*
X64011717Y-60545238D02*
X64059336Y-60497619D01*
X64059336Y-60497619D02*
X64059336Y-60592857D01*
X62916479Y-60497619D02*
X62678384Y-61497619D01*
X62678384Y-61497619D02*
X62487908Y-60783333D01*
X62487908Y-60783333D02*
X62297432Y-61497619D01*
X62297432Y-61497619D02*
X62059337Y-60497619D01*
X61678384Y-61497619D02*
X61678384Y-60830952D01*
X61678384Y-60497619D02*
X61726003Y-60545238D01*
X61726003Y-60545238D02*
X61678384Y-60592857D01*
X61678384Y-60592857D02*
X61630765Y-60545238D01*
X61630765Y-60545238D02*
X61678384Y-60497619D01*
X61678384Y-60497619D02*
X61678384Y-60592857D01*
X61345051Y-60830952D02*
X60964099Y-60830952D01*
X61202194Y-60497619D02*
X61202194Y-61354761D01*
X61202194Y-61354761D02*
X61154575Y-61450000D01*
X61154575Y-61450000D02*
X61059337Y-61497619D01*
X61059337Y-61497619D02*
X60964099Y-61497619D01*
X60630765Y-61497619D02*
X60630765Y-60497619D01*
X60535527Y-61116666D02*
X60249813Y-61497619D01*
X60249813Y-60830952D02*
X60630765Y-61211904D01*
X59678384Y-61497619D02*
X59773622Y-61450000D01*
X59773622Y-61450000D02*
X59821241Y-61402380D01*
X59821241Y-61402380D02*
X59868860Y-61307142D01*
X59868860Y-61307142D02*
X59868860Y-61021428D01*
X59868860Y-61021428D02*
X59821241Y-60926190D01*
X59821241Y-60926190D02*
X59773622Y-60878571D01*
X59773622Y-60878571D02*
X59678384Y-60830952D01*
X59678384Y-60830952D02*
X59535527Y-60830952D01*
X59535527Y-60830952D02*
X59440289Y-60878571D01*
X59440289Y-60878571D02*
X59392670Y-60926190D01*
X59392670Y-60926190D02*
X59345051Y-61021428D01*
X59345051Y-61021428D02*
X59345051Y-61307142D01*
X59345051Y-61307142D02*
X59392670Y-61402380D01*
X59392670Y-61402380D02*
X59440289Y-61450000D01*
X59440289Y-61450000D02*
X59535527Y-61497619D01*
X59535527Y-61497619D02*
X59678384Y-61497619D01*
X59011717Y-60830952D02*
X58821241Y-61497619D01*
X58821241Y-61497619D02*
X58630765Y-61021428D01*
X58630765Y-61021428D02*
X58440289Y-61497619D01*
X58440289Y-61497619D02*
X58249813Y-60830952D01*
X57868860Y-61497619D02*
X57868860Y-60830952D01*
X57868860Y-60497619D02*
X57916479Y-60545238D01*
X57916479Y-60545238D02*
X57868860Y-60592857D01*
X57868860Y-60592857D02*
X57821241Y-60545238D01*
X57821241Y-60545238D02*
X57868860Y-60497619D01*
X57868860Y-60497619D02*
X57868860Y-60592857D01*
X56964099Y-61497619D02*
X56964099Y-60973809D01*
X56964099Y-60973809D02*
X57011718Y-60878571D01*
X57011718Y-60878571D02*
X57106956Y-60830952D01*
X57106956Y-60830952D02*
X57297432Y-60830952D01*
X57297432Y-60830952D02*
X57392670Y-60878571D01*
X56964099Y-61450000D02*
X57059337Y-61497619D01*
X57059337Y-61497619D02*
X57297432Y-61497619D01*
X57297432Y-61497619D02*
X57392670Y-61450000D01*
X57392670Y-61450000D02*
X57440289Y-61354761D01*
X57440289Y-61354761D02*
X57440289Y-61259523D01*
X57440289Y-61259523D02*
X57392670Y-61164285D01*
X57392670Y-61164285D02*
X57297432Y-61116666D01*
X57297432Y-61116666D02*
X57059337Y-61116666D01*
X57059337Y-61116666D02*
X56964099Y-61069047D01*
X56487908Y-61497619D02*
X56487908Y-60497619D01*
X56392670Y-61116666D02*
X56106956Y-61497619D01*
X56106956Y-60830952D02*
X56487908Y-61211904D01*
X54154575Y-60830952D02*
X54916479Y-61116666D01*
X54916479Y-61116666D02*
X54154575Y-61402380D01*
X53773622Y-60830952D02*
X53535527Y-61497619D01*
X53297432Y-60830952D02*
X53535527Y-61497619D01*
X53535527Y-61497619D02*
X53630765Y-61735714D01*
X53630765Y-61735714D02*
X53678384Y-61783333D01*
X53678384Y-61783333D02*
X53773622Y-61830952D01*
X53059336Y-60830952D02*
X52678384Y-60830952D01*
X52916479Y-60497619D02*
X52916479Y-61354761D01*
X52916479Y-61354761D02*
X52868860Y-61450000D01*
X52868860Y-61450000D02*
X52773622Y-61497619D01*
X52773622Y-61497619D02*
X52678384Y-61497619D01*
X52345050Y-61497619D02*
X52345050Y-60830952D01*
X52345050Y-60926190D02*
X52297431Y-60878571D01*
X52297431Y-60878571D02*
X52202193Y-60830952D01*
X52202193Y-60830952D02*
X52059336Y-60830952D01*
X52059336Y-60830952D02*
X51964098Y-60878571D01*
X51964098Y-60878571D02*
X51916479Y-60973809D01*
X51916479Y-60973809D02*
X51916479Y-61497619D01*
X51916479Y-60973809D02*
X51868860Y-60878571D01*
X51868860Y-60878571D02*
X51773622Y-60830952D01*
X51773622Y-60830952D02*
X51630765Y-60830952D01*
X51630765Y-60830952D02*
X51535526Y-60878571D01*
X51535526Y-60878571D02*
X51487907Y-60973809D01*
X51487907Y-60973809D02*
X51487907Y-61497619D01*
X50392670Y-61021428D02*
X50440289Y-60973809D01*
X50440289Y-60973809D02*
X50535527Y-60926190D01*
X50535527Y-60926190D02*
X50630765Y-60926190D01*
X50630765Y-60926190D02*
X50726003Y-60973809D01*
X50726003Y-60973809D02*
X50773622Y-61021428D01*
X50773622Y-61021428D02*
X50821241Y-61116666D01*
X50821241Y-61116666D02*
X50821241Y-61211904D01*
X50821241Y-61211904D02*
X50773622Y-61307142D01*
X50773622Y-61307142D02*
X50726003Y-61354761D01*
X50726003Y-61354761D02*
X50630765Y-61402380D01*
X50630765Y-61402380D02*
X50535527Y-61402380D01*
X50535527Y-61402380D02*
X50440289Y-61354761D01*
X50440289Y-61354761D02*
X50392670Y-61307142D01*
X50392670Y-60926190D02*
X50392670Y-61307142D01*
X50392670Y-61307142D02*
X50345051Y-61354761D01*
X50345051Y-61354761D02*
X50297432Y-61354761D01*
X50297432Y-61354761D02*
X50202193Y-61307142D01*
X50202193Y-61307142D02*
X50154574Y-61211904D01*
X50154574Y-61211904D02*
X50154574Y-60973809D01*
X50154574Y-60973809D02*
X50249813Y-60830952D01*
X50249813Y-60830952D02*
X50392670Y-60735714D01*
X50392670Y-60735714D02*
X50583146Y-60688095D01*
X50583146Y-60688095D02*
X50773622Y-60735714D01*
X50773622Y-60735714D02*
X50916479Y-60830952D01*
X50916479Y-60830952D02*
X51011717Y-60973809D01*
X51011717Y-60973809D02*
X51059336Y-61164285D01*
X51059336Y-61164285D02*
X51011717Y-61354761D01*
X51011717Y-61354761D02*
X50916479Y-61497619D01*
X50916479Y-61497619D02*
X50773622Y-61592857D01*
X50773622Y-61592857D02*
X50583146Y-61640476D01*
X50583146Y-61640476D02*
X50392670Y-61592857D01*
X50392670Y-61592857D02*
X50249813Y-61497619D01*
X49345051Y-61450000D02*
X49440289Y-61497619D01*
X49440289Y-61497619D02*
X49630765Y-61497619D01*
X49630765Y-61497619D02*
X49726003Y-61450000D01*
X49726003Y-61450000D02*
X49773622Y-61354761D01*
X49773622Y-61354761D02*
X49773622Y-60973809D01*
X49773622Y-60973809D02*
X49726003Y-60878571D01*
X49726003Y-60878571D02*
X49630765Y-60830952D01*
X49630765Y-60830952D02*
X49440289Y-60830952D01*
X49440289Y-60830952D02*
X49345051Y-60878571D01*
X49345051Y-60878571D02*
X49297432Y-60973809D01*
X49297432Y-60973809D02*
X49297432Y-61069047D01*
X49297432Y-61069047D02*
X49773622Y-61164285D01*
X48726003Y-61497619D02*
X48821241Y-61450000D01*
X48821241Y-61450000D02*
X48868860Y-61354761D01*
X48868860Y-61354761D02*
X48868860Y-60497619D01*
X48440288Y-60830952D02*
X48202193Y-61497619D01*
X47964098Y-60830952D02*
X48202193Y-61497619D01*
X48202193Y-61497619D02*
X48297431Y-61735714D01*
X48297431Y-61735714D02*
X48345050Y-61783333D01*
X48345050Y-61783333D02*
X48440288Y-61830952D01*
X47630764Y-61450000D02*
X47535526Y-61497619D01*
X47535526Y-61497619D02*
X47345050Y-61497619D01*
X47345050Y-61497619D02*
X47249812Y-61450000D01*
X47249812Y-61450000D02*
X47202193Y-61354761D01*
X47202193Y-61354761D02*
X47202193Y-61307142D01*
X47202193Y-61307142D02*
X47249812Y-61211904D01*
X47249812Y-61211904D02*
X47345050Y-61164285D01*
X47345050Y-61164285D02*
X47487907Y-61164285D01*
X47487907Y-61164285D02*
X47583145Y-61116666D01*
X47583145Y-61116666D02*
X47630764Y-61021428D01*
X47630764Y-61021428D02*
X47630764Y-60973809D01*
X47630764Y-60973809D02*
X47583145Y-60878571D01*
X47583145Y-60878571D02*
X47487907Y-60830952D01*
X47487907Y-60830952D02*
X47345050Y-60830952D01*
X47345050Y-60830952D02*
X47249812Y-60878571D01*
X46773621Y-61497619D02*
X46773621Y-60830952D01*
X46773621Y-60497619D02*
X46821240Y-60545238D01*
X46821240Y-60545238D02*
X46773621Y-60592857D01*
X46773621Y-60592857D02*
X46726002Y-60545238D01*
X46726002Y-60545238D02*
X46773621Y-60497619D01*
X46773621Y-60497619D02*
X46773621Y-60592857D01*
X45868860Y-60830952D02*
X45868860Y-61497619D01*
X46297431Y-60830952D02*
X46297431Y-61354761D01*
X46297431Y-61354761D02*
X46249812Y-61450000D01*
X46249812Y-61450000D02*
X46154574Y-61497619D01*
X46154574Y-61497619D02*
X46011717Y-61497619D01*
X46011717Y-61497619D02*
X45916479Y-61450000D01*
X45916479Y-61450000D02*
X45868860Y-61402380D01*
X45392669Y-61497619D02*
X45392669Y-60830952D01*
X45392669Y-60926190D02*
X45345050Y-60878571D01*
X45345050Y-60878571D02*
X45249812Y-60830952D01*
X45249812Y-60830952D02*
X45106955Y-60830952D01*
X45106955Y-60830952D02*
X45011717Y-60878571D01*
X45011717Y-60878571D02*
X44964098Y-60973809D01*
X44964098Y-60973809D02*
X44964098Y-61497619D01*
X44964098Y-60973809D02*
X44916479Y-60878571D01*
X44916479Y-60878571D02*
X44821241Y-60830952D01*
X44821241Y-60830952D02*
X44678384Y-60830952D01*
X44678384Y-60830952D02*
X44583145Y-60878571D01*
X44583145Y-60878571D02*
X44535526Y-60973809D01*
X44535526Y-60973809D02*
X44535526Y-61497619D01*
X44059336Y-61402380D02*
X44011717Y-61450000D01*
X44011717Y-61450000D02*
X44059336Y-61497619D01*
X44059336Y-61497619D02*
X44106955Y-61450000D01*
X44106955Y-61450000D02*
X44059336Y-61402380D01*
X44059336Y-61402380D02*
X44059336Y-61497619D01*
X43583146Y-60830952D02*
X43583146Y-61830952D01*
X43583146Y-60878571D02*
X43487908Y-60830952D01*
X43487908Y-60830952D02*
X43297432Y-60830952D01*
X43297432Y-60830952D02*
X43202194Y-60878571D01*
X43202194Y-60878571D02*
X43154575Y-60926190D01*
X43154575Y-60926190D02*
X43106956Y-61021428D01*
X43106956Y-61021428D02*
X43106956Y-61307142D01*
X43106956Y-61307142D02*
X43154575Y-61402380D01*
X43154575Y-61402380D02*
X43202194Y-61450000D01*
X43202194Y-61450000D02*
X43297432Y-61497619D01*
X43297432Y-61497619D02*
X43487908Y-61497619D01*
X43487908Y-61497619D02*
X43583146Y-61450000D01*
X42535527Y-61497619D02*
X42630765Y-61450000D01*
X42630765Y-61450000D02*
X42678384Y-61354761D01*
X42678384Y-61354761D02*
X42678384Y-60497619D01*
X42154574Y-60830952D02*
X41392670Y-61116666D01*
X41392670Y-61116666D02*
X42154574Y-61402380D01*
X40868860Y-61450000D02*
X40868860Y-61497619D01*
X40868860Y-61497619D02*
X40916479Y-61592857D01*
X40916479Y-61592857D02*
X40964098Y-61640476D01*
X39678384Y-61497619D02*
X39678384Y-60497619D01*
X39202194Y-61497619D02*
X39202194Y-60497619D01*
X38011718Y-60592857D02*
X37964099Y-60545238D01*
X37964099Y-60545238D02*
X37868861Y-60497619D01*
X37868861Y-60497619D02*
X37630766Y-60497619D01*
X37630766Y-60497619D02*
X37535528Y-60545238D01*
X37535528Y-60545238D02*
X37487909Y-60592857D01*
X37487909Y-60592857D02*
X37440290Y-60688095D01*
X37440290Y-60688095D02*
X37440290Y-60783333D01*
X37440290Y-60783333D02*
X37487909Y-60926190D01*
X37487909Y-60926190D02*
X38059337Y-61497619D01*
X38059337Y-61497619D02*
X37440290Y-61497619D01*
X36821242Y-60497619D02*
X36726004Y-60497619D01*
X36726004Y-60497619D02*
X36630766Y-60545238D01*
X36630766Y-60545238D02*
X36583147Y-60592857D01*
X36583147Y-60592857D02*
X36535528Y-60688095D01*
X36535528Y-60688095D02*
X36487909Y-60878571D01*
X36487909Y-60878571D02*
X36487909Y-61116666D01*
X36487909Y-61116666D02*
X36535528Y-61307142D01*
X36535528Y-61307142D02*
X36583147Y-61402380D01*
X36583147Y-61402380D02*
X36630766Y-61450000D01*
X36630766Y-61450000D02*
X36726004Y-61497619D01*
X36726004Y-61497619D02*
X36821242Y-61497619D01*
X36821242Y-61497619D02*
X36916480Y-61450000D01*
X36916480Y-61450000D02*
X36964099Y-61402380D01*
X36964099Y-61402380D02*
X37011718Y-61307142D01*
X37011718Y-61307142D02*
X37059337Y-61116666D01*
X37059337Y-61116666D02*
X37059337Y-60878571D01*
X37059337Y-60878571D02*
X37011718Y-60688095D01*
X37011718Y-60688095D02*
X36964099Y-60592857D01*
X36964099Y-60592857D02*
X36916480Y-60545238D01*
X36916480Y-60545238D02*
X36821242Y-60497619D01*
X36106956Y-60592857D02*
X36059337Y-60545238D01*
X36059337Y-60545238D02*
X35964099Y-60497619D01*
X35964099Y-60497619D02*
X35726004Y-60497619D01*
X35726004Y-60497619D02*
X35630766Y-60545238D01*
X35630766Y-60545238D02*
X35583147Y-60592857D01*
X35583147Y-60592857D02*
X35535528Y-60688095D01*
X35535528Y-60688095D02*
X35535528Y-60783333D01*
X35535528Y-60783333D02*
X35583147Y-60926190D01*
X35583147Y-60926190D02*
X36154575Y-61497619D01*
X36154575Y-61497619D02*
X35535528Y-61497619D01*
X34678385Y-60497619D02*
X34868861Y-60497619D01*
X34868861Y-60497619D02*
X34964099Y-60545238D01*
X34964099Y-60545238D02*
X35011718Y-60592857D01*
X35011718Y-60592857D02*
X35106956Y-60735714D01*
X35106956Y-60735714D02*
X35154575Y-60926190D01*
X35154575Y-60926190D02*
X35154575Y-61307142D01*
X35154575Y-61307142D02*
X35106956Y-61402380D01*
X35106956Y-61402380D02*
X35059337Y-61450000D01*
X35059337Y-61450000D02*
X34964099Y-61497619D01*
X34964099Y-61497619D02*
X34773623Y-61497619D01*
X34773623Y-61497619D02*
X34678385Y-61450000D01*
X34678385Y-61450000D02*
X34630766Y-61402380D01*
X34630766Y-61402380D02*
X34583147Y-61307142D01*
X34583147Y-61307142D02*
X34583147Y-61069047D01*
X34583147Y-61069047D02*
X34630766Y-60973809D01*
X34630766Y-60973809D02*
X34678385Y-60926190D01*
X34678385Y-60926190D02*
X34773623Y-60878571D01*
X34773623Y-60878571D02*
X34964099Y-60878571D01*
X34964099Y-60878571D02*
X35059337Y-60926190D01*
X35059337Y-60926190D02*
X35106956Y-60973809D01*
X35106956Y-60973809D02*
X35154575Y-61069047D01*
D10*
X51156173Y-42107342D02*
X51213316Y-42078771D01*
X51213316Y-42078771D02*
X51299030Y-42078771D01*
X51299030Y-42078771D02*
X51384744Y-42107342D01*
X51384744Y-42107342D02*
X51441887Y-42164485D01*
X51441887Y-42164485D02*
X51470458Y-42221628D01*
X51470458Y-42221628D02*
X51499030Y-42335914D01*
X51499030Y-42335914D02*
X51499030Y-42421628D01*
X51499030Y-42421628D02*
X51470458Y-42535914D01*
X51470458Y-42535914D02*
X51441887Y-42593057D01*
X51441887Y-42593057D02*
X51384744Y-42650200D01*
X51384744Y-42650200D02*
X51299030Y-42678771D01*
X51299030Y-42678771D02*
X51241887Y-42678771D01*
X51241887Y-42678771D02*
X51156173Y-42650200D01*
X51156173Y-42650200D02*
X51127601Y-42621628D01*
X51127601Y-42621628D02*
X51127601Y-42421628D01*
X51127601Y-42421628D02*
X51241887Y-42421628D01*
X50870458Y-42678771D02*
X50870458Y-42078771D01*
X50870458Y-42078771D02*
X50527601Y-42678771D01*
X50527601Y-42678771D02*
X50527601Y-42078771D01*
X50241887Y-42678771D02*
X50241887Y-42078771D01*
X50241887Y-42078771D02*
X50099030Y-42078771D01*
X50099030Y-42078771D02*
X50013316Y-42107342D01*
X50013316Y-42107342D02*
X49956173Y-42164485D01*
X49956173Y-42164485D02*
X49927602Y-42221628D01*
X49927602Y-42221628D02*
X49899030Y-42335914D01*
X49899030Y-42335914D02*
X49899030Y-42421628D01*
X49899030Y-42421628D02*
X49927602Y-42535914D01*
X49927602Y-42535914D02*
X49956173Y-42593057D01*
X49956173Y-42593057D02*
X50013316Y-42650200D01*
X50013316Y-42650200D02*
X50099030Y-42678771D01*
X50099030Y-42678771D02*
X50241887Y-42678771D01*
X49499030Y-42878771D02*
X49499030Y-42021628D01*
X49070458Y-42678771D02*
X49070458Y-42078771D01*
X49070458Y-42078771D02*
X48841887Y-42078771D01*
X48841887Y-42078771D02*
X48784744Y-42107342D01*
X48784744Y-42107342D02*
X48756173Y-42135914D01*
X48756173Y-42135914D02*
X48727601Y-42193057D01*
X48727601Y-42193057D02*
X48727601Y-42278771D01*
X48727601Y-42278771D02*
X48756173Y-42335914D01*
X48756173Y-42335914D02*
X48784744Y-42364485D01*
X48784744Y-42364485D02*
X48841887Y-42393057D01*
X48841887Y-42393057D02*
X49070458Y-42393057D01*
X48470458Y-42678771D02*
X48470458Y-42078771D01*
X48184744Y-42678771D02*
X48184744Y-42078771D01*
X48184744Y-42078771D02*
X47841887Y-42678771D01*
X47841887Y-42678771D02*
X47841887Y-42078771D01*
X47584745Y-42135914D02*
X47556173Y-42107342D01*
X47556173Y-42107342D02*
X47499031Y-42078771D01*
X47499031Y-42078771D02*
X47356173Y-42078771D01*
X47356173Y-42078771D02*
X47299031Y-42107342D01*
X47299031Y-42107342D02*
X47270459Y-42135914D01*
X47270459Y-42135914D02*
X47241888Y-42193057D01*
X47241888Y-42193057D02*
X47241888Y-42250200D01*
X47241888Y-42250200D02*
X47270459Y-42335914D01*
X47270459Y-42335914D02*
X47613316Y-42678771D01*
X47613316Y-42678771D02*
X47241888Y-42678771D01*
X46841887Y-42878771D02*
X46841887Y-42021628D01*
X46499030Y-42078771D02*
X46299030Y-42678771D01*
X46299030Y-42678771D02*
X46099030Y-42078771D01*
X45556172Y-42621628D02*
X45584744Y-42650200D01*
X45584744Y-42650200D02*
X45670458Y-42678771D01*
X45670458Y-42678771D02*
X45727601Y-42678771D01*
X45727601Y-42678771D02*
X45813315Y-42650200D01*
X45813315Y-42650200D02*
X45870458Y-42593057D01*
X45870458Y-42593057D02*
X45899029Y-42535914D01*
X45899029Y-42535914D02*
X45927601Y-42421628D01*
X45927601Y-42421628D02*
X45927601Y-42335914D01*
X45927601Y-42335914D02*
X45899029Y-42221628D01*
X45899029Y-42221628D02*
X45870458Y-42164485D01*
X45870458Y-42164485D02*
X45813315Y-42107342D01*
X45813315Y-42107342D02*
X45727601Y-42078771D01*
X45727601Y-42078771D02*
X45670458Y-42078771D01*
X45670458Y-42078771D02*
X45584744Y-42107342D01*
X45584744Y-42107342D02*
X45556172Y-42135914D01*
X44956172Y-42621628D02*
X44984744Y-42650200D01*
X44984744Y-42650200D02*
X45070458Y-42678771D01*
X45070458Y-42678771D02*
X45127601Y-42678771D01*
X45127601Y-42678771D02*
X45213315Y-42650200D01*
X45213315Y-42650200D02*
X45270458Y-42593057D01*
X45270458Y-42593057D02*
X45299029Y-42535914D01*
X45299029Y-42535914D02*
X45327601Y-42421628D01*
X45327601Y-42421628D02*
X45327601Y-42335914D01*
X45327601Y-42335914D02*
X45299029Y-42221628D01*
X45299029Y-42221628D02*
X45270458Y-42164485D01*
X45270458Y-42164485D02*
X45213315Y-42107342D01*
X45213315Y-42107342D02*
X45127601Y-42078771D01*
X45127601Y-42078771D02*
X45070458Y-42078771D01*
X45070458Y-42078771D02*
X44984744Y-42107342D01*
X44984744Y-42107342D02*
X44956172Y-42135914D01*
D12*
X54847857Y-55257676D02*
X54347857Y-51257676D01*
X54347857Y-51257676D02*
X52824048Y-51257676D01*
X52824048Y-51257676D02*
X52466905Y-51448152D01*
X52466905Y-51448152D02*
X52300238Y-51638628D01*
X52300238Y-51638628D02*
X52157381Y-52019580D01*
X52157381Y-52019580D02*
X52228809Y-52591009D01*
X52228809Y-52591009D02*
X52466905Y-52971961D01*
X52466905Y-52971961D02*
X52681190Y-53162438D01*
X52681190Y-53162438D02*
X53085952Y-53352914D01*
X53085952Y-53352914D02*
X54609762Y-53352914D01*
X50847857Y-55257676D02*
X50514524Y-52591009D01*
X50347857Y-51257676D02*
X50562143Y-51448152D01*
X50562143Y-51448152D02*
X50395476Y-51638628D01*
X50395476Y-51638628D02*
X50181190Y-51448152D01*
X50181190Y-51448152D02*
X50347857Y-51257676D01*
X50347857Y-51257676D02*
X50395476Y-51638628D01*
X46847857Y-55257676D02*
X49133571Y-55257676D01*
X47990714Y-55257676D02*
X47490714Y-51257676D01*
X47490714Y-51257676D02*
X47943095Y-51829104D01*
X47943095Y-51829104D02*
X48371667Y-52210057D01*
X48371667Y-52210057D02*
X48776428Y-52400533D01*
X42728809Y-51257676D02*
X44633571Y-51257676D01*
X44633571Y-51257676D02*
X45062143Y-53162438D01*
X45062143Y-53162438D02*
X44847857Y-52971961D01*
X44847857Y-52971961D02*
X44443095Y-52781485D01*
X44443095Y-52781485D02*
X43490714Y-52781485D01*
X43490714Y-52781485D02*
X43133571Y-52971961D01*
X43133571Y-52971961D02*
X42966904Y-53162438D01*
X42966904Y-53162438D02*
X42824047Y-53543390D01*
X42824047Y-53543390D02*
X42943095Y-54495771D01*
X42943095Y-54495771D02*
X43181190Y-54876723D01*
X43181190Y-54876723D02*
X43395476Y-55067200D01*
X43395476Y-55067200D02*
X43800238Y-55257676D01*
X43800238Y-55257676D02*
X44752619Y-55257676D01*
X44752619Y-55257676D02*
X45109762Y-55067200D01*
X45109762Y-55067200D02*
X45276428Y-54876723D01*
X38919285Y-51257676D02*
X40824047Y-51257676D01*
X40824047Y-51257676D02*
X41252619Y-53162438D01*
X41252619Y-53162438D02*
X41038333Y-52971961D01*
X41038333Y-52971961D02*
X40633571Y-52781485D01*
X40633571Y-52781485D02*
X39681190Y-52781485D01*
X39681190Y-52781485D02*
X39324047Y-52971961D01*
X39324047Y-52971961D02*
X39157380Y-53162438D01*
X39157380Y-53162438D02*
X39014523Y-53543390D01*
X39014523Y-53543390D02*
X39133571Y-54495771D01*
X39133571Y-54495771D02*
X39371666Y-54876723D01*
X39371666Y-54876723D02*
X39585952Y-55067200D01*
X39585952Y-55067200D02*
X39990714Y-55257676D01*
X39990714Y-55257676D02*
X40943095Y-55257676D01*
X40943095Y-55257676D02*
X41300238Y-55067200D01*
X41300238Y-55067200D02*
X41466904Y-54876723D01*
X35419285Y-55257676D02*
X37704999Y-55257676D01*
X36562142Y-55257676D02*
X36062142Y-51257676D01*
X36062142Y-51257676D02*
X36514523Y-51829104D01*
X36514523Y-51829104D02*
X36943095Y-52210057D01*
X36943095Y-52210057D02*
X37347856Y-52400533D01*
D10*
X49564030Y-38078200D02*
X49478316Y-38106771D01*
X49478316Y-38106771D02*
X49335458Y-38106771D01*
X49335458Y-38106771D02*
X49278316Y-38078200D01*
X49278316Y-38078200D02*
X49249744Y-38049628D01*
X49249744Y-38049628D02*
X49221173Y-37992485D01*
X49221173Y-37992485D02*
X49221173Y-37935342D01*
X49221173Y-37935342D02*
X49249744Y-37878200D01*
X49249744Y-37878200D02*
X49278316Y-37849628D01*
X49278316Y-37849628D02*
X49335458Y-37821057D01*
X49335458Y-37821057D02*
X49449744Y-37792485D01*
X49449744Y-37792485D02*
X49506887Y-37763914D01*
X49506887Y-37763914D02*
X49535458Y-37735342D01*
X49535458Y-37735342D02*
X49564030Y-37678200D01*
X49564030Y-37678200D02*
X49564030Y-37621057D01*
X49564030Y-37621057D02*
X49535458Y-37563914D01*
X49535458Y-37563914D02*
X49506887Y-37535342D01*
X49506887Y-37535342D02*
X49449744Y-37506771D01*
X49449744Y-37506771D02*
X49306887Y-37506771D01*
X49306887Y-37506771D02*
X49221173Y-37535342D01*
X48964029Y-38106771D02*
X48964029Y-37506771D01*
X48964029Y-37506771D02*
X48821172Y-37506771D01*
X48821172Y-37506771D02*
X48735458Y-37535342D01*
X48735458Y-37535342D02*
X48678315Y-37592485D01*
X48678315Y-37592485D02*
X48649744Y-37649628D01*
X48649744Y-37649628D02*
X48621172Y-37763914D01*
X48621172Y-37763914D02*
X48621172Y-37849628D01*
X48621172Y-37849628D02*
X48649744Y-37963914D01*
X48649744Y-37963914D02*
X48678315Y-38021057D01*
X48678315Y-38021057D02*
X48735458Y-38078200D01*
X48735458Y-38078200D02*
X48821172Y-38106771D01*
X48821172Y-38106771D02*
X48964029Y-38106771D01*
X48392601Y-37935342D02*
X48106887Y-37935342D01*
X48449744Y-38106771D02*
X48249744Y-37506771D01*
X48249744Y-37506771D02*
X48049744Y-38106771D01*
X47706886Y-38306771D02*
X47706886Y-37449628D01*
X47306886Y-38078200D02*
X47221172Y-38106771D01*
X47221172Y-38106771D02*
X47078314Y-38106771D01*
X47078314Y-38106771D02*
X47021172Y-38078200D01*
X47021172Y-38078200D02*
X46992600Y-38049628D01*
X46992600Y-38049628D02*
X46964029Y-37992485D01*
X46964029Y-37992485D02*
X46964029Y-37935342D01*
X46964029Y-37935342D02*
X46992600Y-37878200D01*
X46992600Y-37878200D02*
X47021172Y-37849628D01*
X47021172Y-37849628D02*
X47078314Y-37821057D01*
X47078314Y-37821057D02*
X47192600Y-37792485D01*
X47192600Y-37792485D02*
X47249743Y-37763914D01*
X47249743Y-37763914D02*
X47278314Y-37735342D01*
X47278314Y-37735342D02*
X47306886Y-37678200D01*
X47306886Y-37678200D02*
X47306886Y-37621057D01*
X47306886Y-37621057D02*
X47278314Y-37563914D01*
X47278314Y-37563914D02*
X47249743Y-37535342D01*
X47249743Y-37535342D02*
X47192600Y-37506771D01*
X47192600Y-37506771D02*
X47049743Y-37506771D01*
X47049743Y-37506771D02*
X46964029Y-37535342D01*
X46364028Y-38049628D02*
X46392600Y-38078200D01*
X46392600Y-38078200D02*
X46478314Y-38106771D01*
X46478314Y-38106771D02*
X46535457Y-38106771D01*
X46535457Y-38106771D02*
X46621171Y-38078200D01*
X46621171Y-38078200D02*
X46678314Y-38021057D01*
X46678314Y-38021057D02*
X46706885Y-37963914D01*
X46706885Y-37963914D02*
X46735457Y-37849628D01*
X46735457Y-37849628D02*
X46735457Y-37763914D01*
X46735457Y-37763914D02*
X46706885Y-37649628D01*
X46706885Y-37649628D02*
X46678314Y-37592485D01*
X46678314Y-37592485D02*
X46621171Y-37535342D01*
X46621171Y-37535342D02*
X46535457Y-37506771D01*
X46535457Y-37506771D02*
X46478314Y-37506771D01*
X46478314Y-37506771D02*
X46392600Y-37535342D01*
X46392600Y-37535342D02*
X46364028Y-37563914D01*
X45821171Y-38106771D02*
X46106885Y-38106771D01*
X46106885Y-38106771D02*
X46106885Y-37506771D01*
X45478314Y-38306771D02*
X45478314Y-37449628D01*
X44878314Y-38335342D02*
X44906885Y-38306771D01*
X44906885Y-38306771D02*
X44964028Y-38221057D01*
X44964028Y-38221057D02*
X44992600Y-38163914D01*
X44992600Y-38163914D02*
X45021171Y-38078200D01*
X45021171Y-38078200D02*
X45049742Y-37935342D01*
X45049742Y-37935342D02*
X45049742Y-37821057D01*
X45049742Y-37821057D02*
X45021171Y-37678200D01*
X45021171Y-37678200D02*
X44992600Y-37592485D01*
X44992600Y-37592485D02*
X44964028Y-37535342D01*
X44964028Y-37535342D02*
X44906885Y-37449628D01*
X44906885Y-37449628D02*
X44878314Y-37421057D01*
X44649742Y-38106771D02*
X44649742Y-37506771D01*
X44649742Y-37506771D02*
X44421171Y-37506771D01*
X44421171Y-37506771D02*
X44364028Y-37535342D01*
X44364028Y-37535342D02*
X44335457Y-37563914D01*
X44335457Y-37563914D02*
X44306885Y-37621057D01*
X44306885Y-37621057D02*
X44306885Y-37706771D01*
X44306885Y-37706771D02*
X44335457Y-37763914D01*
X44335457Y-37763914D02*
X44364028Y-37792485D01*
X44364028Y-37792485D02*
X44421171Y-37821057D01*
X44421171Y-37821057D02*
X44649742Y-37821057D01*
X44049742Y-38106771D02*
X44049742Y-37506771D01*
X43764028Y-38106771D02*
X43764028Y-37506771D01*
X43764028Y-37506771D02*
X43421171Y-38106771D01*
X43421171Y-38106771D02*
X43421171Y-37506771D01*
X43164029Y-37563914D02*
X43135457Y-37535342D01*
X43135457Y-37535342D02*
X43078315Y-37506771D01*
X43078315Y-37506771D02*
X42935457Y-37506771D01*
X42935457Y-37506771D02*
X42878315Y-37535342D01*
X42878315Y-37535342D02*
X42849743Y-37563914D01*
X42849743Y-37563914D02*
X42821172Y-37621057D01*
X42821172Y-37621057D02*
X42821172Y-37678200D01*
X42821172Y-37678200D02*
X42849743Y-37763914D01*
X42849743Y-37763914D02*
X43192600Y-38106771D01*
X43192600Y-38106771D02*
X42821172Y-38106771D01*
X42621171Y-38335342D02*
X42592600Y-38306771D01*
X42592600Y-38306771D02*
X42535457Y-38221057D01*
X42535457Y-38221057D02*
X42506886Y-38163914D01*
X42506886Y-38163914D02*
X42478314Y-38078200D01*
X42478314Y-38078200D02*
X42449743Y-37935342D01*
X42449743Y-37935342D02*
X42449743Y-37821057D01*
X42449743Y-37821057D02*
X42478314Y-37678200D01*
X42478314Y-37678200D02*
X42506886Y-37592485D01*
X42506886Y-37592485D02*
X42535457Y-37535342D01*
X42535457Y-37535342D02*
X42592600Y-37449628D01*
X42592600Y-37449628D02*
X42621171Y-37421057D01*
X42021171Y-38306771D02*
X42021171Y-37449628D01*
X41421171Y-38335342D02*
X41449742Y-38306771D01*
X41449742Y-38306771D02*
X41506885Y-38221057D01*
X41506885Y-38221057D02*
X41535457Y-38163914D01*
X41535457Y-38163914D02*
X41564028Y-38078200D01*
X41564028Y-38078200D02*
X41592599Y-37935342D01*
X41592599Y-37935342D02*
X41592599Y-37821057D01*
X41592599Y-37821057D02*
X41564028Y-37678200D01*
X41564028Y-37678200D02*
X41535457Y-37592485D01*
X41535457Y-37592485D02*
X41506885Y-37535342D01*
X41506885Y-37535342D02*
X41449742Y-37449628D01*
X41449742Y-37449628D02*
X41421171Y-37421057D01*
X41192599Y-38106771D02*
X41192599Y-37506771D01*
X41192599Y-37506771D02*
X40964028Y-37506771D01*
X40964028Y-37506771D02*
X40906885Y-37535342D01*
X40906885Y-37535342D02*
X40878314Y-37563914D01*
X40878314Y-37563914D02*
X40849742Y-37621057D01*
X40849742Y-37621057D02*
X40849742Y-37706771D01*
X40849742Y-37706771D02*
X40878314Y-37763914D01*
X40878314Y-37763914D02*
X40906885Y-37792485D01*
X40906885Y-37792485D02*
X40964028Y-37821057D01*
X40964028Y-37821057D02*
X41192599Y-37821057D01*
X40592599Y-38106771D02*
X40592599Y-37506771D01*
X40306885Y-38106771D02*
X40306885Y-37506771D01*
X40306885Y-37506771D02*
X39964028Y-38106771D01*
X39964028Y-38106771D02*
X39964028Y-37506771D01*
X39364029Y-38106771D02*
X39706886Y-38106771D01*
X39535457Y-38106771D02*
X39535457Y-37506771D01*
X39535457Y-37506771D02*
X39592600Y-37592485D01*
X39592600Y-37592485D02*
X39649743Y-37649628D01*
X39649743Y-37649628D02*
X39706886Y-37678200D01*
X39164028Y-38335342D02*
X39135457Y-38306771D01*
X39135457Y-38306771D02*
X39078314Y-38221057D01*
X39078314Y-38221057D02*
X39049743Y-38163914D01*
X39049743Y-38163914D02*
X39021171Y-38078200D01*
X39021171Y-38078200D02*
X38992600Y-37935342D01*
X38992600Y-37935342D02*
X38992600Y-37821057D01*
X38992600Y-37821057D02*
X39021171Y-37678200D01*
X39021171Y-37678200D02*
X39049743Y-37592485D01*
X39049743Y-37592485D02*
X39078314Y-37535342D01*
X39078314Y-37535342D02*
X39135457Y-37449628D01*
X39135457Y-37449628D02*
X39164028Y-37421057D01*
X43906173Y-42072771D02*
X43706173Y-42672771D01*
X43706173Y-42672771D02*
X43506173Y-42072771D01*
X42963315Y-42615628D02*
X42991887Y-42644200D01*
X42991887Y-42644200D02*
X43077601Y-42672771D01*
X43077601Y-42672771D02*
X43134744Y-42672771D01*
X43134744Y-42672771D02*
X43220458Y-42644200D01*
X43220458Y-42644200D02*
X43277601Y-42587057D01*
X43277601Y-42587057D02*
X43306172Y-42529914D01*
X43306172Y-42529914D02*
X43334744Y-42415628D01*
X43334744Y-42415628D02*
X43334744Y-42329914D01*
X43334744Y-42329914D02*
X43306172Y-42215628D01*
X43306172Y-42215628D02*
X43277601Y-42158485D01*
X43277601Y-42158485D02*
X43220458Y-42101342D01*
X43220458Y-42101342D02*
X43134744Y-42072771D01*
X43134744Y-42072771D02*
X43077601Y-42072771D01*
X43077601Y-42072771D02*
X42991887Y-42101342D01*
X42991887Y-42101342D02*
X42963315Y-42129914D01*
X42363315Y-42615628D02*
X42391887Y-42644200D01*
X42391887Y-42644200D02*
X42477601Y-42672771D01*
X42477601Y-42672771D02*
X42534744Y-42672771D01*
X42534744Y-42672771D02*
X42620458Y-42644200D01*
X42620458Y-42644200D02*
X42677601Y-42587057D01*
X42677601Y-42587057D02*
X42706172Y-42529914D01*
X42706172Y-42529914D02*
X42734744Y-42415628D01*
X42734744Y-42415628D02*
X42734744Y-42329914D01*
X42734744Y-42329914D02*
X42706172Y-42215628D01*
X42706172Y-42215628D02*
X42677601Y-42158485D01*
X42677601Y-42158485D02*
X42620458Y-42101342D01*
X42620458Y-42101342D02*
X42534744Y-42072771D01*
X42534744Y-42072771D02*
X42477601Y-42072771D01*
X42477601Y-42072771D02*
X42391887Y-42101342D01*
X42391887Y-42101342D02*
X42363315Y-42129914D01*
X41963315Y-42872771D02*
X41963315Y-42015628D01*
X41534743Y-42672771D02*
X41534743Y-42072771D01*
X41534743Y-42072771D02*
X41306172Y-42072771D01*
X41306172Y-42072771D02*
X41249029Y-42101342D01*
X41249029Y-42101342D02*
X41220458Y-42129914D01*
X41220458Y-42129914D02*
X41191886Y-42187057D01*
X41191886Y-42187057D02*
X41191886Y-42272771D01*
X41191886Y-42272771D02*
X41220458Y-42329914D01*
X41220458Y-42329914D02*
X41249029Y-42358485D01*
X41249029Y-42358485D02*
X41306172Y-42387057D01*
X41306172Y-42387057D02*
X41534743Y-42387057D01*
X40934743Y-42672771D02*
X40934743Y-42072771D01*
X40649029Y-42672771D02*
X40649029Y-42072771D01*
X40649029Y-42072771D02*
X40306172Y-42672771D01*
X40306172Y-42672771D02*
X40306172Y-42072771D01*
X39706173Y-42672771D02*
X40049030Y-42672771D01*
X39877601Y-42672771D02*
X39877601Y-42072771D01*
X39877601Y-42072771D02*
X39934744Y-42158485D01*
X39934744Y-42158485D02*
X39991887Y-42215628D01*
X39991887Y-42215628D02*
X40049030Y-42244200D01*
X39306172Y-42872771D02*
X39306172Y-42015628D01*
X38563315Y-42101342D02*
X38620458Y-42072771D01*
X38620458Y-42072771D02*
X38706172Y-42072771D01*
X38706172Y-42072771D02*
X38791886Y-42101342D01*
X38791886Y-42101342D02*
X38849029Y-42158485D01*
X38849029Y-42158485D02*
X38877600Y-42215628D01*
X38877600Y-42215628D02*
X38906172Y-42329914D01*
X38906172Y-42329914D02*
X38906172Y-42415628D01*
X38906172Y-42415628D02*
X38877600Y-42529914D01*
X38877600Y-42529914D02*
X38849029Y-42587057D01*
X38849029Y-42587057D02*
X38791886Y-42644200D01*
X38791886Y-42644200D02*
X38706172Y-42672771D01*
X38706172Y-42672771D02*
X38649029Y-42672771D01*
X38649029Y-42672771D02*
X38563315Y-42644200D01*
X38563315Y-42644200D02*
X38534743Y-42615628D01*
X38534743Y-42615628D02*
X38534743Y-42415628D01*
X38534743Y-42415628D02*
X38649029Y-42415628D01*
X38277600Y-42672771D02*
X38277600Y-42072771D01*
X38277600Y-42072771D02*
X37934743Y-42672771D01*
X37934743Y-42672771D02*
X37934743Y-42072771D01*
X37649029Y-42672771D02*
X37649029Y-42072771D01*
X37649029Y-42072771D02*
X37506172Y-42072771D01*
X37506172Y-42072771D02*
X37420458Y-42101342D01*
X37420458Y-42101342D02*
X37363315Y-42158485D01*
X37363315Y-42158485D02*
X37334744Y-42215628D01*
X37334744Y-42215628D02*
X37306172Y-42329914D01*
X37306172Y-42329914D02*
X37306172Y-42415628D01*
X37306172Y-42415628D02*
X37334744Y-42529914D01*
X37334744Y-42529914D02*
X37363315Y-42587057D01*
X37363315Y-42587057D02*
X37420458Y-42644200D01*
X37420458Y-42644200D02*
X37506172Y-42672771D01*
X37506172Y-42672771D02*
X37649029Y-42672771D01*
X48959333Y-45538819D02*
X48959333Y-46253104D01*
X48959333Y-46253104D02*
X49006952Y-46395961D01*
X49006952Y-46395961D02*
X49102190Y-46491200D01*
X49102190Y-46491200D02*
X49245047Y-46538819D01*
X49245047Y-46538819D02*
X49340285Y-46538819D01*
X48483142Y-46538819D02*
X48483142Y-45538819D01*
X48483142Y-45538819D02*
X48102190Y-45538819D01*
X48102190Y-45538819D02*
X48006952Y-45586438D01*
X48006952Y-45586438D02*
X47959333Y-45634057D01*
X47959333Y-45634057D02*
X47911714Y-45729295D01*
X47911714Y-45729295D02*
X47911714Y-45872152D01*
X47911714Y-45872152D02*
X47959333Y-45967390D01*
X47959333Y-45967390D02*
X48006952Y-46015009D01*
X48006952Y-46015009D02*
X48102190Y-46062628D01*
X48102190Y-46062628D02*
X48483142Y-46062628D01*
X47054571Y-45872152D02*
X47054571Y-46538819D01*
X47292666Y-45491200D02*
X47530761Y-46205485D01*
X47530761Y-46205485D02*
X46911714Y-46205485D01*
X45240285Y-44738819D02*
X45811713Y-44738819D01*
X45525999Y-44738819D02*
X45525999Y-43738819D01*
X45525999Y-43738819D02*
X45621237Y-43881676D01*
X45621237Y-43881676D02*
X45716475Y-43976914D01*
X45716475Y-43976914D02*
X45811713Y-44024533D01*
X51059332Y-43738819D02*
X50440285Y-43738819D01*
X50440285Y-43738819D02*
X50773618Y-44119771D01*
X50773618Y-44119771D02*
X50630761Y-44119771D01*
X50630761Y-44119771D02*
X50535523Y-44167390D01*
X50535523Y-44167390D02*
X50487904Y-44215009D01*
X50487904Y-44215009D02*
X50440285Y-44310247D01*
X50440285Y-44310247D02*
X50440285Y-44548342D01*
X50440285Y-44548342D02*
X50487904Y-44643580D01*
X50487904Y-44643580D02*
X50535523Y-44691200D01*
X50535523Y-44691200D02*
X50630761Y-44738819D01*
X50630761Y-44738819D02*
X50916475Y-44738819D01*
X50916475Y-44738819D02*
X51011713Y-44691200D01*
X51011713Y-44691200D02*
X51059332Y-44643580D01*
X41563333Y-45538819D02*
X41563333Y-46253104D01*
X41563333Y-46253104D02*
X41610952Y-46395961D01*
X41610952Y-46395961D02*
X41706190Y-46491200D01*
X41706190Y-46491200D02*
X41849047Y-46538819D01*
X41849047Y-46538819D02*
X41944285Y-46538819D01*
X41087142Y-46538819D02*
X41087142Y-45538819D01*
X41087142Y-45538819D02*
X40706190Y-45538819D01*
X40706190Y-45538819D02*
X40610952Y-45586438D01*
X40610952Y-45586438D02*
X40563333Y-45634057D01*
X40563333Y-45634057D02*
X40515714Y-45729295D01*
X40515714Y-45729295D02*
X40515714Y-45872152D01*
X40515714Y-45872152D02*
X40563333Y-45967390D01*
X40563333Y-45967390D02*
X40610952Y-46015009D01*
X40610952Y-46015009D02*
X40706190Y-46062628D01*
X40706190Y-46062628D02*
X41087142Y-46062628D01*
X40182380Y-45538819D02*
X39563333Y-45538819D01*
X39563333Y-45538819D02*
X39896666Y-45919771D01*
X39896666Y-45919771D02*
X39753809Y-45919771D01*
X39753809Y-45919771D02*
X39658571Y-45967390D01*
X39658571Y-45967390D02*
X39610952Y-46015009D01*
X39610952Y-46015009D02*
X39563333Y-46110247D01*
X39563333Y-46110247D02*
X39563333Y-46348342D01*
X39563333Y-46348342D02*
X39610952Y-46443580D01*
X39610952Y-46443580D02*
X39658571Y-46491200D01*
X39658571Y-46491200D02*
X39753809Y-46538819D01*
X39753809Y-46538819D02*
X40039523Y-46538819D01*
X40039523Y-46538819D02*
X40134761Y-46491200D01*
X40134761Y-46491200D02*
X40182380Y-46443580D01*
X37844285Y-44738819D02*
X38415713Y-44738819D01*
X38129999Y-44738819D02*
X38129999Y-43738819D01*
X38129999Y-43738819D02*
X38225237Y-43881676D01*
X38225237Y-43881676D02*
X38320475Y-43976914D01*
X38320475Y-43976914D02*
X38415713Y-44024533D01*
X43663332Y-43738819D02*
X43044285Y-43738819D01*
X43044285Y-43738819D02*
X43377618Y-44119771D01*
X43377618Y-44119771D02*
X43234761Y-44119771D01*
X43234761Y-44119771D02*
X43139523Y-44167390D01*
X43139523Y-44167390D02*
X43091904Y-44215009D01*
X43091904Y-44215009D02*
X43044285Y-44310247D01*
X43044285Y-44310247D02*
X43044285Y-44548342D01*
X43044285Y-44548342D02*
X43091904Y-44643580D01*
X43091904Y-44643580D02*
X43139523Y-44691200D01*
X43139523Y-44691200D02*
X43234761Y-44738819D01*
X43234761Y-44738819D02*
X43520475Y-44738819D01*
X43520475Y-44738819D02*
X43615713Y-44691200D01*
X43615713Y-44691200D02*
X43663332Y-44643580D01*
D13*
%TO.C,JP4*%
X46076000Y-43984000D02*
X46076000Y-44584000D01*
X46726000Y-45284000D02*
X49526000Y-45284000D01*
X49526000Y-43284000D02*
X46726000Y-43284000D01*
X50176000Y-44584000D02*
X50176000Y-43984000D01*
X46076000Y-43984000D02*
G75*
G02*
X46776000Y-43284000I699999J1D01*
G01*
X46776000Y-45284000D02*
G75*
G02*
X46076000Y-44584000I-1J699999D01*
G01*
X49476000Y-43284000D02*
G75*
G02*
X50176000Y-43984000I0J-700000D01*
G01*
X50176000Y-44584000D02*
G75*
G02*
X49476000Y-45284000I-700000J0D01*
G01*
%TO.C,JP3*%
X38680000Y-43984000D02*
X38680000Y-44584000D01*
X39330000Y-45284000D02*
X42130000Y-45284000D01*
X42130000Y-43284000D02*
X39330000Y-43284000D01*
X42780000Y-44584000D02*
X42780000Y-43984000D01*
X38680000Y-43984000D02*
G75*
G02*
X39380000Y-43284000I699999J1D01*
G01*
X39380000Y-45284000D02*
G75*
G02*
X38680000Y-44584000I-1J699999D01*
G01*
X42080000Y-43284000D02*
G75*
G02*
X42780000Y-43984000I0J-700000D01*
G01*
X42780000Y-44584000D02*
G75*
G02*
X42080000Y-45284000I-700000J0D01*
G01*
%TD*%
M02*
