M48
; DRILL file {KiCad 9.0.7} date 2026-03-10T19:40:17+0100
; FORMAT={-:-/ absolute / metric / decimal}
; #@! TF.CreationDate,2026-03-10T19:40:17+01:00
; #@! TF.GenerationSoftware,Kicad,Pcbnew,9.0.7
; #@! TF.FileFunction,Plated,1,2,PTH
FMAT,2
METRIC
; #@! TA.AperFunction,Plated,PTH,ViaDrill
T1C0.400
; #@! TA.AperFunction,Plated,PTH,ComponentDrill
T2C0.762
; #@! TA.AperFunction,Plated,PTH,ComponentDrill
T3C0.800
; #@! TA.AperFunction,Plated,PTH,ComponentDrill
T4C0.900
; #@! TA.AperFunction,Plated,PTH,ComponentDrill
T5C1.000
; #@! TA.AperFunction,Plated,PTH,ComponentDrill
T6C1.100
; #@! TA.AperFunction,Plated,PTH,ComponentDrill
T7C2.600
%
G90
G05
T1
X30.804Y-56.824
X30.804Y-59.808
X31.87Y-50.855
X34.285Y-76.736
X34.576Y-45.999
X34.618Y-41.052
X35.646Y-48.347
X35.952Y-66.747
X36.705Y-42.711
X36.732Y-62.762
X36.768Y-61.881
X37.884Y-81.703
X38.739Y-46.515
X38.997Y-57.912
X39.695Y-42.711
X40.161Y-38.092
X40.704Y-45.624
X41.579Y-50.855
X42.659Y-52.165
X42.747Y-42.799
X42.869Y-45.97
X44.157Y-43.437
X44.318Y-35.83
X46.522Y-72.4
X47.689Y-50.047
X47.826Y-41.072
X48.587Y-41.903
X48.587Y-53.84
X48.963Y-60.404
X48.963Y-66.317
X49.505Y-57.095
X49.685Y-42.871
X50.199Y-48.496
X50.457Y-52.507
X50.905Y-46.66
X50.97Y-57.767
X51.179Y-64.202
X52.509Y-36.778
X53.558Y-49.586
X53.941Y-71.746
X54.222Y-74.885
X55.089Y-52.005
X55.221Y-39.286
X55.554Y-75.481
X55.793Y-38.687
X56.206Y-48.515
X56.59Y-56.02
X56.674Y-50.045
X56.982Y-68.701
X57.061Y-48.922
X57.27Y-38.918
X57.415Y-36.2
X57.478Y-47.445
X57.965Y-56.824
X57.967Y-41.903
X58.09Y-80.698
X58.603Y-46.761
X58.607Y-34.795
X58.622Y-65.648
X59.322Y-49.263
X59.322Y-60.044
X59.777Y-76.736
X60.441Y-66.99
X60.734Y-50.408
X61.108Y-55.64
X61.677Y-50.743
X63.209Y-60.489
X64.152Y-46.827
X64.295Y-56.51
X64.35Y-38.372
X64.461Y-43.745
X64.648Y-44.56
X64.736Y-41.605
X65.176Y-39.989
X65.666Y-42.506
X66.104Y-75.443
X67.241Y-50.832
X67.261Y-45.473
X67.487Y-56.626
X68.087Y-53.765
X68.139Y-51.936
X68.542Y-60.486
X68.553Y-34.831
X68.924Y-62.302
X70.283Y-65.225
X71.457Y-44.663
X71.494Y-53.047
X71.51Y-64.977
X71.598Y-40.927
X71.666Y-48.446
X72.296Y-71.746
X72.296Y-74.73
X72.694Y-61.502
X72.915Y-36.181
X73.059Y-68.761
X73.121Y-70.915
X73.147Y-38.916
X73.192Y-51.414
X73.251Y-67.801
X74.453Y-37.148
X74.799Y-62.548
X74.9Y-57.306
X74.941Y-66.02
X75.136Y-53.064
X75.521Y-53.925
X75.723Y-35.749
X77.393Y-47.94
X77.946Y-51.235
X78.169Y-45.795
X78.25Y-54.691
X78.575Y-49.823
X79.092Y-42.894
X79.485Y-51.235
X80.322Y-79.987
X80.595Y-77.795
X80.963Y-66.082
X81.329Y-62.793
X81.63Y-40.726
X81.651Y-54.691
X83.325Y-57.654
X84.541Y-53.916
X87.059Y-44.887
T2
X33.14Y-40.855
X33.14Y-43.395
X33.14Y-45.935
X33.14Y-48.475
X40.605Y-39.52
X43.145Y-39.52
X45.685Y-39.52
X48.225Y-39.52
T3
X77.082Y-39.468
X77.082Y-43.768
X77.082Y-46.268
X79.582Y-39.468
X79.582Y-41.568
X79.582Y-44.168
X79.582Y-46.268
T4
X76.835Y-81.114
X76.835Y-83.654
T5
X31.87Y-31.33
X31.87Y-33.87
X34.41Y-31.33
X34.41Y-33.87
X36.24Y-65.224
X36.24Y-79.724
X36.95Y-31.33
X36.95Y-33.87
X38.74Y-79.724
X39.49Y-31.33
X39.49Y-33.87
X40.78Y-58.508
X41.24Y-65.224
X41.24Y-79.724
X42.03Y-31.33
X42.03Y-33.87
X44.57Y-31.33
X44.57Y-33.87
X47.11Y-31.33
X47.11Y-33.87
X48.38Y-58.508
X49.65Y-31.33
X49.65Y-33.87
X52.19Y-31.33
X52.19Y-33.87
X54.73Y-31.33
X54.73Y-33.87
X57.27Y-31.33
X57.27Y-33.87
X58.921Y-73.113
X59.81Y-31.33
X59.81Y-33.87
X61.461Y-73.113
X62.35Y-31.33
X62.35Y-33.87
X64.001Y-73.113
X64.89Y-31.33
X64.89Y-33.87
X66.541Y-73.113
X67.43Y-31.33
X67.43Y-33.87
X69.081Y-73.113
X69.97Y-31.33
X69.97Y-33.87
X72.51Y-31.33
X72.51Y-33.87
X75.05Y-31.33
X75.05Y-33.87
X76.599Y-56.527
X76.599Y-59.067
X76.599Y-61.607
X76.599Y-64.147
X76.599Y-66.687
X76.599Y-69.227
X76.599Y-71.767
X76.599Y-74.307
X77.59Y-31.33
X77.59Y-33.87
X79.139Y-56.527
X79.139Y-59.067
X79.139Y-61.607
X79.139Y-64.147
X79.139Y-66.687
X79.139Y-69.227
X79.139Y-71.767
X79.139Y-74.307
X80.13Y-31.33
X80.13Y-33.87
X86.48Y-56.476
X86.48Y-59.016
X86.48Y-61.556
X86.48Y-64.096
X86.48Y-66.636
X86.48Y-69.176
X86.48Y-71.716
T6
X32.33Y-76.835
X32.33Y-83.335
X36.83Y-76.835
X36.83Y-83.335
X40.585Y-76.835
X40.585Y-83.335
X45.085Y-76.835
X45.085Y-83.335
X48.84Y-76.835
X48.84Y-83.335
X53.34Y-76.835
X53.34Y-83.335
X57.095Y-76.835
X57.095Y-83.335
X61.595Y-76.835
X61.595Y-83.335
X65.35Y-76.835
X65.35Y-83.335
X69.85Y-76.835
X69.85Y-83.335
T7
X33.14Y-72.224
X44.34Y-72.224
T3
X81.882Y-36.118G85X83.282Y-36.118
G05
X81.882Y-49.618G85X83.282Y-49.618
G05
X83.382Y-42.168G85X83.382Y-43.568
G05
M30
