M48
; DRILL file {KiCad 9.0.1} date 2025-12-07T21:34:19+0100
; FORMAT={-:-/ absolute / metric / decimal}
; #@! TF.CreationDate,2025-12-07T21:34:19+01:00
; #@! TF.GenerationSoftware,Kicad,Pcbnew,9.0.1
; #@! TF.FileFunction,Plated,1,2,PTH
FMAT,2
METRIC
; #@! TA.AperFunction,Plated,PTH,ViaDrill
T1C0.400
; #@! TA.AperFunction,Plated,PTH,ComponentDrill
T2C0.750
; #@! TA.AperFunction,Plated,PTH,ComponentDrill
T3C0.762
; #@! TA.AperFunction,Plated,PTH,ComponentDrill
T4C0.800
; #@! TA.AperFunction,Plated,PTH,ComponentDrill
T5C0.900
; #@! TA.AperFunction,Plated,PTH,ComponentDrill
T6C1.000
; #@! TA.AperFunction,Plated,PTH,ComponentDrill
T7C1.100
%
G90
G05
T1
X31.87Y-38.355
X35.64Y-40.57
X36.83Y-80.629
X40.527Y-35.261
X43.786Y-56.798
X44.452Y-44.64
X45.238Y-43.654
X46.783Y-45.152
X47.587Y-37.581
X49.336Y-41.119
X49.553Y-36.761
X50.055Y-48.412
X50.92Y-42.041
X54.736Y-29.649
X56.356Y-46.363
X57.356Y-53.784
X59.758Y-44.428
X61.958Y-47.657
X62.623Y-35.987
X64.755Y-42.743
X64.925Y-69.897
X65.098Y-56.64
X65.991Y-67.337
X67.319Y-43.217
X67.399Y-65.944
X67.819Y-38.526
X68.247Y-35.262
X68.582Y-48.738
X71.032Y-50.456
X71.191Y-59.269
X71.454Y-40.677
X71.484Y-45.757
X73.175Y-61.69
X73.954Y-36.727
X74.512Y-63.844
X75.291Y-57.746
X75.542Y-35.257
X75.649Y-53.306
X76.13Y-58.644
X76.454Y-38.822
X77.926Y-35.295
X78.266Y-61.69
X79.005Y-45.535
X80.554Y-67.324
X80.718Y-36.073
X85.08Y-42.897
T2
X60.826Y-51.248
X60.826Y-68.414
X62.096Y-51.248
X62.096Y-68.414
X63.366Y-51.248
X63.366Y-68.414
X66.922Y-51.248
X66.922Y-68.414
X68.192Y-51.248
X68.192Y-68.414
X69.462Y-51.248
X69.462Y-68.414
T3
X33.14Y-40.855
X33.14Y-43.395
X33.14Y-45.935
X33.14Y-48.475
X40.605Y-39.52
X43.145Y-39.52
X45.685Y-39.52
X48.225Y-39.52
T4
X60.064Y-37.172
X60.064Y-47.332
X60.064Y-54.698
X60.064Y-64.858
X63.281Y-37.172
X63.281Y-47.332
X63.281Y-54.698
X63.281Y-64.858
X66.499Y-37.172
X66.499Y-47.332
X66.499Y-54.698
X66.499Y-64.858
X69.716Y-37.172
X69.716Y-47.332
X69.716Y-54.698
X69.716Y-64.858
X74.796Y-68.16
X74.796Y-75.526
X84.956Y-68.16
X84.956Y-75.526
T5
X76.835Y-80.01
X76.835Y-82.55
X77.236Y-71.882
X84.856Y-71.882
T6
X31.87Y-31.33
X31.87Y-33.87
X32.886Y-67.652
X34.41Y-31.33
X34.41Y-33.87
X35.426Y-67.652
X36.95Y-31.33
X36.95Y-33.87
X37.966Y-67.652
X39.49Y-31.33
X39.49Y-33.87
X40.506Y-67.652
X40.78Y-58.508
X42.03Y-31.33
X42.03Y-33.87
X43.046Y-67.652
X44.57Y-31.33
X44.57Y-33.87
X47.11Y-31.33
X47.11Y-33.87
X48.38Y-58.508
X49.65Y-31.33
X49.65Y-33.87
X52.19Y-31.33
X52.19Y-33.87
X54.73Y-31.33
X54.73Y-33.87
X57.27Y-31.33
X57.27Y-33.87
X59.81Y-31.33
X59.81Y-33.87
X62.35Y-31.33
X62.35Y-33.87
X64.89Y-31.33
X64.89Y-33.87
X67.43Y-31.33
X67.43Y-33.87
X69.97Y-31.33
X69.97Y-33.87
X72.51Y-31.33
X72.51Y-33.87
X73.78Y-38.137
X73.78Y-40.677
X73.78Y-43.217
X73.78Y-45.757
X73.78Y-48.297
X73.78Y-50.837
X73.78Y-53.377
X75.05Y-31.33
X75.05Y-33.87
X77.59Y-31.33
X77.59Y-33.87
X80.13Y-31.33
X80.13Y-33.87
X81.527Y-41.922
X81.527Y-44.462
X81.527Y-47.002
X81.527Y-49.542
X81.527Y-52.082
X81.527Y-54.622
X81.527Y-57.162
X81.527Y-59.702
X84.067Y-41.922
X84.067Y-44.462
X84.067Y-47.002
X84.067Y-49.542
X84.067Y-52.082
X84.067Y-54.622
X84.067Y-57.162
X84.067Y-59.702
T7
X32.33Y-76.835
X32.33Y-83.335
X36.83Y-76.835
X36.83Y-83.335
X40.585Y-76.835
X40.585Y-83.335
X45.085Y-76.835
X45.085Y-83.335
X48.84Y-76.835
X48.84Y-83.335
X53.34Y-76.835
X53.34Y-83.335
X57.095Y-76.835
X57.095Y-83.335
X61.595Y-76.835
X61.595Y-83.335
X65.35Y-76.835
X65.35Y-83.335
X69.85Y-76.835
X69.85Y-83.335
M30
