M48
; DRILL file {KiCad 9.0.6} date 2026-02-01T10:53:22+0100
; FORMAT={-:-/ absolute / metric / decimal}
; #@! TF.CreationDate,2026-02-01T10:53:22+01:00
; #@! TF.GenerationSoftware,Kicad,Pcbnew,9.0.6
; #@! TF.FileFunction,Plated,1,2,PTH
FMAT,2
METRIC
; #@! TA.AperFunction,Plated,PTH,ViaDrill
T1C0.400
; #@! TA.AperFunction,Plated,PTH,ComponentDrill
T2C0.762
; #@! TA.AperFunction,Plated,PTH,ComponentDrill
T3C0.800
; #@! TA.AperFunction,Plated,PTH,ComponentDrill
T4C0.900
; #@! TA.AperFunction,Plated,PTH,ComponentDrill
T5C1.000
; #@! TA.AperFunction,Plated,PTH,ComponentDrill
T6C1.100
; #@! TA.AperFunction,Plated,PTH,ComponentDrill
T7C2.600
%
G90
G05
T1
X34.41Y-36.706
X36.94Y-38.247
X37.831Y-40.674
X41.382Y-36.401
X42.046Y-43.031
X45.279Y-52.003
X46.119Y-35.151
X46.826Y-42.934
X48.126Y-41.935
X48.468Y-38.109
X49.241Y-70.62
X50.395Y-37.907
X51.554Y-68.461
X51.812Y-66.586
X51.926Y-42.934
X52.325Y-45.144
X53.492Y-42.801
X53.799Y-38.898
X54.316Y-37.46
X54.346Y-65.126
X55.645Y-65.777
X56.495Y-57.851
X58.617Y-53.494
X58.617Y-57.939
X60.283Y-63.422
X61.11Y-71.013
X61.658Y-56.502
X61.658Y-59.336
X62.896Y-45.395
X63.025Y-48.777
X63.257Y-37.311
X64.085Y-46.985
X64.34Y-60.744
X64.491Y-56.706
X64.873Y-42.506
X64.975Y-62.951
X65.564Y-68.262
X65.725Y-61.607
X66.147Y-29.191
X67.059Y-60.063
X67.318Y-57.412
X67.697Y-53.62
X68.243Y-41.725
X68.243Y-43.522
X68.294Y-55.957
X68.294Y-58.226
X68.568Y-39.513
X68.721Y-71.428
X69.6Y-51.867
X70.368Y-51.16
X70.956Y-44.887
X70.985Y-40.442
X72.103Y-59.067
X72.185Y-56.751
X72.296Y-74.73
X72.904Y-69.227
X73.6Y-65.998
X73.687Y-29.921
X74.59Y-53.382
X75.04Y-47.772
X75.494Y-52.366
X75.502Y-51.419
X75.502Y-35.251
X75.793Y-50.315
X76.235Y-45.469
X76.295Y-53.132
X77.207Y-42.572
X80.812Y-59.308
X81.483Y-42.098
X82.386Y-56.911
X82.553Y-55.971
T2
X33.14Y-40.855
X33.14Y-43.395
X33.14Y-45.935
X33.14Y-48.475
X40.605Y-39.52
X43.145Y-39.52
X45.685Y-39.52
X48.225Y-39.52
T3
X77.082Y-39.468
X77.082Y-43.768
X77.082Y-46.268
X79.582Y-39.468
X79.582Y-41.568
X79.582Y-44.168
X79.582Y-46.268
T4
X76.835Y-81.114
X76.835Y-83.654
T5
X31.87Y-31.33
X31.87Y-33.87
X34.41Y-31.33
X34.41Y-33.87
X36.24Y-65.224
X36.24Y-79.724
X36.95Y-31.33
X36.95Y-33.87
X38.74Y-79.724
X39.49Y-31.33
X39.49Y-33.87
X40.78Y-58.508
X41.24Y-65.224
X41.24Y-79.724
X42.03Y-31.33
X42.03Y-33.87
X44.57Y-31.33
X44.57Y-33.87
X47.11Y-31.33
X47.11Y-33.87
X48.38Y-58.508
X49.65Y-31.33
X49.65Y-33.87
X52.19Y-31.33
X52.19Y-33.87
X54.73Y-31.33
X54.73Y-33.87
X57.27Y-31.33
X57.27Y-33.87
X58.921Y-73.113
X59.81Y-31.33
X59.81Y-33.87
X61.461Y-73.113
X62.35Y-31.33
X62.35Y-33.87
X64.001Y-73.113
X64.89Y-31.33
X64.89Y-33.87
X66.541Y-73.113
X67.43Y-31.33
X67.43Y-33.87
X69.081Y-73.113
X69.97Y-31.33
X69.97Y-33.87
X72.51Y-31.33
X72.51Y-33.87
X75.05Y-31.33
X75.05Y-33.87
X76.599Y-56.527
X76.599Y-59.067
X76.599Y-61.607
X76.599Y-64.147
X76.599Y-66.687
X76.599Y-69.227
X76.599Y-71.767
X76.599Y-74.307
X77.59Y-31.33
X77.59Y-33.87
X79.139Y-56.527
X79.139Y-59.067
X79.139Y-61.607
X79.139Y-64.147
X79.139Y-66.687
X79.139Y-69.227
X79.139Y-71.767
X79.139Y-74.307
X80.13Y-31.33
X80.13Y-33.87
X86.48Y-56.476
X86.48Y-59.016
X86.48Y-61.556
X86.48Y-64.096
X86.48Y-66.636
X86.48Y-69.176
X86.48Y-71.716
T6
X32.33Y-76.835
X32.33Y-83.335
X36.83Y-76.835
X36.83Y-83.335
X40.585Y-76.835
X40.585Y-83.335
X45.085Y-76.835
X45.085Y-83.335
X48.84Y-76.835
X48.84Y-83.335
X53.34Y-76.835
X53.34Y-83.335
X57.095Y-76.835
X57.095Y-83.335
X61.595Y-76.835
X61.595Y-83.335
X65.35Y-76.835
X65.35Y-83.335
X69.85Y-76.835
X69.85Y-83.335
T7
X33.14Y-72.224
X44.34Y-72.224
T3
X81.882Y-36.118G85X83.282Y-36.118
G05
X81.882Y-49.618G85X83.282Y-49.618
G05
X83.382Y-42.168G85X83.382Y-43.568
G05
M30
