G04 #@! TF.GenerationSoftware,KiCad,Pcbnew,9.0.1*
G04 #@! TF.CreationDate,2025-12-07T21:34:12+01:00*
G04 #@! TF.ProjectId,RPi_Hat,5250695f-4861-4742-9e6b-696361645f70,1*
G04 #@! TF.SameCoordinates,Original*
G04 #@! TF.FileFunction,Soldermask,Bot*
G04 #@! TF.FilePolarity,Negative*
%FSLAX46Y46*%
G04 Gerber Fmt 4.6, Leading zero omitted, Abs format (unit mm)*
G04 Created by KiCad (PCBNEW 9.0.1) date 2025-12-07 21:34:12*
%MOMM*%
%LPD*%
G01*
G04 APERTURE LIST*
G04 Aperture macros list*
%AMRoundRect*
0 Rectangle with rounded corners*
0 $1 Rounding radius*
0 $2 $3 $4 $5 $6 $7 $8 $9 X,Y pos of 4 corners*
0 Add a 4 corners polygon primitive as box body*
4,1,4,$2,$3,$4,$5,$6,$7,$8,$9,$2,$3,0*
0 Add four circle primitives for the rounded corners*
1,1,$1+$1,$2,$3*
1,1,$1+$1,$4,$5*
1,1,$1+$1,$6,$7*
1,1,$1+$1,$8,$9*
0 Add four rect primitives between the rounded corners*
20,1,$1+$1,$2,$3,$4,$5,0*
20,1,$1+$1,$4,$5,$6,$7,0*
20,1,$1+$1,$6,$7,$8,$9,0*
20,1,$1+$1,$8,$9,$2,$3,0*%
G04 Aperture macros list end*
%ADD10O,1.600000X1.600000*%
%ADD11C,1.600000*%
%ADD12C,1.700000*%
%ADD13RoundRect,0.250000X-0.600000X-0.600000X0.600000X-0.600000X0.600000X0.600000X-0.600000X0.600000X0*%
%ADD14O,1.050000X1.500000*%
%ADD15R,1.050000X1.500000*%
%ADD16R,1.700000X1.700000*%
%ADD17R,1.800000X1.800000*%
%ADD18O,1.800000X1.800000*%
%ADD19C,2.700000*%
%ADD20C,1.524000*%
%ADD21R,1.524000X1.524000*%
%ADD22R,2.000000X2.000000*%
%ADD23C,2.000000*%
%ADD24C,1.800000*%
G04 APERTURE END LIST*
D10*
X60064000Y-37172000D03*
D11*
X60064000Y-47332000D03*
X63281300Y-64858000D03*
D10*
X63281300Y-54698000D03*
X63281300Y-37172000D03*
D11*
X63281300Y-47332000D03*
X66498700Y-64858000D03*
D10*
X66498700Y-54698000D03*
X66498700Y-37172000D03*
D11*
X66498700Y-47332000D03*
X69716000Y-64858000D03*
D10*
X69716000Y-54698000D03*
D11*
X60064000Y-64858000D03*
D10*
X60064000Y-54698000D03*
X69716000Y-37172000D03*
D11*
X69716000Y-47332000D03*
D12*
X84067000Y-59701800D03*
X81527000Y-59701800D03*
X84067000Y-57161800D03*
X81527000Y-57161800D03*
X84067000Y-54621800D03*
X81527000Y-54621800D03*
X84067000Y-52081800D03*
X81527000Y-52081800D03*
X84067000Y-49541800D03*
X81527000Y-49541800D03*
X84067000Y-47001800D03*
X81527000Y-47001800D03*
X84067000Y-44461800D03*
X81527000Y-44461800D03*
X84067000Y-41921800D03*
D13*
X81527000Y-41921800D03*
D11*
X74796000Y-68160000D03*
D10*
X84956000Y-68160000D03*
D14*
X60826000Y-68414000D03*
X62096000Y-68414000D03*
D15*
X63366000Y-68414000D03*
X69462000Y-68414000D03*
D14*
X68192000Y-68414000D03*
X66922000Y-68414000D03*
D15*
X66922000Y-51248000D03*
D14*
X68192000Y-51248000D03*
X69462000Y-51248000D03*
X63366000Y-51248000D03*
X62096000Y-51248000D03*
D15*
X60826000Y-51248000D03*
D16*
X73780000Y-38137200D03*
D12*
X73780000Y-40677200D03*
X73780000Y-43217200D03*
X73780000Y-45757200D03*
X73780000Y-48297200D03*
X73780000Y-50837200D03*
X73780000Y-53377200D03*
D16*
X43046000Y-67652000D03*
D12*
X40506000Y-67652000D03*
X37966000Y-67652000D03*
X35426000Y-67652000D03*
X32886000Y-67652000D03*
D17*
X84856000Y-71882000D03*
D18*
X77236000Y-71882000D03*
D19*
X84995000Y-32575000D03*
X26995000Y-32575000D03*
X84995000Y-81575000D03*
X26995000Y-81575000D03*
D20*
X33140000Y-40855000D03*
X33140000Y-43395000D03*
X33140000Y-45935000D03*
D21*
X33140000Y-48475000D03*
D12*
X80130000Y-31330000D03*
X80130000Y-33870000D03*
X77590000Y-31330000D03*
X77590000Y-33870000D03*
X75050000Y-31330000D03*
X75050000Y-33870000D03*
X72510000Y-31330000D03*
X72510000Y-33870000D03*
X69970000Y-31330000D03*
X69970000Y-33870000D03*
X67430000Y-31330000D03*
X67430000Y-33870000D03*
X64890000Y-31330000D03*
X64890000Y-33870000D03*
X62350000Y-31330000D03*
X62350000Y-33870000D03*
X59810000Y-31330000D03*
X59810000Y-33870000D03*
X57270000Y-31330000D03*
X57270000Y-33870000D03*
X54730000Y-31330000D03*
X54730000Y-33870000D03*
X52190000Y-31330000D03*
X52190000Y-33870000D03*
X49650000Y-31330000D03*
X49650000Y-33870000D03*
X47110000Y-31330000D03*
X47110000Y-33870000D03*
X44570000Y-31330000D03*
X44570000Y-33870000D03*
X42030000Y-31330000D03*
X42030000Y-33870000D03*
X39490000Y-31330000D03*
X39490000Y-33870000D03*
X36950000Y-31330000D03*
X36950000Y-33870000D03*
X34410000Y-31330000D03*
X34410000Y-33870000D03*
X31870000Y-31330000D03*
D16*
X31870000Y-33870000D03*
D20*
X48225000Y-39520000D03*
X45685000Y-39520000D03*
X43145000Y-39520000D03*
D21*
X40605000Y-39520000D03*
D22*
X40780000Y-58508000D03*
D23*
X48380000Y-58508000D03*
D17*
X76835000Y-82550000D03*
D24*
X76835000Y-80010000D03*
D11*
X84956000Y-75526000D03*
D10*
X74796000Y-75526000D03*
D23*
X36830000Y-76835000D03*
X36830000Y-83335000D03*
X32330000Y-76835000D03*
X32330000Y-83335000D03*
X45085000Y-76835000D03*
X45085000Y-83335000D03*
X40585000Y-76835000D03*
X40585000Y-83335000D03*
X53340000Y-76835000D03*
X53340000Y-83335000D03*
X48840000Y-76835000D03*
X48840000Y-83335000D03*
X61595000Y-76835000D03*
X61595000Y-83335000D03*
X57095000Y-76835000D03*
X57095000Y-83335000D03*
X69850000Y-76835000D03*
X69850000Y-83335000D03*
X65350000Y-76835000D03*
X65350000Y-83335000D03*
M02*
