G04 #@! TF.GenerationSoftware,KiCad,Pcbnew,9.0.1*
G04 #@! TF.CreationDate,2025-10-22T23:56:24+02:00*
G04 #@! TF.ProjectId,RPi_Hat,5250695f-4861-4742-9e6b-696361645f70,1*
G04 #@! TF.SameCoordinates,Original*
G04 #@! TF.FileFunction,Legend,Bot*
G04 #@! TF.FilePolarity,Positive*
%FSLAX46Y46*%
G04 Gerber Fmt 4.6, Leading zero omitted, Abs format (unit mm)*
G04 Created by KiCad (PCBNEW 9.0.1) date 2025-10-22 23:56:24*
%MOMM*%
%LPD*%
G01*
G04 APERTURE LIST*
%ADD10C,0.250000*%
%ADD11C,0.300000*%
%ADD12C,0.400000*%
G04 APERTURE END LIST*
D10*
X73257431Y-81729619D02*
X73257431Y-80729619D01*
X73257431Y-80729619D02*
X72924098Y-81443904D01*
X72924098Y-81443904D02*
X72590765Y-80729619D01*
X72590765Y-80729619D02*
X72590765Y-81729619D01*
X71686003Y-81729619D02*
X71686003Y-81205809D01*
X71686003Y-81205809D02*
X71733622Y-81110571D01*
X71733622Y-81110571D02*
X71828860Y-81062952D01*
X71828860Y-81062952D02*
X72019336Y-81062952D01*
X72019336Y-81062952D02*
X72114574Y-81110571D01*
X71686003Y-81682000D02*
X71781241Y-81729619D01*
X71781241Y-81729619D02*
X72019336Y-81729619D01*
X72019336Y-81729619D02*
X72114574Y-81682000D01*
X72114574Y-81682000D02*
X72162193Y-81586761D01*
X72162193Y-81586761D02*
X72162193Y-81491523D01*
X72162193Y-81491523D02*
X72114574Y-81396285D01*
X72114574Y-81396285D02*
X72019336Y-81348666D01*
X72019336Y-81348666D02*
X71781241Y-81348666D01*
X71781241Y-81348666D02*
X71686003Y-81301047D01*
X70781241Y-81682000D02*
X70876479Y-81729619D01*
X70876479Y-81729619D02*
X71066955Y-81729619D01*
X71066955Y-81729619D02*
X71162193Y-81682000D01*
X71162193Y-81682000D02*
X71209812Y-81634380D01*
X71209812Y-81634380D02*
X71257431Y-81539142D01*
X71257431Y-81539142D02*
X71257431Y-81253428D01*
X71257431Y-81253428D02*
X71209812Y-81158190D01*
X71209812Y-81158190D02*
X71162193Y-81110571D01*
X71162193Y-81110571D02*
X71066955Y-81062952D01*
X71066955Y-81062952D02*
X70876479Y-81062952D01*
X70876479Y-81062952D02*
X70781241Y-81110571D01*
X70352669Y-81729619D02*
X70352669Y-81062952D01*
X70352669Y-80729619D02*
X70400288Y-80777238D01*
X70400288Y-80777238D02*
X70352669Y-80824857D01*
X70352669Y-80824857D02*
X70305050Y-80777238D01*
X70305050Y-80777238D02*
X70352669Y-80729619D01*
X70352669Y-80729619D02*
X70352669Y-80824857D01*
X69495527Y-81682000D02*
X69590765Y-81729619D01*
X69590765Y-81729619D02*
X69781241Y-81729619D01*
X69781241Y-81729619D02*
X69876479Y-81682000D01*
X69876479Y-81682000D02*
X69924098Y-81586761D01*
X69924098Y-81586761D02*
X69924098Y-81205809D01*
X69924098Y-81205809D02*
X69876479Y-81110571D01*
X69876479Y-81110571D02*
X69781241Y-81062952D01*
X69781241Y-81062952D02*
X69590765Y-81062952D01*
X69590765Y-81062952D02*
X69495527Y-81110571D01*
X69495527Y-81110571D02*
X69447908Y-81205809D01*
X69447908Y-81205809D02*
X69447908Y-81301047D01*
X69447908Y-81301047D02*
X69924098Y-81396285D01*
X69019336Y-81062952D02*
X69019336Y-81920095D01*
X69019336Y-81920095D02*
X69066955Y-82015333D01*
X69066955Y-82015333D02*
X69162193Y-82062952D01*
X69162193Y-82062952D02*
X69209812Y-82062952D01*
X69019336Y-80729619D02*
X69066955Y-80777238D01*
X69066955Y-80777238D02*
X69019336Y-80824857D01*
X69019336Y-80824857D02*
X68971717Y-80777238D01*
X68971717Y-80777238D02*
X69019336Y-80729619D01*
X69019336Y-80729619D02*
X69019336Y-80824857D01*
X67876479Y-80729619D02*
X67638384Y-81729619D01*
X67638384Y-81729619D02*
X67447908Y-81015333D01*
X67447908Y-81015333D02*
X67257432Y-81729619D01*
X67257432Y-81729619D02*
X67019337Y-80729619D01*
X66638384Y-81729619D02*
X66638384Y-81062952D01*
X66638384Y-80729619D02*
X66686003Y-80777238D01*
X66686003Y-80777238D02*
X66638384Y-80824857D01*
X66638384Y-80824857D02*
X66590765Y-80777238D01*
X66590765Y-80777238D02*
X66638384Y-80729619D01*
X66638384Y-80729619D02*
X66638384Y-80824857D01*
X66305051Y-81062952D02*
X65924099Y-81062952D01*
X66162194Y-80729619D02*
X66162194Y-81586761D01*
X66162194Y-81586761D02*
X66114575Y-81682000D01*
X66114575Y-81682000D02*
X66019337Y-81729619D01*
X66019337Y-81729619D02*
X65924099Y-81729619D01*
X65590765Y-81729619D02*
X65590765Y-80729619D01*
X65495527Y-81348666D02*
X65209813Y-81729619D01*
X65209813Y-81062952D02*
X65590765Y-81443904D01*
X64638384Y-81729619D02*
X64733622Y-81682000D01*
X64733622Y-81682000D02*
X64781241Y-81634380D01*
X64781241Y-81634380D02*
X64828860Y-81539142D01*
X64828860Y-81539142D02*
X64828860Y-81253428D01*
X64828860Y-81253428D02*
X64781241Y-81158190D01*
X64781241Y-81158190D02*
X64733622Y-81110571D01*
X64733622Y-81110571D02*
X64638384Y-81062952D01*
X64638384Y-81062952D02*
X64495527Y-81062952D01*
X64495527Y-81062952D02*
X64400289Y-81110571D01*
X64400289Y-81110571D02*
X64352670Y-81158190D01*
X64352670Y-81158190D02*
X64305051Y-81253428D01*
X64305051Y-81253428D02*
X64305051Y-81539142D01*
X64305051Y-81539142D02*
X64352670Y-81634380D01*
X64352670Y-81634380D02*
X64400289Y-81682000D01*
X64400289Y-81682000D02*
X64495527Y-81729619D01*
X64495527Y-81729619D02*
X64638384Y-81729619D01*
X63971717Y-81062952D02*
X63781241Y-81729619D01*
X63781241Y-81729619D02*
X63590765Y-81253428D01*
X63590765Y-81253428D02*
X63400289Y-81729619D01*
X63400289Y-81729619D02*
X63209813Y-81062952D01*
X62828860Y-81729619D02*
X62828860Y-81062952D01*
X62828860Y-80729619D02*
X62876479Y-80777238D01*
X62876479Y-80777238D02*
X62828860Y-80824857D01*
X62828860Y-80824857D02*
X62781241Y-80777238D01*
X62781241Y-80777238D02*
X62828860Y-80729619D01*
X62828860Y-80729619D02*
X62828860Y-80824857D01*
X61924099Y-81729619D02*
X61924099Y-81205809D01*
X61924099Y-81205809D02*
X61971718Y-81110571D01*
X61971718Y-81110571D02*
X62066956Y-81062952D01*
X62066956Y-81062952D02*
X62257432Y-81062952D01*
X62257432Y-81062952D02*
X62352670Y-81110571D01*
X61924099Y-81682000D02*
X62019337Y-81729619D01*
X62019337Y-81729619D02*
X62257432Y-81729619D01*
X62257432Y-81729619D02*
X62352670Y-81682000D01*
X62352670Y-81682000D02*
X62400289Y-81586761D01*
X62400289Y-81586761D02*
X62400289Y-81491523D01*
X62400289Y-81491523D02*
X62352670Y-81396285D01*
X62352670Y-81396285D02*
X62257432Y-81348666D01*
X62257432Y-81348666D02*
X62019337Y-81348666D01*
X62019337Y-81348666D02*
X61924099Y-81301047D01*
X61447908Y-81729619D02*
X61447908Y-80729619D01*
X61352670Y-81348666D02*
X61066956Y-81729619D01*
X61066956Y-81062952D02*
X61447908Y-81443904D01*
X59114575Y-81062952D02*
X59876479Y-81348666D01*
X59876479Y-81348666D02*
X59114575Y-81634380D01*
X58733622Y-81062952D02*
X58495527Y-81729619D01*
X58257432Y-81062952D02*
X58495527Y-81729619D01*
X58495527Y-81729619D02*
X58590765Y-81967714D01*
X58590765Y-81967714D02*
X58638384Y-82015333D01*
X58638384Y-82015333D02*
X58733622Y-82062952D01*
X58019336Y-81062952D02*
X57638384Y-81062952D01*
X57876479Y-80729619D02*
X57876479Y-81586761D01*
X57876479Y-81586761D02*
X57828860Y-81682000D01*
X57828860Y-81682000D02*
X57733622Y-81729619D01*
X57733622Y-81729619D02*
X57638384Y-81729619D01*
X57305050Y-81729619D02*
X57305050Y-81062952D01*
X57305050Y-81158190D02*
X57257431Y-81110571D01*
X57257431Y-81110571D02*
X57162193Y-81062952D01*
X57162193Y-81062952D02*
X57019336Y-81062952D01*
X57019336Y-81062952D02*
X56924098Y-81110571D01*
X56924098Y-81110571D02*
X56876479Y-81205809D01*
X56876479Y-81205809D02*
X56876479Y-81729619D01*
X56876479Y-81205809D02*
X56828860Y-81110571D01*
X56828860Y-81110571D02*
X56733622Y-81062952D01*
X56733622Y-81062952D02*
X56590765Y-81062952D01*
X56590765Y-81062952D02*
X56495526Y-81110571D01*
X56495526Y-81110571D02*
X56447907Y-81205809D01*
X56447907Y-81205809D02*
X56447907Y-81729619D01*
X55352670Y-81253428D02*
X55400289Y-81205809D01*
X55400289Y-81205809D02*
X55495527Y-81158190D01*
X55495527Y-81158190D02*
X55590765Y-81158190D01*
X55590765Y-81158190D02*
X55686003Y-81205809D01*
X55686003Y-81205809D02*
X55733622Y-81253428D01*
X55733622Y-81253428D02*
X55781241Y-81348666D01*
X55781241Y-81348666D02*
X55781241Y-81443904D01*
X55781241Y-81443904D02*
X55733622Y-81539142D01*
X55733622Y-81539142D02*
X55686003Y-81586761D01*
X55686003Y-81586761D02*
X55590765Y-81634380D01*
X55590765Y-81634380D02*
X55495527Y-81634380D01*
X55495527Y-81634380D02*
X55400289Y-81586761D01*
X55400289Y-81586761D02*
X55352670Y-81539142D01*
X55352670Y-81158190D02*
X55352670Y-81539142D01*
X55352670Y-81539142D02*
X55305051Y-81586761D01*
X55305051Y-81586761D02*
X55257432Y-81586761D01*
X55257432Y-81586761D02*
X55162193Y-81539142D01*
X55162193Y-81539142D02*
X55114574Y-81443904D01*
X55114574Y-81443904D02*
X55114574Y-81205809D01*
X55114574Y-81205809D02*
X55209813Y-81062952D01*
X55209813Y-81062952D02*
X55352670Y-80967714D01*
X55352670Y-80967714D02*
X55543146Y-80920095D01*
X55543146Y-80920095D02*
X55733622Y-80967714D01*
X55733622Y-80967714D02*
X55876479Y-81062952D01*
X55876479Y-81062952D02*
X55971717Y-81205809D01*
X55971717Y-81205809D02*
X56019336Y-81396285D01*
X56019336Y-81396285D02*
X55971717Y-81586761D01*
X55971717Y-81586761D02*
X55876479Y-81729619D01*
X55876479Y-81729619D02*
X55733622Y-81824857D01*
X55733622Y-81824857D02*
X55543146Y-81872476D01*
X55543146Y-81872476D02*
X55352670Y-81824857D01*
X55352670Y-81824857D02*
X55209813Y-81729619D01*
X54305051Y-81682000D02*
X54400289Y-81729619D01*
X54400289Y-81729619D02*
X54590765Y-81729619D01*
X54590765Y-81729619D02*
X54686003Y-81682000D01*
X54686003Y-81682000D02*
X54733622Y-81586761D01*
X54733622Y-81586761D02*
X54733622Y-81205809D01*
X54733622Y-81205809D02*
X54686003Y-81110571D01*
X54686003Y-81110571D02*
X54590765Y-81062952D01*
X54590765Y-81062952D02*
X54400289Y-81062952D01*
X54400289Y-81062952D02*
X54305051Y-81110571D01*
X54305051Y-81110571D02*
X54257432Y-81205809D01*
X54257432Y-81205809D02*
X54257432Y-81301047D01*
X54257432Y-81301047D02*
X54733622Y-81396285D01*
X53686003Y-81729619D02*
X53781241Y-81682000D01*
X53781241Y-81682000D02*
X53828860Y-81586761D01*
X53828860Y-81586761D02*
X53828860Y-80729619D01*
X53400288Y-81062952D02*
X53162193Y-81729619D01*
X52924098Y-81062952D02*
X53162193Y-81729619D01*
X53162193Y-81729619D02*
X53257431Y-81967714D01*
X53257431Y-81967714D02*
X53305050Y-82015333D01*
X53305050Y-82015333D02*
X53400288Y-82062952D01*
X52590764Y-81682000D02*
X52495526Y-81729619D01*
X52495526Y-81729619D02*
X52305050Y-81729619D01*
X52305050Y-81729619D02*
X52209812Y-81682000D01*
X52209812Y-81682000D02*
X52162193Y-81586761D01*
X52162193Y-81586761D02*
X52162193Y-81539142D01*
X52162193Y-81539142D02*
X52209812Y-81443904D01*
X52209812Y-81443904D02*
X52305050Y-81396285D01*
X52305050Y-81396285D02*
X52447907Y-81396285D01*
X52447907Y-81396285D02*
X52543145Y-81348666D01*
X52543145Y-81348666D02*
X52590764Y-81253428D01*
X52590764Y-81253428D02*
X52590764Y-81205809D01*
X52590764Y-81205809D02*
X52543145Y-81110571D01*
X52543145Y-81110571D02*
X52447907Y-81062952D01*
X52447907Y-81062952D02*
X52305050Y-81062952D01*
X52305050Y-81062952D02*
X52209812Y-81110571D01*
X51733621Y-81729619D02*
X51733621Y-81062952D01*
X51733621Y-80729619D02*
X51781240Y-80777238D01*
X51781240Y-80777238D02*
X51733621Y-80824857D01*
X51733621Y-80824857D02*
X51686002Y-80777238D01*
X51686002Y-80777238D02*
X51733621Y-80729619D01*
X51733621Y-80729619D02*
X51733621Y-80824857D01*
X50828860Y-81062952D02*
X50828860Y-81729619D01*
X51257431Y-81062952D02*
X51257431Y-81586761D01*
X51257431Y-81586761D02*
X51209812Y-81682000D01*
X51209812Y-81682000D02*
X51114574Y-81729619D01*
X51114574Y-81729619D02*
X50971717Y-81729619D01*
X50971717Y-81729619D02*
X50876479Y-81682000D01*
X50876479Y-81682000D02*
X50828860Y-81634380D01*
X50352669Y-81729619D02*
X50352669Y-81062952D01*
X50352669Y-81158190D02*
X50305050Y-81110571D01*
X50305050Y-81110571D02*
X50209812Y-81062952D01*
X50209812Y-81062952D02*
X50066955Y-81062952D01*
X50066955Y-81062952D02*
X49971717Y-81110571D01*
X49971717Y-81110571D02*
X49924098Y-81205809D01*
X49924098Y-81205809D02*
X49924098Y-81729619D01*
X49924098Y-81205809D02*
X49876479Y-81110571D01*
X49876479Y-81110571D02*
X49781241Y-81062952D01*
X49781241Y-81062952D02*
X49638384Y-81062952D01*
X49638384Y-81062952D02*
X49543145Y-81110571D01*
X49543145Y-81110571D02*
X49495526Y-81205809D01*
X49495526Y-81205809D02*
X49495526Y-81729619D01*
X49019336Y-81634380D02*
X48971717Y-81682000D01*
X48971717Y-81682000D02*
X49019336Y-81729619D01*
X49019336Y-81729619D02*
X49066955Y-81682000D01*
X49066955Y-81682000D02*
X49019336Y-81634380D01*
X49019336Y-81634380D02*
X49019336Y-81729619D01*
X48543146Y-81062952D02*
X48543146Y-82062952D01*
X48543146Y-81110571D02*
X48447908Y-81062952D01*
X48447908Y-81062952D02*
X48257432Y-81062952D01*
X48257432Y-81062952D02*
X48162194Y-81110571D01*
X48162194Y-81110571D02*
X48114575Y-81158190D01*
X48114575Y-81158190D02*
X48066956Y-81253428D01*
X48066956Y-81253428D02*
X48066956Y-81539142D01*
X48066956Y-81539142D02*
X48114575Y-81634380D01*
X48114575Y-81634380D02*
X48162194Y-81682000D01*
X48162194Y-81682000D02*
X48257432Y-81729619D01*
X48257432Y-81729619D02*
X48447908Y-81729619D01*
X48447908Y-81729619D02*
X48543146Y-81682000D01*
X47495527Y-81729619D02*
X47590765Y-81682000D01*
X47590765Y-81682000D02*
X47638384Y-81586761D01*
X47638384Y-81586761D02*
X47638384Y-80729619D01*
X47114574Y-81062952D02*
X46352670Y-81348666D01*
X46352670Y-81348666D02*
X47114574Y-81634380D01*
X45828860Y-81682000D02*
X45828860Y-81729619D01*
X45828860Y-81729619D02*
X45876479Y-81824857D01*
X45876479Y-81824857D02*
X45924098Y-81872476D01*
X44733622Y-80729619D02*
X44066956Y-81729619D01*
X44066956Y-80729619D02*
X44733622Y-81729619D01*
X42971717Y-80824857D02*
X42924098Y-80777238D01*
X42924098Y-80777238D02*
X42828860Y-80729619D01*
X42828860Y-80729619D02*
X42590765Y-80729619D01*
X42590765Y-80729619D02*
X42495527Y-80777238D01*
X42495527Y-80777238D02*
X42447908Y-80824857D01*
X42447908Y-80824857D02*
X42400289Y-80920095D01*
X42400289Y-80920095D02*
X42400289Y-81015333D01*
X42400289Y-81015333D02*
X42447908Y-81158190D01*
X42447908Y-81158190D02*
X43019336Y-81729619D01*
X43019336Y-81729619D02*
X42400289Y-81729619D01*
X41781241Y-80729619D02*
X41686003Y-80729619D01*
X41686003Y-80729619D02*
X41590765Y-80777238D01*
X41590765Y-80777238D02*
X41543146Y-80824857D01*
X41543146Y-80824857D02*
X41495527Y-80920095D01*
X41495527Y-80920095D02*
X41447908Y-81110571D01*
X41447908Y-81110571D02*
X41447908Y-81348666D01*
X41447908Y-81348666D02*
X41495527Y-81539142D01*
X41495527Y-81539142D02*
X41543146Y-81634380D01*
X41543146Y-81634380D02*
X41590765Y-81682000D01*
X41590765Y-81682000D02*
X41686003Y-81729619D01*
X41686003Y-81729619D02*
X41781241Y-81729619D01*
X41781241Y-81729619D02*
X41876479Y-81682000D01*
X41876479Y-81682000D02*
X41924098Y-81634380D01*
X41924098Y-81634380D02*
X41971717Y-81539142D01*
X41971717Y-81539142D02*
X42019336Y-81348666D01*
X42019336Y-81348666D02*
X42019336Y-81110571D01*
X42019336Y-81110571D02*
X41971717Y-80920095D01*
X41971717Y-80920095D02*
X41924098Y-80824857D01*
X41924098Y-80824857D02*
X41876479Y-80777238D01*
X41876479Y-80777238D02*
X41781241Y-80729619D01*
X41066955Y-80824857D02*
X41019336Y-80777238D01*
X41019336Y-80777238D02*
X40924098Y-80729619D01*
X40924098Y-80729619D02*
X40686003Y-80729619D01*
X40686003Y-80729619D02*
X40590765Y-80777238D01*
X40590765Y-80777238D02*
X40543146Y-80824857D01*
X40543146Y-80824857D02*
X40495527Y-80920095D01*
X40495527Y-80920095D02*
X40495527Y-81015333D01*
X40495527Y-81015333D02*
X40543146Y-81158190D01*
X40543146Y-81158190D02*
X41114574Y-81729619D01*
X41114574Y-81729619D02*
X40495527Y-81729619D01*
X39590765Y-80729619D02*
X40066955Y-80729619D01*
X40066955Y-80729619D02*
X40114574Y-81205809D01*
X40114574Y-81205809D02*
X40066955Y-81158190D01*
X40066955Y-81158190D02*
X39971717Y-81110571D01*
X39971717Y-81110571D02*
X39733622Y-81110571D01*
X39733622Y-81110571D02*
X39638384Y-81158190D01*
X39638384Y-81158190D02*
X39590765Y-81205809D01*
X39590765Y-81205809D02*
X39543146Y-81301047D01*
X39543146Y-81301047D02*
X39543146Y-81539142D01*
X39543146Y-81539142D02*
X39590765Y-81634380D01*
X39590765Y-81634380D02*
X39638384Y-81682000D01*
X39638384Y-81682000D02*
X39733622Y-81729619D01*
X39733622Y-81729619D02*
X39971717Y-81729619D01*
X39971717Y-81729619D02*
X40066955Y-81682000D01*
X40066955Y-81682000D02*
X40114574Y-81634380D01*
D11*
X73105489Y-79926328D02*
X73105489Y-78426328D01*
X72462632Y-79926328D02*
X72462632Y-79140614D01*
X72462632Y-79140614D02*
X72534060Y-78997757D01*
X72534060Y-78997757D02*
X72676917Y-78926328D01*
X72676917Y-78926328D02*
X72891203Y-78926328D01*
X72891203Y-78926328D02*
X73034060Y-78997757D01*
X73034060Y-78997757D02*
X73105489Y-79069185D01*
X71962631Y-78926328D02*
X71391203Y-78926328D01*
X71748346Y-78426328D02*
X71748346Y-79712042D01*
X71748346Y-79712042D02*
X71676917Y-79854900D01*
X71676917Y-79854900D02*
X71534060Y-79926328D01*
X71534060Y-79926328D02*
X71391203Y-79926328D01*
X71105488Y-78926328D02*
X70534060Y-78926328D01*
X70891203Y-78426328D02*
X70891203Y-79712042D01*
X70891203Y-79712042D02*
X70819774Y-79854900D01*
X70819774Y-79854900D02*
X70676917Y-79926328D01*
X70676917Y-79926328D02*
X70534060Y-79926328D01*
X70034060Y-78926328D02*
X70034060Y-80426328D01*
X70034060Y-78997757D02*
X69891203Y-78926328D01*
X69891203Y-78926328D02*
X69605488Y-78926328D01*
X69605488Y-78926328D02*
X69462631Y-78997757D01*
X69462631Y-78997757D02*
X69391203Y-79069185D01*
X69391203Y-79069185D02*
X69319774Y-79212042D01*
X69319774Y-79212042D02*
X69319774Y-79640614D01*
X69319774Y-79640614D02*
X69391203Y-79783471D01*
X69391203Y-79783471D02*
X69462631Y-79854900D01*
X69462631Y-79854900D02*
X69605488Y-79926328D01*
X69605488Y-79926328D02*
X69891203Y-79926328D01*
X69891203Y-79926328D02*
X70034060Y-79854900D01*
X68748345Y-79854900D02*
X68605488Y-79926328D01*
X68605488Y-79926328D02*
X68319774Y-79926328D01*
X68319774Y-79926328D02*
X68176917Y-79854900D01*
X68176917Y-79854900D02*
X68105488Y-79712042D01*
X68105488Y-79712042D02*
X68105488Y-79640614D01*
X68105488Y-79640614D02*
X68176917Y-79497757D01*
X68176917Y-79497757D02*
X68319774Y-79426328D01*
X68319774Y-79426328D02*
X68534060Y-79426328D01*
X68534060Y-79426328D02*
X68676917Y-79354900D01*
X68676917Y-79354900D02*
X68748345Y-79212042D01*
X68748345Y-79212042D02*
X68748345Y-79140614D01*
X68748345Y-79140614D02*
X68676917Y-78997757D01*
X68676917Y-78997757D02*
X68534060Y-78926328D01*
X68534060Y-78926328D02*
X68319774Y-78926328D01*
X68319774Y-78926328D02*
X68176917Y-78997757D01*
X67462631Y-79783471D02*
X67391202Y-79854900D01*
X67391202Y-79854900D02*
X67462631Y-79926328D01*
X67462631Y-79926328D02*
X67534059Y-79854900D01*
X67534059Y-79854900D02*
X67462631Y-79783471D01*
X67462631Y-79783471D02*
X67462631Y-79926328D01*
X67462631Y-78997757D02*
X67391202Y-79069185D01*
X67391202Y-79069185D02*
X67462631Y-79140614D01*
X67462631Y-79140614D02*
X67534059Y-79069185D01*
X67534059Y-79069185D02*
X67462631Y-78997757D01*
X67462631Y-78997757D02*
X67462631Y-79140614D01*
X65676916Y-78354900D02*
X66962630Y-80283471D01*
X64105487Y-78354900D02*
X65391201Y-80283471D01*
X62962630Y-79854900D02*
X63105487Y-79926328D01*
X63105487Y-79926328D02*
X63391201Y-79926328D01*
X63391201Y-79926328D02*
X63534058Y-79854900D01*
X63534058Y-79854900D02*
X63605487Y-79783471D01*
X63605487Y-79783471D02*
X63676915Y-79640614D01*
X63676915Y-79640614D02*
X63676915Y-79212042D01*
X63676915Y-79212042D02*
X63605487Y-79069185D01*
X63605487Y-79069185D02*
X63534058Y-78997757D01*
X63534058Y-78997757D02*
X63391201Y-78926328D01*
X63391201Y-78926328D02*
X63105487Y-78926328D01*
X63105487Y-78926328D02*
X62962630Y-78997757D01*
X62319773Y-79926328D02*
X62319773Y-78426328D01*
X62319773Y-78997757D02*
X62176916Y-78926328D01*
X62176916Y-78926328D02*
X61891201Y-78926328D01*
X61891201Y-78926328D02*
X61748344Y-78997757D01*
X61748344Y-78997757D02*
X61676916Y-79069185D01*
X61676916Y-79069185D02*
X61605487Y-79212042D01*
X61605487Y-79212042D02*
X61605487Y-79640614D01*
X61605487Y-79640614D02*
X61676916Y-79783471D01*
X61676916Y-79783471D02*
X61748344Y-79854900D01*
X61748344Y-79854900D02*
X61891201Y-79926328D01*
X61891201Y-79926328D02*
X62176916Y-79926328D01*
X62176916Y-79926328D02*
X62319773Y-79854900D01*
X60962630Y-79926328D02*
X60962630Y-78926328D01*
X60962630Y-79069185D02*
X60891201Y-78997757D01*
X60891201Y-78997757D02*
X60748344Y-78926328D01*
X60748344Y-78926328D02*
X60534058Y-78926328D01*
X60534058Y-78926328D02*
X60391201Y-78997757D01*
X60391201Y-78997757D02*
X60319773Y-79140614D01*
X60319773Y-79140614D02*
X60319773Y-79926328D01*
X60319773Y-79140614D02*
X60248344Y-78997757D01*
X60248344Y-78997757D02*
X60105487Y-78926328D01*
X60105487Y-78926328D02*
X59891201Y-78926328D01*
X59891201Y-78926328D02*
X59748344Y-78997757D01*
X59748344Y-78997757D02*
X59676915Y-79140614D01*
X59676915Y-79140614D02*
X59676915Y-79926328D01*
X58962630Y-79354900D02*
X57819773Y-79354900D01*
X57105487Y-78926328D02*
X57105487Y-80426328D01*
X57105487Y-78997757D02*
X56962630Y-78926328D01*
X56962630Y-78926328D02*
X56676915Y-78926328D01*
X56676915Y-78926328D02*
X56534058Y-78997757D01*
X56534058Y-78997757D02*
X56462630Y-79069185D01*
X56462630Y-79069185D02*
X56391201Y-79212042D01*
X56391201Y-79212042D02*
X56391201Y-79640614D01*
X56391201Y-79640614D02*
X56462630Y-79783471D01*
X56462630Y-79783471D02*
X56534058Y-79854900D01*
X56534058Y-79854900D02*
X56676915Y-79926328D01*
X56676915Y-79926328D02*
X56962630Y-79926328D01*
X56962630Y-79926328D02*
X57105487Y-79854900D01*
X55748344Y-79926328D02*
X55748344Y-78926328D01*
X55748344Y-78426328D02*
X55819772Y-78497757D01*
X55819772Y-78497757D02*
X55748344Y-78569185D01*
X55748344Y-78569185D02*
X55676915Y-78497757D01*
X55676915Y-78497757D02*
X55748344Y-78426328D01*
X55748344Y-78426328D02*
X55748344Y-78569185D01*
X54248343Y-79926328D02*
X55105486Y-79926328D01*
X54676915Y-79926328D02*
X54676915Y-78426328D01*
X54676915Y-78426328D02*
X54819772Y-78640614D01*
X54819772Y-78640614D02*
X54962629Y-78783471D01*
X54962629Y-78783471D02*
X55105486Y-78854900D01*
X52891201Y-78426328D02*
X53605487Y-78426328D01*
X53605487Y-78426328D02*
X53676915Y-79140614D01*
X53676915Y-79140614D02*
X53605487Y-79069185D01*
X53605487Y-79069185D02*
X53462630Y-78997757D01*
X53462630Y-78997757D02*
X53105487Y-78997757D01*
X53105487Y-78997757D02*
X52962630Y-79069185D01*
X52962630Y-79069185D02*
X52891201Y-79140614D01*
X52891201Y-79140614D02*
X52819772Y-79283471D01*
X52819772Y-79283471D02*
X52819772Y-79640614D01*
X52819772Y-79640614D02*
X52891201Y-79783471D01*
X52891201Y-79783471D02*
X52962630Y-79854900D01*
X52962630Y-79854900D02*
X53105487Y-79926328D01*
X53105487Y-79926328D02*
X53462630Y-79926328D01*
X53462630Y-79926328D02*
X53605487Y-79854900D01*
X53605487Y-79854900D02*
X53676915Y-79783471D01*
X51534059Y-78926328D02*
X51534059Y-79926328D01*
X51891201Y-78354900D02*
X52248344Y-79426328D01*
X52248344Y-79426328D02*
X51319773Y-79426328D01*
X49962630Y-79926328D02*
X50819773Y-79926328D01*
X50391202Y-79926328D02*
X50391202Y-78426328D01*
X50391202Y-78426328D02*
X50534059Y-78640614D01*
X50534059Y-78640614D02*
X50676916Y-78783471D01*
X50676916Y-78783471D02*
X50819773Y-78854900D01*
X49319774Y-79783471D02*
X49248345Y-79854900D01*
X49248345Y-79854900D02*
X49319774Y-79926328D01*
X49319774Y-79926328D02*
X49391202Y-79854900D01*
X49391202Y-79854900D02*
X49319774Y-79783471D01*
X49319774Y-79783471D02*
X49319774Y-79926328D01*
X48819773Y-78926328D02*
X48248345Y-78926328D01*
X48605488Y-79926328D02*
X48605488Y-78640614D01*
X48605488Y-78640614D02*
X48534059Y-78497757D01*
X48534059Y-78497757D02*
X48391202Y-78426328D01*
X48391202Y-78426328D02*
X48248345Y-78426328D01*
X47748345Y-79926328D02*
X47748345Y-78926328D01*
X47748345Y-78426328D02*
X47819773Y-78497757D01*
X47819773Y-78497757D02*
X47748345Y-78569185D01*
X47748345Y-78569185D02*
X47676916Y-78497757D01*
X47676916Y-78497757D02*
X47748345Y-78426328D01*
X47748345Y-78426328D02*
X47748345Y-78569185D01*
X47034059Y-79926328D02*
X47034059Y-78926328D01*
X47034059Y-79212042D02*
X46962630Y-79069185D01*
X46962630Y-79069185D02*
X46891202Y-78997757D01*
X46891202Y-78997757D02*
X46748344Y-78926328D01*
X46748344Y-78926328D02*
X46605487Y-78926328D01*
X45534059Y-79854900D02*
X45676916Y-79926328D01*
X45676916Y-79926328D02*
X45962631Y-79926328D01*
X45962631Y-79926328D02*
X46105488Y-79854900D01*
X46105488Y-79854900D02*
X46176916Y-79712042D01*
X46176916Y-79712042D02*
X46176916Y-79140614D01*
X46176916Y-79140614D02*
X46105488Y-78997757D01*
X46105488Y-78997757D02*
X45962631Y-78926328D01*
X45962631Y-78926328D02*
X45676916Y-78926328D01*
X45676916Y-78926328D02*
X45534059Y-78997757D01*
X45534059Y-78997757D02*
X45462631Y-79140614D01*
X45462631Y-79140614D02*
X45462631Y-79283471D01*
X45462631Y-79283471D02*
X46176916Y-79426328D01*
X44819774Y-79926328D02*
X44819774Y-78426328D01*
X44819774Y-78997757D02*
X44676917Y-78926328D01*
X44676917Y-78926328D02*
X44391202Y-78926328D01*
X44391202Y-78926328D02*
X44248345Y-78997757D01*
X44248345Y-78997757D02*
X44176917Y-79069185D01*
X44176917Y-79069185D02*
X44105488Y-79212042D01*
X44105488Y-79212042D02*
X44105488Y-79640614D01*
X44105488Y-79640614D02*
X44176917Y-79783471D01*
X44176917Y-79783471D02*
X44248345Y-79854900D01*
X44248345Y-79854900D02*
X44391202Y-79926328D01*
X44391202Y-79926328D02*
X44676917Y-79926328D01*
X44676917Y-79926328D02*
X44819774Y-79854900D01*
X42819774Y-79926328D02*
X42819774Y-79140614D01*
X42819774Y-79140614D02*
X42891202Y-78997757D01*
X42891202Y-78997757D02*
X43034059Y-78926328D01*
X43034059Y-78926328D02*
X43319774Y-78926328D01*
X43319774Y-78926328D02*
X43462631Y-78997757D01*
X42819774Y-79854900D02*
X42962631Y-79926328D01*
X42962631Y-79926328D02*
X43319774Y-79926328D01*
X43319774Y-79926328D02*
X43462631Y-79854900D01*
X43462631Y-79854900D02*
X43534059Y-79712042D01*
X43534059Y-79712042D02*
X43534059Y-79569185D01*
X43534059Y-79569185D02*
X43462631Y-79426328D01*
X43462631Y-79426328D02*
X43319774Y-79354900D01*
X43319774Y-79354900D02*
X42962631Y-79354900D01*
X42962631Y-79354900D02*
X42819774Y-79283471D01*
X42176916Y-79854900D02*
X42034059Y-79926328D01*
X42034059Y-79926328D02*
X41748345Y-79926328D01*
X41748345Y-79926328D02*
X41605488Y-79854900D01*
X41605488Y-79854900D02*
X41534059Y-79712042D01*
X41534059Y-79712042D02*
X41534059Y-79640614D01*
X41534059Y-79640614D02*
X41605488Y-79497757D01*
X41605488Y-79497757D02*
X41748345Y-79426328D01*
X41748345Y-79426328D02*
X41962631Y-79426328D01*
X41962631Y-79426328D02*
X42105488Y-79354900D01*
X42105488Y-79354900D02*
X42176916Y-79212042D01*
X42176916Y-79212042D02*
X42176916Y-79140614D01*
X42176916Y-79140614D02*
X42105488Y-78997757D01*
X42105488Y-78997757D02*
X41962631Y-78926328D01*
X41962631Y-78926328D02*
X41748345Y-78926328D01*
X41748345Y-78926328D02*
X41605488Y-78997757D01*
X40319773Y-79854900D02*
X40462630Y-79926328D01*
X40462630Y-79926328D02*
X40748345Y-79926328D01*
X40748345Y-79926328D02*
X40891202Y-79854900D01*
X40891202Y-79854900D02*
X40962630Y-79712042D01*
X40962630Y-79712042D02*
X40962630Y-79140614D01*
X40962630Y-79140614D02*
X40891202Y-78997757D01*
X40891202Y-78997757D02*
X40748345Y-78926328D01*
X40748345Y-78926328D02*
X40462630Y-78926328D01*
X40462630Y-78926328D02*
X40319773Y-78997757D01*
X40319773Y-78997757D02*
X40248345Y-79140614D01*
X40248345Y-79140614D02*
X40248345Y-79283471D01*
X40248345Y-79283471D02*
X40962630Y-79426328D01*
X38962631Y-79926328D02*
X38962631Y-79140614D01*
X38962631Y-79140614D02*
X39034059Y-78997757D01*
X39034059Y-78997757D02*
X39176916Y-78926328D01*
X39176916Y-78926328D02*
X39462631Y-78926328D01*
X39462631Y-78926328D02*
X39605488Y-78997757D01*
X38962631Y-79854900D02*
X39105488Y-79926328D01*
X39105488Y-79926328D02*
X39462631Y-79926328D01*
X39462631Y-79926328D02*
X39605488Y-79854900D01*
X39605488Y-79854900D02*
X39676916Y-79712042D01*
X39676916Y-79712042D02*
X39676916Y-79569185D01*
X39676916Y-79569185D02*
X39605488Y-79426328D01*
X39605488Y-79426328D02*
X39462631Y-79354900D01*
X39462631Y-79354900D02*
X39105488Y-79354900D01*
X39105488Y-79354900D02*
X38962631Y-79283471D01*
X38248345Y-78926328D02*
X38248345Y-80426328D01*
X38248345Y-78997757D02*
X38105488Y-78926328D01*
X38105488Y-78926328D02*
X37819773Y-78926328D01*
X37819773Y-78926328D02*
X37676916Y-78997757D01*
X37676916Y-78997757D02*
X37605488Y-79069185D01*
X37605488Y-79069185D02*
X37534059Y-79212042D01*
X37534059Y-79212042D02*
X37534059Y-79640614D01*
X37534059Y-79640614D02*
X37605488Y-79783471D01*
X37605488Y-79783471D02*
X37676916Y-79854900D01*
X37676916Y-79854900D02*
X37819773Y-79926328D01*
X37819773Y-79926328D02*
X38105488Y-79926328D01*
X38105488Y-79926328D02*
X38248345Y-79854900D01*
X36891202Y-78926328D02*
X36891202Y-80426328D01*
X36891202Y-78997757D02*
X36748345Y-78926328D01*
X36748345Y-78926328D02*
X36462630Y-78926328D01*
X36462630Y-78926328D02*
X36319773Y-78997757D01*
X36319773Y-78997757D02*
X36248345Y-79069185D01*
X36248345Y-79069185D02*
X36176916Y-79212042D01*
X36176916Y-79212042D02*
X36176916Y-79640614D01*
X36176916Y-79640614D02*
X36248345Y-79783471D01*
X36248345Y-79783471D02*
X36319773Y-79854900D01*
X36319773Y-79854900D02*
X36462630Y-79926328D01*
X36462630Y-79926328D02*
X36748345Y-79926328D01*
X36748345Y-79926328D02*
X36891202Y-79854900D01*
X35534059Y-79783471D02*
X35462630Y-79854900D01*
X35462630Y-79854900D02*
X35534059Y-79926328D01*
X35534059Y-79926328D02*
X35605487Y-79854900D01*
X35605487Y-79854900D02*
X35534059Y-79783471D01*
X35534059Y-79783471D02*
X35534059Y-79926328D01*
X34176916Y-79854900D02*
X34319773Y-79926328D01*
X34319773Y-79926328D02*
X34605487Y-79926328D01*
X34605487Y-79926328D02*
X34748344Y-79854900D01*
X34748344Y-79854900D02*
X34819773Y-79783471D01*
X34819773Y-79783471D02*
X34891201Y-79640614D01*
X34891201Y-79640614D02*
X34891201Y-79212042D01*
X34891201Y-79212042D02*
X34819773Y-79069185D01*
X34819773Y-79069185D02*
X34748344Y-78997757D01*
X34748344Y-78997757D02*
X34605487Y-78926328D01*
X34605487Y-78926328D02*
X34319773Y-78926328D01*
X34319773Y-78926328D02*
X34176916Y-78997757D01*
X33319773Y-79926328D02*
X33462630Y-79854900D01*
X33462630Y-79854900D02*
X33534059Y-79783471D01*
X33534059Y-79783471D02*
X33605487Y-79640614D01*
X33605487Y-79640614D02*
X33605487Y-79212042D01*
X33605487Y-79212042D02*
X33534059Y-79069185D01*
X33534059Y-79069185D02*
X33462630Y-78997757D01*
X33462630Y-78997757D02*
X33319773Y-78926328D01*
X33319773Y-78926328D02*
X33105487Y-78926328D01*
X33105487Y-78926328D02*
X32962630Y-78997757D01*
X32962630Y-78997757D02*
X32891202Y-79069185D01*
X32891202Y-79069185D02*
X32819773Y-79212042D01*
X32819773Y-79212042D02*
X32819773Y-79640614D01*
X32819773Y-79640614D02*
X32891202Y-79783471D01*
X32891202Y-79783471D02*
X32962630Y-79854900D01*
X32962630Y-79854900D02*
X33105487Y-79926328D01*
X33105487Y-79926328D02*
X33319773Y-79926328D01*
X32176916Y-79926328D02*
X32176916Y-78926328D01*
X32176916Y-79069185D02*
X32105487Y-78997757D01*
X32105487Y-78997757D02*
X31962630Y-78926328D01*
X31962630Y-78926328D02*
X31748344Y-78926328D01*
X31748344Y-78926328D02*
X31605487Y-78997757D01*
X31605487Y-78997757D02*
X31534059Y-79140614D01*
X31534059Y-79140614D02*
X31534059Y-79926328D01*
X31534059Y-79140614D02*
X31462630Y-78997757D01*
X31462630Y-78997757D02*
X31319773Y-78926328D01*
X31319773Y-78926328D02*
X31105487Y-78926328D01*
X31105487Y-78926328D02*
X30962630Y-78997757D01*
X30962630Y-78997757D02*
X30891201Y-79140614D01*
X30891201Y-79140614D02*
X30891201Y-79926328D01*
D12*
X60562857Y-72529676D02*
X60062857Y-68529676D01*
X60062857Y-68529676D02*
X58539048Y-68529676D01*
X58539048Y-68529676D02*
X58181905Y-68720152D01*
X58181905Y-68720152D02*
X58015238Y-68910628D01*
X58015238Y-68910628D02*
X57872381Y-69291580D01*
X57872381Y-69291580D02*
X57943809Y-69863009D01*
X57943809Y-69863009D02*
X58181905Y-70243961D01*
X58181905Y-70243961D02*
X58396190Y-70434438D01*
X58396190Y-70434438D02*
X58800952Y-70624914D01*
X58800952Y-70624914D02*
X60324762Y-70624914D01*
X56562857Y-72529676D02*
X56229524Y-69863009D01*
X56062857Y-68529676D02*
X56277143Y-68720152D01*
X56277143Y-68720152D02*
X56110476Y-68910628D01*
X56110476Y-68910628D02*
X55896190Y-68720152D01*
X55896190Y-68720152D02*
X56062857Y-68529676D01*
X56062857Y-68529676D02*
X56110476Y-68910628D01*
X52562857Y-72529676D02*
X54848571Y-72529676D01*
X53705714Y-72529676D02*
X53205714Y-68529676D01*
X53205714Y-68529676D02*
X53658095Y-69101104D01*
X53658095Y-69101104D02*
X54086667Y-69482057D01*
X54086667Y-69482057D02*
X54491428Y-69672533D01*
X48443809Y-68529676D02*
X50348571Y-68529676D01*
X50348571Y-68529676D02*
X50777143Y-70434438D01*
X50777143Y-70434438D02*
X50562857Y-70243961D01*
X50562857Y-70243961D02*
X50158095Y-70053485D01*
X50158095Y-70053485D02*
X49205714Y-70053485D01*
X49205714Y-70053485D02*
X48848571Y-70243961D01*
X48848571Y-70243961D02*
X48681904Y-70434438D01*
X48681904Y-70434438D02*
X48539047Y-70815390D01*
X48539047Y-70815390D02*
X48658095Y-71767771D01*
X48658095Y-71767771D02*
X48896190Y-72148723D01*
X48896190Y-72148723D02*
X49110476Y-72339200D01*
X49110476Y-72339200D02*
X49515238Y-72529676D01*
X49515238Y-72529676D02*
X50467619Y-72529676D01*
X50467619Y-72529676D02*
X50824762Y-72339200D01*
X50824762Y-72339200D02*
X50991428Y-72148723D01*
X44634285Y-68529676D02*
X46539047Y-68529676D01*
X46539047Y-68529676D02*
X46967619Y-70434438D01*
X46967619Y-70434438D02*
X46753333Y-70243961D01*
X46753333Y-70243961D02*
X46348571Y-70053485D01*
X46348571Y-70053485D02*
X45396190Y-70053485D01*
X45396190Y-70053485D02*
X45039047Y-70243961D01*
X45039047Y-70243961D02*
X44872380Y-70434438D01*
X44872380Y-70434438D02*
X44729523Y-70815390D01*
X44729523Y-70815390D02*
X44848571Y-71767771D01*
X44848571Y-71767771D02*
X45086666Y-72148723D01*
X45086666Y-72148723D02*
X45300952Y-72339200D01*
X45300952Y-72339200D02*
X45705714Y-72529676D01*
X45705714Y-72529676D02*
X46658095Y-72529676D01*
X46658095Y-72529676D02*
X47015238Y-72339200D01*
X47015238Y-72339200D02*
X47181904Y-72148723D01*
X41134285Y-72529676D02*
X43419999Y-72529676D01*
X42277142Y-72529676D02*
X41777142Y-68529676D01*
X41777142Y-68529676D02*
X42229523Y-69101104D01*
X42229523Y-69101104D02*
X42658095Y-69482057D01*
X42658095Y-69482057D02*
X43062856Y-69672533D01*
M02*
