G04 #@! TF.GenerationSoftware,KiCad,Pcbnew,9.0.6*
G04 #@! TF.CreationDate,2025-12-28T20:22:59+01:00*
G04 #@! TF.ProjectId,RPi_Hat,5250695f-4861-4742-9e6b-696361645f70,2*
G04 #@! TF.SameCoordinates,Original*
G04 #@! TF.FileFunction,Copper,L2,Bot*
G04 #@! TF.FilePolarity,Positive*
%FSLAX46Y46*%
G04 Gerber Fmt 4.6, Leading zero omitted, Abs format (unit mm)*
G04 Created by KiCad (PCBNEW 9.0.6) date 2025-12-28 20:22:59*
%MOMM*%
%LPD*%
G01*
G04 APERTURE LIST*
G04 Aperture macros list*
%AMRoundRect*
0 Rectangle with rounded corners*
0 $1 Rounding radius*
0 $2 $3 $4 $5 $6 $7 $8 $9 X,Y pos of 4 corners*
0 Add a 4 corners polygon primitive as box body*
4,1,4,$2,$3,$4,$5,$6,$7,$8,$9,$2,$3,0*
0 Add four circle primitives for the rounded corners*
1,1,$1+$1,$2,$3*
1,1,$1+$1,$4,$5*
1,1,$1+$1,$6,$7*
1,1,$1+$1,$8,$9*
0 Add four rect primitives between the rounded corners*
20,1,$1+$1,$2,$3,$4,$5,0*
20,1,$1+$1,$4,$5,$6,$7,0*
20,1,$1+$1,$6,$7,$8,$9,0*
20,1,$1+$1,$8,$9,$2,$3,0*%
G04 Aperture macros list end*
G04 #@! TA.AperFunction,ComponentPad*
%ADD10R,1.700000X1.700000*%
G04 #@! TD*
G04 #@! TA.AperFunction,ComponentPad*
%ADD11C,1.700000*%
G04 #@! TD*
G04 #@! TA.AperFunction,ComponentPad*
%ADD12R,2.000000X2.000000*%
G04 #@! TD*
G04 #@! TA.AperFunction,ComponentPad*
%ADD13C,2.000000*%
G04 #@! TD*
G04 #@! TA.AperFunction,ComponentPad*
%ADD14R,1.800000X1.800000*%
G04 #@! TD*
G04 #@! TA.AperFunction,ComponentPad*
%ADD15C,1.800000*%
G04 #@! TD*
G04 #@! TA.AperFunction,ComponentPad*
%ADD16R,1.524000X1.524000*%
G04 #@! TD*
G04 #@! TA.AperFunction,ComponentPad*
%ADD17C,1.524000*%
G04 #@! TD*
G04 #@! TA.AperFunction,ComponentPad*
%ADD18RoundRect,0.250000X-0.600000X-0.600000X0.600000X-0.600000X0.600000X0.600000X-0.600000X0.600000X0*%
G04 #@! TD*
G04 #@! TA.AperFunction,ComponentPad*
%ADD19C,1.200000*%
G04 #@! TD*
G04 #@! TA.AperFunction,ComponentPad*
%ADD20RoundRect,0.600000X-0.700000X-0.000010X0.700000X-0.000010X0.700000X0.000010X-0.700000X0.000010X0*%
G04 #@! TD*
G04 #@! TA.AperFunction,ComponentPad*
%ADD21RoundRect,0.600000X-0.000010X0.700000X-0.000010X-0.700000X0.000010X-0.700000X0.000010X0.700000X0*%
G04 #@! TD*
G04 #@! TA.AperFunction,ViaPad*
%ADD22C,0.600000*%
G04 #@! TD*
G04 #@! TA.AperFunction,Conductor*
%ADD23C,0.250000*%
G04 #@! TD*
G04 APERTURE END LIST*
D10*
X31870000Y-33870000D03*
D11*
X31870000Y-31330000D03*
X34410000Y-33870000D03*
X34410000Y-31330000D03*
X36950000Y-33870000D03*
X36950000Y-31330000D03*
X39490000Y-33870000D03*
X39490000Y-31330000D03*
X42030000Y-33870000D03*
X42030000Y-31330000D03*
X44570000Y-33870000D03*
X44570000Y-31330000D03*
X47110000Y-33870000D03*
X47110000Y-31330000D03*
X49650000Y-33870000D03*
X49650000Y-31330000D03*
X52190000Y-33870000D03*
X52190000Y-31330000D03*
X54730000Y-33870000D03*
X54730000Y-31330000D03*
X57270000Y-33870000D03*
X57270000Y-31330000D03*
X59810000Y-33870000D03*
X59810000Y-31330000D03*
X62350000Y-33870000D03*
X62350000Y-31330000D03*
X64890000Y-33870000D03*
X64890000Y-31330000D03*
X67430000Y-33870000D03*
X67430000Y-31330000D03*
X69970000Y-33870000D03*
X69970000Y-31330000D03*
X72510000Y-33870000D03*
X72510000Y-31330000D03*
X75050000Y-33870000D03*
X75050000Y-31330000D03*
X77590000Y-33870000D03*
X77590000Y-31330000D03*
X80130000Y-33870000D03*
X80130000Y-31330000D03*
D12*
X40780000Y-58508000D03*
D13*
X48380000Y-58508000D03*
D14*
X76835000Y-83654000D03*
D15*
X76835000Y-81114000D03*
D13*
X36830000Y-76835000D03*
X36830000Y-83335000D03*
X32330000Y-76835000D03*
X32330000Y-83335000D03*
X45085000Y-76835000D03*
X45085000Y-83335000D03*
X40585000Y-76835000D03*
X40585000Y-83335000D03*
X53340000Y-76835000D03*
X53340000Y-83335000D03*
X48840000Y-76835000D03*
X48840000Y-83335000D03*
X61595000Y-76835000D03*
X61595000Y-83335000D03*
X57095000Y-76835000D03*
X57095000Y-83335000D03*
X69850000Y-76835000D03*
X69850000Y-83335000D03*
X65350000Y-76835000D03*
X65350000Y-83335000D03*
D16*
X40605000Y-39520000D03*
D17*
X43145000Y-39520000D03*
X45685000Y-39520000D03*
X48225000Y-39520000D03*
D16*
X33140000Y-48475000D03*
D17*
X33140000Y-45935000D03*
X33140000Y-43395000D03*
X33140000Y-40855000D03*
D10*
X48380000Y-73494000D03*
D11*
X45840000Y-73494000D03*
X43300000Y-73494000D03*
X40760000Y-73494000D03*
X38220000Y-73494000D03*
D18*
X76599400Y-56526800D03*
D11*
X79139400Y-56526800D03*
X76599400Y-59066800D03*
X79139400Y-59066800D03*
X76599400Y-61606800D03*
X79139400Y-61606800D03*
X76599400Y-64146800D03*
X79139400Y-64146800D03*
X76599400Y-66686800D03*
X79139400Y-66686800D03*
X76599400Y-69226800D03*
X79139400Y-69226800D03*
X76599400Y-71766800D03*
X79139400Y-71766800D03*
X76599400Y-74306800D03*
X79139400Y-74306800D03*
D10*
X86480000Y-56476000D03*
D11*
X86480000Y-59016000D03*
X86480000Y-61556000D03*
X86480000Y-64096000D03*
X86480000Y-66636000D03*
X86480000Y-69176000D03*
X86480000Y-71716000D03*
D19*
X79582000Y-42320000D03*
X79582000Y-44920000D03*
X79582000Y-40220000D03*
X79582000Y-47020000D03*
X77082000Y-40220000D03*
X77082000Y-44520000D03*
X77082000Y-47020000D03*
D20*
X82582000Y-36870000D03*
D21*
X83382000Y-43620000D03*
D20*
X82582000Y-50370000D03*
D22*
X72510800Y-50585600D03*
X54948200Y-78301100D03*
X36183600Y-40570200D03*
X60441300Y-65978200D03*
X77346400Y-50769000D03*
X51550200Y-51664100D03*
X77760200Y-51505900D03*
X45326200Y-58895100D03*
X53818500Y-62794300D03*
X43516300Y-57691700D03*
X75189500Y-50430700D03*
X57245100Y-53839800D03*
X48254600Y-71065200D03*
X74893700Y-65848200D03*
X66095900Y-66007000D03*
X49940300Y-56967600D03*
X54678600Y-29645100D03*
X71201700Y-63422100D03*
X70131000Y-60245900D03*
X74433300Y-55866900D03*
X75788400Y-53969700D03*
X80797900Y-54239300D03*
X79016400Y-49762200D03*
X76278000Y-48445700D03*
D23*
X33276100Y-47386300D02*
X38220000Y-42442400D01*
X44121800Y-30107100D02*
X45887100Y-30107100D01*
X76820300Y-53620700D02*
X76820300Y-56305900D01*
X38220000Y-73494000D02*
X33140000Y-68414000D01*
X47110100Y-74809900D02*
X45085000Y-76835000D01*
X69850000Y-76835000D02*
X69850000Y-83335000D01*
X38220000Y-42442400D02*
X38220000Y-38431300D01*
X53340000Y-76835000D02*
X53340000Y-83335000D01*
X87674200Y-70521800D02*
X86480000Y-71716000D01*
X36830000Y-76835000D02*
X38220000Y-75445000D01*
X38220000Y-32600000D02*
X38220000Y-38431300D01*
X42030000Y-33112700D02*
X43206700Y-31936000D01*
X33140000Y-47386300D02*
X33276100Y-47386300D01*
X80521700Y-34261700D02*
X80521700Y-41380300D01*
X76707600Y-53508000D02*
X76820300Y-53620700D01*
X76820300Y-56305900D02*
X76599400Y-56526800D01*
X86480000Y-61556000D02*
X87674200Y-62750200D01*
X45887100Y-30107100D02*
X47110000Y-31330000D01*
X43206700Y-31936000D02*
X43206700Y-31022200D01*
X87674200Y-62750200D02*
X87674200Y-70521800D01*
X33140000Y-68414000D02*
X33140000Y-48475000D01*
X76443000Y-53243400D02*
X76707600Y-53508000D01*
X61595000Y-83335000D02*
X61595000Y-76835000D01*
X40605000Y-38544600D02*
X40605000Y-38431300D01*
X33140000Y-48475000D02*
X33140000Y-47386300D01*
X36830000Y-83335000D02*
X36830000Y-76835000D01*
X76443000Y-50673700D02*
X76443000Y-53243400D01*
X40605000Y-39520000D02*
X40605000Y-38544600D01*
X80130000Y-33870000D02*
X80521700Y-34261700D01*
X80521700Y-41380300D02*
X79582000Y-42320000D01*
X47110100Y-59777900D02*
X47110100Y-74809900D01*
X77082000Y-47020000D02*
X77082000Y-50034700D01*
X45085000Y-83335000D02*
X45085000Y-76835000D01*
X77082000Y-50034700D02*
X76443000Y-50673700D01*
X43206700Y-31022200D02*
X44121800Y-30107100D01*
X36950000Y-31330000D02*
X38220000Y-32600000D01*
X42030000Y-37119600D02*
X42030000Y-33870000D01*
X40605000Y-38544600D02*
X42030000Y-37119600D01*
X38220000Y-75445000D02*
X38220000Y-73494000D01*
X48380000Y-58508000D02*
X47110100Y-59777900D01*
X42030000Y-33870000D02*
X42030000Y-33112700D01*
X76707600Y-53508000D02*
X76820300Y-53620700D01*
X38220000Y-38431300D02*
X40605000Y-38431300D01*
X72510000Y-50584800D02*
X72510800Y-50585600D01*
X72510000Y-33870000D02*
X72510000Y-50584800D01*
X54730000Y-33870000D02*
X54730000Y-78082900D01*
X54730000Y-78082900D02*
X54948200Y-78301100D01*
X36183600Y-34636400D02*
X36950000Y-33870000D01*
X36183600Y-40570200D02*
X36183600Y-34636400D01*
X33140000Y-43395000D02*
X35964800Y-40570200D01*
X35964800Y-40570200D02*
X36183600Y-40570200D01*
X34410000Y-33870000D02*
X34410000Y-39585000D01*
X34410000Y-39585000D02*
X33140000Y-40855000D01*
X58619400Y-64156300D02*
X58619400Y-32520600D01*
X60441300Y-65978200D02*
X58619400Y-64156300D01*
X58619400Y-32520600D02*
X59810000Y-31330000D01*
X51550200Y-51664100D02*
X51550200Y-35493700D01*
X77159300Y-53320900D02*
X77346400Y-53508000D01*
X50920000Y-32600000D02*
X49650000Y-31330000D01*
X51550200Y-35493700D02*
X50920000Y-34863500D01*
X77962700Y-54124300D02*
X77962700Y-60430100D01*
X76894700Y-51220700D02*
X76894700Y-53056300D01*
X77346400Y-53508000D02*
X77962700Y-54124300D01*
X76894700Y-53056300D02*
X77159300Y-53320900D01*
X77962700Y-60430100D02*
X79139400Y-61606800D01*
X77346400Y-50769000D02*
X76894700Y-51220700D01*
X77159300Y-53320900D02*
X77346400Y-53508000D01*
X50920000Y-34863500D02*
X50920000Y-32600000D01*
X77760200Y-51505900D02*
X77760200Y-53282900D01*
X80349900Y-55872600D02*
X80349900Y-70556300D01*
X77760200Y-53282900D02*
X80349900Y-55872600D01*
X80349900Y-70556300D02*
X79139400Y-71766800D01*
X43369700Y-32530300D02*
X43369700Y-35225700D01*
X43369700Y-35225700D02*
X44415000Y-36271000D01*
X44415000Y-57983900D02*
X45326200Y-58895100D01*
X44415000Y-36271000D02*
X44415000Y-57983900D01*
X44570000Y-31330000D02*
X43369700Y-32530300D01*
X53460000Y-32600000D02*
X52190000Y-31330000D01*
X53818500Y-62794300D02*
X53460000Y-62435800D01*
X53460000Y-62435800D02*
X53460000Y-32600000D01*
X31870000Y-44665000D02*
X33140000Y-45935000D01*
X43145000Y-57691700D02*
X43145000Y-71109000D01*
X43145000Y-39520000D02*
X43145000Y-57691700D01*
X43145000Y-57691700D02*
X43516300Y-57691700D01*
X31870000Y-33870000D02*
X31870000Y-44665000D01*
X43145000Y-71109000D02*
X40760000Y-73494000D01*
X75161600Y-57629000D02*
X75161600Y-50458600D01*
X75336700Y-50430700D02*
X75189500Y-50430700D01*
X75161600Y-50458600D02*
X75189500Y-50430700D01*
X76599400Y-59066800D02*
X75161600Y-57629000D01*
X75189500Y-50430700D02*
X75336700Y-50430700D01*
X57245100Y-53839800D02*
X57270000Y-53814900D01*
X57270000Y-53814900D02*
X57270000Y-33870000D01*
X46786200Y-58321600D02*
X46786200Y-36086200D01*
X45840000Y-59267800D02*
X46786200Y-58321600D01*
X45840000Y-73494000D02*
X45840000Y-59267800D01*
X48840000Y-83335000D02*
X48840000Y-76835000D01*
X46786200Y-36086200D02*
X44570000Y-33870000D01*
X49488600Y-56533100D02*
X49313600Y-56708100D01*
X49488600Y-36248600D02*
X49488600Y-56533100D01*
X49313600Y-57227100D02*
X49714300Y-57627800D01*
X49313600Y-56708100D02*
X49313600Y-57227100D01*
X32330000Y-76835000D02*
X32330000Y-83335000D01*
X49714300Y-69605500D02*
X48254600Y-71065200D01*
X47110000Y-33870000D02*
X49488600Y-36248600D01*
X49714300Y-57627800D02*
X49714300Y-69605500D01*
X73350900Y-64305400D02*
X74893700Y-65848200D01*
X71986600Y-32506700D02*
X72847600Y-32506700D01*
X71240000Y-31760100D02*
X71986600Y-32506700D01*
X73719800Y-33378900D02*
X73719800Y-36656800D01*
X63539100Y-30140900D02*
X70523800Y-30140900D01*
X72847600Y-32506700D02*
X73719800Y-33378900D01*
X73719800Y-36656800D02*
X73350900Y-37025700D01*
X62350000Y-31330000D02*
X63539100Y-30140900D01*
X70523800Y-30140900D02*
X71240000Y-30857100D01*
X73350900Y-37025700D02*
X73350900Y-64305400D01*
X71240000Y-30857100D02*
X71240000Y-31760100D01*
X65350000Y-76835000D02*
X67430000Y-74755000D01*
X65350000Y-83335000D02*
X65350000Y-76835000D01*
X67430000Y-74755000D02*
X67430000Y-33870000D01*
X66095900Y-40155900D02*
X66095900Y-66007000D01*
X59810000Y-33870000D02*
X66095900Y-40155900D01*
X78113000Y-49140600D02*
X77938000Y-49315600D01*
X75050000Y-31330000D02*
X76226700Y-30153300D01*
X78805500Y-37801500D02*
X78113000Y-38494000D01*
X78805500Y-30866600D02*
X78805500Y-37801500D01*
X78386900Y-51246300D02*
X78386900Y-53197500D01*
X79597300Y-72984400D02*
X78656100Y-72984400D01*
X78173900Y-50444700D02*
X78173900Y-51033300D01*
X78386900Y-53197500D02*
X80801600Y-55612200D01*
X78092200Y-30153300D02*
X78805500Y-30866600D01*
X78113000Y-38494000D02*
X78113000Y-49140600D01*
X77938000Y-49315600D02*
X77938000Y-50208800D01*
X78173900Y-51033300D02*
X78386900Y-51246300D01*
X78656100Y-72984400D02*
X77932200Y-72260500D01*
X77938000Y-50208800D02*
X78173900Y-50444700D01*
X77932200Y-72260500D02*
X77932200Y-71191400D01*
X77932200Y-71191400D02*
X79139400Y-69984200D01*
X76226700Y-30153300D02*
X78092200Y-30153300D01*
X80801600Y-55612200D02*
X80801600Y-71780100D01*
X79139400Y-69984200D02*
X79139400Y-69226800D01*
X80801600Y-71780100D02*
X79597300Y-72984400D01*
X40585000Y-83335000D02*
X40585000Y-76835000D01*
X48380000Y-72317300D02*
X50617800Y-70079500D01*
X50353200Y-34935500D02*
X50166100Y-34748400D01*
X50353200Y-34935500D02*
X50166100Y-34748400D01*
X48380000Y-73494000D02*
X48380000Y-72317300D01*
X50617800Y-70079500D02*
X50617800Y-35200100D01*
X50166100Y-34386100D02*
X49650000Y-33870000D01*
X50166100Y-34748400D02*
X50166100Y-34386100D01*
X50617800Y-35200100D02*
X50353200Y-34935500D01*
X47153200Y-29646400D02*
X48380000Y-30873200D01*
X48380000Y-34382600D02*
X49940300Y-35942900D01*
X49940300Y-35942900D02*
X49940300Y-56967600D01*
X48380000Y-30873200D02*
X48380000Y-34382600D01*
X43713600Y-29646400D02*
X47153200Y-29646400D01*
X42030000Y-31330000D02*
X43713600Y-29646400D01*
X76206284Y-62876800D02*
X73806500Y-60477016D01*
X77817000Y-63663500D02*
X77030300Y-62876800D01*
X76599400Y-71766800D02*
X77817000Y-70549200D01*
X76320000Y-32600000D02*
X77590000Y-31330000D01*
X77030300Y-62876800D02*
X76206284Y-62876800D01*
X76320000Y-34695500D02*
X76320000Y-32600000D01*
X73806500Y-37209000D02*
X76320000Y-34695500D01*
X77817000Y-70549200D02*
X77817000Y-63663500D01*
X73806500Y-60477016D02*
X73806500Y-37209000D01*
X54756200Y-29645100D02*
X55908900Y-30797800D01*
X55908900Y-30797800D02*
X55908900Y-75648900D01*
X57095000Y-83335000D02*
X57095000Y-76835000D01*
X54678600Y-29645100D02*
X54756200Y-29645100D01*
X55908900Y-75648900D02*
X57095000Y-76835000D01*
X60374600Y-30153300D02*
X61019900Y-30798600D01*
X58446700Y-30153300D02*
X60374600Y-30153300D01*
X68700000Y-60920400D02*
X71201700Y-63422100D01*
X68700000Y-33439100D02*
X68700000Y-60920400D01*
X67860900Y-32600000D02*
X68700000Y-33439100D01*
X61019900Y-30798600D02*
X61019900Y-31724800D01*
X57270000Y-31330000D02*
X58446700Y-30153300D01*
X61895100Y-32600000D02*
X67860900Y-32600000D01*
X61019900Y-31724800D02*
X61895100Y-32600000D01*
X71828400Y-62499000D02*
X71828400Y-64455800D01*
X71240000Y-61910600D02*
X71828400Y-62499000D01*
X71240000Y-32600000D02*
X71240000Y-61910600D01*
X69970000Y-31330000D02*
X71240000Y-32600000D01*
X71828400Y-64455800D02*
X76599400Y-69226800D01*
X70131000Y-60245900D02*
X69970000Y-60084900D01*
X69970000Y-60084900D02*
X69970000Y-33870000D01*
X74433300Y-55866900D02*
X74433300Y-39375100D01*
X77590000Y-36218400D02*
X77590000Y-33870000D01*
X74433300Y-39375100D02*
X77590000Y-36218400D01*
X75651200Y-49842400D02*
X75651200Y-41650800D01*
X75963400Y-53969700D02*
X75788400Y-53969700D01*
X75875900Y-50067100D02*
X75651200Y-49842400D01*
X75651200Y-41650800D02*
X77082000Y-40220000D01*
X75875900Y-53882200D02*
X75875900Y-50067100D01*
X75788400Y-53969700D02*
X75963400Y-53969700D01*
X75788400Y-53969700D02*
X75875900Y-53882200D01*
X78838600Y-52280000D02*
X80797900Y-54239300D01*
X78627100Y-50259100D02*
X78627100Y-50847700D01*
X81577400Y-55018800D02*
X81577400Y-64273400D01*
X78389700Y-50021700D02*
X78627100Y-50259100D01*
X79582000Y-40220000D02*
X78564700Y-41237300D01*
X78838600Y-51059200D02*
X78838600Y-52280000D01*
X78389700Y-49502700D02*
X78389700Y-50021700D01*
X81577400Y-64273400D02*
X86480000Y-69176000D01*
X78627100Y-50847700D02*
X78838600Y-51059200D01*
X78564700Y-41237300D02*
X78564700Y-49327700D01*
X80797900Y-54239300D02*
X81577400Y-55018800D01*
X78564700Y-49327700D02*
X78389700Y-49502700D01*
X82529800Y-55065800D02*
X82529800Y-60145800D01*
X77082000Y-44520000D02*
X76147400Y-45454600D01*
X79582000Y-52118000D02*
X82529800Y-55065800D01*
X76147400Y-48315100D02*
X76278000Y-48445700D01*
X76147400Y-45454600D02*
X76147400Y-48315100D01*
X79016400Y-49762200D02*
X79582000Y-50327800D01*
X82529800Y-60145800D02*
X86480000Y-64096000D01*
X79582000Y-50327800D02*
X79582000Y-52118000D01*
X80033700Y-47471700D02*
X79582000Y-47020000D01*
X82981500Y-55517500D02*
X82981500Y-54878700D01*
X86480000Y-59016000D02*
X82981500Y-55517500D01*
X80033700Y-51930900D02*
X80033700Y-47471700D01*
X82981500Y-54878700D02*
X80033700Y-51930900D01*
X86480000Y-56476000D02*
X86480000Y-51818000D01*
X86480000Y-51818000D02*
X79582000Y-44920000D01*
G04 #@! TA.AperFunction,Conductor*
G36*
X83060503Y-56057276D02*
G01*
X83066981Y-56063308D01*
X85482568Y-58478895D01*
X85516053Y-58540218D01*
X85511069Y-58609910D01*
X85509448Y-58614028D01*
X85469871Y-58709575D01*
X85469868Y-58709587D01*
X85429500Y-58912530D01*
X85429500Y-59119469D01*
X85469868Y-59322412D01*
X85469870Y-59322420D01*
X85524367Y-59453988D01*
X85549059Y-59513598D01*
X85606541Y-59599626D01*
X85664024Y-59685657D01*
X85810342Y-59831975D01*
X85982405Y-59946943D01*
X86076623Y-59985969D01*
X86147108Y-60015164D01*
X86201511Y-60059005D01*
X86223576Y-60125299D01*
X86206297Y-60192998D01*
X86155160Y-60240609D01*
X86137974Y-60247656D01*
X85961781Y-60304905D01*
X85772439Y-60401380D01*
X85718282Y-60440727D01*
X85718282Y-60440728D01*
X86350591Y-61073037D01*
X86287007Y-61090075D01*
X86172993Y-61155901D01*
X86079901Y-61248993D01*
X86014075Y-61363007D01*
X85997037Y-61426591D01*
X85364728Y-60794282D01*
X85364727Y-60794282D01*
X85325380Y-60848439D01*
X85228904Y-61037782D01*
X85163242Y-61239869D01*
X85163242Y-61239872D01*
X85130000Y-61449753D01*
X85130000Y-61662246D01*
X85163242Y-61872127D01*
X85163242Y-61872130D01*
X85218676Y-62042738D01*
X85220671Y-62112579D01*
X85184590Y-62172412D01*
X85121889Y-62203240D01*
X85052475Y-62195275D01*
X85013064Y-62168737D01*
X82891619Y-60047292D01*
X82858134Y-59985969D01*
X82855300Y-59959611D01*
X82855300Y-56150989D01*
X82874985Y-56083950D01*
X82927789Y-56038195D01*
X82996947Y-56028251D01*
X83060503Y-56057276D01*
G37*
G04 #@! TD.AperFunction*
G04 #@! TA.AperFunction,Conductor*
G36*
X47316903Y-39877066D02*
G01*
X47350261Y-39923327D01*
X47372041Y-39975910D01*
X47372042Y-39975912D01*
X47477377Y-40133558D01*
X47611441Y-40267622D01*
X47716300Y-40337686D01*
X47769085Y-40372956D01*
X47769086Y-40372956D01*
X47769087Y-40372957D01*
X47798758Y-40385247D01*
X47944249Y-40445512D01*
X48130197Y-40482499D01*
X48130201Y-40482500D01*
X48130202Y-40482500D01*
X48319799Y-40482500D01*
X48319800Y-40482499D01*
X48505751Y-40445512D01*
X48680915Y-40372956D01*
X48838558Y-40267622D01*
X48894808Y-40211372D01*
X48951419Y-40154762D01*
X49012742Y-40121277D01*
X49082434Y-40126261D01*
X49138367Y-40168133D01*
X49162784Y-40233597D01*
X49163100Y-40242443D01*
X49163100Y-56346911D01*
X49143415Y-56413950D01*
X49126781Y-56434592D01*
X49053137Y-56508235D01*
X49053133Y-56508241D01*
X49010281Y-56582461D01*
X49010282Y-56582462D01*
X48988100Y-56665247D01*
X48988100Y-56957719D01*
X48968415Y-57024758D01*
X48915611Y-57070513D01*
X48846453Y-57080457D01*
X48825782Y-57075650D01*
X48731248Y-57044934D01*
X48498052Y-57008000D01*
X48261948Y-57008000D01*
X48028752Y-57044934D01*
X47804197Y-57117897D01*
X47593830Y-57225084D01*
X47510894Y-57285340D01*
X48250591Y-58025037D01*
X48187007Y-58042075D01*
X48072993Y-58107901D01*
X47979901Y-58200993D01*
X47914075Y-58315007D01*
X47897037Y-58378591D01*
X47148019Y-57629573D01*
X47114534Y-57568250D01*
X47111700Y-57541892D01*
X47111700Y-39970779D01*
X47131385Y-39903740D01*
X47184189Y-39857985D01*
X47253347Y-39848041D01*
X47316903Y-39877066D01*
G37*
G04 #@! TD.AperFunction*
G04 #@! TA.AperFunction,Conductor*
G36*
X77740614Y-48000332D02*
G01*
X77780871Y-48057438D01*
X77787500Y-48097437D01*
X77787500Y-48954411D01*
X77767815Y-49021450D01*
X77751181Y-49042092D01*
X77677537Y-49115735D01*
X77677533Y-49115741D01*
X77634681Y-49189961D01*
X77634682Y-49189962D01*
X77612500Y-49272747D01*
X77612500Y-50160545D01*
X77592815Y-50227584D01*
X77540011Y-50273339D01*
X77470853Y-50283283D01*
X77456409Y-50280320D01*
X77412296Y-50268500D01*
X77412292Y-50268500D01*
X77280508Y-50268500D01*
X77153212Y-50302608D01*
X77039086Y-50368500D01*
X77039083Y-50368502D01*
X76945902Y-50461683D01*
X76945900Y-50461686D01*
X76880008Y-50575812D01*
X76845900Y-50703108D01*
X76845900Y-50757811D01*
X76826215Y-50824850D01*
X76809581Y-50845492D01*
X76634237Y-51020835D01*
X76634235Y-51020838D01*
X76591383Y-51095058D01*
X76591382Y-51095060D01*
X76591382Y-51095061D01*
X76582157Y-51129489D01*
X76582156Y-51129490D01*
X76569200Y-51177843D01*
X76569200Y-53099152D01*
X76591382Y-53181940D01*
X76612808Y-53219050D01*
X76634235Y-53256162D01*
X76634237Y-53256164D01*
X77085935Y-53707862D01*
X77600881Y-54222807D01*
X77634366Y-54284130D01*
X77637200Y-54310488D01*
X77637200Y-55110048D01*
X77617515Y-55177087D01*
X77564711Y-55222842D01*
X77495553Y-55232786D01*
X77474196Y-55227754D01*
X77352097Y-55187294D01*
X77352090Y-55187293D01*
X77249386Y-55176800D01*
X76849400Y-55176800D01*
X76849400Y-56093788D01*
X76792393Y-56060875D01*
X76665226Y-56026800D01*
X76533574Y-56026800D01*
X76406407Y-56060875D01*
X76349400Y-56093788D01*
X76349400Y-55176800D01*
X75949428Y-55176800D01*
X75949412Y-55176801D01*
X75846702Y-55187294D01*
X75680280Y-55242441D01*
X75680272Y-55242445D01*
X75676192Y-55244962D01*
X75608798Y-55263399D01*
X75542136Y-55242473D01*
X75497369Y-55188829D01*
X75487100Y-55139420D01*
X75487100Y-54568722D01*
X75506785Y-54501683D01*
X75559589Y-54455928D01*
X75628747Y-54445984D01*
X75643176Y-54448943D01*
X75722508Y-54470200D01*
X75722511Y-54470200D01*
X75854290Y-54470200D01*
X75854292Y-54470200D01*
X75981586Y-54436092D01*
X76095714Y-54370200D01*
X76188900Y-54277014D01*
X76254792Y-54162886D01*
X76288900Y-54035592D01*
X76288900Y-53903808D01*
X76254792Y-53776514D01*
X76253289Y-53773910D01*
X76218013Y-53712809D01*
X76201400Y-53650810D01*
X76201400Y-50024249D01*
X76201400Y-50024247D01*
X76179218Y-49941462D01*
X76179218Y-49941461D01*
X76145638Y-49883300D01*
X76136365Y-49867238D01*
X76075762Y-49806635D01*
X76075760Y-49806633D01*
X76013019Y-49743892D01*
X75979534Y-49682569D01*
X75976700Y-49656211D01*
X75976700Y-49044722D01*
X75996385Y-48977683D01*
X76049189Y-48931928D01*
X76118347Y-48921984D01*
X76132776Y-48924943D01*
X76212108Y-48946200D01*
X76212111Y-48946200D01*
X76343890Y-48946200D01*
X76343892Y-48946200D01*
X76471186Y-48912092D01*
X76585314Y-48846200D01*
X76678500Y-48753014D01*
X76744392Y-48638886D01*
X76778500Y-48511592D01*
X76778500Y-48379808D01*
X76745604Y-48257037D01*
X76747267Y-48187191D01*
X76786429Y-48129328D01*
X76850658Y-48101824D01*
X76884777Y-48102474D01*
X76995429Y-48120000D01*
X77168571Y-48120000D01*
X77339584Y-48092914D01*
X77504259Y-48039407D01*
X77607204Y-47986953D01*
X77675873Y-47974056D01*
X77740614Y-48000332D01*
G37*
G04 #@! TD.AperFunction*
G04 #@! TA.AperFunction,Conductor*
G36*
X46644075Y-31522993D02*
G01*
X46709901Y-31637007D01*
X46802993Y-31730099D01*
X46917007Y-31795925D01*
X46980589Y-31812962D01*
X46348282Y-32445269D01*
X46348282Y-32445270D01*
X46402449Y-32484624D01*
X46591782Y-32581095D01*
X46767973Y-32638343D01*
X46825648Y-32677780D01*
X46852847Y-32742139D01*
X46840932Y-32810985D01*
X46793688Y-32862461D01*
X46777108Y-32870835D01*
X46612403Y-32939057D01*
X46440342Y-33054024D01*
X46294024Y-33200342D01*
X46179058Y-33372403D01*
X46099870Y-33563579D01*
X46099868Y-33563587D01*
X46059500Y-33766530D01*
X46059500Y-33973469D01*
X46099868Y-34176412D01*
X46099870Y-34176420D01*
X46165939Y-34335925D01*
X46179059Y-34367598D01*
X46192836Y-34388217D01*
X46294022Y-34539654D01*
X46294025Y-34539658D01*
X46440342Y-34685975D01*
X46440345Y-34685977D01*
X46612402Y-34800941D01*
X46803580Y-34880130D01*
X47006530Y-34920499D01*
X47006534Y-34920500D01*
X47006535Y-34920500D01*
X47213466Y-34920500D01*
X47213467Y-34920499D01*
X47416420Y-34880130D01*
X47511970Y-34840550D01*
X47581439Y-34833082D01*
X47643918Y-34864357D01*
X47647104Y-34867431D01*
X49126781Y-36347108D01*
X49160266Y-36408431D01*
X49163100Y-36434789D01*
X49163100Y-38797557D01*
X49143415Y-38864596D01*
X49090611Y-38910351D01*
X49021453Y-38920295D01*
X48957897Y-38891270D01*
X48951419Y-38885238D01*
X48838558Y-38772377D01*
X48680912Y-38667042D01*
X48505751Y-38594488D01*
X48505743Y-38594486D01*
X48319802Y-38557500D01*
X48319798Y-38557500D01*
X48130202Y-38557500D01*
X48130197Y-38557500D01*
X47944256Y-38594486D01*
X47944248Y-38594488D01*
X47769087Y-38667042D01*
X47611441Y-38772377D01*
X47477377Y-38906441D01*
X47372042Y-39064087D01*
X47350261Y-39116673D01*
X47306420Y-39171076D01*
X47240126Y-39193141D01*
X47172426Y-39175862D01*
X47124816Y-39124724D01*
X47111700Y-39069220D01*
X47111700Y-36043349D01*
X47111700Y-36043347D01*
X47089518Y-35960562D01*
X47089518Y-35960561D01*
X47046665Y-35886338D01*
X45567430Y-34407103D01*
X45533946Y-34345781D01*
X45538930Y-34276089D01*
X45540551Y-34271970D01*
X45565381Y-34212026D01*
X45580130Y-34176420D01*
X45620500Y-33973465D01*
X45620500Y-33766535D01*
X45580130Y-33563580D01*
X45500941Y-33372402D01*
X45385977Y-33200345D01*
X45385975Y-33200342D01*
X45239657Y-33054024D01*
X45083652Y-32949786D01*
X45067598Y-32939059D01*
X45067593Y-32939057D01*
X44876420Y-32859870D01*
X44876412Y-32859868D01*
X44673469Y-32819500D01*
X44673465Y-32819500D01*
X44466535Y-32819500D01*
X44466530Y-32819500D01*
X44263587Y-32859868D01*
X44263579Y-32859870D01*
X44072403Y-32939058D01*
X43900339Y-33054026D01*
X43897858Y-33056063D01*
X43896305Y-33056722D01*
X43895279Y-33057408D01*
X43895148Y-33057213D01*
X43882949Y-33062393D01*
X43870711Y-33072998D01*
X43851454Y-33075766D01*
X43833546Y-33083371D01*
X43817584Y-33080636D01*
X43801553Y-33082942D01*
X43783854Y-33074859D01*
X43764679Y-33071575D01*
X43752729Y-33060644D01*
X43737997Y-33053917D01*
X43727477Y-33037548D01*
X43713123Y-33024419D01*
X43708580Y-33008143D01*
X43700223Y-32995139D01*
X43695200Y-32960204D01*
X43695200Y-32716488D01*
X43714885Y-32649449D01*
X43731519Y-32628807D01*
X43875706Y-32484620D01*
X44032896Y-32327429D01*
X44094217Y-32293946D01*
X44163908Y-32298930D01*
X44168028Y-32300551D01*
X44201005Y-32314210D01*
X44263580Y-32340130D01*
X44428855Y-32373005D01*
X44466530Y-32380499D01*
X44466534Y-32380500D01*
X44466535Y-32380500D01*
X44673466Y-32380500D01*
X44673467Y-32380499D01*
X44876420Y-32340130D01*
X45067598Y-32260941D01*
X45239655Y-32145977D01*
X45385977Y-31999655D01*
X45500941Y-31827598D01*
X45569165Y-31662889D01*
X45613004Y-31608488D01*
X45679298Y-31586423D01*
X45746998Y-31603702D01*
X45794609Y-31654839D01*
X45801656Y-31672026D01*
X45858904Y-31848216D01*
X45955375Y-32037550D01*
X45994728Y-32091716D01*
X46627037Y-31459408D01*
X46644075Y-31522993D01*
G37*
G04 #@! TD.AperFunction*
G04 #@! TA.AperFunction,Conductor*
G36*
X60811482Y-31976961D02*
G01*
X60816310Y-31981537D01*
X61547933Y-32713159D01*
X61549400Y-32715846D01*
X62220591Y-33387037D01*
X62157007Y-33404075D01*
X62042993Y-33469901D01*
X61949901Y-33562993D01*
X61884075Y-33677007D01*
X61867037Y-33740591D01*
X61234728Y-33108282D01*
X61234727Y-33108282D01*
X61195380Y-33162439D01*
X61098905Y-33351781D01*
X61041656Y-33527974D01*
X61002218Y-33585649D01*
X60937859Y-33612847D01*
X60869013Y-33600932D01*
X60817537Y-33553688D01*
X60809164Y-33537107D01*
X60740943Y-33372405D01*
X60625975Y-33200342D01*
X60479657Y-33054024D01*
X60323652Y-32949786D01*
X60307598Y-32939059D01*
X60307593Y-32939057D01*
X60116420Y-32859870D01*
X60116412Y-32859868D01*
X59913469Y-32819500D01*
X59913465Y-32819500D01*
X59706535Y-32819500D01*
X59706530Y-32819500D01*
X59503587Y-32859868D01*
X59503579Y-32859870D01*
X59312403Y-32939058D01*
X59137790Y-33055730D01*
X59128089Y-33058767D01*
X59120411Y-33065421D01*
X59095313Y-33069029D01*
X59071113Y-33076607D01*
X59061313Y-33073918D01*
X59051253Y-33075365D01*
X59028184Y-33064830D01*
X59003733Y-33058122D01*
X58996942Y-33050562D01*
X58987697Y-33046340D01*
X58973986Y-33025005D01*
X58957043Y-33006143D01*
X58954411Y-32994546D01*
X58949923Y-32987562D01*
X58944900Y-32952627D01*
X58944900Y-32706788D01*
X58964585Y-32639749D01*
X58981219Y-32619107D01*
X59125967Y-32474359D01*
X59272896Y-32327429D01*
X59334217Y-32293946D01*
X59403908Y-32298930D01*
X59408028Y-32300551D01*
X59441005Y-32314210D01*
X59503580Y-32340130D01*
X59668855Y-32373005D01*
X59706530Y-32380499D01*
X59706534Y-32380500D01*
X59706535Y-32380500D01*
X59913466Y-32380500D01*
X59913467Y-32380499D01*
X60116420Y-32340130D01*
X60307598Y-32260941D01*
X60479655Y-32145977D01*
X60625977Y-31999655D01*
X60625983Y-31999645D01*
X60629841Y-31994946D01*
X60630915Y-31995827D01*
X60679128Y-31955527D01*
X60748452Y-31946813D01*
X60811482Y-31976961D01*
G37*
G04 #@! TD.AperFunction*
G04 #@! TA.AperFunction,Conductor*
G36*
X76730379Y-30498485D02*
G01*
X76776134Y-30551289D01*
X76786078Y-30620447D01*
X76766442Y-30671690D01*
X76659059Y-30832400D01*
X76579870Y-31023579D01*
X76579868Y-31023587D01*
X76539500Y-31226530D01*
X76539500Y-31433469D01*
X76579868Y-31636412D01*
X76579870Y-31636420D01*
X76619448Y-31731969D01*
X76626917Y-31801438D01*
X76595642Y-31863918D01*
X76592568Y-31867103D01*
X76059537Y-32400135D01*
X76059533Y-32400141D01*
X76016682Y-32474359D01*
X76013933Y-32484620D01*
X75994500Y-32557147D01*
X75994500Y-32557149D01*
X75994500Y-33029505D01*
X75974815Y-33096544D01*
X75922011Y-33142299D01*
X75852853Y-33152243D01*
X75789297Y-33123218D01*
X75782819Y-33117186D01*
X75719657Y-33054024D01*
X75563652Y-32949786D01*
X75547598Y-32939059D01*
X75547593Y-32939057D01*
X75356420Y-32859870D01*
X75356412Y-32859868D01*
X75153469Y-32819500D01*
X75153465Y-32819500D01*
X74946535Y-32819500D01*
X74946530Y-32819500D01*
X74743587Y-32859868D01*
X74743579Y-32859870D01*
X74552403Y-32939058D01*
X74380342Y-33054024D01*
X74234025Y-33200341D01*
X74234018Y-33200350D01*
X74215273Y-33228403D01*
X74161660Y-33273207D01*
X74092335Y-33281913D01*
X74029308Y-33251756D01*
X74004786Y-33221510D01*
X73995053Y-33204652D01*
X73980265Y-33179038D01*
X73310299Y-32509072D01*
X73279963Y-32453516D01*
X72639408Y-31812962D01*
X72702993Y-31795925D01*
X72817007Y-31730099D01*
X72910099Y-31637007D01*
X72975925Y-31522993D01*
X72992962Y-31459408D01*
X73625270Y-32091717D01*
X73625270Y-32091716D01*
X73664622Y-32037554D01*
X73761095Y-31848217D01*
X73818343Y-31672026D01*
X73857780Y-31614351D01*
X73922139Y-31587152D01*
X73990985Y-31599066D01*
X74042461Y-31646310D01*
X74050835Y-31662891D01*
X74105939Y-31795925D01*
X74119059Y-31827598D01*
X74143327Y-31863918D01*
X74234024Y-31999657D01*
X74380342Y-32145975D01*
X74380345Y-32145977D01*
X74552402Y-32260941D01*
X74743580Y-32340130D01*
X74908855Y-32373005D01*
X74946530Y-32380499D01*
X74946534Y-32380500D01*
X74946535Y-32380500D01*
X75153466Y-32380500D01*
X75153467Y-32380499D01*
X75356420Y-32340130D01*
X75547598Y-32260941D01*
X75719655Y-32145977D01*
X75865977Y-31999655D01*
X75980941Y-31827598D01*
X76060130Y-31636420D01*
X76100500Y-31433465D01*
X76100500Y-31226535D01*
X76060130Y-31023580D01*
X76020550Y-30928028D01*
X76013082Y-30858560D01*
X76044357Y-30796080D01*
X76047431Y-30792895D01*
X76175274Y-30665053D01*
X76325208Y-30515119D01*
X76386531Y-30481634D01*
X76412889Y-30478800D01*
X76663340Y-30478800D01*
X76730379Y-30498485D01*
G37*
G04 #@! TD.AperFunction*
G04 #@! TA.AperFunction,Conductor*
G36*
X68545270Y-32091717D02*
G01*
X68545270Y-32091716D01*
X68584622Y-32037554D01*
X68681095Y-31848217D01*
X68738343Y-31672026D01*
X68777780Y-31614351D01*
X68842139Y-31587152D01*
X68910985Y-31599066D01*
X68962461Y-31646310D01*
X68970835Y-31662891D01*
X69025939Y-31795925D01*
X69039059Y-31827598D01*
X69063327Y-31863918D01*
X69154024Y-31999657D01*
X69300342Y-32145975D01*
X69300345Y-32145977D01*
X69472402Y-32260941D01*
X69663580Y-32340130D01*
X69828855Y-32373005D01*
X69866530Y-32380499D01*
X69866534Y-32380500D01*
X69866535Y-32380500D01*
X70073466Y-32380500D01*
X70073467Y-32380499D01*
X70276420Y-32340130D01*
X70371970Y-32300550D01*
X70441439Y-32293082D01*
X70503918Y-32324357D01*
X70507104Y-32327431D01*
X70878181Y-32698508D01*
X70892884Y-32725435D01*
X70909477Y-32751254D01*
X70910368Y-32757454D01*
X70911666Y-32759831D01*
X70914500Y-32786188D01*
X70914500Y-33029505D01*
X70894815Y-33096544D01*
X70842011Y-33142299D01*
X70772853Y-33152243D01*
X70709297Y-33123218D01*
X70702819Y-33117186D01*
X70639657Y-33054024D01*
X70483652Y-32949786D01*
X70467598Y-32939059D01*
X70467593Y-32939057D01*
X70276420Y-32859870D01*
X70276412Y-32859868D01*
X70073469Y-32819500D01*
X70073465Y-32819500D01*
X69866535Y-32819500D01*
X69866530Y-32819500D01*
X69663587Y-32859868D01*
X69663579Y-32859870D01*
X69472403Y-32939058D01*
X69300342Y-33054024D01*
X69154025Y-33200341D01*
X69144859Y-33214060D01*
X69128691Y-33227571D01*
X69116068Y-33244434D01*
X69102422Y-33249523D01*
X69091246Y-33258864D01*
X69070343Y-33261489D01*
X69050604Y-33268852D01*
X69036371Y-33265756D01*
X69021921Y-33267571D01*
X69002918Y-33258479D01*
X68982331Y-33254001D01*
X68962448Y-33239116D01*
X68958894Y-33237416D01*
X68954077Y-33232850D01*
X68924988Y-33203761D01*
X68899862Y-33178635D01*
X68899859Y-33178633D01*
X68581094Y-32859868D01*
X68230299Y-32509072D01*
X68199963Y-32453516D01*
X67559409Y-31812962D01*
X67622993Y-31795925D01*
X67737007Y-31730099D01*
X67830099Y-31637007D01*
X67895925Y-31522993D01*
X67912962Y-31459409D01*
X68545270Y-32091717D01*
G37*
G04 #@! TD.AperFunction*
G04 #@! TA.AperFunction,Conductor*
G36*
X46367913Y-29991585D02*
G01*
X46413668Y-30044389D01*
X46423612Y-30113547D01*
X46394587Y-30177103D01*
X46373758Y-30196219D01*
X46348282Y-30214727D01*
X46348282Y-30214728D01*
X46980591Y-30847037D01*
X46917007Y-30864075D01*
X46802993Y-30929901D01*
X46709901Y-31022993D01*
X46644075Y-31137007D01*
X46627037Y-31200591D01*
X45994728Y-30568282D01*
X45994727Y-30568282D01*
X45955380Y-30622439D01*
X45858905Y-30811781D01*
X45801656Y-30987974D01*
X45762218Y-31045649D01*
X45697859Y-31072847D01*
X45629013Y-31060932D01*
X45577537Y-31013688D01*
X45569164Y-30997107D01*
X45568999Y-30996709D01*
X45514500Y-30865136D01*
X45500943Y-30832405D01*
X45385975Y-30660342D01*
X45239657Y-30514024D01*
X45153626Y-30456541D01*
X45067598Y-30399059D01*
X45048516Y-30391155D01*
X44876420Y-30319870D01*
X44876412Y-30319868D01*
X44673469Y-30279500D01*
X44673465Y-30279500D01*
X44466535Y-30279500D01*
X44466530Y-30279500D01*
X44263587Y-30319868D01*
X44263579Y-30319870D01*
X44072403Y-30399058D01*
X43900342Y-30514024D01*
X43754024Y-30660342D01*
X43639058Y-30832403D01*
X43559870Y-31023579D01*
X43559868Y-31023587D01*
X43519500Y-31226530D01*
X43519500Y-31433469D01*
X43559868Y-31636412D01*
X43559870Y-31636420D01*
X43599448Y-31731969D01*
X43606917Y-31801438D01*
X43575642Y-31863918D01*
X43572568Y-31867103D01*
X43109237Y-32330435D01*
X43109235Y-32330438D01*
X43068992Y-32400141D01*
X43066382Y-32404661D01*
X43047706Y-32474361D01*
X43046799Y-32477747D01*
X43044200Y-32487444D01*
X43044200Y-32694803D01*
X43024515Y-32761842D01*
X42971711Y-32807597D01*
X42902553Y-32817541D01*
X42847315Y-32795122D01*
X42737553Y-32715376D01*
X42548216Y-32618904D01*
X42372026Y-32561656D01*
X42314350Y-32522218D01*
X42287152Y-32457860D01*
X42299067Y-32389013D01*
X42346311Y-32337538D01*
X42362882Y-32329168D01*
X42527598Y-32260941D01*
X42699655Y-32145977D01*
X42845977Y-31999655D01*
X42960941Y-31827598D01*
X43040130Y-31636420D01*
X43080500Y-31433465D01*
X43080500Y-31226535D01*
X43040130Y-31023580D01*
X43000550Y-30928028D01*
X42993082Y-30858560D01*
X43024357Y-30796080D01*
X43027431Y-30792895D01*
X43812108Y-30008219D01*
X43873431Y-29974734D01*
X43899789Y-29971900D01*
X46300874Y-29971900D01*
X46367913Y-29991585D01*
G37*
G04 #@! TD.AperFunction*
G04 #@! TA.AperFunction,Conductor*
G36*
X85498472Y-28625695D02*
G01*
X85818297Y-28643656D01*
X85832094Y-28645210D01*
X86144457Y-28698283D01*
X86158014Y-28701377D01*
X86462469Y-28789089D01*
X86475593Y-28793682D01*
X86768304Y-28914926D01*
X86780826Y-28920955D01*
X86947594Y-29013125D01*
X87058139Y-29074221D01*
X87069900Y-29081611D01*
X87328314Y-29264966D01*
X87339174Y-29273627D01*
X87575418Y-29484749D01*
X87585250Y-29494581D01*
X87796372Y-29730825D01*
X87805035Y-29741687D01*
X87988385Y-30000094D01*
X87995778Y-30011860D01*
X88149040Y-30289166D01*
X88155073Y-30301695D01*
X88276317Y-30594406D01*
X88280910Y-30607530D01*
X88368622Y-30911985D01*
X88371716Y-30925542D01*
X88424787Y-31237894D01*
X88426344Y-31251712D01*
X88444305Y-31571527D01*
X88444500Y-31578480D01*
X88444500Y-82071519D01*
X88444305Y-82078472D01*
X88426344Y-82398287D01*
X88424787Y-82412105D01*
X88371716Y-82724457D01*
X88368622Y-82738014D01*
X88280910Y-83042469D01*
X88276317Y-83055593D01*
X88155073Y-83348304D01*
X88149040Y-83360833D01*
X87995778Y-83638139D01*
X87988380Y-83649913D01*
X87805043Y-83908302D01*
X87796372Y-83919174D01*
X87585250Y-84155418D01*
X87575418Y-84165250D01*
X87339174Y-84376372D01*
X87328302Y-84385043D01*
X87069913Y-84568380D01*
X87058139Y-84575778D01*
X86780833Y-84729040D01*
X86768304Y-84735073D01*
X86475593Y-84856317D01*
X86462469Y-84860910D01*
X86158014Y-84948622D01*
X86144457Y-84951716D01*
X85832105Y-85004787D01*
X85818287Y-85006344D01*
X85498472Y-85024305D01*
X85491519Y-85024500D01*
X70287259Y-85024500D01*
X70220220Y-85004815D01*
X70174465Y-84952011D01*
X70164521Y-84882853D01*
X70193546Y-84819297D01*
X70248941Y-84782569D01*
X70425802Y-84725102D01*
X70636163Y-84617918D01*
X70636169Y-84617914D01*
X70719104Y-84557658D01*
X70719105Y-84557658D01*
X70020233Y-83858787D01*
X70062292Y-83847518D01*
X70187708Y-83775110D01*
X70290110Y-83672708D01*
X70362518Y-83547292D01*
X70373787Y-83505234D01*
X71072658Y-84204105D01*
X71072658Y-84204104D01*
X71132914Y-84121169D01*
X71132918Y-84121163D01*
X71240102Y-83910802D01*
X71313065Y-83686247D01*
X71350000Y-83453052D01*
X71350000Y-83216947D01*
X71313065Y-82983754D01*
X71242468Y-82766479D01*
X71242467Y-82766476D01*
X71242467Y-82766474D01*
X71240103Y-82759198D01*
X71227390Y-82734247D01*
X75734500Y-82734247D01*
X75734500Y-84573752D01*
X75746131Y-84632229D01*
X75746132Y-84632230D01*
X75790447Y-84698552D01*
X75856769Y-84742867D01*
X75856770Y-84742868D01*
X75915247Y-84754499D01*
X75915250Y-84754500D01*
X75915252Y-84754500D01*
X77754750Y-84754500D01*
X77754751Y-84754499D01*
X77769568Y-84751552D01*
X77813229Y-84742868D01*
X77813229Y-84742867D01*
X77813231Y-84742867D01*
X77879552Y-84698552D01*
X77923867Y-84632231D01*
X77923867Y-84632229D01*
X77923868Y-84632229D01*
X77935499Y-84573752D01*
X77935500Y-84573750D01*
X77935500Y-82734249D01*
X77935499Y-82734247D01*
X77923868Y-82675770D01*
X77923867Y-82675769D01*
X77879552Y-82609447D01*
X77813230Y-82565132D01*
X77813229Y-82565131D01*
X77754752Y-82553500D01*
X77754748Y-82553500D01*
X75915252Y-82553500D01*
X75915247Y-82553500D01*
X75856770Y-82565131D01*
X75856769Y-82565132D01*
X75790447Y-82609447D01*
X75746132Y-82675769D01*
X75746131Y-82675770D01*
X75734500Y-82734247D01*
X71227390Y-82734247D01*
X71132914Y-82548828D01*
X71072658Y-82465894D01*
X71072658Y-82465893D01*
X70373787Y-83164765D01*
X70362518Y-83122708D01*
X70290110Y-82997292D01*
X70187708Y-82894890D01*
X70062292Y-82822482D01*
X70020234Y-82811212D01*
X70719105Y-82112340D01*
X70719104Y-82112338D01*
X70636174Y-82052087D01*
X70425802Y-81944897D01*
X70201247Y-81871934D01*
X70201248Y-81871934D01*
X69968052Y-81835000D01*
X69731948Y-81835000D01*
X69498752Y-81871934D01*
X69274197Y-81944897D01*
X69063830Y-82052084D01*
X68980894Y-82112340D01*
X69679766Y-82811212D01*
X69637708Y-82822482D01*
X69512292Y-82894890D01*
X69409890Y-82997292D01*
X69337482Y-83122708D01*
X69326212Y-83164766D01*
X68627340Y-82465894D01*
X68567084Y-82548830D01*
X68459897Y-82759197D01*
X68386934Y-82983752D01*
X68350000Y-83216947D01*
X68350000Y-83453052D01*
X68386934Y-83686247D01*
X68459897Y-83910802D01*
X68567087Y-84121174D01*
X68627338Y-84204104D01*
X68627340Y-84204105D01*
X69326212Y-83505233D01*
X69337482Y-83547292D01*
X69409890Y-83672708D01*
X69512292Y-83775110D01*
X69637708Y-83847518D01*
X69679765Y-83858787D01*
X68980893Y-84557658D01*
X69063828Y-84617914D01*
X69274197Y-84725102D01*
X69451059Y-84782569D01*
X69508735Y-84822007D01*
X69535933Y-84886365D01*
X69524018Y-84955212D01*
X69476774Y-85006687D01*
X69412741Y-85024500D01*
X62032259Y-85024500D01*
X61965220Y-85004815D01*
X61919465Y-84952011D01*
X61909521Y-84882853D01*
X61938546Y-84819297D01*
X61993941Y-84782569D01*
X62170802Y-84725102D01*
X62381163Y-84617918D01*
X62381169Y-84617914D01*
X62464104Y-84557658D01*
X62464105Y-84557658D01*
X61765233Y-83858787D01*
X61807292Y-83847518D01*
X61932708Y-83775110D01*
X62035110Y-83672708D01*
X62107518Y-83547292D01*
X62118787Y-83505234D01*
X62817658Y-84204105D01*
X62817658Y-84204104D01*
X62877914Y-84121169D01*
X62877918Y-84121163D01*
X62985102Y-83910802D01*
X63058065Y-83686247D01*
X63095000Y-83453052D01*
X63095000Y-83216947D01*
X63058065Y-82983752D01*
X62985102Y-82759197D01*
X62877914Y-82548828D01*
X62817658Y-82465894D01*
X62817658Y-82465893D01*
X62118787Y-83164765D01*
X62107518Y-83122708D01*
X62035110Y-82997292D01*
X61932708Y-82894890D01*
X61807292Y-82822482D01*
X61765234Y-82811212D01*
X62464105Y-82112340D01*
X62464104Y-82112338D01*
X62381174Y-82052087D01*
X62170802Y-81944897D01*
X61946247Y-81871934D01*
X61946248Y-81871934D01*
X61713052Y-81835000D01*
X61476948Y-81835000D01*
X61243752Y-81871934D01*
X61019197Y-81944897D01*
X60808830Y-82052084D01*
X60725894Y-82112340D01*
X61424766Y-82811212D01*
X61382708Y-82822482D01*
X61257292Y-82894890D01*
X61154890Y-82997292D01*
X61082482Y-83122708D01*
X61071212Y-83164766D01*
X60372340Y-82465894D01*
X60312084Y-82548830D01*
X60204897Y-82759197D01*
X60131934Y-82983752D01*
X60095000Y-83216947D01*
X60095000Y-83453052D01*
X60131934Y-83686247D01*
X60204897Y-83910802D01*
X60312087Y-84121174D01*
X60372338Y-84204104D01*
X60372340Y-84204105D01*
X61071212Y-83505233D01*
X61082482Y-83547292D01*
X61154890Y-83672708D01*
X61257292Y-83775110D01*
X61382708Y-83847518D01*
X61424765Y-83858787D01*
X60725893Y-84557658D01*
X60808828Y-84617914D01*
X61019197Y-84725102D01*
X61196059Y-84782569D01*
X61253735Y-84822007D01*
X61280933Y-84886365D01*
X61269018Y-84955212D01*
X61221774Y-85006687D01*
X61157741Y-85024500D01*
X53777259Y-85024500D01*
X53710220Y-85004815D01*
X53664465Y-84952011D01*
X53654521Y-84882853D01*
X53683546Y-84819297D01*
X53738941Y-84782569D01*
X53915802Y-84725102D01*
X54126163Y-84617918D01*
X54126169Y-84617914D01*
X54209104Y-84557658D01*
X54209105Y-84557658D01*
X53510233Y-83858787D01*
X53552292Y-83847518D01*
X53677708Y-83775110D01*
X53780110Y-83672708D01*
X53852518Y-83547292D01*
X53863787Y-83505234D01*
X54562658Y-84204105D01*
X54562658Y-84204104D01*
X54622914Y-84121169D01*
X54622918Y-84121163D01*
X54730102Y-83910802D01*
X54803065Y-83686247D01*
X54840000Y-83453052D01*
X54840000Y-83216947D01*
X54803065Y-82983752D01*
X54730102Y-82759197D01*
X54622914Y-82548828D01*
X54562658Y-82465894D01*
X54562658Y-82465893D01*
X53863787Y-83164765D01*
X53852518Y-83122708D01*
X53780110Y-82997292D01*
X53677708Y-82894890D01*
X53552292Y-82822482D01*
X53510234Y-82811212D01*
X54209105Y-82112340D01*
X54209104Y-82112338D01*
X54126174Y-82052087D01*
X53915802Y-81944897D01*
X53691247Y-81871934D01*
X53691248Y-81871934D01*
X53458052Y-81835000D01*
X53221948Y-81835000D01*
X52988752Y-81871934D01*
X52764197Y-81944897D01*
X52553830Y-82052084D01*
X52470894Y-82112340D01*
X53169766Y-82811212D01*
X53127708Y-82822482D01*
X53002292Y-82894890D01*
X52899890Y-82997292D01*
X52827482Y-83122708D01*
X52816212Y-83164766D01*
X52117340Y-82465894D01*
X52057084Y-82548830D01*
X51949897Y-82759197D01*
X51876934Y-82983752D01*
X51840000Y-83216947D01*
X51840000Y-83453052D01*
X51876934Y-83686247D01*
X51949897Y-83910802D01*
X52057087Y-84121174D01*
X52117338Y-84204104D01*
X52117340Y-84204105D01*
X52816212Y-83505233D01*
X52827482Y-83547292D01*
X52899890Y-83672708D01*
X53002292Y-83775110D01*
X53127708Y-83847518D01*
X53169765Y-83858787D01*
X52470893Y-84557658D01*
X52553828Y-84617914D01*
X52764197Y-84725102D01*
X52941059Y-84782569D01*
X52998735Y-84822007D01*
X53025933Y-84886365D01*
X53014018Y-84955212D01*
X52966774Y-85006687D01*
X52902741Y-85024500D01*
X45522259Y-85024500D01*
X45455220Y-85004815D01*
X45409465Y-84952011D01*
X45399521Y-84882853D01*
X45428546Y-84819297D01*
X45483941Y-84782569D01*
X45660802Y-84725102D01*
X45871163Y-84617918D01*
X45871169Y-84617914D01*
X45954104Y-84557658D01*
X45954105Y-84557658D01*
X45255233Y-83858787D01*
X45297292Y-83847518D01*
X45422708Y-83775110D01*
X45525110Y-83672708D01*
X45597518Y-83547292D01*
X45608787Y-83505234D01*
X46307658Y-84204105D01*
X46307658Y-84204104D01*
X46367914Y-84121169D01*
X46367918Y-84121163D01*
X46475102Y-83910802D01*
X46548065Y-83686247D01*
X46585000Y-83453052D01*
X46585000Y-83216947D01*
X46548065Y-82983752D01*
X46475102Y-82759197D01*
X46367914Y-82548828D01*
X46307658Y-82465894D01*
X46307658Y-82465893D01*
X45608787Y-83164765D01*
X45597518Y-83122708D01*
X45525110Y-82997292D01*
X45422708Y-82894890D01*
X45297292Y-82822482D01*
X45255234Y-82811212D01*
X45954105Y-82112340D01*
X45954104Y-82112338D01*
X45871174Y-82052087D01*
X45660802Y-81944897D01*
X45436247Y-81871934D01*
X45436248Y-81871934D01*
X45203052Y-81835000D01*
X44966948Y-81835000D01*
X44733752Y-81871934D01*
X44509197Y-81944897D01*
X44298830Y-82052084D01*
X44215894Y-82112340D01*
X44914766Y-82811212D01*
X44872708Y-82822482D01*
X44747292Y-82894890D01*
X44644890Y-82997292D01*
X44572482Y-83122708D01*
X44561212Y-83164766D01*
X43862340Y-82465894D01*
X43802084Y-82548830D01*
X43694897Y-82759197D01*
X43621934Y-82983752D01*
X43585000Y-83216947D01*
X43585000Y-83453052D01*
X43621934Y-83686247D01*
X43694897Y-83910802D01*
X43802087Y-84121174D01*
X43862338Y-84204104D01*
X43862340Y-84204105D01*
X44561212Y-83505233D01*
X44572482Y-83547292D01*
X44644890Y-83672708D01*
X44747292Y-83775110D01*
X44872708Y-83847518D01*
X44914765Y-83858787D01*
X44215893Y-84557658D01*
X44298828Y-84617914D01*
X44509197Y-84725102D01*
X44686059Y-84782569D01*
X44743735Y-84822007D01*
X44770933Y-84886365D01*
X44759018Y-84955212D01*
X44711774Y-85006687D01*
X44647741Y-85024500D01*
X37267259Y-85024500D01*
X37200220Y-85004815D01*
X37154465Y-84952011D01*
X37144521Y-84882853D01*
X37173546Y-84819297D01*
X37228941Y-84782569D01*
X37405802Y-84725102D01*
X37616163Y-84617918D01*
X37616169Y-84617914D01*
X37699104Y-84557658D01*
X37699105Y-84557658D01*
X37000233Y-83858787D01*
X37042292Y-83847518D01*
X37167708Y-83775110D01*
X37270110Y-83672708D01*
X37342518Y-83547292D01*
X37353787Y-83505233D01*
X38052658Y-84204105D01*
X38052658Y-84204104D01*
X38112914Y-84121169D01*
X38112918Y-84121163D01*
X38220102Y-83910802D01*
X38293065Y-83686247D01*
X38330000Y-83453052D01*
X38330000Y-83216947D01*
X38293065Y-82983752D01*
X38220102Y-82759197D01*
X38112914Y-82548828D01*
X38052658Y-82465894D01*
X38052658Y-82465893D01*
X37353787Y-83164765D01*
X37342518Y-83122708D01*
X37270110Y-82997292D01*
X37167708Y-82894890D01*
X37042292Y-82822482D01*
X37000234Y-82811212D01*
X37699105Y-82112340D01*
X37699104Y-82112338D01*
X37616174Y-82052087D01*
X37405802Y-81944897D01*
X37181247Y-81871934D01*
X37181248Y-81871934D01*
X36948052Y-81835000D01*
X36711948Y-81835000D01*
X36478752Y-81871934D01*
X36254197Y-81944897D01*
X36043830Y-82052084D01*
X35960894Y-82112340D01*
X36659766Y-82811212D01*
X36617708Y-82822482D01*
X36492292Y-82894890D01*
X36389890Y-82997292D01*
X36317482Y-83122708D01*
X36306212Y-83164766D01*
X35607340Y-82465894D01*
X35547084Y-82548830D01*
X35439897Y-82759197D01*
X35366934Y-82983752D01*
X35330000Y-83216947D01*
X35330000Y-83453052D01*
X35366934Y-83686247D01*
X35439897Y-83910802D01*
X35547087Y-84121174D01*
X35607338Y-84204104D01*
X35607340Y-84204105D01*
X36306212Y-83505233D01*
X36317482Y-83547292D01*
X36389890Y-83672708D01*
X36492292Y-83775110D01*
X36617708Y-83847518D01*
X36659765Y-83858787D01*
X35960893Y-84557658D01*
X36043828Y-84617914D01*
X36254197Y-84725102D01*
X36431059Y-84782569D01*
X36488735Y-84822007D01*
X36515933Y-84886365D01*
X36504018Y-84955212D01*
X36456774Y-85006687D01*
X36392741Y-85024500D01*
X26498481Y-85024500D01*
X26491528Y-85024305D01*
X26171712Y-85006344D01*
X26157894Y-85004787D01*
X25845542Y-84951716D01*
X25831985Y-84948622D01*
X25527530Y-84860910D01*
X25514406Y-84856317D01*
X25221695Y-84735073D01*
X25209166Y-84729040D01*
X24931860Y-84575778D01*
X24920094Y-84568385D01*
X24661687Y-84385035D01*
X24650825Y-84376372D01*
X24414581Y-84165250D01*
X24404749Y-84155418D01*
X24193627Y-83919174D01*
X24184966Y-83908314D01*
X24001611Y-83649900D01*
X23994221Y-83638139D01*
X23840955Y-83360826D01*
X23834926Y-83348304D01*
X23713682Y-83055593D01*
X23709089Y-83042469D01*
X23621377Y-82738014D01*
X23618283Y-82724457D01*
X23600137Y-82617656D01*
X23565210Y-82412094D01*
X23563656Y-82398297D01*
X23545695Y-82078472D01*
X23545500Y-82071519D01*
X23545500Y-81449038D01*
X25394500Y-81449038D01*
X25394500Y-81700961D01*
X25433910Y-81949785D01*
X25511760Y-82189383D01*
X25590413Y-82343747D01*
X25625243Y-82412105D01*
X25626132Y-82413848D01*
X25774201Y-82617649D01*
X25774205Y-82617654D01*
X25952345Y-82795794D01*
X25952350Y-82795798D01*
X26130117Y-82924952D01*
X26156155Y-82943870D01*
X26261002Y-82997292D01*
X26380616Y-83058239D01*
X26380618Y-83058239D01*
X26380621Y-83058241D01*
X26620215Y-83136090D01*
X26869038Y-83175500D01*
X26869039Y-83175500D01*
X27120961Y-83175500D01*
X27120962Y-83175500D01*
X27369785Y-83136090D01*
X27609379Y-83058241D01*
X27833845Y-82943870D01*
X28037656Y-82795793D01*
X28215793Y-82617656D01*
X28363870Y-82413845D01*
X28478241Y-82189379D01*
X28556090Y-81949785D01*
X28595500Y-81700962D01*
X28595500Y-81449038D01*
X28556090Y-81200215D01*
X28478241Y-80960621D01*
X28478239Y-80960618D01*
X28478239Y-80960616D01*
X28425086Y-80856299D01*
X28363870Y-80736155D01*
X28219330Y-80537212D01*
X28215798Y-80532350D01*
X28215794Y-80532345D01*
X28037654Y-80354205D01*
X28037649Y-80354201D01*
X27833848Y-80206132D01*
X27833847Y-80206131D01*
X27833845Y-80206130D01*
X27763747Y-80170413D01*
X27609383Y-80091760D01*
X27369785Y-80013910D01*
X27367196Y-80013500D01*
X27120962Y-79974500D01*
X26869038Y-79974500D01*
X26744626Y-79994205D01*
X26620214Y-80013910D01*
X26380616Y-80091760D01*
X26156151Y-80206132D01*
X25952350Y-80354201D01*
X25952345Y-80354205D01*
X25774205Y-80532345D01*
X25774201Y-80532350D01*
X25626132Y-80736151D01*
X25511760Y-80960616D01*
X25433910Y-81200214D01*
X25394500Y-81449038D01*
X23545500Y-81449038D01*
X23545500Y-76740513D01*
X31129500Y-76740513D01*
X31129500Y-76929486D01*
X31159059Y-77116118D01*
X31217454Y-77295836D01*
X31243788Y-77347518D01*
X31303240Y-77464199D01*
X31414310Y-77617073D01*
X31547927Y-77750690D01*
X31700801Y-77861760D01*
X31869168Y-77947547D01*
X31918817Y-77963679D01*
X31976492Y-78003115D01*
X32003692Y-78067473D01*
X32004500Y-78081610D01*
X32004500Y-82088389D01*
X31984815Y-82155428D01*
X31932011Y-82201183D01*
X31918820Y-82206319D01*
X31869167Y-82222452D01*
X31700800Y-82308240D01*
X31613579Y-82371610D01*
X31547927Y-82419310D01*
X31547925Y-82419312D01*
X31547924Y-82419312D01*
X31414312Y-82552924D01*
X31414312Y-82552925D01*
X31414310Y-82552927D01*
X31405443Y-82565132D01*
X31303240Y-82705800D01*
X31217454Y-82874163D01*
X31159059Y-83053881D01*
X31129500Y-83240513D01*
X31129500Y-83429486D01*
X31159059Y-83616118D01*
X31217454Y-83795836D01*
X31303240Y-83964199D01*
X31414310Y-84117073D01*
X31547927Y-84250690D01*
X31700801Y-84361760D01*
X31746497Y-84385043D01*
X31869163Y-84447545D01*
X31869165Y-84447545D01*
X31869168Y-84447547D01*
X31965497Y-84478846D01*
X32048881Y-84505940D01*
X32235514Y-84535500D01*
X32235519Y-84535500D01*
X32424486Y-84535500D01*
X32611118Y-84505940D01*
X32790832Y-84447547D01*
X32959199Y-84361760D01*
X33112073Y-84250690D01*
X33245690Y-84117073D01*
X33356760Y-83964199D01*
X33442547Y-83795832D01*
X33500940Y-83616118D01*
X33526767Y-83453052D01*
X33530500Y-83429486D01*
X33530500Y-83240514D01*
X33529068Y-83231474D01*
X33529068Y-83231473D01*
X33500940Y-83053881D01*
X33442545Y-82874163D01*
X33383967Y-82759198D01*
X33356760Y-82705801D01*
X33245690Y-82552927D01*
X33112073Y-82419310D01*
X32959199Y-82308240D01*
X32790832Y-82222453D01*
X32735164Y-82204365D01*
X32729370Y-82201804D01*
X32707327Y-82183170D01*
X32683505Y-82166881D01*
X32680975Y-82160894D01*
X32676011Y-82156698D01*
X32667541Y-82129104D01*
X32656308Y-82102522D01*
X32655604Y-82090214D01*
X32655509Y-82089904D01*
X32655573Y-82089674D01*
X32655500Y-82088389D01*
X32655500Y-78081610D01*
X32675185Y-78014571D01*
X32727989Y-77968816D01*
X32741174Y-77963681D01*
X32790832Y-77947547D01*
X32959199Y-77861760D01*
X33112073Y-77750690D01*
X33245690Y-77617073D01*
X33356760Y-77464199D01*
X33442547Y-77295832D01*
X33500940Y-77116118D01*
X33526767Y-76953052D01*
X33530500Y-76929486D01*
X33530500Y-76740514D01*
X33529068Y-76731474D01*
X33529068Y-76731473D01*
X33526767Y-76716947D01*
X35330000Y-76716947D01*
X35330000Y-76953052D01*
X35366934Y-77186247D01*
X35439897Y-77410802D01*
X35547087Y-77621174D01*
X35607338Y-77704104D01*
X35607340Y-77704105D01*
X36306212Y-77005233D01*
X36317482Y-77047292D01*
X36389890Y-77172708D01*
X36492292Y-77275110D01*
X36617708Y-77347518D01*
X36659765Y-77358787D01*
X35960893Y-78057658D01*
X36043828Y-78117914D01*
X36254197Y-78225102D01*
X36478752Y-78298065D01*
X36478751Y-78298065D01*
X36711948Y-78335000D01*
X36948052Y-78335000D01*
X37181247Y-78298065D01*
X37405802Y-78225102D01*
X37616163Y-78117918D01*
X37616169Y-78117914D01*
X37699104Y-78057658D01*
X37699105Y-78057658D01*
X37000233Y-77358787D01*
X37042292Y-77347518D01*
X37167708Y-77275110D01*
X37270110Y-77172708D01*
X37342518Y-77047292D01*
X37353787Y-77005233D01*
X38052658Y-77704105D01*
X38052658Y-77704104D01*
X38112914Y-77621169D01*
X38112918Y-77621163D01*
X38220102Y-77410802D01*
X38293065Y-77186247D01*
X38330000Y-76953052D01*
X38330000Y-76740513D01*
X39384500Y-76740513D01*
X39384500Y-76929486D01*
X39414059Y-77116118D01*
X39472454Y-77295836D01*
X39498788Y-77347518D01*
X39558240Y-77464199D01*
X39669310Y-77617073D01*
X39802927Y-77750690D01*
X39955801Y-77861760D01*
X40124168Y-77947547D01*
X40173817Y-77963679D01*
X40231492Y-78003115D01*
X40258692Y-78067473D01*
X40259500Y-78081610D01*
X40259500Y-82088389D01*
X40239815Y-82155428D01*
X40187011Y-82201183D01*
X40173820Y-82206319D01*
X40124167Y-82222452D01*
X39955800Y-82308240D01*
X39868579Y-82371610D01*
X39802927Y-82419310D01*
X39802925Y-82419312D01*
X39802924Y-82419312D01*
X39669312Y-82552924D01*
X39669312Y-82552925D01*
X39669310Y-82552927D01*
X39660443Y-82565132D01*
X39558240Y-82705800D01*
X39472454Y-82874163D01*
X39414059Y-83053881D01*
X39384500Y-83240513D01*
X39384500Y-83429486D01*
X39414059Y-83616118D01*
X39472454Y-83795836D01*
X39558240Y-83964199D01*
X39669310Y-84117073D01*
X39802927Y-84250690D01*
X39955801Y-84361760D01*
X40001497Y-84385043D01*
X40124163Y-84447545D01*
X40124165Y-84447545D01*
X40124168Y-84447547D01*
X40220497Y-84478846D01*
X40303881Y-84505940D01*
X40490514Y-84535500D01*
X40490519Y-84535500D01*
X40679486Y-84535500D01*
X40866118Y-84505940D01*
X41045832Y-84447547D01*
X41214199Y-84361760D01*
X41367073Y-84250690D01*
X41500690Y-84117073D01*
X41611760Y-83964199D01*
X41697547Y-83795832D01*
X41755940Y-83616118D01*
X41781767Y-83453052D01*
X41785500Y-83429486D01*
X41785500Y-83240514D01*
X41784068Y-83231474D01*
X41784068Y-83231473D01*
X41755940Y-83053881D01*
X41697545Y-82874163D01*
X41638967Y-82759198D01*
X41611760Y-82705801D01*
X41500690Y-82552927D01*
X41367073Y-82419310D01*
X41214199Y-82308240D01*
X41045832Y-82222453D01*
X40990164Y-82204365D01*
X40984370Y-82201804D01*
X40962327Y-82183170D01*
X40938505Y-82166881D01*
X40935975Y-82160894D01*
X40931011Y-82156698D01*
X40922541Y-82129104D01*
X40911308Y-82102522D01*
X40910604Y-82090214D01*
X40910509Y-82089904D01*
X40910573Y-82089674D01*
X40910500Y-82088389D01*
X40910500Y-78081610D01*
X40930185Y-78014571D01*
X40982989Y-77968816D01*
X40996174Y-77963681D01*
X41045832Y-77947547D01*
X41214199Y-77861760D01*
X41367073Y-77750690D01*
X41500690Y-77617073D01*
X41611760Y-77464199D01*
X41697547Y-77295832D01*
X41755940Y-77116118D01*
X41781767Y-76953052D01*
X41785500Y-76929486D01*
X41785500Y-76740514D01*
X41784068Y-76731474D01*
X41784068Y-76731473D01*
X41781767Y-76716947D01*
X43585000Y-76716947D01*
X43585000Y-76953052D01*
X43621934Y-77186247D01*
X43694897Y-77410802D01*
X43802087Y-77621174D01*
X43862338Y-77704104D01*
X43862340Y-77704105D01*
X44561212Y-77005233D01*
X44572482Y-77047292D01*
X44644890Y-77172708D01*
X44747292Y-77275110D01*
X44872708Y-77347518D01*
X44914765Y-77358787D01*
X44215893Y-78057658D01*
X44298828Y-78117914D01*
X44509197Y-78225102D01*
X44733752Y-78298065D01*
X44733751Y-78298065D01*
X44966948Y-78335000D01*
X45203052Y-78335000D01*
X45436247Y-78298065D01*
X45660802Y-78225102D01*
X45871163Y-78117918D01*
X45871169Y-78117914D01*
X45954104Y-78057658D01*
X45954105Y-78057658D01*
X45255233Y-77358787D01*
X45297292Y-77347518D01*
X45422708Y-77275110D01*
X45525110Y-77172708D01*
X45597518Y-77047292D01*
X45608787Y-77005234D01*
X46307658Y-77704105D01*
X46307658Y-77704104D01*
X46367914Y-77621169D01*
X46367918Y-77621163D01*
X46475102Y-77410802D01*
X46548065Y-77186247D01*
X46585000Y-76953052D01*
X46585000Y-76740513D01*
X47639500Y-76740513D01*
X47639500Y-76929486D01*
X47669059Y-77116118D01*
X47727454Y-77295836D01*
X47753788Y-77347518D01*
X47813240Y-77464199D01*
X47924310Y-77617073D01*
X48057927Y-77750690D01*
X48210801Y-77861760D01*
X48379168Y-77947547D01*
X48428817Y-77963679D01*
X48486492Y-78003115D01*
X48513692Y-78067473D01*
X48514500Y-78081610D01*
X48514500Y-82088389D01*
X48494815Y-82155428D01*
X48442011Y-82201183D01*
X48428820Y-82206319D01*
X48379167Y-82222452D01*
X48210800Y-82308240D01*
X48123579Y-82371610D01*
X48057927Y-82419310D01*
X48057925Y-82419312D01*
X48057924Y-82419312D01*
X47924312Y-82552924D01*
X47924312Y-82552925D01*
X47924310Y-82552927D01*
X47915443Y-82565132D01*
X47813240Y-82705800D01*
X47727454Y-82874163D01*
X47669059Y-83053881D01*
X47639500Y-83240513D01*
X47639500Y-83429486D01*
X47669059Y-83616118D01*
X47727454Y-83795836D01*
X47813240Y-83964199D01*
X47924310Y-84117073D01*
X48057927Y-84250690D01*
X48210801Y-84361760D01*
X48256497Y-84385043D01*
X48379163Y-84447545D01*
X48379165Y-84447545D01*
X48379168Y-84447547D01*
X48475497Y-84478846D01*
X48558881Y-84505940D01*
X48745514Y-84535500D01*
X48745519Y-84535500D01*
X48934486Y-84535500D01*
X49121118Y-84505940D01*
X49300832Y-84447547D01*
X49469199Y-84361760D01*
X49622073Y-84250690D01*
X49755690Y-84117073D01*
X49866760Y-83964199D01*
X49952547Y-83795832D01*
X50010940Y-83616118D01*
X50036767Y-83453052D01*
X50040500Y-83429486D01*
X50040500Y-83240514D01*
X50039068Y-83231474D01*
X50039068Y-83231473D01*
X50010940Y-83053881D01*
X49952545Y-82874163D01*
X49893967Y-82759198D01*
X49866760Y-82705801D01*
X49755690Y-82552927D01*
X49622073Y-82419310D01*
X49469199Y-82308240D01*
X49300832Y-82222453D01*
X49245164Y-82204365D01*
X49239370Y-82201804D01*
X49217327Y-82183170D01*
X49193505Y-82166881D01*
X49190975Y-82160894D01*
X49186011Y-82156698D01*
X49177541Y-82129104D01*
X49166308Y-82102522D01*
X49165604Y-82090214D01*
X49165509Y-82089904D01*
X49165573Y-82089674D01*
X49165500Y-82088389D01*
X49165500Y-78081610D01*
X49185185Y-78014571D01*
X49237989Y-77968816D01*
X49251174Y-77963681D01*
X49300832Y-77947547D01*
X49469199Y-77861760D01*
X49622073Y-77750690D01*
X49755690Y-77617073D01*
X49866760Y-77464199D01*
X49952547Y-77295832D01*
X50010940Y-77116118D01*
X50036767Y-76953052D01*
X50040500Y-76929486D01*
X50040500Y-76740514D01*
X50039068Y-76731474D01*
X50039068Y-76731473D01*
X50010940Y-76553881D01*
X49952545Y-76374163D01*
X49907114Y-76285000D01*
X49866760Y-76205801D01*
X49755690Y-76052927D01*
X49622073Y-75919310D01*
X49469199Y-75808240D01*
X49300836Y-75722454D01*
X49121118Y-75664059D01*
X48934486Y-75634500D01*
X48934481Y-75634500D01*
X48745519Y-75634500D01*
X48745514Y-75634500D01*
X48558881Y-75664059D01*
X48379163Y-75722454D01*
X48210800Y-75808240D01*
X48123579Y-75871610D01*
X48057927Y-75919310D01*
X48057925Y-75919312D01*
X48057924Y-75919312D01*
X47924312Y-76052924D01*
X47924312Y-76052925D01*
X47924310Y-76052927D01*
X47876610Y-76118579D01*
X47813240Y-76205800D01*
X47727454Y-76374163D01*
X47669059Y-76553881D01*
X47639500Y-76740513D01*
X46585000Y-76740513D01*
X46585000Y-76716947D01*
X46548065Y-76483752D01*
X46475102Y-76259197D01*
X46367914Y-76048828D01*
X46307658Y-75965894D01*
X46307658Y-75965893D01*
X45608787Y-76664765D01*
X45597518Y-76622708D01*
X45525110Y-76497292D01*
X45422708Y-76394890D01*
X45297292Y-76322482D01*
X45255234Y-76311212D01*
X45954105Y-75612340D01*
X45954104Y-75612338D01*
X45871174Y-75552087D01*
X45660802Y-75444897D01*
X45436247Y-75371934D01*
X45436248Y-75371934D01*
X45203052Y-75335000D01*
X44966948Y-75335000D01*
X44733752Y-75371934D01*
X44509197Y-75444897D01*
X44298830Y-75552084D01*
X44215894Y-75612340D01*
X44914766Y-76311212D01*
X44872708Y-76322482D01*
X44747292Y-76394890D01*
X44644890Y-76497292D01*
X44572482Y-76622708D01*
X44561212Y-76664766D01*
X43862340Y-75965894D01*
X43802084Y-76048830D01*
X43694897Y-76259197D01*
X43621934Y-76483752D01*
X43585000Y-76716947D01*
X41781767Y-76716947D01*
X41755940Y-76553881D01*
X41697545Y-76374163D01*
X41652114Y-76285000D01*
X41611760Y-76205801D01*
X41500690Y-76052927D01*
X41367073Y-75919310D01*
X41214199Y-75808240D01*
X41113309Y-75756834D01*
X41045836Y-75722454D01*
X40866118Y-75664059D01*
X40679486Y-75634500D01*
X40679481Y-75634500D01*
X40490519Y-75634500D01*
X40490514Y-75634500D01*
X40303881Y-75664059D01*
X40124163Y-75722454D01*
X39955800Y-75808240D01*
X39868579Y-75871610D01*
X39802927Y-75919310D01*
X39802925Y-75919312D01*
X39802924Y-75919312D01*
X39669312Y-76052924D01*
X39669312Y-76052925D01*
X39669310Y-76052927D01*
X39621610Y-76118579D01*
X39558240Y-76205800D01*
X39472454Y-76374163D01*
X39414059Y-76553881D01*
X39384500Y-76740513D01*
X38330000Y-76740513D01*
X38330000Y-76716947D01*
X38293065Y-76483752D01*
X38220102Y-76259197D01*
X38112914Y-76048828D01*
X38052658Y-75965894D01*
X38052658Y-75965893D01*
X37353787Y-76664765D01*
X37342518Y-76622708D01*
X37270110Y-76497292D01*
X37167708Y-76394890D01*
X37042292Y-76322482D01*
X37000234Y-76311212D01*
X37699105Y-75612340D01*
X37699104Y-75612338D01*
X37616174Y-75552087D01*
X37405802Y-75444897D01*
X37181247Y-75371934D01*
X37181248Y-75371934D01*
X36948052Y-75335000D01*
X36711948Y-75335000D01*
X36478752Y-75371934D01*
X36254197Y-75444897D01*
X36043830Y-75552084D01*
X35960894Y-75612340D01*
X36659766Y-76311212D01*
X36617708Y-76322482D01*
X36492292Y-76394890D01*
X36389890Y-76497292D01*
X36317482Y-76622708D01*
X36306212Y-76664766D01*
X35607340Y-75965894D01*
X35547084Y-76048830D01*
X35439897Y-76259197D01*
X35366934Y-76483752D01*
X35330000Y-76716947D01*
X33526767Y-76716947D01*
X33500940Y-76553881D01*
X33442545Y-76374163D01*
X33397114Y-76285000D01*
X33356760Y-76205801D01*
X33245690Y-76052927D01*
X33112073Y-75919310D01*
X32959199Y-75808240D01*
X32858309Y-75756834D01*
X32790836Y-75722454D01*
X32611118Y-75664059D01*
X32424486Y-75634500D01*
X32424481Y-75634500D01*
X32235519Y-75634500D01*
X32235514Y-75634500D01*
X32048881Y-75664059D01*
X31869163Y-75722454D01*
X31700800Y-75808240D01*
X31613579Y-75871610D01*
X31547927Y-75919310D01*
X31547925Y-75919312D01*
X31547924Y-75919312D01*
X31414312Y-76052924D01*
X31414312Y-76052925D01*
X31414310Y-76052927D01*
X31366610Y-76118579D01*
X31303240Y-76205800D01*
X31217454Y-76374163D01*
X31159059Y-76553881D01*
X31129500Y-76740513D01*
X23545500Y-76740513D01*
X23545500Y-73387753D01*
X36870000Y-73387753D01*
X36870000Y-73600246D01*
X36903242Y-73810127D01*
X36903242Y-73810130D01*
X36968904Y-74012217D01*
X37065375Y-74201550D01*
X37104728Y-74255716D01*
X37737037Y-73623408D01*
X37754075Y-73686993D01*
X37819901Y-73801007D01*
X37912993Y-73894099D01*
X38027007Y-73959925D01*
X38090590Y-73976962D01*
X37458282Y-74609269D01*
X37458282Y-74609270D01*
X37512449Y-74648624D01*
X37701782Y-74745095D01*
X37903870Y-74810757D01*
X38113754Y-74844000D01*
X38326246Y-74844000D01*
X38536127Y-74810757D01*
X38536130Y-74810757D01*
X38738217Y-74745095D01*
X38927554Y-74648622D01*
X38981716Y-74609270D01*
X38981717Y-74609270D01*
X38349408Y-73976962D01*
X38412993Y-73959925D01*
X38527007Y-73894099D01*
X38620099Y-73801007D01*
X38685925Y-73686993D01*
X38702962Y-73623408D01*
X39335270Y-74255717D01*
X39335270Y-74255716D01*
X39374622Y-74201554D01*
X39471095Y-74012217D01*
X39528343Y-73836026D01*
X39567780Y-73778351D01*
X39632139Y-73751152D01*
X39700985Y-73763066D01*
X39752461Y-73810310D01*
X39760835Y-73826891D01*
X39815939Y-73959925D01*
X39829059Y-73991598D01*
X39834927Y-74000380D01*
X39944024Y-74163657D01*
X40090342Y-74309975D01*
X40090345Y-74309977D01*
X40262402Y-74424941D01*
X40453580Y-74504130D01*
X40598052Y-74532867D01*
X40656530Y-74544499D01*
X40656534Y-74544500D01*
X40656535Y-74544500D01*
X40863466Y-74544500D01*
X40863467Y-74544499D01*
X41066420Y-74504130D01*
X41257598Y-74424941D01*
X41429655Y-74309977D01*
X41575977Y-74163655D01*
X41690941Y-73991598D01*
X41770130Y-73800420D01*
X41810500Y-73597465D01*
X41810500Y-73390535D01*
X41810499Y-73390530D01*
X42249500Y-73390530D01*
X42249500Y-73597469D01*
X42289868Y-73800412D01*
X42289870Y-73800420D01*
X42355939Y-73959925D01*
X42369059Y-73991598D01*
X42374927Y-74000380D01*
X42484024Y-74163657D01*
X42630342Y-74309975D01*
X42630345Y-74309977D01*
X42802402Y-74424941D01*
X42993580Y-74504130D01*
X43138052Y-74532867D01*
X43196530Y-74544499D01*
X43196534Y-74544500D01*
X43196535Y-74544500D01*
X43403466Y-74544500D01*
X43403467Y-74544499D01*
X43606420Y-74504130D01*
X43797598Y-74424941D01*
X43969655Y-74309977D01*
X44115977Y-74163655D01*
X44230941Y-73991598D01*
X44310130Y-73800420D01*
X44350500Y-73597465D01*
X44350500Y-73390535D01*
X44310130Y-73187580D01*
X44230941Y-72996402D01*
X44115977Y-72824345D01*
X44115975Y-72824342D01*
X43969657Y-72678024D01*
X43801655Y-72565770D01*
X43797598Y-72563059D01*
X43797593Y-72563057D01*
X43606420Y-72483870D01*
X43606412Y-72483868D01*
X43403469Y-72443500D01*
X43403465Y-72443500D01*
X43196535Y-72443500D01*
X43196530Y-72443500D01*
X42993587Y-72483868D01*
X42993579Y-72483870D01*
X42802403Y-72563058D01*
X42630342Y-72678024D01*
X42484024Y-72824342D01*
X42369058Y-72996403D01*
X42289870Y-73187579D01*
X42289868Y-73187587D01*
X42249500Y-73390530D01*
X41810499Y-73390530D01*
X41770130Y-73187580D01*
X41730550Y-73092028D01*
X41723082Y-73022560D01*
X41754357Y-72960080D01*
X41757431Y-72956895D01*
X42537084Y-72177242D01*
X43405465Y-71308862D01*
X43417288Y-71288384D01*
X43448318Y-71234638D01*
X43470500Y-71151853D01*
X43470500Y-58315649D01*
X43490185Y-58248610D01*
X43542989Y-58202855D01*
X43578318Y-58192709D01*
X43582181Y-58192200D01*
X43582192Y-58192200D01*
X43709486Y-58158092D01*
X43823614Y-58092200D01*
X43895277Y-58020536D01*
X43956596Y-57987054D01*
X44026288Y-57992038D01*
X44082222Y-58033909D01*
X44102728Y-58076124D01*
X44105123Y-58085059D01*
X44111682Y-58109540D01*
X44126619Y-58135410D01*
X44154535Y-58183762D01*
X44154537Y-58183764D01*
X44789381Y-58818608D01*
X44822866Y-58879931D01*
X44825700Y-58906289D01*
X44825700Y-58960992D01*
X44838296Y-59008000D01*
X44859808Y-59088287D01*
X44892754Y-59145350D01*
X44925700Y-59202414D01*
X45018886Y-59295600D01*
X45133014Y-59361492D01*
X45260308Y-59395600D01*
X45260310Y-59395600D01*
X45390500Y-59395600D01*
X45457539Y-59415285D01*
X45503294Y-59468089D01*
X45514500Y-59519600D01*
X45514500Y-72408919D01*
X45494815Y-72475958D01*
X45442011Y-72521713D01*
X45437953Y-72523480D01*
X45342403Y-72563057D01*
X45170342Y-72678024D01*
X45024024Y-72824342D01*
X44909058Y-72996403D01*
X44829870Y-73187579D01*
X44829868Y-73187587D01*
X44789500Y-73390530D01*
X44789500Y-73597469D01*
X44829868Y-73800412D01*
X44829870Y-73800420D01*
X44895939Y-73959925D01*
X44909059Y-73991598D01*
X44914927Y-74000380D01*
X45024024Y-74163657D01*
X45170342Y-74309975D01*
X45170345Y-74309977D01*
X45342402Y-74424941D01*
X45533580Y-74504130D01*
X45678052Y-74532867D01*
X45736530Y-74544499D01*
X45736534Y-74544500D01*
X45736535Y-74544500D01*
X45943466Y-74544500D01*
X45943467Y-74544499D01*
X46146420Y-74504130D01*
X46337598Y-74424941D01*
X46509655Y-74309977D01*
X46655977Y-74163655D01*
X46770941Y-73991598D01*
X46850130Y-73800420D01*
X46890500Y-73597465D01*
X46890500Y-73390535D01*
X46850130Y-73187580D01*
X46770941Y-72996402D01*
X46655977Y-72824345D01*
X46655975Y-72824342D01*
X46509657Y-72678024D01*
X46337596Y-72563057D01*
X46242047Y-72523480D01*
X46187644Y-72479639D01*
X46165579Y-72413345D01*
X46165500Y-72408919D01*
X46165500Y-59453988D01*
X46185185Y-59386949D01*
X46201814Y-59366312D01*
X46722832Y-58845294D01*
X46784151Y-58811812D01*
X46853842Y-58816796D01*
X46909776Y-58858667D01*
X46928440Y-58894659D01*
X46989897Y-59083804D01*
X47097087Y-59294174D01*
X47157338Y-59377104D01*
X47157340Y-59377105D01*
X47897037Y-58637408D01*
X47914075Y-58700993D01*
X47979901Y-58815007D01*
X48072993Y-58908099D01*
X48187007Y-58973925D01*
X48250589Y-58990962D01*
X47510893Y-59730658D01*
X47593828Y-59790914D01*
X47804197Y-59898102D01*
X48028752Y-59971065D01*
X48028751Y-59971065D01*
X48261948Y-60008000D01*
X48498052Y-60008000D01*
X48731247Y-59971065D01*
X48955802Y-59898102D01*
X49166172Y-59790914D01*
X49191913Y-59772212D01*
X49257719Y-59748731D01*
X49325773Y-59764556D01*
X49374469Y-59814661D01*
X49388800Y-59872529D01*
X49388800Y-69419311D01*
X49369115Y-69486350D01*
X49352481Y-69506992D01*
X48331092Y-70528381D01*
X48269769Y-70561866D01*
X48243411Y-70564700D01*
X48188708Y-70564700D01*
X48061412Y-70598808D01*
X47947286Y-70664700D01*
X47947283Y-70664702D01*
X47854102Y-70757883D01*
X47854100Y-70757886D01*
X47788208Y-70872012D01*
X47754100Y-70999308D01*
X47754100Y-71131092D01*
X47759662Y-71151851D01*
X47788208Y-71258387D01*
X47818541Y-71310924D01*
X47854100Y-71372514D01*
X47947286Y-71465700D01*
X48061414Y-71531592D01*
X48188708Y-71565700D01*
X48188710Y-71565700D01*
X48320490Y-71565700D01*
X48320492Y-71565700D01*
X48352662Y-71557080D01*
X48422511Y-71558742D01*
X48480374Y-71597904D01*
X48507879Y-71662132D01*
X48496293Y-71731034D01*
X48472437Y-71764535D01*
X48119537Y-72117435D01*
X48119533Y-72117441D01*
X48076681Y-72191661D01*
X48076682Y-72191662D01*
X48054500Y-72274447D01*
X48054500Y-72319500D01*
X48034815Y-72386539D01*
X47982011Y-72432294D01*
X47930500Y-72443500D01*
X47510247Y-72443500D01*
X47451770Y-72455131D01*
X47451769Y-72455132D01*
X47385447Y-72499447D01*
X47341132Y-72565769D01*
X47341131Y-72565770D01*
X47329500Y-72624247D01*
X47329500Y-74363752D01*
X47341131Y-74422229D01*
X47341132Y-74422230D01*
X47385447Y-74488552D01*
X47451769Y-74532867D01*
X47451770Y-74532868D01*
X47510247Y-74544499D01*
X47510250Y-74544500D01*
X47510252Y-74544500D01*
X49249750Y-74544500D01*
X49249751Y-74544499D01*
X49264568Y-74541552D01*
X49308229Y-74532868D01*
X49308229Y-74532867D01*
X49308231Y-74532867D01*
X49374552Y-74488552D01*
X49418867Y-74422231D01*
X49418867Y-74422229D01*
X49418868Y-74422229D01*
X49430499Y-74363752D01*
X49430500Y-74363750D01*
X49430500Y-72624249D01*
X49430499Y-72624247D01*
X49418868Y-72565770D01*
X49418867Y-72565769D01*
X49374552Y-72499447D01*
X49308230Y-72455132D01*
X49308229Y-72455131D01*
X49249752Y-72443500D01*
X49249748Y-72443500D01*
X49013489Y-72443500D01*
X48946450Y-72423815D01*
X48900695Y-72371011D01*
X48890751Y-72301853D01*
X48919776Y-72238297D01*
X48925808Y-72231819D01*
X49899679Y-71257948D01*
X50878265Y-70279362D01*
X50921118Y-70205139D01*
X50943300Y-70122353D01*
X50943300Y-70036647D01*
X50943300Y-52064376D01*
X50962985Y-51997337D01*
X51015789Y-51951582D01*
X51084947Y-51941638D01*
X51148503Y-51970663D01*
X51154981Y-51976695D01*
X51242886Y-52064600D01*
X51357014Y-52130492D01*
X51484308Y-52164600D01*
X51484310Y-52164600D01*
X51616090Y-52164600D01*
X51616092Y-52164600D01*
X51743386Y-52130492D01*
X51857514Y-52064600D01*
X51950700Y-51971414D01*
X52016592Y-51857286D01*
X52050700Y-51729992D01*
X52050700Y-51598208D01*
X52016592Y-51470914D01*
X51950700Y-51356786D01*
X51912019Y-51318105D01*
X51878534Y-51256782D01*
X51875700Y-51230424D01*
X51875700Y-35450849D01*
X51875700Y-35450847D01*
X51853518Y-35368062D01*
X51813419Y-35298608D01*
X51810669Y-35293844D01*
X51810663Y-35293836D01*
X51453621Y-34936794D01*
X51420136Y-34875471D01*
X51425120Y-34805779D01*
X51466992Y-34749846D01*
X51532456Y-34725429D01*
X51600729Y-34740281D01*
X51610192Y-34746011D01*
X51692400Y-34800940D01*
X51692401Y-34800940D01*
X51692402Y-34800941D01*
X51883580Y-34880130D01*
X52086530Y-34920499D01*
X52086534Y-34920500D01*
X52086535Y-34920500D01*
X52293466Y-34920500D01*
X52293467Y-34920499D01*
X52496420Y-34880130D01*
X52687598Y-34800941D01*
X52859655Y-34685977D01*
X52891119Y-34654513D01*
X52922819Y-34622814D01*
X52984142Y-34589329D01*
X53053834Y-34594313D01*
X53109767Y-34636185D01*
X53134184Y-34701649D01*
X53134500Y-34710495D01*
X53134500Y-62392947D01*
X53134500Y-62478653D01*
X53145591Y-62520046D01*
X53156682Y-62561440D01*
X53163635Y-62573482D01*
X53199535Y-62635662D01*
X53249062Y-62685189D01*
X53281681Y-62717807D01*
X53315166Y-62779130D01*
X53318000Y-62805489D01*
X53318000Y-62860192D01*
X53324723Y-62885281D01*
X53352108Y-62987487D01*
X53385054Y-63044550D01*
X53418000Y-63101614D01*
X53511186Y-63194800D01*
X53625314Y-63260692D01*
X53752608Y-63294800D01*
X53752610Y-63294800D01*
X53884390Y-63294800D01*
X53884392Y-63294800D01*
X54011686Y-63260692D01*
X54125814Y-63194800D01*
X54192819Y-63127795D01*
X54254142Y-63094310D01*
X54323834Y-63099294D01*
X54379767Y-63141166D01*
X54404184Y-63206630D01*
X54404500Y-63215476D01*
X54404500Y-75510939D01*
X54384815Y-75577978D01*
X54332011Y-75623733D01*
X54262853Y-75633677D01*
X54207615Y-75611257D01*
X54126174Y-75552087D01*
X53915802Y-75444897D01*
X53691247Y-75371934D01*
X53691248Y-75371934D01*
X53458052Y-75335000D01*
X53221948Y-75335000D01*
X52988752Y-75371934D01*
X52764197Y-75444897D01*
X52553830Y-75552084D01*
X52470894Y-75612340D01*
X53169766Y-76311212D01*
X53127708Y-76322482D01*
X53002292Y-76394890D01*
X52899890Y-76497292D01*
X52827482Y-76622708D01*
X52816212Y-76664766D01*
X52117340Y-75965894D01*
X52057084Y-76048830D01*
X51949897Y-76259197D01*
X51876934Y-76483752D01*
X51840000Y-76716947D01*
X51840000Y-76953052D01*
X51876934Y-77186247D01*
X51949897Y-77410802D01*
X52057087Y-77621174D01*
X52117338Y-77704104D01*
X52117340Y-77704105D01*
X52816212Y-77005233D01*
X52827482Y-77047292D01*
X52899890Y-77172708D01*
X53002292Y-77275110D01*
X53127708Y-77347518D01*
X53169764Y-77358787D01*
X52470893Y-78057658D01*
X52553828Y-78117914D01*
X52764197Y-78225102D01*
X52988752Y-78298065D01*
X52988751Y-78298065D01*
X53221948Y-78335000D01*
X53458052Y-78335000D01*
X53691247Y-78298065D01*
X53915802Y-78225102D01*
X54126171Y-78117914D01*
X54211423Y-78055975D01*
X54238010Y-78046488D01*
X54263354Y-78034077D01*
X54270474Y-78034905D01*
X54277229Y-78032495D01*
X54304725Y-78038888D01*
X54332755Y-78042149D01*
X54338297Y-78046695D01*
X54345283Y-78048320D01*
X54364953Y-78068560D01*
X54386776Y-78086461D01*
X54390731Y-78095085D01*
X54393978Y-78098426D01*
X54402299Y-78118158D01*
X54404500Y-78124967D01*
X54404500Y-78125753D01*
X54426682Y-78208539D01*
X54437651Y-78227538D01*
X54441690Y-78240033D01*
X54442161Y-78257501D01*
X54447700Y-78278168D01*
X54447700Y-78366991D01*
X54481808Y-78494287D01*
X54514754Y-78551350D01*
X54547700Y-78608414D01*
X54640886Y-78701600D01*
X54755014Y-78767492D01*
X54882308Y-78801600D01*
X54882310Y-78801600D01*
X55014090Y-78801600D01*
X55014092Y-78801600D01*
X55141386Y-78767492D01*
X55255514Y-78701600D01*
X55348700Y-78608414D01*
X55414592Y-78494286D01*
X55448700Y-78366992D01*
X55448700Y-78235208D01*
X55414592Y-78107914D01*
X55348700Y-77993786D01*
X55255514Y-77900600D01*
X55188240Y-77861759D01*
X55141385Y-77834707D01*
X55133882Y-77831600D01*
X55135044Y-77828793D01*
X55087718Y-77799925D01*
X55057210Y-77737068D01*
X55055500Y-77716546D01*
X55055500Y-34955080D01*
X55075185Y-34888041D01*
X55127989Y-34842286D01*
X55132048Y-34840519D01*
X55227596Y-34800942D01*
X55227599Y-34800940D01*
X55231654Y-34798231D01*
X55318383Y-34740281D01*
X55390510Y-34692088D01*
X55457187Y-34671210D01*
X55524567Y-34689695D01*
X55571257Y-34741674D01*
X55583400Y-34795190D01*
X55583400Y-75691752D01*
X55605582Y-75774540D01*
X55625039Y-75808240D01*
X55648435Y-75848762D01*
X55648436Y-75848763D01*
X55648437Y-75848764D01*
X55983349Y-76183676D01*
X56016834Y-76244999D01*
X56011850Y-76314691D01*
X56006154Y-76327650D01*
X55982455Y-76374163D01*
X55924059Y-76553881D01*
X55894500Y-76740513D01*
X55894500Y-76929486D01*
X55924059Y-77116118D01*
X55982454Y-77295836D01*
X56008788Y-77347518D01*
X56068240Y-77464199D01*
X56179310Y-77617073D01*
X56312927Y-77750690D01*
X56465801Y-77861760D01*
X56634168Y-77947547D01*
X56683817Y-77963679D01*
X56741492Y-78003115D01*
X56768692Y-78067473D01*
X56769500Y-78081610D01*
X56769500Y-82088389D01*
X56749815Y-82155428D01*
X56697011Y-82201183D01*
X56683820Y-82206319D01*
X56634167Y-82222452D01*
X56465800Y-82308240D01*
X56378579Y-82371610D01*
X56312927Y-82419310D01*
X56312925Y-82419312D01*
X56312924Y-82419312D01*
X56179312Y-82552924D01*
X56179312Y-82552925D01*
X56179310Y-82552927D01*
X56170443Y-82565132D01*
X56068240Y-82705800D01*
X55982454Y-82874163D01*
X55924059Y-83053881D01*
X55894500Y-83240513D01*
X55894500Y-83429486D01*
X55924059Y-83616118D01*
X55982454Y-83795836D01*
X56068240Y-83964199D01*
X56179310Y-84117073D01*
X56312927Y-84250690D01*
X56465801Y-84361760D01*
X56511497Y-84385043D01*
X56634163Y-84447545D01*
X56634165Y-84447545D01*
X56634168Y-84447547D01*
X56730497Y-84478846D01*
X56813881Y-84505940D01*
X57000514Y-84535500D01*
X57000519Y-84535500D01*
X57189486Y-84535500D01*
X57376118Y-84505940D01*
X57555832Y-84447547D01*
X57724199Y-84361760D01*
X57877073Y-84250690D01*
X58010690Y-84117073D01*
X58121760Y-83964199D01*
X58207547Y-83795832D01*
X58265940Y-83616118D01*
X58291767Y-83453052D01*
X58295500Y-83429486D01*
X58295500Y-83240514D01*
X58294068Y-83231474D01*
X58294068Y-83231473D01*
X58265940Y-83053881D01*
X58207545Y-82874163D01*
X58148967Y-82759198D01*
X58121760Y-82705801D01*
X58010690Y-82552927D01*
X57877073Y-82419310D01*
X57724199Y-82308240D01*
X57555832Y-82222453D01*
X57500164Y-82204365D01*
X57494370Y-82201804D01*
X57472327Y-82183170D01*
X57448505Y-82166881D01*
X57445975Y-82160894D01*
X57441011Y-82156698D01*
X57432541Y-82129104D01*
X57421308Y-82102522D01*
X57420604Y-82090214D01*
X57420509Y-82089904D01*
X57420573Y-82089674D01*
X57420500Y-82088389D01*
X57420500Y-78081610D01*
X57440185Y-78014571D01*
X57492989Y-77968816D01*
X57506174Y-77963681D01*
X57555832Y-77947547D01*
X57724199Y-77861760D01*
X57877073Y-77750690D01*
X58010690Y-77617073D01*
X58121760Y-77464199D01*
X58207547Y-77295832D01*
X58265940Y-77116118D01*
X58291767Y-76953052D01*
X58295500Y-76929486D01*
X58295500Y-76740514D01*
X58294068Y-76731474D01*
X58294068Y-76731473D01*
X58291767Y-76716947D01*
X60095000Y-76716947D01*
X60095000Y-76953052D01*
X60131934Y-77186247D01*
X60204897Y-77410802D01*
X60312087Y-77621174D01*
X60372338Y-77704104D01*
X60372340Y-77704105D01*
X61071212Y-77005233D01*
X61082482Y-77047292D01*
X61154890Y-77172708D01*
X61257292Y-77275110D01*
X61382708Y-77347518D01*
X61424765Y-77358787D01*
X60725893Y-78057658D01*
X60808828Y-78117914D01*
X61019197Y-78225102D01*
X61243752Y-78298065D01*
X61243751Y-78298065D01*
X61476948Y-78335000D01*
X61713052Y-78335000D01*
X61946247Y-78298065D01*
X62170802Y-78225102D01*
X62381163Y-78117918D01*
X62381169Y-78117914D01*
X62464104Y-78057658D01*
X62464105Y-78057658D01*
X61765233Y-77358787D01*
X61807292Y-77347518D01*
X61932708Y-77275110D01*
X62035110Y-77172708D01*
X62107518Y-77047292D01*
X62118787Y-77005234D01*
X62817658Y-77704105D01*
X62817658Y-77704104D01*
X62877914Y-77621169D01*
X62877918Y-77621163D01*
X62985102Y-77410802D01*
X63058065Y-77186247D01*
X63095000Y-76953052D01*
X63095000Y-76716947D01*
X63058065Y-76483752D01*
X62985102Y-76259197D01*
X62877914Y-76048828D01*
X62817658Y-75965894D01*
X62817658Y-75965893D01*
X62118787Y-76664765D01*
X62107518Y-76622708D01*
X62035110Y-76497292D01*
X61932708Y-76394890D01*
X61807292Y-76322482D01*
X61765234Y-76311212D01*
X62464105Y-75612340D01*
X62464104Y-75612338D01*
X62381174Y-75552087D01*
X62170802Y-75444897D01*
X61946247Y-75371934D01*
X61946248Y-75371934D01*
X61713052Y-75335000D01*
X61476948Y-75335000D01*
X61243752Y-75371934D01*
X61019197Y-75444897D01*
X60808830Y-75552084D01*
X60725894Y-75612340D01*
X61424766Y-76311212D01*
X61382708Y-76322482D01*
X61257292Y-76394890D01*
X61154890Y-76497292D01*
X61082482Y-76622708D01*
X61071212Y-76664766D01*
X60372340Y-75965894D01*
X60312084Y-76048830D01*
X60204897Y-76259197D01*
X60131934Y-76483752D01*
X60095000Y-76716947D01*
X58291767Y-76716947D01*
X58265940Y-76553881D01*
X58207545Y-76374163D01*
X58162114Y-76285000D01*
X58121760Y-76205801D01*
X58010690Y-76052927D01*
X57877073Y-75919310D01*
X57724199Y-75808240D01*
X57623309Y-75756834D01*
X57555836Y-75722454D01*
X57376118Y-75664059D01*
X57189486Y-75634500D01*
X57189481Y-75634500D01*
X57000519Y-75634500D01*
X57000514Y-75634500D01*
X56813881Y-75664059D01*
X56673840Y-75709562D01*
X56634168Y-75722453D01*
X56634165Y-75722454D01*
X56634163Y-75722455D01*
X56587650Y-75746154D01*
X56563357Y-75750715D01*
X56540203Y-75759352D01*
X56529623Y-75757050D01*
X56518981Y-75759049D01*
X56496080Y-75749753D01*
X56471930Y-75744500D01*
X56458655Y-75734563D01*
X56454241Y-75732771D01*
X56443676Y-75723349D01*
X56270719Y-75550392D01*
X56237234Y-75489069D01*
X56234400Y-75462711D01*
X56234400Y-34618600D01*
X56254085Y-34551561D01*
X56306889Y-34505806D01*
X56376047Y-34495862D01*
X56439603Y-34524887D01*
X56452425Y-34538058D01*
X56600342Y-34685975D01*
X56600345Y-34685977D01*
X56772402Y-34800941D01*
X56791482Y-34808844D01*
X56867952Y-34840519D01*
X56922356Y-34884359D01*
X56944421Y-34950653D01*
X56944500Y-34955080D01*
X56944500Y-53381223D01*
X56924815Y-53448262D01*
X56908182Y-53468904D01*
X56844600Y-53532486D01*
X56778708Y-53646612D01*
X56744600Y-53773908D01*
X56744600Y-53905691D01*
X56778708Y-54032987D01*
X56811654Y-54090050D01*
X56844600Y-54147114D01*
X56937786Y-54240300D01*
X57051914Y-54306192D01*
X57179208Y-54340300D01*
X57179210Y-54340300D01*
X57310990Y-54340300D01*
X57310992Y-54340300D01*
X57438286Y-54306192D01*
X57552414Y-54240300D01*
X57645600Y-54147114D01*
X57711492Y-54032986D01*
X57745600Y-53905692D01*
X57745600Y-53773908D01*
X57711492Y-53646614D01*
X57645600Y-53532486D01*
X57631819Y-53518705D01*
X57598334Y-53457382D01*
X57595500Y-53431024D01*
X57595500Y-34955080D01*
X57615185Y-34888041D01*
X57667989Y-34842286D01*
X57672048Y-34840519D01*
X57690002Y-34833082D01*
X57767598Y-34800941D01*
X57939655Y-34685977D01*
X58008850Y-34616782D01*
X58082219Y-34543414D01*
X58143542Y-34509929D01*
X58213234Y-34514913D01*
X58269167Y-34556785D01*
X58293584Y-34622249D01*
X58293900Y-34631095D01*
X58293900Y-64199152D01*
X58316082Y-64281940D01*
X58324182Y-64295969D01*
X58358935Y-64356162D01*
X59149273Y-65146500D01*
X59904481Y-65901707D01*
X59937966Y-65963030D01*
X59940800Y-65989388D01*
X59940800Y-66044091D01*
X59974908Y-66171387D01*
X59991536Y-66200187D01*
X60040800Y-66285514D01*
X60133986Y-66378700D01*
X60248114Y-66444592D01*
X60375408Y-66478700D01*
X60375410Y-66478700D01*
X60507190Y-66478700D01*
X60507192Y-66478700D01*
X60634486Y-66444592D01*
X60748614Y-66378700D01*
X60841800Y-66285514D01*
X60907692Y-66171386D01*
X60941800Y-66044092D01*
X60941800Y-65912308D01*
X60907692Y-65785014D01*
X60841800Y-65670886D01*
X60748614Y-65577700D01*
X60691550Y-65544754D01*
X60634487Y-65511808D01*
X60570839Y-65494754D01*
X60507192Y-65477700D01*
X60507191Y-65477700D01*
X60452488Y-65477700D01*
X60385449Y-65458015D01*
X60364807Y-65441381D01*
X58981219Y-64057792D01*
X58947734Y-63996469D01*
X58944900Y-63970111D01*
X58944900Y-34787372D01*
X58964585Y-34720333D01*
X59017389Y-34674578D01*
X59086547Y-34664634D01*
X59137791Y-34684270D01*
X59140343Y-34685975D01*
X59140345Y-34685977D01*
X59312402Y-34800941D01*
X59503580Y-34880130D01*
X59706530Y-34920499D01*
X59706534Y-34920500D01*
X59706535Y-34920500D01*
X59913466Y-34920500D01*
X59913467Y-34920499D01*
X60116420Y-34880130D01*
X60211970Y-34840550D01*
X60281439Y-34833082D01*
X60343918Y-34864357D01*
X60347104Y-34867431D01*
X65734081Y-40254408D01*
X65767566Y-40315731D01*
X65770400Y-40342089D01*
X65770400Y-65573324D01*
X65750715Y-65640363D01*
X65734081Y-65661005D01*
X65695402Y-65699683D01*
X65695400Y-65699686D01*
X65629508Y-65813812D01*
X65609732Y-65887618D01*
X65595400Y-65941108D01*
X65595400Y-66072892D01*
X65605365Y-66110081D01*
X65629508Y-66200187D01*
X65652735Y-66240417D01*
X65695400Y-66314314D01*
X65788586Y-66407500D01*
X65902714Y-66473392D01*
X66030008Y-66507500D01*
X66030010Y-66507500D01*
X66161790Y-66507500D01*
X66161792Y-66507500D01*
X66289086Y-66473392D01*
X66403214Y-66407500D01*
X66496400Y-66314314D01*
X66562292Y-66200186D01*
X66596400Y-66072892D01*
X66596400Y-65941108D01*
X66562292Y-65813814D01*
X66496400Y-65699686D01*
X66457719Y-65661005D01*
X66424234Y-65599682D01*
X66421400Y-65573324D01*
X66421400Y-40113048D01*
X66421399Y-40113044D01*
X66419881Y-40107380D01*
X66416393Y-40094361D01*
X66399218Y-40030261D01*
X66356365Y-39956038D01*
X61737262Y-35336935D01*
X61703777Y-35275612D01*
X61708761Y-35205920D01*
X61750633Y-35149987D01*
X61816097Y-35125570D01*
X61863261Y-35131323D01*
X62033871Y-35186757D01*
X62243754Y-35220000D01*
X62456246Y-35220000D01*
X62666127Y-35186757D01*
X62666130Y-35186757D01*
X62868217Y-35121095D01*
X63057554Y-35024622D01*
X63111716Y-34985270D01*
X63111717Y-34985270D01*
X62479408Y-34352962D01*
X62542993Y-34335925D01*
X62657007Y-34270099D01*
X62750099Y-34177007D01*
X62815925Y-34062993D01*
X62832962Y-33999408D01*
X63465270Y-34631717D01*
X63465270Y-34631716D01*
X63504622Y-34577554D01*
X63601095Y-34388217D01*
X63658343Y-34212026D01*
X63697780Y-34154351D01*
X63762139Y-34127152D01*
X63830985Y-34139066D01*
X63882461Y-34186310D01*
X63890835Y-34202891D01*
X63945939Y-34335925D01*
X63959059Y-34367598D01*
X63972836Y-34388217D01*
X64074022Y-34539654D01*
X64074025Y-34539658D01*
X64220342Y-34685975D01*
X64220345Y-34685977D01*
X64392402Y-34800941D01*
X64583580Y-34880130D01*
X64786530Y-34920499D01*
X64786534Y-34920500D01*
X64786535Y-34920500D01*
X64993466Y-34920500D01*
X64993467Y-34920499D01*
X65196420Y-34880130D01*
X65387598Y-34800941D01*
X65559655Y-34685977D01*
X65705977Y-34539655D01*
X65707417Y-34537501D01*
X65774300Y-34437401D01*
X65820941Y-34367598D01*
X65900130Y-34176420D01*
X65940500Y-33973465D01*
X65940500Y-33766535D01*
X65900130Y-33563580D01*
X65820941Y-33372402D01*
X65705977Y-33200345D01*
X65705975Y-33200342D01*
X65642814Y-33137181D01*
X65609329Y-33075858D01*
X65614313Y-33006166D01*
X65656185Y-32950233D01*
X65721649Y-32925816D01*
X65730495Y-32925500D01*
X66589505Y-32925500D01*
X66656544Y-32945185D01*
X66702299Y-32997989D01*
X66712243Y-33067147D01*
X66683218Y-33130703D01*
X66677186Y-33137181D01*
X66614025Y-33200341D01*
X66614024Y-33200342D01*
X66499058Y-33372403D01*
X66419870Y-33563579D01*
X66419868Y-33563587D01*
X66379500Y-33766530D01*
X66379500Y-33973469D01*
X66419868Y-34176412D01*
X66419870Y-34176420D01*
X66485939Y-34335925D01*
X66499059Y-34367598D01*
X66512836Y-34388217D01*
X66614022Y-34539654D01*
X66614025Y-34539658D01*
X66760342Y-34685975D01*
X66760345Y-34685977D01*
X66932402Y-34800941D01*
X66951482Y-34808844D01*
X67027952Y-34840519D01*
X67082356Y-34884359D01*
X67104421Y-34950653D01*
X67104500Y-34955080D01*
X67104500Y-74568810D01*
X67084815Y-74635849D01*
X67068181Y-74656491D01*
X66001322Y-75723349D01*
X65939999Y-75756834D01*
X65870307Y-75751850D01*
X65857347Y-75746153D01*
X65810839Y-75722456D01*
X65810832Y-75722453D01*
X65631118Y-75664059D01*
X65444486Y-75634500D01*
X65444481Y-75634500D01*
X65255519Y-75634500D01*
X65255514Y-75634500D01*
X65068881Y-75664059D01*
X64889163Y-75722454D01*
X64720800Y-75808240D01*
X64633579Y-75871610D01*
X64567927Y-75919310D01*
X64567925Y-75919312D01*
X64567924Y-75919312D01*
X64434312Y-76052924D01*
X64434312Y-76052925D01*
X64434310Y-76052927D01*
X64386610Y-76118579D01*
X64323240Y-76205800D01*
X64237454Y-76374163D01*
X64179059Y-76553881D01*
X64149500Y-76740513D01*
X64149500Y-76929486D01*
X64179059Y-77116118D01*
X64237454Y-77295836D01*
X64263788Y-77347518D01*
X64323240Y-77464199D01*
X64434310Y-77617073D01*
X64567927Y-77750690D01*
X64720801Y-77861760D01*
X64889168Y-77947547D01*
X64938817Y-77963679D01*
X64996492Y-78003115D01*
X65023692Y-78067473D01*
X65024500Y-78081610D01*
X65024500Y-82088389D01*
X65004815Y-82155428D01*
X64952011Y-82201183D01*
X64938820Y-82206319D01*
X64889167Y-82222452D01*
X64720800Y-82308240D01*
X64633579Y-82371610D01*
X64567927Y-82419310D01*
X64567925Y-82419312D01*
X64567924Y-82419312D01*
X64434312Y-82552924D01*
X64434312Y-82552925D01*
X64434310Y-82552927D01*
X64425443Y-82565132D01*
X64323240Y-82705800D01*
X64237454Y-82874163D01*
X64179059Y-83053881D01*
X64149500Y-83240513D01*
X64149500Y-83429486D01*
X64179059Y-83616118D01*
X64237454Y-83795836D01*
X64323240Y-83964199D01*
X64434310Y-84117073D01*
X64567927Y-84250690D01*
X64720801Y-84361760D01*
X64766497Y-84385043D01*
X64889163Y-84447545D01*
X64889165Y-84447545D01*
X64889168Y-84447547D01*
X64985497Y-84478846D01*
X65068881Y-84505940D01*
X65255514Y-84535500D01*
X65255519Y-84535500D01*
X65444486Y-84535500D01*
X65631118Y-84505940D01*
X65810832Y-84447547D01*
X65979199Y-84361760D01*
X66132073Y-84250690D01*
X66265690Y-84117073D01*
X66376760Y-83964199D01*
X66462547Y-83795832D01*
X66520940Y-83616118D01*
X66546767Y-83453052D01*
X66550500Y-83429486D01*
X66550500Y-83240514D01*
X66549068Y-83231474D01*
X66549068Y-83231473D01*
X66520940Y-83053881D01*
X66462545Y-82874163D01*
X66403967Y-82759198D01*
X66376760Y-82705801D01*
X66265690Y-82552927D01*
X66132073Y-82419310D01*
X65979199Y-82308240D01*
X65810832Y-82222453D01*
X65755164Y-82204365D01*
X65749370Y-82201804D01*
X65727327Y-82183170D01*
X65703505Y-82166881D01*
X65700975Y-82160894D01*
X65696011Y-82156698D01*
X65687541Y-82129104D01*
X65676308Y-82102522D01*
X65675604Y-82090214D01*
X65675509Y-82089904D01*
X65675573Y-82089674D01*
X65675500Y-82088389D01*
X65675500Y-81027389D01*
X75734500Y-81027389D01*
X75734500Y-81200610D01*
X75761597Y-81371697D01*
X75761597Y-81371699D01*
X75761598Y-81371701D01*
X75815127Y-81536445D01*
X75893768Y-81690788D01*
X75995586Y-81830928D01*
X76118072Y-81953414D01*
X76258212Y-82055232D01*
X76412555Y-82133873D01*
X76577299Y-82187402D01*
X76748389Y-82214500D01*
X76748390Y-82214500D01*
X76921610Y-82214500D01*
X76921611Y-82214500D01*
X77092701Y-82187402D01*
X77257445Y-82133873D01*
X77411788Y-82055232D01*
X77551928Y-81953414D01*
X77674414Y-81830928D01*
X77776232Y-81690788D01*
X77854873Y-81536445D01*
X77883273Y-81449038D01*
X83394500Y-81449038D01*
X83394500Y-81700961D01*
X83433910Y-81949785D01*
X83511760Y-82189383D01*
X83590413Y-82343747D01*
X83625243Y-82412105D01*
X83626132Y-82413848D01*
X83774201Y-82617649D01*
X83774205Y-82617654D01*
X83952345Y-82795794D01*
X83952350Y-82795798D01*
X84130117Y-82924952D01*
X84156155Y-82943870D01*
X84261002Y-82997292D01*
X84380616Y-83058239D01*
X84380618Y-83058239D01*
X84380621Y-83058241D01*
X84620215Y-83136090D01*
X84869038Y-83175500D01*
X84869039Y-83175500D01*
X85120961Y-83175500D01*
X85120962Y-83175500D01*
X85369785Y-83136090D01*
X85609379Y-83058241D01*
X85833845Y-82943870D01*
X86037656Y-82795793D01*
X86215793Y-82617656D01*
X86363870Y-82413845D01*
X86478241Y-82189379D01*
X86556090Y-81949785D01*
X86595500Y-81700962D01*
X86595500Y-81449038D01*
X86556090Y-81200215D01*
X86478241Y-80960621D01*
X86478239Y-80960618D01*
X86478239Y-80960616D01*
X86425086Y-80856299D01*
X86363870Y-80736155D01*
X86219330Y-80537212D01*
X86215798Y-80532350D01*
X86215794Y-80532345D01*
X86037654Y-80354205D01*
X86037649Y-80354201D01*
X85833848Y-80206132D01*
X85833847Y-80206131D01*
X85833845Y-80206130D01*
X85763747Y-80170413D01*
X85609383Y-80091760D01*
X85369785Y-80013910D01*
X85367196Y-80013500D01*
X85120962Y-79974500D01*
X84869038Y-79974500D01*
X84744626Y-79994205D01*
X84620214Y-80013910D01*
X84380616Y-80091760D01*
X84156151Y-80206132D01*
X83952350Y-80354201D01*
X83952345Y-80354205D01*
X83774205Y-80532345D01*
X83774201Y-80532350D01*
X83626132Y-80736151D01*
X83511760Y-80960616D01*
X83433910Y-81200214D01*
X83394500Y-81449038D01*
X77883273Y-81449038D01*
X77908402Y-81371701D01*
X77935500Y-81200611D01*
X77935500Y-81027389D01*
X77908402Y-80856299D01*
X77854873Y-80691555D01*
X77776232Y-80537212D01*
X77674414Y-80397072D01*
X77551928Y-80274586D01*
X77411788Y-80172768D01*
X77257445Y-80094127D01*
X77092701Y-80040598D01*
X77092699Y-80040597D01*
X77092698Y-80040597D01*
X76961271Y-80019781D01*
X76921611Y-80013500D01*
X76748389Y-80013500D01*
X76708728Y-80019781D01*
X76577302Y-80040597D01*
X76412552Y-80094128D01*
X76258211Y-80172768D01*
X76178256Y-80230859D01*
X76118072Y-80274586D01*
X76118070Y-80274588D01*
X76118069Y-80274588D01*
X75995588Y-80397069D01*
X75995588Y-80397070D01*
X75995586Y-80397072D01*
X75951859Y-80457256D01*
X75893768Y-80537211D01*
X75815128Y-80691552D01*
X75761597Y-80856302D01*
X75734500Y-81027389D01*
X65675500Y-81027389D01*
X65675500Y-78081610D01*
X65680732Y-78063791D01*
X65680959Y-78045224D01*
X65690371Y-78030964D01*
X65695185Y-78014571D01*
X65709218Y-78002410D01*
X65719449Y-77986912D01*
X65740862Y-77974990D01*
X65747989Y-77968816D01*
X65749371Y-77968195D01*
X65755162Y-77965635D01*
X65810832Y-77947547D01*
X65979199Y-77861760D01*
X66132073Y-77750690D01*
X66265690Y-77617073D01*
X66376760Y-77464199D01*
X66462547Y-77295832D01*
X66520940Y-77116118D01*
X66546767Y-76953052D01*
X66550500Y-76929486D01*
X66550500Y-76740514D01*
X66549068Y-76731474D01*
X66549068Y-76731473D01*
X66546767Y-76716947D01*
X68350000Y-76716947D01*
X68350000Y-76953052D01*
X68386934Y-77186247D01*
X68459897Y-77410802D01*
X68567087Y-77621174D01*
X68627338Y-77704104D01*
X68627340Y-77704105D01*
X69326212Y-77005233D01*
X69337482Y-77047292D01*
X69409890Y-77172708D01*
X69512292Y-77275110D01*
X69637708Y-77347518D01*
X69679765Y-77358787D01*
X68980893Y-78057658D01*
X69063828Y-78117914D01*
X69274197Y-78225102D01*
X69498752Y-78298065D01*
X69498751Y-78298065D01*
X69731948Y-78335000D01*
X69968052Y-78335000D01*
X70201247Y-78298065D01*
X70425802Y-78225102D01*
X70636163Y-78117918D01*
X70636169Y-78117914D01*
X70719104Y-78057658D01*
X70719105Y-78057658D01*
X70020233Y-77358787D01*
X70062292Y-77347518D01*
X70187708Y-77275110D01*
X70290110Y-77172708D01*
X70362518Y-77047292D01*
X70373787Y-77005234D01*
X71072658Y-77704105D01*
X71072658Y-77704104D01*
X71132914Y-77621169D01*
X71132918Y-77621163D01*
X71240102Y-77410802D01*
X71313065Y-77186247D01*
X71350000Y-76953052D01*
X71350000Y-76716947D01*
X71313065Y-76483752D01*
X71240102Y-76259197D01*
X71132914Y-76048828D01*
X71072658Y-75965894D01*
X71072658Y-75965893D01*
X70373787Y-76664765D01*
X70362518Y-76622708D01*
X70290110Y-76497292D01*
X70187708Y-76394890D01*
X70062292Y-76322482D01*
X70020234Y-76311212D01*
X70719105Y-75612340D01*
X70719104Y-75612338D01*
X70636174Y-75552087D01*
X70425802Y-75444897D01*
X70201247Y-75371934D01*
X70201248Y-75371934D01*
X69968052Y-75335000D01*
X69731948Y-75335000D01*
X69498752Y-75371934D01*
X69274197Y-75444897D01*
X69063830Y-75552084D01*
X68980894Y-75612340D01*
X69679766Y-76311212D01*
X69637708Y-76322482D01*
X69512292Y-76394890D01*
X69409890Y-76497292D01*
X69337482Y-76622708D01*
X69326212Y-76664766D01*
X68627340Y-75965894D01*
X68567084Y-76048830D01*
X68459897Y-76259197D01*
X68386934Y-76483752D01*
X68350000Y-76716947D01*
X66546767Y-76716947D01*
X66520940Y-76553881D01*
X66462544Y-76374160D01*
X66438846Y-76327650D01*
X66425950Y-76258981D01*
X66452227Y-76194241D01*
X66461641Y-76183684D01*
X67690465Y-74954862D01*
X67733318Y-74880639D01*
X67755500Y-74797853D01*
X67755500Y-74712147D01*
X67755500Y-34955080D01*
X67775185Y-34888041D01*
X67827989Y-34842286D01*
X67832048Y-34840519D01*
X67850002Y-34833082D01*
X67927598Y-34800941D01*
X68099655Y-34685977D01*
X68131119Y-34654513D01*
X68162819Y-34622814D01*
X68224142Y-34589329D01*
X68293834Y-34594313D01*
X68349767Y-34636185D01*
X68374184Y-34701649D01*
X68374500Y-34710495D01*
X68374500Y-60877547D01*
X68374500Y-60963253D01*
X68382688Y-60993811D01*
X68396682Y-61046040D01*
X68402433Y-61056000D01*
X68439535Y-61120262D01*
X68439537Y-61120264D01*
X70664881Y-63345608D01*
X70698366Y-63406931D01*
X70701200Y-63433289D01*
X70701200Y-63487992D01*
X70715196Y-63540227D01*
X70735308Y-63615287D01*
X70738155Y-63620218D01*
X70801200Y-63729414D01*
X70894386Y-63822600D01*
X71008514Y-63888492D01*
X71135808Y-63922600D01*
X71135810Y-63922600D01*
X71267589Y-63922600D01*
X71267592Y-63922600D01*
X71346808Y-63901374D01*
X71416656Y-63903037D01*
X71474519Y-63942199D01*
X71502023Y-64006428D01*
X71502900Y-64021149D01*
X71502900Y-64412947D01*
X71502900Y-64498653D01*
X71507481Y-64515750D01*
X71525082Y-64581440D01*
X71525861Y-64582789D01*
X71567935Y-64655662D01*
X71567937Y-64655664D01*
X75601968Y-68689695D01*
X75635453Y-68751018D01*
X75630469Y-68820710D01*
X75628848Y-68824828D01*
X75589271Y-68920375D01*
X75589268Y-68920387D01*
X75548900Y-69123330D01*
X75548900Y-69330269D01*
X75589268Y-69533212D01*
X75589270Y-69533220D01*
X75636959Y-69648352D01*
X75668459Y-69724398D01*
X75672963Y-69731139D01*
X75783424Y-69896457D01*
X75929742Y-70042775D01*
X75929745Y-70042777D01*
X76101802Y-70157741D01*
X76292980Y-70236930D01*
X76416342Y-70261468D01*
X76495930Y-70277299D01*
X76495934Y-70277300D01*
X76495935Y-70277300D01*
X76702866Y-70277300D01*
X76702867Y-70277299D01*
X76905820Y-70236930D01*
X77096998Y-70157741D01*
X77269055Y-70042777D01*
X77272718Y-70039114D01*
X77279819Y-70032014D01*
X77299255Y-70021401D01*
X77315989Y-70006901D01*
X77329320Y-70004984D01*
X77341142Y-69998529D01*
X77363228Y-70000108D01*
X77385147Y-69996957D01*
X77397398Y-70002552D01*
X77410834Y-70003513D01*
X77428560Y-70016783D01*
X77448703Y-70025982D01*
X77455985Y-70037313D01*
X77466767Y-70045385D01*
X77474504Y-70066130D01*
X77486477Y-70084760D01*
X77489628Y-70106678D01*
X77491184Y-70110849D01*
X77491500Y-70119695D01*
X77491500Y-70363010D01*
X77471815Y-70430049D01*
X77455181Y-70450691D01*
X77136503Y-70769368D01*
X77075180Y-70802853D01*
X77005488Y-70797869D01*
X77001381Y-70796252D01*
X76905820Y-70756670D01*
X76905812Y-70756668D01*
X76702869Y-70716300D01*
X76702865Y-70716300D01*
X76495935Y-70716300D01*
X76495930Y-70716300D01*
X76292987Y-70756668D01*
X76292979Y-70756670D01*
X76101803Y-70835858D01*
X75929742Y-70950824D01*
X75783424Y-71097142D01*
X75668458Y-71269203D01*
X75589270Y-71460379D01*
X75589268Y-71460387D01*
X75548900Y-71663330D01*
X75548900Y-71870269D01*
X75589268Y-72073212D01*
X75589270Y-72073220D01*
X75657647Y-72238297D01*
X75668459Y-72264398D01*
X75694488Y-72303353D01*
X75783424Y-72436457D01*
X75929742Y-72582775D01*
X75929745Y-72582777D01*
X76101802Y-72697741D01*
X76292980Y-72776930D01*
X76495930Y-72817299D01*
X76495934Y-72817300D01*
X76495935Y-72817300D01*
X76702866Y-72817300D01*
X76702867Y-72817299D01*
X76905820Y-72776930D01*
X77096998Y-72697741D01*
X77269055Y-72582777D01*
X77415377Y-72436455D01*
X77434712Y-72407518D01*
X77488323Y-72362712D01*
X77557648Y-72354003D01*
X77620676Y-72384157D01*
X77645201Y-72414406D01*
X77671730Y-72460355D01*
X77671737Y-72460364D01*
X78339099Y-73127726D01*
X78369434Y-73183281D01*
X79009991Y-73823837D01*
X78946407Y-73840875D01*
X78832393Y-73906701D01*
X78739301Y-73999793D01*
X78673475Y-74113807D01*
X78656437Y-74177391D01*
X78024128Y-73545082D01*
X78024127Y-73545082D01*
X77984780Y-73599239D01*
X77888305Y-73788581D01*
X77831056Y-73964774D01*
X77791618Y-74022449D01*
X77727259Y-74049647D01*
X77658413Y-74037732D01*
X77606937Y-73990488D01*
X77598564Y-73973907D01*
X77530343Y-73809205D01*
X77415375Y-73637142D01*
X77269057Y-73490824D01*
X77118962Y-73390535D01*
X77096998Y-73375859D01*
X76905820Y-73296670D01*
X76905812Y-73296668D01*
X76702869Y-73256300D01*
X76702865Y-73256300D01*
X76495935Y-73256300D01*
X76495930Y-73256300D01*
X76292987Y-73296668D01*
X76292979Y-73296670D01*
X76101803Y-73375858D01*
X75929742Y-73490824D01*
X75783424Y-73637142D01*
X75668458Y-73809203D01*
X75589270Y-74000379D01*
X75589268Y-74000387D01*
X75548900Y-74203330D01*
X75548900Y-74410269D01*
X75589268Y-74613212D01*
X75589270Y-74613220D01*
X75665747Y-74797852D01*
X75668459Y-74804398D01*
X75682236Y-74825017D01*
X75783424Y-74976457D01*
X75929742Y-75122775D01*
X75929745Y-75122777D01*
X76101802Y-75237741D01*
X76292980Y-75316930D01*
X76495930Y-75357299D01*
X76495934Y-75357300D01*
X76495935Y-75357300D01*
X76702866Y-75357300D01*
X76702867Y-75357299D01*
X76905820Y-75316930D01*
X77096998Y-75237741D01*
X77269055Y-75122777D01*
X77415377Y-74976455D01*
X77530341Y-74804398D01*
X77598565Y-74639689D01*
X77642404Y-74585288D01*
X77708698Y-74563223D01*
X77776398Y-74580502D01*
X77824009Y-74631639D01*
X77831056Y-74648826D01*
X77888304Y-74825016D01*
X77984775Y-75014350D01*
X78024128Y-75068516D01*
X78656437Y-74436208D01*
X78673475Y-74499793D01*
X78739301Y-74613807D01*
X78832393Y-74706899D01*
X78946407Y-74772725D01*
X79009990Y-74789762D01*
X78377682Y-75422069D01*
X78377682Y-75422070D01*
X78431849Y-75461424D01*
X78621182Y-75557895D01*
X78823270Y-75623557D01*
X79033154Y-75656800D01*
X79245646Y-75656800D01*
X79455527Y-75623557D01*
X79455530Y-75623557D01*
X79657617Y-75557895D01*
X79846954Y-75461422D01*
X79901116Y-75422070D01*
X79901117Y-75422070D01*
X79268808Y-74789762D01*
X79332393Y-74772725D01*
X79446407Y-74706899D01*
X79539499Y-74613807D01*
X79605325Y-74499793D01*
X79622362Y-74436208D01*
X80254670Y-75068517D01*
X80254670Y-75068516D01*
X80294022Y-75014354D01*
X80390495Y-74825017D01*
X80456157Y-74622930D01*
X80456157Y-74622927D01*
X80489400Y-74413046D01*
X80489400Y-74200553D01*
X80456157Y-73990672D01*
X80456157Y-73990669D01*
X80390495Y-73788582D01*
X80294024Y-73599249D01*
X80254670Y-73545082D01*
X80254669Y-73545082D01*
X79622362Y-74177390D01*
X79605325Y-74113807D01*
X79539499Y-73999793D01*
X79446407Y-73906701D01*
X79332393Y-73840875D01*
X79268809Y-73823837D01*
X79904794Y-73187851D01*
X79916271Y-73133214D01*
X79937839Y-73104187D01*
X81062065Y-71979962D01*
X81075217Y-71957182D01*
X81104918Y-71905738D01*
X81127100Y-71822953D01*
X81127100Y-64582789D01*
X81146785Y-64515750D01*
X81199589Y-64469995D01*
X81268747Y-64460051D01*
X81332303Y-64489076D01*
X81338781Y-64495108D01*
X85482568Y-68638895D01*
X85516053Y-68700218D01*
X85511069Y-68769910D01*
X85509448Y-68774028D01*
X85469871Y-68869575D01*
X85469868Y-68869587D01*
X85429500Y-69072530D01*
X85429500Y-69279469D01*
X85469868Y-69482412D01*
X85469870Y-69482420D01*
X85542887Y-69658699D01*
X85549059Y-69673598D01*
X85587510Y-69731144D01*
X85664024Y-69845657D01*
X85810342Y-69991975D01*
X85982405Y-70106943D01*
X86085043Y-70149456D01*
X86147108Y-70175164D01*
X86201511Y-70219005D01*
X86223576Y-70285299D01*
X86206297Y-70352998D01*
X86155160Y-70400609D01*
X86137974Y-70407656D01*
X85961781Y-70464905D01*
X85772439Y-70561380D01*
X85718282Y-70600727D01*
X85718282Y-70600728D01*
X86350591Y-71233037D01*
X86287007Y-71250075D01*
X86172993Y-71315901D01*
X86079901Y-71408993D01*
X86014075Y-71523007D01*
X85997037Y-71586591D01*
X85364728Y-70954282D01*
X85364727Y-70954282D01*
X85325380Y-71008439D01*
X85228904Y-71197782D01*
X85163242Y-71399869D01*
X85163242Y-71399872D01*
X85130000Y-71609753D01*
X85130000Y-71822246D01*
X85163242Y-72032127D01*
X85163242Y-72032130D01*
X85228904Y-72234217D01*
X85325375Y-72423550D01*
X85364728Y-72477716D01*
X85997037Y-71845408D01*
X86014075Y-71908993D01*
X86079901Y-72023007D01*
X86172993Y-72116099D01*
X86287007Y-72181925D01*
X86350590Y-72198962D01*
X85718282Y-72831269D01*
X85718282Y-72831270D01*
X85772449Y-72870624D01*
X85961782Y-72967095D01*
X86163870Y-73032757D01*
X86373754Y-73066000D01*
X86586246Y-73066000D01*
X86796127Y-73032757D01*
X86796130Y-73032757D01*
X86998217Y-72967095D01*
X87187554Y-72870622D01*
X87241716Y-72831270D01*
X87241717Y-72831270D01*
X86609408Y-72198962D01*
X86672993Y-72181925D01*
X86787007Y-72116099D01*
X86880099Y-72023007D01*
X86945925Y-71908993D01*
X86962962Y-71845408D01*
X87595270Y-72477717D01*
X87595270Y-72477716D01*
X87634622Y-72423554D01*
X87731095Y-72234217D01*
X87796757Y-72032130D01*
X87796757Y-72032127D01*
X87830000Y-71822246D01*
X87830000Y-71609753D01*
X87796757Y-71399872D01*
X87796757Y-71399869D01*
X87731095Y-71197782D01*
X87634624Y-71008449D01*
X87595270Y-70954282D01*
X87595269Y-70954282D01*
X86962962Y-71586590D01*
X86945925Y-71523007D01*
X86880099Y-71408993D01*
X86787007Y-71315901D01*
X86672993Y-71250075D01*
X86609409Y-71233037D01*
X87241716Y-70600728D01*
X87187550Y-70561375D01*
X86998216Y-70464904D01*
X86822026Y-70407656D01*
X86764350Y-70368218D01*
X86737152Y-70303860D01*
X86749067Y-70235013D01*
X86796311Y-70183538D01*
X86812882Y-70175168D01*
X86977598Y-70106941D01*
X87149655Y-69991977D01*
X87295977Y-69845655D01*
X87410941Y-69673598D01*
X87490130Y-69482420D01*
X87530500Y-69279465D01*
X87530500Y-69072535D01*
X87490130Y-68869580D01*
X87410941Y-68678402D01*
X87295977Y-68506345D01*
X87295975Y-68506342D01*
X87149657Y-68360024D01*
X87005522Y-68263717D01*
X86977598Y-68245059D01*
X86958516Y-68237155D01*
X86786420Y-68165870D01*
X86786412Y-68165868D01*
X86583469Y-68125500D01*
X86583465Y-68125500D01*
X86376535Y-68125500D01*
X86376530Y-68125500D01*
X86173587Y-68165868D01*
X86173575Y-68165871D01*
X86078028Y-68205448D01*
X86008559Y-68212917D01*
X85946080Y-68181641D01*
X85942895Y-68178568D01*
X84296857Y-66532530D01*
X85429500Y-66532530D01*
X85429500Y-66739469D01*
X85469868Y-66942412D01*
X85469870Y-66942420D01*
X85549058Y-67133596D01*
X85664024Y-67305657D01*
X85810342Y-67451975D01*
X85810345Y-67451977D01*
X85982402Y-67566941D01*
X86173580Y-67646130D01*
X86376530Y-67686499D01*
X86376534Y-67686500D01*
X86376535Y-67686500D01*
X86583466Y-67686500D01*
X86583467Y-67686499D01*
X86786420Y-67646130D01*
X86977598Y-67566941D01*
X87149655Y-67451977D01*
X87295977Y-67305655D01*
X87410941Y-67133598D01*
X87490130Y-66942420D01*
X87530500Y-66739465D01*
X87530500Y-66532535D01*
X87490130Y-66329580D01*
X87410941Y-66138402D01*
X87295977Y-65966345D01*
X87295975Y-65966342D01*
X87149657Y-65820024D01*
X87042050Y-65748124D01*
X86977598Y-65705059D01*
X86964619Y-65699683D01*
X86786420Y-65625870D01*
X86786412Y-65625868D01*
X86583469Y-65585500D01*
X86583465Y-65585500D01*
X86376535Y-65585500D01*
X86376530Y-65585500D01*
X86173587Y-65625868D01*
X86173579Y-65625870D01*
X85982403Y-65705058D01*
X85810342Y-65820024D01*
X85664024Y-65966342D01*
X85549058Y-66138403D01*
X85469870Y-66329579D01*
X85469868Y-66329587D01*
X85429500Y-66532530D01*
X84296857Y-66532530D01*
X81939219Y-64174892D01*
X81905734Y-64113569D01*
X81902900Y-64087211D01*
X81902900Y-55198588D01*
X81909138Y-55177342D01*
X81910718Y-55155254D01*
X81918790Y-55144470D01*
X81922585Y-55131549D01*
X81939318Y-55117049D01*
X81952590Y-55099321D01*
X81965210Y-55094613D01*
X81975389Y-55085794D01*
X81997306Y-55082642D01*
X82018054Y-55074904D01*
X82031214Y-55077766D01*
X82044547Y-55075850D01*
X82064690Y-55085049D01*
X82086327Y-55089756D01*
X82104052Y-55103024D01*
X82108103Y-55104875D01*
X82114581Y-55110907D01*
X82167981Y-55164307D01*
X82201466Y-55225630D01*
X82204300Y-55251988D01*
X82204300Y-60188652D01*
X82226482Y-60271440D01*
X82245803Y-60304904D01*
X82269335Y-60345662D01*
X82269337Y-60345664D01*
X85482568Y-63558895D01*
X85516053Y-63620218D01*
X85511069Y-63689910D01*
X85509448Y-63694028D01*
X85469871Y-63789575D01*
X85469868Y-63789587D01*
X85429500Y-63992530D01*
X85429500Y-64199469D01*
X85469868Y-64402412D01*
X85469870Y-64402420D01*
X85544022Y-64581439D01*
X85549059Y-64593598D01*
X85606541Y-64679626D01*
X85664024Y-64765657D01*
X85810342Y-64911975D01*
X85810345Y-64911977D01*
X85982402Y-65026941D01*
X86173580Y-65106130D01*
X86376530Y-65146499D01*
X86376534Y-65146500D01*
X86376535Y-65146500D01*
X86583466Y-65146500D01*
X86583467Y-65146499D01*
X86786420Y-65106130D01*
X86977598Y-65026941D01*
X87149655Y-64911977D01*
X87295977Y-64765655D01*
X87410941Y-64593598D01*
X87490130Y-64402420D01*
X87530500Y-64199465D01*
X87530500Y-63992535D01*
X87490130Y-63789580D01*
X87410941Y-63598402D01*
X87295977Y-63426345D01*
X87295975Y-63426342D01*
X87149657Y-63280024D01*
X87022104Y-63194797D01*
X86977598Y-63165059D01*
X86812890Y-63096834D01*
X86758488Y-63052994D01*
X86736423Y-62986700D01*
X86753702Y-62919001D01*
X86804839Y-62871390D01*
X86822026Y-62864343D01*
X86998217Y-62807095D01*
X87187554Y-62710622D01*
X87241716Y-62671270D01*
X87241717Y-62671270D01*
X86609408Y-62038962D01*
X86672993Y-62021925D01*
X86787007Y-61956099D01*
X86880099Y-61863007D01*
X86945925Y-61748993D01*
X86962962Y-61685408D01*
X87595270Y-62317717D01*
X87595270Y-62317716D01*
X87634622Y-62263554D01*
X87731095Y-62074217D01*
X87796757Y-61872130D01*
X87796757Y-61872127D01*
X87830000Y-61662246D01*
X87830000Y-61449753D01*
X87796757Y-61239872D01*
X87796757Y-61239869D01*
X87731095Y-61037782D01*
X87634624Y-60848449D01*
X87595270Y-60794282D01*
X87595269Y-60794282D01*
X86962962Y-61426590D01*
X86945925Y-61363007D01*
X86880099Y-61248993D01*
X86787007Y-61155901D01*
X86672993Y-61090075D01*
X86609409Y-61073037D01*
X87241716Y-60440728D01*
X87187550Y-60401375D01*
X86998216Y-60304904D01*
X86822026Y-60247656D01*
X86764350Y-60208218D01*
X86737152Y-60143860D01*
X86749067Y-60075013D01*
X86796311Y-60023538D01*
X86812882Y-60015168D01*
X86977598Y-59946941D01*
X87149655Y-59831977D01*
X87295977Y-59685655D01*
X87410941Y-59513598D01*
X87490130Y-59322420D01*
X87530500Y-59119465D01*
X87530500Y-58912535D01*
X87490130Y-58709580D01*
X87410941Y-58518402D01*
X87295977Y-58346345D01*
X87295975Y-58346342D01*
X87149657Y-58200024D01*
X87022947Y-58115360D01*
X86977598Y-58085059D01*
X86958516Y-58077155D01*
X86786420Y-58005870D01*
X86786412Y-58005868D01*
X86583469Y-57965500D01*
X86583465Y-57965500D01*
X86376535Y-57965500D01*
X86376530Y-57965500D01*
X86173587Y-58005868D01*
X86173575Y-58005871D01*
X86078028Y-58045448D01*
X86008559Y-58052917D01*
X85946080Y-58021641D01*
X85942895Y-58018568D01*
X85662508Y-57738181D01*
X85629023Y-57676858D01*
X85634007Y-57607166D01*
X85675879Y-57551233D01*
X85741343Y-57526816D01*
X85750189Y-57526500D01*
X87349750Y-57526500D01*
X87349751Y-57526499D01*
X87364568Y-57523552D01*
X87408229Y-57514868D01*
X87408229Y-57514867D01*
X87408231Y-57514867D01*
X87474552Y-57470552D01*
X87518867Y-57404231D01*
X87518867Y-57404229D01*
X87518868Y-57404229D01*
X87530499Y-57345752D01*
X87530500Y-57345750D01*
X87530500Y-55606249D01*
X87530499Y-55606247D01*
X87518868Y-55547770D01*
X87518867Y-55547769D01*
X87474552Y-55481447D01*
X87408230Y-55437132D01*
X87408229Y-55437131D01*
X87349752Y-55425500D01*
X87349748Y-55425500D01*
X86929500Y-55425500D01*
X86862461Y-55405815D01*
X86816706Y-55353011D01*
X86805500Y-55301500D01*
X86805500Y-51775149D01*
X86805500Y-51775147D01*
X86783318Y-51692362D01*
X86783318Y-51692361D01*
X86740465Y-51618138D01*
X80386009Y-45263682D01*
X80352524Y-45202359D01*
X80352073Y-45151809D01*
X80382500Y-44998844D01*
X80382500Y-44841155D01*
X80382499Y-44841153D01*
X80364727Y-44751809D01*
X80351737Y-44686503D01*
X80315427Y-44598842D01*
X80291397Y-44540827D01*
X80291390Y-44540814D01*
X80203789Y-44409711D01*
X80203786Y-44409707D01*
X80092292Y-44298213D01*
X80092288Y-44298210D01*
X79961185Y-44210609D01*
X79961172Y-44210602D01*
X79815501Y-44150264D01*
X79815489Y-44150261D01*
X79660845Y-44119500D01*
X79660842Y-44119500D01*
X79503158Y-44119500D01*
X79503155Y-44119500D01*
X79348510Y-44150261D01*
X79348498Y-44150264D01*
X79202827Y-44210602D01*
X79202814Y-44210609D01*
X79083091Y-44290606D01*
X79016413Y-44311484D01*
X78949033Y-44292999D01*
X78902343Y-44241020D01*
X78890200Y-44187504D01*
X78890200Y-43404418D01*
X78909885Y-43337379D01*
X78962689Y-43291624D01*
X79031847Y-43281680D01*
X79070496Y-43293934D01*
X79159740Y-43339407D01*
X79324415Y-43392914D01*
X79495429Y-43420000D01*
X79668571Y-43420000D01*
X79839584Y-43392914D01*
X80004257Y-43339408D01*
X80158525Y-43260803D01*
X80164736Y-43256289D01*
X79628447Y-42720000D01*
X79634661Y-42720000D01*
X79736394Y-42692741D01*
X79827606Y-42640080D01*
X79902080Y-42565606D01*
X79954741Y-42474394D01*
X79982000Y-42372661D01*
X79982000Y-42366447D01*
X80518289Y-42902736D01*
X80522803Y-42896525D01*
X80522809Y-42896516D01*
X80533752Y-42875039D01*
X82581500Y-42875039D01*
X82581500Y-44364960D01*
X82596630Y-44499249D01*
X82596631Y-44499254D01*
X82656211Y-44669523D01*
X82742704Y-44807175D01*
X82752184Y-44822262D01*
X82879738Y-44949816D01*
X83032478Y-45045789D01*
X83136083Y-45082042D01*
X83202745Y-45105368D01*
X83202750Y-45105369D01*
X83293246Y-45115565D01*
X83337040Y-45120499D01*
X83337043Y-45120500D01*
X83337046Y-45120500D01*
X83426957Y-45120500D01*
X83426958Y-45120499D01*
X83494104Y-45112934D01*
X83561249Y-45105369D01*
X83561252Y-45105368D01*
X83561255Y-45105368D01*
X83731522Y-45045789D01*
X83884262Y-44949816D01*
X84011816Y-44822262D01*
X84107789Y-44669522D01*
X84167368Y-44499255D01*
X84169672Y-44478811D01*
X84177457Y-44409711D01*
X84182500Y-44364954D01*
X84182500Y-42875046D01*
X84173497Y-42795139D01*
X84167369Y-42740750D01*
X84167368Y-42740745D01*
X84107788Y-42570476D01*
X84034251Y-42453443D01*
X84011816Y-42417738D01*
X83884262Y-42290184D01*
X83731523Y-42194211D01*
X83561254Y-42134631D01*
X83561249Y-42134630D01*
X83426960Y-42119500D01*
X83426954Y-42119500D01*
X83337046Y-42119500D01*
X83337039Y-42119500D01*
X83202750Y-42134630D01*
X83202745Y-42134631D01*
X83032476Y-42194211D01*
X82879737Y-42290184D01*
X82752184Y-42417737D01*
X82656211Y-42570476D01*
X82596631Y-42740745D01*
X82596630Y-42740750D01*
X82581500Y-42875039D01*
X80533752Y-42875039D01*
X80564203Y-42815277D01*
X80564205Y-42815272D01*
X80601408Y-42742257D01*
X80654914Y-42577584D01*
X80682000Y-42406571D01*
X80682000Y-42233428D01*
X80654914Y-42062415D01*
X80601408Y-41897742D01*
X80522801Y-41743471D01*
X80518290Y-41737262D01*
X80518289Y-41737261D01*
X79982000Y-42273551D01*
X79982000Y-42267339D01*
X79954741Y-42165606D01*
X79902080Y-42074394D01*
X79827606Y-41999920D01*
X79736394Y-41947259D01*
X79634661Y-41920000D01*
X79628446Y-41920000D01*
X80164737Y-41383709D01*
X80158525Y-41379196D01*
X80004259Y-41300592D01*
X79839585Y-41247086D01*
X79791734Y-41239507D01*
X79728600Y-41209577D01*
X79691669Y-41150266D01*
X79692667Y-41080403D01*
X79731277Y-41022171D01*
X79786940Y-40995417D01*
X79815497Y-40989737D01*
X79961179Y-40929394D01*
X80092289Y-40841789D01*
X80203789Y-40730289D01*
X80291394Y-40599179D01*
X80351737Y-40453497D01*
X80382500Y-40298842D01*
X80382500Y-40141158D01*
X80382500Y-40141155D01*
X80382499Y-40141153D01*
X80376960Y-40113305D01*
X80351737Y-39986503D01*
X80306407Y-39877066D01*
X80291397Y-39840827D01*
X80291390Y-39840814D01*
X80203789Y-39709711D01*
X80203786Y-39709707D01*
X80092292Y-39598213D01*
X80092288Y-39598210D01*
X79961185Y-39510609D01*
X79961172Y-39510602D01*
X79815501Y-39450264D01*
X79815489Y-39450261D01*
X79660845Y-39419500D01*
X79660842Y-39419500D01*
X79503158Y-39419500D01*
X79503155Y-39419500D01*
X79348510Y-39450261D01*
X79348498Y-39450264D01*
X79202827Y-39510602D01*
X79202814Y-39510609D01*
X79071711Y-39598210D01*
X79071707Y-39598213D01*
X78960213Y-39709707D01*
X78960210Y-39709711D01*
X78872609Y-39840814D01*
X78872602Y-39840827D01*
X78812264Y-39986498D01*
X78812261Y-39986510D01*
X78781500Y-40141153D01*
X78781500Y-40298846D01*
X78811926Y-40451809D01*
X78805699Y-40521401D01*
X78777990Y-40563681D01*
X78650180Y-40691491D01*
X78588859Y-40724976D01*
X78519167Y-40719992D01*
X78463233Y-40678121D01*
X78438816Y-40612657D01*
X78438500Y-40603810D01*
X78438500Y-38680189D01*
X78458185Y-38613150D01*
X78474819Y-38592508D01*
X78752682Y-38314645D01*
X79065965Y-38001362D01*
X79108818Y-37927139D01*
X79131000Y-37844353D01*
X79131000Y-37758647D01*
X79131000Y-36825039D01*
X81081500Y-36825039D01*
X81081500Y-36914960D01*
X81096630Y-37049249D01*
X81096631Y-37049254D01*
X81156211Y-37219523D01*
X81211495Y-37307506D01*
X81252184Y-37372262D01*
X81379738Y-37499816D01*
X81532478Y-37595789D01*
X81588269Y-37615311D01*
X81702745Y-37655368D01*
X81702750Y-37655369D01*
X81793246Y-37665565D01*
X81837040Y-37670499D01*
X81837043Y-37670500D01*
X81837046Y-37670500D01*
X83326957Y-37670500D01*
X83326958Y-37670499D01*
X83394104Y-37662934D01*
X83461249Y-37655369D01*
X83461252Y-37655368D01*
X83461255Y-37655368D01*
X83631522Y-37595789D01*
X83784262Y-37499816D01*
X83911816Y-37372262D01*
X84007789Y-37219522D01*
X84067368Y-37049255D01*
X84082500Y-36914954D01*
X84082500Y-36825046D01*
X84067368Y-36690745D01*
X84007789Y-36520478D01*
X84001125Y-36509873D01*
X83951460Y-36430831D01*
X83911816Y-36367738D01*
X83784262Y-36240184D01*
X83631523Y-36144211D01*
X83461254Y-36084631D01*
X83461249Y-36084630D01*
X83326960Y-36069500D01*
X83326954Y-36069500D01*
X81837046Y-36069500D01*
X81837039Y-36069500D01*
X81702750Y-36084630D01*
X81702745Y-36084631D01*
X81532476Y-36144211D01*
X81379737Y-36240184D01*
X81252184Y-36367737D01*
X81156211Y-36520476D01*
X81096631Y-36690745D01*
X81096630Y-36690750D01*
X81081500Y-36825039D01*
X79131000Y-36825039D01*
X79131000Y-35056239D01*
X79150685Y-34989200D01*
X79203489Y-34943445D01*
X79272647Y-34933501D01*
X79327885Y-34955921D01*
X79422442Y-35024620D01*
X79611782Y-35121095D01*
X79813870Y-35186757D01*
X80023754Y-35220000D01*
X80236246Y-35220000D01*
X80446127Y-35186757D01*
X80446130Y-35186757D01*
X80648217Y-35121095D01*
X80837554Y-35024622D01*
X80891716Y-34985270D01*
X80891717Y-34985270D01*
X80259409Y-34352962D01*
X80322993Y-34335925D01*
X80437007Y-34270099D01*
X80530099Y-34177007D01*
X80595925Y-34062993D01*
X80612962Y-33999409D01*
X81245270Y-34631717D01*
X81245270Y-34631716D01*
X81284622Y-34577554D01*
X81381095Y-34388217D01*
X81446757Y-34186130D01*
X81446757Y-34186127D01*
X81480000Y-33976246D01*
X81480000Y-33763753D01*
X81446757Y-33553872D01*
X81446757Y-33553869D01*
X81381095Y-33351782D01*
X81284624Y-33162449D01*
X81245270Y-33108282D01*
X81245269Y-33108282D01*
X80612962Y-33740590D01*
X80595925Y-33677007D01*
X80530099Y-33562993D01*
X80437007Y-33469901D01*
X80322993Y-33404075D01*
X80259407Y-33387036D01*
X80891716Y-32754728D01*
X80837550Y-32715375D01*
X80648216Y-32618904D01*
X80473383Y-32562097D01*
X80473376Y-32562095D01*
X80472019Y-32561654D01*
X80414346Y-32522213D01*
X80387151Y-32457853D01*
X80388677Y-32449038D01*
X83394500Y-32449038D01*
X83394500Y-32700962D01*
X83422136Y-32875447D01*
X83433910Y-32949785D01*
X83511760Y-33189383D01*
X83574982Y-33313462D01*
X83617163Y-33396247D01*
X83626132Y-33413848D01*
X83774201Y-33617649D01*
X83774205Y-33617654D01*
X83952345Y-33795794D01*
X83952350Y-33795798D01*
X84130117Y-33924952D01*
X84156155Y-33943870D01*
X84273072Y-34003442D01*
X84380616Y-34058239D01*
X84380618Y-34058239D01*
X84380621Y-34058241D01*
X84620215Y-34136090D01*
X84869038Y-34175500D01*
X84869039Y-34175500D01*
X85120961Y-34175500D01*
X85120962Y-34175500D01*
X85369785Y-34136090D01*
X85609379Y-34058241D01*
X85833845Y-33943870D01*
X86037656Y-33795793D01*
X86215793Y-33617656D01*
X86363870Y-33413845D01*
X86478241Y-33189379D01*
X86556090Y-32949785D01*
X86595500Y-32700962D01*
X86595500Y-32449038D01*
X86556090Y-32200215D01*
X86478241Y-31960621D01*
X86478239Y-31960618D01*
X86478239Y-31960616D01*
X86428968Y-31863918D01*
X86363870Y-31736155D01*
X86310931Y-31663290D01*
X86215798Y-31532350D01*
X86215794Y-31532345D01*
X86037654Y-31354205D01*
X86037649Y-31354201D01*
X85833848Y-31206132D01*
X85833847Y-31206131D01*
X85833845Y-31206130D01*
X85726877Y-31151627D01*
X85609383Y-31091760D01*
X85369785Y-31013910D01*
X85263702Y-30997108D01*
X85120962Y-30974500D01*
X84869038Y-30974500D01*
X84783967Y-30987974D01*
X84620214Y-31013910D01*
X84380616Y-31091760D01*
X84156151Y-31206132D01*
X83952350Y-31354201D01*
X83952345Y-31354205D01*
X83774205Y-31532345D01*
X83774201Y-31532350D01*
X83626132Y-31736151D01*
X83511760Y-31960616D01*
X83433910Y-32200214D01*
X83405356Y-32380499D01*
X83394500Y-32449038D01*
X80388677Y-32449038D01*
X80399070Y-32389007D01*
X80446317Y-32337534D01*
X80462882Y-32329168D01*
X80627598Y-32260941D01*
X80799655Y-32145977D01*
X80945977Y-31999655D01*
X81060941Y-31827598D01*
X81140130Y-31636420D01*
X81180500Y-31433465D01*
X81180500Y-31226535D01*
X81140130Y-31023580D01*
X81060941Y-30832402D01*
X80945977Y-30660345D01*
X80945975Y-30660342D01*
X80799657Y-30514024D01*
X80713626Y-30456541D01*
X80627598Y-30399059D01*
X80608516Y-30391155D01*
X80436420Y-30319870D01*
X80436412Y-30319868D01*
X80233469Y-30279500D01*
X80233465Y-30279500D01*
X80026535Y-30279500D01*
X80026530Y-30279500D01*
X79823587Y-30319868D01*
X79823579Y-30319870D01*
X79632403Y-30399058D01*
X79460342Y-30514024D01*
X79314025Y-30660341D01*
X79314022Y-30660345D01*
X79289754Y-30696665D01*
X79288286Y-30697891D01*
X79287661Y-30699698D01*
X79261597Y-30720195D01*
X79236141Y-30741470D01*
X79234243Y-30741708D01*
X79232741Y-30742890D01*
X79199721Y-30746044D01*
X79166816Y-30750177D01*
X79165091Y-30749352D01*
X79163188Y-30749534D01*
X79133707Y-30734336D01*
X79103789Y-30720022D01*
X79102243Y-30718116D01*
X79101085Y-30717519D01*
X79079266Y-30689777D01*
X79069558Y-30672962D01*
X79065965Y-30666738D01*
X79005362Y-30606135D01*
X79005361Y-30606134D01*
X79001031Y-30601804D01*
X79001020Y-30601794D01*
X78292064Y-29892837D01*
X78292063Y-29892836D01*
X78292062Y-29892835D01*
X78254950Y-29871408D01*
X78217840Y-29849982D01*
X78174199Y-29838289D01*
X78135053Y-29827800D01*
X76269553Y-29827800D01*
X76183847Y-29827800D01*
X76101059Y-29849982D01*
X76026838Y-29892835D01*
X76026835Y-29892837D01*
X75587103Y-30332568D01*
X75525780Y-30366053D01*
X75456088Y-30361069D01*
X75451981Y-30359452D01*
X75356420Y-30319870D01*
X75356412Y-30319868D01*
X75153469Y-30279500D01*
X75153465Y-30279500D01*
X74946535Y-30279500D01*
X74946530Y-30279500D01*
X74743587Y-30319868D01*
X74743579Y-30319870D01*
X74552403Y-30399058D01*
X74380342Y-30514024D01*
X74234024Y-30660342D01*
X74119057Y-30832403D01*
X74050835Y-30997108D01*
X74006994Y-31051511D01*
X73940700Y-31073576D01*
X73873000Y-31056297D01*
X73825390Y-31005159D01*
X73818343Y-30987973D01*
X73761095Y-30811782D01*
X73664624Y-30622449D01*
X73625270Y-30568282D01*
X73625269Y-30568282D01*
X72992962Y-31200590D01*
X72975925Y-31137007D01*
X72910099Y-31022993D01*
X72817007Y-30929901D01*
X72702993Y-30864075D01*
X72639409Y-30847037D01*
X73271716Y-30214728D01*
X73217550Y-30175375D01*
X73028217Y-30078904D01*
X72826129Y-30013242D01*
X72616246Y-29980000D01*
X72403754Y-29980000D01*
X72193872Y-30013242D01*
X72193869Y-30013242D01*
X71991782Y-30078904D01*
X71802439Y-30175380D01*
X71748282Y-30214727D01*
X71748282Y-30214728D01*
X72380591Y-30847037D01*
X72317007Y-30864075D01*
X72202993Y-30929901D01*
X72109901Y-31022993D01*
X72044075Y-31137007D01*
X72027037Y-31200591D01*
X71534931Y-30708485D01*
X71528392Y-30701417D01*
X71520949Y-30692718D01*
X71509543Y-30672962D01*
X71500465Y-30657238D01*
X71439862Y-30596635D01*
X71439859Y-30596633D01*
X70723662Y-29880435D01*
X70686550Y-29859008D01*
X70649440Y-29837582D01*
X70608046Y-29826491D01*
X70566653Y-29815400D01*
X63496247Y-29815400D01*
X63413462Y-29837582D01*
X63413455Y-29837585D01*
X63339244Y-29880430D01*
X63339236Y-29880436D01*
X62887103Y-30332568D01*
X62825780Y-30366053D01*
X62756088Y-30361069D01*
X62751981Y-30359452D01*
X62656420Y-30319870D01*
X62656412Y-30319868D01*
X62453469Y-30279500D01*
X62453465Y-30279500D01*
X62246535Y-30279500D01*
X62246530Y-30279500D01*
X62043587Y-30319868D01*
X62043579Y-30319870D01*
X61852403Y-30399058D01*
X61680342Y-30514024D01*
X61534025Y-30660341D01*
X61534019Y-30660349D01*
X61527808Y-30669644D01*
X61474194Y-30714447D01*
X61404868Y-30723151D01*
X61341842Y-30692994D01*
X61317322Y-30662749D01*
X61308053Y-30646695D01*
X61280365Y-30598738D01*
X60574462Y-29892835D01*
X60537350Y-29871408D01*
X60500240Y-29849982D01*
X60456599Y-29838289D01*
X60417453Y-29827800D01*
X58489553Y-29827800D01*
X58403847Y-29827800D01*
X58321059Y-29849982D01*
X58246838Y-29892835D01*
X58246835Y-29892837D01*
X57807103Y-30332568D01*
X57745780Y-30366053D01*
X57676088Y-30361069D01*
X57671981Y-30359452D01*
X57576420Y-30319870D01*
X57576412Y-30319868D01*
X57373469Y-30279500D01*
X57373465Y-30279500D01*
X57166535Y-30279500D01*
X57166530Y-30279500D01*
X56963587Y-30319868D01*
X56963579Y-30319870D01*
X56772403Y-30399058D01*
X56600342Y-30514024D01*
X56454025Y-30660341D01*
X56454022Y-30660345D01*
X56430616Y-30695375D01*
X56377003Y-30740180D01*
X56307678Y-30748887D01*
X56244651Y-30718732D01*
X56216570Y-30679042D01*
X56216286Y-30679207D01*
X56214505Y-30676123D01*
X56212946Y-30673919D01*
X56212218Y-30672162D01*
X56212218Y-30672161D01*
X56169365Y-30597938D01*
X55213012Y-29641585D01*
X55180918Y-29585997D01*
X55179100Y-29579211D01*
X55179100Y-29579208D01*
X55144992Y-29451914D01*
X55079100Y-29337786D01*
X54985914Y-29244600D01*
X54910506Y-29201063D01*
X54871787Y-29178708D01*
X54808139Y-29161654D01*
X54744492Y-29144600D01*
X54612708Y-29144600D01*
X54485412Y-29178708D01*
X54371286Y-29244600D01*
X54371283Y-29244602D01*
X54278102Y-29337783D01*
X54278100Y-29337786D01*
X54212208Y-29451912D01*
X54178100Y-29579208D01*
X54178100Y-29710992D01*
X54212020Y-29837585D01*
X54212209Y-29838288D01*
X54212209Y-29838289D01*
X54254120Y-29910880D01*
X54270593Y-29978780D01*
X54247741Y-30044807D01*
X54203029Y-30083364D01*
X54022443Y-30175378D01*
X54022440Y-30175380D01*
X53968282Y-30214727D01*
X53968282Y-30214728D01*
X54600591Y-30847037D01*
X54537007Y-30864075D01*
X54422993Y-30929901D01*
X54329901Y-31022993D01*
X54264075Y-31137007D01*
X54247037Y-31200591D01*
X53614728Y-30568282D01*
X53614727Y-30568282D01*
X53575380Y-30622439D01*
X53478905Y-30811781D01*
X53421656Y-30987974D01*
X53382218Y-31045649D01*
X53317859Y-31072847D01*
X53249013Y-31060932D01*
X53197537Y-31013688D01*
X53189164Y-30997107D01*
X53188999Y-30996709D01*
X53134500Y-30865136D01*
X53120943Y-30832405D01*
X53005975Y-30660342D01*
X52859657Y-30514024D01*
X52773626Y-30456541D01*
X52687598Y-30399059D01*
X52668516Y-30391155D01*
X52496420Y-30319870D01*
X52496412Y-30319868D01*
X52293469Y-30279500D01*
X52293465Y-30279500D01*
X52086535Y-30279500D01*
X52086530Y-30279500D01*
X51883587Y-30319868D01*
X51883579Y-30319870D01*
X51692403Y-30399058D01*
X51520342Y-30514024D01*
X51374024Y-30660342D01*
X51259058Y-30832403D01*
X51179870Y-31023579D01*
X51179868Y-31023587D01*
X51139500Y-31226530D01*
X51139500Y-31433469D01*
X51179868Y-31636412D01*
X51179870Y-31636420D01*
X51248850Y-31802953D01*
X51259059Y-31827598D01*
X51283327Y-31863918D01*
X51374024Y-31999657D01*
X51520342Y-32145975D01*
X51520345Y-32145977D01*
X51692402Y-32260941D01*
X51883580Y-32340130D01*
X52048855Y-32373005D01*
X52086530Y-32380499D01*
X52086534Y-32380500D01*
X52086535Y-32380500D01*
X52293466Y-32380500D01*
X52293467Y-32380499D01*
X52496420Y-32340130D01*
X52591970Y-32300550D01*
X52661439Y-32293082D01*
X52723918Y-32324357D01*
X52727104Y-32327431D01*
X53098181Y-32698508D01*
X53112884Y-32725435D01*
X53129477Y-32751254D01*
X53130368Y-32757454D01*
X53131666Y-32759831D01*
X53134500Y-32786188D01*
X53134500Y-33029505D01*
X53114815Y-33096544D01*
X53062011Y-33142299D01*
X52992853Y-33152243D01*
X52929297Y-33123218D01*
X52922819Y-33117186D01*
X52859657Y-33054024D01*
X52703652Y-32949786D01*
X52687598Y-32939059D01*
X52687593Y-32939057D01*
X52496420Y-32859870D01*
X52496412Y-32859868D01*
X52293469Y-32819500D01*
X52293465Y-32819500D01*
X52086535Y-32819500D01*
X52086530Y-32819500D01*
X51883587Y-32859868D01*
X51883579Y-32859870D01*
X51692403Y-32939058D01*
X51520342Y-33054024D01*
X51520341Y-33054025D01*
X51457181Y-33117186D01*
X51395858Y-33150671D01*
X51326166Y-33145687D01*
X51270233Y-33103815D01*
X51245816Y-33038351D01*
X51245500Y-33029505D01*
X51245500Y-32557149D01*
X51245500Y-32557147D01*
X51223318Y-32474362D01*
X51223318Y-32474361D01*
X51180465Y-32400138D01*
X50647430Y-31867103D01*
X50613946Y-31805781D01*
X50618930Y-31736089D01*
X50620551Y-31731970D01*
X50660130Y-31636420D01*
X50700500Y-31433465D01*
X50700500Y-31226535D01*
X50660130Y-31023580D01*
X50580941Y-30832402D01*
X50465977Y-30660345D01*
X50465975Y-30660342D01*
X50319657Y-30514024D01*
X50233626Y-30456541D01*
X50147598Y-30399059D01*
X50128516Y-30391155D01*
X49956420Y-30319870D01*
X49956412Y-30319868D01*
X49753469Y-30279500D01*
X49753465Y-30279500D01*
X49546535Y-30279500D01*
X49546530Y-30279500D01*
X49343587Y-30319868D01*
X49343579Y-30319870D01*
X49152403Y-30399058D01*
X48980342Y-30514024D01*
X48834025Y-30660341D01*
X48830159Y-30665053D01*
X48828784Y-30663925D01*
X48781611Y-30703342D01*
X48712285Y-30712044D01*
X48649260Y-30681883D01*
X48644450Y-30677323D01*
X47353064Y-29385937D01*
X47353062Y-29385935D01*
X47315950Y-29364508D01*
X47278840Y-29343082D01*
X47237446Y-29331991D01*
X47196053Y-29320900D01*
X43756453Y-29320900D01*
X43670747Y-29320900D01*
X43587959Y-29343082D01*
X43513738Y-29385935D01*
X43513735Y-29385937D01*
X42567103Y-30332568D01*
X42505780Y-30366053D01*
X42436088Y-30361069D01*
X42431981Y-30359452D01*
X42336420Y-30319870D01*
X42336412Y-30319868D01*
X42133469Y-30279500D01*
X42133465Y-30279500D01*
X41926535Y-30279500D01*
X41926530Y-30279500D01*
X41723587Y-30319868D01*
X41723579Y-30319870D01*
X41532403Y-30399058D01*
X41360342Y-30514024D01*
X41214024Y-30660342D01*
X41099058Y-30832403D01*
X41019870Y-31023579D01*
X41019868Y-31023587D01*
X40979500Y-31226530D01*
X40979500Y-31433469D01*
X41019868Y-31636412D01*
X41019870Y-31636420D01*
X41088850Y-31802953D01*
X41099059Y-31827598D01*
X41123327Y-31863918D01*
X41214024Y-31999657D01*
X41360342Y-32145975D01*
X41532405Y-32260943D01*
X41618688Y-32296682D01*
X41697108Y-32329164D01*
X41751511Y-32373005D01*
X41773576Y-32439299D01*
X41756297Y-32506998D01*
X41705160Y-32554609D01*
X41687974Y-32561656D01*
X41511781Y-32618905D01*
X41322439Y-32715380D01*
X41268282Y-32754727D01*
X41268282Y-32754728D01*
X41900591Y-33387037D01*
X41837007Y-33404075D01*
X41722993Y-33469901D01*
X41629901Y-33562993D01*
X41564075Y-33677007D01*
X41547037Y-33740591D01*
X40914728Y-33108282D01*
X40914727Y-33108282D01*
X40875380Y-33162439D01*
X40778905Y-33351781D01*
X40721656Y-33527974D01*
X40682218Y-33585649D01*
X40617859Y-33612847D01*
X40549013Y-33600932D01*
X40497537Y-33553688D01*
X40489164Y-33537107D01*
X40420943Y-33372405D01*
X40305975Y-33200342D01*
X40159657Y-33054024D01*
X40003652Y-32949786D01*
X39987598Y-32939059D01*
X39987593Y-32939057D01*
X39796420Y-32859870D01*
X39796412Y-32859868D01*
X39593469Y-32819500D01*
X39593465Y-32819500D01*
X39386535Y-32819500D01*
X39386530Y-32819500D01*
X39183587Y-32859868D01*
X39183579Y-32859870D01*
X38992403Y-32939058D01*
X38820342Y-33054024D01*
X38674024Y-33200342D01*
X38559058Y-33372403D01*
X38479870Y-33563579D01*
X38479868Y-33563587D01*
X38439500Y-33766530D01*
X38439500Y-33973469D01*
X38479868Y-34176412D01*
X38479870Y-34176420D01*
X38545939Y-34335925D01*
X38559059Y-34367598D01*
X38572836Y-34388217D01*
X38674022Y-34539654D01*
X38674025Y-34539658D01*
X38820342Y-34685975D01*
X38820345Y-34685977D01*
X38992402Y-34800941D01*
X39183580Y-34880130D01*
X39386530Y-34920499D01*
X39386534Y-34920500D01*
X39386535Y-34920500D01*
X39593466Y-34920500D01*
X39593467Y-34920499D01*
X39796420Y-34880130D01*
X39987598Y-34800941D01*
X40159655Y-34685977D01*
X40305977Y-34539655D01*
X40307417Y-34537501D01*
X40374300Y-34437401D01*
X40420941Y-34367598D01*
X40489165Y-34202889D01*
X40533004Y-34148488D01*
X40599298Y-34126423D01*
X40666998Y-34143702D01*
X40714609Y-34194839D01*
X40721656Y-34212026D01*
X40778904Y-34388216D01*
X40875375Y-34577550D01*
X40914728Y-34631716D01*
X41547037Y-33999408D01*
X41564075Y-34062993D01*
X41629901Y-34177007D01*
X41722993Y-34270099D01*
X41837007Y-34335925D01*
X41900589Y-34352962D01*
X41268282Y-34985269D01*
X41268282Y-34985270D01*
X41322449Y-35024624D01*
X41511782Y-35121095D01*
X41713870Y-35186757D01*
X41923754Y-35220000D01*
X42136246Y-35220000D01*
X42346127Y-35186757D01*
X42346130Y-35186757D01*
X42548217Y-35121095D01*
X42737557Y-35024620D01*
X42847315Y-34944878D01*
X42913121Y-34921398D01*
X42981175Y-34937224D01*
X43029870Y-34987329D01*
X43044200Y-35045196D01*
X43044200Y-35182847D01*
X43044200Y-35268553D01*
X43050975Y-35293838D01*
X43066382Y-35351340D01*
X43076033Y-35368055D01*
X43109235Y-35425562D01*
X43109237Y-35425564D01*
X44053181Y-36369508D01*
X44086666Y-36430831D01*
X44089500Y-36457189D01*
X44089500Y-38803957D01*
X44069815Y-38870996D01*
X44017011Y-38916751D01*
X43947853Y-38926695D01*
X43884297Y-38897670D01*
X43877819Y-38891638D01*
X43758558Y-38772377D01*
X43600912Y-38667042D01*
X43425751Y-38594488D01*
X43425743Y-38594486D01*
X43239802Y-38557500D01*
X43239798Y-38557500D01*
X43050202Y-38557500D01*
X43050197Y-38557500D01*
X42864256Y-38594486D01*
X42864248Y-38594488D01*
X42689087Y-38667042D01*
X42531441Y-38772377D01*
X42397377Y-38906441D01*
X42292042Y-39064087D01*
X42219488Y-39239248D01*
X42219486Y-39239256D01*
X42182500Y-39425197D01*
X42182500Y-39614802D01*
X42219486Y-39800743D01*
X42219488Y-39800751D01*
X42292042Y-39975912D01*
X42397377Y-40133558D01*
X42531438Y-40267619D01*
X42531442Y-40267622D01*
X42689078Y-40372952D01*
X42689087Y-40372957D01*
X42742953Y-40395269D01*
X42797356Y-40439110D01*
X42819421Y-40505404D01*
X42819500Y-40509830D01*
X42819500Y-70922810D01*
X42799815Y-70989849D01*
X42783181Y-71010491D01*
X41297103Y-72496568D01*
X41235780Y-72530053D01*
X41166088Y-72525069D01*
X41161981Y-72523452D01*
X41066420Y-72483870D01*
X41066412Y-72483868D01*
X40863469Y-72443500D01*
X40863465Y-72443500D01*
X40656535Y-72443500D01*
X40656530Y-72443500D01*
X40453587Y-72483868D01*
X40453579Y-72483870D01*
X40262403Y-72563058D01*
X40090342Y-72678024D01*
X39944024Y-72824342D01*
X39829057Y-72996403D01*
X39760835Y-73161108D01*
X39716994Y-73215511D01*
X39650700Y-73237576D01*
X39583000Y-73220297D01*
X39535390Y-73169159D01*
X39528343Y-73151973D01*
X39471095Y-72975782D01*
X39374624Y-72786449D01*
X39335270Y-72732282D01*
X39335269Y-72732282D01*
X38702962Y-73364590D01*
X38685925Y-73301007D01*
X38620099Y-73186993D01*
X38527007Y-73093901D01*
X38412993Y-73028075D01*
X38349409Y-73011037D01*
X38981716Y-72378728D01*
X38927550Y-72339375D01*
X38738217Y-72242904D01*
X38536129Y-72177242D01*
X38326246Y-72144000D01*
X38113754Y-72144000D01*
X37903872Y-72177242D01*
X37903869Y-72177242D01*
X37701782Y-72242904D01*
X37512439Y-72339380D01*
X37458282Y-72378727D01*
X37458282Y-72378728D01*
X38090591Y-73011037D01*
X38027007Y-73028075D01*
X37912993Y-73093901D01*
X37819901Y-73186993D01*
X37754075Y-73301007D01*
X37737037Y-73364591D01*
X37104728Y-72732282D01*
X37104727Y-72732282D01*
X37065380Y-72786439D01*
X36968904Y-72975782D01*
X36903242Y-73177869D01*
X36903242Y-73177872D01*
X36870000Y-73387753D01*
X23545500Y-73387753D01*
X23545500Y-66580411D01*
X23545972Y-66569604D01*
X23551405Y-66507500D01*
X23558979Y-66420928D01*
X23562732Y-66399645D01*
X23568344Y-66378700D01*
X23599956Y-66260721D01*
X23607342Y-66240428D01*
X23668127Y-66110074D01*
X23678927Y-66091369D01*
X23761423Y-65973552D01*
X23775306Y-65957007D01*
X23877007Y-65855306D01*
X23893552Y-65841423D01*
X24011369Y-65758927D01*
X24030074Y-65748127D01*
X24160428Y-65687342D01*
X24180721Y-65679956D01*
X24319645Y-65642731D01*
X24340928Y-65638979D01*
X24489605Y-65625972D01*
X24500412Y-65625500D01*
X27586905Y-65625500D01*
X27586907Y-65625500D01*
X27767928Y-65593581D01*
X27940656Y-65530713D01*
X28099844Y-65438806D01*
X28240653Y-65320653D01*
X28358806Y-65179844D01*
X28450713Y-65020656D01*
X28513581Y-64847928D01*
X28545500Y-64666907D01*
X28545500Y-64575000D01*
X28545500Y-64558592D01*
X28545500Y-57488247D01*
X39579500Y-57488247D01*
X39579500Y-59527752D01*
X39591131Y-59586229D01*
X39591132Y-59586230D01*
X39635447Y-59652552D01*
X39701769Y-59696867D01*
X39701770Y-59696868D01*
X39760247Y-59708499D01*
X39760250Y-59708500D01*
X39760252Y-59708500D01*
X41799750Y-59708500D01*
X41799751Y-59708499D01*
X41814568Y-59705552D01*
X41858229Y-59696868D01*
X41858229Y-59696867D01*
X41858231Y-59696867D01*
X41924552Y-59652552D01*
X41968867Y-59586231D01*
X41968867Y-59586229D01*
X41968868Y-59586229D01*
X41980499Y-59527752D01*
X41980500Y-59527750D01*
X41980500Y-57488249D01*
X41980499Y-57488247D01*
X41968868Y-57429770D01*
X41968867Y-57429769D01*
X41924552Y-57363447D01*
X41858230Y-57319132D01*
X41858229Y-57319131D01*
X41799752Y-57307500D01*
X41799748Y-57307500D01*
X39760252Y-57307500D01*
X39760247Y-57307500D01*
X39701770Y-57319131D01*
X39701769Y-57319132D01*
X39635447Y-57363447D01*
X39591132Y-57429769D01*
X39591131Y-57429770D01*
X39579500Y-57488247D01*
X28545500Y-57488247D01*
X28545500Y-49554082D01*
X28545500Y-49483093D01*
X28513581Y-49302072D01*
X28450713Y-49129344D01*
X28358806Y-48970156D01*
X28358804Y-48970154D01*
X28358804Y-48970153D01*
X28310084Y-48912092D01*
X28240653Y-48829347D01*
X28168290Y-48768627D01*
X28099846Y-48711195D01*
X28099842Y-48711193D01*
X27940660Y-48619289D01*
X27940657Y-48619288D01*
X27940656Y-48619287D01*
X27870030Y-48593581D01*
X27767927Y-48556418D01*
X27586909Y-48524500D01*
X27586907Y-48524500D01*
X27515918Y-48524500D01*
X24500412Y-48524500D01*
X24489605Y-48524028D01*
X24472265Y-48522511D01*
X24340930Y-48511020D01*
X24319645Y-48507267D01*
X24180729Y-48470045D01*
X24160417Y-48462652D01*
X24030081Y-48401875D01*
X24011363Y-48391068D01*
X23893559Y-48308581D01*
X23877001Y-48294687D01*
X23775312Y-48192998D01*
X23761418Y-48176440D01*
X23734772Y-48138386D01*
X23678930Y-48058635D01*
X23668124Y-48039918D01*
X23643426Y-47986953D01*
X23607344Y-47909575D01*
X23599954Y-47889270D01*
X23562732Y-47750354D01*
X23558979Y-47729068D01*
X23554044Y-47672658D01*
X23553388Y-47665155D01*
X31878000Y-47665155D01*
X31878000Y-48225000D01*
X32851184Y-48225000D01*
X32835124Y-48241060D01*
X32784964Y-48327939D01*
X32759000Y-48424840D01*
X32759000Y-48525160D01*
X32784964Y-48622061D01*
X32835124Y-48708940D01*
X32851184Y-48725000D01*
X31878000Y-48725000D01*
X31878000Y-49284844D01*
X31884401Y-49344372D01*
X31884403Y-49344379D01*
X31934645Y-49479086D01*
X31934649Y-49479093D01*
X32020809Y-49594187D01*
X32020812Y-49594190D01*
X32135906Y-49680350D01*
X32135913Y-49680354D01*
X32270620Y-49730596D01*
X32270627Y-49730598D01*
X32330155Y-49736999D01*
X32330172Y-49737000D01*
X32890000Y-49737000D01*
X32890000Y-48763816D01*
X32906060Y-48779876D01*
X32992939Y-48830036D01*
X33089840Y-48856000D01*
X33190160Y-48856000D01*
X33287061Y-48830036D01*
X33373940Y-48779876D01*
X33390000Y-48763816D01*
X33390000Y-49737000D01*
X33949828Y-49737000D01*
X33949844Y-49736999D01*
X34009372Y-49730598D01*
X34009379Y-49730596D01*
X34144086Y-49680354D01*
X34144093Y-49680350D01*
X34259187Y-49594190D01*
X34259190Y-49594187D01*
X34345350Y-49479093D01*
X34345354Y-49479086D01*
X34395596Y-49344379D01*
X34395598Y-49344372D01*
X34401999Y-49284844D01*
X34402000Y-49284827D01*
X34402000Y-48725000D01*
X33428816Y-48725000D01*
X33444876Y-48708940D01*
X33495036Y-48622061D01*
X33521000Y-48525160D01*
X33521000Y-48424840D01*
X33495036Y-48327939D01*
X33444876Y-48241060D01*
X33428816Y-48225000D01*
X34402000Y-48225000D01*
X34402000Y-47665172D01*
X34401999Y-47665155D01*
X34395598Y-47605627D01*
X34395596Y-47605620D01*
X34345354Y-47470913D01*
X34345350Y-47470906D01*
X34259190Y-47355812D01*
X34259187Y-47355809D01*
X34144093Y-47269649D01*
X34144086Y-47269645D01*
X34009379Y-47219403D01*
X34009372Y-47219401D01*
X33949844Y-47213000D01*
X33390000Y-47213000D01*
X33390000Y-48186184D01*
X33373940Y-48170124D01*
X33287061Y-48119964D01*
X33190160Y-48094000D01*
X33089840Y-48094000D01*
X32992939Y-48119964D01*
X32906060Y-48170124D01*
X32890000Y-48186184D01*
X32890000Y-47213000D01*
X32330155Y-47213000D01*
X32270627Y-47219401D01*
X32270620Y-47219403D01*
X32135913Y-47269645D01*
X32135906Y-47269649D01*
X32020812Y-47355809D01*
X32020809Y-47355812D01*
X31934649Y-47470906D01*
X31934645Y-47470913D01*
X31884403Y-47605620D01*
X31884401Y-47605627D01*
X31878000Y-47665155D01*
X23553388Y-47665155D01*
X23545972Y-47580395D01*
X23545500Y-47569588D01*
X23545500Y-32449038D01*
X25394500Y-32449038D01*
X25394500Y-32700962D01*
X25422136Y-32875447D01*
X25433910Y-32949785D01*
X25511760Y-33189383D01*
X25574982Y-33313462D01*
X25617163Y-33396247D01*
X25626132Y-33413848D01*
X25774201Y-33617649D01*
X25774205Y-33617654D01*
X25952345Y-33795794D01*
X25952350Y-33795798D01*
X26130117Y-33924952D01*
X26156155Y-33943870D01*
X26273072Y-34003442D01*
X26380616Y-34058239D01*
X26380618Y-34058239D01*
X26380621Y-34058241D01*
X26620215Y-34136090D01*
X26869038Y-34175500D01*
X26869039Y-34175500D01*
X27120961Y-34175500D01*
X27120962Y-34175500D01*
X27369785Y-34136090D01*
X27609379Y-34058241D01*
X27833845Y-33943870D01*
X28037656Y-33795793D01*
X28215793Y-33617656D01*
X28363870Y-33413845D01*
X28478241Y-33189379D01*
X28517957Y-33067147D01*
X28539694Y-33000247D01*
X30819500Y-33000247D01*
X30819500Y-34739752D01*
X30831131Y-34798229D01*
X30831132Y-34798230D01*
X30875447Y-34864552D01*
X30941769Y-34908867D01*
X30941770Y-34908868D01*
X31000247Y-34920499D01*
X31000250Y-34920500D01*
X31000252Y-34920500D01*
X31420500Y-34920500D01*
X31487539Y-34940185D01*
X31533294Y-34992989D01*
X31544500Y-35044500D01*
X31544500Y-44707852D01*
X31566682Y-44790640D01*
X31584940Y-44822262D01*
X31609535Y-44864862D01*
X31609537Y-44864864D01*
X32209920Y-45465247D01*
X32243405Y-45526570D01*
X32238421Y-45596262D01*
X32236801Y-45600378D01*
X32214488Y-45654248D01*
X32214485Y-45654256D01*
X32177500Y-45840197D01*
X32177500Y-46029802D01*
X32214486Y-46215743D01*
X32214488Y-46215751D01*
X32287042Y-46390912D01*
X32392377Y-46548558D01*
X32526441Y-46682622D01*
X32631300Y-46752686D01*
X32684085Y-46787956D01*
X32859249Y-46860512D01*
X33045197Y-46897499D01*
X33045201Y-46897500D01*
X33045202Y-46897500D01*
X33234799Y-46897500D01*
X33234800Y-46897499D01*
X33420751Y-46860512D01*
X33595915Y-46787956D01*
X33753558Y-46682622D01*
X33887622Y-46548558D01*
X33992956Y-46390915D01*
X34065512Y-46215751D01*
X34102500Y-46029798D01*
X34102500Y-45840202D01*
X34065512Y-45654249D01*
X33992956Y-45479085D01*
X33957686Y-45426300D01*
X33887622Y-45321441D01*
X33753558Y-45187377D01*
X33595912Y-45082042D01*
X33420751Y-45009488D01*
X33420743Y-45009486D01*
X33234802Y-44972500D01*
X33234798Y-44972500D01*
X33045202Y-44972500D01*
X33045197Y-44972500D01*
X32859256Y-45009485D01*
X32859248Y-45009488D01*
X32805378Y-45031801D01*
X32735909Y-45039268D01*
X32673430Y-45007992D01*
X32670247Y-45004920D01*
X32231819Y-44566492D01*
X32198334Y-44505169D01*
X32195500Y-44478811D01*
X32195500Y-44111043D01*
X32215185Y-44044004D01*
X32267989Y-43998249D01*
X32337147Y-43988305D01*
X32400703Y-44017330D01*
X32407181Y-44023362D01*
X32526441Y-44142622D01*
X32593612Y-44187504D01*
X32684085Y-44247956D01*
X32859249Y-44320512D01*
X33045197Y-44357499D01*
X33045201Y-44357500D01*
X33045202Y-44357500D01*
X33234799Y-44357500D01*
X33234800Y-44357499D01*
X33420751Y-44320512D01*
X33595915Y-44247956D01*
X33753558Y-44142622D01*
X33887622Y-44008558D01*
X33992956Y-43850915D01*
X34065512Y-43675751D01*
X34102500Y-43489798D01*
X34102500Y-43300202D01*
X34065512Y-43114249D01*
X34043198Y-43060380D01*
X34035729Y-42990913D01*
X34067003Y-42928433D01*
X34070050Y-42925275D01*
X35914808Y-41080517D01*
X35976129Y-41047034D01*
X36034575Y-41048424D01*
X36117708Y-41070700D01*
X36117711Y-41070700D01*
X36249490Y-41070700D01*
X36249492Y-41070700D01*
X36376786Y-41036592D01*
X36490914Y-40970700D01*
X36584100Y-40877514D01*
X36649992Y-40763386D01*
X36684100Y-40636092D01*
X36684100Y-40504308D01*
X36649992Y-40377014D01*
X36584100Y-40262886D01*
X36545419Y-40224205D01*
X36511934Y-40162882D01*
X36509100Y-40136524D01*
X36509100Y-38710155D01*
X39343000Y-38710155D01*
X39343000Y-39270000D01*
X40316184Y-39270000D01*
X40300124Y-39286060D01*
X40249964Y-39372939D01*
X40224000Y-39469840D01*
X40224000Y-39570160D01*
X40249964Y-39667061D01*
X40300124Y-39753940D01*
X40316184Y-39770000D01*
X39343000Y-39770000D01*
X39343000Y-40329844D01*
X39349401Y-40389372D01*
X39349403Y-40389379D01*
X39399645Y-40524086D01*
X39399649Y-40524093D01*
X39485809Y-40639187D01*
X39485812Y-40639190D01*
X39600906Y-40725350D01*
X39600913Y-40725354D01*
X39735620Y-40775596D01*
X39735627Y-40775598D01*
X39795155Y-40781999D01*
X39795172Y-40782000D01*
X40355000Y-40782000D01*
X40355000Y-39808816D01*
X40371060Y-39824876D01*
X40457939Y-39875036D01*
X40554840Y-39901000D01*
X40655160Y-39901000D01*
X40752061Y-39875036D01*
X40838940Y-39824876D01*
X40855000Y-39808816D01*
X40855000Y-40782000D01*
X41414828Y-40782000D01*
X41414844Y-40781999D01*
X41474372Y-40775598D01*
X41474379Y-40775596D01*
X41609086Y-40725354D01*
X41609093Y-40725350D01*
X41724187Y-40639190D01*
X41724190Y-40639187D01*
X41810350Y-40524093D01*
X41810354Y-40524086D01*
X41860596Y-40389379D01*
X41860598Y-40389372D01*
X41866999Y-40329844D01*
X41867000Y-40329827D01*
X41867000Y-39770000D01*
X40893816Y-39770000D01*
X40909876Y-39753940D01*
X40960036Y-39667061D01*
X40986000Y-39570160D01*
X40986000Y-39469840D01*
X40960036Y-39372939D01*
X40909876Y-39286060D01*
X40893816Y-39270000D01*
X41867000Y-39270000D01*
X41867000Y-38710172D01*
X41866999Y-38710155D01*
X41860598Y-38650627D01*
X41860596Y-38650620D01*
X41810354Y-38515913D01*
X41810350Y-38515906D01*
X41724190Y-38400812D01*
X41724187Y-38400809D01*
X41609093Y-38314649D01*
X41609086Y-38314645D01*
X41474379Y-38264403D01*
X41474372Y-38264401D01*
X41414844Y-38258000D01*
X40855000Y-38258000D01*
X40855000Y-39231184D01*
X40838940Y-39215124D01*
X40752061Y-39164964D01*
X40655160Y-39139000D01*
X40554840Y-39139000D01*
X40457939Y-39164964D01*
X40371060Y-39215124D01*
X40355000Y-39231184D01*
X40355000Y-38258000D01*
X39795155Y-38258000D01*
X39735627Y-38264401D01*
X39735620Y-38264403D01*
X39600913Y-38314645D01*
X39600906Y-38314649D01*
X39485812Y-38400809D01*
X39485809Y-38400812D01*
X39399649Y-38515906D01*
X39399645Y-38515913D01*
X39349403Y-38650620D01*
X39349401Y-38650627D01*
X39343000Y-38710155D01*
X36509100Y-38710155D01*
X36509100Y-35004474D01*
X36528785Y-34937435D01*
X36581589Y-34891680D01*
X36650747Y-34881736D01*
X36657275Y-34882854D01*
X36846533Y-34920499D01*
X36846534Y-34920500D01*
X36846535Y-34920500D01*
X37053466Y-34920500D01*
X37053467Y-34920499D01*
X37256420Y-34880130D01*
X37447598Y-34800941D01*
X37619655Y-34685977D01*
X37765977Y-34539655D01*
X37767417Y-34537501D01*
X37834300Y-34437401D01*
X37880941Y-34367598D01*
X37960130Y-34176420D01*
X38000500Y-33973465D01*
X38000500Y-33766535D01*
X37960130Y-33563580D01*
X37880941Y-33372402D01*
X37765977Y-33200345D01*
X37765975Y-33200342D01*
X37619657Y-33054024D01*
X37463652Y-32949786D01*
X37447598Y-32939059D01*
X37447593Y-32939057D01*
X37294028Y-32875448D01*
X37282890Y-32870834D01*
X37228488Y-32826994D01*
X37206423Y-32760700D01*
X37223702Y-32693001D01*
X37274839Y-32645390D01*
X37292026Y-32638343D01*
X37468217Y-32581095D01*
X37657554Y-32484622D01*
X37711716Y-32445270D01*
X37711717Y-32445270D01*
X37079408Y-31812962D01*
X37142993Y-31795925D01*
X37257007Y-31730099D01*
X37350099Y-31637007D01*
X37415925Y-31522993D01*
X37432962Y-31459408D01*
X38065270Y-32091717D01*
X38065270Y-32091716D01*
X38104622Y-32037554D01*
X38201095Y-31848217D01*
X38258343Y-31672026D01*
X38297780Y-31614351D01*
X38362139Y-31587152D01*
X38430985Y-31599066D01*
X38482461Y-31646310D01*
X38490835Y-31662891D01*
X38545939Y-31795925D01*
X38559059Y-31827598D01*
X38583327Y-31863918D01*
X38674024Y-31999657D01*
X38820342Y-32145975D01*
X38820345Y-32145977D01*
X38992402Y-32260941D01*
X39183580Y-32340130D01*
X39348855Y-32373005D01*
X39386530Y-32380499D01*
X39386534Y-32380500D01*
X39386535Y-32380500D01*
X39593466Y-32380500D01*
X39593467Y-32380499D01*
X39796420Y-32340130D01*
X39987598Y-32260941D01*
X40159655Y-32145977D01*
X40305977Y-31999655D01*
X40420941Y-31827598D01*
X40500130Y-31636420D01*
X40540500Y-31433465D01*
X40540500Y-31226535D01*
X40500130Y-31023580D01*
X40420941Y-30832402D01*
X40305977Y-30660345D01*
X40305975Y-30660342D01*
X40159657Y-30514024D01*
X40073626Y-30456541D01*
X39987598Y-30399059D01*
X39968516Y-30391155D01*
X39796420Y-30319870D01*
X39796412Y-30319868D01*
X39593469Y-30279500D01*
X39593465Y-30279500D01*
X39386535Y-30279500D01*
X39386530Y-30279500D01*
X39183587Y-30319868D01*
X39183579Y-30319870D01*
X38992403Y-30399058D01*
X38820342Y-30514024D01*
X38674024Y-30660342D01*
X38559057Y-30832403D01*
X38490835Y-30997108D01*
X38446994Y-31051511D01*
X38380700Y-31073576D01*
X38313000Y-31056297D01*
X38265390Y-31005159D01*
X38258343Y-30987973D01*
X38201095Y-30811782D01*
X38104624Y-30622449D01*
X38065270Y-30568282D01*
X38065269Y-30568282D01*
X37432962Y-31200590D01*
X37415925Y-31137007D01*
X37350099Y-31022993D01*
X37257007Y-30929901D01*
X37142993Y-30864075D01*
X37079409Y-30847037D01*
X37711716Y-30214728D01*
X37657550Y-30175375D01*
X37468217Y-30078904D01*
X37266129Y-30013242D01*
X37056246Y-29980000D01*
X36843754Y-29980000D01*
X36633872Y-30013242D01*
X36633869Y-30013242D01*
X36431782Y-30078904D01*
X36242439Y-30175380D01*
X36188282Y-30214727D01*
X36188282Y-30214728D01*
X36820591Y-30847037D01*
X36757007Y-30864075D01*
X36642993Y-30929901D01*
X36549901Y-31022993D01*
X36484075Y-31137007D01*
X36467037Y-31200591D01*
X35834728Y-30568282D01*
X35834727Y-30568282D01*
X35795380Y-30622439D01*
X35698905Y-30811781D01*
X35641656Y-30987974D01*
X35602218Y-31045649D01*
X35537859Y-31072847D01*
X35469013Y-31060932D01*
X35417537Y-31013688D01*
X35409164Y-30997107D01*
X35408999Y-30996709D01*
X35354500Y-30865136D01*
X35340943Y-30832405D01*
X35225975Y-30660342D01*
X35079657Y-30514024D01*
X34993626Y-30456541D01*
X34907598Y-30399059D01*
X34747075Y-30332568D01*
X34716420Y-30319870D01*
X34716412Y-30319868D01*
X34513469Y-30279500D01*
X34513465Y-30279500D01*
X34306535Y-30279500D01*
X34306530Y-30279500D01*
X34103587Y-30319868D01*
X34103579Y-30319870D01*
X33912403Y-30399058D01*
X33740342Y-30514024D01*
X33594024Y-30660342D01*
X33479058Y-30832403D01*
X33399870Y-31023579D01*
X33399868Y-31023587D01*
X33359500Y-31226530D01*
X33359500Y-31433469D01*
X33399868Y-31636412D01*
X33399870Y-31636420D01*
X33468850Y-31802953D01*
X33479059Y-31827598D01*
X33503327Y-31863918D01*
X33594024Y-31999657D01*
X33740342Y-32145975D01*
X33740345Y-32145977D01*
X33912402Y-32260941D01*
X34103580Y-32340130D01*
X34268855Y-32373005D01*
X34306530Y-32380499D01*
X34306534Y-32380500D01*
X34306535Y-32380500D01*
X34513466Y-32380500D01*
X34513467Y-32380499D01*
X34716420Y-32340130D01*
X34907598Y-32260941D01*
X35079655Y-32145977D01*
X35225977Y-31999655D01*
X35340941Y-31827598D01*
X35409165Y-31662889D01*
X35453004Y-31608488D01*
X35519298Y-31586423D01*
X35586998Y-31603702D01*
X35634609Y-31654839D01*
X35641656Y-31672026D01*
X35698904Y-31848216D01*
X35795375Y-32037550D01*
X35834728Y-32091716D01*
X36467037Y-31459408D01*
X36484075Y-31522993D01*
X36549901Y-31637007D01*
X36642993Y-31730099D01*
X36757007Y-31795925D01*
X36820590Y-31812962D01*
X36188282Y-32445269D01*
X36188282Y-32445270D01*
X36242449Y-32484624D01*
X36431782Y-32581095D01*
X36607973Y-32638343D01*
X36665648Y-32677780D01*
X36692847Y-32742139D01*
X36680932Y-32810985D01*
X36633688Y-32862461D01*
X36617108Y-32870835D01*
X36452403Y-32939057D01*
X36280342Y-33054024D01*
X36134024Y-33200342D01*
X36019058Y-33372403D01*
X35939870Y-33563579D01*
X35939868Y-33563587D01*
X35899500Y-33766530D01*
X35899500Y-33973469D01*
X35939868Y-34176412D01*
X35939871Y-34176424D01*
X35979448Y-34271971D01*
X35986917Y-34341440D01*
X35955642Y-34403919D01*
X35952569Y-34407103D01*
X35923138Y-34436534D01*
X35923135Y-34436538D01*
X35880282Y-34510759D01*
X35879169Y-34514913D01*
X35872540Y-34539655D01*
X35872540Y-34539656D01*
X35872539Y-34539655D01*
X35858100Y-34593545D01*
X35858100Y-40136523D01*
X35851769Y-40158080D01*
X35850045Y-40180487D01*
X35841151Y-40194243D01*
X35838415Y-40203562D01*
X35832962Y-40211372D01*
X35827812Y-40218173D01*
X35783100Y-40262886D01*
X35748213Y-40323309D01*
X35743548Y-40329472D01*
X35740460Y-40331757D01*
X35732367Y-40342304D01*
X33609751Y-42464920D01*
X33548428Y-42498405D01*
X33478736Y-42493421D01*
X33474618Y-42491800D01*
X33420755Y-42469489D01*
X33420743Y-42469486D01*
X33234802Y-42432500D01*
X33234798Y-42432500D01*
X33045202Y-42432500D01*
X33045197Y-42432500D01*
X32859256Y-42469486D01*
X32859248Y-42469488D01*
X32684087Y-42542042D01*
X32526441Y-42647377D01*
X32526438Y-42647380D01*
X32407181Y-42766638D01*
X32345858Y-42800123D01*
X32276166Y-42795139D01*
X32220233Y-42753267D01*
X32195816Y-42687803D01*
X32195500Y-42678957D01*
X32195500Y-41571043D01*
X32215185Y-41504004D01*
X32267989Y-41458249D01*
X32337147Y-41448305D01*
X32400703Y-41477330D01*
X32407181Y-41483362D01*
X32526441Y-41602622D01*
X32631300Y-41672686D01*
X32684085Y-41707956D01*
X32859249Y-41780512D01*
X33045197Y-41817499D01*
X33045201Y-41817500D01*
X33045202Y-41817500D01*
X33234799Y-41817500D01*
X33234800Y-41817499D01*
X33420751Y-41780512D01*
X33595915Y-41707956D01*
X33753558Y-41602622D01*
X33887622Y-41468558D01*
X33992956Y-41310915D01*
X34065512Y-41135751D01*
X34102500Y-40949798D01*
X34102500Y-40760202D01*
X34065512Y-40574249D01*
X34043198Y-40520380D01*
X34035729Y-40450913D01*
X34067003Y-40388433D01*
X34070047Y-40385278D01*
X34670465Y-39784862D01*
X34713318Y-39710639D01*
X34735500Y-39627853D01*
X34735500Y-39542147D01*
X34735500Y-34955080D01*
X34755185Y-34888041D01*
X34807989Y-34842286D01*
X34812048Y-34840519D01*
X34830002Y-34833082D01*
X34907598Y-34800941D01*
X35079655Y-34685977D01*
X35225977Y-34539655D01*
X35227417Y-34537501D01*
X35294300Y-34437401D01*
X35340941Y-34367598D01*
X35420130Y-34176420D01*
X35460500Y-33973465D01*
X35460500Y-33766535D01*
X35420130Y-33563580D01*
X35340941Y-33372402D01*
X35225977Y-33200345D01*
X35225975Y-33200342D01*
X35079657Y-33054024D01*
X34923652Y-32949786D01*
X34907598Y-32939059D01*
X34907593Y-32939057D01*
X34716420Y-32859870D01*
X34716412Y-32859868D01*
X34513469Y-32819500D01*
X34513465Y-32819500D01*
X34306535Y-32819500D01*
X34306530Y-32819500D01*
X34103587Y-32859868D01*
X34103579Y-32859870D01*
X33912403Y-32939058D01*
X33740342Y-33054024D01*
X33594024Y-33200342D01*
X33479058Y-33372403D01*
X33399870Y-33563579D01*
X33399868Y-33563587D01*
X33359500Y-33766530D01*
X33359500Y-33973469D01*
X33399868Y-34176412D01*
X33399870Y-34176420D01*
X33465939Y-34335925D01*
X33479059Y-34367598D01*
X33492836Y-34388217D01*
X33594022Y-34539654D01*
X33594025Y-34539658D01*
X33740342Y-34685975D01*
X33740345Y-34685977D01*
X33912402Y-34800941D01*
X33931482Y-34808844D01*
X34007952Y-34840519D01*
X34062356Y-34884359D01*
X34084421Y-34950653D01*
X34084500Y-34955080D01*
X34084500Y-39398810D01*
X34064815Y-39465849D01*
X34048181Y-39486491D01*
X33609751Y-39924920D01*
X33548428Y-39958405D01*
X33478736Y-39953421D01*
X33474618Y-39951800D01*
X33420755Y-39929489D01*
X33420743Y-39929486D01*
X33234802Y-39892500D01*
X33234798Y-39892500D01*
X33045202Y-39892500D01*
X33045197Y-39892500D01*
X32859256Y-39929486D01*
X32859248Y-39929488D01*
X32684087Y-40002042D01*
X32526441Y-40107377D01*
X32526438Y-40107380D01*
X32407181Y-40226638D01*
X32345858Y-40260123D01*
X32276166Y-40255139D01*
X32220233Y-40213267D01*
X32195816Y-40147803D01*
X32195500Y-40138957D01*
X32195500Y-35044500D01*
X32215185Y-34977461D01*
X32267989Y-34931706D01*
X32319500Y-34920500D01*
X32739750Y-34920500D01*
X32739751Y-34920499D01*
X32759556Y-34916560D01*
X32798229Y-34908868D01*
X32798229Y-34908867D01*
X32798231Y-34908867D01*
X32864552Y-34864552D01*
X32908867Y-34798231D01*
X32908867Y-34798229D01*
X32908868Y-34798229D01*
X32920499Y-34739752D01*
X32920500Y-34739750D01*
X32920500Y-33000249D01*
X32920499Y-33000247D01*
X32908868Y-32941770D01*
X32908867Y-32941769D01*
X32864552Y-32875447D01*
X32798230Y-32831132D01*
X32798229Y-32831131D01*
X32739752Y-32819500D01*
X32739748Y-32819500D01*
X31000252Y-32819500D01*
X31000247Y-32819500D01*
X30941770Y-32831131D01*
X30941769Y-32831132D01*
X30875447Y-32875447D01*
X30831132Y-32941769D01*
X30831131Y-32941770D01*
X30819500Y-33000247D01*
X28539694Y-33000247D01*
X28554123Y-32955841D01*
X28554124Y-32955839D01*
X28556087Y-32949794D01*
X28556090Y-32949785D01*
X28595500Y-32700962D01*
X28595500Y-32449038D01*
X28556090Y-32200215D01*
X28478241Y-31960621D01*
X28478239Y-31960618D01*
X28478239Y-31960616D01*
X28428968Y-31863918D01*
X28363870Y-31736155D01*
X28310931Y-31663290D01*
X28215798Y-31532350D01*
X28215794Y-31532345D01*
X28037654Y-31354205D01*
X28037649Y-31354201D01*
X27991623Y-31320761D01*
X27861924Y-31226530D01*
X30819500Y-31226530D01*
X30819500Y-31433469D01*
X30859868Y-31636412D01*
X30859870Y-31636420D01*
X30928850Y-31802953D01*
X30939059Y-31827598D01*
X30963327Y-31863918D01*
X31054024Y-31999657D01*
X31200342Y-32145975D01*
X31200345Y-32145977D01*
X31372402Y-32260941D01*
X31563580Y-32340130D01*
X31728855Y-32373005D01*
X31766530Y-32380499D01*
X31766534Y-32380500D01*
X31766535Y-32380500D01*
X31973466Y-32380500D01*
X31973467Y-32380499D01*
X32176420Y-32340130D01*
X32367598Y-32260941D01*
X32539655Y-32145977D01*
X32685977Y-31999655D01*
X32800941Y-31827598D01*
X32880130Y-31636420D01*
X32920500Y-31433465D01*
X32920500Y-31226535D01*
X32880130Y-31023580D01*
X32800941Y-30832402D01*
X32685977Y-30660345D01*
X32685975Y-30660342D01*
X32539657Y-30514024D01*
X32453626Y-30456541D01*
X32367598Y-30399059D01*
X32348516Y-30391155D01*
X32176420Y-30319870D01*
X32176412Y-30319868D01*
X31973469Y-30279500D01*
X31973465Y-30279500D01*
X31766535Y-30279500D01*
X31766530Y-30279500D01*
X31563587Y-30319868D01*
X31563579Y-30319870D01*
X31372403Y-30399058D01*
X31200342Y-30514024D01*
X31054024Y-30660342D01*
X30939058Y-30832403D01*
X30859870Y-31023579D01*
X30859868Y-31023587D01*
X30819500Y-31226530D01*
X27861924Y-31226530D01*
X27833848Y-31206132D01*
X27833847Y-31206131D01*
X27833845Y-31206130D01*
X27726877Y-31151627D01*
X27609383Y-31091760D01*
X27369785Y-31013910D01*
X27263702Y-30997108D01*
X27120962Y-30974500D01*
X26869038Y-30974500D01*
X26783967Y-30987974D01*
X26620214Y-31013910D01*
X26380616Y-31091760D01*
X26156151Y-31206132D01*
X25952350Y-31354201D01*
X25952345Y-31354205D01*
X25774205Y-31532345D01*
X25774201Y-31532350D01*
X25626132Y-31736151D01*
X25511760Y-31960616D01*
X25433910Y-32200214D01*
X25405356Y-32380499D01*
X25394500Y-32449038D01*
X23545500Y-32449038D01*
X23545500Y-31578480D01*
X23545695Y-31571527D01*
X23547895Y-31532345D01*
X23563656Y-31251700D01*
X23565210Y-31237907D01*
X23618283Y-30925537D01*
X23621377Y-30911985D01*
X23622107Y-30909453D01*
X23709090Y-30607526D01*
X23713682Y-30594406D01*
X23746977Y-30514024D01*
X23834929Y-30301686D01*
X23840951Y-30289180D01*
X23994227Y-30011850D01*
X24001605Y-30000107D01*
X24184972Y-29741676D01*
X24193619Y-29730834D01*
X24404750Y-29494579D01*
X24414581Y-29484749D01*
X24451323Y-29451914D01*
X24650834Y-29273619D01*
X24661676Y-29264972D01*
X24920107Y-29081605D01*
X24931850Y-29074227D01*
X25209180Y-28920951D01*
X25221686Y-28914929D01*
X25514406Y-28793682D01*
X25527526Y-28789090D01*
X25831990Y-28701375D01*
X25845537Y-28698283D01*
X26157907Y-28645210D01*
X26171700Y-28643656D01*
X26491528Y-28625695D01*
X26498481Y-28625500D01*
X26511408Y-28625500D01*
X85478592Y-28625500D01*
X85491519Y-28625500D01*
X85498472Y-28625695D01*
G37*
G04 #@! TD.AperFunction*
M02*
