G04 #@! TF.GenerationSoftware,KiCad,Pcbnew,9.0.1*
G04 #@! TF.CreationDate,2025-12-07T21:34:12+01:00*
G04 #@! TF.ProjectId,RPi_Hat,5250695f-4861-4742-9e6b-696361645f70,1*
G04 #@! TF.SameCoordinates,Original*
G04 #@! TF.FileFunction,Legend,Top*
G04 #@! TF.FilePolarity,Positive*
%FSLAX46Y46*%
G04 Gerber Fmt 4.6, Leading zero omitted, Abs format (unit mm)*
G04 Created by KiCad (PCBNEW 9.0.1) date 2025-12-07 21:34:12*
%MOMM*%
%LPD*%
G01*
G04 APERTURE LIST*
%ADD10C,0.250000*%
%ADD11C,0.150000*%
%ADD12C,0.200000*%
%ADD13C,0.125000*%
%ADD14C,0.175000*%
%ADD15C,0.120000*%
G04 APERTURE END LIST*
D10*
X66325905Y-74420357D02*
X66802095Y-74420357D01*
X66230667Y-74848928D02*
X66564000Y-73348928D01*
X66564000Y-73348928D02*
X66897333Y-74848928D01*
X67230667Y-74848928D02*
X67230667Y-73348928D01*
X67230667Y-73348928D02*
X67468762Y-73348928D01*
X67468762Y-73348928D02*
X67611619Y-73420357D01*
X67611619Y-73420357D02*
X67706857Y-73563214D01*
X67706857Y-73563214D02*
X67754476Y-73706071D01*
X67754476Y-73706071D02*
X67802095Y-73991785D01*
X67802095Y-73991785D02*
X67802095Y-74206071D01*
X67802095Y-74206071D02*
X67754476Y-74491785D01*
X67754476Y-74491785D02*
X67706857Y-74634642D01*
X67706857Y-74634642D02*
X67611619Y-74777500D01*
X67611619Y-74777500D02*
X67468762Y-74848928D01*
X67468762Y-74848928D02*
X67230667Y-74848928D01*
X68230667Y-74848928D02*
X68230667Y-73348928D01*
X68230667Y-73348928D02*
X68468762Y-73348928D01*
X68468762Y-73348928D02*
X68611619Y-73420357D01*
X68611619Y-73420357D02*
X68706857Y-73563214D01*
X68706857Y-73563214D02*
X68754476Y-73706071D01*
X68754476Y-73706071D02*
X68802095Y-73991785D01*
X68802095Y-73991785D02*
X68802095Y-74206071D01*
X68802095Y-74206071D02*
X68754476Y-74491785D01*
X68754476Y-74491785D02*
X68706857Y-74634642D01*
X68706857Y-74634642D02*
X68611619Y-74777500D01*
X68611619Y-74777500D02*
X68468762Y-74848928D01*
X68468762Y-74848928D02*
X68230667Y-74848928D01*
D11*
X42728857Y-70050028D02*
X42700285Y-70078600D01*
X42700285Y-70078600D02*
X42614571Y-70107171D01*
X42614571Y-70107171D02*
X42557428Y-70107171D01*
X42557428Y-70107171D02*
X42471714Y-70078600D01*
X42471714Y-70078600D02*
X42414571Y-70021457D01*
X42414571Y-70021457D02*
X42386000Y-69964314D01*
X42386000Y-69964314D02*
X42357428Y-69850028D01*
X42357428Y-69850028D02*
X42357428Y-69764314D01*
X42357428Y-69764314D02*
X42386000Y-69650028D01*
X42386000Y-69650028D02*
X42414571Y-69592885D01*
X42414571Y-69592885D02*
X42471714Y-69535742D01*
X42471714Y-69535742D02*
X42557428Y-69507171D01*
X42557428Y-69507171D02*
X42614571Y-69507171D01*
X42614571Y-69507171D02*
X42700285Y-69535742D01*
X42700285Y-69535742D02*
X42728857Y-69564314D01*
X43271714Y-70107171D02*
X42986000Y-70107171D01*
X42986000Y-70107171D02*
X42986000Y-69507171D01*
X43471714Y-70107171D02*
X43471714Y-69507171D01*
X43814571Y-70107171D02*
X43557428Y-69764314D01*
X43814571Y-69507171D02*
X43471714Y-69850028D01*
X40160286Y-70107171D02*
X40160286Y-69507171D01*
X40160286Y-69507171D02*
X40303143Y-69507171D01*
X40303143Y-69507171D02*
X40388857Y-69535742D01*
X40388857Y-69535742D02*
X40446000Y-69592885D01*
X40446000Y-69592885D02*
X40474571Y-69650028D01*
X40474571Y-69650028D02*
X40503143Y-69764314D01*
X40503143Y-69764314D02*
X40503143Y-69850028D01*
X40503143Y-69850028D02*
X40474571Y-69964314D01*
X40474571Y-69964314D02*
X40446000Y-70021457D01*
X40446000Y-70021457D02*
X40388857Y-70078600D01*
X40388857Y-70078600D02*
X40303143Y-70107171D01*
X40303143Y-70107171D02*
X40160286Y-70107171D01*
X40674571Y-69507171D02*
X41017429Y-69507171D01*
X40846000Y-70107171D02*
X40846000Y-69507171D01*
X37440914Y-70078600D02*
X37526629Y-70107171D01*
X37526629Y-70107171D02*
X37669486Y-70107171D01*
X37669486Y-70107171D02*
X37726629Y-70078600D01*
X37726629Y-70078600D02*
X37755200Y-70050028D01*
X37755200Y-70050028D02*
X37783771Y-69992885D01*
X37783771Y-69992885D02*
X37783771Y-69935742D01*
X37783771Y-69935742D02*
X37755200Y-69878600D01*
X37755200Y-69878600D02*
X37726629Y-69850028D01*
X37726629Y-69850028D02*
X37669486Y-69821457D01*
X37669486Y-69821457D02*
X37555200Y-69792885D01*
X37555200Y-69792885D02*
X37498057Y-69764314D01*
X37498057Y-69764314D02*
X37469486Y-69735742D01*
X37469486Y-69735742D02*
X37440914Y-69678600D01*
X37440914Y-69678600D02*
X37440914Y-69621457D01*
X37440914Y-69621457D02*
X37469486Y-69564314D01*
X37469486Y-69564314D02*
X37498057Y-69535742D01*
X37498057Y-69535742D02*
X37555200Y-69507171D01*
X37555200Y-69507171D02*
X37698057Y-69507171D01*
X37698057Y-69507171D02*
X37783771Y-69535742D01*
X37983772Y-69507171D02*
X38126629Y-70107171D01*
X38126629Y-70107171D02*
X38240915Y-69678600D01*
X38240915Y-69678600D02*
X38355200Y-70107171D01*
X38355200Y-70107171D02*
X38498058Y-69507171D01*
X34615199Y-69481771D02*
X34815199Y-70081771D01*
X34815199Y-70081771D02*
X35015199Y-69481771D01*
X35558057Y-70024628D02*
X35529485Y-70053200D01*
X35529485Y-70053200D02*
X35443771Y-70081771D01*
X35443771Y-70081771D02*
X35386628Y-70081771D01*
X35386628Y-70081771D02*
X35300914Y-70053200D01*
X35300914Y-70053200D02*
X35243771Y-69996057D01*
X35243771Y-69996057D02*
X35215200Y-69938914D01*
X35215200Y-69938914D02*
X35186628Y-69824628D01*
X35186628Y-69824628D02*
X35186628Y-69738914D01*
X35186628Y-69738914D02*
X35215200Y-69624628D01*
X35215200Y-69624628D02*
X35243771Y-69567485D01*
X35243771Y-69567485D02*
X35300914Y-69510342D01*
X35300914Y-69510342D02*
X35386628Y-69481771D01*
X35386628Y-69481771D02*
X35443771Y-69481771D01*
X35443771Y-69481771D02*
X35529485Y-69510342D01*
X35529485Y-69510342D02*
X35558057Y-69538914D01*
X36158057Y-70024628D02*
X36129485Y-70053200D01*
X36129485Y-70053200D02*
X36043771Y-70081771D01*
X36043771Y-70081771D02*
X35986628Y-70081771D01*
X35986628Y-70081771D02*
X35900914Y-70053200D01*
X35900914Y-70053200D02*
X35843771Y-69996057D01*
X35843771Y-69996057D02*
X35815200Y-69938914D01*
X35815200Y-69938914D02*
X35786628Y-69824628D01*
X35786628Y-69824628D02*
X35786628Y-69738914D01*
X35786628Y-69738914D02*
X35815200Y-69624628D01*
X35815200Y-69624628D02*
X35843771Y-69567485D01*
X35843771Y-69567485D02*
X35900914Y-69510342D01*
X35900914Y-69510342D02*
X35986628Y-69481771D01*
X35986628Y-69481771D02*
X36043771Y-69481771D01*
X36043771Y-69481771D02*
X36129485Y-69510342D01*
X36129485Y-69510342D02*
X36158057Y-69538914D01*
X32418057Y-69510342D02*
X32360915Y-69481771D01*
X32360915Y-69481771D02*
X32275200Y-69481771D01*
X32275200Y-69481771D02*
X32189486Y-69510342D01*
X32189486Y-69510342D02*
X32132343Y-69567485D01*
X32132343Y-69567485D02*
X32103772Y-69624628D01*
X32103772Y-69624628D02*
X32075200Y-69738914D01*
X32075200Y-69738914D02*
X32075200Y-69824628D01*
X32075200Y-69824628D02*
X32103772Y-69938914D01*
X32103772Y-69938914D02*
X32132343Y-69996057D01*
X32132343Y-69996057D02*
X32189486Y-70053200D01*
X32189486Y-70053200D02*
X32275200Y-70081771D01*
X32275200Y-70081771D02*
X32332343Y-70081771D01*
X32332343Y-70081771D02*
X32418057Y-70053200D01*
X32418057Y-70053200D02*
X32446629Y-70024628D01*
X32446629Y-70024628D02*
X32446629Y-69824628D01*
X32446629Y-69824628D02*
X32332343Y-69824628D01*
X32703772Y-70081771D02*
X32703772Y-69481771D01*
X32703772Y-69481771D02*
X33046629Y-70081771D01*
X33046629Y-70081771D02*
X33046629Y-69481771D01*
X33332343Y-70081771D02*
X33332343Y-69481771D01*
X33332343Y-69481771D02*
X33475200Y-69481771D01*
X33475200Y-69481771D02*
X33560914Y-69510342D01*
X33560914Y-69510342D02*
X33618057Y-69567485D01*
X33618057Y-69567485D02*
X33646628Y-69624628D01*
X33646628Y-69624628D02*
X33675200Y-69738914D01*
X33675200Y-69738914D02*
X33675200Y-69824628D01*
X33675200Y-69824628D02*
X33646628Y-69938914D01*
X33646628Y-69938914D02*
X33618057Y-69996057D01*
X33618057Y-69996057D02*
X33560914Y-70053200D01*
X33560914Y-70053200D02*
X33475200Y-70081771D01*
X33475200Y-70081771D02*
X33332343Y-70081771D01*
X72125857Y-52970857D02*
X72154428Y-52913715D01*
X72154428Y-52913715D02*
X72154428Y-52828000D01*
X72154428Y-52828000D02*
X72125857Y-52742286D01*
X72125857Y-52742286D02*
X72068714Y-52685143D01*
X72068714Y-52685143D02*
X72011571Y-52656572D01*
X72011571Y-52656572D02*
X71897285Y-52628000D01*
X71897285Y-52628000D02*
X71811571Y-52628000D01*
X71811571Y-52628000D02*
X71697285Y-52656572D01*
X71697285Y-52656572D02*
X71640142Y-52685143D01*
X71640142Y-52685143D02*
X71583000Y-52742286D01*
X71583000Y-52742286D02*
X71554428Y-52828000D01*
X71554428Y-52828000D02*
X71554428Y-52885143D01*
X71554428Y-52885143D02*
X71583000Y-52970857D01*
X71583000Y-52970857D02*
X71611571Y-52999429D01*
X71611571Y-52999429D02*
X71811571Y-52999429D01*
X71811571Y-52999429D02*
X71811571Y-52885143D01*
X71554428Y-53256572D02*
X72154428Y-53256572D01*
X72154428Y-53256572D02*
X71554428Y-53599429D01*
X71554428Y-53599429D02*
X72154428Y-53599429D01*
X71554428Y-53885143D02*
X72154428Y-53885143D01*
X72154428Y-53885143D02*
X72154428Y-54028000D01*
X72154428Y-54028000D02*
X72125857Y-54113714D01*
X72125857Y-54113714D02*
X72068714Y-54170857D01*
X72068714Y-54170857D02*
X72011571Y-54199428D01*
X72011571Y-54199428D02*
X71897285Y-54228000D01*
X71897285Y-54228000D02*
X71811571Y-54228000D01*
X71811571Y-54228000D02*
X71697285Y-54199428D01*
X71697285Y-54199428D02*
X71640142Y-54170857D01*
X71640142Y-54170857D02*
X71583000Y-54113714D01*
X71583000Y-54113714D02*
X71554428Y-54028000D01*
X71554428Y-54028000D02*
X71554428Y-53885143D01*
X71583000Y-50116571D02*
X71554428Y-50202286D01*
X71554428Y-50202286D02*
X71554428Y-50345143D01*
X71554428Y-50345143D02*
X71583000Y-50402286D01*
X71583000Y-50402286D02*
X71611571Y-50430857D01*
X71611571Y-50430857D02*
X71668714Y-50459428D01*
X71668714Y-50459428D02*
X71725857Y-50459428D01*
X71725857Y-50459428D02*
X71783000Y-50430857D01*
X71783000Y-50430857D02*
X71811571Y-50402286D01*
X71811571Y-50402286D02*
X71840142Y-50345143D01*
X71840142Y-50345143D02*
X71868714Y-50230857D01*
X71868714Y-50230857D02*
X71897285Y-50173714D01*
X71897285Y-50173714D02*
X71925857Y-50145143D01*
X71925857Y-50145143D02*
X71983000Y-50116571D01*
X71983000Y-50116571D02*
X72040142Y-50116571D01*
X72040142Y-50116571D02*
X72097285Y-50145143D01*
X72097285Y-50145143D02*
X72125857Y-50173714D01*
X72125857Y-50173714D02*
X72154428Y-50230857D01*
X72154428Y-50230857D02*
X72154428Y-50373714D01*
X72154428Y-50373714D02*
X72125857Y-50459428D01*
X71554428Y-50716572D02*
X72154428Y-50716572D01*
X72154428Y-50716572D02*
X71554428Y-51059429D01*
X71554428Y-51059429D02*
X72154428Y-51059429D01*
X71583000Y-51316571D02*
X71554428Y-51402286D01*
X71554428Y-51402286D02*
X71554428Y-51545143D01*
X71554428Y-51545143D02*
X71583000Y-51602286D01*
X71583000Y-51602286D02*
X71611571Y-51630857D01*
X71611571Y-51630857D02*
X71668714Y-51659428D01*
X71668714Y-51659428D02*
X71725857Y-51659428D01*
X71725857Y-51659428D02*
X71783000Y-51630857D01*
X71783000Y-51630857D02*
X71811571Y-51602286D01*
X71811571Y-51602286D02*
X71840142Y-51545143D01*
X71840142Y-51545143D02*
X71868714Y-51430857D01*
X71868714Y-51430857D02*
X71897285Y-51373714D01*
X71897285Y-51373714D02*
X71925857Y-51345143D01*
X71925857Y-51345143D02*
X71983000Y-51316571D01*
X71983000Y-51316571D02*
X72040142Y-51316571D01*
X72040142Y-51316571D02*
X72097285Y-51345143D01*
X72097285Y-51345143D02*
X72125857Y-51373714D01*
X72125857Y-51373714D02*
X72154428Y-51430857D01*
X72154428Y-51430857D02*
X72154428Y-51573714D01*
X72154428Y-51573714D02*
X72125857Y-51659428D01*
X72154428Y-47790857D02*
X71554428Y-47933714D01*
X71554428Y-47933714D02*
X71983000Y-48048000D01*
X71983000Y-48048000D02*
X71554428Y-48162285D01*
X71554428Y-48162285D02*
X72154428Y-48305143D01*
X71554428Y-48876571D02*
X71840142Y-48676571D01*
X71554428Y-48533714D02*
X72154428Y-48533714D01*
X72154428Y-48533714D02*
X72154428Y-48762285D01*
X72154428Y-48762285D02*
X72125857Y-48819428D01*
X72125857Y-48819428D02*
X72097285Y-48847999D01*
X72097285Y-48847999D02*
X72040142Y-48876571D01*
X72040142Y-48876571D02*
X71954428Y-48876571D01*
X71954428Y-48876571D02*
X71897285Y-48847999D01*
X71897285Y-48847999D02*
X71868714Y-48819428D01*
X71868714Y-48819428D02*
X71840142Y-48762285D01*
X71840142Y-48762285D02*
X71840142Y-48533714D01*
X71554428Y-45693714D02*
X71840142Y-45493714D01*
X71554428Y-45350857D02*
X72154428Y-45350857D01*
X72154428Y-45350857D02*
X72154428Y-45579428D01*
X72154428Y-45579428D02*
X72125857Y-45636571D01*
X72125857Y-45636571D02*
X72097285Y-45665142D01*
X72097285Y-45665142D02*
X72040142Y-45693714D01*
X72040142Y-45693714D02*
X71954428Y-45693714D01*
X71954428Y-45693714D02*
X71897285Y-45665142D01*
X71897285Y-45665142D02*
X71868714Y-45636571D01*
X71868714Y-45636571D02*
X71840142Y-45579428D01*
X71840142Y-45579428D02*
X71840142Y-45350857D01*
X71554428Y-45950857D02*
X72154428Y-45950857D01*
X72154428Y-45950857D02*
X72154428Y-46093714D01*
X72154428Y-46093714D02*
X72125857Y-46179428D01*
X72125857Y-46179428D02*
X72068714Y-46236571D01*
X72068714Y-46236571D02*
X72011571Y-46265142D01*
X72011571Y-46265142D02*
X71897285Y-46293714D01*
X71897285Y-46293714D02*
X71811571Y-46293714D01*
X71811571Y-46293714D02*
X71697285Y-46265142D01*
X71697285Y-46265142D02*
X71640142Y-46236571D01*
X71640142Y-46236571D02*
X71583000Y-46179428D01*
X71583000Y-46179428D02*
X71554428Y-46093714D01*
X71554428Y-46093714D02*
X71554428Y-45950857D01*
X71554428Y-42525143D02*
X72154428Y-42525143D01*
X72154428Y-42525143D02*
X71725857Y-42725143D01*
X71725857Y-42725143D02*
X72154428Y-42925143D01*
X72154428Y-42925143D02*
X71554428Y-42925143D01*
X72154428Y-43325142D02*
X72154428Y-43439428D01*
X72154428Y-43439428D02*
X72125857Y-43496571D01*
X72125857Y-43496571D02*
X72068714Y-43553714D01*
X72068714Y-43553714D02*
X71954428Y-43582285D01*
X71954428Y-43582285D02*
X71754428Y-43582285D01*
X71754428Y-43582285D02*
X71640142Y-43553714D01*
X71640142Y-43553714D02*
X71583000Y-43496571D01*
X71583000Y-43496571D02*
X71554428Y-43439428D01*
X71554428Y-43439428D02*
X71554428Y-43325142D01*
X71554428Y-43325142D02*
X71583000Y-43268000D01*
X71583000Y-43268000D02*
X71640142Y-43210857D01*
X71640142Y-43210857D02*
X71754428Y-43182285D01*
X71754428Y-43182285D02*
X71954428Y-43182285D01*
X71954428Y-43182285D02*
X72068714Y-43210857D01*
X72068714Y-43210857D02*
X72125857Y-43268000D01*
X72125857Y-43268000D02*
X72154428Y-43325142D01*
X72154428Y-43753713D02*
X72154428Y-44096571D01*
X71554428Y-43925142D02*
X72154428Y-43925142D01*
X71783000Y-39956571D02*
X71783000Y-40413714D01*
X71554428Y-40185142D02*
X72011571Y-40185142D01*
X72154428Y-40985142D02*
X72154428Y-40699428D01*
X72154428Y-40699428D02*
X71868714Y-40670856D01*
X71868714Y-40670856D02*
X71897285Y-40699428D01*
X71897285Y-40699428D02*
X71925857Y-40756571D01*
X71925857Y-40756571D02*
X71925857Y-40899428D01*
X71925857Y-40899428D02*
X71897285Y-40956571D01*
X71897285Y-40956571D02*
X71868714Y-40985142D01*
X71868714Y-40985142D02*
X71811571Y-41013713D01*
X71811571Y-41013713D02*
X71668714Y-41013713D01*
X71668714Y-41013713D02*
X71611571Y-40985142D01*
X71611571Y-40985142D02*
X71583000Y-40956571D01*
X71583000Y-40956571D02*
X71554428Y-40899428D01*
X71554428Y-40899428D02*
X71554428Y-40756571D01*
X71554428Y-40756571D02*
X71583000Y-40699428D01*
X71583000Y-40699428D02*
X71611571Y-40670856D01*
X72154428Y-41185142D02*
X71554428Y-41385142D01*
X71554428Y-41385142D02*
X72154428Y-41585142D01*
X72125857Y-37629257D02*
X72154428Y-37572115D01*
X72154428Y-37572115D02*
X72154428Y-37486400D01*
X72154428Y-37486400D02*
X72125857Y-37400686D01*
X72125857Y-37400686D02*
X72068714Y-37343543D01*
X72068714Y-37343543D02*
X72011571Y-37314972D01*
X72011571Y-37314972D02*
X71897285Y-37286400D01*
X71897285Y-37286400D02*
X71811571Y-37286400D01*
X71811571Y-37286400D02*
X71697285Y-37314972D01*
X71697285Y-37314972D02*
X71640142Y-37343543D01*
X71640142Y-37343543D02*
X71583000Y-37400686D01*
X71583000Y-37400686D02*
X71554428Y-37486400D01*
X71554428Y-37486400D02*
X71554428Y-37543543D01*
X71554428Y-37543543D02*
X71583000Y-37629257D01*
X71583000Y-37629257D02*
X71611571Y-37657829D01*
X71611571Y-37657829D02*
X71811571Y-37657829D01*
X71811571Y-37657829D02*
X71811571Y-37543543D01*
X71554428Y-37914972D02*
X72154428Y-37914972D01*
X72154428Y-37914972D02*
X71554428Y-38257829D01*
X71554428Y-38257829D02*
X72154428Y-38257829D01*
X71554428Y-38543543D02*
X72154428Y-38543543D01*
X72154428Y-38543543D02*
X72154428Y-38686400D01*
X72154428Y-38686400D02*
X72125857Y-38772114D01*
X72125857Y-38772114D02*
X72068714Y-38829257D01*
X72068714Y-38829257D02*
X72011571Y-38857828D01*
X72011571Y-38857828D02*
X71897285Y-38886400D01*
X71897285Y-38886400D02*
X71811571Y-38886400D01*
X71811571Y-38886400D02*
X71697285Y-38857828D01*
X71697285Y-38857828D02*
X71640142Y-38829257D01*
X71640142Y-38829257D02*
X71583000Y-38772114D01*
X71583000Y-38772114D02*
X71554428Y-38686400D01*
X71554428Y-38686400D02*
X71554428Y-38543543D01*
X76101028Y-59322428D02*
X76386742Y-59122428D01*
X76101028Y-58979571D02*
X76701028Y-58979571D01*
X76701028Y-58979571D02*
X76701028Y-59208142D01*
X76701028Y-59208142D02*
X76672457Y-59265285D01*
X76672457Y-59265285D02*
X76643885Y-59293856D01*
X76643885Y-59293856D02*
X76586742Y-59322428D01*
X76586742Y-59322428D02*
X76501028Y-59322428D01*
X76501028Y-59322428D02*
X76443885Y-59293856D01*
X76443885Y-59293856D02*
X76415314Y-59265285D01*
X76415314Y-59265285D02*
X76386742Y-59208142D01*
X76386742Y-59208142D02*
X76386742Y-58979571D01*
X76129600Y-59550999D02*
X76101028Y-59636714D01*
X76101028Y-59636714D02*
X76101028Y-59779571D01*
X76101028Y-59779571D02*
X76129600Y-59836714D01*
X76129600Y-59836714D02*
X76158171Y-59865285D01*
X76158171Y-59865285D02*
X76215314Y-59893856D01*
X76215314Y-59893856D02*
X76272457Y-59893856D01*
X76272457Y-59893856D02*
X76329600Y-59865285D01*
X76329600Y-59865285D02*
X76358171Y-59836714D01*
X76358171Y-59836714D02*
X76386742Y-59779571D01*
X76386742Y-59779571D02*
X76415314Y-59665285D01*
X76415314Y-59665285D02*
X76443885Y-59608142D01*
X76443885Y-59608142D02*
X76472457Y-59579571D01*
X76472457Y-59579571D02*
X76529600Y-59550999D01*
X76529600Y-59550999D02*
X76586742Y-59550999D01*
X76586742Y-59550999D02*
X76643885Y-59579571D01*
X76643885Y-59579571D02*
X76672457Y-59608142D01*
X76672457Y-59608142D02*
X76701028Y-59665285D01*
X76701028Y-59665285D02*
X76701028Y-59808142D01*
X76701028Y-59808142D02*
X76672457Y-59893856D01*
X76701028Y-60065285D02*
X76701028Y-60408143D01*
X76101028Y-60236714D02*
X76701028Y-60236714D01*
X76867600Y-58896714D02*
X76867600Y-60405286D01*
X87708828Y-61898913D02*
X87708828Y-61556056D01*
X87708828Y-61727485D02*
X88308828Y-61727485D01*
X88308828Y-61727485D02*
X88223114Y-61670342D01*
X88223114Y-61670342D02*
X88165971Y-61613199D01*
X88165971Y-61613199D02*
X88137400Y-61556056D01*
X88308828Y-62413200D02*
X88308828Y-62298914D01*
X88308828Y-62298914D02*
X88280257Y-62241771D01*
X88280257Y-62241771D02*
X88251685Y-62213200D01*
X88251685Y-62213200D02*
X88165971Y-62156057D01*
X88165971Y-62156057D02*
X88051685Y-62127485D01*
X88051685Y-62127485D02*
X87823114Y-62127485D01*
X87823114Y-62127485D02*
X87765971Y-62156057D01*
X87765971Y-62156057D02*
X87737400Y-62184628D01*
X87737400Y-62184628D02*
X87708828Y-62241771D01*
X87708828Y-62241771D02*
X87708828Y-62356057D01*
X87708828Y-62356057D02*
X87737400Y-62413200D01*
X87737400Y-62413200D02*
X87765971Y-62441771D01*
X87765971Y-62441771D02*
X87823114Y-62470342D01*
X87823114Y-62470342D02*
X87965971Y-62470342D01*
X87965971Y-62470342D02*
X88023114Y-62441771D01*
X88023114Y-62441771D02*
X88051685Y-62413200D01*
X88051685Y-62413200D02*
X88080257Y-62356057D01*
X88080257Y-62356057D02*
X88080257Y-62241771D01*
X88080257Y-62241771D02*
X88051685Y-62184628D01*
X88051685Y-62184628D02*
X88023114Y-62156057D01*
X88023114Y-62156057D02*
X87965971Y-62127485D01*
X88153257Y-59193857D02*
X88181828Y-59136715D01*
X88181828Y-59136715D02*
X88181828Y-59051000D01*
X88181828Y-59051000D02*
X88153257Y-58965286D01*
X88153257Y-58965286D02*
X88096114Y-58908143D01*
X88096114Y-58908143D02*
X88038971Y-58879572D01*
X88038971Y-58879572D02*
X87924685Y-58851000D01*
X87924685Y-58851000D02*
X87838971Y-58851000D01*
X87838971Y-58851000D02*
X87724685Y-58879572D01*
X87724685Y-58879572D02*
X87667542Y-58908143D01*
X87667542Y-58908143D02*
X87610400Y-58965286D01*
X87610400Y-58965286D02*
X87581828Y-59051000D01*
X87581828Y-59051000D02*
X87581828Y-59108143D01*
X87581828Y-59108143D02*
X87610400Y-59193857D01*
X87610400Y-59193857D02*
X87638971Y-59222429D01*
X87638971Y-59222429D02*
X87838971Y-59222429D01*
X87838971Y-59222429D02*
X87838971Y-59108143D01*
X87581828Y-59479572D02*
X88181828Y-59479572D01*
X88181828Y-59479572D02*
X87581828Y-59822429D01*
X87581828Y-59822429D02*
X88181828Y-59822429D01*
X87581828Y-60108143D02*
X88181828Y-60108143D01*
X88181828Y-60108143D02*
X88181828Y-60251000D01*
X88181828Y-60251000D02*
X88153257Y-60336714D01*
X88153257Y-60336714D02*
X88096114Y-60393857D01*
X88096114Y-60393857D02*
X88038971Y-60422428D01*
X88038971Y-60422428D02*
X87924685Y-60451000D01*
X87924685Y-60451000D02*
X87838971Y-60451000D01*
X87838971Y-60451000D02*
X87724685Y-60422428D01*
X87724685Y-60422428D02*
X87667542Y-60393857D01*
X87667542Y-60393857D02*
X87610400Y-60336714D01*
X87610400Y-60336714D02*
X87581828Y-60251000D01*
X87581828Y-60251000D02*
X87581828Y-60108143D01*
X87581828Y-46508143D02*
X88181828Y-46508143D01*
X88181828Y-46508143D02*
X88181828Y-46651000D01*
X88181828Y-46651000D02*
X88153257Y-46736714D01*
X88153257Y-46736714D02*
X88096114Y-46793857D01*
X88096114Y-46793857D02*
X88038971Y-46822428D01*
X88038971Y-46822428D02*
X87924685Y-46851000D01*
X87924685Y-46851000D02*
X87838971Y-46851000D01*
X87838971Y-46851000D02*
X87724685Y-46822428D01*
X87724685Y-46822428D02*
X87667542Y-46793857D01*
X87667542Y-46793857D02*
X87610400Y-46736714D01*
X87610400Y-46736714D02*
X87581828Y-46651000D01*
X87581828Y-46651000D02*
X87581828Y-46508143D01*
X87981828Y-47365286D02*
X87581828Y-47365286D01*
X88210400Y-47222428D02*
X87781828Y-47079571D01*
X87781828Y-47079571D02*
X87781828Y-47451000D01*
X76101028Y-51588143D02*
X76701028Y-51588143D01*
X76701028Y-51588143D02*
X76701028Y-51731000D01*
X76701028Y-51731000D02*
X76672457Y-51816714D01*
X76672457Y-51816714D02*
X76615314Y-51873857D01*
X76615314Y-51873857D02*
X76558171Y-51902428D01*
X76558171Y-51902428D02*
X76443885Y-51931000D01*
X76443885Y-51931000D02*
X76358171Y-51931000D01*
X76358171Y-51931000D02*
X76243885Y-51902428D01*
X76243885Y-51902428D02*
X76186742Y-51873857D01*
X76186742Y-51873857D02*
X76129600Y-51816714D01*
X76129600Y-51816714D02*
X76101028Y-51731000D01*
X76101028Y-51731000D02*
X76101028Y-51588143D01*
X76701028Y-52131000D02*
X76701028Y-52531000D01*
X76701028Y-52531000D02*
X76101028Y-52273857D01*
X76101028Y-49048143D02*
X76701028Y-49048143D01*
X76701028Y-49048143D02*
X76701028Y-49191000D01*
X76701028Y-49191000D02*
X76672457Y-49276714D01*
X76672457Y-49276714D02*
X76615314Y-49333857D01*
X76615314Y-49333857D02*
X76558171Y-49362428D01*
X76558171Y-49362428D02*
X76443885Y-49391000D01*
X76443885Y-49391000D02*
X76358171Y-49391000D01*
X76358171Y-49391000D02*
X76243885Y-49362428D01*
X76243885Y-49362428D02*
X76186742Y-49333857D01*
X76186742Y-49333857D02*
X76129600Y-49276714D01*
X76129600Y-49276714D02*
X76101028Y-49191000D01*
X76101028Y-49191000D02*
X76101028Y-49048143D01*
X76701028Y-49933857D02*
X76701028Y-49648143D01*
X76701028Y-49648143D02*
X76415314Y-49619571D01*
X76415314Y-49619571D02*
X76443885Y-49648143D01*
X76443885Y-49648143D02*
X76472457Y-49705286D01*
X76472457Y-49705286D02*
X76472457Y-49848143D01*
X76472457Y-49848143D02*
X76443885Y-49905286D01*
X76443885Y-49905286D02*
X76415314Y-49933857D01*
X76415314Y-49933857D02*
X76358171Y-49962428D01*
X76358171Y-49962428D02*
X76215314Y-49962428D01*
X76215314Y-49962428D02*
X76158171Y-49933857D01*
X76158171Y-49933857D02*
X76129600Y-49905286D01*
X76129600Y-49905286D02*
X76101028Y-49848143D01*
X76101028Y-49848143D02*
X76101028Y-49705286D01*
X76101028Y-49705286D02*
X76129600Y-49648143D01*
X76129600Y-49648143D02*
X76158171Y-49619571D01*
X87581828Y-43968143D02*
X88181828Y-43968143D01*
X88181828Y-43968143D02*
X88181828Y-44111000D01*
X88181828Y-44111000D02*
X88153257Y-44196714D01*
X88153257Y-44196714D02*
X88096114Y-44253857D01*
X88096114Y-44253857D02*
X88038971Y-44282428D01*
X88038971Y-44282428D02*
X87924685Y-44311000D01*
X87924685Y-44311000D02*
X87838971Y-44311000D01*
X87838971Y-44311000D02*
X87724685Y-44282428D01*
X87724685Y-44282428D02*
X87667542Y-44253857D01*
X87667542Y-44253857D02*
X87610400Y-44196714D01*
X87610400Y-44196714D02*
X87581828Y-44111000D01*
X87581828Y-44111000D02*
X87581828Y-43968143D01*
X88124685Y-44539571D02*
X88153257Y-44568143D01*
X88153257Y-44568143D02*
X88181828Y-44625286D01*
X88181828Y-44625286D02*
X88181828Y-44768143D01*
X88181828Y-44768143D02*
X88153257Y-44825286D01*
X88153257Y-44825286D02*
X88124685Y-44853857D01*
X88124685Y-44853857D02*
X88067542Y-44882428D01*
X88067542Y-44882428D02*
X88010400Y-44882428D01*
X88010400Y-44882428D02*
X87924685Y-44853857D01*
X87924685Y-44853857D02*
X87581828Y-44511000D01*
X87581828Y-44511000D02*
X87581828Y-44882428D01*
X76101028Y-53899571D02*
X76701028Y-53899571D01*
X76701028Y-53899571D02*
X76701028Y-54042428D01*
X76701028Y-54042428D02*
X76672457Y-54128142D01*
X76672457Y-54128142D02*
X76615314Y-54185285D01*
X76615314Y-54185285D02*
X76558171Y-54213856D01*
X76558171Y-54213856D02*
X76443885Y-54242428D01*
X76443885Y-54242428D02*
X76358171Y-54242428D01*
X76358171Y-54242428D02*
X76243885Y-54213856D01*
X76243885Y-54213856D02*
X76186742Y-54185285D01*
X76186742Y-54185285D02*
X76129600Y-54128142D01*
X76129600Y-54128142D02*
X76101028Y-54042428D01*
X76101028Y-54042428D02*
X76101028Y-53899571D01*
X76272457Y-54470999D02*
X76272457Y-54756714D01*
X76101028Y-54413856D02*
X76701028Y-54613856D01*
X76701028Y-54613856D02*
X76101028Y-54813856D01*
X76701028Y-54928142D02*
X76101028Y-55128142D01*
X76101028Y-55128142D02*
X76701028Y-55328142D01*
X87581828Y-41185286D02*
X88181828Y-41185286D01*
X88181828Y-41185286D02*
X88181828Y-41328143D01*
X88181828Y-41328143D02*
X88153257Y-41413857D01*
X88153257Y-41413857D02*
X88096114Y-41471000D01*
X88096114Y-41471000D02*
X88038971Y-41499571D01*
X88038971Y-41499571D02*
X87924685Y-41528143D01*
X87924685Y-41528143D02*
X87838971Y-41528143D01*
X87838971Y-41528143D02*
X87724685Y-41499571D01*
X87724685Y-41499571D02*
X87667542Y-41471000D01*
X87667542Y-41471000D02*
X87610400Y-41413857D01*
X87610400Y-41413857D02*
X87581828Y-41328143D01*
X87581828Y-41328143D02*
X87581828Y-41185286D01*
X87896114Y-41785286D02*
X87896114Y-41985286D01*
X87581828Y-42071000D02*
X87581828Y-41785286D01*
X87581828Y-41785286D02*
X88181828Y-41785286D01*
X88181828Y-41785286D02*
X88181828Y-42071000D01*
X88181828Y-42242428D02*
X87581828Y-42442428D01*
X87581828Y-42442428D02*
X88181828Y-42642428D01*
X87610400Y-56425285D02*
X87581828Y-56511000D01*
X87581828Y-56511000D02*
X87581828Y-56653857D01*
X87581828Y-56653857D02*
X87610400Y-56711000D01*
X87610400Y-56711000D02*
X87638971Y-56739571D01*
X87638971Y-56739571D02*
X87696114Y-56768142D01*
X87696114Y-56768142D02*
X87753257Y-56768142D01*
X87753257Y-56768142D02*
X87810400Y-56739571D01*
X87810400Y-56739571D02*
X87838971Y-56711000D01*
X87838971Y-56711000D02*
X87867542Y-56653857D01*
X87867542Y-56653857D02*
X87896114Y-56539571D01*
X87896114Y-56539571D02*
X87924685Y-56482428D01*
X87924685Y-56482428D02*
X87953257Y-56453857D01*
X87953257Y-56453857D02*
X88010400Y-56425285D01*
X88010400Y-56425285D02*
X88067542Y-56425285D01*
X88067542Y-56425285D02*
X88124685Y-56453857D01*
X88124685Y-56453857D02*
X88153257Y-56482428D01*
X88153257Y-56482428D02*
X88181828Y-56539571D01*
X88181828Y-56539571D02*
X88181828Y-56682428D01*
X88181828Y-56682428D02*
X88153257Y-56768142D01*
X88181828Y-56939571D02*
X88181828Y-57282429D01*
X87581828Y-57111000D02*
X88181828Y-57111000D01*
X87581828Y-57796714D02*
X87581828Y-57453857D01*
X87581828Y-57625286D02*
X88181828Y-57625286D01*
X88181828Y-57625286D02*
X88096114Y-57568143D01*
X88096114Y-57568143D02*
X88038971Y-57511000D01*
X88038971Y-57511000D02*
X88010400Y-57453857D01*
X88226285Y-40048571D02*
X88254857Y-40077143D01*
X88254857Y-40077143D02*
X88283428Y-40134286D01*
X88283428Y-40134286D02*
X88283428Y-40277143D01*
X88283428Y-40277143D02*
X88254857Y-40334286D01*
X88254857Y-40334286D02*
X88226285Y-40362857D01*
X88226285Y-40362857D02*
X88169142Y-40391428D01*
X88169142Y-40391428D02*
X88112000Y-40391428D01*
X88112000Y-40391428D02*
X88026285Y-40362857D01*
X88026285Y-40362857D02*
X87683428Y-40020000D01*
X87683428Y-40020000D02*
X87683428Y-40391428D01*
X76101028Y-62000513D02*
X76101028Y-61657656D01*
X76101028Y-61829085D02*
X76701028Y-61829085D01*
X76701028Y-61829085D02*
X76615314Y-61771942D01*
X76615314Y-61771942D02*
X76558171Y-61714799D01*
X76558171Y-61714799D02*
X76529600Y-61657656D01*
X76701028Y-62543371D02*
X76701028Y-62257657D01*
X76701028Y-62257657D02*
X76415314Y-62229085D01*
X76415314Y-62229085D02*
X76443885Y-62257657D01*
X76443885Y-62257657D02*
X76472457Y-62314800D01*
X76472457Y-62314800D02*
X76472457Y-62457657D01*
X76472457Y-62457657D02*
X76443885Y-62514800D01*
X76443885Y-62514800D02*
X76415314Y-62543371D01*
X76415314Y-62543371D02*
X76358171Y-62571942D01*
X76358171Y-62571942D02*
X76215314Y-62571942D01*
X76215314Y-62571942D02*
X76158171Y-62543371D01*
X76158171Y-62543371D02*
X76129600Y-62514800D01*
X76129600Y-62514800D02*
X76101028Y-62457657D01*
X76101028Y-62457657D02*
X76101028Y-62314800D01*
X76101028Y-62314800D02*
X76129600Y-62257657D01*
X76129600Y-62257657D02*
X76158171Y-62229085D01*
X87581828Y-51588143D02*
X88181828Y-51588143D01*
X88181828Y-51588143D02*
X88181828Y-51731000D01*
X88181828Y-51731000D02*
X88153257Y-51816714D01*
X88153257Y-51816714D02*
X88096114Y-51873857D01*
X88096114Y-51873857D02*
X88038971Y-51902428D01*
X88038971Y-51902428D02*
X87924685Y-51931000D01*
X87924685Y-51931000D02*
X87838971Y-51931000D01*
X87838971Y-51931000D02*
X87724685Y-51902428D01*
X87724685Y-51902428D02*
X87667542Y-51873857D01*
X87667542Y-51873857D02*
X87610400Y-51816714D01*
X87610400Y-51816714D02*
X87581828Y-51731000D01*
X87581828Y-51731000D02*
X87581828Y-51588143D01*
X87924685Y-52273857D02*
X87953257Y-52216714D01*
X87953257Y-52216714D02*
X87981828Y-52188143D01*
X87981828Y-52188143D02*
X88038971Y-52159571D01*
X88038971Y-52159571D02*
X88067542Y-52159571D01*
X88067542Y-52159571D02*
X88124685Y-52188143D01*
X88124685Y-52188143D02*
X88153257Y-52216714D01*
X88153257Y-52216714D02*
X88181828Y-52273857D01*
X88181828Y-52273857D02*
X88181828Y-52388143D01*
X88181828Y-52388143D02*
X88153257Y-52445286D01*
X88153257Y-52445286D02*
X88124685Y-52473857D01*
X88124685Y-52473857D02*
X88067542Y-52502428D01*
X88067542Y-52502428D02*
X88038971Y-52502428D01*
X88038971Y-52502428D02*
X87981828Y-52473857D01*
X87981828Y-52473857D02*
X87953257Y-52445286D01*
X87953257Y-52445286D02*
X87924685Y-52388143D01*
X87924685Y-52388143D02*
X87924685Y-52273857D01*
X87924685Y-52273857D02*
X87896114Y-52216714D01*
X87896114Y-52216714D02*
X87867542Y-52188143D01*
X87867542Y-52188143D02*
X87810400Y-52159571D01*
X87810400Y-52159571D02*
X87696114Y-52159571D01*
X87696114Y-52159571D02*
X87638971Y-52188143D01*
X87638971Y-52188143D02*
X87610400Y-52216714D01*
X87610400Y-52216714D02*
X87581828Y-52273857D01*
X87581828Y-52273857D02*
X87581828Y-52388143D01*
X87581828Y-52388143D02*
X87610400Y-52445286D01*
X87610400Y-52445286D02*
X87638971Y-52473857D01*
X87638971Y-52473857D02*
X87696114Y-52502428D01*
X87696114Y-52502428D02*
X87810400Y-52502428D01*
X87810400Y-52502428D02*
X87867542Y-52473857D01*
X87867542Y-52473857D02*
X87896114Y-52445286D01*
X87896114Y-52445286D02*
X87924685Y-52388143D01*
X87610400Y-53885285D02*
X87581828Y-53971000D01*
X87581828Y-53971000D02*
X87581828Y-54113857D01*
X87581828Y-54113857D02*
X87610400Y-54171000D01*
X87610400Y-54171000D02*
X87638971Y-54199571D01*
X87638971Y-54199571D02*
X87696114Y-54228142D01*
X87696114Y-54228142D02*
X87753257Y-54228142D01*
X87753257Y-54228142D02*
X87810400Y-54199571D01*
X87810400Y-54199571D02*
X87838971Y-54171000D01*
X87838971Y-54171000D02*
X87867542Y-54113857D01*
X87867542Y-54113857D02*
X87896114Y-53999571D01*
X87896114Y-53999571D02*
X87924685Y-53942428D01*
X87924685Y-53942428D02*
X87953257Y-53913857D01*
X87953257Y-53913857D02*
X88010400Y-53885285D01*
X88010400Y-53885285D02*
X88067542Y-53885285D01*
X88067542Y-53885285D02*
X88124685Y-53913857D01*
X88124685Y-53913857D02*
X88153257Y-53942428D01*
X88153257Y-53942428D02*
X88181828Y-53999571D01*
X88181828Y-53999571D02*
X88181828Y-54142428D01*
X88181828Y-54142428D02*
X88153257Y-54228142D01*
X88181828Y-54399571D02*
X88181828Y-54742429D01*
X87581828Y-54571000D02*
X88181828Y-54571000D01*
X88181828Y-55056714D02*
X88181828Y-55113857D01*
X88181828Y-55113857D02*
X88153257Y-55171000D01*
X88153257Y-55171000D02*
X88124685Y-55199572D01*
X88124685Y-55199572D02*
X88067542Y-55228143D01*
X88067542Y-55228143D02*
X87953257Y-55256714D01*
X87953257Y-55256714D02*
X87810400Y-55256714D01*
X87810400Y-55256714D02*
X87696114Y-55228143D01*
X87696114Y-55228143D02*
X87638971Y-55199572D01*
X87638971Y-55199572D02*
X87610400Y-55171000D01*
X87610400Y-55171000D02*
X87581828Y-55113857D01*
X87581828Y-55113857D02*
X87581828Y-55056714D01*
X87581828Y-55056714D02*
X87610400Y-54999572D01*
X87610400Y-54999572D02*
X87638971Y-54971000D01*
X87638971Y-54971000D02*
X87696114Y-54942429D01*
X87696114Y-54942429D02*
X87810400Y-54913857D01*
X87810400Y-54913857D02*
X87953257Y-54913857D01*
X87953257Y-54913857D02*
X88067542Y-54942429D01*
X88067542Y-54942429D02*
X88124685Y-54971000D01*
X88124685Y-54971000D02*
X88153257Y-54999572D01*
X88153257Y-54999572D02*
X88181828Y-55056714D01*
X76101028Y-46508143D02*
X76701028Y-46508143D01*
X76701028Y-46508143D02*
X76701028Y-46651000D01*
X76701028Y-46651000D02*
X76672457Y-46736714D01*
X76672457Y-46736714D02*
X76615314Y-46793857D01*
X76615314Y-46793857D02*
X76558171Y-46822428D01*
X76558171Y-46822428D02*
X76443885Y-46851000D01*
X76443885Y-46851000D02*
X76358171Y-46851000D01*
X76358171Y-46851000D02*
X76243885Y-46822428D01*
X76243885Y-46822428D02*
X76186742Y-46793857D01*
X76186742Y-46793857D02*
X76129600Y-46736714D01*
X76129600Y-46736714D02*
X76101028Y-46651000D01*
X76101028Y-46651000D02*
X76101028Y-46508143D01*
X76701028Y-47051000D02*
X76701028Y-47422428D01*
X76701028Y-47422428D02*
X76472457Y-47222428D01*
X76472457Y-47222428D02*
X76472457Y-47308143D01*
X76472457Y-47308143D02*
X76443885Y-47365286D01*
X76443885Y-47365286D02*
X76415314Y-47393857D01*
X76415314Y-47393857D02*
X76358171Y-47422428D01*
X76358171Y-47422428D02*
X76215314Y-47422428D01*
X76215314Y-47422428D02*
X76158171Y-47393857D01*
X76158171Y-47393857D02*
X76129600Y-47365286D01*
X76129600Y-47365286D02*
X76101028Y-47308143D01*
X76101028Y-47308143D02*
X76101028Y-47136714D01*
X76101028Y-47136714D02*
X76129600Y-47079571D01*
X76129600Y-47079571D02*
X76158171Y-47051000D01*
X87581828Y-49048143D02*
X88181828Y-49048143D01*
X88181828Y-49048143D02*
X88181828Y-49191000D01*
X88181828Y-49191000D02*
X88153257Y-49276714D01*
X88153257Y-49276714D02*
X88096114Y-49333857D01*
X88096114Y-49333857D02*
X88038971Y-49362428D01*
X88038971Y-49362428D02*
X87924685Y-49391000D01*
X87924685Y-49391000D02*
X87838971Y-49391000D01*
X87838971Y-49391000D02*
X87724685Y-49362428D01*
X87724685Y-49362428D02*
X87667542Y-49333857D01*
X87667542Y-49333857D02*
X87610400Y-49276714D01*
X87610400Y-49276714D02*
X87581828Y-49191000D01*
X87581828Y-49191000D02*
X87581828Y-49048143D01*
X88181828Y-49905286D02*
X88181828Y-49791000D01*
X88181828Y-49791000D02*
X88153257Y-49733857D01*
X88153257Y-49733857D02*
X88124685Y-49705286D01*
X88124685Y-49705286D02*
X88038971Y-49648143D01*
X88038971Y-49648143D02*
X87924685Y-49619571D01*
X87924685Y-49619571D02*
X87696114Y-49619571D01*
X87696114Y-49619571D02*
X87638971Y-49648143D01*
X87638971Y-49648143D02*
X87610400Y-49676714D01*
X87610400Y-49676714D02*
X87581828Y-49733857D01*
X87581828Y-49733857D02*
X87581828Y-49848143D01*
X87581828Y-49848143D02*
X87610400Y-49905286D01*
X87610400Y-49905286D02*
X87638971Y-49933857D01*
X87638971Y-49933857D02*
X87696114Y-49962428D01*
X87696114Y-49962428D02*
X87838971Y-49962428D01*
X87838971Y-49962428D02*
X87896114Y-49933857D01*
X87896114Y-49933857D02*
X87924685Y-49905286D01*
X87924685Y-49905286D02*
X87953257Y-49848143D01*
X87953257Y-49848143D02*
X87953257Y-49733857D01*
X87953257Y-49733857D02*
X87924685Y-49676714D01*
X87924685Y-49676714D02*
X87896114Y-49648143D01*
X87896114Y-49648143D02*
X87838971Y-49619571D01*
X76672457Y-41413857D02*
X76701028Y-41356715D01*
X76701028Y-41356715D02*
X76701028Y-41271000D01*
X76701028Y-41271000D02*
X76672457Y-41185286D01*
X76672457Y-41185286D02*
X76615314Y-41128143D01*
X76615314Y-41128143D02*
X76558171Y-41099572D01*
X76558171Y-41099572D02*
X76443885Y-41071000D01*
X76443885Y-41071000D02*
X76358171Y-41071000D01*
X76358171Y-41071000D02*
X76243885Y-41099572D01*
X76243885Y-41099572D02*
X76186742Y-41128143D01*
X76186742Y-41128143D02*
X76129600Y-41185286D01*
X76129600Y-41185286D02*
X76101028Y-41271000D01*
X76101028Y-41271000D02*
X76101028Y-41328143D01*
X76101028Y-41328143D02*
X76129600Y-41413857D01*
X76129600Y-41413857D02*
X76158171Y-41442429D01*
X76158171Y-41442429D02*
X76358171Y-41442429D01*
X76358171Y-41442429D02*
X76358171Y-41328143D01*
X76101028Y-41699572D02*
X76701028Y-41699572D01*
X76701028Y-41699572D02*
X76101028Y-42042429D01*
X76101028Y-42042429D02*
X76701028Y-42042429D01*
X76101028Y-42328143D02*
X76701028Y-42328143D01*
X76701028Y-42328143D02*
X76701028Y-42471000D01*
X76701028Y-42471000D02*
X76672457Y-42556714D01*
X76672457Y-42556714D02*
X76615314Y-42613857D01*
X76615314Y-42613857D02*
X76558171Y-42642428D01*
X76558171Y-42642428D02*
X76443885Y-42671000D01*
X76443885Y-42671000D02*
X76358171Y-42671000D01*
X76358171Y-42671000D02*
X76243885Y-42642428D01*
X76243885Y-42642428D02*
X76186742Y-42613857D01*
X76186742Y-42613857D02*
X76129600Y-42556714D01*
X76129600Y-42556714D02*
X76101028Y-42471000D01*
X76101028Y-42471000D02*
X76101028Y-42328143D01*
X76202628Y-40391428D02*
X76202628Y-40048571D01*
X76202628Y-40220000D02*
X76802628Y-40220000D01*
X76802628Y-40220000D02*
X76716914Y-40162857D01*
X76716914Y-40162857D02*
X76659771Y-40105714D01*
X76659771Y-40105714D02*
X76631200Y-40048571D01*
X76272457Y-56368142D02*
X76272457Y-56653857D01*
X76101028Y-56310999D02*
X76701028Y-56510999D01*
X76701028Y-56510999D02*
X76101028Y-56710999D01*
X76158171Y-57253857D02*
X76129600Y-57225285D01*
X76129600Y-57225285D02*
X76101028Y-57139571D01*
X76101028Y-57139571D02*
X76101028Y-57082428D01*
X76101028Y-57082428D02*
X76129600Y-56996714D01*
X76129600Y-56996714D02*
X76186742Y-56939571D01*
X76186742Y-56939571D02*
X76243885Y-56911000D01*
X76243885Y-56911000D02*
X76358171Y-56882428D01*
X76358171Y-56882428D02*
X76443885Y-56882428D01*
X76443885Y-56882428D02*
X76558171Y-56911000D01*
X76558171Y-56911000D02*
X76615314Y-56939571D01*
X76615314Y-56939571D02*
X76672457Y-56996714D01*
X76672457Y-56996714D02*
X76701028Y-57082428D01*
X76701028Y-57082428D02*
X76701028Y-57139571D01*
X76701028Y-57139571D02*
X76672457Y-57225285D01*
X76672457Y-57225285D02*
X76643885Y-57253857D01*
X76101028Y-57511000D02*
X76701028Y-57511000D01*
X76101028Y-57853857D02*
X76443885Y-57596714D01*
X76701028Y-57853857D02*
X76358171Y-57511000D01*
X76101028Y-43968143D02*
X76701028Y-43968143D01*
X76701028Y-43968143D02*
X76701028Y-44111000D01*
X76701028Y-44111000D02*
X76672457Y-44196714D01*
X76672457Y-44196714D02*
X76615314Y-44253857D01*
X76615314Y-44253857D02*
X76558171Y-44282428D01*
X76558171Y-44282428D02*
X76443885Y-44311000D01*
X76443885Y-44311000D02*
X76358171Y-44311000D01*
X76358171Y-44311000D02*
X76243885Y-44282428D01*
X76243885Y-44282428D02*
X76186742Y-44253857D01*
X76186742Y-44253857D02*
X76129600Y-44196714D01*
X76129600Y-44196714D02*
X76101028Y-44111000D01*
X76101028Y-44111000D02*
X76101028Y-43968143D01*
X76101028Y-44882428D02*
X76101028Y-44539571D01*
X76101028Y-44711000D02*
X76701028Y-44711000D01*
X76701028Y-44711000D02*
X76615314Y-44653857D01*
X76615314Y-44653857D02*
X76558171Y-44596714D01*
X76558171Y-44596714D02*
X76529600Y-44539571D01*
D12*
X71628000Y-72898000D02*
X71628000Y-85090000D01*
X46990000Y-85090000D02*
X46990000Y-70358000D01*
X30480000Y-85090000D02*
X30480000Y-75438000D01*
X38862000Y-85090000D02*
X38862000Y-70358000D01*
X55372000Y-72898000D02*
X71628000Y-72898000D01*
X55372000Y-85090000D02*
X55372000Y-70358000D01*
X30480000Y-75438000D02*
X23622000Y-75438000D01*
X63500000Y-85090000D02*
X63500000Y-72898000D01*
X55372000Y-70358000D02*
X23368000Y-70358000D01*
X23622000Y-75438000D02*
X23368000Y-75438000D01*
X30480000Y-75438000D02*
X30480000Y-70358000D01*
D10*
X41822857Y-71777214D02*
X41965714Y-71848642D01*
X41965714Y-71848642D02*
X42013333Y-71920071D01*
X42013333Y-71920071D02*
X42060952Y-72062928D01*
X42060952Y-72062928D02*
X42060952Y-72277214D01*
X42060952Y-72277214D02*
X42013333Y-72420071D01*
X42013333Y-72420071D02*
X41965714Y-72491500D01*
X41965714Y-72491500D02*
X41870476Y-72562928D01*
X41870476Y-72562928D02*
X41489524Y-72562928D01*
X41489524Y-72562928D02*
X41489524Y-71062928D01*
X41489524Y-71062928D02*
X41822857Y-71062928D01*
X41822857Y-71062928D02*
X41918095Y-71134357D01*
X41918095Y-71134357D02*
X41965714Y-71205785D01*
X41965714Y-71205785D02*
X42013333Y-71348642D01*
X42013333Y-71348642D02*
X42013333Y-71491500D01*
X42013333Y-71491500D02*
X41965714Y-71634357D01*
X41965714Y-71634357D02*
X41918095Y-71705785D01*
X41918095Y-71705785D02*
X41822857Y-71777214D01*
X41822857Y-71777214D02*
X41489524Y-71777214D01*
X42441905Y-72134357D02*
X42918095Y-72134357D01*
X42346667Y-72562928D02*
X42680000Y-71062928D01*
X42680000Y-71062928D02*
X43013333Y-72562928D01*
X43918095Y-72420071D02*
X43870476Y-72491500D01*
X43870476Y-72491500D02*
X43727619Y-72562928D01*
X43727619Y-72562928D02*
X43632381Y-72562928D01*
X43632381Y-72562928D02*
X43489524Y-72491500D01*
X43489524Y-72491500D02*
X43394286Y-72348642D01*
X43394286Y-72348642D02*
X43346667Y-72205785D01*
X43346667Y-72205785D02*
X43299048Y-71920071D01*
X43299048Y-71920071D02*
X43299048Y-71705785D01*
X43299048Y-71705785D02*
X43346667Y-71420071D01*
X43346667Y-71420071D02*
X43394286Y-71277214D01*
X43394286Y-71277214D02*
X43489524Y-71134357D01*
X43489524Y-71134357D02*
X43632381Y-71062928D01*
X43632381Y-71062928D02*
X43727619Y-71062928D01*
X43727619Y-71062928D02*
X43870476Y-71134357D01*
X43870476Y-71134357D02*
X43918095Y-71205785D01*
X44346667Y-72562928D02*
X44346667Y-71062928D01*
X44918095Y-72562928D02*
X44489524Y-71705785D01*
X44918095Y-71062928D02*
X44346667Y-71920071D01*
X33234476Y-71777214D02*
X33567809Y-71777214D01*
X33710666Y-72562928D02*
X33234476Y-72562928D01*
X33234476Y-72562928D02*
X33234476Y-71062928D01*
X33234476Y-71062928D02*
X33710666Y-71062928D01*
X34044000Y-71062928D02*
X34710666Y-72562928D01*
X34710666Y-71062928D02*
X34044000Y-72562928D01*
X35091619Y-72562928D02*
X35091619Y-71062928D01*
X35424952Y-71062928D02*
X35996380Y-71062928D01*
X35710666Y-72562928D02*
X35710666Y-71062928D01*
X58126476Y-74063214D02*
X58459809Y-74063214D01*
X58602666Y-74848928D02*
X58126476Y-74848928D01*
X58126476Y-74848928D02*
X58126476Y-73348928D01*
X58126476Y-73348928D02*
X58602666Y-73348928D01*
X58936000Y-73348928D02*
X59602666Y-74848928D01*
X59602666Y-73348928D02*
X58936000Y-74848928D01*
X59983619Y-74848928D02*
X59983619Y-73348928D01*
X60316952Y-73348928D02*
X60888380Y-73348928D01*
X60602666Y-74848928D02*
X60602666Y-73348928D01*
X32067809Y-74777500D02*
X32210666Y-74848928D01*
X32210666Y-74848928D02*
X32448761Y-74848928D01*
X32448761Y-74848928D02*
X32543999Y-74777500D01*
X32543999Y-74777500D02*
X32591618Y-74706071D01*
X32591618Y-74706071D02*
X32639237Y-74563214D01*
X32639237Y-74563214D02*
X32639237Y-74420357D01*
X32639237Y-74420357D02*
X32591618Y-74277500D01*
X32591618Y-74277500D02*
X32543999Y-74206071D01*
X32543999Y-74206071D02*
X32448761Y-74134642D01*
X32448761Y-74134642D02*
X32258285Y-74063214D01*
X32258285Y-74063214D02*
X32163047Y-73991785D01*
X32163047Y-73991785D02*
X32115428Y-73920357D01*
X32115428Y-73920357D02*
X32067809Y-73777500D01*
X32067809Y-73777500D02*
X32067809Y-73634642D01*
X32067809Y-73634642D02*
X32115428Y-73491785D01*
X32115428Y-73491785D02*
X32163047Y-73420357D01*
X32163047Y-73420357D02*
X32258285Y-73348928D01*
X32258285Y-73348928D02*
X32496380Y-73348928D01*
X32496380Y-73348928D02*
X32639237Y-73420357D01*
X33067809Y-74063214D02*
X33401142Y-74063214D01*
X33543999Y-74848928D02*
X33067809Y-74848928D01*
X33067809Y-74848928D02*
X33067809Y-73348928D01*
X33067809Y-73348928D02*
X33543999Y-73348928D01*
X34448761Y-74848928D02*
X33972571Y-74848928D01*
X33972571Y-74848928D02*
X33972571Y-73348928D01*
X34782095Y-74063214D02*
X35115428Y-74063214D01*
X35258285Y-74848928D02*
X34782095Y-74848928D01*
X34782095Y-74848928D02*
X34782095Y-73348928D01*
X34782095Y-73348928D02*
X35258285Y-73348928D01*
X36258285Y-74706071D02*
X36210666Y-74777500D01*
X36210666Y-74777500D02*
X36067809Y-74848928D01*
X36067809Y-74848928D02*
X35972571Y-74848928D01*
X35972571Y-74848928D02*
X35829714Y-74777500D01*
X35829714Y-74777500D02*
X35734476Y-74634642D01*
X35734476Y-74634642D02*
X35686857Y-74491785D01*
X35686857Y-74491785D02*
X35639238Y-74206071D01*
X35639238Y-74206071D02*
X35639238Y-73991785D01*
X35639238Y-73991785D02*
X35686857Y-73706071D01*
X35686857Y-73706071D02*
X35734476Y-73563214D01*
X35734476Y-73563214D02*
X35829714Y-73420357D01*
X35829714Y-73420357D02*
X35972571Y-73348928D01*
X35972571Y-73348928D02*
X36067809Y-73348928D01*
X36067809Y-73348928D02*
X36210666Y-73420357D01*
X36210666Y-73420357D02*
X36258285Y-73491785D01*
X36544000Y-73348928D02*
X37115428Y-73348928D01*
X36829714Y-74848928D02*
X36829714Y-73348928D01*
X49458762Y-72562928D02*
X49458762Y-71062928D01*
X49458762Y-71062928D02*
X50030190Y-72562928D01*
X50030190Y-72562928D02*
X50030190Y-71062928D01*
X50506381Y-71777214D02*
X50839714Y-71777214D01*
X50982571Y-72562928D02*
X50506381Y-72562928D01*
X50506381Y-72562928D02*
X50506381Y-71062928D01*
X50506381Y-71062928D02*
X50982571Y-71062928D01*
X51315905Y-71062928D02*
X51982571Y-72562928D01*
X51982571Y-71062928D02*
X51315905Y-72562928D01*
X52220667Y-71062928D02*
X52792095Y-71062928D01*
X52506381Y-72562928D02*
X52506381Y-71062928D01*
D13*
X24124902Y-71783714D02*
X24358236Y-71783714D01*
X24458236Y-72569428D02*
X24124902Y-72569428D01*
X24124902Y-72569428D02*
X24124902Y-71069428D01*
X24124902Y-71069428D02*
X24458236Y-71069428D01*
X24758235Y-72569428D02*
X24758235Y-71069428D01*
X24758235Y-71069428D02*
X24991569Y-72140857D01*
X24991569Y-72140857D02*
X25224902Y-71069428D01*
X25224902Y-71069428D02*
X25224902Y-72569428D01*
X25558235Y-71069428D02*
X25558235Y-72283714D01*
X25558235Y-72283714D02*
X25591569Y-72426571D01*
X25591569Y-72426571D02*
X25624902Y-72498000D01*
X25624902Y-72498000D02*
X25691569Y-72569428D01*
X25691569Y-72569428D02*
X25824902Y-72569428D01*
X25824902Y-72569428D02*
X25891569Y-72498000D01*
X25891569Y-72498000D02*
X25924902Y-72426571D01*
X25924902Y-72426571D02*
X25958235Y-72283714D01*
X25958235Y-72283714D02*
X25958235Y-71069428D01*
X26624902Y-72569428D02*
X26291568Y-72569428D01*
X26291568Y-72569428D02*
X26291568Y-71069428D01*
X26824902Y-72140857D02*
X27158235Y-72140857D01*
X26758235Y-72569428D02*
X26991569Y-71069428D01*
X26991569Y-71069428D02*
X27224902Y-72569428D01*
X27358235Y-71069428D02*
X27758235Y-71069428D01*
X27558235Y-72569428D02*
X27558235Y-71069428D01*
X27991568Y-72569428D02*
X27991568Y-71069428D01*
X28458235Y-71069428D02*
X28591568Y-71069428D01*
X28591568Y-71069428D02*
X28658235Y-71140857D01*
X28658235Y-71140857D02*
X28724901Y-71283714D01*
X28724901Y-71283714D02*
X28758235Y-71569428D01*
X28758235Y-71569428D02*
X28758235Y-72069428D01*
X28758235Y-72069428D02*
X28724901Y-72355142D01*
X28724901Y-72355142D02*
X28658235Y-72498000D01*
X28658235Y-72498000D02*
X28591568Y-72569428D01*
X28591568Y-72569428D02*
X28458235Y-72569428D01*
X28458235Y-72569428D02*
X28391568Y-72498000D01*
X28391568Y-72498000D02*
X28324901Y-72355142D01*
X28324901Y-72355142D02*
X28291568Y-72069428D01*
X28291568Y-72069428D02*
X28291568Y-71569428D01*
X28291568Y-71569428D02*
X28324901Y-71283714D01*
X28324901Y-71283714D02*
X28391568Y-71140857D01*
X28391568Y-71140857D02*
X28458235Y-71069428D01*
X29058234Y-72569428D02*
X29058234Y-71069428D01*
X29058234Y-71069428D02*
X29458234Y-72569428D01*
X29458234Y-72569428D02*
X29458234Y-71069428D01*
D10*
X42267286Y-73348928D02*
X42267286Y-74563214D01*
X42267286Y-74563214D02*
X42314905Y-74706071D01*
X42314905Y-74706071D02*
X42362524Y-74777500D01*
X42362524Y-74777500D02*
X42457762Y-74848928D01*
X42457762Y-74848928D02*
X42648238Y-74848928D01*
X42648238Y-74848928D02*
X42743476Y-74777500D01*
X42743476Y-74777500D02*
X42791095Y-74706071D01*
X42791095Y-74706071D02*
X42838714Y-74563214D01*
X42838714Y-74563214D02*
X42838714Y-73348928D01*
X43314905Y-74848928D02*
X43314905Y-73348928D01*
X43314905Y-73348928D02*
X43695857Y-73348928D01*
X43695857Y-73348928D02*
X43791095Y-73420357D01*
X43791095Y-73420357D02*
X43838714Y-73491785D01*
X43838714Y-73491785D02*
X43886333Y-73634642D01*
X43886333Y-73634642D02*
X43886333Y-73848928D01*
X43886333Y-73848928D02*
X43838714Y-73991785D01*
X43838714Y-73991785D02*
X43791095Y-74063214D01*
X43791095Y-74063214D02*
X43695857Y-74134642D01*
X43695857Y-74134642D02*
X43314905Y-74134642D01*
X49300048Y-74975928D02*
X49300048Y-73475928D01*
X49300048Y-73475928D02*
X49538143Y-73475928D01*
X49538143Y-73475928D02*
X49681000Y-73547357D01*
X49681000Y-73547357D02*
X49776238Y-73690214D01*
X49776238Y-73690214D02*
X49823857Y-73833071D01*
X49823857Y-73833071D02*
X49871476Y-74118785D01*
X49871476Y-74118785D02*
X49871476Y-74333071D01*
X49871476Y-74333071D02*
X49823857Y-74618785D01*
X49823857Y-74618785D02*
X49776238Y-74761642D01*
X49776238Y-74761642D02*
X49681000Y-74904500D01*
X49681000Y-74904500D02*
X49538143Y-74975928D01*
X49538143Y-74975928D02*
X49300048Y-74975928D01*
X50490524Y-73475928D02*
X50681000Y-73475928D01*
X50681000Y-73475928D02*
X50776238Y-73547357D01*
X50776238Y-73547357D02*
X50871476Y-73690214D01*
X50871476Y-73690214D02*
X50919095Y-73975928D01*
X50919095Y-73975928D02*
X50919095Y-74475928D01*
X50919095Y-74475928D02*
X50871476Y-74761642D01*
X50871476Y-74761642D02*
X50776238Y-74904500D01*
X50776238Y-74904500D02*
X50681000Y-74975928D01*
X50681000Y-74975928D02*
X50490524Y-74975928D01*
X50490524Y-74975928D02*
X50395286Y-74904500D01*
X50395286Y-74904500D02*
X50300048Y-74761642D01*
X50300048Y-74761642D02*
X50252429Y-74475928D01*
X50252429Y-74475928D02*
X50252429Y-73975928D01*
X50252429Y-73975928D02*
X50300048Y-73690214D01*
X50300048Y-73690214D02*
X50395286Y-73547357D01*
X50395286Y-73547357D02*
X50490524Y-73475928D01*
X51252429Y-73475928D02*
X51490524Y-74975928D01*
X51490524Y-74975928D02*
X51681000Y-73904500D01*
X51681000Y-73904500D02*
X51871476Y-74975928D01*
X51871476Y-74975928D02*
X52109572Y-73475928D01*
X52490524Y-74975928D02*
X52490524Y-73475928D01*
X52490524Y-73475928D02*
X53061952Y-74975928D01*
X53061952Y-74975928D02*
X53061952Y-73475928D01*
D14*
X24391131Y-74067114D02*
X24491131Y-74138542D01*
X24491131Y-74138542D02*
X24524464Y-74209971D01*
X24524464Y-74209971D02*
X24557797Y-74352828D01*
X24557797Y-74352828D02*
X24557797Y-74567114D01*
X24557797Y-74567114D02*
X24524464Y-74709971D01*
X24524464Y-74709971D02*
X24491131Y-74781400D01*
X24491131Y-74781400D02*
X24424464Y-74852828D01*
X24424464Y-74852828D02*
X24157797Y-74852828D01*
X24157797Y-74852828D02*
X24157797Y-73352828D01*
X24157797Y-73352828D02*
X24391131Y-73352828D01*
X24391131Y-73352828D02*
X24457797Y-73424257D01*
X24457797Y-73424257D02*
X24491131Y-73495685D01*
X24491131Y-73495685D02*
X24524464Y-73638542D01*
X24524464Y-73638542D02*
X24524464Y-73781400D01*
X24524464Y-73781400D02*
X24491131Y-73924257D01*
X24491131Y-73924257D02*
X24457797Y-73995685D01*
X24457797Y-73995685D02*
X24391131Y-74067114D01*
X24391131Y-74067114D02*
X24157797Y-74067114D01*
X25257797Y-74852828D02*
X25024464Y-74138542D01*
X24857797Y-74852828D02*
X24857797Y-73352828D01*
X24857797Y-73352828D02*
X25124464Y-73352828D01*
X25124464Y-73352828D02*
X25191131Y-73424257D01*
X25191131Y-73424257D02*
X25224464Y-73495685D01*
X25224464Y-73495685D02*
X25257797Y-73638542D01*
X25257797Y-73638542D02*
X25257797Y-73852828D01*
X25257797Y-73852828D02*
X25224464Y-73995685D01*
X25224464Y-73995685D02*
X25191131Y-74067114D01*
X25191131Y-74067114D02*
X25124464Y-74138542D01*
X25124464Y-74138542D02*
X24857797Y-74138542D01*
X25691131Y-73352828D02*
X25824464Y-73352828D01*
X25824464Y-73352828D02*
X25891131Y-73424257D01*
X25891131Y-73424257D02*
X25957797Y-73567114D01*
X25957797Y-73567114D02*
X25991131Y-73852828D01*
X25991131Y-73852828D02*
X25991131Y-74352828D01*
X25991131Y-74352828D02*
X25957797Y-74638542D01*
X25957797Y-74638542D02*
X25891131Y-74781400D01*
X25891131Y-74781400D02*
X25824464Y-74852828D01*
X25824464Y-74852828D02*
X25691131Y-74852828D01*
X25691131Y-74852828D02*
X25624464Y-74781400D01*
X25624464Y-74781400D02*
X25557797Y-74638542D01*
X25557797Y-74638542D02*
X25524464Y-74352828D01*
X25524464Y-74352828D02*
X25524464Y-73852828D01*
X25524464Y-73852828D02*
X25557797Y-73567114D01*
X25557797Y-73567114D02*
X25624464Y-73424257D01*
X25624464Y-73424257D02*
X25691131Y-73352828D01*
X26224464Y-73352828D02*
X26391130Y-74852828D01*
X26391130Y-74852828D02*
X26524464Y-73781400D01*
X26524464Y-73781400D02*
X26657797Y-74852828D01*
X26657797Y-74852828D02*
X26824464Y-73352828D01*
X27057797Y-74781400D02*
X27157797Y-74852828D01*
X27157797Y-74852828D02*
X27324464Y-74852828D01*
X27324464Y-74852828D02*
X27391130Y-74781400D01*
X27391130Y-74781400D02*
X27424464Y-74709971D01*
X27424464Y-74709971D02*
X27457797Y-74567114D01*
X27457797Y-74567114D02*
X27457797Y-74424257D01*
X27457797Y-74424257D02*
X27424464Y-74281400D01*
X27424464Y-74281400D02*
X27391130Y-74209971D01*
X27391130Y-74209971D02*
X27324464Y-74138542D01*
X27324464Y-74138542D02*
X27191130Y-74067114D01*
X27191130Y-74067114D02*
X27124464Y-73995685D01*
X27124464Y-73995685D02*
X27091130Y-73924257D01*
X27091130Y-73924257D02*
X27057797Y-73781400D01*
X27057797Y-73781400D02*
X27057797Y-73638542D01*
X27057797Y-73638542D02*
X27091130Y-73495685D01*
X27091130Y-73495685D02*
X27124464Y-73424257D01*
X27124464Y-73424257D02*
X27191130Y-73352828D01*
X27191130Y-73352828D02*
X27357797Y-73352828D01*
X27357797Y-73352828D02*
X27457797Y-73424257D01*
X27757797Y-74067114D02*
X27991131Y-74067114D01*
X28091131Y-74852828D02*
X27757797Y-74852828D01*
X27757797Y-74852828D02*
X27757797Y-73352828D01*
X27757797Y-73352828D02*
X28091131Y-73352828D01*
D10*
X25368476Y-69768928D02*
X25368476Y-68268928D01*
X25368476Y-68268928D02*
X25701809Y-69340357D01*
X25701809Y-69340357D02*
X26035142Y-68268928D01*
X26035142Y-68268928D02*
X26035142Y-69768928D01*
X26701809Y-68268928D02*
X26892285Y-68268928D01*
X26892285Y-68268928D02*
X26987523Y-68340357D01*
X26987523Y-68340357D02*
X27082761Y-68483214D01*
X27082761Y-68483214D02*
X27130380Y-68768928D01*
X27130380Y-68768928D02*
X27130380Y-69268928D01*
X27130380Y-69268928D02*
X27082761Y-69554642D01*
X27082761Y-69554642D02*
X26987523Y-69697500D01*
X26987523Y-69697500D02*
X26892285Y-69768928D01*
X26892285Y-69768928D02*
X26701809Y-69768928D01*
X26701809Y-69768928D02*
X26606571Y-69697500D01*
X26606571Y-69697500D02*
X26511333Y-69554642D01*
X26511333Y-69554642D02*
X26463714Y-69268928D01*
X26463714Y-69268928D02*
X26463714Y-68768928D01*
X26463714Y-68768928D02*
X26511333Y-68483214D01*
X26511333Y-68483214D02*
X26606571Y-68340357D01*
X26606571Y-68340357D02*
X26701809Y-68268928D01*
X27558952Y-69768928D02*
X27558952Y-68268928D01*
X27558952Y-68268928D02*
X27797047Y-68268928D01*
X27797047Y-68268928D02*
X27939904Y-68340357D01*
X27939904Y-68340357D02*
X28035142Y-68483214D01*
X28035142Y-68483214D02*
X28082761Y-68626071D01*
X28082761Y-68626071D02*
X28130380Y-68911785D01*
X28130380Y-68911785D02*
X28130380Y-69126071D01*
X28130380Y-69126071D02*
X28082761Y-69411785D01*
X28082761Y-69411785D02*
X28035142Y-69554642D01*
X28035142Y-69554642D02*
X27939904Y-69697500D01*
X27939904Y-69697500D02*
X27797047Y-69768928D01*
X27797047Y-69768928D02*
X27558952Y-69768928D01*
X28558952Y-68983214D02*
X28892285Y-68983214D01*
X29035142Y-69768928D02*
X28558952Y-69768928D01*
X28558952Y-69768928D02*
X28558952Y-68268928D01*
X28558952Y-68268928D02*
X29035142Y-68268928D01*
D11*
X60518819Y-44704666D02*
X60042628Y-45037999D01*
X60518819Y-45276094D02*
X59518819Y-45276094D01*
X59518819Y-45276094D02*
X59518819Y-44895142D01*
X59518819Y-44895142D02*
X59566438Y-44799904D01*
X59566438Y-44799904D02*
X59614057Y-44752285D01*
X59614057Y-44752285D02*
X59709295Y-44704666D01*
X59709295Y-44704666D02*
X59852152Y-44704666D01*
X59852152Y-44704666D02*
X59947390Y-44752285D01*
X59947390Y-44752285D02*
X59995009Y-44799904D01*
X59995009Y-44799904D02*
X60042628Y-44895142D01*
X60042628Y-44895142D02*
X60042628Y-45276094D01*
X59518819Y-44371332D02*
X59518819Y-43752285D01*
X59518819Y-43752285D02*
X59899771Y-44085618D01*
X59899771Y-44085618D02*
X59899771Y-43942761D01*
X59899771Y-43942761D02*
X59947390Y-43847523D01*
X59947390Y-43847523D02*
X59995009Y-43799904D01*
X59995009Y-43799904D02*
X60090247Y-43752285D01*
X60090247Y-43752285D02*
X60328342Y-43752285D01*
X60328342Y-43752285D02*
X60423580Y-43799904D01*
X60423580Y-43799904D02*
X60471200Y-43847523D01*
X60471200Y-43847523D02*
X60518819Y-43942761D01*
X60518819Y-43942761D02*
X60518819Y-44228475D01*
X60518819Y-44228475D02*
X60471200Y-44323713D01*
X60471200Y-44323713D02*
X60423580Y-44371332D01*
X60518819Y-41069238D02*
X60518819Y-41640666D01*
X60518819Y-41354952D02*
X59518819Y-41354952D01*
X59518819Y-41354952D02*
X59661676Y-41450190D01*
X59661676Y-41450190D02*
X59756914Y-41545428D01*
X59756914Y-41545428D02*
X59804533Y-41640666D01*
X59518819Y-40450190D02*
X59518819Y-40354952D01*
X59518819Y-40354952D02*
X59566438Y-40259714D01*
X59566438Y-40259714D02*
X59614057Y-40212095D01*
X59614057Y-40212095D02*
X59709295Y-40164476D01*
X59709295Y-40164476D02*
X59899771Y-40116857D01*
X59899771Y-40116857D02*
X60137866Y-40116857D01*
X60137866Y-40116857D02*
X60328342Y-40164476D01*
X60328342Y-40164476D02*
X60423580Y-40212095D01*
X60423580Y-40212095D02*
X60471200Y-40259714D01*
X60471200Y-40259714D02*
X60518819Y-40354952D01*
X60518819Y-40354952D02*
X60518819Y-40450190D01*
X60518819Y-40450190D02*
X60471200Y-40545428D01*
X60471200Y-40545428D02*
X60423580Y-40593047D01*
X60423580Y-40593047D02*
X60328342Y-40640666D01*
X60328342Y-40640666D02*
X60137866Y-40688285D01*
X60137866Y-40688285D02*
X59899771Y-40688285D01*
X59899771Y-40688285D02*
X59709295Y-40640666D01*
X59709295Y-40640666D02*
X59614057Y-40593047D01*
X59614057Y-40593047D02*
X59566438Y-40545428D01*
X59566438Y-40545428D02*
X59518819Y-40450190D01*
X60518819Y-39688285D02*
X59518819Y-39688285D01*
X60137866Y-39593047D02*
X60518819Y-39307333D01*
X59852152Y-39307333D02*
X60233104Y-39688285D01*
X63736119Y-62230666D02*
X63259928Y-62563999D01*
X63736119Y-62802094D02*
X62736119Y-62802094D01*
X62736119Y-62802094D02*
X62736119Y-62421142D01*
X62736119Y-62421142D02*
X62783738Y-62325904D01*
X62783738Y-62325904D02*
X62831357Y-62278285D01*
X62831357Y-62278285D02*
X62926595Y-62230666D01*
X62926595Y-62230666D02*
X63069452Y-62230666D01*
X63069452Y-62230666D02*
X63164690Y-62278285D01*
X63164690Y-62278285D02*
X63212309Y-62325904D01*
X63212309Y-62325904D02*
X63259928Y-62421142D01*
X63259928Y-62421142D02*
X63259928Y-62802094D01*
X63736119Y-61754475D02*
X63736119Y-61563999D01*
X63736119Y-61563999D02*
X63688500Y-61468761D01*
X63688500Y-61468761D02*
X63640880Y-61421142D01*
X63640880Y-61421142D02*
X63498023Y-61325904D01*
X63498023Y-61325904D02*
X63307547Y-61278285D01*
X63307547Y-61278285D02*
X62926595Y-61278285D01*
X62926595Y-61278285D02*
X62831357Y-61325904D01*
X62831357Y-61325904D02*
X62783738Y-61373523D01*
X62783738Y-61373523D02*
X62736119Y-61468761D01*
X62736119Y-61468761D02*
X62736119Y-61659237D01*
X62736119Y-61659237D02*
X62783738Y-61754475D01*
X62783738Y-61754475D02*
X62831357Y-61802094D01*
X62831357Y-61802094D02*
X62926595Y-61849713D01*
X62926595Y-61849713D02*
X63164690Y-61849713D01*
X63164690Y-61849713D02*
X63259928Y-61802094D01*
X63259928Y-61802094D02*
X63307547Y-61754475D01*
X63307547Y-61754475D02*
X63355166Y-61659237D01*
X63355166Y-61659237D02*
X63355166Y-61468761D01*
X63355166Y-61468761D02*
X63307547Y-61373523D01*
X63307547Y-61373523D02*
X63259928Y-61325904D01*
X63259928Y-61325904D02*
X63164690Y-61278285D01*
X63736119Y-58849238D02*
X63736119Y-59420666D01*
X63736119Y-59134952D02*
X62736119Y-59134952D01*
X62736119Y-59134952D02*
X62878976Y-59230190D01*
X62878976Y-59230190D02*
X62974214Y-59325428D01*
X62974214Y-59325428D02*
X63021833Y-59420666D01*
X62736119Y-58230190D02*
X62736119Y-58134952D01*
X62736119Y-58134952D02*
X62783738Y-58039714D01*
X62783738Y-58039714D02*
X62831357Y-57992095D01*
X62831357Y-57992095D02*
X62926595Y-57944476D01*
X62926595Y-57944476D02*
X63117071Y-57896857D01*
X63117071Y-57896857D02*
X63355166Y-57896857D01*
X63355166Y-57896857D02*
X63545642Y-57944476D01*
X63545642Y-57944476D02*
X63640880Y-57992095D01*
X63640880Y-57992095D02*
X63688500Y-58039714D01*
X63688500Y-58039714D02*
X63736119Y-58134952D01*
X63736119Y-58134952D02*
X63736119Y-58230190D01*
X63736119Y-58230190D02*
X63688500Y-58325428D01*
X63688500Y-58325428D02*
X63640880Y-58373047D01*
X63640880Y-58373047D02*
X63545642Y-58420666D01*
X63545642Y-58420666D02*
X63355166Y-58468285D01*
X63355166Y-58468285D02*
X63117071Y-58468285D01*
X63117071Y-58468285D02*
X62926595Y-58420666D01*
X62926595Y-58420666D02*
X62831357Y-58373047D01*
X62831357Y-58373047D02*
X62783738Y-58325428D01*
X62783738Y-58325428D02*
X62736119Y-58230190D01*
X63736119Y-57468285D02*
X62736119Y-57468285D01*
X63355166Y-57373047D02*
X63736119Y-57087333D01*
X63069452Y-57087333D02*
X63450404Y-57468285D01*
X63736119Y-44704666D02*
X63259928Y-45037999D01*
X63736119Y-45276094D02*
X62736119Y-45276094D01*
X62736119Y-45276094D02*
X62736119Y-44895142D01*
X62736119Y-44895142D02*
X62783738Y-44799904D01*
X62783738Y-44799904D02*
X62831357Y-44752285D01*
X62831357Y-44752285D02*
X62926595Y-44704666D01*
X62926595Y-44704666D02*
X63069452Y-44704666D01*
X63069452Y-44704666D02*
X63164690Y-44752285D01*
X63164690Y-44752285D02*
X63212309Y-44799904D01*
X63212309Y-44799904D02*
X63259928Y-44895142D01*
X63259928Y-44895142D02*
X63259928Y-45276094D01*
X63069452Y-43847523D02*
X63736119Y-43847523D01*
X62688500Y-44085618D02*
X63402785Y-44323713D01*
X63402785Y-44323713D02*
X63402785Y-43704666D01*
X63736119Y-41069238D02*
X63736119Y-41640666D01*
X63736119Y-41354952D02*
X62736119Y-41354952D01*
X62736119Y-41354952D02*
X62878976Y-41450190D01*
X62878976Y-41450190D02*
X62974214Y-41545428D01*
X62974214Y-41545428D02*
X63021833Y-41640666D01*
X62736119Y-40450190D02*
X62736119Y-40354952D01*
X62736119Y-40354952D02*
X62783738Y-40259714D01*
X62783738Y-40259714D02*
X62831357Y-40212095D01*
X62831357Y-40212095D02*
X62926595Y-40164476D01*
X62926595Y-40164476D02*
X63117071Y-40116857D01*
X63117071Y-40116857D02*
X63355166Y-40116857D01*
X63355166Y-40116857D02*
X63545642Y-40164476D01*
X63545642Y-40164476D02*
X63640880Y-40212095D01*
X63640880Y-40212095D02*
X63688500Y-40259714D01*
X63688500Y-40259714D02*
X63736119Y-40354952D01*
X63736119Y-40354952D02*
X63736119Y-40450190D01*
X63736119Y-40450190D02*
X63688500Y-40545428D01*
X63688500Y-40545428D02*
X63640880Y-40593047D01*
X63640880Y-40593047D02*
X63545642Y-40640666D01*
X63545642Y-40640666D02*
X63355166Y-40688285D01*
X63355166Y-40688285D02*
X63117071Y-40688285D01*
X63117071Y-40688285D02*
X62926595Y-40640666D01*
X62926595Y-40640666D02*
X62831357Y-40593047D01*
X62831357Y-40593047D02*
X62783738Y-40545428D01*
X62783738Y-40545428D02*
X62736119Y-40450190D01*
X63736119Y-39688285D02*
X62736119Y-39688285D01*
X63355166Y-39593047D02*
X63736119Y-39307333D01*
X63069452Y-39307333D02*
X63450404Y-39688285D01*
X66953519Y-62230666D02*
X66477328Y-62563999D01*
X66953519Y-62802094D02*
X65953519Y-62802094D01*
X65953519Y-62802094D02*
X65953519Y-62421142D01*
X65953519Y-62421142D02*
X66001138Y-62325904D01*
X66001138Y-62325904D02*
X66048757Y-62278285D01*
X66048757Y-62278285D02*
X66143995Y-62230666D01*
X66143995Y-62230666D02*
X66286852Y-62230666D01*
X66286852Y-62230666D02*
X66382090Y-62278285D01*
X66382090Y-62278285D02*
X66429709Y-62325904D01*
X66429709Y-62325904D02*
X66477328Y-62421142D01*
X66477328Y-62421142D02*
X66477328Y-62802094D01*
X65953519Y-61897332D02*
X65953519Y-61230666D01*
X65953519Y-61230666D02*
X66953519Y-61659237D01*
X66953519Y-58849238D02*
X66953519Y-59420666D01*
X66953519Y-59134952D02*
X65953519Y-59134952D01*
X65953519Y-59134952D02*
X66096376Y-59230190D01*
X66096376Y-59230190D02*
X66191614Y-59325428D01*
X66191614Y-59325428D02*
X66239233Y-59420666D01*
X65953519Y-58230190D02*
X65953519Y-58134952D01*
X65953519Y-58134952D02*
X66001138Y-58039714D01*
X66001138Y-58039714D02*
X66048757Y-57992095D01*
X66048757Y-57992095D02*
X66143995Y-57944476D01*
X66143995Y-57944476D02*
X66334471Y-57896857D01*
X66334471Y-57896857D02*
X66572566Y-57896857D01*
X66572566Y-57896857D02*
X66763042Y-57944476D01*
X66763042Y-57944476D02*
X66858280Y-57992095D01*
X66858280Y-57992095D02*
X66905900Y-58039714D01*
X66905900Y-58039714D02*
X66953519Y-58134952D01*
X66953519Y-58134952D02*
X66953519Y-58230190D01*
X66953519Y-58230190D02*
X66905900Y-58325428D01*
X66905900Y-58325428D02*
X66858280Y-58373047D01*
X66858280Y-58373047D02*
X66763042Y-58420666D01*
X66763042Y-58420666D02*
X66572566Y-58468285D01*
X66572566Y-58468285D02*
X66334471Y-58468285D01*
X66334471Y-58468285D02*
X66143995Y-58420666D01*
X66143995Y-58420666D02*
X66048757Y-58373047D01*
X66048757Y-58373047D02*
X66001138Y-58325428D01*
X66001138Y-58325428D02*
X65953519Y-58230190D01*
X66953519Y-57468285D02*
X65953519Y-57468285D01*
X66572566Y-57373047D02*
X66953519Y-57087333D01*
X66286852Y-57087333D02*
X66667804Y-57468285D01*
X66953519Y-44704666D02*
X66477328Y-45037999D01*
X66953519Y-45276094D02*
X65953519Y-45276094D01*
X65953519Y-45276094D02*
X65953519Y-44895142D01*
X65953519Y-44895142D02*
X66001138Y-44799904D01*
X66001138Y-44799904D02*
X66048757Y-44752285D01*
X66048757Y-44752285D02*
X66143995Y-44704666D01*
X66143995Y-44704666D02*
X66286852Y-44704666D01*
X66286852Y-44704666D02*
X66382090Y-44752285D01*
X66382090Y-44752285D02*
X66429709Y-44799904D01*
X66429709Y-44799904D02*
X66477328Y-44895142D01*
X66477328Y-44895142D02*
X66477328Y-45276094D01*
X65953519Y-43799904D02*
X65953519Y-44276094D01*
X65953519Y-44276094D02*
X66429709Y-44323713D01*
X66429709Y-44323713D02*
X66382090Y-44276094D01*
X66382090Y-44276094D02*
X66334471Y-44180856D01*
X66334471Y-44180856D02*
X66334471Y-43942761D01*
X66334471Y-43942761D02*
X66382090Y-43847523D01*
X66382090Y-43847523D02*
X66429709Y-43799904D01*
X66429709Y-43799904D02*
X66524947Y-43752285D01*
X66524947Y-43752285D02*
X66763042Y-43752285D01*
X66763042Y-43752285D02*
X66858280Y-43799904D01*
X66858280Y-43799904D02*
X66905900Y-43847523D01*
X66905900Y-43847523D02*
X66953519Y-43942761D01*
X66953519Y-43942761D02*
X66953519Y-44180856D01*
X66953519Y-44180856D02*
X66905900Y-44276094D01*
X66905900Y-44276094D02*
X66858280Y-44323713D01*
X66953519Y-41069238D02*
X66953519Y-41640666D01*
X66953519Y-41354952D02*
X65953519Y-41354952D01*
X65953519Y-41354952D02*
X66096376Y-41450190D01*
X66096376Y-41450190D02*
X66191614Y-41545428D01*
X66191614Y-41545428D02*
X66239233Y-41640666D01*
X65953519Y-40450190D02*
X65953519Y-40354952D01*
X65953519Y-40354952D02*
X66001138Y-40259714D01*
X66001138Y-40259714D02*
X66048757Y-40212095D01*
X66048757Y-40212095D02*
X66143995Y-40164476D01*
X66143995Y-40164476D02*
X66334471Y-40116857D01*
X66334471Y-40116857D02*
X66572566Y-40116857D01*
X66572566Y-40116857D02*
X66763042Y-40164476D01*
X66763042Y-40164476D02*
X66858280Y-40212095D01*
X66858280Y-40212095D02*
X66905900Y-40259714D01*
X66905900Y-40259714D02*
X66953519Y-40354952D01*
X66953519Y-40354952D02*
X66953519Y-40450190D01*
X66953519Y-40450190D02*
X66905900Y-40545428D01*
X66905900Y-40545428D02*
X66858280Y-40593047D01*
X66858280Y-40593047D02*
X66763042Y-40640666D01*
X66763042Y-40640666D02*
X66572566Y-40688285D01*
X66572566Y-40688285D02*
X66334471Y-40688285D01*
X66334471Y-40688285D02*
X66143995Y-40640666D01*
X66143995Y-40640666D02*
X66048757Y-40593047D01*
X66048757Y-40593047D02*
X66001138Y-40545428D01*
X66001138Y-40545428D02*
X65953519Y-40450190D01*
X66953519Y-39688285D02*
X65953519Y-39688285D01*
X66572566Y-39593047D02*
X66953519Y-39307333D01*
X66286852Y-39307333D02*
X66667804Y-39688285D01*
X70170819Y-62230666D02*
X69694628Y-62563999D01*
X70170819Y-62802094D02*
X69170819Y-62802094D01*
X69170819Y-62802094D02*
X69170819Y-62421142D01*
X69170819Y-62421142D02*
X69218438Y-62325904D01*
X69218438Y-62325904D02*
X69266057Y-62278285D01*
X69266057Y-62278285D02*
X69361295Y-62230666D01*
X69361295Y-62230666D02*
X69504152Y-62230666D01*
X69504152Y-62230666D02*
X69599390Y-62278285D01*
X69599390Y-62278285D02*
X69647009Y-62325904D01*
X69647009Y-62325904D02*
X69694628Y-62421142D01*
X69694628Y-62421142D02*
X69694628Y-62802094D01*
X69170819Y-61373523D02*
X69170819Y-61563999D01*
X69170819Y-61563999D02*
X69218438Y-61659237D01*
X69218438Y-61659237D02*
X69266057Y-61706856D01*
X69266057Y-61706856D02*
X69408914Y-61802094D01*
X69408914Y-61802094D02*
X69599390Y-61849713D01*
X69599390Y-61849713D02*
X69980342Y-61849713D01*
X69980342Y-61849713D02*
X70075580Y-61802094D01*
X70075580Y-61802094D02*
X70123200Y-61754475D01*
X70123200Y-61754475D02*
X70170819Y-61659237D01*
X70170819Y-61659237D02*
X70170819Y-61468761D01*
X70170819Y-61468761D02*
X70123200Y-61373523D01*
X70123200Y-61373523D02*
X70075580Y-61325904D01*
X70075580Y-61325904D02*
X69980342Y-61278285D01*
X69980342Y-61278285D02*
X69742247Y-61278285D01*
X69742247Y-61278285D02*
X69647009Y-61325904D01*
X69647009Y-61325904D02*
X69599390Y-61373523D01*
X69599390Y-61373523D02*
X69551771Y-61468761D01*
X69551771Y-61468761D02*
X69551771Y-61659237D01*
X69551771Y-61659237D02*
X69599390Y-61754475D01*
X69599390Y-61754475D02*
X69647009Y-61802094D01*
X69647009Y-61802094D02*
X69742247Y-61849713D01*
X70170819Y-58849238D02*
X70170819Y-59420666D01*
X70170819Y-59134952D02*
X69170819Y-59134952D01*
X69170819Y-59134952D02*
X69313676Y-59230190D01*
X69313676Y-59230190D02*
X69408914Y-59325428D01*
X69408914Y-59325428D02*
X69456533Y-59420666D01*
X69170819Y-58230190D02*
X69170819Y-58134952D01*
X69170819Y-58134952D02*
X69218438Y-58039714D01*
X69218438Y-58039714D02*
X69266057Y-57992095D01*
X69266057Y-57992095D02*
X69361295Y-57944476D01*
X69361295Y-57944476D02*
X69551771Y-57896857D01*
X69551771Y-57896857D02*
X69789866Y-57896857D01*
X69789866Y-57896857D02*
X69980342Y-57944476D01*
X69980342Y-57944476D02*
X70075580Y-57992095D01*
X70075580Y-57992095D02*
X70123200Y-58039714D01*
X70123200Y-58039714D02*
X70170819Y-58134952D01*
X70170819Y-58134952D02*
X70170819Y-58230190D01*
X70170819Y-58230190D02*
X70123200Y-58325428D01*
X70123200Y-58325428D02*
X70075580Y-58373047D01*
X70075580Y-58373047D02*
X69980342Y-58420666D01*
X69980342Y-58420666D02*
X69789866Y-58468285D01*
X69789866Y-58468285D02*
X69551771Y-58468285D01*
X69551771Y-58468285D02*
X69361295Y-58420666D01*
X69361295Y-58420666D02*
X69266057Y-58373047D01*
X69266057Y-58373047D02*
X69218438Y-58325428D01*
X69218438Y-58325428D02*
X69170819Y-58230190D01*
X70170819Y-57468285D02*
X69170819Y-57468285D01*
X69789866Y-57373047D02*
X70170819Y-57087333D01*
X69504152Y-57087333D02*
X69885104Y-57468285D01*
X60518819Y-62198857D02*
X60042628Y-62532190D01*
X60518819Y-62770285D02*
X59518819Y-62770285D01*
X59518819Y-62770285D02*
X59518819Y-62389333D01*
X59518819Y-62389333D02*
X59566438Y-62294095D01*
X59566438Y-62294095D02*
X59614057Y-62246476D01*
X59614057Y-62246476D02*
X59709295Y-62198857D01*
X59709295Y-62198857D02*
X59852152Y-62198857D01*
X59852152Y-62198857D02*
X59947390Y-62246476D01*
X59947390Y-62246476D02*
X59995009Y-62294095D01*
X59995009Y-62294095D02*
X60042628Y-62389333D01*
X60042628Y-62389333D02*
X60042628Y-62770285D01*
X60518819Y-61246476D02*
X60518819Y-61817904D01*
X60518819Y-61532190D02*
X59518819Y-61532190D01*
X59518819Y-61532190D02*
X59661676Y-61627428D01*
X59661676Y-61627428D02*
X59756914Y-61722666D01*
X59756914Y-61722666D02*
X59804533Y-61817904D01*
X59518819Y-60627428D02*
X59518819Y-60532190D01*
X59518819Y-60532190D02*
X59566438Y-60436952D01*
X59566438Y-60436952D02*
X59614057Y-60389333D01*
X59614057Y-60389333D02*
X59709295Y-60341714D01*
X59709295Y-60341714D02*
X59899771Y-60294095D01*
X59899771Y-60294095D02*
X60137866Y-60294095D01*
X60137866Y-60294095D02*
X60328342Y-60341714D01*
X60328342Y-60341714D02*
X60423580Y-60389333D01*
X60423580Y-60389333D02*
X60471200Y-60436952D01*
X60471200Y-60436952D02*
X60518819Y-60532190D01*
X60518819Y-60532190D02*
X60518819Y-60627428D01*
X60518819Y-60627428D02*
X60471200Y-60722666D01*
X60471200Y-60722666D02*
X60423580Y-60770285D01*
X60423580Y-60770285D02*
X60328342Y-60817904D01*
X60328342Y-60817904D02*
X60137866Y-60865523D01*
X60137866Y-60865523D02*
X59899771Y-60865523D01*
X59899771Y-60865523D02*
X59709295Y-60817904D01*
X59709295Y-60817904D02*
X59614057Y-60770285D01*
X59614057Y-60770285D02*
X59566438Y-60722666D01*
X59566438Y-60722666D02*
X59518819Y-60627428D01*
X60518819Y-58849238D02*
X60518819Y-59420666D01*
X60518819Y-59134952D02*
X59518819Y-59134952D01*
X59518819Y-59134952D02*
X59661676Y-59230190D01*
X59661676Y-59230190D02*
X59756914Y-59325428D01*
X59756914Y-59325428D02*
X59804533Y-59420666D01*
X59518819Y-58230190D02*
X59518819Y-58134952D01*
X59518819Y-58134952D02*
X59566438Y-58039714D01*
X59566438Y-58039714D02*
X59614057Y-57992095D01*
X59614057Y-57992095D02*
X59709295Y-57944476D01*
X59709295Y-57944476D02*
X59899771Y-57896857D01*
X59899771Y-57896857D02*
X60137866Y-57896857D01*
X60137866Y-57896857D02*
X60328342Y-57944476D01*
X60328342Y-57944476D02*
X60423580Y-57992095D01*
X60423580Y-57992095D02*
X60471200Y-58039714D01*
X60471200Y-58039714D02*
X60518819Y-58134952D01*
X60518819Y-58134952D02*
X60518819Y-58230190D01*
X60518819Y-58230190D02*
X60471200Y-58325428D01*
X60471200Y-58325428D02*
X60423580Y-58373047D01*
X60423580Y-58373047D02*
X60328342Y-58420666D01*
X60328342Y-58420666D02*
X60137866Y-58468285D01*
X60137866Y-58468285D02*
X59899771Y-58468285D01*
X59899771Y-58468285D02*
X59709295Y-58420666D01*
X59709295Y-58420666D02*
X59614057Y-58373047D01*
X59614057Y-58373047D02*
X59566438Y-58325428D01*
X59566438Y-58325428D02*
X59518819Y-58230190D01*
X60518819Y-57468285D02*
X59518819Y-57468285D01*
X60137866Y-57373047D02*
X60518819Y-57087333D01*
X59852152Y-57087333D02*
X60233104Y-57468285D01*
X70170819Y-44704666D02*
X69694628Y-45037999D01*
X70170819Y-45276094D02*
X69170819Y-45276094D01*
X69170819Y-45276094D02*
X69170819Y-44895142D01*
X69170819Y-44895142D02*
X69218438Y-44799904D01*
X69218438Y-44799904D02*
X69266057Y-44752285D01*
X69266057Y-44752285D02*
X69361295Y-44704666D01*
X69361295Y-44704666D02*
X69504152Y-44704666D01*
X69504152Y-44704666D02*
X69599390Y-44752285D01*
X69599390Y-44752285D02*
X69647009Y-44799904D01*
X69647009Y-44799904D02*
X69694628Y-44895142D01*
X69694628Y-44895142D02*
X69694628Y-45276094D01*
X69599390Y-44133237D02*
X69551771Y-44228475D01*
X69551771Y-44228475D02*
X69504152Y-44276094D01*
X69504152Y-44276094D02*
X69408914Y-44323713D01*
X69408914Y-44323713D02*
X69361295Y-44323713D01*
X69361295Y-44323713D02*
X69266057Y-44276094D01*
X69266057Y-44276094D02*
X69218438Y-44228475D01*
X69218438Y-44228475D02*
X69170819Y-44133237D01*
X69170819Y-44133237D02*
X69170819Y-43942761D01*
X69170819Y-43942761D02*
X69218438Y-43847523D01*
X69218438Y-43847523D02*
X69266057Y-43799904D01*
X69266057Y-43799904D02*
X69361295Y-43752285D01*
X69361295Y-43752285D02*
X69408914Y-43752285D01*
X69408914Y-43752285D02*
X69504152Y-43799904D01*
X69504152Y-43799904D02*
X69551771Y-43847523D01*
X69551771Y-43847523D02*
X69599390Y-43942761D01*
X69599390Y-43942761D02*
X69599390Y-44133237D01*
X69599390Y-44133237D02*
X69647009Y-44228475D01*
X69647009Y-44228475D02*
X69694628Y-44276094D01*
X69694628Y-44276094D02*
X69789866Y-44323713D01*
X69789866Y-44323713D02*
X69980342Y-44323713D01*
X69980342Y-44323713D02*
X70075580Y-44276094D01*
X70075580Y-44276094D02*
X70123200Y-44228475D01*
X70123200Y-44228475D02*
X70170819Y-44133237D01*
X70170819Y-44133237D02*
X70170819Y-43942761D01*
X70170819Y-43942761D02*
X70123200Y-43847523D01*
X70123200Y-43847523D02*
X70075580Y-43799904D01*
X70075580Y-43799904D02*
X69980342Y-43752285D01*
X69980342Y-43752285D02*
X69789866Y-43752285D01*
X69789866Y-43752285D02*
X69694628Y-43799904D01*
X69694628Y-43799904D02*
X69647009Y-43847523D01*
X69647009Y-43847523D02*
X69599390Y-43942761D01*
X70170819Y-41069238D02*
X70170819Y-41640666D01*
X70170819Y-41354952D02*
X69170819Y-41354952D01*
X69170819Y-41354952D02*
X69313676Y-41450190D01*
X69313676Y-41450190D02*
X69408914Y-41545428D01*
X69408914Y-41545428D02*
X69456533Y-41640666D01*
X69170819Y-40450190D02*
X69170819Y-40354952D01*
X69170819Y-40354952D02*
X69218438Y-40259714D01*
X69218438Y-40259714D02*
X69266057Y-40212095D01*
X69266057Y-40212095D02*
X69361295Y-40164476D01*
X69361295Y-40164476D02*
X69551771Y-40116857D01*
X69551771Y-40116857D02*
X69789866Y-40116857D01*
X69789866Y-40116857D02*
X69980342Y-40164476D01*
X69980342Y-40164476D02*
X70075580Y-40212095D01*
X70075580Y-40212095D02*
X70123200Y-40259714D01*
X70123200Y-40259714D02*
X70170819Y-40354952D01*
X70170819Y-40354952D02*
X70170819Y-40450190D01*
X70170819Y-40450190D02*
X70123200Y-40545428D01*
X70123200Y-40545428D02*
X70075580Y-40593047D01*
X70075580Y-40593047D02*
X69980342Y-40640666D01*
X69980342Y-40640666D02*
X69789866Y-40688285D01*
X69789866Y-40688285D02*
X69551771Y-40688285D01*
X69551771Y-40688285D02*
X69361295Y-40640666D01*
X69361295Y-40640666D02*
X69266057Y-40593047D01*
X69266057Y-40593047D02*
X69218438Y-40545428D01*
X69218438Y-40545428D02*
X69170819Y-40450190D01*
X70170819Y-39688285D02*
X69170819Y-39688285D01*
X69789866Y-39593047D02*
X70170819Y-39307333D01*
X69504152Y-39307333D02*
X69885104Y-39688285D01*
X80939857Y-65256619D02*
X81511285Y-65256619D01*
X81225571Y-66256619D02*
X81225571Y-65256619D01*
X82416047Y-66161380D02*
X82368428Y-66209000D01*
X82368428Y-66209000D02*
X82225571Y-66256619D01*
X82225571Y-66256619D02*
X82130333Y-66256619D01*
X82130333Y-66256619D02*
X81987476Y-66209000D01*
X81987476Y-66209000D02*
X81892238Y-66113761D01*
X81892238Y-66113761D02*
X81844619Y-66018523D01*
X81844619Y-66018523D02*
X81797000Y-65828047D01*
X81797000Y-65828047D02*
X81797000Y-65685190D01*
X81797000Y-65685190D02*
X81844619Y-65494714D01*
X81844619Y-65494714D02*
X81892238Y-65399476D01*
X81892238Y-65399476D02*
X81987476Y-65304238D01*
X81987476Y-65304238D02*
X82130333Y-65256619D01*
X82130333Y-65256619D02*
X82225571Y-65256619D01*
X82225571Y-65256619D02*
X82368428Y-65304238D01*
X82368428Y-65304238D02*
X82416047Y-65351857D01*
X83177952Y-65732809D02*
X83320809Y-65780428D01*
X83320809Y-65780428D02*
X83368428Y-65828047D01*
X83368428Y-65828047D02*
X83416047Y-65923285D01*
X83416047Y-65923285D02*
X83416047Y-66066142D01*
X83416047Y-66066142D02*
X83368428Y-66161380D01*
X83368428Y-66161380D02*
X83320809Y-66209000D01*
X83320809Y-66209000D02*
X83225571Y-66256619D01*
X83225571Y-66256619D02*
X82844619Y-66256619D01*
X82844619Y-66256619D02*
X82844619Y-65256619D01*
X82844619Y-65256619D02*
X83177952Y-65256619D01*
X83177952Y-65256619D02*
X83273190Y-65304238D01*
X83273190Y-65304238D02*
X83320809Y-65351857D01*
X83320809Y-65351857D02*
X83368428Y-65447095D01*
X83368428Y-65447095D02*
X83368428Y-65542333D01*
X83368428Y-65542333D02*
X83320809Y-65637571D01*
X83320809Y-65637571D02*
X83273190Y-65685190D01*
X83273190Y-65685190D02*
X83177952Y-65732809D01*
X83177952Y-65732809D02*
X82844619Y-65732809D01*
X83844619Y-66256619D02*
X83844619Y-65256619D01*
X83844619Y-65256619D02*
X84177952Y-65970904D01*
X84177952Y-65970904D02*
X84511285Y-65256619D01*
X84511285Y-65256619D02*
X84511285Y-66256619D01*
X79280761Y-68614819D02*
X78709333Y-68614819D01*
X78995047Y-68614819D02*
X78995047Y-67614819D01*
X78995047Y-67614819D02*
X78899809Y-67757676D01*
X78899809Y-67757676D02*
X78804571Y-67852914D01*
X78804571Y-67852914D02*
X78709333Y-67900533D01*
X79899809Y-67614819D02*
X79995047Y-67614819D01*
X79995047Y-67614819D02*
X80090285Y-67662438D01*
X80090285Y-67662438D02*
X80137904Y-67710057D01*
X80137904Y-67710057D02*
X80185523Y-67805295D01*
X80185523Y-67805295D02*
X80233142Y-67995771D01*
X80233142Y-67995771D02*
X80233142Y-68233866D01*
X80233142Y-68233866D02*
X80185523Y-68424342D01*
X80185523Y-68424342D02*
X80137904Y-68519580D01*
X80137904Y-68519580D02*
X80090285Y-68567200D01*
X80090285Y-68567200D02*
X79995047Y-68614819D01*
X79995047Y-68614819D02*
X79899809Y-68614819D01*
X79899809Y-68614819D02*
X79804571Y-68567200D01*
X79804571Y-68567200D02*
X79756952Y-68519580D01*
X79756952Y-68519580D02*
X79709333Y-68424342D01*
X79709333Y-68424342D02*
X79661714Y-68233866D01*
X79661714Y-68233866D02*
X79661714Y-67995771D01*
X79661714Y-67995771D02*
X79709333Y-67805295D01*
X79709333Y-67805295D02*
X79756952Y-67710057D01*
X79756952Y-67710057D02*
X79804571Y-67662438D01*
X79804571Y-67662438D02*
X79899809Y-67614819D01*
X80661714Y-68614819D02*
X80661714Y-67614819D01*
X80756952Y-68233866D02*
X81042666Y-68614819D01*
X81042666Y-67948152D02*
X80661714Y-68329104D01*
X62000761Y-70742057D02*
X61905523Y-70694438D01*
X61905523Y-70694438D02*
X61810285Y-70599200D01*
X61810285Y-70599200D02*
X61667428Y-70456342D01*
X61667428Y-70456342D02*
X61572190Y-70408723D01*
X61572190Y-70408723D02*
X61476952Y-70408723D01*
X61524571Y-70646819D02*
X61429333Y-70599200D01*
X61429333Y-70599200D02*
X61334095Y-70503961D01*
X61334095Y-70503961D02*
X61286476Y-70313485D01*
X61286476Y-70313485D02*
X61286476Y-69980152D01*
X61286476Y-69980152D02*
X61334095Y-69789676D01*
X61334095Y-69789676D02*
X61429333Y-69694438D01*
X61429333Y-69694438D02*
X61524571Y-69646819D01*
X61524571Y-69646819D02*
X61715047Y-69646819D01*
X61715047Y-69646819D02*
X61810285Y-69694438D01*
X61810285Y-69694438D02*
X61905523Y-69789676D01*
X61905523Y-69789676D02*
X61953142Y-69980152D01*
X61953142Y-69980152D02*
X61953142Y-70313485D01*
X61953142Y-70313485D02*
X61905523Y-70503961D01*
X61905523Y-70503961D02*
X61810285Y-70599200D01*
X61810285Y-70599200D02*
X61715047Y-70646819D01*
X61715047Y-70646819D02*
X61524571Y-70646819D01*
X62810285Y-69980152D02*
X62810285Y-70646819D01*
X62572190Y-69599200D02*
X62334095Y-70313485D01*
X62334095Y-70313485D02*
X62953142Y-70313485D01*
X68096761Y-70594057D02*
X68001523Y-70546438D01*
X68001523Y-70546438D02*
X67906285Y-70451200D01*
X67906285Y-70451200D02*
X67763428Y-70308342D01*
X67763428Y-70308342D02*
X67668190Y-70260723D01*
X67668190Y-70260723D02*
X67572952Y-70260723D01*
X67620571Y-70498819D02*
X67525333Y-70451200D01*
X67525333Y-70451200D02*
X67430095Y-70355961D01*
X67430095Y-70355961D02*
X67382476Y-70165485D01*
X67382476Y-70165485D02*
X67382476Y-69832152D01*
X67382476Y-69832152D02*
X67430095Y-69641676D01*
X67430095Y-69641676D02*
X67525333Y-69546438D01*
X67525333Y-69546438D02*
X67620571Y-69498819D01*
X67620571Y-69498819D02*
X67811047Y-69498819D01*
X67811047Y-69498819D02*
X67906285Y-69546438D01*
X67906285Y-69546438D02*
X68001523Y-69641676D01*
X68001523Y-69641676D02*
X68049142Y-69832152D01*
X68049142Y-69832152D02*
X68049142Y-70165485D01*
X68049142Y-70165485D02*
X68001523Y-70355961D01*
X68001523Y-70355961D02*
X67906285Y-70451200D01*
X67906285Y-70451200D02*
X67811047Y-70498819D01*
X67811047Y-70498819D02*
X67620571Y-70498819D01*
X68382476Y-69498819D02*
X69001523Y-69498819D01*
X69001523Y-69498819D02*
X68668190Y-69879771D01*
X68668190Y-69879771D02*
X68811047Y-69879771D01*
X68811047Y-69879771D02*
X68906285Y-69927390D01*
X68906285Y-69927390D02*
X68953904Y-69975009D01*
X68953904Y-69975009D02*
X69001523Y-70070247D01*
X69001523Y-70070247D02*
X69001523Y-70308342D01*
X69001523Y-70308342D02*
X68953904Y-70403580D01*
X68953904Y-70403580D02*
X68906285Y-70451200D01*
X68906285Y-70451200D02*
X68811047Y-70498819D01*
X68811047Y-70498819D02*
X68525333Y-70498819D01*
X68525333Y-70498819D02*
X68430095Y-70451200D01*
X68430095Y-70451200D02*
X68382476Y-70403580D01*
X68096761Y-50168057D02*
X68001523Y-50120438D01*
X68001523Y-50120438D02*
X67906285Y-50025200D01*
X67906285Y-50025200D02*
X67763428Y-49882342D01*
X67763428Y-49882342D02*
X67668190Y-49834723D01*
X67668190Y-49834723D02*
X67572952Y-49834723D01*
X67620571Y-50072819D02*
X67525333Y-50025200D01*
X67525333Y-50025200D02*
X67430095Y-49929961D01*
X67430095Y-49929961D02*
X67382476Y-49739485D01*
X67382476Y-49739485D02*
X67382476Y-49406152D01*
X67382476Y-49406152D02*
X67430095Y-49215676D01*
X67430095Y-49215676D02*
X67525333Y-49120438D01*
X67525333Y-49120438D02*
X67620571Y-49072819D01*
X67620571Y-49072819D02*
X67811047Y-49072819D01*
X67811047Y-49072819D02*
X67906285Y-49120438D01*
X67906285Y-49120438D02*
X68001523Y-49215676D01*
X68001523Y-49215676D02*
X68049142Y-49406152D01*
X68049142Y-49406152D02*
X68049142Y-49739485D01*
X68049142Y-49739485D02*
X68001523Y-49929961D01*
X68001523Y-49929961D02*
X67906285Y-50025200D01*
X67906285Y-50025200D02*
X67811047Y-50072819D01*
X67811047Y-50072819D02*
X67620571Y-50072819D01*
X68430095Y-49168057D02*
X68477714Y-49120438D01*
X68477714Y-49120438D02*
X68572952Y-49072819D01*
X68572952Y-49072819D02*
X68811047Y-49072819D01*
X68811047Y-49072819D02*
X68906285Y-49120438D01*
X68906285Y-49120438D02*
X68953904Y-49168057D01*
X68953904Y-49168057D02*
X69001523Y-49263295D01*
X69001523Y-49263295D02*
X69001523Y-49358533D01*
X69001523Y-49358533D02*
X68953904Y-49501390D01*
X68953904Y-49501390D02*
X68382476Y-50072819D01*
X68382476Y-50072819D02*
X69001523Y-50072819D01*
X62000761Y-50274057D02*
X61905523Y-50226438D01*
X61905523Y-50226438D02*
X61810285Y-50131200D01*
X61810285Y-50131200D02*
X61667428Y-49988342D01*
X61667428Y-49988342D02*
X61572190Y-49940723D01*
X61572190Y-49940723D02*
X61476952Y-49940723D01*
X61524571Y-50178819D02*
X61429333Y-50131200D01*
X61429333Y-50131200D02*
X61334095Y-50035961D01*
X61334095Y-50035961D02*
X61286476Y-49845485D01*
X61286476Y-49845485D02*
X61286476Y-49512152D01*
X61286476Y-49512152D02*
X61334095Y-49321676D01*
X61334095Y-49321676D02*
X61429333Y-49226438D01*
X61429333Y-49226438D02*
X61524571Y-49178819D01*
X61524571Y-49178819D02*
X61715047Y-49178819D01*
X61715047Y-49178819D02*
X61810285Y-49226438D01*
X61810285Y-49226438D02*
X61905523Y-49321676D01*
X61905523Y-49321676D02*
X61953142Y-49512152D01*
X61953142Y-49512152D02*
X61953142Y-49845485D01*
X61953142Y-49845485D02*
X61905523Y-50035961D01*
X61905523Y-50035961D02*
X61810285Y-50131200D01*
X61810285Y-50131200D02*
X61715047Y-50178819D01*
X61715047Y-50178819D02*
X61524571Y-50178819D01*
X62905523Y-50178819D02*
X62334095Y-50178819D01*
X62619809Y-50178819D02*
X62619809Y-49178819D01*
X62619809Y-49178819D02*
X62524571Y-49321676D01*
X62524571Y-49321676D02*
X62429333Y-49416914D01*
X62429333Y-49416914D02*
X62334095Y-49464533D01*
X73678666Y-62766819D02*
X73678666Y-63481104D01*
X73678666Y-63481104D02*
X73631047Y-63623961D01*
X73631047Y-63623961D02*
X73535809Y-63719200D01*
X73535809Y-63719200D02*
X73392952Y-63766819D01*
X73392952Y-63766819D02*
X73297714Y-63766819D01*
X74154857Y-63766819D02*
X74154857Y-62766819D01*
X74154857Y-62766819D02*
X74535809Y-62766819D01*
X74535809Y-62766819D02*
X74631047Y-62814438D01*
X74631047Y-62814438D02*
X74678666Y-62862057D01*
X74678666Y-62862057D02*
X74726285Y-62957295D01*
X74726285Y-62957295D02*
X74726285Y-63100152D01*
X74726285Y-63100152D02*
X74678666Y-63195390D01*
X74678666Y-63195390D02*
X74631047Y-63243009D01*
X74631047Y-63243009D02*
X74535809Y-63290628D01*
X74535809Y-63290628D02*
X74154857Y-63290628D01*
X75107238Y-62862057D02*
X75154857Y-62814438D01*
X75154857Y-62814438D02*
X75250095Y-62766819D01*
X75250095Y-62766819D02*
X75488190Y-62766819D01*
X75488190Y-62766819D02*
X75583428Y-62814438D01*
X75583428Y-62814438D02*
X75631047Y-62862057D01*
X75631047Y-62862057D02*
X75678666Y-62957295D01*
X75678666Y-62957295D02*
X75678666Y-63052533D01*
X75678666Y-63052533D02*
X75631047Y-63195390D01*
X75631047Y-63195390D02*
X75059619Y-63766819D01*
X75059619Y-63766819D02*
X75678666Y-63766819D01*
X76778667Y-64566819D02*
X77397714Y-64566819D01*
X77397714Y-64566819D02*
X77064381Y-64947771D01*
X77064381Y-64947771D02*
X77207238Y-64947771D01*
X77207238Y-64947771D02*
X77302476Y-64995390D01*
X77302476Y-64995390D02*
X77350095Y-65043009D01*
X77350095Y-65043009D02*
X77397714Y-65138247D01*
X77397714Y-65138247D02*
X77397714Y-65376342D01*
X77397714Y-65376342D02*
X77350095Y-65471580D01*
X77350095Y-65471580D02*
X77302476Y-65519200D01*
X77302476Y-65519200D02*
X77207238Y-65566819D01*
X77207238Y-65566819D02*
X76921524Y-65566819D01*
X76921524Y-65566819D02*
X76826286Y-65519200D01*
X76826286Y-65519200D02*
X76778667Y-65471580D01*
X72197714Y-65566819D02*
X71626286Y-65566819D01*
X71912000Y-65566819D02*
X71912000Y-64566819D01*
X71912000Y-64566819D02*
X71816762Y-64709676D01*
X71816762Y-64709676D02*
X71721524Y-64804914D01*
X71721524Y-64804914D02*
X71626286Y-64852533D01*
X71688819Y-59879333D02*
X72403104Y-59879333D01*
X72403104Y-59879333D02*
X72545961Y-59926952D01*
X72545961Y-59926952D02*
X72641200Y-60022190D01*
X72641200Y-60022190D02*
X72688819Y-60165047D01*
X72688819Y-60165047D02*
X72688819Y-60260285D01*
X72688819Y-59403142D02*
X71688819Y-59403142D01*
X71688819Y-59403142D02*
X71688819Y-59022190D01*
X71688819Y-59022190D02*
X71736438Y-58926952D01*
X71736438Y-58926952D02*
X71784057Y-58879333D01*
X71784057Y-58879333D02*
X71879295Y-58831714D01*
X71879295Y-58831714D02*
X72022152Y-58831714D01*
X72022152Y-58831714D02*
X72117390Y-58879333D01*
X72117390Y-58879333D02*
X72165009Y-58926952D01*
X72165009Y-58926952D02*
X72212628Y-59022190D01*
X72212628Y-59022190D02*
X72212628Y-59403142D01*
X72688819Y-57879333D02*
X72688819Y-58450761D01*
X72688819Y-58165047D02*
X71688819Y-58165047D01*
X71688819Y-58165047D02*
X71831676Y-58260285D01*
X71831676Y-58260285D02*
X71926914Y-58355523D01*
X71926914Y-58355523D02*
X71974533Y-58450761D01*
X73488819Y-56779332D02*
X73488819Y-56160285D01*
X73488819Y-56160285D02*
X73869771Y-56493618D01*
X73869771Y-56493618D02*
X73869771Y-56350761D01*
X73869771Y-56350761D02*
X73917390Y-56255523D01*
X73917390Y-56255523D02*
X73965009Y-56207904D01*
X73965009Y-56207904D02*
X74060247Y-56160285D01*
X74060247Y-56160285D02*
X74298342Y-56160285D01*
X74298342Y-56160285D02*
X74393580Y-56207904D01*
X74393580Y-56207904D02*
X74441200Y-56255523D01*
X74441200Y-56255523D02*
X74488819Y-56350761D01*
X74488819Y-56350761D02*
X74488819Y-56636475D01*
X74488819Y-56636475D02*
X74441200Y-56731713D01*
X74441200Y-56731713D02*
X74393580Y-56779332D01*
X74488819Y-61360285D02*
X74488819Y-61931713D01*
X74488819Y-61645999D02*
X73488819Y-61645999D01*
X73488819Y-61645999D02*
X73631676Y-61741237D01*
X73631676Y-61741237D02*
X73726914Y-61836475D01*
X73726914Y-61836475D02*
X73774533Y-61931713D01*
X73446666Y-35212019D02*
X73446666Y-35926304D01*
X73446666Y-35926304D02*
X73399047Y-36069161D01*
X73399047Y-36069161D02*
X73303809Y-36164400D01*
X73303809Y-36164400D02*
X73160952Y-36212019D01*
X73160952Y-36212019D02*
X73065714Y-36212019D01*
X74351428Y-35545352D02*
X74351428Y-36212019D01*
X74113333Y-35164400D02*
X73875238Y-35878685D01*
X73875238Y-35878685D02*
X74494285Y-35878685D01*
X44880819Y-67985333D02*
X45595104Y-67985333D01*
X45595104Y-67985333D02*
X45737961Y-68032952D01*
X45737961Y-68032952D02*
X45833200Y-68128190D01*
X45833200Y-68128190D02*
X45880819Y-68271047D01*
X45880819Y-68271047D02*
X45880819Y-68366285D01*
X44880819Y-67604380D02*
X44880819Y-66985333D01*
X44880819Y-66985333D02*
X45261771Y-67318666D01*
X45261771Y-67318666D02*
X45261771Y-67175809D01*
X45261771Y-67175809D02*
X45309390Y-67080571D01*
X45309390Y-67080571D02*
X45357009Y-67032952D01*
X45357009Y-67032952D02*
X45452247Y-66985333D01*
X45452247Y-66985333D02*
X45690342Y-66985333D01*
X45690342Y-66985333D02*
X45785580Y-67032952D01*
X45785580Y-67032952D02*
X45833200Y-67080571D01*
X45833200Y-67080571D02*
X45880819Y-67175809D01*
X45880819Y-67175809D02*
X45880819Y-67461523D01*
X45880819Y-67461523D02*
X45833200Y-67556761D01*
X45833200Y-67556761D02*
X45785580Y-67604380D01*
X80307905Y-72336819D02*
X80307905Y-71336819D01*
X80307905Y-71336819D02*
X80546000Y-71336819D01*
X80546000Y-71336819D02*
X80688857Y-71384438D01*
X80688857Y-71384438D02*
X80784095Y-71479676D01*
X80784095Y-71479676D02*
X80831714Y-71574914D01*
X80831714Y-71574914D02*
X80879333Y-71765390D01*
X80879333Y-71765390D02*
X80879333Y-71908247D01*
X80879333Y-71908247D02*
X80831714Y-72098723D01*
X80831714Y-72098723D02*
X80784095Y-72193961D01*
X80784095Y-72193961D02*
X80688857Y-72289200D01*
X80688857Y-72289200D02*
X80546000Y-72336819D01*
X80546000Y-72336819D02*
X80307905Y-72336819D01*
X81260286Y-71432057D02*
X81307905Y-71384438D01*
X81307905Y-71384438D02*
X81403143Y-71336819D01*
X81403143Y-71336819D02*
X81641238Y-71336819D01*
X81641238Y-71336819D02*
X81736476Y-71384438D01*
X81736476Y-71384438D02*
X81784095Y-71432057D01*
X81784095Y-71432057D02*
X81831714Y-71527295D01*
X81831714Y-71527295D02*
X81831714Y-71622533D01*
X81831714Y-71622533D02*
X81784095Y-71765390D01*
X81784095Y-71765390D02*
X81212667Y-72336819D01*
X81212667Y-72336819D02*
X81831714Y-72336819D01*
X72089523Y-71725009D02*
X72232380Y-71772628D01*
X72232380Y-71772628D02*
X72279999Y-71820247D01*
X72279999Y-71820247D02*
X72327618Y-71915485D01*
X72327618Y-71915485D02*
X72327618Y-72058342D01*
X72327618Y-72058342D02*
X72279999Y-72153580D01*
X72279999Y-72153580D02*
X72232380Y-72201200D01*
X72232380Y-72201200D02*
X72137142Y-72248819D01*
X72137142Y-72248819D02*
X71756190Y-72248819D01*
X71756190Y-72248819D02*
X71756190Y-71248819D01*
X71756190Y-71248819D02*
X72089523Y-71248819D01*
X72089523Y-71248819D02*
X72184761Y-71296438D01*
X72184761Y-71296438D02*
X72232380Y-71344057D01*
X72232380Y-71344057D02*
X72279999Y-71439295D01*
X72279999Y-71439295D02*
X72279999Y-71534533D01*
X72279999Y-71534533D02*
X72232380Y-71629771D01*
X72232380Y-71629771D02*
X72184761Y-71677390D01*
X72184761Y-71677390D02*
X72089523Y-71725009D01*
X72089523Y-71725009D02*
X71756190Y-71725009D01*
X72708571Y-71963104D02*
X73184761Y-71963104D01*
X72613333Y-72248819D02*
X72946666Y-71248819D01*
X72946666Y-71248819D02*
X73279999Y-72248819D01*
X73470476Y-71248819D02*
X74041904Y-71248819D01*
X73756190Y-72248819D02*
X73756190Y-71248819D01*
X74851428Y-71248819D02*
X74375238Y-71248819D01*
X74375238Y-71248819D02*
X74327619Y-71725009D01*
X74327619Y-71725009D02*
X74375238Y-71677390D01*
X74375238Y-71677390D02*
X74470476Y-71629771D01*
X74470476Y-71629771D02*
X74708571Y-71629771D01*
X74708571Y-71629771D02*
X74803809Y-71677390D01*
X74803809Y-71677390D02*
X74851428Y-71725009D01*
X74851428Y-71725009D02*
X74899047Y-71820247D01*
X74899047Y-71820247D02*
X74899047Y-72058342D01*
X74899047Y-72058342D02*
X74851428Y-72153580D01*
X74851428Y-72153580D02*
X74803809Y-72201200D01*
X74803809Y-72201200D02*
X74708571Y-72248819D01*
X74708571Y-72248819D02*
X74470476Y-72248819D01*
X74470476Y-72248819D02*
X74375238Y-72201200D01*
X74375238Y-72201200D02*
X74327619Y-72153580D01*
X75756190Y-71582152D02*
X75756190Y-72248819D01*
X75518095Y-71201200D02*
X75280000Y-71915485D01*
X75280000Y-71915485D02*
X75899047Y-71915485D01*
X84594095Y-74236819D02*
X84594095Y-73236819D01*
X85165523Y-74236819D02*
X84736952Y-73665390D01*
X85165523Y-73236819D02*
X84594095Y-73808247D01*
X43699047Y-62884009D02*
X43841904Y-62931628D01*
X43841904Y-62931628D02*
X43889523Y-62979247D01*
X43889523Y-62979247D02*
X43937142Y-63074485D01*
X43937142Y-63074485D02*
X43937142Y-63217342D01*
X43937142Y-63217342D02*
X43889523Y-63312580D01*
X43889523Y-63312580D02*
X43841904Y-63360200D01*
X43841904Y-63360200D02*
X43746666Y-63407819D01*
X43746666Y-63407819D02*
X43365714Y-63407819D01*
X43365714Y-63407819D02*
X43365714Y-62407819D01*
X43365714Y-62407819D02*
X43699047Y-62407819D01*
X43699047Y-62407819D02*
X43794285Y-62455438D01*
X43794285Y-62455438D02*
X43841904Y-62503057D01*
X43841904Y-62503057D02*
X43889523Y-62598295D01*
X43889523Y-62598295D02*
X43889523Y-62693533D01*
X43889523Y-62693533D02*
X43841904Y-62788771D01*
X43841904Y-62788771D02*
X43794285Y-62836390D01*
X43794285Y-62836390D02*
X43699047Y-62884009D01*
X43699047Y-62884009D02*
X43365714Y-62884009D01*
X44270476Y-62407819D02*
X44937142Y-62407819D01*
X44937142Y-62407819D02*
X44270476Y-63407819D01*
X44270476Y-63407819D02*
X44937142Y-63407819D01*
X45841904Y-63407819D02*
X45270476Y-63407819D01*
X45556190Y-63407819D02*
X45556190Y-62407819D01*
X45556190Y-62407819D02*
X45460952Y-62550676D01*
X45460952Y-62550676D02*
X45365714Y-62645914D01*
X45365714Y-62645914D02*
X45270476Y-62693533D01*
X40389048Y-56041866D02*
X41150953Y-56041866D01*
X40770000Y-56422819D02*
X40770000Y-55660914D01*
X75504819Y-82018094D02*
X74504819Y-82018094D01*
X74504819Y-82018094D02*
X74504819Y-81779999D01*
X74504819Y-81779999D02*
X74552438Y-81637142D01*
X74552438Y-81637142D02*
X74647676Y-81541904D01*
X74647676Y-81541904D02*
X74742914Y-81494285D01*
X74742914Y-81494285D02*
X74933390Y-81446666D01*
X74933390Y-81446666D02*
X75076247Y-81446666D01*
X75076247Y-81446666D02*
X75266723Y-81494285D01*
X75266723Y-81494285D02*
X75361961Y-81541904D01*
X75361961Y-81541904D02*
X75457200Y-81637142D01*
X75457200Y-81637142D02*
X75504819Y-81779999D01*
X75504819Y-81779999D02*
X75504819Y-82018094D01*
X75504819Y-80494285D02*
X75504819Y-81065713D01*
X75504819Y-80779999D02*
X74504819Y-80779999D01*
X74504819Y-80779999D02*
X74647676Y-80875237D01*
X74647676Y-80875237D02*
X74742914Y-80970475D01*
X74742914Y-80970475D02*
X74790533Y-81065713D01*
X78637905Y-75076057D02*
X78685524Y-75028438D01*
X78685524Y-75028438D02*
X78780762Y-74980819D01*
X78780762Y-74980819D02*
X79018857Y-74980819D01*
X79018857Y-74980819D02*
X79114095Y-75028438D01*
X79114095Y-75028438D02*
X79161714Y-75076057D01*
X79161714Y-75076057D02*
X79209333Y-75171295D01*
X79209333Y-75171295D02*
X79209333Y-75266533D01*
X79209333Y-75266533D02*
X79161714Y-75409390D01*
X79161714Y-75409390D02*
X78590286Y-75980819D01*
X78590286Y-75980819D02*
X79209333Y-75980819D01*
X79590286Y-75076057D02*
X79637905Y-75028438D01*
X79637905Y-75028438D02*
X79733143Y-74980819D01*
X79733143Y-74980819D02*
X79971238Y-74980819D01*
X79971238Y-74980819D02*
X80066476Y-75028438D01*
X80066476Y-75028438D02*
X80114095Y-75076057D01*
X80114095Y-75076057D02*
X80161714Y-75171295D01*
X80161714Y-75171295D02*
X80161714Y-75266533D01*
X80161714Y-75266533D02*
X80114095Y-75409390D01*
X80114095Y-75409390D02*
X79542667Y-75980819D01*
X79542667Y-75980819D02*
X80161714Y-75980819D01*
X80780762Y-74980819D02*
X80876000Y-74980819D01*
X80876000Y-74980819D02*
X80971238Y-75028438D01*
X80971238Y-75028438D02*
X81018857Y-75076057D01*
X81018857Y-75076057D02*
X81066476Y-75171295D01*
X81066476Y-75171295D02*
X81114095Y-75361771D01*
X81114095Y-75361771D02*
X81114095Y-75599866D01*
X81114095Y-75599866D02*
X81066476Y-75790342D01*
X81066476Y-75790342D02*
X81018857Y-75885580D01*
X81018857Y-75885580D02*
X80971238Y-75933200D01*
X80971238Y-75933200D02*
X80876000Y-75980819D01*
X80876000Y-75980819D02*
X80780762Y-75980819D01*
X80780762Y-75980819D02*
X80685524Y-75933200D01*
X80685524Y-75933200D02*
X80637905Y-75885580D01*
X80637905Y-75885580D02*
X80590286Y-75790342D01*
X80590286Y-75790342D02*
X80542667Y-75599866D01*
X80542667Y-75599866D02*
X80542667Y-75361771D01*
X80542667Y-75361771D02*
X80590286Y-75171295D01*
X80590286Y-75171295D02*
X80637905Y-75076057D01*
X80637905Y-75076057D02*
X80685524Y-75028438D01*
X80685524Y-75028438D02*
X80780762Y-74980819D01*
X39237200Y-81418332D02*
X39284819Y-81275475D01*
X39284819Y-81275475D02*
X39284819Y-81037380D01*
X39284819Y-81037380D02*
X39237200Y-80942142D01*
X39237200Y-80942142D02*
X39189580Y-80894523D01*
X39189580Y-80894523D02*
X39094342Y-80846904D01*
X39094342Y-80846904D02*
X38999104Y-80846904D01*
X38999104Y-80846904D02*
X38903866Y-80894523D01*
X38903866Y-80894523D02*
X38856247Y-80942142D01*
X38856247Y-80942142D02*
X38808628Y-81037380D01*
X38808628Y-81037380D02*
X38761009Y-81227856D01*
X38761009Y-81227856D02*
X38713390Y-81323094D01*
X38713390Y-81323094D02*
X38665771Y-81370713D01*
X38665771Y-81370713D02*
X38570533Y-81418332D01*
X38570533Y-81418332D02*
X38475295Y-81418332D01*
X38475295Y-81418332D02*
X38380057Y-81370713D01*
X38380057Y-81370713D02*
X38332438Y-81323094D01*
X38332438Y-81323094D02*
X38284819Y-81227856D01*
X38284819Y-81227856D02*
X38284819Y-80989761D01*
X38284819Y-80989761D02*
X38332438Y-80846904D01*
X38284819Y-80513570D02*
X39284819Y-80275475D01*
X39284819Y-80275475D02*
X38570533Y-80084999D01*
X38570533Y-80084999D02*
X39284819Y-79894523D01*
X39284819Y-79894523D02*
X38284819Y-79656428D01*
X39284819Y-78751666D02*
X39284819Y-79323094D01*
X39284819Y-79037380D02*
X38284819Y-79037380D01*
X38284819Y-79037380D02*
X38427676Y-79132618D01*
X38427676Y-79132618D02*
X38522914Y-79227856D01*
X38522914Y-79227856D02*
X38570533Y-79323094D01*
X47492200Y-81418332D02*
X47539819Y-81275475D01*
X47539819Y-81275475D02*
X47539819Y-81037380D01*
X47539819Y-81037380D02*
X47492200Y-80942142D01*
X47492200Y-80942142D02*
X47444580Y-80894523D01*
X47444580Y-80894523D02*
X47349342Y-80846904D01*
X47349342Y-80846904D02*
X47254104Y-80846904D01*
X47254104Y-80846904D02*
X47158866Y-80894523D01*
X47158866Y-80894523D02*
X47111247Y-80942142D01*
X47111247Y-80942142D02*
X47063628Y-81037380D01*
X47063628Y-81037380D02*
X47016009Y-81227856D01*
X47016009Y-81227856D02*
X46968390Y-81323094D01*
X46968390Y-81323094D02*
X46920771Y-81370713D01*
X46920771Y-81370713D02*
X46825533Y-81418332D01*
X46825533Y-81418332D02*
X46730295Y-81418332D01*
X46730295Y-81418332D02*
X46635057Y-81370713D01*
X46635057Y-81370713D02*
X46587438Y-81323094D01*
X46587438Y-81323094D02*
X46539819Y-81227856D01*
X46539819Y-81227856D02*
X46539819Y-80989761D01*
X46539819Y-80989761D02*
X46587438Y-80846904D01*
X46539819Y-80513570D02*
X47539819Y-80275475D01*
X47539819Y-80275475D02*
X46825533Y-80084999D01*
X46825533Y-80084999D02*
X47539819Y-79894523D01*
X47539819Y-79894523D02*
X46539819Y-79656428D01*
X46635057Y-79323094D02*
X46587438Y-79275475D01*
X46587438Y-79275475D02*
X46539819Y-79180237D01*
X46539819Y-79180237D02*
X46539819Y-78942142D01*
X46539819Y-78942142D02*
X46587438Y-78846904D01*
X46587438Y-78846904D02*
X46635057Y-78799285D01*
X46635057Y-78799285D02*
X46730295Y-78751666D01*
X46730295Y-78751666D02*
X46825533Y-78751666D01*
X46825533Y-78751666D02*
X46968390Y-78799285D01*
X46968390Y-78799285D02*
X47539819Y-79370713D01*
X47539819Y-79370713D02*
X47539819Y-78751666D01*
X55747200Y-81418332D02*
X55794819Y-81275475D01*
X55794819Y-81275475D02*
X55794819Y-81037380D01*
X55794819Y-81037380D02*
X55747200Y-80942142D01*
X55747200Y-80942142D02*
X55699580Y-80894523D01*
X55699580Y-80894523D02*
X55604342Y-80846904D01*
X55604342Y-80846904D02*
X55509104Y-80846904D01*
X55509104Y-80846904D02*
X55413866Y-80894523D01*
X55413866Y-80894523D02*
X55366247Y-80942142D01*
X55366247Y-80942142D02*
X55318628Y-81037380D01*
X55318628Y-81037380D02*
X55271009Y-81227856D01*
X55271009Y-81227856D02*
X55223390Y-81323094D01*
X55223390Y-81323094D02*
X55175771Y-81370713D01*
X55175771Y-81370713D02*
X55080533Y-81418332D01*
X55080533Y-81418332D02*
X54985295Y-81418332D01*
X54985295Y-81418332D02*
X54890057Y-81370713D01*
X54890057Y-81370713D02*
X54842438Y-81323094D01*
X54842438Y-81323094D02*
X54794819Y-81227856D01*
X54794819Y-81227856D02*
X54794819Y-80989761D01*
X54794819Y-80989761D02*
X54842438Y-80846904D01*
X54794819Y-80513570D02*
X55794819Y-80275475D01*
X55794819Y-80275475D02*
X55080533Y-80084999D01*
X55080533Y-80084999D02*
X55794819Y-79894523D01*
X55794819Y-79894523D02*
X54794819Y-79656428D01*
X54794819Y-79370713D02*
X54794819Y-78751666D01*
X54794819Y-78751666D02*
X55175771Y-79084999D01*
X55175771Y-79084999D02*
X55175771Y-78942142D01*
X55175771Y-78942142D02*
X55223390Y-78846904D01*
X55223390Y-78846904D02*
X55271009Y-78799285D01*
X55271009Y-78799285D02*
X55366247Y-78751666D01*
X55366247Y-78751666D02*
X55604342Y-78751666D01*
X55604342Y-78751666D02*
X55699580Y-78799285D01*
X55699580Y-78799285D02*
X55747200Y-78846904D01*
X55747200Y-78846904D02*
X55794819Y-78942142D01*
X55794819Y-78942142D02*
X55794819Y-79227856D01*
X55794819Y-79227856D02*
X55747200Y-79323094D01*
X55747200Y-79323094D02*
X55699580Y-79370713D01*
X64002200Y-81418332D02*
X64049819Y-81275475D01*
X64049819Y-81275475D02*
X64049819Y-81037380D01*
X64049819Y-81037380D02*
X64002200Y-80942142D01*
X64002200Y-80942142D02*
X63954580Y-80894523D01*
X63954580Y-80894523D02*
X63859342Y-80846904D01*
X63859342Y-80846904D02*
X63764104Y-80846904D01*
X63764104Y-80846904D02*
X63668866Y-80894523D01*
X63668866Y-80894523D02*
X63621247Y-80942142D01*
X63621247Y-80942142D02*
X63573628Y-81037380D01*
X63573628Y-81037380D02*
X63526009Y-81227856D01*
X63526009Y-81227856D02*
X63478390Y-81323094D01*
X63478390Y-81323094D02*
X63430771Y-81370713D01*
X63430771Y-81370713D02*
X63335533Y-81418332D01*
X63335533Y-81418332D02*
X63240295Y-81418332D01*
X63240295Y-81418332D02*
X63145057Y-81370713D01*
X63145057Y-81370713D02*
X63097438Y-81323094D01*
X63097438Y-81323094D02*
X63049819Y-81227856D01*
X63049819Y-81227856D02*
X63049819Y-80989761D01*
X63049819Y-80989761D02*
X63097438Y-80846904D01*
X63049819Y-80513570D02*
X64049819Y-80275475D01*
X64049819Y-80275475D02*
X63335533Y-80084999D01*
X63335533Y-80084999D02*
X64049819Y-79894523D01*
X64049819Y-79894523D02*
X63049819Y-79656428D01*
X63383152Y-78846904D02*
X64049819Y-78846904D01*
X63002200Y-79084999D02*
X63716485Y-79323094D01*
X63716485Y-79323094D02*
X63716485Y-78704047D01*
X72257200Y-81418332D02*
X72304819Y-81275475D01*
X72304819Y-81275475D02*
X72304819Y-81037380D01*
X72304819Y-81037380D02*
X72257200Y-80942142D01*
X72257200Y-80942142D02*
X72209580Y-80894523D01*
X72209580Y-80894523D02*
X72114342Y-80846904D01*
X72114342Y-80846904D02*
X72019104Y-80846904D01*
X72019104Y-80846904D02*
X71923866Y-80894523D01*
X71923866Y-80894523D02*
X71876247Y-80942142D01*
X71876247Y-80942142D02*
X71828628Y-81037380D01*
X71828628Y-81037380D02*
X71781009Y-81227856D01*
X71781009Y-81227856D02*
X71733390Y-81323094D01*
X71733390Y-81323094D02*
X71685771Y-81370713D01*
X71685771Y-81370713D02*
X71590533Y-81418332D01*
X71590533Y-81418332D02*
X71495295Y-81418332D01*
X71495295Y-81418332D02*
X71400057Y-81370713D01*
X71400057Y-81370713D02*
X71352438Y-81323094D01*
X71352438Y-81323094D02*
X71304819Y-81227856D01*
X71304819Y-81227856D02*
X71304819Y-80989761D01*
X71304819Y-80989761D02*
X71352438Y-80846904D01*
X71304819Y-80513570D02*
X72304819Y-80275475D01*
X72304819Y-80275475D02*
X71590533Y-80084999D01*
X71590533Y-80084999D02*
X72304819Y-79894523D01*
X72304819Y-79894523D02*
X71304819Y-79656428D01*
X71304819Y-78799285D02*
X71304819Y-79275475D01*
X71304819Y-79275475D02*
X71781009Y-79323094D01*
X71781009Y-79323094D02*
X71733390Y-79275475D01*
X71733390Y-79275475D02*
X71685771Y-79180237D01*
X71685771Y-79180237D02*
X71685771Y-78942142D01*
X71685771Y-78942142D02*
X71733390Y-78846904D01*
X71733390Y-78846904D02*
X71781009Y-78799285D01*
X71781009Y-78799285D02*
X71876247Y-78751666D01*
X71876247Y-78751666D02*
X72114342Y-78751666D01*
X72114342Y-78751666D02*
X72209580Y-78799285D01*
X72209580Y-78799285D02*
X72257200Y-78846904D01*
X72257200Y-78846904D02*
X72304819Y-78942142D01*
X72304819Y-78942142D02*
X72304819Y-79180237D01*
X72304819Y-79180237D02*
X72257200Y-79275475D01*
X72257200Y-79275475D02*
X72209580Y-79323094D01*
D15*
X60064000Y-38212000D02*
X60064000Y-38982000D01*
X61434000Y-38982000D02*
X58694000Y-38982000D01*
X58694000Y-38982000D02*
X58694000Y-45522000D01*
X61434000Y-45522000D02*
X61434000Y-38982000D01*
X58694000Y-45522000D02*
X61434000Y-45522000D01*
X60064000Y-46292000D02*
X60064000Y-45522000D01*
X63281300Y-63818000D02*
X63281300Y-63048000D01*
X61911300Y-63048000D02*
X64651300Y-63048000D01*
X64651300Y-63048000D02*
X64651300Y-56508000D01*
X61911300Y-56508000D02*
X61911300Y-63048000D01*
X64651300Y-56508000D02*
X61911300Y-56508000D01*
X63281300Y-55738000D02*
X63281300Y-56508000D01*
X63281300Y-38212000D02*
X63281300Y-38982000D01*
X64651300Y-38982000D02*
X61911300Y-38982000D01*
X61911300Y-38982000D02*
X61911300Y-45522000D01*
X64651300Y-45522000D02*
X64651300Y-38982000D01*
X61911300Y-45522000D02*
X64651300Y-45522000D01*
X63281300Y-46292000D02*
X63281300Y-45522000D01*
X66498700Y-63818000D02*
X66498700Y-63048000D01*
X65128700Y-63048000D02*
X67868700Y-63048000D01*
X67868700Y-63048000D02*
X67868700Y-56508000D01*
X65128700Y-56508000D02*
X65128700Y-63048000D01*
X67868700Y-56508000D02*
X65128700Y-56508000D01*
X66498700Y-55738000D02*
X66498700Y-56508000D01*
X66498700Y-38212000D02*
X66498700Y-38982000D01*
X67868700Y-38982000D02*
X65128700Y-38982000D01*
X65128700Y-38982000D02*
X65128700Y-45522000D01*
X67868700Y-45522000D02*
X67868700Y-38982000D01*
X65128700Y-45522000D02*
X67868700Y-45522000D01*
X66498700Y-46292000D02*
X66498700Y-45522000D01*
X69716000Y-63818000D02*
X69716000Y-63048000D01*
X68346000Y-63048000D02*
X71086000Y-63048000D01*
X71086000Y-63048000D02*
X71086000Y-56508000D01*
X68346000Y-56508000D02*
X68346000Y-63048000D01*
X71086000Y-56508000D02*
X68346000Y-56508000D01*
X69716000Y-55738000D02*
X69716000Y-56508000D01*
X60064000Y-63818000D02*
X60064000Y-63048000D01*
X58694000Y-63048000D02*
X61434000Y-63048000D01*
X61434000Y-63048000D02*
X61434000Y-56508000D01*
X58694000Y-56508000D02*
X58694000Y-63048000D01*
X61434000Y-56508000D02*
X58694000Y-56508000D01*
X60064000Y-55738000D02*
X60064000Y-56508000D01*
X69716000Y-38212000D02*
X69716000Y-38982000D01*
X71086000Y-38982000D02*
X68346000Y-38982000D01*
X68346000Y-38982000D02*
X68346000Y-45522000D01*
X71086000Y-45522000D02*
X71086000Y-38982000D01*
X68346000Y-45522000D02*
X71086000Y-45522000D01*
X69716000Y-46292000D02*
X69716000Y-45522000D01*
X87357000Y-64911800D02*
X78237000Y-64911800D01*
X87357000Y-36711800D02*
X87357000Y-64911800D01*
X86047000Y-63611800D02*
X79547000Y-63611800D01*
X86047000Y-38011800D02*
X86047000Y-63611800D01*
X79547000Y-63611800D02*
X79547000Y-52861800D01*
X79547000Y-52861800D02*
X79547000Y-52861800D01*
X79547000Y-52861800D02*
X78237000Y-52861800D01*
X79547000Y-48761800D02*
X79547000Y-38011800D01*
X79547000Y-38011800D02*
X86047000Y-38011800D01*
X78237000Y-64911800D02*
X78237000Y-36711800D01*
X78237000Y-48761800D02*
X79547000Y-48761800D01*
X78237000Y-36711800D02*
X87357000Y-36711800D01*
X77847000Y-41921800D02*
X76847000Y-41421800D01*
X76847000Y-42421800D02*
X77847000Y-41921800D01*
X76847000Y-41421800D02*
X76847000Y-42421800D01*
X75836000Y-68160000D02*
X76606000Y-68160000D01*
X76606000Y-66790000D02*
X76606000Y-69530000D01*
X76606000Y-69530000D02*
X83146000Y-69530000D01*
X83146000Y-66790000D02*
X76606000Y-66790000D01*
X83146000Y-69530000D02*
X83146000Y-66790000D01*
X83916000Y-68160000D02*
X83146000Y-68160000D01*
X62096000Y-71014000D02*
G75*
G02*
X60257522Y-66575522I0J2600000D01*
G01*
X63934478Y-66575522D02*
G75*
G02*
X62096000Y-71014001I-1838478J-1838478D01*
G01*
X63896000Y-66564000D02*
X60296000Y-66564000D01*
X69992000Y-66564000D02*
X66392000Y-66564000D01*
X70030478Y-66575522D02*
G75*
G02*
X68192000Y-71014001I-1838478J-1838478D01*
G01*
X68192000Y-71014000D02*
G75*
G02*
X66353522Y-66575522I0J2600000D01*
G01*
X66392000Y-53098000D02*
X69992000Y-53098000D01*
X66353522Y-53086478D02*
G75*
G02*
X68192000Y-48647999I1838478J1838478D01*
G01*
X68192000Y-48648000D02*
G75*
G02*
X70030478Y-53086478I0J-2600000D01*
G01*
X62096000Y-48648000D02*
G75*
G02*
X63934478Y-53086478I0J-2600000D01*
G01*
X60257522Y-53086478D02*
G75*
G02*
X62096000Y-48647999I1838478J1838478D01*
G01*
X60296000Y-53098000D02*
X63896000Y-53098000D01*
X72462000Y-65412000D02*
X72462000Y-64812000D01*
X73112000Y-64112000D02*
X75912000Y-64112000D01*
X75912000Y-66112000D02*
X73112000Y-66112000D01*
X76562000Y-64812000D02*
X76562000Y-65412000D01*
X72462000Y-64812000D02*
G75*
G02*
X73162000Y-64112000I699999J1D01*
G01*
X73162000Y-66112000D02*
G75*
G02*
X72462000Y-65412000I-1J699999D01*
G01*
X75862000Y-64112000D02*
G75*
G02*
X76562000Y-64812000I0J-700000D01*
G01*
X76562000Y-65412000D02*
G75*
G02*
X75862000Y-66112000I-700000J0D01*
G01*
X74334000Y-61096000D02*
X73734000Y-61096000D01*
X73034000Y-60446000D02*
X73034000Y-57646000D01*
X75034000Y-57646000D02*
X75034000Y-60446000D01*
X73734000Y-56996000D02*
X74334000Y-56996000D01*
X73734000Y-61096000D02*
G75*
G02*
X73034000Y-60396000I-1J699999D01*
G01*
X75034000Y-60396000D02*
G75*
G02*
X74334000Y-61096000I-699999J-1D01*
G01*
X73034000Y-57696000D02*
G75*
G02*
X73734000Y-56996000I700000J0D01*
G01*
X74334000Y-56996000D02*
G75*
G02*
X75034000Y-57696000I0J-700000D01*
G01*
X72400000Y-36757200D02*
X73780000Y-36757200D01*
X72400000Y-38137200D02*
X72400000Y-36757200D01*
X72400000Y-39407200D02*
X72400000Y-54757200D01*
X72400000Y-39407200D02*
X75160000Y-39407200D01*
X72400000Y-54757200D02*
X75160000Y-54757200D01*
X75160000Y-39407200D02*
X75160000Y-54757200D01*
X44426000Y-66272000D02*
X44426000Y-67652000D01*
X43046000Y-66272000D02*
X44426000Y-66272000D01*
X41776000Y-66272000D02*
X31506000Y-66272000D01*
X41776000Y-66272000D02*
X41776000Y-69032000D01*
X31506000Y-66272000D02*
X31506000Y-69032000D01*
X41776000Y-69032000D02*
X31506000Y-69032000D01*
X83766000Y-73352000D02*
X78326000Y-73352000D01*
X83766000Y-73022000D02*
X83766000Y-73352000D01*
X83766000Y-70742000D02*
X83766000Y-70412000D01*
X83766000Y-70412000D02*
X78326000Y-70412000D01*
X82986000Y-73352000D02*
X82986000Y-70412000D01*
X82866000Y-73352000D02*
X82866000Y-70412000D01*
X82746000Y-73352000D02*
X82746000Y-70412000D01*
X78326000Y-73352000D02*
X78326000Y-73022000D01*
X78326000Y-70412000D02*
X78326000Y-70742000D01*
D11*
X69970000Y-50380000D02*
X69970000Y-38950000D01*
X69970000Y-38950000D02*
X31870000Y-38950000D01*
X60445000Y-48475000D02*
X60445000Y-40855000D01*
X60445000Y-40855000D02*
X38220000Y-40855000D01*
X38220000Y-48475000D02*
X60445000Y-48475000D01*
X38220000Y-44665000D02*
X38220000Y-48475000D01*
X38220000Y-44665000D02*
X38220000Y-40855000D01*
X31870000Y-50380000D02*
X69970000Y-50380000D01*
X31870000Y-44665000D02*
X31870000Y-50380000D01*
X31870000Y-44665000D02*
X31870000Y-38950000D01*
D15*
X81510000Y-35250000D02*
X81510000Y-29950000D01*
X33140000Y-35250000D02*
X81510000Y-35250000D01*
X33140000Y-35250000D02*
X33140000Y-32600000D01*
X33140000Y-32600000D02*
X30490000Y-32600000D01*
X31870000Y-35250000D02*
X30490000Y-35250000D01*
X30490000Y-35250000D02*
X30490000Y-33870000D01*
X30490000Y-32600000D02*
X30490000Y-29950000D01*
X30490000Y-29950000D02*
X81510000Y-29950000D01*
D11*
X58015000Y-65430000D02*
X30715000Y-65430000D01*
X58015000Y-37630000D02*
X58015000Y-65430000D01*
X54115000Y-55830000D02*
X54115000Y-45630000D01*
X54115000Y-45630000D02*
X34615000Y-45630000D01*
D15*
X49515000Y-40810000D02*
X49515000Y-38150000D01*
X41835000Y-40810000D02*
X49515000Y-40810000D01*
X41835000Y-40810000D02*
X41835000Y-38150000D01*
X41835000Y-38150000D02*
X49515000Y-38150000D01*
X40565000Y-40810000D02*
X39235000Y-40810000D01*
X39235000Y-40810000D02*
X39235000Y-39480000D01*
D11*
X34615000Y-55830000D02*
X54115000Y-55830000D01*
X34615000Y-45630000D02*
X34615000Y-55830000D01*
X30715000Y-37630000D02*
X58015000Y-37630000D01*
X30715000Y-37630000D02*
X30715000Y-65430000D01*
D15*
X50680000Y-58508000D02*
G75*
G02*
X38480000Y-58508000I-6100000J0D01*
G01*
X38480000Y-58508000D02*
G75*
G02*
X50680000Y-58508000I6100000J0D01*
G01*
X75290000Y-83840000D02*
X78380000Y-83840000D01*
X75290170Y-83840000D02*
G75*
G02*
X76834952Y-78290000I1544830J2560000D01*
G01*
X76835048Y-78290000D02*
G75*
G02*
X78379830Y-83840000I-48J-2990000D01*
G01*
X79335000Y-81280000D02*
G75*
G02*
X74335000Y-81280000I-2500000J0D01*
G01*
X74335000Y-81280000D02*
G75*
G02*
X79335000Y-81280000I2500000J0D01*
G01*
X83146000Y-74156000D02*
X76606000Y-74156000D01*
X76606000Y-74156000D02*
X76606000Y-76896000D01*
X83916000Y-75526000D02*
X83146000Y-75526000D01*
X75836000Y-75526000D02*
X76606000Y-75526000D01*
X83146000Y-76896000D02*
X83146000Y-74156000D01*
X76606000Y-76896000D02*
X83146000Y-76896000D01*
X31330000Y-77835000D02*
X31330000Y-82335000D01*
X33830000Y-83585000D02*
X35330000Y-83585000D01*
X35330000Y-76585000D02*
X33830000Y-76585000D01*
X37830000Y-82335000D02*
X37830000Y-77835000D01*
X39585000Y-77835000D02*
X39585000Y-82335000D01*
X42085000Y-83585000D02*
X43585000Y-83585000D01*
X43585000Y-76585000D02*
X42085000Y-76585000D01*
X46085000Y-82335000D02*
X46085000Y-77835000D01*
X47840000Y-77835000D02*
X47840000Y-82335000D01*
X50340000Y-83585000D02*
X51840000Y-83585000D01*
X51840000Y-76585000D02*
X50340000Y-76585000D01*
X54340000Y-82335000D02*
X54340000Y-77835000D01*
X56095000Y-77835000D02*
X56095000Y-82335000D01*
X58595000Y-83585000D02*
X60095000Y-83585000D01*
X60095000Y-76585000D02*
X58595000Y-76585000D01*
X62595000Y-82335000D02*
X62595000Y-77835000D01*
X64350000Y-77835000D02*
X64350000Y-82335000D01*
X66850000Y-83585000D02*
X68350000Y-83585000D01*
X68350000Y-76585000D02*
X66850000Y-76585000D01*
X70850000Y-82335000D02*
X70850000Y-77835000D01*
M02*
