G04 #@! TF.GenerationSoftware,KiCad,Pcbnew,9.0.6*
G04 #@! TF.CreationDate,2025-12-28T20:22:59+01:00*
G04 #@! TF.ProjectId,RPi_Hat,5250695f-4861-4742-9e6b-696361645f70,2*
G04 #@! TF.SameCoordinates,Original*
G04 #@! TF.FileFunction,Legend,Bot*
G04 #@! TF.FilePolarity,Positive*
%FSLAX46Y46*%
G04 Gerber Fmt 4.6, Leading zero omitted, Abs format (unit mm)*
G04 Created by KiCad (PCBNEW 9.0.6) date 2025-12-28 20:22:59*
%MOMM*%
%LPD*%
G01*
G04 APERTURE LIST*
%ADD10C,0.250000*%
%ADD11C,0.400000*%
G04 APERTURE END LIST*
D10*
X73257431Y-81729619D02*
X73257431Y-80729619D01*
X73257431Y-80729619D02*
X72924098Y-81443904D01*
X72924098Y-81443904D02*
X72590765Y-80729619D01*
X72590765Y-80729619D02*
X72590765Y-81729619D01*
X71686003Y-81729619D02*
X71686003Y-81205809D01*
X71686003Y-81205809D02*
X71733622Y-81110571D01*
X71733622Y-81110571D02*
X71828860Y-81062952D01*
X71828860Y-81062952D02*
X72019336Y-81062952D01*
X72019336Y-81062952D02*
X72114574Y-81110571D01*
X71686003Y-81682000D02*
X71781241Y-81729619D01*
X71781241Y-81729619D02*
X72019336Y-81729619D01*
X72019336Y-81729619D02*
X72114574Y-81682000D01*
X72114574Y-81682000D02*
X72162193Y-81586761D01*
X72162193Y-81586761D02*
X72162193Y-81491523D01*
X72162193Y-81491523D02*
X72114574Y-81396285D01*
X72114574Y-81396285D02*
X72019336Y-81348666D01*
X72019336Y-81348666D02*
X71781241Y-81348666D01*
X71781241Y-81348666D02*
X71686003Y-81301047D01*
X70781241Y-81682000D02*
X70876479Y-81729619D01*
X70876479Y-81729619D02*
X71066955Y-81729619D01*
X71066955Y-81729619D02*
X71162193Y-81682000D01*
X71162193Y-81682000D02*
X71209812Y-81634380D01*
X71209812Y-81634380D02*
X71257431Y-81539142D01*
X71257431Y-81539142D02*
X71257431Y-81253428D01*
X71257431Y-81253428D02*
X71209812Y-81158190D01*
X71209812Y-81158190D02*
X71162193Y-81110571D01*
X71162193Y-81110571D02*
X71066955Y-81062952D01*
X71066955Y-81062952D02*
X70876479Y-81062952D01*
X70876479Y-81062952D02*
X70781241Y-81110571D01*
X70352669Y-81729619D02*
X70352669Y-81062952D01*
X70352669Y-80729619D02*
X70400288Y-80777238D01*
X70400288Y-80777238D02*
X70352669Y-80824857D01*
X70352669Y-80824857D02*
X70305050Y-80777238D01*
X70305050Y-80777238D02*
X70352669Y-80729619D01*
X70352669Y-80729619D02*
X70352669Y-80824857D01*
X69495527Y-81682000D02*
X69590765Y-81729619D01*
X69590765Y-81729619D02*
X69781241Y-81729619D01*
X69781241Y-81729619D02*
X69876479Y-81682000D01*
X69876479Y-81682000D02*
X69924098Y-81586761D01*
X69924098Y-81586761D02*
X69924098Y-81205809D01*
X69924098Y-81205809D02*
X69876479Y-81110571D01*
X69876479Y-81110571D02*
X69781241Y-81062952D01*
X69781241Y-81062952D02*
X69590765Y-81062952D01*
X69590765Y-81062952D02*
X69495527Y-81110571D01*
X69495527Y-81110571D02*
X69447908Y-81205809D01*
X69447908Y-81205809D02*
X69447908Y-81301047D01*
X69447908Y-81301047D02*
X69924098Y-81396285D01*
X69019336Y-81062952D02*
X69019336Y-81920095D01*
X69019336Y-81920095D02*
X69066955Y-82015333D01*
X69066955Y-82015333D02*
X69162193Y-82062952D01*
X69162193Y-82062952D02*
X69209812Y-82062952D01*
X69019336Y-80729619D02*
X69066955Y-80777238D01*
X69066955Y-80777238D02*
X69019336Y-80824857D01*
X69019336Y-80824857D02*
X68971717Y-80777238D01*
X68971717Y-80777238D02*
X69019336Y-80729619D01*
X69019336Y-80729619D02*
X69019336Y-80824857D01*
X67876479Y-80729619D02*
X67638384Y-81729619D01*
X67638384Y-81729619D02*
X67447908Y-81015333D01*
X67447908Y-81015333D02*
X67257432Y-81729619D01*
X67257432Y-81729619D02*
X67019337Y-80729619D01*
X66638384Y-81729619D02*
X66638384Y-81062952D01*
X66638384Y-80729619D02*
X66686003Y-80777238D01*
X66686003Y-80777238D02*
X66638384Y-80824857D01*
X66638384Y-80824857D02*
X66590765Y-80777238D01*
X66590765Y-80777238D02*
X66638384Y-80729619D01*
X66638384Y-80729619D02*
X66638384Y-80824857D01*
X66305051Y-81062952D02*
X65924099Y-81062952D01*
X66162194Y-80729619D02*
X66162194Y-81586761D01*
X66162194Y-81586761D02*
X66114575Y-81682000D01*
X66114575Y-81682000D02*
X66019337Y-81729619D01*
X66019337Y-81729619D02*
X65924099Y-81729619D01*
X65590765Y-81729619D02*
X65590765Y-80729619D01*
X65495527Y-81348666D02*
X65209813Y-81729619D01*
X65209813Y-81062952D02*
X65590765Y-81443904D01*
X64638384Y-81729619D02*
X64733622Y-81682000D01*
X64733622Y-81682000D02*
X64781241Y-81634380D01*
X64781241Y-81634380D02*
X64828860Y-81539142D01*
X64828860Y-81539142D02*
X64828860Y-81253428D01*
X64828860Y-81253428D02*
X64781241Y-81158190D01*
X64781241Y-81158190D02*
X64733622Y-81110571D01*
X64733622Y-81110571D02*
X64638384Y-81062952D01*
X64638384Y-81062952D02*
X64495527Y-81062952D01*
X64495527Y-81062952D02*
X64400289Y-81110571D01*
X64400289Y-81110571D02*
X64352670Y-81158190D01*
X64352670Y-81158190D02*
X64305051Y-81253428D01*
X64305051Y-81253428D02*
X64305051Y-81539142D01*
X64305051Y-81539142D02*
X64352670Y-81634380D01*
X64352670Y-81634380D02*
X64400289Y-81682000D01*
X64400289Y-81682000D02*
X64495527Y-81729619D01*
X64495527Y-81729619D02*
X64638384Y-81729619D01*
X63971717Y-81062952D02*
X63781241Y-81729619D01*
X63781241Y-81729619D02*
X63590765Y-81253428D01*
X63590765Y-81253428D02*
X63400289Y-81729619D01*
X63400289Y-81729619D02*
X63209813Y-81062952D01*
X62828860Y-81729619D02*
X62828860Y-81062952D01*
X62828860Y-80729619D02*
X62876479Y-80777238D01*
X62876479Y-80777238D02*
X62828860Y-80824857D01*
X62828860Y-80824857D02*
X62781241Y-80777238D01*
X62781241Y-80777238D02*
X62828860Y-80729619D01*
X62828860Y-80729619D02*
X62828860Y-80824857D01*
X61924099Y-81729619D02*
X61924099Y-81205809D01*
X61924099Y-81205809D02*
X61971718Y-81110571D01*
X61971718Y-81110571D02*
X62066956Y-81062952D01*
X62066956Y-81062952D02*
X62257432Y-81062952D01*
X62257432Y-81062952D02*
X62352670Y-81110571D01*
X61924099Y-81682000D02*
X62019337Y-81729619D01*
X62019337Y-81729619D02*
X62257432Y-81729619D01*
X62257432Y-81729619D02*
X62352670Y-81682000D01*
X62352670Y-81682000D02*
X62400289Y-81586761D01*
X62400289Y-81586761D02*
X62400289Y-81491523D01*
X62400289Y-81491523D02*
X62352670Y-81396285D01*
X62352670Y-81396285D02*
X62257432Y-81348666D01*
X62257432Y-81348666D02*
X62019337Y-81348666D01*
X62019337Y-81348666D02*
X61924099Y-81301047D01*
X61447908Y-81729619D02*
X61447908Y-80729619D01*
X61352670Y-81348666D02*
X61066956Y-81729619D01*
X61066956Y-81062952D02*
X61447908Y-81443904D01*
X59114575Y-81062952D02*
X59876479Y-81348666D01*
X59876479Y-81348666D02*
X59114575Y-81634380D01*
X58733622Y-81062952D02*
X58495527Y-81729619D01*
X58257432Y-81062952D02*
X58495527Y-81729619D01*
X58495527Y-81729619D02*
X58590765Y-81967714D01*
X58590765Y-81967714D02*
X58638384Y-82015333D01*
X58638384Y-82015333D02*
X58733622Y-82062952D01*
X58019336Y-81062952D02*
X57638384Y-81062952D01*
X57876479Y-80729619D02*
X57876479Y-81586761D01*
X57876479Y-81586761D02*
X57828860Y-81682000D01*
X57828860Y-81682000D02*
X57733622Y-81729619D01*
X57733622Y-81729619D02*
X57638384Y-81729619D01*
X57305050Y-81729619D02*
X57305050Y-81062952D01*
X57305050Y-81158190D02*
X57257431Y-81110571D01*
X57257431Y-81110571D02*
X57162193Y-81062952D01*
X57162193Y-81062952D02*
X57019336Y-81062952D01*
X57019336Y-81062952D02*
X56924098Y-81110571D01*
X56924098Y-81110571D02*
X56876479Y-81205809D01*
X56876479Y-81205809D02*
X56876479Y-81729619D01*
X56876479Y-81205809D02*
X56828860Y-81110571D01*
X56828860Y-81110571D02*
X56733622Y-81062952D01*
X56733622Y-81062952D02*
X56590765Y-81062952D01*
X56590765Y-81062952D02*
X56495526Y-81110571D01*
X56495526Y-81110571D02*
X56447907Y-81205809D01*
X56447907Y-81205809D02*
X56447907Y-81729619D01*
X55352670Y-81253428D02*
X55400289Y-81205809D01*
X55400289Y-81205809D02*
X55495527Y-81158190D01*
X55495527Y-81158190D02*
X55590765Y-81158190D01*
X55590765Y-81158190D02*
X55686003Y-81205809D01*
X55686003Y-81205809D02*
X55733622Y-81253428D01*
X55733622Y-81253428D02*
X55781241Y-81348666D01*
X55781241Y-81348666D02*
X55781241Y-81443904D01*
X55781241Y-81443904D02*
X55733622Y-81539142D01*
X55733622Y-81539142D02*
X55686003Y-81586761D01*
X55686003Y-81586761D02*
X55590765Y-81634380D01*
X55590765Y-81634380D02*
X55495527Y-81634380D01*
X55495527Y-81634380D02*
X55400289Y-81586761D01*
X55400289Y-81586761D02*
X55352670Y-81539142D01*
X55352670Y-81158190D02*
X55352670Y-81539142D01*
X55352670Y-81539142D02*
X55305051Y-81586761D01*
X55305051Y-81586761D02*
X55257432Y-81586761D01*
X55257432Y-81586761D02*
X55162193Y-81539142D01*
X55162193Y-81539142D02*
X55114574Y-81443904D01*
X55114574Y-81443904D02*
X55114574Y-81205809D01*
X55114574Y-81205809D02*
X55209813Y-81062952D01*
X55209813Y-81062952D02*
X55352670Y-80967714D01*
X55352670Y-80967714D02*
X55543146Y-80920095D01*
X55543146Y-80920095D02*
X55733622Y-80967714D01*
X55733622Y-80967714D02*
X55876479Y-81062952D01*
X55876479Y-81062952D02*
X55971717Y-81205809D01*
X55971717Y-81205809D02*
X56019336Y-81396285D01*
X56019336Y-81396285D02*
X55971717Y-81586761D01*
X55971717Y-81586761D02*
X55876479Y-81729619D01*
X55876479Y-81729619D02*
X55733622Y-81824857D01*
X55733622Y-81824857D02*
X55543146Y-81872476D01*
X55543146Y-81872476D02*
X55352670Y-81824857D01*
X55352670Y-81824857D02*
X55209813Y-81729619D01*
X54305051Y-81682000D02*
X54400289Y-81729619D01*
X54400289Y-81729619D02*
X54590765Y-81729619D01*
X54590765Y-81729619D02*
X54686003Y-81682000D01*
X54686003Y-81682000D02*
X54733622Y-81586761D01*
X54733622Y-81586761D02*
X54733622Y-81205809D01*
X54733622Y-81205809D02*
X54686003Y-81110571D01*
X54686003Y-81110571D02*
X54590765Y-81062952D01*
X54590765Y-81062952D02*
X54400289Y-81062952D01*
X54400289Y-81062952D02*
X54305051Y-81110571D01*
X54305051Y-81110571D02*
X54257432Y-81205809D01*
X54257432Y-81205809D02*
X54257432Y-81301047D01*
X54257432Y-81301047D02*
X54733622Y-81396285D01*
X53686003Y-81729619D02*
X53781241Y-81682000D01*
X53781241Y-81682000D02*
X53828860Y-81586761D01*
X53828860Y-81586761D02*
X53828860Y-80729619D01*
X53400288Y-81062952D02*
X53162193Y-81729619D01*
X52924098Y-81062952D02*
X53162193Y-81729619D01*
X53162193Y-81729619D02*
X53257431Y-81967714D01*
X53257431Y-81967714D02*
X53305050Y-82015333D01*
X53305050Y-82015333D02*
X53400288Y-82062952D01*
X52590764Y-81682000D02*
X52495526Y-81729619D01*
X52495526Y-81729619D02*
X52305050Y-81729619D01*
X52305050Y-81729619D02*
X52209812Y-81682000D01*
X52209812Y-81682000D02*
X52162193Y-81586761D01*
X52162193Y-81586761D02*
X52162193Y-81539142D01*
X52162193Y-81539142D02*
X52209812Y-81443904D01*
X52209812Y-81443904D02*
X52305050Y-81396285D01*
X52305050Y-81396285D02*
X52447907Y-81396285D01*
X52447907Y-81396285D02*
X52543145Y-81348666D01*
X52543145Y-81348666D02*
X52590764Y-81253428D01*
X52590764Y-81253428D02*
X52590764Y-81205809D01*
X52590764Y-81205809D02*
X52543145Y-81110571D01*
X52543145Y-81110571D02*
X52447907Y-81062952D01*
X52447907Y-81062952D02*
X52305050Y-81062952D01*
X52305050Y-81062952D02*
X52209812Y-81110571D01*
X51733621Y-81729619D02*
X51733621Y-81062952D01*
X51733621Y-80729619D02*
X51781240Y-80777238D01*
X51781240Y-80777238D02*
X51733621Y-80824857D01*
X51733621Y-80824857D02*
X51686002Y-80777238D01*
X51686002Y-80777238D02*
X51733621Y-80729619D01*
X51733621Y-80729619D02*
X51733621Y-80824857D01*
X50828860Y-81062952D02*
X50828860Y-81729619D01*
X51257431Y-81062952D02*
X51257431Y-81586761D01*
X51257431Y-81586761D02*
X51209812Y-81682000D01*
X51209812Y-81682000D02*
X51114574Y-81729619D01*
X51114574Y-81729619D02*
X50971717Y-81729619D01*
X50971717Y-81729619D02*
X50876479Y-81682000D01*
X50876479Y-81682000D02*
X50828860Y-81634380D01*
X50352669Y-81729619D02*
X50352669Y-81062952D01*
X50352669Y-81158190D02*
X50305050Y-81110571D01*
X50305050Y-81110571D02*
X50209812Y-81062952D01*
X50209812Y-81062952D02*
X50066955Y-81062952D01*
X50066955Y-81062952D02*
X49971717Y-81110571D01*
X49971717Y-81110571D02*
X49924098Y-81205809D01*
X49924098Y-81205809D02*
X49924098Y-81729619D01*
X49924098Y-81205809D02*
X49876479Y-81110571D01*
X49876479Y-81110571D02*
X49781241Y-81062952D01*
X49781241Y-81062952D02*
X49638384Y-81062952D01*
X49638384Y-81062952D02*
X49543145Y-81110571D01*
X49543145Y-81110571D02*
X49495526Y-81205809D01*
X49495526Y-81205809D02*
X49495526Y-81729619D01*
X49019336Y-81634380D02*
X48971717Y-81682000D01*
X48971717Y-81682000D02*
X49019336Y-81729619D01*
X49019336Y-81729619D02*
X49066955Y-81682000D01*
X49066955Y-81682000D02*
X49019336Y-81634380D01*
X49019336Y-81634380D02*
X49019336Y-81729619D01*
X48543146Y-81062952D02*
X48543146Y-82062952D01*
X48543146Y-81110571D02*
X48447908Y-81062952D01*
X48447908Y-81062952D02*
X48257432Y-81062952D01*
X48257432Y-81062952D02*
X48162194Y-81110571D01*
X48162194Y-81110571D02*
X48114575Y-81158190D01*
X48114575Y-81158190D02*
X48066956Y-81253428D01*
X48066956Y-81253428D02*
X48066956Y-81539142D01*
X48066956Y-81539142D02*
X48114575Y-81634380D01*
X48114575Y-81634380D02*
X48162194Y-81682000D01*
X48162194Y-81682000D02*
X48257432Y-81729619D01*
X48257432Y-81729619D02*
X48447908Y-81729619D01*
X48447908Y-81729619D02*
X48543146Y-81682000D01*
X47495527Y-81729619D02*
X47590765Y-81682000D01*
X47590765Y-81682000D02*
X47638384Y-81586761D01*
X47638384Y-81586761D02*
X47638384Y-80729619D01*
X47114574Y-81062952D02*
X46352670Y-81348666D01*
X46352670Y-81348666D02*
X47114574Y-81634380D01*
X45828860Y-81682000D02*
X45828860Y-81729619D01*
X45828860Y-81729619D02*
X45876479Y-81824857D01*
X45876479Y-81824857D02*
X45924098Y-81872476D01*
X44733622Y-80729619D02*
X44066956Y-81729619D01*
X44066956Y-80729619D02*
X44733622Y-81729619D01*
X43686003Y-81729619D02*
X43686003Y-80729619D01*
X43209813Y-81729619D02*
X43209813Y-80729619D01*
X42019337Y-80824857D02*
X41971718Y-80777238D01*
X41971718Y-80777238D02*
X41876480Y-80729619D01*
X41876480Y-80729619D02*
X41638385Y-80729619D01*
X41638385Y-80729619D02*
X41543147Y-80777238D01*
X41543147Y-80777238D02*
X41495528Y-80824857D01*
X41495528Y-80824857D02*
X41447909Y-80920095D01*
X41447909Y-80920095D02*
X41447909Y-81015333D01*
X41447909Y-81015333D02*
X41495528Y-81158190D01*
X41495528Y-81158190D02*
X42066956Y-81729619D01*
X42066956Y-81729619D02*
X41447909Y-81729619D01*
X40828861Y-80729619D02*
X40733623Y-80729619D01*
X40733623Y-80729619D02*
X40638385Y-80777238D01*
X40638385Y-80777238D02*
X40590766Y-80824857D01*
X40590766Y-80824857D02*
X40543147Y-80920095D01*
X40543147Y-80920095D02*
X40495528Y-81110571D01*
X40495528Y-81110571D02*
X40495528Y-81348666D01*
X40495528Y-81348666D02*
X40543147Y-81539142D01*
X40543147Y-81539142D02*
X40590766Y-81634380D01*
X40590766Y-81634380D02*
X40638385Y-81682000D01*
X40638385Y-81682000D02*
X40733623Y-81729619D01*
X40733623Y-81729619D02*
X40828861Y-81729619D01*
X40828861Y-81729619D02*
X40924099Y-81682000D01*
X40924099Y-81682000D02*
X40971718Y-81634380D01*
X40971718Y-81634380D02*
X41019337Y-81539142D01*
X41019337Y-81539142D02*
X41066956Y-81348666D01*
X41066956Y-81348666D02*
X41066956Y-81110571D01*
X41066956Y-81110571D02*
X41019337Y-80920095D01*
X41019337Y-80920095D02*
X40971718Y-80824857D01*
X40971718Y-80824857D02*
X40924099Y-80777238D01*
X40924099Y-80777238D02*
X40828861Y-80729619D01*
X40114575Y-80824857D02*
X40066956Y-80777238D01*
X40066956Y-80777238D02*
X39971718Y-80729619D01*
X39971718Y-80729619D02*
X39733623Y-80729619D01*
X39733623Y-80729619D02*
X39638385Y-80777238D01*
X39638385Y-80777238D02*
X39590766Y-80824857D01*
X39590766Y-80824857D02*
X39543147Y-80920095D01*
X39543147Y-80920095D02*
X39543147Y-81015333D01*
X39543147Y-81015333D02*
X39590766Y-81158190D01*
X39590766Y-81158190D02*
X40162194Y-81729619D01*
X40162194Y-81729619D02*
X39543147Y-81729619D01*
X38638385Y-80729619D02*
X39114575Y-80729619D01*
X39114575Y-80729619D02*
X39162194Y-81205809D01*
X39162194Y-81205809D02*
X39114575Y-81158190D01*
X39114575Y-81158190D02*
X39019337Y-81110571D01*
X39019337Y-81110571D02*
X38781242Y-81110571D01*
X38781242Y-81110571D02*
X38686004Y-81158190D01*
X38686004Y-81158190D02*
X38638385Y-81205809D01*
X38638385Y-81205809D02*
X38590766Y-81301047D01*
X38590766Y-81301047D02*
X38590766Y-81539142D01*
X38590766Y-81539142D02*
X38638385Y-81634380D01*
X38638385Y-81634380D02*
X38686004Y-81682000D01*
X38686004Y-81682000D02*
X38781242Y-81729619D01*
X38781242Y-81729619D02*
X39019337Y-81729619D01*
X39019337Y-81729619D02*
X39114575Y-81682000D01*
X39114575Y-81682000D02*
X39162194Y-81634380D01*
D11*
X60562857Y-72529676D02*
X60062857Y-68529676D01*
X60062857Y-68529676D02*
X58539048Y-68529676D01*
X58539048Y-68529676D02*
X58181905Y-68720152D01*
X58181905Y-68720152D02*
X58015238Y-68910628D01*
X58015238Y-68910628D02*
X57872381Y-69291580D01*
X57872381Y-69291580D02*
X57943809Y-69863009D01*
X57943809Y-69863009D02*
X58181905Y-70243961D01*
X58181905Y-70243961D02*
X58396190Y-70434438D01*
X58396190Y-70434438D02*
X58800952Y-70624914D01*
X58800952Y-70624914D02*
X60324762Y-70624914D01*
X56562857Y-72529676D02*
X56229524Y-69863009D01*
X56062857Y-68529676D02*
X56277143Y-68720152D01*
X56277143Y-68720152D02*
X56110476Y-68910628D01*
X56110476Y-68910628D02*
X55896190Y-68720152D01*
X55896190Y-68720152D02*
X56062857Y-68529676D01*
X56062857Y-68529676D02*
X56110476Y-68910628D01*
X52562857Y-72529676D02*
X54848571Y-72529676D01*
X53705714Y-72529676D02*
X53205714Y-68529676D01*
X53205714Y-68529676D02*
X53658095Y-69101104D01*
X53658095Y-69101104D02*
X54086667Y-69482057D01*
X54086667Y-69482057D02*
X54491428Y-69672533D01*
X48443809Y-68529676D02*
X50348571Y-68529676D01*
X50348571Y-68529676D02*
X50777143Y-70434438D01*
X50777143Y-70434438D02*
X50562857Y-70243961D01*
X50562857Y-70243961D02*
X50158095Y-70053485D01*
X50158095Y-70053485D02*
X49205714Y-70053485D01*
X49205714Y-70053485D02*
X48848571Y-70243961D01*
X48848571Y-70243961D02*
X48681904Y-70434438D01*
X48681904Y-70434438D02*
X48539047Y-70815390D01*
X48539047Y-70815390D02*
X48658095Y-71767771D01*
X48658095Y-71767771D02*
X48896190Y-72148723D01*
X48896190Y-72148723D02*
X49110476Y-72339200D01*
X49110476Y-72339200D02*
X49515238Y-72529676D01*
X49515238Y-72529676D02*
X50467619Y-72529676D01*
X50467619Y-72529676D02*
X50824762Y-72339200D01*
X50824762Y-72339200D02*
X50991428Y-72148723D01*
X44634285Y-68529676D02*
X46539047Y-68529676D01*
X46539047Y-68529676D02*
X46967619Y-70434438D01*
X46967619Y-70434438D02*
X46753333Y-70243961D01*
X46753333Y-70243961D02*
X46348571Y-70053485D01*
X46348571Y-70053485D02*
X45396190Y-70053485D01*
X45396190Y-70053485D02*
X45039047Y-70243961D01*
X45039047Y-70243961D02*
X44872380Y-70434438D01*
X44872380Y-70434438D02*
X44729523Y-70815390D01*
X44729523Y-70815390D02*
X44848571Y-71767771D01*
X44848571Y-71767771D02*
X45086666Y-72148723D01*
X45086666Y-72148723D02*
X45300952Y-72339200D01*
X45300952Y-72339200D02*
X45705714Y-72529676D01*
X45705714Y-72529676D02*
X46658095Y-72529676D01*
X46658095Y-72529676D02*
X47015238Y-72339200D01*
X47015238Y-72339200D02*
X47181904Y-72148723D01*
X41134285Y-72529676D02*
X43419999Y-72529676D01*
X42277142Y-72529676D02*
X41777142Y-68529676D01*
X41777142Y-68529676D02*
X42229523Y-69101104D01*
X42229523Y-69101104D02*
X42658095Y-69482057D01*
X42658095Y-69482057D02*
X43062856Y-69672533D01*
M02*
