G04 #@! TF.GenerationSoftware,KiCad,Pcbnew,9.0.6*
G04 #@! TF.CreationDate,2025-12-29T00:38:14+01:00*
G04 #@! TF.ProjectId,RPi_Hat,5250695f-4861-4742-9e6b-696361645f70,2*
G04 #@! TF.SameCoordinates,Original*
G04 #@! TF.FileFunction,Legend,Top*
G04 #@! TF.FilePolarity,Positive*
%FSLAX46Y46*%
G04 Gerber Fmt 4.6, Leading zero omitted, Abs format (unit mm)*
G04 Created by KiCad (PCBNEW 9.0.6) date 2025-12-29 00:38:14*
%MOMM*%
%LPD*%
G01*
G04 APERTURE LIST*
%ADD10C,0.200000*%
%ADD11C,0.150000*%
%ADD12C,0.250000*%
%ADD13C,0.125000*%
%ADD14C,0.175000*%
%ADD15C,0.120000*%
G04 APERTURE END LIST*
D10*
X71628000Y-72898000D02*
X71628000Y-85090000D01*
X46990000Y-85090000D02*
X46990000Y-70358000D01*
X30480000Y-85090000D02*
X30480000Y-75438000D01*
X38862000Y-85090000D02*
X38862000Y-70358000D01*
X55372000Y-72898000D02*
X71628000Y-72898000D01*
X55372000Y-85090000D02*
X55372000Y-70358000D01*
D11*
X67176000Y-70446000D02*
X69208000Y-70446000D01*
D10*
X30480000Y-75438000D02*
X23622000Y-75438000D01*
X63500000Y-85090000D02*
X63500000Y-72898000D01*
X55372000Y-70358000D02*
X23368000Y-70358000D01*
X23622000Y-75438000D02*
X23368000Y-75438000D01*
X30480000Y-75438000D02*
X30480000Y-70358000D01*
D12*
X41822857Y-71777214D02*
X41965714Y-71848642D01*
X41965714Y-71848642D02*
X42013333Y-71920071D01*
X42013333Y-71920071D02*
X42060952Y-72062928D01*
X42060952Y-72062928D02*
X42060952Y-72277214D01*
X42060952Y-72277214D02*
X42013333Y-72420071D01*
X42013333Y-72420071D02*
X41965714Y-72491500D01*
X41965714Y-72491500D02*
X41870476Y-72562928D01*
X41870476Y-72562928D02*
X41489524Y-72562928D01*
X41489524Y-72562928D02*
X41489524Y-71062928D01*
X41489524Y-71062928D02*
X41822857Y-71062928D01*
X41822857Y-71062928D02*
X41918095Y-71134357D01*
X41918095Y-71134357D02*
X41965714Y-71205785D01*
X41965714Y-71205785D02*
X42013333Y-71348642D01*
X42013333Y-71348642D02*
X42013333Y-71491500D01*
X42013333Y-71491500D02*
X41965714Y-71634357D01*
X41965714Y-71634357D02*
X41918095Y-71705785D01*
X41918095Y-71705785D02*
X41822857Y-71777214D01*
X41822857Y-71777214D02*
X41489524Y-71777214D01*
X42441905Y-72134357D02*
X42918095Y-72134357D01*
X42346667Y-72562928D02*
X42680000Y-71062928D01*
X42680000Y-71062928D02*
X43013333Y-72562928D01*
X43918095Y-72420071D02*
X43870476Y-72491500D01*
X43870476Y-72491500D02*
X43727619Y-72562928D01*
X43727619Y-72562928D02*
X43632381Y-72562928D01*
X43632381Y-72562928D02*
X43489524Y-72491500D01*
X43489524Y-72491500D02*
X43394286Y-72348642D01*
X43394286Y-72348642D02*
X43346667Y-72205785D01*
X43346667Y-72205785D02*
X43299048Y-71920071D01*
X43299048Y-71920071D02*
X43299048Y-71705785D01*
X43299048Y-71705785D02*
X43346667Y-71420071D01*
X43346667Y-71420071D02*
X43394286Y-71277214D01*
X43394286Y-71277214D02*
X43489524Y-71134357D01*
X43489524Y-71134357D02*
X43632381Y-71062928D01*
X43632381Y-71062928D02*
X43727619Y-71062928D01*
X43727619Y-71062928D02*
X43870476Y-71134357D01*
X43870476Y-71134357D02*
X43918095Y-71205785D01*
X44346667Y-72562928D02*
X44346667Y-71062928D01*
X44918095Y-72562928D02*
X44489524Y-71705785D01*
X44918095Y-71062928D02*
X44346667Y-71920071D01*
D11*
X71173428Y-73927428D02*
X71459142Y-73727428D01*
X71173428Y-73584571D02*
X71773428Y-73584571D01*
X71773428Y-73584571D02*
X71773428Y-73813142D01*
X71773428Y-73813142D02*
X71744857Y-73870285D01*
X71744857Y-73870285D02*
X71716285Y-73898856D01*
X71716285Y-73898856D02*
X71659142Y-73927428D01*
X71659142Y-73927428D02*
X71573428Y-73927428D01*
X71573428Y-73927428D02*
X71516285Y-73898856D01*
X71516285Y-73898856D02*
X71487714Y-73870285D01*
X71487714Y-73870285D02*
X71459142Y-73813142D01*
X71459142Y-73813142D02*
X71459142Y-73584571D01*
X71202000Y-74155999D02*
X71173428Y-74241714D01*
X71173428Y-74241714D02*
X71173428Y-74384571D01*
X71173428Y-74384571D02*
X71202000Y-74441714D01*
X71202000Y-74441714D02*
X71230571Y-74470285D01*
X71230571Y-74470285D02*
X71287714Y-74498856D01*
X71287714Y-74498856D02*
X71344857Y-74498856D01*
X71344857Y-74498856D02*
X71402000Y-74470285D01*
X71402000Y-74470285D02*
X71430571Y-74441714D01*
X71430571Y-74441714D02*
X71459142Y-74384571D01*
X71459142Y-74384571D02*
X71487714Y-74270285D01*
X71487714Y-74270285D02*
X71516285Y-74213142D01*
X71516285Y-74213142D02*
X71544857Y-74184571D01*
X71544857Y-74184571D02*
X71602000Y-74155999D01*
X71602000Y-74155999D02*
X71659142Y-74155999D01*
X71659142Y-74155999D02*
X71716285Y-74184571D01*
X71716285Y-74184571D02*
X71744857Y-74213142D01*
X71744857Y-74213142D02*
X71773428Y-74270285D01*
X71773428Y-74270285D02*
X71773428Y-74413142D01*
X71773428Y-74413142D02*
X71744857Y-74498856D01*
X71773428Y-74670285D02*
X71773428Y-75013143D01*
X71173428Y-74841714D02*
X71773428Y-74841714D01*
X71940000Y-73501714D02*
X71940000Y-75010286D01*
D12*
X33234476Y-71777214D02*
X33567809Y-71777214D01*
X33710666Y-72562928D02*
X33234476Y-72562928D01*
X33234476Y-72562928D02*
X33234476Y-71062928D01*
X33234476Y-71062928D02*
X33710666Y-71062928D01*
X34044000Y-71062928D02*
X34710666Y-72562928D01*
X34710666Y-71062928D02*
X34044000Y-72562928D01*
X35091619Y-72562928D02*
X35091619Y-71062928D01*
X35424952Y-71062928D02*
X35996380Y-71062928D01*
X35710666Y-72562928D02*
X35710666Y-71062928D01*
X58126476Y-74063214D02*
X58459809Y-74063214D01*
X58602666Y-74848928D02*
X58126476Y-74848928D01*
X58126476Y-74848928D02*
X58126476Y-73348928D01*
X58126476Y-73348928D02*
X58602666Y-73348928D01*
X58936000Y-73348928D02*
X59602666Y-74848928D01*
X59602666Y-73348928D02*
X58936000Y-74848928D01*
X59983619Y-74848928D02*
X59983619Y-73348928D01*
X60316952Y-73348928D02*
X60888380Y-73348928D01*
X60602666Y-74848928D02*
X60602666Y-73348928D01*
D11*
X84582800Y-55704571D02*
X84582800Y-56161714D01*
X84354228Y-55933142D02*
X84811371Y-55933142D01*
X84954228Y-56733142D02*
X84954228Y-56447428D01*
X84954228Y-56447428D02*
X84668514Y-56418856D01*
X84668514Y-56418856D02*
X84697085Y-56447428D01*
X84697085Y-56447428D02*
X84725657Y-56504571D01*
X84725657Y-56504571D02*
X84725657Y-56647428D01*
X84725657Y-56647428D02*
X84697085Y-56704571D01*
X84697085Y-56704571D02*
X84668514Y-56733142D01*
X84668514Y-56733142D02*
X84611371Y-56761713D01*
X84611371Y-56761713D02*
X84468514Y-56761713D01*
X84468514Y-56761713D02*
X84411371Y-56733142D01*
X84411371Y-56733142D02*
X84382800Y-56704571D01*
X84382800Y-56704571D02*
X84354228Y-56647428D01*
X84354228Y-56647428D02*
X84354228Y-56504571D01*
X84354228Y-56504571D02*
X84382800Y-56447428D01*
X84382800Y-56447428D02*
X84411371Y-56418856D01*
X84954228Y-56933142D02*
X84354228Y-57133142D01*
X84354228Y-57133142D02*
X84954228Y-57333142D01*
X83225657Y-73798857D02*
X83254228Y-73741715D01*
X83254228Y-73741715D02*
X83254228Y-73656000D01*
X83254228Y-73656000D02*
X83225657Y-73570286D01*
X83225657Y-73570286D02*
X83168514Y-73513143D01*
X83168514Y-73513143D02*
X83111371Y-73484572D01*
X83111371Y-73484572D02*
X82997085Y-73456000D01*
X82997085Y-73456000D02*
X82911371Y-73456000D01*
X82911371Y-73456000D02*
X82797085Y-73484572D01*
X82797085Y-73484572D02*
X82739942Y-73513143D01*
X82739942Y-73513143D02*
X82682800Y-73570286D01*
X82682800Y-73570286D02*
X82654228Y-73656000D01*
X82654228Y-73656000D02*
X82654228Y-73713143D01*
X82654228Y-73713143D02*
X82682800Y-73798857D01*
X82682800Y-73798857D02*
X82711371Y-73827429D01*
X82711371Y-73827429D02*
X82911371Y-73827429D01*
X82911371Y-73827429D02*
X82911371Y-73713143D01*
X82654228Y-74084572D02*
X83254228Y-74084572D01*
X83254228Y-74084572D02*
X82654228Y-74427429D01*
X82654228Y-74427429D02*
X83254228Y-74427429D01*
X82654228Y-74713143D02*
X83254228Y-74713143D01*
X83254228Y-74713143D02*
X83254228Y-74856000D01*
X83254228Y-74856000D02*
X83225657Y-74941714D01*
X83225657Y-74941714D02*
X83168514Y-74998857D01*
X83168514Y-74998857D02*
X83111371Y-75027428D01*
X83111371Y-75027428D02*
X82997085Y-75056000D01*
X82997085Y-75056000D02*
X82911371Y-75056000D01*
X82911371Y-75056000D02*
X82797085Y-75027428D01*
X82797085Y-75027428D02*
X82739942Y-74998857D01*
X82739942Y-74998857D02*
X82682800Y-74941714D01*
X82682800Y-74941714D02*
X82654228Y-74856000D01*
X82654228Y-74856000D02*
X82654228Y-74713143D01*
X82654228Y-61113143D02*
X83254228Y-61113143D01*
X83254228Y-61113143D02*
X83254228Y-61256000D01*
X83254228Y-61256000D02*
X83225657Y-61341714D01*
X83225657Y-61341714D02*
X83168514Y-61398857D01*
X83168514Y-61398857D02*
X83111371Y-61427428D01*
X83111371Y-61427428D02*
X82997085Y-61456000D01*
X82997085Y-61456000D02*
X82911371Y-61456000D01*
X82911371Y-61456000D02*
X82797085Y-61427428D01*
X82797085Y-61427428D02*
X82739942Y-61398857D01*
X82739942Y-61398857D02*
X82682800Y-61341714D01*
X82682800Y-61341714D02*
X82654228Y-61256000D01*
X82654228Y-61256000D02*
X82654228Y-61113143D01*
X83054228Y-61970286D02*
X82654228Y-61970286D01*
X83282800Y-61827428D02*
X82854228Y-61684571D01*
X82854228Y-61684571D02*
X82854228Y-62056000D01*
X82654228Y-58573143D02*
X83254228Y-58573143D01*
X83254228Y-58573143D02*
X83254228Y-58716000D01*
X83254228Y-58716000D02*
X83225657Y-58801714D01*
X83225657Y-58801714D02*
X83168514Y-58858857D01*
X83168514Y-58858857D02*
X83111371Y-58887428D01*
X83111371Y-58887428D02*
X82997085Y-58916000D01*
X82997085Y-58916000D02*
X82911371Y-58916000D01*
X82911371Y-58916000D02*
X82797085Y-58887428D01*
X82797085Y-58887428D02*
X82739942Y-58858857D01*
X82739942Y-58858857D02*
X82682800Y-58801714D01*
X82682800Y-58801714D02*
X82654228Y-58716000D01*
X82654228Y-58716000D02*
X82654228Y-58573143D01*
X83197085Y-59144571D02*
X83225657Y-59173143D01*
X83225657Y-59173143D02*
X83254228Y-59230286D01*
X83254228Y-59230286D02*
X83254228Y-59373143D01*
X83254228Y-59373143D02*
X83225657Y-59430286D01*
X83225657Y-59430286D02*
X83197085Y-59458857D01*
X83197085Y-59458857D02*
X83139942Y-59487428D01*
X83139942Y-59487428D02*
X83082800Y-59487428D01*
X83082800Y-59487428D02*
X82997085Y-59458857D01*
X82997085Y-59458857D02*
X82654228Y-59116000D01*
X82654228Y-59116000D02*
X82654228Y-59487428D01*
X84925657Y-61098857D02*
X84954228Y-61041715D01*
X84954228Y-61041715D02*
X84954228Y-60956000D01*
X84954228Y-60956000D02*
X84925657Y-60870286D01*
X84925657Y-60870286D02*
X84868514Y-60813143D01*
X84868514Y-60813143D02*
X84811371Y-60784572D01*
X84811371Y-60784572D02*
X84697085Y-60756000D01*
X84697085Y-60756000D02*
X84611371Y-60756000D01*
X84611371Y-60756000D02*
X84497085Y-60784572D01*
X84497085Y-60784572D02*
X84439942Y-60813143D01*
X84439942Y-60813143D02*
X84382800Y-60870286D01*
X84382800Y-60870286D02*
X84354228Y-60956000D01*
X84354228Y-60956000D02*
X84354228Y-61013143D01*
X84354228Y-61013143D02*
X84382800Y-61098857D01*
X84382800Y-61098857D02*
X84411371Y-61127429D01*
X84411371Y-61127429D02*
X84611371Y-61127429D01*
X84611371Y-61127429D02*
X84611371Y-61013143D01*
X84354228Y-61384572D02*
X84954228Y-61384572D01*
X84954228Y-61384572D02*
X84354228Y-61727429D01*
X84354228Y-61727429D02*
X84954228Y-61727429D01*
X84354228Y-62013143D02*
X84954228Y-62013143D01*
X84954228Y-62013143D02*
X84954228Y-62156000D01*
X84954228Y-62156000D02*
X84925657Y-62241714D01*
X84925657Y-62241714D02*
X84868514Y-62298857D01*
X84868514Y-62298857D02*
X84811371Y-62327428D01*
X84811371Y-62327428D02*
X84697085Y-62356000D01*
X84697085Y-62356000D02*
X84611371Y-62356000D01*
X84611371Y-62356000D02*
X84497085Y-62327428D01*
X84497085Y-62327428D02*
X84439942Y-62298857D01*
X84439942Y-62298857D02*
X84382800Y-62241714D01*
X84382800Y-62241714D02*
X84354228Y-62156000D01*
X84354228Y-62156000D02*
X84354228Y-62013143D01*
D12*
X32067809Y-74777500D02*
X32210666Y-74848928D01*
X32210666Y-74848928D02*
X32448761Y-74848928D01*
X32448761Y-74848928D02*
X32543999Y-74777500D01*
X32543999Y-74777500D02*
X32591618Y-74706071D01*
X32591618Y-74706071D02*
X32639237Y-74563214D01*
X32639237Y-74563214D02*
X32639237Y-74420357D01*
X32639237Y-74420357D02*
X32591618Y-74277500D01*
X32591618Y-74277500D02*
X32543999Y-74206071D01*
X32543999Y-74206071D02*
X32448761Y-74134642D01*
X32448761Y-74134642D02*
X32258285Y-74063214D01*
X32258285Y-74063214D02*
X32163047Y-73991785D01*
X32163047Y-73991785D02*
X32115428Y-73920357D01*
X32115428Y-73920357D02*
X32067809Y-73777500D01*
X32067809Y-73777500D02*
X32067809Y-73634642D01*
X32067809Y-73634642D02*
X32115428Y-73491785D01*
X32115428Y-73491785D02*
X32163047Y-73420357D01*
X32163047Y-73420357D02*
X32258285Y-73348928D01*
X32258285Y-73348928D02*
X32496380Y-73348928D01*
X32496380Y-73348928D02*
X32639237Y-73420357D01*
X33067809Y-74063214D02*
X33401142Y-74063214D01*
X33543999Y-74848928D02*
X33067809Y-74848928D01*
X33067809Y-74848928D02*
X33067809Y-73348928D01*
X33067809Y-73348928D02*
X33543999Y-73348928D01*
X34448761Y-74848928D02*
X33972571Y-74848928D01*
X33972571Y-74848928D02*
X33972571Y-73348928D01*
X34782095Y-74063214D02*
X35115428Y-74063214D01*
X35258285Y-74848928D02*
X34782095Y-74848928D01*
X34782095Y-74848928D02*
X34782095Y-73348928D01*
X34782095Y-73348928D02*
X35258285Y-73348928D01*
X36258285Y-74706071D02*
X36210666Y-74777500D01*
X36210666Y-74777500D02*
X36067809Y-74848928D01*
X36067809Y-74848928D02*
X35972571Y-74848928D01*
X35972571Y-74848928D02*
X35829714Y-74777500D01*
X35829714Y-74777500D02*
X35734476Y-74634642D01*
X35734476Y-74634642D02*
X35686857Y-74491785D01*
X35686857Y-74491785D02*
X35639238Y-74206071D01*
X35639238Y-74206071D02*
X35639238Y-73991785D01*
X35639238Y-73991785D02*
X35686857Y-73706071D01*
X35686857Y-73706071D02*
X35734476Y-73563214D01*
X35734476Y-73563214D02*
X35829714Y-73420357D01*
X35829714Y-73420357D02*
X35972571Y-73348928D01*
X35972571Y-73348928D02*
X36067809Y-73348928D01*
X36067809Y-73348928D02*
X36210666Y-73420357D01*
X36210666Y-73420357D02*
X36258285Y-73491785D01*
X36544000Y-73348928D02*
X37115428Y-73348928D01*
X36829714Y-74848928D02*
X36829714Y-73348928D01*
D11*
X82682800Y-71030285D02*
X82654228Y-71116000D01*
X82654228Y-71116000D02*
X82654228Y-71258857D01*
X82654228Y-71258857D02*
X82682800Y-71316000D01*
X82682800Y-71316000D02*
X82711371Y-71344571D01*
X82711371Y-71344571D02*
X82768514Y-71373142D01*
X82768514Y-71373142D02*
X82825657Y-71373142D01*
X82825657Y-71373142D02*
X82882800Y-71344571D01*
X82882800Y-71344571D02*
X82911371Y-71316000D01*
X82911371Y-71316000D02*
X82939942Y-71258857D01*
X82939942Y-71258857D02*
X82968514Y-71144571D01*
X82968514Y-71144571D02*
X82997085Y-71087428D01*
X82997085Y-71087428D02*
X83025657Y-71058857D01*
X83025657Y-71058857D02*
X83082800Y-71030285D01*
X83082800Y-71030285D02*
X83139942Y-71030285D01*
X83139942Y-71030285D02*
X83197085Y-71058857D01*
X83197085Y-71058857D02*
X83225657Y-71087428D01*
X83225657Y-71087428D02*
X83254228Y-71144571D01*
X83254228Y-71144571D02*
X83254228Y-71287428D01*
X83254228Y-71287428D02*
X83225657Y-71373142D01*
X83254228Y-71544571D02*
X83254228Y-71887429D01*
X82654228Y-71716000D02*
X83254228Y-71716000D01*
X82654228Y-72401714D02*
X82654228Y-72058857D01*
X82654228Y-72230286D02*
X83254228Y-72230286D01*
X83254228Y-72230286D02*
X83168514Y-72173143D01*
X83168514Y-72173143D02*
X83111371Y-72116000D01*
X83111371Y-72116000D02*
X83082800Y-72058857D01*
D12*
X66325905Y-74420357D02*
X66802095Y-74420357D01*
X66230667Y-74848928D02*
X66564000Y-73348928D01*
X66564000Y-73348928D02*
X66897333Y-74848928D01*
X67230667Y-74848928D02*
X67230667Y-73348928D01*
X67230667Y-73348928D02*
X67468762Y-73348928D01*
X67468762Y-73348928D02*
X67611619Y-73420357D01*
X67611619Y-73420357D02*
X67706857Y-73563214D01*
X67706857Y-73563214D02*
X67754476Y-73706071D01*
X67754476Y-73706071D02*
X67802095Y-73991785D01*
X67802095Y-73991785D02*
X67802095Y-74206071D01*
X67802095Y-74206071D02*
X67754476Y-74491785D01*
X67754476Y-74491785D02*
X67706857Y-74634642D01*
X67706857Y-74634642D02*
X67611619Y-74777500D01*
X67611619Y-74777500D02*
X67468762Y-74848928D01*
X67468762Y-74848928D02*
X67230667Y-74848928D01*
X68230667Y-74848928D02*
X68230667Y-73348928D01*
X68230667Y-73348928D02*
X68468762Y-73348928D01*
X68468762Y-73348928D02*
X68611619Y-73420357D01*
X68611619Y-73420357D02*
X68706857Y-73563214D01*
X68706857Y-73563214D02*
X68754476Y-73706071D01*
X68754476Y-73706071D02*
X68802095Y-73991785D01*
X68802095Y-73991785D02*
X68802095Y-74206071D01*
X68802095Y-74206071D02*
X68754476Y-74491785D01*
X68754476Y-74491785D02*
X68706857Y-74634642D01*
X68706857Y-74634642D02*
X68611619Y-74777500D01*
X68611619Y-74777500D02*
X68468762Y-74848928D01*
X68468762Y-74848928D02*
X68230667Y-74848928D01*
D11*
X37498057Y-75028342D02*
X37440915Y-74999771D01*
X37440915Y-74999771D02*
X37355200Y-74999771D01*
X37355200Y-74999771D02*
X37269486Y-75028342D01*
X37269486Y-75028342D02*
X37212343Y-75085485D01*
X37212343Y-75085485D02*
X37183772Y-75142628D01*
X37183772Y-75142628D02*
X37155200Y-75256914D01*
X37155200Y-75256914D02*
X37155200Y-75342628D01*
X37155200Y-75342628D02*
X37183772Y-75456914D01*
X37183772Y-75456914D02*
X37212343Y-75514057D01*
X37212343Y-75514057D02*
X37269486Y-75571200D01*
X37269486Y-75571200D02*
X37355200Y-75599771D01*
X37355200Y-75599771D02*
X37412343Y-75599771D01*
X37412343Y-75599771D02*
X37498057Y-75571200D01*
X37498057Y-75571200D02*
X37526629Y-75542628D01*
X37526629Y-75542628D02*
X37526629Y-75342628D01*
X37526629Y-75342628D02*
X37412343Y-75342628D01*
X37783772Y-75599771D02*
X37783772Y-74999771D01*
X37783772Y-74999771D02*
X38126629Y-75599771D01*
X38126629Y-75599771D02*
X38126629Y-74999771D01*
X38412343Y-75599771D02*
X38412343Y-74999771D01*
X38412343Y-74999771D02*
X38555200Y-74999771D01*
X38555200Y-74999771D02*
X38640914Y-75028342D01*
X38640914Y-75028342D02*
X38698057Y-75085485D01*
X38698057Y-75085485D02*
X38726628Y-75142628D01*
X38726628Y-75142628D02*
X38755200Y-75256914D01*
X38755200Y-75256914D02*
X38755200Y-75342628D01*
X38755200Y-75342628D02*
X38726628Y-75456914D01*
X38726628Y-75456914D02*
X38698057Y-75514057D01*
X38698057Y-75514057D02*
X38640914Y-75571200D01*
X38640914Y-75571200D02*
X38555200Y-75599771D01*
X38555200Y-75599771D02*
X38412343Y-75599771D01*
X83298685Y-54653571D02*
X83327257Y-54682143D01*
X83327257Y-54682143D02*
X83355828Y-54739286D01*
X83355828Y-54739286D02*
X83355828Y-54882143D01*
X83355828Y-54882143D02*
X83327257Y-54939286D01*
X83327257Y-54939286D02*
X83298685Y-54967857D01*
X83298685Y-54967857D02*
X83241542Y-54996428D01*
X83241542Y-54996428D02*
X83184400Y-54996428D01*
X83184400Y-54996428D02*
X83098685Y-54967857D01*
X83098685Y-54967857D02*
X82755828Y-54625000D01*
X82755828Y-54625000D02*
X82755828Y-54996428D01*
X82654228Y-55790286D02*
X83254228Y-55790286D01*
X83254228Y-55790286D02*
X83254228Y-55933143D01*
X83254228Y-55933143D02*
X83225657Y-56018857D01*
X83225657Y-56018857D02*
X83168514Y-56076000D01*
X83168514Y-56076000D02*
X83111371Y-56104571D01*
X83111371Y-56104571D02*
X82997085Y-56133143D01*
X82997085Y-56133143D02*
X82911371Y-56133143D01*
X82911371Y-56133143D02*
X82797085Y-56104571D01*
X82797085Y-56104571D02*
X82739942Y-56076000D01*
X82739942Y-56076000D02*
X82682800Y-56018857D01*
X82682800Y-56018857D02*
X82654228Y-55933143D01*
X82654228Y-55933143D02*
X82654228Y-55790286D01*
X82968514Y-56390286D02*
X82968514Y-56590286D01*
X82654228Y-56676000D02*
X82654228Y-56390286D01*
X82654228Y-56390286D02*
X83254228Y-56390286D01*
X83254228Y-56390286D02*
X83254228Y-56676000D01*
X83254228Y-56847428D02*
X82654228Y-57047428D01*
X82654228Y-57047428D02*
X83254228Y-57247428D01*
X71173428Y-66193143D02*
X71773428Y-66193143D01*
X71773428Y-66193143D02*
X71773428Y-66336000D01*
X71773428Y-66336000D02*
X71744857Y-66421714D01*
X71744857Y-66421714D02*
X71687714Y-66478857D01*
X71687714Y-66478857D02*
X71630571Y-66507428D01*
X71630571Y-66507428D02*
X71516285Y-66536000D01*
X71516285Y-66536000D02*
X71430571Y-66536000D01*
X71430571Y-66536000D02*
X71316285Y-66507428D01*
X71316285Y-66507428D02*
X71259142Y-66478857D01*
X71259142Y-66478857D02*
X71202000Y-66421714D01*
X71202000Y-66421714D02*
X71173428Y-66336000D01*
X71173428Y-66336000D02*
X71173428Y-66193143D01*
X71773428Y-66736000D02*
X71773428Y-67136000D01*
X71773428Y-67136000D02*
X71173428Y-66878857D01*
X71173428Y-76605513D02*
X71173428Y-76262656D01*
X71173428Y-76434085D02*
X71773428Y-76434085D01*
X71773428Y-76434085D02*
X71687714Y-76376942D01*
X71687714Y-76376942D02*
X71630571Y-76319799D01*
X71630571Y-76319799D02*
X71602000Y-76262656D01*
X71773428Y-77148371D02*
X71773428Y-76862657D01*
X71773428Y-76862657D02*
X71487714Y-76834085D01*
X71487714Y-76834085D02*
X71516285Y-76862657D01*
X71516285Y-76862657D02*
X71544857Y-76919800D01*
X71544857Y-76919800D02*
X71544857Y-77062657D01*
X71544857Y-77062657D02*
X71516285Y-77119800D01*
X71516285Y-77119800D02*
X71487714Y-77148371D01*
X71487714Y-77148371D02*
X71430571Y-77176942D01*
X71430571Y-77176942D02*
X71287714Y-77176942D01*
X71287714Y-77176942D02*
X71230571Y-77148371D01*
X71230571Y-77148371D02*
X71202000Y-77119800D01*
X71202000Y-77119800D02*
X71173428Y-77062657D01*
X71173428Y-77062657D02*
X71173428Y-76919800D01*
X71173428Y-76919800D02*
X71202000Y-76862657D01*
X71202000Y-76862657D02*
X71230571Y-76834085D01*
X84354228Y-58901714D02*
X84639942Y-58701714D01*
X84354228Y-58558857D02*
X84954228Y-58558857D01*
X84954228Y-58558857D02*
X84954228Y-58787428D01*
X84954228Y-58787428D02*
X84925657Y-58844571D01*
X84925657Y-58844571D02*
X84897085Y-58873142D01*
X84897085Y-58873142D02*
X84839942Y-58901714D01*
X84839942Y-58901714D02*
X84754228Y-58901714D01*
X84754228Y-58901714D02*
X84697085Y-58873142D01*
X84697085Y-58873142D02*
X84668514Y-58844571D01*
X84668514Y-58844571D02*
X84639942Y-58787428D01*
X84639942Y-58787428D02*
X84639942Y-58558857D01*
X84354228Y-59158857D02*
X84954228Y-59158857D01*
X84954228Y-59158857D02*
X84954228Y-59301714D01*
X84954228Y-59301714D02*
X84925657Y-59387428D01*
X84925657Y-59387428D02*
X84868514Y-59444571D01*
X84868514Y-59444571D02*
X84811371Y-59473142D01*
X84811371Y-59473142D02*
X84697085Y-59501714D01*
X84697085Y-59501714D02*
X84611371Y-59501714D01*
X84611371Y-59501714D02*
X84497085Y-59473142D01*
X84497085Y-59473142D02*
X84439942Y-59444571D01*
X84439942Y-59444571D02*
X84382800Y-59387428D01*
X84382800Y-59387428D02*
X84354228Y-59301714D01*
X84354228Y-59301714D02*
X84354228Y-59158857D01*
D12*
X49458762Y-72562928D02*
X49458762Y-71062928D01*
X49458762Y-71062928D02*
X50030190Y-72562928D01*
X50030190Y-72562928D02*
X50030190Y-71062928D01*
X50506381Y-71777214D02*
X50839714Y-71777214D01*
X50982571Y-72562928D02*
X50506381Y-72562928D01*
X50506381Y-72562928D02*
X50506381Y-71062928D01*
X50506381Y-71062928D02*
X50982571Y-71062928D01*
X51315905Y-71062928D02*
X51982571Y-72562928D01*
X51982571Y-71062928D02*
X51315905Y-72562928D01*
X52220667Y-71062928D02*
X52792095Y-71062928D01*
X52506381Y-72562928D02*
X52506381Y-71062928D01*
D11*
X84354228Y-68433143D02*
X84954228Y-68433143D01*
X84954228Y-68433143D02*
X84525657Y-68633143D01*
X84525657Y-68633143D02*
X84954228Y-68833143D01*
X84954228Y-68833143D02*
X84354228Y-68833143D01*
X84954228Y-69233142D02*
X84954228Y-69347428D01*
X84954228Y-69347428D02*
X84925657Y-69404571D01*
X84925657Y-69404571D02*
X84868514Y-69461714D01*
X84868514Y-69461714D02*
X84754228Y-69490285D01*
X84754228Y-69490285D02*
X84554228Y-69490285D01*
X84554228Y-69490285D02*
X84439942Y-69461714D01*
X84439942Y-69461714D02*
X84382800Y-69404571D01*
X84382800Y-69404571D02*
X84354228Y-69347428D01*
X84354228Y-69347428D02*
X84354228Y-69233142D01*
X84354228Y-69233142D02*
X84382800Y-69176000D01*
X84382800Y-69176000D02*
X84439942Y-69118857D01*
X84439942Y-69118857D02*
X84554228Y-69090285D01*
X84554228Y-69090285D02*
X84754228Y-69090285D01*
X84754228Y-69090285D02*
X84868514Y-69118857D01*
X84868514Y-69118857D02*
X84925657Y-69176000D01*
X84925657Y-69176000D02*
X84954228Y-69233142D01*
X84954228Y-69661713D02*
X84954228Y-70004571D01*
X84354228Y-69833142D02*
X84954228Y-69833142D01*
X84925657Y-71258857D02*
X84954228Y-71201715D01*
X84954228Y-71201715D02*
X84954228Y-71116000D01*
X84954228Y-71116000D02*
X84925657Y-71030286D01*
X84925657Y-71030286D02*
X84868514Y-70973143D01*
X84868514Y-70973143D02*
X84811371Y-70944572D01*
X84811371Y-70944572D02*
X84697085Y-70916000D01*
X84697085Y-70916000D02*
X84611371Y-70916000D01*
X84611371Y-70916000D02*
X84497085Y-70944572D01*
X84497085Y-70944572D02*
X84439942Y-70973143D01*
X84439942Y-70973143D02*
X84382800Y-71030286D01*
X84382800Y-71030286D02*
X84354228Y-71116000D01*
X84354228Y-71116000D02*
X84354228Y-71173143D01*
X84354228Y-71173143D02*
X84382800Y-71258857D01*
X84382800Y-71258857D02*
X84411371Y-71287429D01*
X84411371Y-71287429D02*
X84611371Y-71287429D01*
X84611371Y-71287429D02*
X84611371Y-71173143D01*
X84354228Y-71544572D02*
X84954228Y-71544572D01*
X84954228Y-71544572D02*
X84354228Y-71887429D01*
X84354228Y-71887429D02*
X84954228Y-71887429D01*
X84354228Y-72173143D02*
X84954228Y-72173143D01*
X84954228Y-72173143D02*
X84954228Y-72316000D01*
X84954228Y-72316000D02*
X84925657Y-72401714D01*
X84925657Y-72401714D02*
X84868514Y-72458857D01*
X84868514Y-72458857D02*
X84811371Y-72487428D01*
X84811371Y-72487428D02*
X84697085Y-72516000D01*
X84697085Y-72516000D02*
X84611371Y-72516000D01*
X84611371Y-72516000D02*
X84497085Y-72487428D01*
X84497085Y-72487428D02*
X84439942Y-72458857D01*
X84439942Y-72458857D02*
X84382800Y-72401714D01*
X84382800Y-72401714D02*
X84354228Y-72316000D01*
X84354228Y-72316000D02*
X84354228Y-72173143D01*
X82682800Y-68490285D02*
X82654228Y-68576000D01*
X82654228Y-68576000D02*
X82654228Y-68718857D01*
X82654228Y-68718857D02*
X82682800Y-68776000D01*
X82682800Y-68776000D02*
X82711371Y-68804571D01*
X82711371Y-68804571D02*
X82768514Y-68833142D01*
X82768514Y-68833142D02*
X82825657Y-68833142D01*
X82825657Y-68833142D02*
X82882800Y-68804571D01*
X82882800Y-68804571D02*
X82911371Y-68776000D01*
X82911371Y-68776000D02*
X82939942Y-68718857D01*
X82939942Y-68718857D02*
X82968514Y-68604571D01*
X82968514Y-68604571D02*
X82997085Y-68547428D01*
X82997085Y-68547428D02*
X83025657Y-68518857D01*
X83025657Y-68518857D02*
X83082800Y-68490285D01*
X83082800Y-68490285D02*
X83139942Y-68490285D01*
X83139942Y-68490285D02*
X83197085Y-68518857D01*
X83197085Y-68518857D02*
X83225657Y-68547428D01*
X83225657Y-68547428D02*
X83254228Y-68604571D01*
X83254228Y-68604571D02*
X83254228Y-68747428D01*
X83254228Y-68747428D02*
X83225657Y-68833142D01*
X83254228Y-69004571D02*
X83254228Y-69347429D01*
X82654228Y-69176000D02*
X83254228Y-69176000D01*
X83254228Y-69661714D02*
X83254228Y-69718857D01*
X83254228Y-69718857D02*
X83225657Y-69776000D01*
X83225657Y-69776000D02*
X83197085Y-69804572D01*
X83197085Y-69804572D02*
X83139942Y-69833143D01*
X83139942Y-69833143D02*
X83025657Y-69861714D01*
X83025657Y-69861714D02*
X82882800Y-69861714D01*
X82882800Y-69861714D02*
X82768514Y-69833143D01*
X82768514Y-69833143D02*
X82711371Y-69804572D01*
X82711371Y-69804572D02*
X82682800Y-69776000D01*
X82682800Y-69776000D02*
X82654228Y-69718857D01*
X82654228Y-69718857D02*
X82654228Y-69661714D01*
X82654228Y-69661714D02*
X82682800Y-69604572D01*
X82682800Y-69604572D02*
X82711371Y-69576000D01*
X82711371Y-69576000D02*
X82768514Y-69547429D01*
X82768514Y-69547429D02*
X82882800Y-69518857D01*
X82882800Y-69518857D02*
X83025657Y-69518857D01*
X83025657Y-69518857D02*
X83139942Y-69547429D01*
X83139942Y-69547429D02*
X83197085Y-69576000D01*
X83197085Y-69576000D02*
X83225657Y-69604572D01*
X83225657Y-69604572D02*
X83254228Y-69661714D01*
X84954228Y-66078857D02*
X84354228Y-66221714D01*
X84354228Y-66221714D02*
X84782800Y-66336000D01*
X84782800Y-66336000D02*
X84354228Y-66450285D01*
X84354228Y-66450285D02*
X84954228Y-66593143D01*
X84354228Y-67164571D02*
X84639942Y-66964571D01*
X84354228Y-66821714D02*
X84954228Y-66821714D01*
X84954228Y-66821714D02*
X84954228Y-67050285D01*
X84954228Y-67050285D02*
X84925657Y-67107428D01*
X84925657Y-67107428D02*
X84897085Y-67135999D01*
X84897085Y-67135999D02*
X84839942Y-67164571D01*
X84839942Y-67164571D02*
X84754228Y-67164571D01*
X84754228Y-67164571D02*
X84697085Y-67135999D01*
X84697085Y-67135999D02*
X84668514Y-67107428D01*
X84668514Y-67107428D02*
X84639942Y-67050285D01*
X84639942Y-67050285D02*
X84639942Y-66821714D01*
X47808857Y-75568028D02*
X47780285Y-75596600D01*
X47780285Y-75596600D02*
X47694571Y-75625171D01*
X47694571Y-75625171D02*
X47637428Y-75625171D01*
X47637428Y-75625171D02*
X47551714Y-75596600D01*
X47551714Y-75596600D02*
X47494571Y-75539457D01*
X47494571Y-75539457D02*
X47466000Y-75482314D01*
X47466000Y-75482314D02*
X47437428Y-75368028D01*
X47437428Y-75368028D02*
X47437428Y-75282314D01*
X47437428Y-75282314D02*
X47466000Y-75168028D01*
X47466000Y-75168028D02*
X47494571Y-75110885D01*
X47494571Y-75110885D02*
X47551714Y-75053742D01*
X47551714Y-75053742D02*
X47637428Y-75025171D01*
X47637428Y-75025171D02*
X47694571Y-75025171D01*
X47694571Y-75025171D02*
X47780285Y-75053742D01*
X47780285Y-75053742D02*
X47808857Y-75082314D01*
X48351714Y-75625171D02*
X48066000Y-75625171D01*
X48066000Y-75625171D02*
X48066000Y-75025171D01*
X48551714Y-75625171D02*
X48551714Y-75025171D01*
X48894571Y-75625171D02*
X48637428Y-75282314D01*
X48894571Y-75025171D02*
X48551714Y-75368028D01*
X71173428Y-61113143D02*
X71773428Y-61113143D01*
X71773428Y-61113143D02*
X71773428Y-61256000D01*
X71773428Y-61256000D02*
X71744857Y-61341714D01*
X71744857Y-61341714D02*
X71687714Y-61398857D01*
X71687714Y-61398857D02*
X71630571Y-61427428D01*
X71630571Y-61427428D02*
X71516285Y-61456000D01*
X71516285Y-61456000D02*
X71430571Y-61456000D01*
X71430571Y-61456000D02*
X71316285Y-61427428D01*
X71316285Y-61427428D02*
X71259142Y-61398857D01*
X71259142Y-61398857D02*
X71202000Y-61341714D01*
X71202000Y-61341714D02*
X71173428Y-61256000D01*
X71173428Y-61256000D02*
X71173428Y-61113143D01*
X71773428Y-61656000D02*
X71773428Y-62027428D01*
X71773428Y-62027428D02*
X71544857Y-61827428D01*
X71544857Y-61827428D02*
X71544857Y-61913143D01*
X71544857Y-61913143D02*
X71516285Y-61970286D01*
X71516285Y-61970286D02*
X71487714Y-61998857D01*
X71487714Y-61998857D02*
X71430571Y-62027428D01*
X71430571Y-62027428D02*
X71287714Y-62027428D01*
X71287714Y-62027428D02*
X71230571Y-61998857D01*
X71230571Y-61998857D02*
X71202000Y-61970286D01*
X71202000Y-61970286D02*
X71173428Y-61913143D01*
X71173428Y-61913143D02*
X71173428Y-61741714D01*
X71173428Y-61741714D02*
X71202000Y-61684571D01*
X71202000Y-61684571D02*
X71230571Y-61656000D01*
D13*
X24124902Y-71783714D02*
X24358236Y-71783714D01*
X24458236Y-72569428D02*
X24124902Y-72569428D01*
X24124902Y-72569428D02*
X24124902Y-71069428D01*
X24124902Y-71069428D02*
X24458236Y-71069428D01*
X24758235Y-72569428D02*
X24758235Y-71069428D01*
X24758235Y-71069428D02*
X24991569Y-72140857D01*
X24991569Y-72140857D02*
X25224902Y-71069428D01*
X25224902Y-71069428D02*
X25224902Y-72569428D01*
X25558235Y-71069428D02*
X25558235Y-72283714D01*
X25558235Y-72283714D02*
X25591569Y-72426571D01*
X25591569Y-72426571D02*
X25624902Y-72498000D01*
X25624902Y-72498000D02*
X25691569Y-72569428D01*
X25691569Y-72569428D02*
X25824902Y-72569428D01*
X25824902Y-72569428D02*
X25891569Y-72498000D01*
X25891569Y-72498000D02*
X25924902Y-72426571D01*
X25924902Y-72426571D02*
X25958235Y-72283714D01*
X25958235Y-72283714D02*
X25958235Y-71069428D01*
X26624902Y-72569428D02*
X26291568Y-72569428D01*
X26291568Y-72569428D02*
X26291568Y-71069428D01*
X26824902Y-72140857D02*
X27158235Y-72140857D01*
X26758235Y-72569428D02*
X26991569Y-71069428D01*
X26991569Y-71069428D02*
X27224902Y-72569428D01*
X27358235Y-71069428D02*
X27758235Y-71069428D01*
X27558235Y-72569428D02*
X27558235Y-71069428D01*
X27991568Y-72569428D02*
X27991568Y-71069428D01*
X28458235Y-71069428D02*
X28591568Y-71069428D01*
X28591568Y-71069428D02*
X28658235Y-71140857D01*
X28658235Y-71140857D02*
X28724901Y-71283714D01*
X28724901Y-71283714D02*
X28758235Y-71569428D01*
X28758235Y-71569428D02*
X28758235Y-72069428D01*
X28758235Y-72069428D02*
X28724901Y-72355142D01*
X28724901Y-72355142D02*
X28658235Y-72498000D01*
X28658235Y-72498000D02*
X28591568Y-72569428D01*
X28591568Y-72569428D02*
X28458235Y-72569428D01*
X28458235Y-72569428D02*
X28391568Y-72498000D01*
X28391568Y-72498000D02*
X28324901Y-72355142D01*
X28324901Y-72355142D02*
X28291568Y-72069428D01*
X28291568Y-72069428D02*
X28291568Y-71569428D01*
X28291568Y-71569428D02*
X28324901Y-71283714D01*
X28324901Y-71283714D02*
X28391568Y-71140857D01*
X28391568Y-71140857D02*
X28458235Y-71069428D01*
X29058234Y-72569428D02*
X29058234Y-71069428D01*
X29058234Y-71069428D02*
X29458234Y-72569428D01*
X29458234Y-72569428D02*
X29458234Y-71069428D01*
D12*
X42267286Y-73348928D02*
X42267286Y-74563214D01*
X42267286Y-74563214D02*
X42314905Y-74706071D01*
X42314905Y-74706071D02*
X42362524Y-74777500D01*
X42362524Y-74777500D02*
X42457762Y-74848928D01*
X42457762Y-74848928D02*
X42648238Y-74848928D01*
X42648238Y-74848928D02*
X42743476Y-74777500D01*
X42743476Y-74777500D02*
X42791095Y-74706071D01*
X42791095Y-74706071D02*
X42838714Y-74563214D01*
X42838714Y-74563214D02*
X42838714Y-73348928D01*
X43314905Y-74848928D02*
X43314905Y-73348928D01*
X43314905Y-73348928D02*
X43695857Y-73348928D01*
X43695857Y-73348928D02*
X43791095Y-73420357D01*
X43791095Y-73420357D02*
X43838714Y-73491785D01*
X43838714Y-73491785D02*
X43886333Y-73634642D01*
X43886333Y-73634642D02*
X43886333Y-73848928D01*
X43886333Y-73848928D02*
X43838714Y-73991785D01*
X43838714Y-73991785D02*
X43791095Y-74063214D01*
X43791095Y-74063214D02*
X43695857Y-74134642D01*
X43695857Y-74134642D02*
X43314905Y-74134642D01*
D11*
X71173428Y-68504571D02*
X71773428Y-68504571D01*
X71773428Y-68504571D02*
X71773428Y-68647428D01*
X71773428Y-68647428D02*
X71744857Y-68733142D01*
X71744857Y-68733142D02*
X71687714Y-68790285D01*
X71687714Y-68790285D02*
X71630571Y-68818856D01*
X71630571Y-68818856D02*
X71516285Y-68847428D01*
X71516285Y-68847428D02*
X71430571Y-68847428D01*
X71430571Y-68847428D02*
X71316285Y-68818856D01*
X71316285Y-68818856D02*
X71259142Y-68790285D01*
X71259142Y-68790285D02*
X71202000Y-68733142D01*
X71202000Y-68733142D02*
X71173428Y-68647428D01*
X71173428Y-68647428D02*
X71173428Y-68504571D01*
X71344857Y-69075999D02*
X71344857Y-69361714D01*
X71173428Y-69018856D02*
X71773428Y-69218856D01*
X71773428Y-69218856D02*
X71173428Y-69418856D01*
X71773428Y-69533142D02*
X71173428Y-69733142D01*
X71173428Y-69733142D02*
X71773428Y-69933142D01*
X84382800Y-63324571D02*
X84354228Y-63410286D01*
X84354228Y-63410286D02*
X84354228Y-63553143D01*
X84354228Y-63553143D02*
X84382800Y-63610286D01*
X84382800Y-63610286D02*
X84411371Y-63638857D01*
X84411371Y-63638857D02*
X84468514Y-63667428D01*
X84468514Y-63667428D02*
X84525657Y-63667428D01*
X84525657Y-63667428D02*
X84582800Y-63638857D01*
X84582800Y-63638857D02*
X84611371Y-63610286D01*
X84611371Y-63610286D02*
X84639942Y-63553143D01*
X84639942Y-63553143D02*
X84668514Y-63438857D01*
X84668514Y-63438857D02*
X84697085Y-63381714D01*
X84697085Y-63381714D02*
X84725657Y-63353143D01*
X84725657Y-63353143D02*
X84782800Y-63324571D01*
X84782800Y-63324571D02*
X84839942Y-63324571D01*
X84839942Y-63324571D02*
X84897085Y-63353143D01*
X84897085Y-63353143D02*
X84925657Y-63381714D01*
X84925657Y-63381714D02*
X84954228Y-63438857D01*
X84954228Y-63438857D02*
X84954228Y-63581714D01*
X84954228Y-63581714D02*
X84925657Y-63667428D01*
X84354228Y-63924572D02*
X84954228Y-63924572D01*
X84954228Y-63924572D02*
X84354228Y-64267429D01*
X84354228Y-64267429D02*
X84954228Y-64267429D01*
X84382800Y-64524571D02*
X84354228Y-64610286D01*
X84354228Y-64610286D02*
X84354228Y-64753143D01*
X84354228Y-64753143D02*
X84382800Y-64810286D01*
X84382800Y-64810286D02*
X84411371Y-64838857D01*
X84411371Y-64838857D02*
X84468514Y-64867428D01*
X84468514Y-64867428D02*
X84525657Y-64867428D01*
X84525657Y-64867428D02*
X84582800Y-64838857D01*
X84582800Y-64838857D02*
X84611371Y-64810286D01*
X84611371Y-64810286D02*
X84639942Y-64753143D01*
X84639942Y-64753143D02*
X84668514Y-64638857D01*
X84668514Y-64638857D02*
X84697085Y-64581714D01*
X84697085Y-64581714D02*
X84725657Y-64553143D01*
X84725657Y-64553143D02*
X84782800Y-64524571D01*
X84782800Y-64524571D02*
X84839942Y-64524571D01*
X84839942Y-64524571D02*
X84897085Y-64553143D01*
X84897085Y-64553143D02*
X84925657Y-64581714D01*
X84925657Y-64581714D02*
X84954228Y-64638857D01*
X84954228Y-64638857D02*
X84954228Y-64781714D01*
X84954228Y-64781714D02*
X84925657Y-64867428D01*
X82654228Y-63653143D02*
X83254228Y-63653143D01*
X83254228Y-63653143D02*
X83254228Y-63796000D01*
X83254228Y-63796000D02*
X83225657Y-63881714D01*
X83225657Y-63881714D02*
X83168514Y-63938857D01*
X83168514Y-63938857D02*
X83111371Y-63967428D01*
X83111371Y-63967428D02*
X82997085Y-63996000D01*
X82997085Y-63996000D02*
X82911371Y-63996000D01*
X82911371Y-63996000D02*
X82797085Y-63967428D01*
X82797085Y-63967428D02*
X82739942Y-63938857D01*
X82739942Y-63938857D02*
X82682800Y-63881714D01*
X82682800Y-63881714D02*
X82654228Y-63796000D01*
X82654228Y-63796000D02*
X82654228Y-63653143D01*
X83254228Y-64510286D02*
X83254228Y-64396000D01*
X83254228Y-64396000D02*
X83225657Y-64338857D01*
X83225657Y-64338857D02*
X83197085Y-64310286D01*
X83197085Y-64310286D02*
X83111371Y-64253143D01*
X83111371Y-64253143D02*
X82997085Y-64224571D01*
X82997085Y-64224571D02*
X82768514Y-64224571D01*
X82768514Y-64224571D02*
X82711371Y-64253143D01*
X82711371Y-64253143D02*
X82682800Y-64281714D01*
X82682800Y-64281714D02*
X82654228Y-64338857D01*
X82654228Y-64338857D02*
X82654228Y-64453143D01*
X82654228Y-64453143D02*
X82682800Y-64510286D01*
X82682800Y-64510286D02*
X82711371Y-64538857D01*
X82711371Y-64538857D02*
X82768514Y-64567428D01*
X82768514Y-64567428D02*
X82911371Y-64567428D01*
X82911371Y-64567428D02*
X82968514Y-64538857D01*
X82968514Y-64538857D02*
X82997085Y-64510286D01*
X82997085Y-64510286D02*
X83025657Y-64453143D01*
X83025657Y-64453143D02*
X83025657Y-64338857D01*
X83025657Y-64338857D02*
X82997085Y-64281714D01*
X82997085Y-64281714D02*
X82968514Y-64253143D01*
X82968514Y-64253143D02*
X82911371Y-64224571D01*
X71275028Y-54996428D02*
X71275028Y-54653571D01*
X71275028Y-54825000D02*
X71875028Y-54825000D01*
X71875028Y-54825000D02*
X71789314Y-54767857D01*
X71789314Y-54767857D02*
X71732171Y-54710714D01*
X71732171Y-54710714D02*
X71703600Y-54653571D01*
X82781228Y-76503913D02*
X82781228Y-76161056D01*
X82781228Y-76332485D02*
X83381228Y-76332485D01*
X83381228Y-76332485D02*
X83295514Y-76275342D01*
X83295514Y-76275342D02*
X83238371Y-76218199D01*
X83238371Y-76218199D02*
X83209800Y-76161056D01*
X83381228Y-77018200D02*
X83381228Y-76903914D01*
X83381228Y-76903914D02*
X83352657Y-76846771D01*
X83352657Y-76846771D02*
X83324085Y-76818200D01*
X83324085Y-76818200D02*
X83238371Y-76761057D01*
X83238371Y-76761057D02*
X83124085Y-76732485D01*
X83124085Y-76732485D02*
X82895514Y-76732485D01*
X82895514Y-76732485D02*
X82838371Y-76761057D01*
X82838371Y-76761057D02*
X82809800Y-76789628D01*
X82809800Y-76789628D02*
X82781228Y-76846771D01*
X82781228Y-76846771D02*
X82781228Y-76961057D01*
X82781228Y-76961057D02*
X82809800Y-77018200D01*
X82809800Y-77018200D02*
X82838371Y-77046771D01*
X82838371Y-77046771D02*
X82895514Y-77075342D01*
X82895514Y-77075342D02*
X83038371Y-77075342D01*
X83038371Y-77075342D02*
X83095514Y-77046771D01*
X83095514Y-77046771D02*
X83124085Y-77018200D01*
X83124085Y-77018200D02*
X83152657Y-76961057D01*
X83152657Y-76961057D02*
X83152657Y-76846771D01*
X83152657Y-76846771D02*
X83124085Y-76789628D01*
X83124085Y-76789628D02*
X83095514Y-76761057D01*
X83095514Y-76761057D02*
X83038371Y-76732485D01*
D12*
X49300048Y-74975928D02*
X49300048Y-73475928D01*
X49300048Y-73475928D02*
X49538143Y-73475928D01*
X49538143Y-73475928D02*
X49681000Y-73547357D01*
X49681000Y-73547357D02*
X49776238Y-73690214D01*
X49776238Y-73690214D02*
X49823857Y-73833071D01*
X49823857Y-73833071D02*
X49871476Y-74118785D01*
X49871476Y-74118785D02*
X49871476Y-74333071D01*
X49871476Y-74333071D02*
X49823857Y-74618785D01*
X49823857Y-74618785D02*
X49776238Y-74761642D01*
X49776238Y-74761642D02*
X49681000Y-74904500D01*
X49681000Y-74904500D02*
X49538143Y-74975928D01*
X49538143Y-74975928D02*
X49300048Y-74975928D01*
X50490524Y-73475928D02*
X50681000Y-73475928D01*
X50681000Y-73475928D02*
X50776238Y-73547357D01*
X50776238Y-73547357D02*
X50871476Y-73690214D01*
X50871476Y-73690214D02*
X50919095Y-73975928D01*
X50919095Y-73975928D02*
X50919095Y-74475928D01*
X50919095Y-74475928D02*
X50871476Y-74761642D01*
X50871476Y-74761642D02*
X50776238Y-74904500D01*
X50776238Y-74904500D02*
X50681000Y-74975928D01*
X50681000Y-74975928D02*
X50490524Y-74975928D01*
X50490524Y-74975928D02*
X50395286Y-74904500D01*
X50395286Y-74904500D02*
X50300048Y-74761642D01*
X50300048Y-74761642D02*
X50252429Y-74475928D01*
X50252429Y-74475928D02*
X50252429Y-73975928D01*
X50252429Y-73975928D02*
X50300048Y-73690214D01*
X50300048Y-73690214D02*
X50395286Y-73547357D01*
X50395286Y-73547357D02*
X50490524Y-73475928D01*
X51252429Y-73475928D02*
X51490524Y-74975928D01*
X51490524Y-74975928D02*
X51681000Y-73904500D01*
X51681000Y-73904500D02*
X51871476Y-74975928D01*
X51871476Y-74975928D02*
X52109572Y-73475928D01*
X52490524Y-74975928D02*
X52490524Y-73475928D01*
X52490524Y-73475928D02*
X53061952Y-74975928D01*
X53061952Y-74975928D02*
X53061952Y-73475928D01*
D11*
X45240286Y-75625171D02*
X45240286Y-75025171D01*
X45240286Y-75025171D02*
X45383143Y-75025171D01*
X45383143Y-75025171D02*
X45468857Y-75053742D01*
X45468857Y-75053742D02*
X45526000Y-75110885D01*
X45526000Y-75110885D02*
X45554571Y-75168028D01*
X45554571Y-75168028D02*
X45583143Y-75282314D01*
X45583143Y-75282314D02*
X45583143Y-75368028D01*
X45583143Y-75368028D02*
X45554571Y-75482314D01*
X45554571Y-75482314D02*
X45526000Y-75539457D01*
X45526000Y-75539457D02*
X45468857Y-75596600D01*
X45468857Y-75596600D02*
X45383143Y-75625171D01*
X45383143Y-75625171D02*
X45240286Y-75625171D01*
X45754571Y-75025171D02*
X46097429Y-75025171D01*
X45926000Y-75625171D02*
X45926000Y-75025171D01*
X71344857Y-70973142D02*
X71344857Y-71258857D01*
X71173428Y-70915999D02*
X71773428Y-71115999D01*
X71773428Y-71115999D02*
X71173428Y-71315999D01*
X71230571Y-71858857D02*
X71202000Y-71830285D01*
X71202000Y-71830285D02*
X71173428Y-71744571D01*
X71173428Y-71744571D02*
X71173428Y-71687428D01*
X71173428Y-71687428D02*
X71202000Y-71601714D01*
X71202000Y-71601714D02*
X71259142Y-71544571D01*
X71259142Y-71544571D02*
X71316285Y-71516000D01*
X71316285Y-71516000D02*
X71430571Y-71487428D01*
X71430571Y-71487428D02*
X71516285Y-71487428D01*
X71516285Y-71487428D02*
X71630571Y-71516000D01*
X71630571Y-71516000D02*
X71687714Y-71544571D01*
X71687714Y-71544571D02*
X71744857Y-71601714D01*
X71744857Y-71601714D02*
X71773428Y-71687428D01*
X71773428Y-71687428D02*
X71773428Y-71744571D01*
X71773428Y-71744571D02*
X71744857Y-71830285D01*
X71744857Y-71830285D02*
X71716285Y-71858857D01*
X71173428Y-72116000D02*
X71773428Y-72116000D01*
X71173428Y-72458857D02*
X71516285Y-72201714D01*
X71773428Y-72458857D02*
X71430571Y-72116000D01*
X71173428Y-63653143D02*
X71773428Y-63653143D01*
X71773428Y-63653143D02*
X71773428Y-63796000D01*
X71773428Y-63796000D02*
X71744857Y-63881714D01*
X71744857Y-63881714D02*
X71687714Y-63938857D01*
X71687714Y-63938857D02*
X71630571Y-63967428D01*
X71630571Y-63967428D02*
X71516285Y-63996000D01*
X71516285Y-63996000D02*
X71430571Y-63996000D01*
X71430571Y-63996000D02*
X71316285Y-63967428D01*
X71316285Y-63967428D02*
X71259142Y-63938857D01*
X71259142Y-63938857D02*
X71202000Y-63881714D01*
X71202000Y-63881714D02*
X71173428Y-63796000D01*
X71173428Y-63796000D02*
X71173428Y-63653143D01*
X71773428Y-64538857D02*
X71773428Y-64253143D01*
X71773428Y-64253143D02*
X71487714Y-64224571D01*
X71487714Y-64224571D02*
X71516285Y-64253143D01*
X71516285Y-64253143D02*
X71544857Y-64310286D01*
X71544857Y-64310286D02*
X71544857Y-64453143D01*
X71544857Y-64453143D02*
X71516285Y-64510286D01*
X71516285Y-64510286D02*
X71487714Y-64538857D01*
X71487714Y-64538857D02*
X71430571Y-64567428D01*
X71430571Y-64567428D02*
X71287714Y-64567428D01*
X71287714Y-64567428D02*
X71230571Y-64538857D01*
X71230571Y-64538857D02*
X71202000Y-64510286D01*
X71202000Y-64510286D02*
X71173428Y-64453143D01*
X71173428Y-64453143D02*
X71173428Y-64310286D01*
X71173428Y-64310286D02*
X71202000Y-64253143D01*
X71202000Y-64253143D02*
X71230571Y-64224571D01*
X42520914Y-75596600D02*
X42606629Y-75625171D01*
X42606629Y-75625171D02*
X42749486Y-75625171D01*
X42749486Y-75625171D02*
X42806629Y-75596600D01*
X42806629Y-75596600D02*
X42835200Y-75568028D01*
X42835200Y-75568028D02*
X42863771Y-75510885D01*
X42863771Y-75510885D02*
X42863771Y-75453742D01*
X42863771Y-75453742D02*
X42835200Y-75396600D01*
X42835200Y-75396600D02*
X42806629Y-75368028D01*
X42806629Y-75368028D02*
X42749486Y-75339457D01*
X42749486Y-75339457D02*
X42635200Y-75310885D01*
X42635200Y-75310885D02*
X42578057Y-75282314D01*
X42578057Y-75282314D02*
X42549486Y-75253742D01*
X42549486Y-75253742D02*
X42520914Y-75196600D01*
X42520914Y-75196600D02*
X42520914Y-75139457D01*
X42520914Y-75139457D02*
X42549486Y-75082314D01*
X42549486Y-75082314D02*
X42578057Y-75053742D01*
X42578057Y-75053742D02*
X42635200Y-75025171D01*
X42635200Y-75025171D02*
X42778057Y-75025171D01*
X42778057Y-75025171D02*
X42863771Y-75053742D01*
X43063772Y-75025171D02*
X43206629Y-75625171D01*
X43206629Y-75625171D02*
X43320915Y-75196600D01*
X43320915Y-75196600D02*
X43435200Y-75625171D01*
X43435200Y-75625171D02*
X43578058Y-75025171D01*
D14*
X24391131Y-74067114D02*
X24491131Y-74138542D01*
X24491131Y-74138542D02*
X24524464Y-74209971D01*
X24524464Y-74209971D02*
X24557797Y-74352828D01*
X24557797Y-74352828D02*
X24557797Y-74567114D01*
X24557797Y-74567114D02*
X24524464Y-74709971D01*
X24524464Y-74709971D02*
X24491131Y-74781400D01*
X24491131Y-74781400D02*
X24424464Y-74852828D01*
X24424464Y-74852828D02*
X24157797Y-74852828D01*
X24157797Y-74852828D02*
X24157797Y-73352828D01*
X24157797Y-73352828D02*
X24391131Y-73352828D01*
X24391131Y-73352828D02*
X24457797Y-73424257D01*
X24457797Y-73424257D02*
X24491131Y-73495685D01*
X24491131Y-73495685D02*
X24524464Y-73638542D01*
X24524464Y-73638542D02*
X24524464Y-73781400D01*
X24524464Y-73781400D02*
X24491131Y-73924257D01*
X24491131Y-73924257D02*
X24457797Y-73995685D01*
X24457797Y-73995685D02*
X24391131Y-74067114D01*
X24391131Y-74067114D02*
X24157797Y-74067114D01*
X25257797Y-74852828D02*
X25024464Y-74138542D01*
X24857797Y-74852828D02*
X24857797Y-73352828D01*
X24857797Y-73352828D02*
X25124464Y-73352828D01*
X25124464Y-73352828D02*
X25191131Y-73424257D01*
X25191131Y-73424257D02*
X25224464Y-73495685D01*
X25224464Y-73495685D02*
X25257797Y-73638542D01*
X25257797Y-73638542D02*
X25257797Y-73852828D01*
X25257797Y-73852828D02*
X25224464Y-73995685D01*
X25224464Y-73995685D02*
X25191131Y-74067114D01*
X25191131Y-74067114D02*
X25124464Y-74138542D01*
X25124464Y-74138542D02*
X24857797Y-74138542D01*
X25691131Y-73352828D02*
X25824464Y-73352828D01*
X25824464Y-73352828D02*
X25891131Y-73424257D01*
X25891131Y-73424257D02*
X25957797Y-73567114D01*
X25957797Y-73567114D02*
X25991131Y-73852828D01*
X25991131Y-73852828D02*
X25991131Y-74352828D01*
X25991131Y-74352828D02*
X25957797Y-74638542D01*
X25957797Y-74638542D02*
X25891131Y-74781400D01*
X25891131Y-74781400D02*
X25824464Y-74852828D01*
X25824464Y-74852828D02*
X25691131Y-74852828D01*
X25691131Y-74852828D02*
X25624464Y-74781400D01*
X25624464Y-74781400D02*
X25557797Y-74638542D01*
X25557797Y-74638542D02*
X25524464Y-74352828D01*
X25524464Y-74352828D02*
X25524464Y-73852828D01*
X25524464Y-73852828D02*
X25557797Y-73567114D01*
X25557797Y-73567114D02*
X25624464Y-73424257D01*
X25624464Y-73424257D02*
X25691131Y-73352828D01*
X26224464Y-73352828D02*
X26391130Y-74852828D01*
X26391130Y-74852828D02*
X26524464Y-73781400D01*
X26524464Y-73781400D02*
X26657797Y-74852828D01*
X26657797Y-74852828D02*
X26824464Y-73352828D01*
X27057797Y-74781400D02*
X27157797Y-74852828D01*
X27157797Y-74852828D02*
X27324464Y-74852828D01*
X27324464Y-74852828D02*
X27391130Y-74781400D01*
X27391130Y-74781400D02*
X27424464Y-74709971D01*
X27424464Y-74709971D02*
X27457797Y-74567114D01*
X27457797Y-74567114D02*
X27457797Y-74424257D01*
X27457797Y-74424257D02*
X27424464Y-74281400D01*
X27424464Y-74281400D02*
X27391130Y-74209971D01*
X27391130Y-74209971D02*
X27324464Y-74138542D01*
X27324464Y-74138542D02*
X27191130Y-74067114D01*
X27191130Y-74067114D02*
X27124464Y-73995685D01*
X27124464Y-73995685D02*
X27091130Y-73924257D01*
X27091130Y-73924257D02*
X27057797Y-73781400D01*
X27057797Y-73781400D02*
X27057797Y-73638542D01*
X27057797Y-73638542D02*
X27091130Y-73495685D01*
X27091130Y-73495685D02*
X27124464Y-73424257D01*
X27124464Y-73424257D02*
X27191130Y-73352828D01*
X27191130Y-73352828D02*
X27357797Y-73352828D01*
X27357797Y-73352828D02*
X27457797Y-73424257D01*
X27757797Y-74067114D02*
X27991131Y-74067114D01*
X28091131Y-74852828D02*
X27757797Y-74852828D01*
X27757797Y-74852828D02*
X27757797Y-73352828D01*
X27757797Y-73352828D02*
X28091131Y-73352828D01*
D11*
X71744857Y-56018857D02*
X71773428Y-55961715D01*
X71773428Y-55961715D02*
X71773428Y-55876000D01*
X71773428Y-55876000D02*
X71744857Y-55790286D01*
X71744857Y-55790286D02*
X71687714Y-55733143D01*
X71687714Y-55733143D02*
X71630571Y-55704572D01*
X71630571Y-55704572D02*
X71516285Y-55676000D01*
X71516285Y-55676000D02*
X71430571Y-55676000D01*
X71430571Y-55676000D02*
X71316285Y-55704572D01*
X71316285Y-55704572D02*
X71259142Y-55733143D01*
X71259142Y-55733143D02*
X71202000Y-55790286D01*
X71202000Y-55790286D02*
X71173428Y-55876000D01*
X71173428Y-55876000D02*
X71173428Y-55933143D01*
X71173428Y-55933143D02*
X71202000Y-56018857D01*
X71202000Y-56018857D02*
X71230571Y-56047429D01*
X71230571Y-56047429D02*
X71430571Y-56047429D01*
X71430571Y-56047429D02*
X71430571Y-55933143D01*
X71173428Y-56304572D02*
X71773428Y-56304572D01*
X71773428Y-56304572D02*
X71173428Y-56647429D01*
X71173428Y-56647429D02*
X71773428Y-56647429D01*
X71173428Y-56933143D02*
X71773428Y-56933143D01*
X71773428Y-56933143D02*
X71773428Y-57076000D01*
X71773428Y-57076000D02*
X71744857Y-57161714D01*
X71744857Y-57161714D02*
X71687714Y-57218857D01*
X71687714Y-57218857D02*
X71630571Y-57247428D01*
X71630571Y-57247428D02*
X71516285Y-57276000D01*
X71516285Y-57276000D02*
X71430571Y-57276000D01*
X71430571Y-57276000D02*
X71316285Y-57247428D01*
X71316285Y-57247428D02*
X71259142Y-57218857D01*
X71259142Y-57218857D02*
X71202000Y-57161714D01*
X71202000Y-57161714D02*
X71173428Y-57076000D01*
X71173428Y-57076000D02*
X71173428Y-56933143D01*
X39695199Y-74999771D02*
X39895199Y-75599771D01*
X39895199Y-75599771D02*
X40095199Y-74999771D01*
X40638057Y-75542628D02*
X40609485Y-75571200D01*
X40609485Y-75571200D02*
X40523771Y-75599771D01*
X40523771Y-75599771D02*
X40466628Y-75599771D01*
X40466628Y-75599771D02*
X40380914Y-75571200D01*
X40380914Y-75571200D02*
X40323771Y-75514057D01*
X40323771Y-75514057D02*
X40295200Y-75456914D01*
X40295200Y-75456914D02*
X40266628Y-75342628D01*
X40266628Y-75342628D02*
X40266628Y-75256914D01*
X40266628Y-75256914D02*
X40295200Y-75142628D01*
X40295200Y-75142628D02*
X40323771Y-75085485D01*
X40323771Y-75085485D02*
X40380914Y-75028342D01*
X40380914Y-75028342D02*
X40466628Y-74999771D01*
X40466628Y-74999771D02*
X40523771Y-74999771D01*
X40523771Y-74999771D02*
X40609485Y-75028342D01*
X40609485Y-75028342D02*
X40638057Y-75056914D01*
X41238057Y-75542628D02*
X41209485Y-75571200D01*
X41209485Y-75571200D02*
X41123771Y-75599771D01*
X41123771Y-75599771D02*
X41066628Y-75599771D01*
X41066628Y-75599771D02*
X40980914Y-75571200D01*
X40980914Y-75571200D02*
X40923771Y-75514057D01*
X40923771Y-75514057D02*
X40895200Y-75456914D01*
X40895200Y-75456914D02*
X40866628Y-75342628D01*
X40866628Y-75342628D02*
X40866628Y-75256914D01*
X40866628Y-75256914D02*
X40895200Y-75142628D01*
X40895200Y-75142628D02*
X40923771Y-75085485D01*
X40923771Y-75085485D02*
X40980914Y-75028342D01*
X40980914Y-75028342D02*
X41066628Y-74999771D01*
X41066628Y-74999771D02*
X41123771Y-74999771D01*
X41123771Y-74999771D02*
X41209485Y-75028342D01*
X41209485Y-75028342D02*
X41238057Y-75056914D01*
D12*
X25368476Y-69768928D02*
X25368476Y-68268928D01*
X25368476Y-68268928D02*
X25701809Y-69340357D01*
X25701809Y-69340357D02*
X26035142Y-68268928D01*
X26035142Y-68268928D02*
X26035142Y-69768928D01*
X26701809Y-68268928D02*
X26892285Y-68268928D01*
X26892285Y-68268928D02*
X26987523Y-68340357D01*
X26987523Y-68340357D02*
X27082761Y-68483214D01*
X27082761Y-68483214D02*
X27130380Y-68768928D01*
X27130380Y-68768928D02*
X27130380Y-69268928D01*
X27130380Y-69268928D02*
X27082761Y-69554642D01*
X27082761Y-69554642D02*
X26987523Y-69697500D01*
X26987523Y-69697500D02*
X26892285Y-69768928D01*
X26892285Y-69768928D02*
X26701809Y-69768928D01*
X26701809Y-69768928D02*
X26606571Y-69697500D01*
X26606571Y-69697500D02*
X26511333Y-69554642D01*
X26511333Y-69554642D02*
X26463714Y-69268928D01*
X26463714Y-69268928D02*
X26463714Y-68768928D01*
X26463714Y-68768928D02*
X26511333Y-68483214D01*
X26511333Y-68483214D02*
X26606571Y-68340357D01*
X26606571Y-68340357D02*
X26701809Y-68268928D01*
X27558952Y-69768928D02*
X27558952Y-68268928D01*
X27558952Y-68268928D02*
X27797047Y-68268928D01*
X27797047Y-68268928D02*
X27939904Y-68340357D01*
X27939904Y-68340357D02*
X28035142Y-68483214D01*
X28035142Y-68483214D02*
X28082761Y-68626071D01*
X28082761Y-68626071D02*
X28130380Y-68911785D01*
X28130380Y-68911785D02*
X28130380Y-69126071D01*
X28130380Y-69126071D02*
X28082761Y-69411785D01*
X28082761Y-69411785D02*
X28035142Y-69554642D01*
X28035142Y-69554642D02*
X27939904Y-69697500D01*
X27939904Y-69697500D02*
X27797047Y-69768928D01*
X27797047Y-69768928D02*
X27558952Y-69768928D01*
X28558952Y-68983214D02*
X28892285Y-68983214D01*
X29035142Y-69768928D02*
X28558952Y-69768928D01*
X28558952Y-69768928D02*
X28558952Y-68268928D01*
X28558952Y-68268928D02*
X29035142Y-68268928D01*
D11*
X82654228Y-66193143D02*
X83254228Y-66193143D01*
X83254228Y-66193143D02*
X83254228Y-66336000D01*
X83254228Y-66336000D02*
X83225657Y-66421714D01*
X83225657Y-66421714D02*
X83168514Y-66478857D01*
X83168514Y-66478857D02*
X83111371Y-66507428D01*
X83111371Y-66507428D02*
X82997085Y-66536000D01*
X82997085Y-66536000D02*
X82911371Y-66536000D01*
X82911371Y-66536000D02*
X82797085Y-66507428D01*
X82797085Y-66507428D02*
X82739942Y-66478857D01*
X82739942Y-66478857D02*
X82682800Y-66421714D01*
X82682800Y-66421714D02*
X82654228Y-66336000D01*
X82654228Y-66336000D02*
X82654228Y-66193143D01*
X82997085Y-66878857D02*
X83025657Y-66821714D01*
X83025657Y-66821714D02*
X83054228Y-66793143D01*
X83054228Y-66793143D02*
X83111371Y-66764571D01*
X83111371Y-66764571D02*
X83139942Y-66764571D01*
X83139942Y-66764571D02*
X83197085Y-66793143D01*
X83197085Y-66793143D02*
X83225657Y-66821714D01*
X83225657Y-66821714D02*
X83254228Y-66878857D01*
X83254228Y-66878857D02*
X83254228Y-66993143D01*
X83254228Y-66993143D02*
X83225657Y-67050286D01*
X83225657Y-67050286D02*
X83197085Y-67078857D01*
X83197085Y-67078857D02*
X83139942Y-67107428D01*
X83139942Y-67107428D02*
X83111371Y-67107428D01*
X83111371Y-67107428D02*
X83054228Y-67078857D01*
X83054228Y-67078857D02*
X83025657Y-67050286D01*
X83025657Y-67050286D02*
X82997085Y-66993143D01*
X82997085Y-66993143D02*
X82997085Y-66878857D01*
X82997085Y-66878857D02*
X82968514Y-66821714D01*
X82968514Y-66821714D02*
X82939942Y-66793143D01*
X82939942Y-66793143D02*
X82882800Y-66764571D01*
X82882800Y-66764571D02*
X82768514Y-66764571D01*
X82768514Y-66764571D02*
X82711371Y-66793143D01*
X82711371Y-66793143D02*
X82682800Y-66821714D01*
X82682800Y-66821714D02*
X82654228Y-66878857D01*
X82654228Y-66878857D02*
X82654228Y-66993143D01*
X82654228Y-66993143D02*
X82682800Y-67050286D01*
X82682800Y-67050286D02*
X82711371Y-67078857D01*
X82711371Y-67078857D02*
X82768514Y-67107428D01*
X82768514Y-67107428D02*
X82882800Y-67107428D01*
X82882800Y-67107428D02*
X82939942Y-67078857D01*
X82939942Y-67078857D02*
X82968514Y-67050286D01*
X82968514Y-67050286D02*
X82997085Y-66993143D01*
X71173428Y-58573143D02*
X71773428Y-58573143D01*
X71773428Y-58573143D02*
X71773428Y-58716000D01*
X71773428Y-58716000D02*
X71744857Y-58801714D01*
X71744857Y-58801714D02*
X71687714Y-58858857D01*
X71687714Y-58858857D02*
X71630571Y-58887428D01*
X71630571Y-58887428D02*
X71516285Y-58916000D01*
X71516285Y-58916000D02*
X71430571Y-58916000D01*
X71430571Y-58916000D02*
X71316285Y-58887428D01*
X71316285Y-58887428D02*
X71259142Y-58858857D01*
X71259142Y-58858857D02*
X71202000Y-58801714D01*
X71202000Y-58801714D02*
X71173428Y-58716000D01*
X71173428Y-58716000D02*
X71173428Y-58573143D01*
X71173428Y-59487428D02*
X71173428Y-59144571D01*
X71173428Y-59316000D02*
X71773428Y-59316000D01*
X71773428Y-59316000D02*
X71687714Y-59258857D01*
X71687714Y-59258857D02*
X71630571Y-59201714D01*
X71630571Y-59201714D02*
X71602000Y-59144571D01*
X43699047Y-62884009D02*
X43841904Y-62931628D01*
X43841904Y-62931628D02*
X43889523Y-62979247D01*
X43889523Y-62979247D02*
X43937142Y-63074485D01*
X43937142Y-63074485D02*
X43937142Y-63217342D01*
X43937142Y-63217342D02*
X43889523Y-63312580D01*
X43889523Y-63312580D02*
X43841904Y-63360200D01*
X43841904Y-63360200D02*
X43746666Y-63407819D01*
X43746666Y-63407819D02*
X43365714Y-63407819D01*
X43365714Y-63407819D02*
X43365714Y-62407819D01*
X43365714Y-62407819D02*
X43699047Y-62407819D01*
X43699047Y-62407819D02*
X43794285Y-62455438D01*
X43794285Y-62455438D02*
X43841904Y-62503057D01*
X43841904Y-62503057D02*
X43889523Y-62598295D01*
X43889523Y-62598295D02*
X43889523Y-62693533D01*
X43889523Y-62693533D02*
X43841904Y-62788771D01*
X43841904Y-62788771D02*
X43794285Y-62836390D01*
X43794285Y-62836390D02*
X43699047Y-62884009D01*
X43699047Y-62884009D02*
X43365714Y-62884009D01*
X44270476Y-62407819D02*
X44937142Y-62407819D01*
X44937142Y-62407819D02*
X44270476Y-63407819D01*
X44270476Y-63407819D02*
X44937142Y-63407819D01*
X45841904Y-63407819D02*
X45270476Y-63407819D01*
X45556190Y-63407819D02*
X45556190Y-62407819D01*
X45556190Y-62407819D02*
X45460952Y-62550676D01*
X45460952Y-62550676D02*
X45365714Y-62645914D01*
X45365714Y-62645914D02*
X45270476Y-62693533D01*
X40389048Y-56041866D02*
X41150953Y-56041866D01*
X40770000Y-56422819D02*
X40770000Y-55660914D01*
X74329819Y-83122094D02*
X73329819Y-83122094D01*
X73329819Y-83122094D02*
X73329819Y-82883999D01*
X73329819Y-82883999D02*
X73377438Y-82741142D01*
X73377438Y-82741142D02*
X73472676Y-82645904D01*
X73472676Y-82645904D02*
X73567914Y-82598285D01*
X73567914Y-82598285D02*
X73758390Y-82550666D01*
X73758390Y-82550666D02*
X73901247Y-82550666D01*
X73901247Y-82550666D02*
X74091723Y-82598285D01*
X74091723Y-82598285D02*
X74186961Y-82645904D01*
X74186961Y-82645904D02*
X74282200Y-82741142D01*
X74282200Y-82741142D02*
X74329819Y-82883999D01*
X74329819Y-82883999D02*
X74329819Y-83122094D01*
X74329819Y-81598285D02*
X74329819Y-82169713D01*
X74329819Y-81883999D02*
X73329819Y-81883999D01*
X73329819Y-81883999D02*
X73472676Y-81979237D01*
X73472676Y-81979237D02*
X73567914Y-82074475D01*
X73567914Y-82074475D02*
X73615533Y-82169713D01*
X39237200Y-81418332D02*
X39284819Y-81275475D01*
X39284819Y-81275475D02*
X39284819Y-81037380D01*
X39284819Y-81037380D02*
X39237200Y-80942142D01*
X39237200Y-80942142D02*
X39189580Y-80894523D01*
X39189580Y-80894523D02*
X39094342Y-80846904D01*
X39094342Y-80846904D02*
X38999104Y-80846904D01*
X38999104Y-80846904D02*
X38903866Y-80894523D01*
X38903866Y-80894523D02*
X38856247Y-80942142D01*
X38856247Y-80942142D02*
X38808628Y-81037380D01*
X38808628Y-81037380D02*
X38761009Y-81227856D01*
X38761009Y-81227856D02*
X38713390Y-81323094D01*
X38713390Y-81323094D02*
X38665771Y-81370713D01*
X38665771Y-81370713D02*
X38570533Y-81418332D01*
X38570533Y-81418332D02*
X38475295Y-81418332D01*
X38475295Y-81418332D02*
X38380057Y-81370713D01*
X38380057Y-81370713D02*
X38332438Y-81323094D01*
X38332438Y-81323094D02*
X38284819Y-81227856D01*
X38284819Y-81227856D02*
X38284819Y-80989761D01*
X38284819Y-80989761D02*
X38332438Y-80846904D01*
X38284819Y-80513570D02*
X39284819Y-80275475D01*
X39284819Y-80275475D02*
X38570533Y-80084999D01*
X38570533Y-80084999D02*
X39284819Y-79894523D01*
X39284819Y-79894523D02*
X38284819Y-79656428D01*
X39284819Y-78751666D02*
X39284819Y-79323094D01*
X39284819Y-79037380D02*
X38284819Y-79037380D01*
X38284819Y-79037380D02*
X38427676Y-79132618D01*
X38427676Y-79132618D02*
X38522914Y-79227856D01*
X38522914Y-79227856D02*
X38570533Y-79323094D01*
X47492200Y-81418332D02*
X47539819Y-81275475D01*
X47539819Y-81275475D02*
X47539819Y-81037380D01*
X47539819Y-81037380D02*
X47492200Y-80942142D01*
X47492200Y-80942142D02*
X47444580Y-80894523D01*
X47444580Y-80894523D02*
X47349342Y-80846904D01*
X47349342Y-80846904D02*
X47254104Y-80846904D01*
X47254104Y-80846904D02*
X47158866Y-80894523D01*
X47158866Y-80894523D02*
X47111247Y-80942142D01*
X47111247Y-80942142D02*
X47063628Y-81037380D01*
X47063628Y-81037380D02*
X47016009Y-81227856D01*
X47016009Y-81227856D02*
X46968390Y-81323094D01*
X46968390Y-81323094D02*
X46920771Y-81370713D01*
X46920771Y-81370713D02*
X46825533Y-81418332D01*
X46825533Y-81418332D02*
X46730295Y-81418332D01*
X46730295Y-81418332D02*
X46635057Y-81370713D01*
X46635057Y-81370713D02*
X46587438Y-81323094D01*
X46587438Y-81323094D02*
X46539819Y-81227856D01*
X46539819Y-81227856D02*
X46539819Y-80989761D01*
X46539819Y-80989761D02*
X46587438Y-80846904D01*
X46539819Y-80513570D02*
X47539819Y-80275475D01*
X47539819Y-80275475D02*
X46825533Y-80084999D01*
X46825533Y-80084999D02*
X47539819Y-79894523D01*
X47539819Y-79894523D02*
X46539819Y-79656428D01*
X46635057Y-79323094D02*
X46587438Y-79275475D01*
X46587438Y-79275475D02*
X46539819Y-79180237D01*
X46539819Y-79180237D02*
X46539819Y-78942142D01*
X46539819Y-78942142D02*
X46587438Y-78846904D01*
X46587438Y-78846904D02*
X46635057Y-78799285D01*
X46635057Y-78799285D02*
X46730295Y-78751666D01*
X46730295Y-78751666D02*
X46825533Y-78751666D01*
X46825533Y-78751666D02*
X46968390Y-78799285D01*
X46968390Y-78799285D02*
X47539819Y-79370713D01*
X47539819Y-79370713D02*
X47539819Y-78751666D01*
X55747200Y-81418332D02*
X55794819Y-81275475D01*
X55794819Y-81275475D02*
X55794819Y-81037380D01*
X55794819Y-81037380D02*
X55747200Y-80942142D01*
X55747200Y-80942142D02*
X55699580Y-80894523D01*
X55699580Y-80894523D02*
X55604342Y-80846904D01*
X55604342Y-80846904D02*
X55509104Y-80846904D01*
X55509104Y-80846904D02*
X55413866Y-80894523D01*
X55413866Y-80894523D02*
X55366247Y-80942142D01*
X55366247Y-80942142D02*
X55318628Y-81037380D01*
X55318628Y-81037380D02*
X55271009Y-81227856D01*
X55271009Y-81227856D02*
X55223390Y-81323094D01*
X55223390Y-81323094D02*
X55175771Y-81370713D01*
X55175771Y-81370713D02*
X55080533Y-81418332D01*
X55080533Y-81418332D02*
X54985295Y-81418332D01*
X54985295Y-81418332D02*
X54890057Y-81370713D01*
X54890057Y-81370713D02*
X54842438Y-81323094D01*
X54842438Y-81323094D02*
X54794819Y-81227856D01*
X54794819Y-81227856D02*
X54794819Y-80989761D01*
X54794819Y-80989761D02*
X54842438Y-80846904D01*
X54794819Y-80513570D02*
X55794819Y-80275475D01*
X55794819Y-80275475D02*
X55080533Y-80084999D01*
X55080533Y-80084999D02*
X55794819Y-79894523D01*
X55794819Y-79894523D02*
X54794819Y-79656428D01*
X54794819Y-79370713D02*
X54794819Y-78751666D01*
X54794819Y-78751666D02*
X55175771Y-79084999D01*
X55175771Y-79084999D02*
X55175771Y-78942142D01*
X55175771Y-78942142D02*
X55223390Y-78846904D01*
X55223390Y-78846904D02*
X55271009Y-78799285D01*
X55271009Y-78799285D02*
X55366247Y-78751666D01*
X55366247Y-78751666D02*
X55604342Y-78751666D01*
X55604342Y-78751666D02*
X55699580Y-78799285D01*
X55699580Y-78799285D02*
X55747200Y-78846904D01*
X55747200Y-78846904D02*
X55794819Y-78942142D01*
X55794819Y-78942142D02*
X55794819Y-79227856D01*
X55794819Y-79227856D02*
X55747200Y-79323094D01*
X55747200Y-79323094D02*
X55699580Y-79370713D01*
X64002200Y-81418332D02*
X64049819Y-81275475D01*
X64049819Y-81275475D02*
X64049819Y-81037380D01*
X64049819Y-81037380D02*
X64002200Y-80942142D01*
X64002200Y-80942142D02*
X63954580Y-80894523D01*
X63954580Y-80894523D02*
X63859342Y-80846904D01*
X63859342Y-80846904D02*
X63764104Y-80846904D01*
X63764104Y-80846904D02*
X63668866Y-80894523D01*
X63668866Y-80894523D02*
X63621247Y-80942142D01*
X63621247Y-80942142D02*
X63573628Y-81037380D01*
X63573628Y-81037380D02*
X63526009Y-81227856D01*
X63526009Y-81227856D02*
X63478390Y-81323094D01*
X63478390Y-81323094D02*
X63430771Y-81370713D01*
X63430771Y-81370713D02*
X63335533Y-81418332D01*
X63335533Y-81418332D02*
X63240295Y-81418332D01*
X63240295Y-81418332D02*
X63145057Y-81370713D01*
X63145057Y-81370713D02*
X63097438Y-81323094D01*
X63097438Y-81323094D02*
X63049819Y-81227856D01*
X63049819Y-81227856D02*
X63049819Y-80989761D01*
X63049819Y-80989761D02*
X63097438Y-80846904D01*
X63049819Y-80513570D02*
X64049819Y-80275475D01*
X64049819Y-80275475D02*
X63335533Y-80084999D01*
X63335533Y-80084999D02*
X64049819Y-79894523D01*
X64049819Y-79894523D02*
X63049819Y-79656428D01*
X63383152Y-78846904D02*
X64049819Y-78846904D01*
X63002200Y-79084999D02*
X63716485Y-79323094D01*
X63716485Y-79323094D02*
X63716485Y-78704047D01*
X72257200Y-81418332D02*
X72304819Y-81275475D01*
X72304819Y-81275475D02*
X72304819Y-81037380D01*
X72304819Y-81037380D02*
X72257200Y-80942142D01*
X72257200Y-80942142D02*
X72209580Y-80894523D01*
X72209580Y-80894523D02*
X72114342Y-80846904D01*
X72114342Y-80846904D02*
X72019104Y-80846904D01*
X72019104Y-80846904D02*
X71923866Y-80894523D01*
X71923866Y-80894523D02*
X71876247Y-80942142D01*
X71876247Y-80942142D02*
X71828628Y-81037380D01*
X71828628Y-81037380D02*
X71781009Y-81227856D01*
X71781009Y-81227856D02*
X71733390Y-81323094D01*
X71733390Y-81323094D02*
X71685771Y-81370713D01*
X71685771Y-81370713D02*
X71590533Y-81418332D01*
X71590533Y-81418332D02*
X71495295Y-81418332D01*
X71495295Y-81418332D02*
X71400057Y-81370713D01*
X71400057Y-81370713D02*
X71352438Y-81323094D01*
X71352438Y-81323094D02*
X71304819Y-81227856D01*
X71304819Y-81227856D02*
X71304819Y-80989761D01*
X71304819Y-80989761D02*
X71352438Y-80846904D01*
X71304819Y-80513570D02*
X72304819Y-80275475D01*
X72304819Y-80275475D02*
X71590533Y-80084999D01*
X71590533Y-80084999D02*
X72304819Y-79894523D01*
X72304819Y-79894523D02*
X71304819Y-79656428D01*
X71304819Y-78799285D02*
X71304819Y-79275475D01*
X71304819Y-79275475D02*
X71781009Y-79323094D01*
X71781009Y-79323094D02*
X71733390Y-79275475D01*
X71733390Y-79275475D02*
X71685771Y-79180237D01*
X71685771Y-79180237D02*
X71685771Y-78942142D01*
X71685771Y-78942142D02*
X71733390Y-78846904D01*
X71733390Y-78846904D02*
X71781009Y-78799285D01*
X71781009Y-78799285D02*
X71876247Y-78751666D01*
X71876247Y-78751666D02*
X72114342Y-78751666D01*
X72114342Y-78751666D02*
X72209580Y-78799285D01*
X72209580Y-78799285D02*
X72257200Y-78846904D01*
X72257200Y-78846904D02*
X72304819Y-78942142D01*
X72304819Y-78942142D02*
X72304819Y-79180237D01*
X72304819Y-79180237D02*
X72257200Y-79275475D01*
X72257200Y-79275475D02*
X72209580Y-79323094D01*
X61916819Y-39608666D02*
X61440628Y-39941999D01*
X61916819Y-40180094D02*
X60916819Y-40180094D01*
X60916819Y-40180094D02*
X60916819Y-39799142D01*
X60916819Y-39799142D02*
X60964438Y-39703904D01*
X60964438Y-39703904D02*
X61012057Y-39656285D01*
X61012057Y-39656285D02*
X61107295Y-39608666D01*
X61107295Y-39608666D02*
X61250152Y-39608666D01*
X61250152Y-39608666D02*
X61345390Y-39656285D01*
X61345390Y-39656285D02*
X61393009Y-39703904D01*
X61393009Y-39703904D02*
X61440628Y-39799142D01*
X61440628Y-39799142D02*
X61440628Y-40180094D01*
X60916819Y-39275332D02*
X60916819Y-38656285D01*
X60916819Y-38656285D02*
X61297771Y-38989618D01*
X61297771Y-38989618D02*
X61297771Y-38846761D01*
X61297771Y-38846761D02*
X61345390Y-38751523D01*
X61345390Y-38751523D02*
X61393009Y-38703904D01*
X61393009Y-38703904D02*
X61488247Y-38656285D01*
X61488247Y-38656285D02*
X61726342Y-38656285D01*
X61726342Y-38656285D02*
X61821580Y-38703904D01*
X61821580Y-38703904D02*
X61869200Y-38751523D01*
X61869200Y-38751523D02*
X61916819Y-38846761D01*
X61916819Y-38846761D02*
X61916819Y-39132475D01*
X61916819Y-39132475D02*
X61869200Y-39227713D01*
X61869200Y-39227713D02*
X61821580Y-39275332D01*
X58740819Y-39624666D02*
X58264628Y-39957999D01*
X58740819Y-40196094D02*
X57740819Y-40196094D01*
X57740819Y-40196094D02*
X57740819Y-39815142D01*
X57740819Y-39815142D02*
X57788438Y-39719904D01*
X57788438Y-39719904D02*
X57836057Y-39672285D01*
X57836057Y-39672285D02*
X57931295Y-39624666D01*
X57931295Y-39624666D02*
X58074152Y-39624666D01*
X58074152Y-39624666D02*
X58169390Y-39672285D01*
X58169390Y-39672285D02*
X58217009Y-39719904D01*
X58217009Y-39719904D02*
X58264628Y-39815142D01*
X58264628Y-39815142D02*
X58264628Y-40196094D01*
X58074152Y-38767523D02*
X58740819Y-38767523D01*
X57693200Y-39005618D02*
X58407485Y-39243713D01*
X58407485Y-39243713D02*
X58407485Y-38624666D01*
X60754666Y-48056819D02*
X60754666Y-48771104D01*
X60754666Y-48771104D02*
X60707047Y-48913961D01*
X60707047Y-48913961D02*
X60611809Y-49009200D01*
X60611809Y-49009200D02*
X60468952Y-49056819D01*
X60468952Y-49056819D02*
X60373714Y-49056819D01*
X61230857Y-49056819D02*
X61230857Y-48056819D01*
X61230857Y-48056819D02*
X61611809Y-48056819D01*
X61611809Y-48056819D02*
X61707047Y-48104438D01*
X61707047Y-48104438D02*
X61754666Y-48152057D01*
X61754666Y-48152057D02*
X61802285Y-48247295D01*
X61802285Y-48247295D02*
X61802285Y-48390152D01*
X61802285Y-48390152D02*
X61754666Y-48485390D01*
X61754666Y-48485390D02*
X61707047Y-48533009D01*
X61707047Y-48533009D02*
X61611809Y-48580628D01*
X61611809Y-48580628D02*
X61230857Y-48580628D01*
X62754666Y-49056819D02*
X62183238Y-49056819D01*
X62468952Y-49056819D02*
X62468952Y-48056819D01*
X62468952Y-48056819D02*
X62373714Y-48199676D01*
X62373714Y-48199676D02*
X62278476Y-48294914D01*
X62278476Y-48294914D02*
X62183238Y-48342533D01*
X63884667Y-46278819D02*
X64503714Y-46278819D01*
X64503714Y-46278819D02*
X64170381Y-46659771D01*
X64170381Y-46659771D02*
X64313238Y-46659771D01*
X64313238Y-46659771D02*
X64408476Y-46707390D01*
X64408476Y-46707390D02*
X64456095Y-46755009D01*
X64456095Y-46755009D02*
X64503714Y-46850247D01*
X64503714Y-46850247D02*
X64503714Y-47088342D01*
X64503714Y-47088342D02*
X64456095Y-47183580D01*
X64456095Y-47183580D02*
X64408476Y-47231200D01*
X64408476Y-47231200D02*
X64313238Y-47278819D01*
X64313238Y-47278819D02*
X64027524Y-47278819D01*
X64027524Y-47278819D02*
X63932286Y-47231200D01*
X63932286Y-47231200D02*
X63884667Y-47183580D01*
X59303714Y-47278819D02*
X58732286Y-47278819D01*
X59018000Y-47278819D02*
X59018000Y-46278819D01*
X59018000Y-46278819D02*
X58922762Y-46421676D01*
X58922762Y-46421676D02*
X58827524Y-46516914D01*
X58827524Y-46516914D02*
X58732286Y-46564533D01*
X76012257Y-75996819D02*
X76583685Y-75996819D01*
X76297971Y-76996819D02*
X76297971Y-75996819D01*
X77488447Y-76901580D02*
X77440828Y-76949200D01*
X77440828Y-76949200D02*
X77297971Y-76996819D01*
X77297971Y-76996819D02*
X77202733Y-76996819D01*
X77202733Y-76996819D02*
X77059876Y-76949200D01*
X77059876Y-76949200D02*
X76964638Y-76853961D01*
X76964638Y-76853961D02*
X76917019Y-76758723D01*
X76917019Y-76758723D02*
X76869400Y-76568247D01*
X76869400Y-76568247D02*
X76869400Y-76425390D01*
X76869400Y-76425390D02*
X76917019Y-76234914D01*
X76917019Y-76234914D02*
X76964638Y-76139676D01*
X76964638Y-76139676D02*
X77059876Y-76044438D01*
X77059876Y-76044438D02*
X77202733Y-75996819D01*
X77202733Y-75996819D02*
X77297971Y-75996819D01*
X77297971Y-75996819D02*
X77440828Y-76044438D01*
X77440828Y-76044438D02*
X77488447Y-76092057D01*
X78250352Y-76473009D02*
X78393209Y-76520628D01*
X78393209Y-76520628D02*
X78440828Y-76568247D01*
X78440828Y-76568247D02*
X78488447Y-76663485D01*
X78488447Y-76663485D02*
X78488447Y-76806342D01*
X78488447Y-76806342D02*
X78440828Y-76901580D01*
X78440828Y-76901580D02*
X78393209Y-76949200D01*
X78393209Y-76949200D02*
X78297971Y-76996819D01*
X78297971Y-76996819D02*
X77917019Y-76996819D01*
X77917019Y-76996819D02*
X77917019Y-75996819D01*
X77917019Y-75996819D02*
X78250352Y-75996819D01*
X78250352Y-75996819D02*
X78345590Y-76044438D01*
X78345590Y-76044438D02*
X78393209Y-76092057D01*
X78393209Y-76092057D02*
X78440828Y-76187295D01*
X78440828Y-76187295D02*
X78440828Y-76282533D01*
X78440828Y-76282533D02*
X78393209Y-76377771D01*
X78393209Y-76377771D02*
X78345590Y-76425390D01*
X78345590Y-76425390D02*
X78250352Y-76473009D01*
X78250352Y-76473009D02*
X77917019Y-76473009D01*
X78917019Y-76996819D02*
X78917019Y-75996819D01*
X78917019Y-75996819D02*
X79250352Y-76711104D01*
X79250352Y-76711104D02*
X79583685Y-75996819D01*
X79583685Y-75996819D02*
X79583685Y-76996819D01*
X58644819Y-55136857D02*
X58168628Y-55470190D01*
X58644819Y-55708285D02*
X57644819Y-55708285D01*
X57644819Y-55708285D02*
X57644819Y-55327333D01*
X57644819Y-55327333D02*
X57692438Y-55232095D01*
X57692438Y-55232095D02*
X57740057Y-55184476D01*
X57740057Y-55184476D02*
X57835295Y-55136857D01*
X57835295Y-55136857D02*
X57978152Y-55136857D01*
X57978152Y-55136857D02*
X58073390Y-55184476D01*
X58073390Y-55184476D02*
X58121009Y-55232095D01*
X58121009Y-55232095D02*
X58168628Y-55327333D01*
X58168628Y-55327333D02*
X58168628Y-55708285D01*
X58644819Y-54184476D02*
X58644819Y-54755904D01*
X58644819Y-54470190D02*
X57644819Y-54470190D01*
X57644819Y-54470190D02*
X57787676Y-54565428D01*
X57787676Y-54565428D02*
X57882914Y-54660666D01*
X57882914Y-54660666D02*
X57930533Y-54755904D01*
X57644819Y-53565428D02*
X57644819Y-53470190D01*
X57644819Y-53470190D02*
X57692438Y-53374952D01*
X57692438Y-53374952D02*
X57740057Y-53327333D01*
X57740057Y-53327333D02*
X57835295Y-53279714D01*
X57835295Y-53279714D02*
X58025771Y-53232095D01*
X58025771Y-53232095D02*
X58263866Y-53232095D01*
X58263866Y-53232095D02*
X58454342Y-53279714D01*
X58454342Y-53279714D02*
X58549580Y-53327333D01*
X58549580Y-53327333D02*
X58597200Y-53374952D01*
X58597200Y-53374952D02*
X58644819Y-53470190D01*
X58644819Y-53470190D02*
X58644819Y-53565428D01*
X58644819Y-53565428D02*
X58597200Y-53660666D01*
X58597200Y-53660666D02*
X58549580Y-53708285D01*
X58549580Y-53708285D02*
X58454342Y-53755904D01*
X58454342Y-53755904D02*
X58263866Y-53803523D01*
X58263866Y-53803523D02*
X58025771Y-53803523D01*
X58025771Y-53803523D02*
X57835295Y-53755904D01*
X57835295Y-53755904D02*
X57740057Y-53708285D01*
X57740057Y-53708285D02*
X57692438Y-53660666D01*
X57692438Y-53660666D02*
X57644819Y-53565428D01*
X65218819Y-54644666D02*
X64742628Y-54977999D01*
X65218819Y-55216094D02*
X64218819Y-55216094D01*
X64218819Y-55216094D02*
X64218819Y-54835142D01*
X64218819Y-54835142D02*
X64266438Y-54739904D01*
X64266438Y-54739904D02*
X64314057Y-54692285D01*
X64314057Y-54692285D02*
X64409295Y-54644666D01*
X64409295Y-54644666D02*
X64552152Y-54644666D01*
X64552152Y-54644666D02*
X64647390Y-54692285D01*
X64647390Y-54692285D02*
X64695009Y-54739904D01*
X64695009Y-54739904D02*
X64742628Y-54835142D01*
X64742628Y-54835142D02*
X64742628Y-55216094D01*
X65218819Y-54168475D02*
X65218819Y-53977999D01*
X65218819Y-53977999D02*
X65171200Y-53882761D01*
X65171200Y-53882761D02*
X65123580Y-53835142D01*
X65123580Y-53835142D02*
X64980723Y-53739904D01*
X64980723Y-53739904D02*
X64790247Y-53692285D01*
X64790247Y-53692285D02*
X64409295Y-53692285D01*
X64409295Y-53692285D02*
X64314057Y-53739904D01*
X64314057Y-53739904D02*
X64266438Y-53787523D01*
X64266438Y-53787523D02*
X64218819Y-53882761D01*
X64218819Y-53882761D02*
X64218819Y-54073237D01*
X64218819Y-54073237D02*
X64266438Y-54168475D01*
X64266438Y-54168475D02*
X64314057Y-54216094D01*
X64314057Y-54216094D02*
X64409295Y-54263713D01*
X64409295Y-54263713D02*
X64647390Y-54263713D01*
X64647390Y-54263713D02*
X64742628Y-54216094D01*
X64742628Y-54216094D02*
X64790247Y-54168475D01*
X64790247Y-54168475D02*
X64837866Y-54073237D01*
X64837866Y-54073237D02*
X64837866Y-53882761D01*
X64837866Y-53882761D02*
X64790247Y-53787523D01*
X64790247Y-53787523D02*
X64742628Y-53739904D01*
X64742628Y-53739904D02*
X64647390Y-53692285D01*
X59714761Y-45342057D02*
X59619523Y-45294438D01*
X59619523Y-45294438D02*
X59524285Y-45199200D01*
X59524285Y-45199200D02*
X59381428Y-45056342D01*
X59381428Y-45056342D02*
X59286190Y-45008723D01*
X59286190Y-45008723D02*
X59190952Y-45008723D01*
X59238571Y-45246819D02*
X59143333Y-45199200D01*
X59143333Y-45199200D02*
X59048095Y-45103961D01*
X59048095Y-45103961D02*
X59000476Y-44913485D01*
X59000476Y-44913485D02*
X59000476Y-44580152D01*
X59000476Y-44580152D02*
X59048095Y-44389676D01*
X59048095Y-44389676D02*
X59143333Y-44294438D01*
X59143333Y-44294438D02*
X59238571Y-44246819D01*
X59238571Y-44246819D02*
X59429047Y-44246819D01*
X59429047Y-44246819D02*
X59524285Y-44294438D01*
X59524285Y-44294438D02*
X59619523Y-44389676D01*
X59619523Y-44389676D02*
X59667142Y-44580152D01*
X59667142Y-44580152D02*
X59667142Y-44913485D01*
X59667142Y-44913485D02*
X59619523Y-45103961D01*
X59619523Y-45103961D02*
X59524285Y-45199200D01*
X59524285Y-45199200D02*
X59429047Y-45246819D01*
X59429047Y-45246819D02*
X59238571Y-45246819D01*
X60619523Y-45246819D02*
X60048095Y-45246819D01*
X60333809Y-45246819D02*
X60333809Y-44246819D01*
X60333809Y-44246819D02*
X60238571Y-44389676D01*
X60238571Y-44389676D02*
X60143333Y-44484914D01*
X60143333Y-44484914D02*
X60048095Y-44532533D01*
X65344819Y-39608666D02*
X64868628Y-39941999D01*
X65344819Y-40180094D02*
X64344819Y-40180094D01*
X64344819Y-40180094D02*
X64344819Y-39799142D01*
X64344819Y-39799142D02*
X64392438Y-39703904D01*
X64392438Y-39703904D02*
X64440057Y-39656285D01*
X64440057Y-39656285D02*
X64535295Y-39608666D01*
X64535295Y-39608666D02*
X64678152Y-39608666D01*
X64678152Y-39608666D02*
X64773390Y-39656285D01*
X64773390Y-39656285D02*
X64821009Y-39703904D01*
X64821009Y-39703904D02*
X64868628Y-39799142D01*
X64868628Y-39799142D02*
X64868628Y-40180094D01*
X64773390Y-39037237D02*
X64725771Y-39132475D01*
X64725771Y-39132475D02*
X64678152Y-39180094D01*
X64678152Y-39180094D02*
X64582914Y-39227713D01*
X64582914Y-39227713D02*
X64535295Y-39227713D01*
X64535295Y-39227713D02*
X64440057Y-39180094D01*
X64440057Y-39180094D02*
X64392438Y-39132475D01*
X64392438Y-39132475D02*
X64344819Y-39037237D01*
X64344819Y-39037237D02*
X64344819Y-38846761D01*
X64344819Y-38846761D02*
X64392438Y-38751523D01*
X64392438Y-38751523D02*
X64440057Y-38703904D01*
X64440057Y-38703904D02*
X64535295Y-38656285D01*
X64535295Y-38656285D02*
X64582914Y-38656285D01*
X64582914Y-38656285D02*
X64678152Y-38703904D01*
X64678152Y-38703904D02*
X64725771Y-38751523D01*
X64725771Y-38751523D02*
X64773390Y-38846761D01*
X64773390Y-38846761D02*
X64773390Y-39037237D01*
X64773390Y-39037237D02*
X64821009Y-39132475D01*
X64821009Y-39132475D02*
X64868628Y-39180094D01*
X64868628Y-39180094D02*
X64963866Y-39227713D01*
X64963866Y-39227713D02*
X65154342Y-39227713D01*
X65154342Y-39227713D02*
X65249580Y-39180094D01*
X65249580Y-39180094D02*
X65297200Y-39132475D01*
X65297200Y-39132475D02*
X65344819Y-39037237D01*
X65344819Y-39037237D02*
X65344819Y-38846761D01*
X65344819Y-38846761D02*
X65297200Y-38751523D01*
X65297200Y-38751523D02*
X65249580Y-38703904D01*
X65249580Y-38703904D02*
X65154342Y-38656285D01*
X65154342Y-38656285D02*
X64963866Y-38656285D01*
X64963866Y-38656285D02*
X64868628Y-38703904D01*
X64868628Y-38703904D02*
X64821009Y-38751523D01*
X64821009Y-38751523D02*
X64773390Y-38846761D01*
X68580819Y-54660666D02*
X68104628Y-54993999D01*
X68580819Y-55232094D02*
X67580819Y-55232094D01*
X67580819Y-55232094D02*
X67580819Y-54851142D01*
X67580819Y-54851142D02*
X67628438Y-54755904D01*
X67628438Y-54755904D02*
X67676057Y-54708285D01*
X67676057Y-54708285D02*
X67771295Y-54660666D01*
X67771295Y-54660666D02*
X67914152Y-54660666D01*
X67914152Y-54660666D02*
X68009390Y-54708285D01*
X68009390Y-54708285D02*
X68057009Y-54755904D01*
X68057009Y-54755904D02*
X68104628Y-54851142D01*
X68104628Y-54851142D02*
X68104628Y-55232094D01*
X67580819Y-53803523D02*
X67580819Y-53993999D01*
X67580819Y-53993999D02*
X67628438Y-54089237D01*
X67628438Y-54089237D02*
X67676057Y-54136856D01*
X67676057Y-54136856D02*
X67818914Y-54232094D01*
X67818914Y-54232094D02*
X68009390Y-54279713D01*
X68009390Y-54279713D02*
X68390342Y-54279713D01*
X68390342Y-54279713D02*
X68485580Y-54232094D01*
X68485580Y-54232094D02*
X68533200Y-54184475D01*
X68533200Y-54184475D02*
X68580819Y-54089237D01*
X68580819Y-54089237D02*
X68580819Y-53898761D01*
X68580819Y-53898761D02*
X68533200Y-53803523D01*
X68533200Y-53803523D02*
X68485580Y-53755904D01*
X68485580Y-53755904D02*
X68390342Y-53708285D01*
X68390342Y-53708285D02*
X68152247Y-53708285D01*
X68152247Y-53708285D02*
X68057009Y-53755904D01*
X68057009Y-53755904D02*
X68009390Y-53803523D01*
X68009390Y-53803523D02*
X67961771Y-53898761D01*
X67961771Y-53898761D02*
X67961771Y-54089237D01*
X67961771Y-54089237D02*
X68009390Y-54184475D01*
X68009390Y-54184475D02*
X68057009Y-54232094D01*
X68057009Y-54232094D02*
X68152247Y-54279713D01*
X86146666Y-53390819D02*
X86146666Y-54105104D01*
X86146666Y-54105104D02*
X86099047Y-54247961D01*
X86099047Y-54247961D02*
X86003809Y-54343200D01*
X86003809Y-54343200D02*
X85860952Y-54390819D01*
X85860952Y-54390819D02*
X85765714Y-54390819D01*
X87099047Y-53390819D02*
X86622857Y-53390819D01*
X86622857Y-53390819D02*
X86575238Y-53867009D01*
X86575238Y-53867009D02*
X86622857Y-53819390D01*
X86622857Y-53819390D02*
X86718095Y-53771771D01*
X86718095Y-53771771D02*
X86956190Y-53771771D01*
X86956190Y-53771771D02*
X87051428Y-53819390D01*
X87051428Y-53819390D02*
X87099047Y-53867009D01*
X87099047Y-53867009D02*
X87146666Y-53962247D01*
X87146666Y-53962247D02*
X87146666Y-54200342D01*
X87146666Y-54200342D02*
X87099047Y-54295580D01*
X87099047Y-54295580D02*
X87051428Y-54343200D01*
X87051428Y-54343200D02*
X86956190Y-54390819D01*
X86956190Y-54390819D02*
X86718095Y-54390819D01*
X86718095Y-54390819D02*
X86622857Y-54343200D01*
X86622857Y-54343200D02*
X86575238Y-54295580D01*
X82362819Y-82534666D02*
X81886628Y-82867999D01*
X82362819Y-83106094D02*
X81362819Y-83106094D01*
X81362819Y-83106094D02*
X81362819Y-82725142D01*
X81362819Y-82725142D02*
X81410438Y-82629904D01*
X81410438Y-82629904D02*
X81458057Y-82582285D01*
X81458057Y-82582285D02*
X81553295Y-82534666D01*
X81553295Y-82534666D02*
X81696152Y-82534666D01*
X81696152Y-82534666D02*
X81791390Y-82582285D01*
X81791390Y-82582285D02*
X81839009Y-82629904D01*
X81839009Y-82629904D02*
X81886628Y-82725142D01*
X81886628Y-82725142D02*
X81886628Y-83106094D01*
X82362819Y-81582285D02*
X82362819Y-82153713D01*
X82362819Y-81867999D02*
X81362819Y-81867999D01*
X81362819Y-81867999D02*
X81505676Y-81963237D01*
X81505676Y-81963237D02*
X81600914Y-82058475D01*
X81600914Y-82058475D02*
X81648533Y-82153713D01*
X68706819Y-39624666D02*
X68230628Y-39957999D01*
X68706819Y-40196094D02*
X67706819Y-40196094D01*
X67706819Y-40196094D02*
X67706819Y-39815142D01*
X67706819Y-39815142D02*
X67754438Y-39719904D01*
X67754438Y-39719904D02*
X67802057Y-39672285D01*
X67802057Y-39672285D02*
X67897295Y-39624666D01*
X67897295Y-39624666D02*
X68040152Y-39624666D01*
X68040152Y-39624666D02*
X68135390Y-39672285D01*
X68135390Y-39672285D02*
X68183009Y-39719904D01*
X68183009Y-39719904D02*
X68230628Y-39815142D01*
X68230628Y-39815142D02*
X68230628Y-40196094D01*
X67706819Y-38719904D02*
X67706819Y-39196094D01*
X67706819Y-39196094D02*
X68183009Y-39243713D01*
X68183009Y-39243713D02*
X68135390Y-39196094D01*
X68135390Y-39196094D02*
X68087771Y-39100856D01*
X68087771Y-39100856D02*
X68087771Y-38862761D01*
X68087771Y-38862761D02*
X68135390Y-38767523D01*
X68135390Y-38767523D02*
X68183009Y-38719904D01*
X68183009Y-38719904D02*
X68278247Y-38672285D01*
X68278247Y-38672285D02*
X68516342Y-38672285D01*
X68516342Y-38672285D02*
X68611580Y-38719904D01*
X68611580Y-38719904D02*
X68659200Y-38767523D01*
X68659200Y-38767523D02*
X68706819Y-38862761D01*
X68706819Y-38862761D02*
X68706819Y-39100856D01*
X68706819Y-39100856D02*
X68659200Y-39196094D01*
X68659200Y-39196094D02*
X68611580Y-39243713D01*
X46799333Y-69630819D02*
X46466000Y-69154628D01*
X46227905Y-69630819D02*
X46227905Y-68630819D01*
X46227905Y-68630819D02*
X46608857Y-68630819D01*
X46608857Y-68630819D02*
X46704095Y-68678438D01*
X46704095Y-68678438D02*
X46751714Y-68726057D01*
X46751714Y-68726057D02*
X46799333Y-68821295D01*
X46799333Y-68821295D02*
X46799333Y-68964152D01*
X46799333Y-68964152D02*
X46751714Y-69059390D01*
X46751714Y-69059390D02*
X46704095Y-69107009D01*
X46704095Y-69107009D02*
X46608857Y-69154628D01*
X46608857Y-69154628D02*
X46227905Y-69154628D01*
X47180286Y-68726057D02*
X47227905Y-68678438D01*
X47227905Y-68678438D02*
X47323143Y-68630819D01*
X47323143Y-68630819D02*
X47561238Y-68630819D01*
X47561238Y-68630819D02*
X47656476Y-68678438D01*
X47656476Y-68678438D02*
X47704095Y-68726057D01*
X47704095Y-68726057D02*
X47751714Y-68821295D01*
X47751714Y-68821295D02*
X47751714Y-68916533D01*
X47751714Y-68916533D02*
X47704095Y-69059390D01*
X47704095Y-69059390D02*
X47132667Y-69630819D01*
X47132667Y-69630819D02*
X47751714Y-69630819D01*
X86771180Y-42534666D02*
X86056895Y-42534666D01*
X86056895Y-42534666D02*
X85914038Y-42487047D01*
X85914038Y-42487047D02*
X85818800Y-42391809D01*
X85818800Y-42391809D02*
X85771180Y-42248952D01*
X85771180Y-42248952D02*
X85771180Y-42153714D01*
X86437847Y-43439428D02*
X85771180Y-43439428D01*
X86818800Y-43201333D02*
X86104514Y-42963238D01*
X86104514Y-42963238D02*
X86104514Y-43582285D01*
X66112761Y-60140057D02*
X66017523Y-60092438D01*
X66017523Y-60092438D02*
X65922285Y-59997200D01*
X65922285Y-59997200D02*
X65779428Y-59854342D01*
X65779428Y-59854342D02*
X65684190Y-59806723D01*
X65684190Y-59806723D02*
X65588952Y-59806723D01*
X65636571Y-60044819D02*
X65541333Y-59997200D01*
X65541333Y-59997200D02*
X65446095Y-59901961D01*
X65446095Y-59901961D02*
X65398476Y-59711485D01*
X65398476Y-59711485D02*
X65398476Y-59378152D01*
X65398476Y-59378152D02*
X65446095Y-59187676D01*
X65446095Y-59187676D02*
X65541333Y-59092438D01*
X65541333Y-59092438D02*
X65636571Y-59044819D01*
X65636571Y-59044819D02*
X65827047Y-59044819D01*
X65827047Y-59044819D02*
X65922285Y-59092438D01*
X65922285Y-59092438D02*
X66017523Y-59187676D01*
X66017523Y-59187676D02*
X66065142Y-59378152D01*
X66065142Y-59378152D02*
X66065142Y-59711485D01*
X66065142Y-59711485D02*
X66017523Y-59901961D01*
X66017523Y-59901961D02*
X65922285Y-59997200D01*
X65922285Y-59997200D02*
X65827047Y-60044819D01*
X65827047Y-60044819D02*
X65636571Y-60044819D01*
X66398476Y-59044819D02*
X67017523Y-59044819D01*
X67017523Y-59044819D02*
X66684190Y-59425771D01*
X66684190Y-59425771D02*
X66827047Y-59425771D01*
X66827047Y-59425771D02*
X66922285Y-59473390D01*
X66922285Y-59473390D02*
X66969904Y-59521009D01*
X66969904Y-59521009D02*
X67017523Y-59616247D01*
X67017523Y-59616247D02*
X67017523Y-59854342D01*
X67017523Y-59854342D02*
X66969904Y-59949580D01*
X66969904Y-59949580D02*
X66922285Y-59997200D01*
X66922285Y-59997200D02*
X66827047Y-60044819D01*
X66827047Y-60044819D02*
X66541333Y-60044819D01*
X66541333Y-60044819D02*
X66446095Y-59997200D01*
X66446095Y-59997200D02*
X66398476Y-59949580D01*
X61916819Y-54660666D02*
X61440628Y-54993999D01*
X61916819Y-55232094D02*
X60916819Y-55232094D01*
X60916819Y-55232094D02*
X60916819Y-54851142D01*
X60916819Y-54851142D02*
X60964438Y-54755904D01*
X60964438Y-54755904D02*
X61012057Y-54708285D01*
X61012057Y-54708285D02*
X61107295Y-54660666D01*
X61107295Y-54660666D02*
X61250152Y-54660666D01*
X61250152Y-54660666D02*
X61345390Y-54708285D01*
X61345390Y-54708285D02*
X61393009Y-54755904D01*
X61393009Y-54755904D02*
X61440628Y-54851142D01*
X61440628Y-54851142D02*
X61440628Y-55232094D01*
X60916819Y-54327332D02*
X60916819Y-53660666D01*
X60916819Y-53660666D02*
X61916819Y-54089237D01*
X50815905Y-69852819D02*
X50815905Y-68852819D01*
X50815905Y-68852819D02*
X51054000Y-68852819D01*
X51054000Y-68852819D02*
X51196857Y-68900438D01*
X51196857Y-68900438D02*
X51292095Y-68995676D01*
X51292095Y-68995676D02*
X51339714Y-69090914D01*
X51339714Y-69090914D02*
X51387333Y-69281390D01*
X51387333Y-69281390D02*
X51387333Y-69424247D01*
X51387333Y-69424247D02*
X51339714Y-69614723D01*
X51339714Y-69614723D02*
X51292095Y-69709961D01*
X51292095Y-69709961D02*
X51196857Y-69805200D01*
X51196857Y-69805200D02*
X51054000Y-69852819D01*
X51054000Y-69852819D02*
X50815905Y-69852819D01*
X51768286Y-68948057D02*
X51815905Y-68900438D01*
X51815905Y-68900438D02*
X51911143Y-68852819D01*
X51911143Y-68852819D02*
X52149238Y-68852819D01*
X52149238Y-68852819D02*
X52244476Y-68900438D01*
X52244476Y-68900438D02*
X52292095Y-68948057D01*
X52292095Y-68948057D02*
X52339714Y-69043295D01*
X52339714Y-69043295D02*
X52339714Y-69138533D01*
X52339714Y-69138533D02*
X52292095Y-69281390D01*
X52292095Y-69281390D02*
X51720667Y-69852819D01*
X51720667Y-69852819D02*
X52339714Y-69852819D01*
X60724666Y-63296819D02*
X60724666Y-64011104D01*
X60724666Y-64011104D02*
X60677047Y-64153961D01*
X60677047Y-64153961D02*
X60581809Y-64249200D01*
X60581809Y-64249200D02*
X60438952Y-64296819D01*
X60438952Y-64296819D02*
X60343714Y-64296819D01*
X61200857Y-64296819D02*
X61200857Y-63296819D01*
X61200857Y-63296819D02*
X61581809Y-63296819D01*
X61581809Y-63296819D02*
X61677047Y-63344438D01*
X61677047Y-63344438D02*
X61724666Y-63392057D01*
X61724666Y-63392057D02*
X61772285Y-63487295D01*
X61772285Y-63487295D02*
X61772285Y-63630152D01*
X61772285Y-63630152D02*
X61724666Y-63725390D01*
X61724666Y-63725390D02*
X61677047Y-63773009D01*
X61677047Y-63773009D02*
X61581809Y-63820628D01*
X61581809Y-63820628D02*
X61200857Y-63820628D01*
X62153238Y-63392057D02*
X62200857Y-63344438D01*
X62200857Y-63344438D02*
X62296095Y-63296819D01*
X62296095Y-63296819D02*
X62534190Y-63296819D01*
X62534190Y-63296819D02*
X62629428Y-63344438D01*
X62629428Y-63344438D02*
X62677047Y-63392057D01*
X62677047Y-63392057D02*
X62724666Y-63487295D01*
X62724666Y-63487295D02*
X62724666Y-63582533D01*
X62724666Y-63582533D02*
X62677047Y-63725390D01*
X62677047Y-63725390D02*
X62105619Y-64296819D01*
X62105619Y-64296819D02*
X62724666Y-64296819D01*
X63824667Y-61264819D02*
X64443714Y-61264819D01*
X64443714Y-61264819D02*
X64110381Y-61645771D01*
X64110381Y-61645771D02*
X64253238Y-61645771D01*
X64253238Y-61645771D02*
X64348476Y-61693390D01*
X64348476Y-61693390D02*
X64396095Y-61741009D01*
X64396095Y-61741009D02*
X64443714Y-61836247D01*
X64443714Y-61836247D02*
X64443714Y-62074342D01*
X64443714Y-62074342D02*
X64396095Y-62169580D01*
X64396095Y-62169580D02*
X64348476Y-62217200D01*
X64348476Y-62217200D02*
X64253238Y-62264819D01*
X64253238Y-62264819D02*
X63967524Y-62264819D01*
X63967524Y-62264819D02*
X63872286Y-62217200D01*
X63872286Y-62217200D02*
X63824667Y-62169580D01*
X59243714Y-62264819D02*
X58672286Y-62264819D01*
X58958000Y-62264819D02*
X58958000Y-61264819D01*
X58958000Y-61264819D02*
X58862762Y-61407676D01*
X58862762Y-61407676D02*
X58767524Y-61502914D01*
X58767524Y-61502914D02*
X58672286Y-61550533D01*
X66148761Y-45342057D02*
X66053523Y-45294438D01*
X66053523Y-45294438D02*
X65958285Y-45199200D01*
X65958285Y-45199200D02*
X65815428Y-45056342D01*
X65815428Y-45056342D02*
X65720190Y-45008723D01*
X65720190Y-45008723D02*
X65624952Y-45008723D01*
X65672571Y-45246819D02*
X65577333Y-45199200D01*
X65577333Y-45199200D02*
X65482095Y-45103961D01*
X65482095Y-45103961D02*
X65434476Y-44913485D01*
X65434476Y-44913485D02*
X65434476Y-44580152D01*
X65434476Y-44580152D02*
X65482095Y-44389676D01*
X65482095Y-44389676D02*
X65577333Y-44294438D01*
X65577333Y-44294438D02*
X65672571Y-44246819D01*
X65672571Y-44246819D02*
X65863047Y-44246819D01*
X65863047Y-44246819D02*
X65958285Y-44294438D01*
X65958285Y-44294438D02*
X66053523Y-44389676D01*
X66053523Y-44389676D02*
X66101142Y-44580152D01*
X66101142Y-44580152D02*
X66101142Y-44913485D01*
X66101142Y-44913485D02*
X66053523Y-45103961D01*
X66053523Y-45103961D02*
X65958285Y-45199200D01*
X65958285Y-45199200D02*
X65863047Y-45246819D01*
X65863047Y-45246819D02*
X65672571Y-45246819D01*
X66482095Y-44342057D02*
X66529714Y-44294438D01*
X66529714Y-44294438D02*
X66624952Y-44246819D01*
X66624952Y-44246819D02*
X66863047Y-44246819D01*
X66863047Y-44246819D02*
X66958285Y-44294438D01*
X66958285Y-44294438D02*
X67005904Y-44342057D01*
X67005904Y-44342057D02*
X67053523Y-44437295D01*
X67053523Y-44437295D02*
X67053523Y-44532533D01*
X67053523Y-44532533D02*
X67005904Y-44675390D01*
X67005904Y-44675390D02*
X66434476Y-45246819D01*
X66434476Y-45246819D02*
X67053523Y-45246819D01*
X59714761Y-60089057D02*
X59619523Y-60041438D01*
X59619523Y-60041438D02*
X59524285Y-59946200D01*
X59524285Y-59946200D02*
X59381428Y-59803342D01*
X59381428Y-59803342D02*
X59286190Y-59755723D01*
X59286190Y-59755723D02*
X59190952Y-59755723D01*
X59238571Y-59993819D02*
X59143333Y-59946200D01*
X59143333Y-59946200D02*
X59048095Y-59850961D01*
X59048095Y-59850961D02*
X59000476Y-59660485D01*
X59000476Y-59660485D02*
X59000476Y-59327152D01*
X59000476Y-59327152D02*
X59048095Y-59136676D01*
X59048095Y-59136676D02*
X59143333Y-59041438D01*
X59143333Y-59041438D02*
X59238571Y-58993819D01*
X59238571Y-58993819D02*
X59429047Y-58993819D01*
X59429047Y-58993819D02*
X59524285Y-59041438D01*
X59524285Y-59041438D02*
X59619523Y-59136676D01*
X59619523Y-59136676D02*
X59667142Y-59327152D01*
X59667142Y-59327152D02*
X59667142Y-59660485D01*
X59667142Y-59660485D02*
X59619523Y-59850961D01*
X59619523Y-59850961D02*
X59524285Y-59946200D01*
X59524285Y-59946200D02*
X59429047Y-59993819D01*
X59429047Y-59993819D02*
X59238571Y-59993819D01*
X60524285Y-59327152D02*
X60524285Y-59993819D01*
X60286190Y-58946200D02*
X60048095Y-59660485D01*
X60048095Y-59660485D02*
X60667142Y-59660485D01*
D15*
X30490000Y-29950000D02*
X81510000Y-29950000D01*
X30490000Y-32600000D02*
X30490000Y-29950000D01*
X30490000Y-35250000D02*
X30490000Y-33870000D01*
X31870000Y-35250000D02*
X30490000Y-35250000D01*
X33140000Y-32600000D02*
X30490000Y-32600000D01*
X33140000Y-35250000D02*
X33140000Y-32600000D01*
X33140000Y-35250000D02*
X81510000Y-35250000D01*
X81510000Y-35250000D02*
X81510000Y-29950000D01*
X50680000Y-58508000D02*
G75*
G02*
X38480000Y-58508000I-6100000J0D01*
G01*
X38480000Y-58508000D02*
G75*
G02*
X50680000Y-58508000I6100000J0D01*
G01*
X75599000Y-83944000D02*
X75755000Y-83944000D01*
X77915000Y-83944000D02*
X78071000Y-83944000D01*
X75599484Y-83944000D02*
G75*
G02*
X75755000Y-80712563I1235516J1560000D01*
G01*
X75755000Y-83424961D02*
G75*
G02*
X75755000Y-81343039I1080000J1040961D01*
G01*
X77915000Y-80712563D02*
G75*
G02*
X78070516Y-83944000I-1080000J-1671437D01*
G01*
X77915000Y-81343039D02*
G75*
G02*
X77915000Y-83424961I-1080000J-1040961D01*
G01*
X31330000Y-77835000D02*
X31330000Y-82335000D01*
X33830000Y-83585000D02*
X35330000Y-83585000D01*
X35330000Y-76585000D02*
X33830000Y-76585000D01*
X37830000Y-82335000D02*
X37830000Y-77835000D01*
X39585000Y-77835000D02*
X39585000Y-82335000D01*
X42085000Y-83585000D02*
X43585000Y-83585000D01*
X43585000Y-76585000D02*
X42085000Y-76585000D01*
X46085000Y-82335000D02*
X46085000Y-77835000D01*
X47840000Y-77835000D02*
X47840000Y-82335000D01*
X50340000Y-83585000D02*
X51840000Y-83585000D01*
X51840000Y-76585000D02*
X50340000Y-76585000D01*
X54340000Y-82335000D02*
X54340000Y-77835000D01*
X56095000Y-77835000D02*
X56095000Y-82335000D01*
X58595000Y-83585000D02*
X60095000Y-83585000D01*
X60095000Y-76585000D02*
X58595000Y-76585000D01*
X62595000Y-82335000D02*
X62595000Y-77835000D01*
X64350000Y-77835000D02*
X64350000Y-82335000D01*
X66850000Y-83585000D02*
X68350000Y-83585000D01*
X68350000Y-76585000D02*
X66850000Y-76585000D01*
X70850000Y-82335000D02*
X70850000Y-77835000D01*
D11*
X30715000Y-37630000D02*
X30715000Y-65430000D01*
X30715000Y-37630000D02*
X58015000Y-37630000D01*
X34615000Y-45630000D02*
X34615000Y-55830000D01*
X34615000Y-55830000D02*
X54115000Y-55830000D01*
D15*
X39235000Y-40810000D02*
X39235000Y-39480000D01*
X40565000Y-40810000D02*
X39235000Y-40810000D01*
X41835000Y-38150000D02*
X49515000Y-38150000D01*
X41835000Y-40810000D02*
X41835000Y-38150000D01*
X41835000Y-40810000D02*
X49515000Y-40810000D01*
X49515000Y-40810000D02*
X49515000Y-38150000D01*
D11*
X54115000Y-45630000D02*
X34615000Y-45630000D01*
X54115000Y-55830000D02*
X54115000Y-45630000D01*
X58015000Y-37630000D02*
X58015000Y-65430000D01*
X58015000Y-65430000D02*
X30715000Y-65430000D01*
X31870000Y-44665000D02*
X31870000Y-38950000D01*
X31870000Y-44665000D02*
X31870000Y-50380000D01*
X31870000Y-50380000D02*
X69970000Y-50380000D01*
X38220000Y-44665000D02*
X38220000Y-40855000D01*
X38220000Y-44665000D02*
X38220000Y-48475000D01*
X38220000Y-48475000D02*
X60445000Y-48475000D01*
X60445000Y-40855000D02*
X38220000Y-40855000D01*
X60445000Y-48475000D02*
X60445000Y-40855000D01*
X69970000Y-38950000D02*
X31870000Y-38950000D01*
X69970000Y-50380000D02*
X69970000Y-38950000D01*
D15*
X57478000Y-66124000D02*
X59878000Y-66124000D01*
X57478000Y-70224000D02*
X57478000Y-66124000D01*
X57478000Y-74224000D02*
X57478000Y-78324000D01*
X57478000Y-78324000D02*
X69278000Y-78324000D01*
X59278000Y-79424000D02*
X59578000Y-79724000D01*
X59278000Y-80024000D02*
X59278000Y-79424000D01*
X59578000Y-79724000D02*
X59278000Y-80024000D01*
X62078000Y-66124000D02*
X64678000Y-66124000D01*
X62878000Y-72224000D02*
X63878000Y-72224000D01*
X63378000Y-72724000D02*
X63378000Y-71724000D01*
X66878000Y-66124000D02*
X69278000Y-66124000D01*
X69278000Y-66124000D02*
X69278000Y-70224000D01*
X69278000Y-74224000D02*
X69278000Y-78324000D01*
X66378000Y-72224000D02*
G75*
G02*
X60378000Y-72224000I-3000000J0D01*
G01*
X60378000Y-72224000D02*
G75*
G02*
X66378000Y-72224000I3000000J0D01*
G01*
X62377000Y-39669064D02*
X62377000Y-39214936D01*
X63847000Y-39669064D02*
X63847000Y-39214936D01*
X36586000Y-71790000D02*
X36586000Y-74550000D01*
X46856000Y-71790000D02*
X36586000Y-71790000D01*
X46856000Y-71790000D02*
X46856000Y-74550000D01*
X46856000Y-74550000D02*
X36586000Y-74550000D01*
X48126000Y-71790000D02*
X49506000Y-71790000D01*
X49506000Y-71790000D02*
X49506000Y-73170000D01*
X59105000Y-39669064D02*
X59105000Y-39214936D01*
X60575000Y-39669064D02*
X60575000Y-39214936D01*
X59568000Y-47124000D02*
X59568000Y-46524000D01*
X60218000Y-45824000D02*
X63018000Y-45824000D01*
X63018000Y-47824000D02*
X60218000Y-47824000D01*
X63668000Y-46524000D02*
X63668000Y-47124000D01*
X59568000Y-46524000D02*
G75*
G02*
X60268000Y-45824000I699999J1D01*
G01*
X60268000Y-47824000D02*
G75*
G02*
X59568000Y-47124000I-1J699999D01*
G01*
X62968000Y-45824000D02*
G75*
G02*
X63668000Y-46524000I0J-700000D01*
G01*
X63668000Y-47124000D02*
G75*
G02*
X62968000Y-47824000I-700000J0D01*
G01*
X71919400Y-56026800D02*
X71919400Y-57026800D01*
X71919400Y-57026800D02*
X72919400Y-56526800D01*
X72919400Y-56526800D02*
X71919400Y-56026800D01*
X73309400Y-51316800D02*
X82429400Y-51316800D01*
X73309400Y-63366800D02*
X74619400Y-63366800D01*
X73309400Y-79516800D02*
X73309400Y-51316800D01*
X74619400Y-52616800D02*
X81119400Y-52616800D01*
X74619400Y-63366800D02*
X74619400Y-52616800D01*
X74619400Y-67466800D02*
X73309400Y-67466800D01*
X74619400Y-67466800D02*
X74619400Y-67466800D01*
X74619400Y-78216800D02*
X74619400Y-67466800D01*
X81119400Y-52616800D02*
X81119400Y-78216800D01*
X81119400Y-78216800D02*
X74619400Y-78216800D01*
X82429400Y-51316800D02*
X82429400Y-79516800D01*
X82429400Y-79516800D02*
X73309400Y-79516800D01*
X59105000Y-54721064D02*
X59105000Y-54266936D01*
X60575000Y-54721064D02*
X60575000Y-54266936D01*
X65679000Y-54705064D02*
X65679000Y-54250936D01*
X67149000Y-54705064D02*
X67149000Y-54250936D01*
X60852000Y-41876000D02*
X60852000Y-42806000D01*
X60852000Y-41876000D02*
X62312000Y-41876000D01*
X60852000Y-45036000D02*
X60852000Y-44106000D01*
X61652000Y-45036000D02*
X60852000Y-45036000D01*
X61652000Y-45036000D02*
X62452000Y-45036000D01*
X63192000Y-45396000D02*
X62712000Y-45396000D01*
X62952000Y-45066000D01*
X63192000Y-45396000D01*
G36*
X63192000Y-45396000D02*
G01*
X62712000Y-45396000D01*
X62952000Y-45066000D01*
X63192000Y-45396000D01*
G37*
X65679000Y-39214936D02*
X65679000Y-39669064D01*
X67149000Y-39214936D02*
X67149000Y-39669064D01*
X69041000Y-54721064D02*
X69041000Y-54266936D01*
X70511000Y-54721064D02*
X70511000Y-54266936D01*
X85210000Y-55206000D02*
X86480000Y-55206000D01*
X85210000Y-56476000D02*
X85210000Y-55206000D01*
X87557358Y-58586000D02*
X87870000Y-58586000D01*
X87557358Y-59446000D02*
X87870000Y-59446000D01*
X87557358Y-61126000D02*
X87870000Y-61126000D01*
X87557358Y-61986000D02*
X87870000Y-61986000D01*
X87557358Y-63666000D02*
X87870000Y-63666000D01*
X87557358Y-64526000D02*
X87870000Y-64526000D01*
X87557358Y-66206000D02*
X87870000Y-66206000D01*
X87557358Y-67066000D02*
X87870000Y-67066000D01*
X87557358Y-68746000D02*
X87870000Y-68746000D01*
X87557358Y-69606000D02*
X87870000Y-69606000D01*
X87557358Y-71286000D02*
X87870000Y-71286000D01*
X87557358Y-72146000D02*
X87870000Y-72146000D01*
X87640000Y-56046000D02*
X87870000Y-56046000D01*
X87640000Y-56906000D02*
X87870000Y-56906000D01*
X87870000Y-55096000D02*
X87870000Y-73096000D01*
X87870000Y-57746000D02*
X90630000Y-57746000D01*
X87870000Y-60286000D02*
X90630000Y-60286000D01*
X87870000Y-62826000D02*
X90630000Y-62826000D01*
X87870000Y-65366000D02*
X90630000Y-65366000D01*
X87870000Y-67906000D02*
X90630000Y-67906000D01*
X87870000Y-70446000D02*
X90630000Y-70446000D01*
X87870000Y-73096000D02*
X90630000Y-73096000D01*
X90630000Y-55096000D02*
X87870000Y-55096000D01*
X90630000Y-58586000D02*
X96630000Y-58586000D01*
X90630000Y-61126000D02*
X96630000Y-61126000D01*
X90630000Y-63666000D02*
X96630000Y-63666000D01*
X90630000Y-66206000D02*
X96630000Y-66206000D01*
X90630000Y-68746000D02*
X96630000Y-68746000D01*
X90630000Y-71286000D02*
X96630000Y-71286000D01*
X90630000Y-73096000D02*
X90630000Y-55096000D01*
X96630000Y-58586000D02*
X96630000Y-59446000D01*
X96630000Y-59446000D02*
X90630000Y-59446000D01*
X96630000Y-61126000D02*
X96630000Y-61986000D01*
X96630000Y-61986000D02*
X90630000Y-61986000D01*
X96630000Y-63666000D02*
X96630000Y-64526000D01*
X96630000Y-64526000D02*
X90630000Y-64526000D01*
X96630000Y-66206000D02*
X96630000Y-67066000D01*
X96630000Y-67066000D02*
X90630000Y-67066000D01*
X96630000Y-68746000D02*
X96630000Y-69606000D01*
X96630000Y-69606000D02*
X90630000Y-69606000D01*
X96630000Y-71286000D02*
X96630000Y-72146000D01*
X96630000Y-72146000D02*
X90630000Y-72146000D01*
X90630000Y-56046000D02*
X96630000Y-56046000D01*
X96630000Y-56906000D01*
X90630000Y-56906000D01*
X90630000Y-56046000D01*
G36*
X90630000Y-56046000D02*
G01*
X96630000Y-56046000D01*
X96630000Y-56906000D01*
X90630000Y-56906000D01*
X90630000Y-56046000D01*
G37*
X79649000Y-82595064D02*
X79649000Y-82140936D01*
X81119000Y-82595064D02*
X81119000Y-82140936D01*
X69041000Y-39669064D02*
X69041000Y-39214936D01*
X70511000Y-39669064D02*
X70511000Y-39214936D01*
X46754936Y-66663000D02*
X47209064Y-66663000D01*
X46754936Y-68133000D02*
X47209064Y-68133000D01*
X67202000Y-56740000D02*
X67202000Y-57670000D01*
X67202000Y-56740000D02*
X68662000Y-56740000D01*
X67202000Y-59900000D02*
X67202000Y-58970000D01*
X68002000Y-59900000D02*
X67202000Y-59900000D01*
X68002000Y-59900000D02*
X68802000Y-59900000D01*
X69542000Y-60260000D02*
X69062000Y-60260000D01*
X69302000Y-59930000D01*
X69542000Y-60260000D01*
G36*
X69542000Y-60260000D02*
G01*
X69062000Y-60260000D01*
X69302000Y-59930000D01*
X69542000Y-60260000D01*
G37*
X62377000Y-54721064D02*
X62377000Y-54266936D01*
X63847000Y-54721064D02*
X63847000Y-54266936D01*
X53914000Y-66398000D02*
X49904000Y-66398000D01*
X53914000Y-68398000D02*
X49904000Y-68398000D01*
X53914000Y-68398000D02*
X53914000Y-66398000D01*
X59508000Y-62110000D02*
X59508000Y-61510000D01*
X60158000Y-60810000D02*
X62958000Y-60810000D01*
X62958000Y-62810000D02*
X60158000Y-62810000D01*
X63608000Y-61510000D02*
X63608000Y-62110000D01*
X59508000Y-61510000D02*
G75*
G02*
X60208000Y-60810000I699999J1D01*
G01*
X60208000Y-62810000D02*
G75*
G02*
X59508000Y-62110000I-1J699999D01*
G01*
X62908000Y-60810000D02*
G75*
G02*
X63608000Y-61510000I0J-700000D01*
G01*
X63608000Y-62110000D02*
G75*
G02*
X62908000Y-62810000I-700000J0D01*
G01*
X67238000Y-41942000D02*
X67238000Y-42872000D01*
X67238000Y-41942000D02*
X68698000Y-41942000D01*
X67238000Y-45102000D02*
X67238000Y-44172000D01*
X68038000Y-45102000D02*
X67238000Y-45102000D01*
X68038000Y-45102000D02*
X68838000Y-45102000D01*
X69578000Y-45462000D02*
X69098000Y-45462000D01*
X69338000Y-45132000D01*
X69578000Y-45462000D01*
G36*
X69578000Y-45462000D02*
G01*
X69098000Y-45462000D01*
X69338000Y-45132000D01*
X69578000Y-45462000D01*
G37*
X60852000Y-56806000D02*
X60852000Y-57736000D01*
X60852000Y-56806000D02*
X62312000Y-56806000D01*
X60852000Y-59966000D02*
X60852000Y-59036000D01*
X61652000Y-59966000D02*
X60852000Y-59966000D01*
X61652000Y-59966000D02*
X62452000Y-59966000D01*
X63192000Y-60326000D02*
X62712000Y-60326000D01*
X62952000Y-59996000D01*
X63192000Y-60326000D01*
G36*
X63192000Y-60326000D02*
G01*
X62712000Y-60326000D01*
X62952000Y-59996000D01*
X63192000Y-60326000D01*
G37*
M02*
