G04 #@! TF.GenerationSoftware,KiCad,Pcbnew,9.0.6*
G04 #@! TF.CreationDate,2026-02-01T10:53:19+01:00*
G04 #@! TF.ProjectId,RPi_Hat,5250695f-4861-4742-9e6b-696361645f70,3*
G04 #@! TF.SameCoordinates,Original*
G04 #@! TF.FileFunction,Soldermask,Bot*
G04 #@! TF.FilePolarity,Negative*
%FSLAX46Y46*%
G04 Gerber Fmt 4.6, Leading zero omitted, Abs format (unit mm)*
G04 Created by KiCad (PCBNEW 9.0.6) date 2026-02-01 10:53:19*
%MOMM*%
%LPD*%
G01*
G04 APERTURE LIST*
G04 Aperture macros list*
%AMRoundRect*
0 Rectangle with rounded corners*
0 $1 Rounding radius*
0 $2 $3 $4 $5 $6 $7 $8 $9 X,Y pos of 4 corners*
0 Add a 4 corners polygon primitive as box body*
4,1,4,$2,$3,$4,$5,$6,$7,$8,$9,$2,$3,0*
0 Add four circle primitives for the rounded corners*
1,1,$1+$1,$2,$3*
1,1,$1+$1,$4,$5*
1,1,$1+$1,$6,$7*
1,1,$1+$1,$8,$9*
0 Add four rect primitives between the rounded corners*
20,1,$1+$1,$2,$3,$4,$5,0*
20,1,$1+$1,$4,$5,$6,$7,0*
20,1,$1+$1,$6,$7,$8,$9,0*
20,1,$1+$1,$8,$9,$2,$3,0*%
%AMFreePoly0*
4,1,23,0.550000,-0.750000,0.000000,-0.750000,0.000000,-0.745722,-0.065263,-0.745722,-0.191342,-0.711940,-0.304381,-0.646677,-0.396677,-0.554381,-0.461940,-0.441342,-0.495722,-0.315263,-0.495722,-0.250000,-0.500000,-0.250000,-0.500000,0.250000,-0.495722,0.250000,-0.495722,0.315263,-0.461940,0.441342,-0.396677,0.554381,-0.304381,0.646677,-0.191342,0.711940,-0.065263,0.745722,0.000000,0.745722,
0.000000,0.750000,0.550000,0.750000,0.550000,-0.750000,0.550000,-0.750000,$1*%
%AMFreePoly1*
4,1,23,0.000000,0.745722,0.065263,0.745722,0.191342,0.711940,0.304381,0.646677,0.396677,0.554381,0.461940,0.441342,0.495722,0.315263,0.495722,0.250000,0.500000,0.250000,0.500000,-0.250000,0.495722,-0.250000,0.495722,-0.315263,0.461940,-0.441342,0.396677,-0.554381,0.304381,-0.646677,0.191342,-0.711940,0.065263,-0.745722,0.000000,-0.745722,0.000000,-0.750000,-0.550000,-0.750000,
-0.550000,0.750000,0.000000,0.750000,0.000000,0.745722,0.000000,0.745722,$1*%
G04 Aperture macros list end*
%ADD10R,1.700000X1.700000*%
%ADD11C,1.700000*%
%ADD12R,2.000000X2.000000*%
%ADD13C,2.000000*%
%ADD14R,1.800000X1.800000*%
%ADD15C,1.800000*%
%ADD16R,1.524000X1.524000*%
%ADD17C,1.524000*%
%ADD18C,3.200000*%
%ADD19C,2.700000*%
%ADD20RoundRect,0.250000X-0.600000X-0.600000X0.600000X-0.600000X0.600000X0.600000X-0.600000X0.600000X0*%
%ADD21C,1.200000*%
%ADD22RoundRect,0.600000X-0.700000X-0.000010X0.700000X-0.000010X0.700000X0.000010X-0.700000X0.000010X0*%
%ADD23RoundRect,0.600000X-0.000010X0.700000X-0.000010X-0.700000X0.000010X-0.700000X0.000010X0.700000X0*%
%ADD24FreePoly0,0.000000*%
%ADD25R,1.000000X1.500000*%
%ADD26FreePoly1,0.000000*%
G04 APERTURE END LIST*
G36*
X47376000Y-45034000D02*
G01*
X48876000Y-45034000D01*
X48876000Y-43534000D01*
X47376000Y-43534000D01*
X47376000Y-45034000D01*
G37*
G36*
X39980000Y-45034000D02*
G01*
X41480000Y-45034000D01*
X41480000Y-43534000D01*
X39980000Y-43534000D01*
X39980000Y-45034000D01*
G37*
D10*
X31870000Y-33870000D03*
D11*
X31870000Y-31330000D03*
X34410000Y-33870000D03*
X34410000Y-31330000D03*
X36950000Y-33870000D03*
X36950000Y-31330000D03*
X39490000Y-33870000D03*
X39490000Y-31330000D03*
X42030000Y-33870000D03*
X42030000Y-31330000D03*
X44570000Y-33870000D03*
X44570000Y-31330000D03*
X47110000Y-33870000D03*
X47110000Y-31330000D03*
X49650000Y-33870000D03*
X49650000Y-31330000D03*
X52190000Y-33870000D03*
X52190000Y-31330000D03*
X54730000Y-33870000D03*
X54730000Y-31330000D03*
X57270000Y-33870000D03*
X57270000Y-31330000D03*
X59810000Y-33870000D03*
X59810000Y-31330000D03*
X62350000Y-33870000D03*
X62350000Y-31330000D03*
X64890000Y-33870000D03*
X64890000Y-31330000D03*
X67430000Y-33870000D03*
X67430000Y-31330000D03*
X69970000Y-33870000D03*
X69970000Y-31330000D03*
X72510000Y-33870000D03*
X72510000Y-31330000D03*
X75050000Y-33870000D03*
X75050000Y-31330000D03*
X77590000Y-33870000D03*
X77590000Y-31330000D03*
X80130000Y-33870000D03*
X80130000Y-31330000D03*
D12*
X40780000Y-58508000D03*
D13*
X48380000Y-58508000D03*
D14*
X76835000Y-83654000D03*
D15*
X76835000Y-81114000D03*
D13*
X36830000Y-76835000D03*
X36830000Y-83335000D03*
X32330000Y-76835000D03*
X32330000Y-83335000D03*
X45085000Y-76835000D03*
X45085000Y-83335000D03*
X40585000Y-76835000D03*
X40585000Y-83335000D03*
X53340000Y-76835000D03*
X53340000Y-83335000D03*
X48840000Y-76835000D03*
X48840000Y-83335000D03*
X61595000Y-76835000D03*
X61595000Y-83335000D03*
X57095000Y-76835000D03*
X57095000Y-83335000D03*
X69850000Y-76835000D03*
X69850000Y-83335000D03*
X65350000Y-76835000D03*
X65350000Y-83335000D03*
D16*
X40605000Y-39520000D03*
D17*
X43145000Y-39520000D03*
X45685000Y-39520000D03*
X48225000Y-39520000D03*
D16*
X33140000Y-48475000D03*
D17*
X33140000Y-45935000D03*
X33140000Y-43395000D03*
X33140000Y-40855000D03*
D12*
X36240000Y-79724000D03*
D13*
X41240000Y-79724000D03*
X38740000Y-79724000D03*
D18*
X33140000Y-72224000D03*
X44340000Y-72224000D03*
D13*
X41240000Y-65224000D03*
X36240000Y-65224000D03*
D10*
X69081000Y-73113000D03*
D11*
X66541000Y-73113000D03*
X64001000Y-73113000D03*
X61461000Y-73113000D03*
X58921000Y-73113000D03*
D19*
X26995000Y-32575000D03*
X84995000Y-32575000D03*
X26995000Y-81575000D03*
D20*
X76599400Y-56526800D03*
D11*
X79139400Y-56526800D03*
X76599400Y-59066800D03*
X79139400Y-59066800D03*
X76599400Y-61606800D03*
X79139400Y-61606800D03*
X76599400Y-64146800D03*
X79139400Y-64146800D03*
X76599400Y-66686800D03*
X79139400Y-66686800D03*
X76599400Y-69226800D03*
X79139400Y-69226800D03*
X76599400Y-71766800D03*
X79139400Y-71766800D03*
X76599400Y-74306800D03*
X79139400Y-74306800D03*
D10*
X86480000Y-56476000D03*
D11*
X86480000Y-59016000D03*
X86480000Y-61556000D03*
X86480000Y-64096000D03*
X86480000Y-66636000D03*
X86480000Y-69176000D03*
X86480000Y-71716000D03*
D19*
X84995000Y-81575000D03*
D21*
X79582000Y-41568000D03*
X79582000Y-44168000D03*
X79582000Y-39468000D03*
X79582000Y-46268000D03*
X77082000Y-39468000D03*
X77082000Y-43768000D03*
X77082000Y-46268000D03*
D22*
X82582000Y-36118000D03*
D23*
X83382000Y-42868000D03*
D22*
X82582000Y-49618000D03*
D24*
X46826000Y-44284000D03*
D25*
X48126000Y-44284000D03*
D26*
X49426000Y-44284000D03*
D24*
X39430000Y-44284000D03*
D25*
X40730000Y-44284000D03*
D26*
X42030000Y-44284000D03*
M02*
