G04 #@! TF.GenerationSoftware,KiCad,Pcbnew,9.0.1*
G04 #@! TF.CreationDate,2025-10-22T23:56:24+02:00*
G04 #@! TF.ProjectId,RPi_Hat,5250695f-4861-4742-9e6b-696361645f70,1*
G04 #@! TF.SameCoordinates,Original*
G04 #@! TF.FileFunction,Soldermask,Top*
G04 #@! TF.FilePolarity,Negative*
%FSLAX46Y46*%
G04 Gerber Fmt 4.6, Leading zero omitted, Abs format (unit mm)*
G04 Created by KiCad (PCBNEW 9.0.1) date 2025-10-22 23:56:24*
%MOMM*%
%LPD*%
G01*
G04 APERTURE LIST*
G04 Aperture macros list*
%AMRoundRect*
0 Rectangle with rounded corners*
0 $1 Rounding radius*
0 $2 $3 $4 $5 $6 $7 $8 $9 X,Y pos of 4 corners*
0 Add a 4 corners polygon primitive as box body*
4,1,4,$2,$3,$4,$5,$6,$7,$8,$9,$2,$3,0*
0 Add four circle primitives for the rounded corners*
1,1,$1+$1,$2,$3*
1,1,$1+$1,$4,$5*
1,1,$1+$1,$6,$7*
1,1,$1+$1,$8,$9*
0 Add four rect primitives between the rounded corners*
20,1,$1+$1,$2,$3,$4,$5,0*
20,1,$1+$1,$4,$5,$6,$7,0*
20,1,$1+$1,$6,$7,$8,$9,0*
20,1,$1+$1,$8,$9,$2,$3,0*%
G04 Aperture macros list end*
%ADD10R,1.524000X1.524000*%
%ADD11C,1.524000*%
%ADD12R,1.800000X1.800000*%
%ADD13C,1.800000*%
%ADD14C,1.600000*%
%ADD15O,1.600000X1.600000*%
%ADD16R,2.000000X2.000000*%
%ADD17C,2.000000*%
%ADD18RoundRect,0.250000X-0.600000X-0.600000X0.600000X-0.600000X0.600000X0.600000X-0.600000X0.600000X0*%
%ADD19C,1.700000*%
%ADD20R,1.700000X1.700000*%
%ADD21C,2.700000*%
G04 APERTURE END LIST*
D10*
X40605000Y-39520000D03*
D11*
X43145000Y-39520000D03*
X45685000Y-39520000D03*
X48225000Y-39520000D03*
D10*
X33140000Y-48475000D03*
D11*
X33140000Y-45935000D03*
X33140000Y-43395000D03*
X33140000Y-40855000D03*
D12*
X76835000Y-82550000D03*
D13*
X76835000Y-80010000D03*
D14*
X68065000Y-39585000D03*
D15*
X68065000Y-49745000D03*
D16*
X61080000Y-57365000D03*
D17*
X68680000Y-57365000D03*
D18*
X79063200Y-50253000D03*
D19*
X81603200Y-50253000D03*
X79063200Y-52793000D03*
X81603200Y-52793000D03*
X79063200Y-55333000D03*
X81603200Y-55333000D03*
X79063200Y-57873000D03*
X81603200Y-57873000D03*
X79063200Y-60413000D03*
X81603200Y-60413000D03*
X79063200Y-62953000D03*
X81603200Y-62953000D03*
X79063200Y-65493000D03*
X81603200Y-65493000D03*
X79063200Y-68033000D03*
X81603200Y-68033000D03*
D17*
X69850000Y-76835000D03*
X69850000Y-83335000D03*
X65350000Y-76835000D03*
X65350000Y-83335000D03*
X61595000Y-76835000D03*
X61595000Y-83335000D03*
X57095000Y-76835000D03*
X57095000Y-83335000D03*
X53340000Y-76835000D03*
X53340000Y-83335000D03*
X48840000Y-76835000D03*
X48840000Y-83335000D03*
X45085000Y-76835000D03*
X45085000Y-83335000D03*
X40585000Y-76835000D03*
X40585000Y-83335000D03*
X36830000Y-76835000D03*
X36830000Y-83335000D03*
X32330000Y-76835000D03*
X32330000Y-83335000D03*
D20*
X31870000Y-33870000D03*
D19*
X31870000Y-31330000D03*
X34410000Y-33870000D03*
X34410000Y-31330000D03*
X36950000Y-33870000D03*
X36950000Y-31330000D03*
X39490000Y-33870000D03*
X39490000Y-31330000D03*
X42030000Y-33870000D03*
X42030000Y-31330000D03*
X44570000Y-33870000D03*
X44570000Y-31330000D03*
X47110000Y-33870000D03*
X47110000Y-31330000D03*
X49650000Y-33870000D03*
X49650000Y-31330000D03*
X52190000Y-33870000D03*
X52190000Y-31330000D03*
X54730000Y-33870000D03*
X54730000Y-31330000D03*
X57270000Y-33870000D03*
X57270000Y-31330000D03*
X59810000Y-33870000D03*
X59810000Y-31330000D03*
X62350000Y-33870000D03*
X62350000Y-31330000D03*
X64890000Y-33870000D03*
X64890000Y-31330000D03*
X67430000Y-33870000D03*
X67430000Y-31330000D03*
X69970000Y-33870000D03*
X69970000Y-31330000D03*
X72510000Y-33870000D03*
X72510000Y-31330000D03*
X75050000Y-33870000D03*
X75050000Y-31330000D03*
X77590000Y-33870000D03*
X77590000Y-31330000D03*
X80130000Y-33870000D03*
X80130000Y-31330000D03*
D21*
X26995000Y-32575000D03*
X84995000Y-32575000D03*
X26995000Y-81575000D03*
X84995000Y-81575000D03*
M02*
