M48
; DRILL file {KiCad 9.0.6} date 2025-12-29T00:38:19+0100
; FORMAT={-:-/ absolute / metric / decimal}
; #@! TF.CreationDate,2025-12-29T00:38:19+01:00
; #@! TF.GenerationSoftware,Kicad,Pcbnew,9.0.6
; #@! TF.FileFunction,Plated,1,2,PTH
FMAT,2
METRIC
; #@! TA.AperFunction,Plated,PTH,ViaDrill
T1C0.400
; #@! TA.AperFunction,Plated,PTH,ComponentDrill
T2C0.762
; #@! TA.AperFunction,Plated,PTH,ComponentDrill
T3C0.800
; #@! TA.AperFunction,Plated,PTH,ComponentDrill
T4C0.900
; #@! TA.AperFunction,Plated,PTH,ComponentDrill
T5C1.000
; #@! TA.AperFunction,Plated,PTH,ComponentDrill
T6C1.100
; #@! TA.AperFunction,Plated,PTH,ComponentDrill
T7C2.600
%
G90
G05
T1
X30.416Y-33.381
X30.804Y-44.887
X33.094Y-47.205
X33.768Y-74.536
X36.437Y-73.825
X36.732Y-42.358
X37.82Y-32.787
X39.695Y-36.073
X39.695Y-47.871
X39.695Y-50.855
X40.51Y-38.092
X40.524Y-36.468
X40.954Y-44.887
X41.875Y-39.485
X42.042Y-38.259
X42.049Y-68.761
X42.764Y-75.121
X43.046Y-62.793
X43.058Y-35.531
X43.242Y-37.969
X45.324Y-32.641
X45.563Y-42.187
X45.597Y-74.67
X46.595Y-76.736
X46.758Y-63.31
X47.717Y-75.445
X47.91Y-78.521
X48.587Y-41.903
X48.84Y-80.698
X49.136Y-38.543
X49.522Y-71.287
X49.71Y-74.67
X50.41Y-35.498
X50.908Y-48.033
X51.08Y-65.472
X51.541Y-56.824
X51.549Y-38.918
X51.554Y-67.099
X52.354Y-36.211
X52.979Y-74.536
X53.678Y-62.243
X54.056Y-37.564
X54.514Y-81.507
X55.168Y-76.736
X55.168Y-83.628
X55.594Y-69.856
X55.601Y-32.787
X55.857Y-51.744
X56.987Y-38.831
X57.06Y-37.044
X57.35Y-35.53
X57.38Y-50.353
X57.474Y-41.903
X57.476Y-47.871
X58.607Y-34.795
X59.478Y-60.644
X59.638Y-48.68
X60.111Y-57.097
X60.441Y-51.744
X60.667Y-32.787
X60.797Y-29.921
X60.976Y-35.171
X61.232Y-40.653
X61.232Y-53.149
X61.232Y-55.439
X61.266Y-59.271
X61.449Y-56.703
X61.632Y-44.406
X62.491Y-60.398
X62.719Y-37.181
X63.15Y-52.138
X63.378Y-81.457
X63.401Y-65.777
X63.423Y-76.736
X63.638Y-60.721
X63.909Y-47.718
X63.943Y-35.204
X64.061Y-52.031
X64.122Y-61.792
X64.152Y-46.825
X64.261Y-54.391
X64.348Y-55.64
X64.35Y-38.161
X64.35Y-53.149
X64.551Y-78.295
X65.019Y-60.381
X65.276Y-61.877
X65.479Y-48.813
X65.991Y-60.956
X66.109Y-32.6
X67.1Y-76.835
X67.1Y-83.628
X67.286Y-35.303
X67.464Y-29.532
X67.543Y-36.511
X67.713Y-56.999
X68.141Y-51.499
X68.243Y-43.777
X68.254Y-53.149
X68.254Y-65.777
X68.379Y-46.818
X68.421Y-41.562
X68.517Y-35.945
X68.57Y-78.301
X69.332Y-69.223
X69.85Y-80.62
X69.861Y-60.484
X69.894Y-50.722
X70.136Y-65.777
X70.216Y-35.334
X70.416Y-79.829
X71.124Y-47.001
X71.124Y-51.433
X71.335Y-44.002
X71.421Y-60.617
X71.684Y-52.952
X71.762Y-56.878
X71.8Y-41.152
X71.886Y-53.961
X72.007Y-55.14
X72.196Y-59.765
X72.196Y-62.31
X72.296Y-68.357
X72.625Y-53.566
X72.746Y-49.644
X73.011Y-57.265
X74.107Y-55.14
X74.208Y-74.73
X74.48Y-70.069
X74.483Y-39.612
X74.559Y-57.853
X74.734Y-54.132
X74.856Y-81.059
X75.259Y-29.532
X75.415Y-50.049
X75.438Y-38.918
X75.999Y-42.845
X76.141Y-51.752
X76.466Y-40.718
X76.547Y-45.018
X76.741Y-32.61
X77.426Y-45.018
X77.758Y-37.358
X77.825Y-60.88
X78.011Y-29.526
X78.709Y-79.802
X78.709Y-80.698
X78.846Y-40.726
X78.876Y-51.18
X78.9Y-30.474
X78.986Y-42.776
X79.706Y-38.147
X79.964Y-60.337
X80.251Y-48.658
X81.329Y-71.746
X81.782Y-31.57
X81.857Y-38.918
X81.857Y-48.484
X81.857Y-55.179
X81.857Y-65.777
X82.289Y-53.613
X84.15Y-59.808
X84.15Y-68.761
X84.626Y-47.828
X85.192Y-51.826
X85.631Y-62.826
X87.059Y-50.855
X87.059Y-74.73
X87.907Y-71.746
T2
X33.14Y-40.855
X33.14Y-43.395
X33.14Y-45.935
X33.14Y-48.475
X40.605Y-39.52
X43.145Y-39.52
X45.685Y-39.52
X48.225Y-39.52
T3
X77.082Y-39.468
X77.082Y-43.768
X77.082Y-46.268
X79.582Y-39.468
X79.582Y-41.568
X79.582Y-44.168
X79.582Y-46.268
T4
X76.835Y-81.114
X76.835Y-83.654
T5
X31.87Y-31.33
X31.87Y-33.87
X34.41Y-31.33
X34.41Y-33.87
X36.95Y-31.33
X36.95Y-33.87
X37.966Y-73.17
X39.49Y-31.33
X39.49Y-33.87
X40.506Y-73.17
X40.78Y-58.508
X42.03Y-31.33
X42.03Y-33.87
X43.046Y-73.17
X44.57Y-31.33
X44.57Y-33.87
X45.586Y-73.17
X47.11Y-31.33
X47.11Y-33.87
X48.126Y-73.17
X48.38Y-58.508
X49.65Y-31.33
X49.65Y-33.87
X52.19Y-31.33
X52.19Y-33.87
X54.73Y-31.33
X54.73Y-33.87
X57.27Y-31.33
X57.27Y-33.87
X59.81Y-31.33
X59.81Y-33.87
X60.878Y-65.224
X60.878Y-79.724
X62.35Y-31.33
X62.35Y-33.87
X63.378Y-79.724
X64.89Y-31.33
X64.89Y-33.87
X65.878Y-65.224
X65.878Y-79.724
X67.43Y-31.33
X67.43Y-33.87
X69.97Y-31.33
X69.97Y-33.87
X72.51Y-31.33
X72.51Y-33.87
X75.05Y-31.33
X75.05Y-33.87
X76.599Y-56.527
X76.599Y-59.067
X76.599Y-61.607
X76.599Y-64.147
X76.599Y-66.687
X76.599Y-69.227
X76.599Y-71.767
X76.599Y-74.307
X77.59Y-31.33
X77.59Y-33.87
X79.139Y-56.527
X79.139Y-59.067
X79.139Y-61.607
X79.139Y-64.147
X79.139Y-66.687
X79.139Y-69.227
X79.139Y-71.767
X79.139Y-74.307
X80.13Y-31.33
X80.13Y-33.87
X86.48Y-56.476
X86.48Y-59.016
X86.48Y-61.556
X86.48Y-64.096
X86.48Y-66.636
X86.48Y-69.176
X86.48Y-71.716
T6
X32.33Y-76.835
X32.33Y-83.335
X36.83Y-76.835
X36.83Y-83.335
X40.585Y-76.835
X40.585Y-83.335
X45.085Y-76.835
X45.085Y-83.335
X48.84Y-76.835
X48.84Y-83.335
X53.34Y-76.835
X53.34Y-83.335
X57.095Y-76.835
X57.095Y-83.335
X61.595Y-76.835
X61.595Y-83.335
X65.35Y-76.835
X65.35Y-83.335
X69.85Y-76.835
X69.85Y-83.335
T7
X57.778Y-72.224
X68.978Y-72.224
T3
X81.882Y-36.118G85X83.282Y-36.118
G05
X81.882Y-49.618G85X83.282Y-49.618
G05
X83.382Y-42.168G85X83.382Y-43.568
G05
M30
