M48
; DRILL file {KiCad 9.0.6} date 2025-12-28T20:23:16+0100
; FORMAT={-:-/ absolute / metric / decimal}
; #@! TF.CreationDate,2025-12-28T20:23:16+01:00
; #@! TF.GenerationSoftware,Kicad,Pcbnew,9.0.6
; #@! TF.FileFunction,Plated,1,2,PTH
FMAT,2
METRIC
; #@! TA.AperFunction,Plated,PTH,ViaDrill
T1C0.400
; #@! TA.AperFunction,Plated,PTH,ComponentDrill
T2C0.762
; #@! TA.AperFunction,Plated,PTH,ComponentDrill
T3C0.800
; #@! TA.AperFunction,Plated,PTH,ComponentDrill
T4C0.900
; #@! TA.AperFunction,Plated,PTH,ComponentDrill
T5C1.000
; #@! TA.AperFunction,Plated,PTH,ComponentDrill
T6C1.100
%
G90
G05
T1
X36.184Y-40.57
X43.516Y-57.692
X45.326Y-58.895
X48.255Y-71.065
X49.94Y-56.968
X51.55Y-51.664
X53.819Y-62.794
X54.679Y-29.645
X54.948Y-78.301
X57.245Y-53.84
X60.441Y-65.978
X66.096Y-66.007
X70.131Y-60.246
X71.202Y-63.422
X72.511Y-50.586
X74.433Y-55.867
X74.894Y-65.848
X75.189Y-50.431
X75.788Y-53.97
X76.278Y-48.446
X77.346Y-50.769
X77.76Y-51.506
X79.016Y-49.762
X80.798Y-54.239
T2
X33.14Y-40.855
X33.14Y-43.395
X33.14Y-45.935
X33.14Y-48.475
X40.605Y-39.52
X43.145Y-39.52
X45.685Y-39.52
X48.225Y-39.52
T3
X77.082Y-40.22
X77.082Y-44.52
X77.082Y-47.02
X79.582Y-40.22
X79.582Y-42.32
X79.582Y-44.92
X79.582Y-47.02
T4
X76.835Y-81.114
X76.835Y-83.654
T5
X31.87Y-31.33
X31.87Y-33.87
X34.41Y-31.33
X34.41Y-33.87
X36.95Y-31.33
X36.95Y-33.87
X38.22Y-73.494
X39.49Y-31.33
X39.49Y-33.87
X40.76Y-73.494
X40.78Y-58.508
X42.03Y-31.33
X42.03Y-33.87
X43.3Y-73.494
X44.57Y-31.33
X44.57Y-33.87
X45.84Y-73.494
X47.11Y-31.33
X47.11Y-33.87
X48.38Y-58.508
X48.38Y-73.494
X49.65Y-31.33
X49.65Y-33.87
X52.19Y-31.33
X52.19Y-33.87
X54.73Y-31.33
X54.73Y-33.87
X57.27Y-31.33
X57.27Y-33.87
X59.81Y-31.33
X59.81Y-33.87
X62.35Y-31.33
X62.35Y-33.87
X64.89Y-31.33
X64.89Y-33.87
X67.43Y-31.33
X67.43Y-33.87
X69.97Y-31.33
X69.97Y-33.87
X72.51Y-31.33
X72.51Y-33.87
X75.05Y-31.33
X75.05Y-33.87
X76.599Y-56.527
X76.599Y-59.067
X76.599Y-61.607
X76.599Y-64.147
X76.599Y-66.687
X76.599Y-69.227
X76.599Y-71.767
X76.599Y-74.307
X77.59Y-31.33
X77.59Y-33.87
X79.139Y-56.527
X79.139Y-59.067
X79.139Y-61.607
X79.139Y-64.147
X79.139Y-66.687
X79.139Y-69.227
X79.139Y-71.767
X79.139Y-74.307
X80.13Y-31.33
X80.13Y-33.87
X86.48Y-56.476
X86.48Y-59.016
X86.48Y-61.556
X86.48Y-64.096
X86.48Y-66.636
X86.48Y-69.176
X86.48Y-71.716
T6
X32.33Y-76.835
X32.33Y-83.335
X36.83Y-76.835
X36.83Y-83.335
X40.585Y-76.835
X40.585Y-83.335
X45.085Y-76.835
X45.085Y-83.335
X48.84Y-76.835
X48.84Y-83.335
X53.34Y-76.835
X53.34Y-83.335
X57.095Y-76.835
X57.095Y-83.335
X61.595Y-76.835
X61.595Y-83.335
X65.35Y-76.835
X65.35Y-83.335
X69.85Y-76.835
X69.85Y-83.335
T3
X81.882Y-36.87G85X83.282Y-36.87
G05
X81.882Y-50.37G85X83.282Y-50.37
G05
X83.382Y-42.92G85X83.382Y-44.32
G05
M30
