G04 #@! TF.GenerationSoftware,KiCad,Pcbnew,9.0.1*
G04 #@! TF.CreationDate,2025-10-22T23:56:24+02:00*
G04 #@! TF.ProjectId,RPi_Hat,5250695f-4861-4742-9e6b-696361645f70,1*
G04 #@! TF.SameCoordinates,Original*
G04 #@! TF.FileFunction,Copper,L2,Bot*
G04 #@! TF.FilePolarity,Positive*
%FSLAX46Y46*%
G04 Gerber Fmt 4.6, Leading zero omitted, Abs format (unit mm)*
G04 Created by KiCad (PCBNEW 9.0.1) date 2025-10-22 23:56:24*
%MOMM*%
%LPD*%
G01*
G04 APERTURE LIST*
G04 Aperture macros list*
%AMRoundRect*
0 Rectangle with rounded corners*
0 $1 Rounding radius*
0 $2 $3 $4 $5 $6 $7 $8 $9 X,Y pos of 4 corners*
0 Add a 4 corners polygon primitive as box body*
4,1,4,$2,$3,$4,$5,$6,$7,$8,$9,$2,$3,0*
0 Add four circle primitives for the rounded corners*
1,1,$1+$1,$2,$3*
1,1,$1+$1,$4,$5*
1,1,$1+$1,$6,$7*
1,1,$1+$1,$8,$9*
0 Add four rect primitives between the rounded corners*
20,1,$1+$1,$2,$3,$4,$5,0*
20,1,$1+$1,$4,$5,$6,$7,0*
20,1,$1+$1,$6,$7,$8,$9,0*
20,1,$1+$1,$8,$9,$2,$3,0*%
G04 Aperture macros list end*
G04 #@! TA.AperFunction,ComponentPad*
%ADD10R,1.524000X1.524000*%
G04 #@! TD*
G04 #@! TA.AperFunction,ComponentPad*
%ADD11C,1.524000*%
G04 #@! TD*
G04 #@! TA.AperFunction,ComponentPad*
%ADD12R,1.800000X1.800000*%
G04 #@! TD*
G04 #@! TA.AperFunction,ComponentPad*
%ADD13C,1.800000*%
G04 #@! TD*
G04 #@! TA.AperFunction,ComponentPad*
%ADD14C,1.600000*%
G04 #@! TD*
G04 #@! TA.AperFunction,ComponentPad*
%ADD15O,1.600000X1.600000*%
G04 #@! TD*
G04 #@! TA.AperFunction,ComponentPad*
%ADD16R,2.000000X2.000000*%
G04 #@! TD*
G04 #@! TA.AperFunction,ComponentPad*
%ADD17C,2.000000*%
G04 #@! TD*
G04 #@! TA.AperFunction,ComponentPad*
%ADD18RoundRect,0.250000X-0.600000X-0.600000X0.600000X-0.600000X0.600000X0.600000X-0.600000X0.600000X0*%
G04 #@! TD*
G04 #@! TA.AperFunction,ComponentPad*
%ADD19C,1.700000*%
G04 #@! TD*
G04 #@! TA.AperFunction,ComponentPad*
%ADD20R,1.700000X1.700000*%
G04 #@! TD*
G04 #@! TA.AperFunction,ViaPad*
%ADD21C,0.600000*%
G04 #@! TD*
G04 #@! TA.AperFunction,Conductor*
%ADD22C,0.250000*%
G04 #@! TD*
G04 APERTURE END LIST*
D10*
X40605000Y-39520000D03*
D11*
X43145000Y-39520000D03*
X45685000Y-39520000D03*
X48225000Y-39520000D03*
D10*
X33140000Y-48475000D03*
D11*
X33140000Y-45935000D03*
X33140000Y-43395000D03*
X33140000Y-40855000D03*
D12*
X76835000Y-82550000D03*
D13*
X76835000Y-80010000D03*
D14*
X68065000Y-39585000D03*
D15*
X68065000Y-49745000D03*
D16*
X61080000Y-57365000D03*
D17*
X68680000Y-57365000D03*
D18*
X79063200Y-50253000D03*
D19*
X81603200Y-50253000D03*
X79063200Y-52793000D03*
X81603200Y-52793000D03*
X79063200Y-55333000D03*
X81603200Y-55333000D03*
X79063200Y-57873000D03*
X81603200Y-57873000D03*
X79063200Y-60413000D03*
X81603200Y-60413000D03*
X79063200Y-62953000D03*
X81603200Y-62953000D03*
X79063200Y-65493000D03*
X81603200Y-65493000D03*
X79063200Y-68033000D03*
X81603200Y-68033000D03*
D17*
X69850000Y-76835000D03*
X69850000Y-83335000D03*
X65350000Y-76835000D03*
X65350000Y-83335000D03*
X61595000Y-76835000D03*
X61595000Y-83335000D03*
X57095000Y-76835000D03*
X57095000Y-83335000D03*
X53340000Y-76835000D03*
X53340000Y-83335000D03*
X48840000Y-76835000D03*
X48840000Y-83335000D03*
X45085000Y-76835000D03*
X45085000Y-83335000D03*
X40585000Y-76835000D03*
X40585000Y-83335000D03*
X36830000Y-76835000D03*
X36830000Y-83335000D03*
X32330000Y-76835000D03*
X32330000Y-83335000D03*
D20*
X31870000Y-33870000D03*
D19*
X31870000Y-31330000D03*
X34410000Y-33870000D03*
X34410000Y-31330000D03*
X36950000Y-33870000D03*
X36950000Y-31330000D03*
X39490000Y-33870000D03*
X39490000Y-31330000D03*
X42030000Y-33870000D03*
X42030000Y-31330000D03*
X44570000Y-33870000D03*
X44570000Y-31330000D03*
X47110000Y-33870000D03*
X47110000Y-31330000D03*
X49650000Y-33870000D03*
X49650000Y-31330000D03*
X52190000Y-33870000D03*
X52190000Y-31330000D03*
X54730000Y-33870000D03*
X54730000Y-31330000D03*
X57270000Y-33870000D03*
X57270000Y-31330000D03*
X59810000Y-33870000D03*
X59810000Y-31330000D03*
X62350000Y-33870000D03*
X62350000Y-31330000D03*
X64890000Y-33870000D03*
X64890000Y-31330000D03*
X67430000Y-33870000D03*
X67430000Y-31330000D03*
X69970000Y-33870000D03*
X69970000Y-31330000D03*
X72510000Y-33870000D03*
X72510000Y-31330000D03*
X75050000Y-33870000D03*
X75050000Y-31330000D03*
X77590000Y-33870000D03*
X77590000Y-31330000D03*
X80130000Y-33870000D03*
X80130000Y-31330000D03*
D21*
X49182400Y-68155100D03*
X74689300Y-51319900D03*
X62499500Y-54387900D03*
D22*
X75685000Y-82550000D02*
X76835000Y-82550000D01*
X75608300Y-82473300D02*
X75685000Y-82550000D01*
X82779200Y-68520116D02*
X75608300Y-75691016D01*
X82637000Y-66857000D02*
X82779200Y-66999200D01*
X75017000Y-66857000D02*
X82637000Y-66857000D01*
X75608300Y-75691016D02*
X75608300Y-82473300D01*
X67265001Y-59105001D02*
X75017000Y-66857000D01*
X67265001Y-50544999D02*
X67265001Y-59105001D01*
X82779200Y-66999200D02*
X82779200Y-68520116D01*
X68065000Y-49745000D02*
X67265001Y-50544999D01*
X69850000Y-76835000D02*
X72801200Y-76835000D01*
X72801200Y-76835000D02*
X81603200Y-68033000D01*
X78932100Y-32672100D02*
X77590000Y-31330000D01*
X78932100Y-48362586D02*
X78932100Y-32672100D01*
X77887200Y-49407486D02*
X78932100Y-48362586D01*
X78217686Y-51429000D02*
X77887200Y-51098514D01*
X80253800Y-51773800D02*
X79909000Y-51429000D01*
X77887200Y-51098514D02*
X77887200Y-49407486D01*
X80253800Y-64302400D02*
X80253800Y-51773800D01*
X79063200Y-65493000D02*
X80253800Y-64302400D01*
X79909000Y-51429000D02*
X78217686Y-51429000D01*
X80130000Y-49186200D02*
X79063200Y-50253000D01*
X80130000Y-33870000D02*
X80130000Y-49186200D01*
X69191000Y-56854000D02*
X68680000Y-57365000D01*
X69191000Y-40711000D02*
X69191000Y-56854000D01*
X68065000Y-39585000D02*
X69191000Y-40711000D01*
X40605000Y-35295000D02*
X42030000Y-33870000D01*
X40605000Y-39520000D02*
X40605000Y-35295000D01*
X55680787Y-76835000D02*
X57095000Y-76835000D01*
X39490000Y-60644213D02*
X55680787Y-76835000D01*
X39490000Y-39586396D02*
X39490000Y-60644213D01*
X39040000Y-39136396D02*
X39490000Y-39586396D01*
X39490000Y-38313604D02*
X39040000Y-38763604D01*
X39040000Y-38763604D02*
X39040000Y-39136396D01*
X39490000Y-33870000D02*
X39490000Y-38313604D01*
X66066000Y-32694000D02*
X63526000Y-32694000D01*
X67430000Y-31330000D02*
X66066000Y-32694000D01*
X63526000Y-32694000D02*
X62350000Y-33870000D01*
X77698400Y-61588200D02*
X79063200Y-62953000D01*
X77698400Y-59776600D02*
X77698400Y-61588200D01*
X73610900Y-55689100D02*
X77698400Y-59776600D01*
X73610900Y-50873300D02*
X73610900Y-55689100D01*
X73686700Y-50797500D02*
X73610900Y-50873300D01*
X73686700Y-33382500D02*
X73686700Y-50797500D01*
X72904400Y-32600200D02*
X73686700Y-33382500D01*
X71240100Y-32600200D02*
X72904400Y-32600200D01*
X71240100Y-32600100D02*
X71240100Y-32600200D01*
X69970000Y-31330000D02*
X71240100Y-32600100D01*
X57095000Y-83335000D02*
X57095000Y-76835000D01*
X40585000Y-83335000D02*
X40585000Y-76835000D01*
X50920000Y-32600000D02*
X49650000Y-33870000D01*
X52620900Y-32600000D02*
X50920000Y-32600000D01*
X53407600Y-33386700D02*
X52620900Y-32600000D01*
X53407600Y-63929900D02*
X53407600Y-33386700D01*
X49182400Y-68155100D02*
X53407600Y-63929900D01*
X65350000Y-83335000D02*
X65350000Y-76835000D01*
X66615800Y-34684200D02*
X67430000Y-33870000D01*
X66615800Y-75569200D02*
X66615800Y-34684200D01*
X65350000Y-76835000D02*
X66615800Y-75569200D01*
X32330000Y-83335000D02*
X32330000Y-76835000D01*
X45840000Y-32600000D02*
X47110000Y-33870000D01*
X45840000Y-30929500D02*
X45840000Y-32600000D01*
X45058200Y-30147700D02*
X45840000Y-30929500D01*
X31324800Y-30147700D02*
X45058200Y-30147700D01*
X30687300Y-30785200D02*
X31324800Y-30147700D01*
X30687300Y-75192300D02*
X30687300Y-30785200D01*
X32330000Y-76835000D02*
X30687300Y-75192300D01*
X48840000Y-83335000D02*
X48840000Y-76835000D01*
X43300000Y-32600000D02*
X44570000Y-33870000D01*
X39070200Y-32600000D02*
X43300000Y-32600000D01*
X38273100Y-33397100D02*
X39070200Y-32600000D01*
X38273100Y-66268100D02*
X38273100Y-33397100D01*
X48840000Y-76835000D02*
X38273100Y-66268100D01*
X50355900Y-35704100D02*
X52190000Y-33870000D01*
X46960900Y-35704100D02*
X50355900Y-35704100D01*
X43145000Y-39520000D02*
X46960900Y-35704100D01*
X74689300Y-53499100D02*
X74689300Y-51319900D01*
X79063200Y-57873000D02*
X74689300Y-53499100D01*
X82793300Y-33993300D02*
X80130000Y-31330000D01*
X82793300Y-64302900D02*
X82793300Y-33993300D01*
X81603200Y-65493000D02*
X82793300Y-64302900D01*
X74062600Y-55412400D02*
X79063200Y-60413000D01*
X74062600Y-51060400D02*
X74062600Y-55412400D01*
X76231700Y-48891300D02*
X74062600Y-51060400D01*
X76231700Y-33380700D02*
X76231700Y-48891300D01*
X75544300Y-32693300D02*
X76231700Y-33380700D01*
X74749200Y-32693300D02*
X75544300Y-32693300D01*
X73780000Y-31724100D02*
X74749200Y-32693300D01*
X73780000Y-30841400D02*
X73780000Y-31724100D01*
X73085900Y-30147300D02*
X73780000Y-30841400D01*
X60992700Y-30147300D02*
X73085900Y-30147300D01*
X59810000Y-31330000D02*
X60992700Y-30147300D01*
X34410000Y-39585000D02*
X34410000Y-33870000D01*
X33140000Y-40855000D02*
X34410000Y-39585000D01*
X36950000Y-39585000D02*
X36950000Y-33870000D01*
X33140000Y-43395000D02*
X36950000Y-39585000D01*
X54730000Y-46618400D02*
X54730000Y-33870000D01*
X62499500Y-54387900D02*
X54730000Y-46618400D01*
X71752600Y-33870000D02*
X72510000Y-33870000D01*
X70547900Y-32665300D02*
X71752600Y-33870000D01*
X66944900Y-32665300D02*
X70547900Y-32665300D01*
X66160000Y-33450200D02*
X66944900Y-32665300D01*
X66160000Y-51621600D02*
X66160000Y-33450200D01*
X61743300Y-56038300D02*
X66160000Y-51621600D01*
X61080000Y-56038300D02*
X61743300Y-56038300D01*
X61080000Y-57365000D02*
X61080000Y-56038300D01*
G04 #@! TA.AperFunction,Conductor*
G36*
X82492121Y-29230002D02*
G01*
X82538614Y-29283658D01*
X82550000Y-29336000D01*
X82550000Y-32549906D01*
X82529998Y-32618027D01*
X82476342Y-32664520D01*
X82406068Y-32674624D01*
X82341488Y-32645130D01*
X82334905Y-32639001D01*
X81482418Y-31786514D01*
X81448392Y-31724202D01*
X81451683Y-31658475D01*
X81455047Y-31648122D01*
X81455046Y-31648122D01*
X81455049Y-31648116D01*
X81488500Y-31436916D01*
X81488500Y-31223084D01*
X81455049Y-31011884D01*
X81388972Y-30808517D01*
X81291894Y-30617991D01*
X81166206Y-30444996D01*
X81166203Y-30444993D01*
X81166201Y-30444990D01*
X81015009Y-30293798D01*
X81015006Y-30293796D01*
X81015004Y-30293794D01*
X80842601Y-30168536D01*
X80842012Y-30168108D01*
X80842011Y-30168107D01*
X80842009Y-30168106D01*
X80651483Y-30071028D01*
X80651480Y-30071027D01*
X80651478Y-30071026D01*
X80448120Y-30004952D01*
X80448123Y-30004952D01*
X80408801Y-29998724D01*
X80236916Y-29971500D01*
X80023084Y-29971500D01*
X79811884Y-30004951D01*
X79811878Y-30004952D01*
X79608521Y-30071026D01*
X79608515Y-30071029D01*
X79417987Y-30168108D01*
X79244993Y-30293796D01*
X79244990Y-30293798D01*
X79093798Y-30444990D01*
X79093796Y-30444993D01*
X78968108Y-30617987D01*
X78967434Y-30619088D01*
X78967068Y-30619418D01*
X78965196Y-30621996D01*
X78964654Y-30621602D01*
X78914787Y-30666721D01*
X78844745Y-30678328D01*
X78779547Y-30650226D01*
X78754976Y-30621870D01*
X78754804Y-30621996D01*
X78753341Y-30619982D01*
X78752566Y-30619088D01*
X78751896Y-30617996D01*
X78751894Y-30617991D01*
X78626206Y-30444996D01*
X78626203Y-30444993D01*
X78626201Y-30444990D01*
X78475009Y-30293798D01*
X78475006Y-30293796D01*
X78475004Y-30293794D01*
X78302601Y-30168536D01*
X78302012Y-30168108D01*
X78302011Y-30168107D01*
X78302009Y-30168106D01*
X78111483Y-30071028D01*
X78111480Y-30071027D01*
X78111478Y-30071026D01*
X77908120Y-30004952D01*
X77908123Y-30004952D01*
X77868801Y-29998724D01*
X77696916Y-29971500D01*
X77483084Y-29971500D01*
X77271884Y-30004951D01*
X77271878Y-30004952D01*
X77068521Y-30071026D01*
X77068515Y-30071029D01*
X76877987Y-30168108D01*
X76704993Y-30293796D01*
X76704990Y-30293798D01*
X76553798Y-30444990D01*
X76553796Y-30444993D01*
X76428108Y-30617987D01*
X76427434Y-30619088D01*
X76427068Y-30619418D01*
X76425196Y-30621996D01*
X76424654Y-30621602D01*
X76374787Y-30666721D01*
X76304745Y-30678328D01*
X76239547Y-30650226D01*
X76214976Y-30621870D01*
X76214804Y-30621996D01*
X76213341Y-30619982D01*
X76212566Y-30619088D01*
X76211896Y-30617996D01*
X76211894Y-30617991D01*
X76086206Y-30444996D01*
X76086203Y-30444993D01*
X76086201Y-30444990D01*
X75935009Y-30293798D01*
X75935006Y-30293796D01*
X75935004Y-30293794D01*
X75762601Y-30168536D01*
X75762012Y-30168108D01*
X75762011Y-30168107D01*
X75762009Y-30168106D01*
X75571483Y-30071028D01*
X75571480Y-30071027D01*
X75571478Y-30071026D01*
X75368120Y-30004952D01*
X75368123Y-30004952D01*
X75328801Y-29998724D01*
X75156916Y-29971500D01*
X74943084Y-29971500D01*
X74731884Y-30004951D01*
X74731878Y-30004952D01*
X74528521Y-30071026D01*
X74528515Y-30071029D01*
X74337987Y-30168108D01*
X74230803Y-30245982D01*
X74163935Y-30269841D01*
X74094783Y-30253760D01*
X74067647Y-30233142D01*
X74002611Y-30168106D01*
X73489733Y-29655229D01*
X73385975Y-29585900D01*
X73270685Y-29538145D01*
X73196986Y-29523485D01*
X73148296Y-29513800D01*
X73148294Y-29513800D01*
X61055093Y-29513800D01*
X60930306Y-29513800D01*
X60930303Y-29513800D01*
X60857268Y-29528328D01*
X60807915Y-29538145D01*
X60807913Y-29538145D01*
X60807912Y-29538146D01*
X60692623Y-29585901D01*
X60588871Y-29655226D01*
X60588869Y-29655227D01*
X60266513Y-29977581D01*
X60204201Y-30011606D01*
X60138488Y-30008320D01*
X60128122Y-30004952D01*
X60128123Y-30004952D01*
X60088801Y-29998724D01*
X59916916Y-29971500D01*
X59703084Y-29971500D01*
X59491884Y-30004951D01*
X59491878Y-30004952D01*
X59288521Y-30071026D01*
X59288515Y-30071029D01*
X59097987Y-30168108D01*
X58924993Y-30293796D01*
X58924990Y-30293798D01*
X58773798Y-30444990D01*
X58773796Y-30444993D01*
X58648108Y-30617987D01*
X58647434Y-30619088D01*
X58647068Y-30619418D01*
X58645196Y-30621996D01*
X58644654Y-30621602D01*
X58594787Y-30666721D01*
X58524745Y-30678328D01*
X58459547Y-30650226D01*
X58434976Y-30621870D01*
X58434804Y-30621996D01*
X58433341Y-30619982D01*
X58432566Y-30619088D01*
X58431896Y-30617996D01*
X58431894Y-30617991D01*
X58306206Y-30444996D01*
X58306203Y-30444993D01*
X58306201Y-30444990D01*
X58155009Y-30293798D01*
X58155006Y-30293796D01*
X58155004Y-30293794D01*
X57982601Y-30168536D01*
X57982012Y-30168108D01*
X57982011Y-30168107D01*
X57982009Y-30168106D01*
X57791483Y-30071028D01*
X57791480Y-30071027D01*
X57791478Y-30071026D01*
X57588120Y-30004952D01*
X57588123Y-30004952D01*
X57548801Y-29998724D01*
X57376916Y-29971500D01*
X57163084Y-29971500D01*
X56951884Y-30004951D01*
X56951878Y-30004952D01*
X56748521Y-30071026D01*
X56748515Y-30071029D01*
X56557987Y-30168108D01*
X56384993Y-30293796D01*
X56384990Y-30293798D01*
X56233798Y-30444990D01*
X56233796Y-30444993D01*
X56108100Y-30617998D01*
X56107131Y-30619580D01*
X56106606Y-30620054D01*
X56105196Y-30621996D01*
X56104787Y-30621699D01*
X56054479Y-30667206D01*
X55984437Y-30678807D01*
X55919242Y-30650697D01*
X55894514Y-30622157D01*
X55894376Y-30622258D01*
X55893199Y-30620639D01*
X55892270Y-30619566D01*
X55891461Y-30618247D01*
X55853378Y-30565831D01*
X55214157Y-31205051D01*
X55195925Y-31137007D01*
X55130099Y-31022993D01*
X55037007Y-30929901D01*
X54922993Y-30864075D01*
X54854947Y-30845841D01*
X55494168Y-30206621D01*
X55494167Y-30206620D01*
X55441750Y-30168536D01*
X55441748Y-30168535D01*
X55251292Y-30071493D01*
X55251286Y-30071490D01*
X55048003Y-30005440D01*
X54836874Y-29972000D01*
X54623126Y-29972000D01*
X54411996Y-30005440D01*
X54208713Y-30071490D01*
X54208707Y-30071493D01*
X54018253Y-30168534D01*
X53965831Y-30206621D01*
X53965831Y-30206622D01*
X54605051Y-30845842D01*
X54537007Y-30864075D01*
X54422993Y-30929901D01*
X54329901Y-31022993D01*
X54264075Y-31137007D01*
X54245842Y-31205051D01*
X53606622Y-30565831D01*
X53606621Y-30565831D01*
X53568528Y-30618261D01*
X53567724Y-30619574D01*
X53567288Y-30619967D01*
X53565624Y-30622259D01*
X53565142Y-30621909D01*
X53515075Y-30667203D01*
X53445033Y-30678807D01*
X53379836Y-30650702D01*
X53354901Y-30621924D01*
X53354804Y-30621996D01*
X53353975Y-30620855D01*
X53352859Y-30619567D01*
X53351899Y-30618001D01*
X53351894Y-30617991D01*
X53226206Y-30444996D01*
X53226203Y-30444993D01*
X53226201Y-30444990D01*
X53075009Y-30293798D01*
X53075006Y-30293796D01*
X53075004Y-30293794D01*
X52902601Y-30168536D01*
X52902012Y-30168108D01*
X52902011Y-30168107D01*
X52902009Y-30168106D01*
X52711483Y-30071028D01*
X52711480Y-30071027D01*
X52711478Y-30071026D01*
X52508120Y-30004952D01*
X52508123Y-30004952D01*
X52468801Y-29998724D01*
X52296916Y-29971500D01*
X52083084Y-29971500D01*
X51871884Y-30004951D01*
X51871878Y-30004952D01*
X51668521Y-30071026D01*
X51668515Y-30071029D01*
X51477987Y-30168108D01*
X51304993Y-30293796D01*
X51304990Y-30293798D01*
X51153798Y-30444990D01*
X51153796Y-30444993D01*
X51028108Y-30617987D01*
X51027434Y-30619088D01*
X51027068Y-30619418D01*
X51025196Y-30621996D01*
X51024654Y-30621602D01*
X50974787Y-30666721D01*
X50904745Y-30678328D01*
X50839547Y-30650226D01*
X50814976Y-30621870D01*
X50814804Y-30621996D01*
X50813341Y-30619982D01*
X50812566Y-30619088D01*
X50811896Y-30617996D01*
X50811894Y-30617991D01*
X50686206Y-30444996D01*
X50686203Y-30444993D01*
X50686201Y-30444990D01*
X50535009Y-30293798D01*
X50535006Y-30293796D01*
X50535004Y-30293794D01*
X50362601Y-30168536D01*
X50362012Y-30168108D01*
X50362011Y-30168107D01*
X50362009Y-30168106D01*
X50171483Y-30071028D01*
X50171480Y-30071027D01*
X50171478Y-30071026D01*
X49968120Y-30004952D01*
X49968123Y-30004952D01*
X49928801Y-29998724D01*
X49756916Y-29971500D01*
X49543084Y-29971500D01*
X49331884Y-30004951D01*
X49331878Y-30004952D01*
X49128521Y-30071026D01*
X49128515Y-30071029D01*
X48937987Y-30168108D01*
X48764993Y-30293796D01*
X48764990Y-30293798D01*
X48613798Y-30444990D01*
X48613796Y-30444993D01*
X48488100Y-30617998D01*
X48487131Y-30619580D01*
X48486606Y-30620054D01*
X48485196Y-30621996D01*
X48484787Y-30621699D01*
X48434479Y-30667206D01*
X48364437Y-30678807D01*
X48299242Y-30650697D01*
X48274514Y-30622157D01*
X48274376Y-30622258D01*
X48273199Y-30620639D01*
X48272270Y-30619566D01*
X48271461Y-30618247D01*
X48233378Y-30565831D01*
X47594157Y-31205051D01*
X47575925Y-31137007D01*
X47510099Y-31022993D01*
X47417007Y-30929901D01*
X47302993Y-30864075D01*
X47234947Y-30845841D01*
X47874168Y-30206621D01*
X47874167Y-30206620D01*
X47821750Y-30168536D01*
X47821748Y-30168535D01*
X47631292Y-30071493D01*
X47631286Y-30071490D01*
X47428003Y-30005440D01*
X47216874Y-29972000D01*
X47003126Y-29972000D01*
X46791996Y-30005440D01*
X46588713Y-30071490D01*
X46588707Y-30071493D01*
X46398249Y-30168536D01*
X46240134Y-30283415D01*
X46173267Y-30307273D01*
X46104115Y-30291193D01*
X46076978Y-30270574D01*
X45462035Y-29655631D01*
X45462033Y-29655629D01*
X45358275Y-29586300D01*
X45242985Y-29538545D01*
X45169286Y-29523885D01*
X45120596Y-29514200D01*
X45120594Y-29514200D01*
X31387194Y-29514200D01*
X31262406Y-29514200D01*
X31262403Y-29514200D01*
X31189368Y-29528728D01*
X31140015Y-29538545D01*
X31140013Y-29538545D01*
X31140012Y-29538546D01*
X31072475Y-29566521D01*
X31025689Y-29585901D01*
X31024723Y-29586301D01*
X30920971Y-29655626D01*
X30920964Y-29655631D01*
X30195231Y-30381364D01*
X30195226Y-30381371D01*
X30157770Y-30437429D01*
X30125900Y-30485125D01*
X30078145Y-30600415D01*
X30073820Y-30622157D01*
X30053800Y-30722803D01*
X30053800Y-30722806D01*
X30053800Y-75129906D01*
X30053800Y-75254694D01*
X30078145Y-75377085D01*
X30125900Y-75492375D01*
X30195229Y-75596133D01*
X30195231Y-75596135D01*
X30858540Y-76259444D01*
X30892566Y-76321756D01*
X30889278Y-76387475D01*
X30858645Y-76481753D01*
X30858645Y-76481755D01*
X30858644Y-76481759D01*
X30821500Y-76716278D01*
X30821500Y-76953722D01*
X30842420Y-77085806D01*
X30858645Y-77188246D01*
X30926279Y-77396400D01*
X30932018Y-77414063D01*
X31039815Y-77625627D01*
X31179380Y-77817722D01*
X31179382Y-77817724D01*
X31179384Y-77817727D01*
X31347272Y-77985615D01*
X31347275Y-77985617D01*
X31347278Y-77985620D01*
X31539373Y-78125185D01*
X31627703Y-78170191D01*
X31679318Y-78218939D01*
X31696500Y-78282458D01*
X31696500Y-81887541D01*
X31676498Y-81955662D01*
X31627704Y-81999807D01*
X31539372Y-82044815D01*
X31347275Y-82184382D01*
X31347272Y-82184384D01*
X31179384Y-82352272D01*
X31179382Y-82352275D01*
X31039817Y-82544369D01*
X30932019Y-82755935D01*
X30932016Y-82755941D01*
X30858645Y-82981753D01*
X30858644Y-82981758D01*
X30858644Y-82981759D01*
X30821500Y-83216278D01*
X30821500Y-83453722D01*
X30856184Y-83672708D01*
X30858645Y-83688246D01*
X30931954Y-83913867D01*
X30932018Y-83914063D01*
X30954660Y-83958500D01*
X31039817Y-84125630D01*
X31133766Y-84254939D01*
X31157624Y-84321806D01*
X31141544Y-84390958D01*
X31090630Y-84440438D01*
X31031830Y-84455000D01*
X30606000Y-84455000D01*
X30537879Y-84434998D01*
X30491386Y-84381342D01*
X30480000Y-84329000D01*
X30480000Y-78105000D01*
X24256000Y-78105000D01*
X24187879Y-78084998D01*
X24141386Y-78031342D01*
X24130000Y-77979000D01*
X24130000Y-66801000D01*
X24150002Y-66732879D01*
X24203658Y-66686386D01*
X24256000Y-66675000D01*
X29210000Y-66675000D01*
X29210000Y-47625000D01*
X24256000Y-47625000D01*
X24187879Y-47604998D01*
X24141386Y-47551342D01*
X24130000Y-47499000D01*
X24130000Y-36321000D01*
X24150002Y-36252879D01*
X24203658Y-36206386D01*
X24256000Y-36195000D01*
X29210000Y-36195000D01*
X29210000Y-29336000D01*
X29230002Y-29267879D01*
X29283658Y-29221386D01*
X29336000Y-29210000D01*
X82424000Y-29210000D01*
X82492121Y-29230002D01*
G37*
G04 #@! TD.AperFunction*
G04 #@! TA.AperFunction,Conductor*
G36*
X33393308Y-34781736D02*
G01*
X33422018Y-34803229D01*
X33524990Y-34906201D01*
X33524993Y-34906203D01*
X33524996Y-34906206D01*
X33644978Y-34993378D01*
X33697397Y-35031463D01*
X33697991Y-35031894D01*
X33707702Y-35036842D01*
X33759316Y-35085586D01*
X33776500Y-35149108D01*
X33776500Y-39270404D01*
X33756498Y-39338525D01*
X33739595Y-39359500D01*
X33522444Y-39576650D01*
X33460132Y-39610675D01*
X33413639Y-39612003D01*
X33346987Y-39601446D01*
X33239991Y-39584500D01*
X33040009Y-39584500D01*
X32842490Y-39615784D01*
X32842484Y-39615785D01*
X32652301Y-39677579D01*
X32652295Y-39677582D01*
X32474109Y-39768372D01*
X32312322Y-39885919D01*
X32312319Y-39885921D01*
X32170921Y-40027319D01*
X32170919Y-40027322D01*
X32053372Y-40189109D01*
X31962582Y-40367295D01*
X31962579Y-40367301D01*
X31900785Y-40557484D01*
X31900784Y-40557489D01*
X31900784Y-40557490D01*
X31869500Y-40755009D01*
X31869500Y-40954991D01*
X31900784Y-41152510D01*
X31900785Y-41152515D01*
X31962579Y-41342698D01*
X31962581Y-41342703D01*
X31962582Y-41342704D01*
X32053372Y-41520890D01*
X32133683Y-41631428D01*
X32170917Y-41682675D01*
X32170919Y-41682677D01*
X32170921Y-41682680D01*
X32312319Y-41824078D01*
X32312322Y-41824080D01*
X32312325Y-41824083D01*
X32474113Y-41941629D01*
X32613662Y-42012733D01*
X32665277Y-42061482D01*
X32682343Y-42130397D01*
X32659442Y-42197598D01*
X32613662Y-42237266D01*
X32560152Y-42264531D01*
X32474110Y-42308372D01*
X32312322Y-42425919D01*
X32312319Y-42425921D01*
X32170921Y-42567319D01*
X32170919Y-42567322D01*
X32053372Y-42729109D01*
X31962582Y-42907295D01*
X31962579Y-42907301D01*
X31900785Y-43097484D01*
X31900784Y-43097489D01*
X31900784Y-43097490D01*
X31869500Y-43295009D01*
X31869500Y-43494991D01*
X31900784Y-43692510D01*
X31900785Y-43692515D01*
X31962579Y-43882698D01*
X31962581Y-43882703D01*
X31962582Y-43882704D01*
X32053372Y-44060890D01*
X32133683Y-44171428D01*
X32170917Y-44222675D01*
X32170919Y-44222677D01*
X32170921Y-44222680D01*
X32312319Y-44364078D01*
X32312322Y-44364080D01*
X32312325Y-44364083D01*
X32474113Y-44481629D01*
X32613662Y-44552733D01*
X32665277Y-44601482D01*
X32682343Y-44670397D01*
X32659442Y-44737598D01*
X32613662Y-44777266D01*
X32560152Y-44804531D01*
X32474110Y-44848372D01*
X32312322Y-44965919D01*
X32312319Y-44965921D01*
X32170921Y-45107319D01*
X32170919Y-45107322D01*
X32053372Y-45269109D01*
X31962582Y-45447295D01*
X31962579Y-45447301D01*
X31900785Y-45637484D01*
X31900784Y-45637489D01*
X31900784Y-45637490D01*
X31869500Y-45835009D01*
X31869500Y-46034991D01*
X31900784Y-46232510D01*
X31900785Y-46232515D01*
X31962579Y-46422698D01*
X31962581Y-46422703D01*
X31962582Y-46422704D01*
X32053372Y-46600890D01*
X32111427Y-46680794D01*
X32170917Y-46762675D01*
X32170919Y-46762677D01*
X32170921Y-46762680D01*
X32312319Y-46904078D01*
X32312322Y-46904080D01*
X32312325Y-46904083D01*
X32412775Y-46977064D01*
X32456129Y-47033286D01*
X32462204Y-47104022D01*
X32429073Y-47166814D01*
X32367253Y-47201726D01*
X32338714Y-47205000D01*
X32329402Y-47205000D01*
X32268906Y-47211505D01*
X32132035Y-47262555D01*
X32132034Y-47262555D01*
X32015095Y-47350095D01*
X31927555Y-47467034D01*
X31927555Y-47467035D01*
X31876505Y-47603906D01*
X31870000Y-47664402D01*
X31870000Y-48221000D01*
X32855184Y-48221000D01*
X32835124Y-48241060D01*
X32784964Y-48327939D01*
X32759000Y-48424840D01*
X32759000Y-48525160D01*
X32784964Y-48622061D01*
X32835124Y-48708940D01*
X32855184Y-48729000D01*
X31870000Y-48729000D01*
X31870000Y-49285597D01*
X31876505Y-49346093D01*
X31927555Y-49482964D01*
X31927555Y-49482965D01*
X32015095Y-49599904D01*
X32132034Y-49687444D01*
X32268906Y-49738494D01*
X32329402Y-49744999D01*
X32329415Y-49745000D01*
X32886000Y-49745000D01*
X32886000Y-48759816D01*
X32906060Y-48779876D01*
X32992939Y-48830036D01*
X33089840Y-48856000D01*
X33190160Y-48856000D01*
X33287061Y-48830036D01*
X33373940Y-48779876D01*
X33394000Y-48759816D01*
X33394000Y-49745000D01*
X33950585Y-49745000D01*
X33950597Y-49744999D01*
X34011093Y-49738494D01*
X34147964Y-49687444D01*
X34147965Y-49687444D01*
X34264904Y-49599904D01*
X34352444Y-49482965D01*
X34352444Y-49482964D01*
X34403494Y-49346093D01*
X34409999Y-49285597D01*
X34410000Y-49285585D01*
X34410000Y-48729000D01*
X33424816Y-48729000D01*
X33444876Y-48708940D01*
X33495036Y-48622061D01*
X33521000Y-48525160D01*
X33521000Y-48424840D01*
X33495036Y-48327939D01*
X33444876Y-48241060D01*
X33424816Y-48221000D01*
X34410000Y-48221000D01*
X34410000Y-47664414D01*
X34409999Y-47664402D01*
X34403494Y-47603906D01*
X34352444Y-47467035D01*
X34352444Y-47467034D01*
X34264904Y-47350095D01*
X34147965Y-47262555D01*
X34011093Y-47211505D01*
X33950597Y-47205000D01*
X33941286Y-47205000D01*
X33873165Y-47184998D01*
X33826672Y-47131342D01*
X33816568Y-47061068D01*
X33846062Y-46996488D01*
X33867225Y-46977064D01*
X33967675Y-46904083D01*
X34109083Y-46762675D01*
X34226629Y-46600887D01*
X34317419Y-46422703D01*
X34379216Y-46232510D01*
X34410500Y-46034991D01*
X34410500Y-45835009D01*
X34379216Y-45637490D01*
X34317419Y-45447297D01*
X34226629Y-45269113D01*
X34226627Y-45269109D01*
X34164932Y-45184195D01*
X34109083Y-45107325D01*
X34109080Y-45107322D01*
X34109078Y-45107319D01*
X33967680Y-44965921D01*
X33967677Y-44965919D01*
X33967675Y-44965917D01*
X33805887Y-44848371D01*
X33666335Y-44777265D01*
X33614722Y-44728519D01*
X33597656Y-44659604D01*
X33620557Y-44592402D01*
X33666334Y-44552735D01*
X33805887Y-44481629D01*
X33967675Y-44364083D01*
X34109083Y-44222675D01*
X34226629Y-44060887D01*
X34317419Y-43882703D01*
X34379216Y-43692510D01*
X34410500Y-43494991D01*
X34410500Y-43295009D01*
X34382995Y-43121353D01*
X34392094Y-43050948D01*
X34418346Y-43012556D01*
X37424505Y-40006400D01*
X37486817Y-39972374D01*
X37557633Y-39977439D01*
X37614468Y-40019986D01*
X37639279Y-40086506D01*
X37639600Y-40095495D01*
X37639600Y-66330496D01*
X37646450Y-66364931D01*
X37663945Y-66452885D01*
X37711700Y-66568175D01*
X37781029Y-66671933D01*
X37781031Y-66671935D01*
X47368540Y-76259444D01*
X47402566Y-76321756D01*
X47399278Y-76387475D01*
X47368645Y-76481753D01*
X47368645Y-76481755D01*
X47368644Y-76481759D01*
X47331500Y-76716278D01*
X47331500Y-76953722D01*
X47352420Y-77085806D01*
X47368645Y-77188246D01*
X47436279Y-77396400D01*
X47442018Y-77414063D01*
X47549815Y-77625627D01*
X47689380Y-77817722D01*
X47689382Y-77817724D01*
X47689384Y-77817727D01*
X47857272Y-77985615D01*
X47857275Y-77985617D01*
X47857278Y-77985620D01*
X48049373Y-78125185D01*
X48137703Y-78170191D01*
X48189318Y-78218939D01*
X48206500Y-78282458D01*
X48206500Y-81887541D01*
X48186498Y-81955662D01*
X48137704Y-81999807D01*
X48049372Y-82044815D01*
X47857275Y-82184382D01*
X47857272Y-82184384D01*
X47689384Y-82352272D01*
X47689382Y-82352275D01*
X47549817Y-82544369D01*
X47442019Y-82755935D01*
X47442016Y-82755941D01*
X47368645Y-82981753D01*
X47368644Y-82981758D01*
X47368644Y-82981759D01*
X47331500Y-83216278D01*
X47331500Y-83453722D01*
X47366184Y-83672708D01*
X47368645Y-83688246D01*
X47441954Y-83913867D01*
X47442018Y-83914063D01*
X47464660Y-83958500D01*
X47549817Y-84125630D01*
X47643766Y-84254939D01*
X47667624Y-84321806D01*
X47651544Y-84390958D01*
X47600630Y-84440438D01*
X47541830Y-84455000D01*
X46382551Y-84455000D01*
X46314430Y-84434998D01*
X46267937Y-84381342D01*
X46257833Y-84311068D01*
X46280615Y-84254939D01*
X46374754Y-84125367D01*
X46482519Y-83913867D01*
X46555866Y-83688129D01*
X46593000Y-83453678D01*
X46593000Y-83216321D01*
X46555866Y-82981870D01*
X46482519Y-82756132D01*
X46374757Y-82544637D01*
X46374756Y-82544636D01*
X46315766Y-82463442D01*
X46315765Y-82463442D01*
X45609982Y-83169225D01*
X45597518Y-83122708D01*
X45525110Y-82997292D01*
X45422708Y-82894890D01*
X45297292Y-82822482D01*
X45250771Y-82810016D01*
X45956556Y-82104232D01*
X45956556Y-82104230D01*
X45875368Y-82045246D01*
X45663867Y-81937480D01*
X45438129Y-81864133D01*
X45203679Y-81827000D01*
X44966321Y-81827000D01*
X44731870Y-81864133D01*
X44506132Y-81937480D01*
X44294634Y-82045243D01*
X44213442Y-82104231D01*
X44919227Y-82810017D01*
X44872708Y-82822482D01*
X44747292Y-82894890D01*
X44644890Y-82997292D01*
X44572482Y-83122708D01*
X44560017Y-83169227D01*
X43854232Y-82463442D01*
X43854231Y-82463442D01*
X43795243Y-82544634D01*
X43687480Y-82756132D01*
X43614133Y-82981870D01*
X43577000Y-83216321D01*
X43577000Y-83453678D01*
X43614133Y-83688129D01*
X43687480Y-83913867D01*
X43795245Y-84125367D01*
X43889385Y-84254939D01*
X43913243Y-84321807D01*
X43897163Y-84390958D01*
X43846249Y-84440438D01*
X43787449Y-84455000D01*
X41883170Y-84455000D01*
X41815049Y-84434998D01*
X41768556Y-84381342D01*
X41758452Y-84311068D01*
X41781234Y-84254939D01*
X41875185Y-84125627D01*
X41982982Y-83914063D01*
X42056356Y-83688241D01*
X42093500Y-83453722D01*
X42093500Y-83216278D01*
X42056356Y-82981759D01*
X41982982Y-82755937D01*
X41875185Y-82544373D01*
X41735620Y-82352278D01*
X41735617Y-82352275D01*
X41735615Y-82352272D01*
X41567727Y-82184384D01*
X41567724Y-82184382D01*
X41567722Y-82184380D01*
X41375627Y-82044815D01*
X41350559Y-82032042D01*
X41287296Y-81999807D01*
X41235681Y-81951059D01*
X41218500Y-81887541D01*
X41218500Y-78282458D01*
X41238502Y-78214337D01*
X41287296Y-78170191D01*
X41375627Y-78125185D01*
X41567722Y-77985620D01*
X41574342Y-77979000D01*
X41624693Y-77928650D01*
X41735615Y-77817727D01*
X41735620Y-77817722D01*
X41875185Y-77625627D01*
X41982982Y-77414063D01*
X42056356Y-77188241D01*
X42093500Y-76953722D01*
X42093500Y-76716321D01*
X43577000Y-76716321D01*
X43577000Y-76953678D01*
X43614133Y-77188129D01*
X43687480Y-77413867D01*
X43795246Y-77625368D01*
X43854230Y-77706556D01*
X43854232Y-77706556D01*
X44560016Y-77000771D01*
X44572482Y-77047292D01*
X44644890Y-77172708D01*
X44747292Y-77275110D01*
X44872708Y-77347518D01*
X44919226Y-77359982D01*
X44213442Y-78065766D01*
X44294636Y-78124756D01*
X44294637Y-78124757D01*
X44506132Y-78232519D01*
X44731870Y-78305866D01*
X44966321Y-78343000D01*
X45203679Y-78343000D01*
X45438129Y-78305866D01*
X45663867Y-78232519D01*
X45875367Y-78124754D01*
X45956556Y-78065767D01*
X45956556Y-78065765D01*
X45250773Y-77359982D01*
X45297292Y-77347518D01*
X45422708Y-77275110D01*
X45525110Y-77172708D01*
X45597518Y-77047292D01*
X45609982Y-77000773D01*
X46315765Y-77706556D01*
X46315767Y-77706556D01*
X46374754Y-77625367D01*
X46482519Y-77413867D01*
X46555866Y-77188129D01*
X46593000Y-76953678D01*
X46593000Y-76716321D01*
X46555866Y-76481870D01*
X46482519Y-76256132D01*
X46374757Y-76044637D01*
X46374756Y-76044636D01*
X46315766Y-75963442D01*
X45609982Y-76669226D01*
X45597518Y-76622708D01*
X45525110Y-76497292D01*
X45422708Y-76394890D01*
X45297292Y-76322482D01*
X45250771Y-76310016D01*
X45956556Y-75604232D01*
X45956556Y-75604230D01*
X45875368Y-75545246D01*
X45663867Y-75437480D01*
X45438129Y-75364133D01*
X45203679Y-75327000D01*
X44966321Y-75327000D01*
X44731870Y-75364133D01*
X44506132Y-75437480D01*
X44294634Y-75545243D01*
X44213442Y-75604231D01*
X44919227Y-76310017D01*
X44872708Y-76322482D01*
X44747292Y-76394890D01*
X44644890Y-76497292D01*
X44572482Y-76622708D01*
X44560017Y-76669227D01*
X43854231Y-75963442D01*
X43795243Y-76044634D01*
X43687480Y-76256132D01*
X43614133Y-76481870D01*
X43577000Y-76716321D01*
X42093500Y-76716321D01*
X42093500Y-76716278D01*
X42056356Y-76481759D01*
X41982982Y-76255937D01*
X41875185Y-76044373D01*
X41735620Y-75852278D01*
X41735617Y-75852275D01*
X41735615Y-75852272D01*
X41567727Y-75684384D01*
X41567724Y-75684382D01*
X41567722Y-75684380D01*
X41375627Y-75544815D01*
X41164063Y-75437018D01*
X41164060Y-75437017D01*
X41164058Y-75437016D01*
X40938246Y-75363645D01*
X40938242Y-75363644D01*
X40938241Y-75363644D01*
X40703722Y-75326500D01*
X40466278Y-75326500D01*
X40232422Y-75363539D01*
X40231753Y-75363645D01*
X40005941Y-75437016D01*
X40005935Y-75437019D01*
X39794369Y-75544817D01*
X39602275Y-75684382D01*
X39602272Y-75684384D01*
X39434384Y-75852272D01*
X39434382Y-75852275D01*
X39294817Y-76044369D01*
X39187019Y-76255935D01*
X39187016Y-76255941D01*
X39113645Y-76481753D01*
X39113645Y-76481755D01*
X39113644Y-76481759D01*
X39076500Y-76716278D01*
X39076500Y-76953722D01*
X39097420Y-77085806D01*
X39113645Y-77188246D01*
X39181279Y-77396400D01*
X39187018Y-77414063D01*
X39294815Y-77625627D01*
X39434380Y-77817722D01*
X39434382Y-77817724D01*
X39434384Y-77817727D01*
X39602272Y-77985615D01*
X39602275Y-77985617D01*
X39602278Y-77985620D01*
X39794373Y-78125185D01*
X39882703Y-78170191D01*
X39934318Y-78218939D01*
X39951500Y-78282458D01*
X39951500Y-81887541D01*
X39931498Y-81955662D01*
X39882704Y-81999807D01*
X39794372Y-82044815D01*
X39602275Y-82184382D01*
X39602272Y-82184384D01*
X39434384Y-82352272D01*
X39434382Y-82352275D01*
X39294817Y-82544369D01*
X39187019Y-82755935D01*
X39187016Y-82755941D01*
X39113645Y-82981753D01*
X39113644Y-82981758D01*
X39113644Y-82981759D01*
X39076500Y-83216278D01*
X39076500Y-83453722D01*
X39111184Y-83672708D01*
X39113645Y-83688246D01*
X39186954Y-83913867D01*
X39187018Y-83914063D01*
X39209660Y-83958500D01*
X39294817Y-84125630D01*
X39388766Y-84254939D01*
X39412624Y-84321806D01*
X39396544Y-84390958D01*
X39345630Y-84440438D01*
X39286830Y-84455000D01*
X38127551Y-84455000D01*
X38059430Y-84434998D01*
X38012937Y-84381342D01*
X38002833Y-84311068D01*
X38025615Y-84254939D01*
X38119754Y-84125367D01*
X38227519Y-83913867D01*
X38300866Y-83688129D01*
X38338000Y-83453678D01*
X38338000Y-83216321D01*
X38300866Y-82981870D01*
X38227519Y-82756132D01*
X38119757Y-82544637D01*
X38119756Y-82544636D01*
X38060766Y-82463442D01*
X38060765Y-82463442D01*
X37354982Y-83169225D01*
X37342518Y-83122708D01*
X37270110Y-82997292D01*
X37167708Y-82894890D01*
X37042292Y-82822482D01*
X36995771Y-82810016D01*
X37701556Y-82104232D01*
X37701556Y-82104230D01*
X37620368Y-82045246D01*
X37408867Y-81937480D01*
X37183129Y-81864133D01*
X36948679Y-81827000D01*
X36711321Y-81827000D01*
X36476870Y-81864133D01*
X36251132Y-81937480D01*
X36039634Y-82045243D01*
X35958442Y-82104231D01*
X36664227Y-82810017D01*
X36617708Y-82822482D01*
X36492292Y-82894890D01*
X36389890Y-82997292D01*
X36317482Y-83122708D01*
X36305017Y-83169227D01*
X35599232Y-82463442D01*
X35599231Y-82463442D01*
X35540243Y-82544634D01*
X35432480Y-82756132D01*
X35359133Y-82981870D01*
X35322000Y-83216321D01*
X35322000Y-83453678D01*
X35359133Y-83688129D01*
X35432480Y-83913867D01*
X35540245Y-84125367D01*
X35634385Y-84254939D01*
X35658243Y-84321807D01*
X35642163Y-84390958D01*
X35591249Y-84440438D01*
X35532449Y-84455000D01*
X33628170Y-84455000D01*
X33560049Y-84434998D01*
X33513556Y-84381342D01*
X33503452Y-84311068D01*
X33526234Y-84254939D01*
X33620185Y-84125627D01*
X33727982Y-83914063D01*
X33801356Y-83688241D01*
X33838500Y-83453722D01*
X33838500Y-83216278D01*
X33801356Y-82981759D01*
X33727982Y-82755937D01*
X33620185Y-82544373D01*
X33480620Y-82352278D01*
X33480617Y-82352275D01*
X33480615Y-82352272D01*
X33312727Y-82184384D01*
X33312724Y-82184382D01*
X33312722Y-82184380D01*
X33120627Y-82044815D01*
X33095559Y-82032042D01*
X33032296Y-81999807D01*
X32980681Y-81951059D01*
X32963500Y-81887541D01*
X32963500Y-78282458D01*
X32983502Y-78214337D01*
X33032296Y-78170191D01*
X33120627Y-78125185D01*
X33312722Y-77985620D01*
X33319342Y-77979000D01*
X33369693Y-77928650D01*
X33480615Y-77817727D01*
X33480620Y-77817722D01*
X33620185Y-77625627D01*
X33727982Y-77414063D01*
X33801356Y-77188241D01*
X33838500Y-76953722D01*
X33838500Y-76716321D01*
X35322000Y-76716321D01*
X35322000Y-76953678D01*
X35359133Y-77188129D01*
X35432480Y-77413867D01*
X35540246Y-77625368D01*
X35599230Y-77706556D01*
X35599232Y-77706556D01*
X36305016Y-77000771D01*
X36317482Y-77047292D01*
X36389890Y-77172708D01*
X36492292Y-77275110D01*
X36617708Y-77347518D01*
X36664226Y-77359982D01*
X35958442Y-78065766D01*
X36039636Y-78124756D01*
X36039637Y-78124757D01*
X36251132Y-78232519D01*
X36476870Y-78305866D01*
X36711321Y-78343000D01*
X36948679Y-78343000D01*
X37183129Y-78305866D01*
X37408867Y-78232519D01*
X37620367Y-78124754D01*
X37701556Y-78065767D01*
X37701556Y-78065765D01*
X36995773Y-77359982D01*
X37042292Y-77347518D01*
X37167708Y-77275110D01*
X37270110Y-77172708D01*
X37342518Y-77047292D01*
X37354982Y-77000773D01*
X38060765Y-77706556D01*
X38060767Y-77706556D01*
X38119754Y-77625367D01*
X38227519Y-77413867D01*
X38300866Y-77188129D01*
X38338000Y-76953678D01*
X38338000Y-76716321D01*
X38300866Y-76481870D01*
X38227519Y-76256132D01*
X38119757Y-76044637D01*
X38119756Y-76044636D01*
X38060766Y-75963442D01*
X37354982Y-76669226D01*
X37342518Y-76622708D01*
X37270110Y-76497292D01*
X37167708Y-76394890D01*
X37042292Y-76322482D01*
X36995771Y-76310016D01*
X37701556Y-75604232D01*
X37701556Y-75604230D01*
X37620368Y-75545246D01*
X37408867Y-75437480D01*
X37183129Y-75364133D01*
X36948679Y-75327000D01*
X36711321Y-75327000D01*
X36476870Y-75364133D01*
X36251132Y-75437480D01*
X36039634Y-75545243D01*
X35958442Y-75604231D01*
X36664227Y-76310017D01*
X36617708Y-76322482D01*
X36492292Y-76394890D01*
X36389890Y-76497292D01*
X36317482Y-76622708D01*
X36305017Y-76669227D01*
X35599231Y-75963442D01*
X35540243Y-76044634D01*
X35432480Y-76256132D01*
X35359133Y-76481870D01*
X35322000Y-76716321D01*
X33838500Y-76716321D01*
X33838500Y-76716278D01*
X33801356Y-76481759D01*
X33727982Y-76255937D01*
X33620185Y-76044373D01*
X33480620Y-75852278D01*
X33480617Y-75852275D01*
X33480615Y-75852272D01*
X33312727Y-75684384D01*
X33312724Y-75684382D01*
X33312722Y-75684380D01*
X33120627Y-75544815D01*
X32909063Y-75437018D01*
X32909060Y-75437017D01*
X32909058Y-75437016D01*
X32683246Y-75363645D01*
X32683242Y-75363644D01*
X32683241Y-75363644D01*
X32448722Y-75326500D01*
X32211278Y-75326500D01*
X32070566Y-75348786D01*
X31976757Y-75363644D01*
X31882475Y-75394278D01*
X31811507Y-75396304D01*
X31754445Y-75363539D01*
X31357705Y-74966799D01*
X31323679Y-74904487D01*
X31320800Y-74877704D01*
X31320800Y-35354500D01*
X31340802Y-35286379D01*
X31394458Y-35239886D01*
X31446800Y-35228500D01*
X32768632Y-35228500D01*
X32768638Y-35228500D01*
X32768645Y-35228499D01*
X32768649Y-35228499D01*
X32829196Y-35221990D01*
X32829199Y-35221989D01*
X32829201Y-35221989D01*
X32966204Y-35170889D01*
X32976468Y-35163206D01*
X33083261Y-35083261D01*
X33170887Y-34966207D01*
X33170887Y-34966206D01*
X33170889Y-34966204D01*
X33214869Y-34848288D01*
X33257414Y-34791456D01*
X33323934Y-34766645D01*
X33393308Y-34781736D01*
G37*
G04 #@! TD.AperFunction*
G04 #@! TA.AperFunction,Conductor*
G36*
X39115112Y-61165683D02*
G01*
X39121695Y-61171812D01*
X53094425Y-75144543D01*
X53128451Y-75206855D01*
X53123386Y-75277670D01*
X53080839Y-75334506D01*
X53025043Y-75358086D01*
X52986878Y-75364131D01*
X52986872Y-75364132D01*
X52761132Y-75437480D01*
X52549634Y-75545243D01*
X52468442Y-75604231D01*
X52468442Y-75604232D01*
X53174227Y-76310017D01*
X53127708Y-76322482D01*
X53002292Y-76394890D01*
X52899890Y-76497292D01*
X52827482Y-76622708D01*
X52815017Y-76669227D01*
X52109231Y-75963442D01*
X52050243Y-76044634D01*
X51942480Y-76256132D01*
X51869133Y-76481870D01*
X51832000Y-76716321D01*
X51832000Y-76953678D01*
X51869133Y-77188129D01*
X51942480Y-77413867D01*
X52050246Y-77625368D01*
X52109230Y-77706556D01*
X52109232Y-77706556D01*
X52815016Y-77000771D01*
X52827482Y-77047292D01*
X52899890Y-77172708D01*
X53002292Y-77275110D01*
X53127708Y-77347518D01*
X53174226Y-77359982D01*
X52468442Y-78065766D01*
X52549636Y-78124756D01*
X52549637Y-78124757D01*
X52761132Y-78232519D01*
X52986870Y-78305866D01*
X53221321Y-78343000D01*
X53458679Y-78343000D01*
X53693129Y-78305866D01*
X53918867Y-78232519D01*
X54130367Y-78124754D01*
X54211556Y-78065767D01*
X54211556Y-78065765D01*
X53505773Y-77359982D01*
X53552292Y-77347518D01*
X53677708Y-77275110D01*
X53780110Y-77172708D01*
X53852518Y-77047292D01*
X53864982Y-77000773D01*
X54570765Y-77706556D01*
X54570767Y-77706556D01*
X54629754Y-77625367D01*
X54737519Y-77413867D01*
X54810866Y-77188128D01*
X54816912Y-77149959D01*
X54847324Y-77085806D01*
X54907592Y-77048278D01*
X54978581Y-77049292D01*
X55030454Y-77080572D01*
X55276954Y-77327072D01*
X55380712Y-77396401D01*
X55462234Y-77430168D01*
X55496002Y-77444155D01*
X55618393Y-77468500D01*
X55618394Y-77468500D01*
X55660339Y-77468500D01*
X55672872Y-77471072D01*
X55693383Y-77481960D01*
X55715663Y-77488502D01*
X55724862Y-77498670D01*
X55735581Y-77504360D01*
X55744692Y-77520588D01*
X55759808Y-77537296D01*
X55804815Y-77625627D01*
X55944380Y-77817722D01*
X55944382Y-77817724D01*
X55944384Y-77817727D01*
X56112272Y-77985615D01*
X56112275Y-77985617D01*
X56112278Y-77985620D01*
X56304373Y-78125185D01*
X56392703Y-78170191D01*
X56444318Y-78218939D01*
X56461500Y-78282458D01*
X56461500Y-81887541D01*
X56441498Y-81955662D01*
X56392704Y-81999807D01*
X56304372Y-82044815D01*
X56112275Y-82184382D01*
X56112272Y-82184384D01*
X55944384Y-82352272D01*
X55944382Y-82352275D01*
X55804817Y-82544369D01*
X55697019Y-82755935D01*
X55697016Y-82755941D01*
X55623645Y-82981753D01*
X55623644Y-82981758D01*
X55623644Y-82981759D01*
X55586500Y-83216278D01*
X55586500Y-83453722D01*
X55621184Y-83672708D01*
X55623645Y-83688246D01*
X55696954Y-83913867D01*
X55697018Y-83914063D01*
X55719660Y-83958500D01*
X55804817Y-84125630D01*
X55898766Y-84254939D01*
X55922624Y-84321806D01*
X55906544Y-84390958D01*
X55855630Y-84440438D01*
X55796830Y-84455000D01*
X54637551Y-84455000D01*
X54569430Y-84434998D01*
X54522937Y-84381342D01*
X54512833Y-84311068D01*
X54535615Y-84254939D01*
X54629754Y-84125367D01*
X54737519Y-83913867D01*
X54810866Y-83688129D01*
X54848000Y-83453678D01*
X54848000Y-83216321D01*
X54810866Y-82981870D01*
X54737519Y-82756132D01*
X54629757Y-82544637D01*
X54629756Y-82544636D01*
X54570766Y-82463442D01*
X54570765Y-82463442D01*
X53864982Y-83169225D01*
X53852518Y-83122708D01*
X53780110Y-82997292D01*
X53677708Y-82894890D01*
X53552292Y-82822482D01*
X53505771Y-82810016D01*
X54211556Y-82104232D01*
X54211556Y-82104230D01*
X54130368Y-82045246D01*
X53918867Y-81937480D01*
X53693129Y-81864133D01*
X53458679Y-81827000D01*
X53221321Y-81827000D01*
X52986870Y-81864133D01*
X52761132Y-81937480D01*
X52549634Y-82045243D01*
X52468442Y-82104231D01*
X53174227Y-82810017D01*
X53127708Y-82822482D01*
X53002292Y-82894890D01*
X52899890Y-82997292D01*
X52827482Y-83122708D01*
X52815017Y-83169227D01*
X52109232Y-82463442D01*
X52109231Y-82463442D01*
X52050243Y-82544634D01*
X51942480Y-82756132D01*
X51869133Y-82981870D01*
X51832000Y-83216321D01*
X51832000Y-83453678D01*
X51869133Y-83688129D01*
X51942480Y-83913867D01*
X52050245Y-84125367D01*
X52144385Y-84254939D01*
X52168243Y-84321807D01*
X52152163Y-84390958D01*
X52101249Y-84440438D01*
X52042449Y-84455000D01*
X50138170Y-84455000D01*
X50070049Y-84434998D01*
X50023556Y-84381342D01*
X50013452Y-84311068D01*
X50036234Y-84254939D01*
X50130185Y-84125627D01*
X50237982Y-83914063D01*
X50311356Y-83688241D01*
X50348500Y-83453722D01*
X50348500Y-83216278D01*
X50311356Y-82981759D01*
X50237982Y-82755937D01*
X50130185Y-82544373D01*
X49990620Y-82352278D01*
X49990617Y-82352275D01*
X49990615Y-82352272D01*
X49822727Y-82184384D01*
X49822724Y-82184382D01*
X49822722Y-82184380D01*
X49630627Y-82044815D01*
X49605559Y-82032042D01*
X49542296Y-81999807D01*
X49490681Y-81951059D01*
X49473500Y-81887541D01*
X49473500Y-78282458D01*
X49493502Y-78214337D01*
X49542296Y-78170191D01*
X49630627Y-78125185D01*
X49822722Y-77985620D01*
X49829342Y-77979000D01*
X49879693Y-77928650D01*
X49990615Y-77817727D01*
X49990620Y-77817722D01*
X50130185Y-77625627D01*
X50237982Y-77414063D01*
X50311356Y-77188241D01*
X50348500Y-76953722D01*
X50348500Y-76716278D01*
X50311356Y-76481759D01*
X50237982Y-76255937D01*
X50130185Y-76044373D01*
X49990620Y-75852278D01*
X49990617Y-75852275D01*
X49990615Y-75852272D01*
X49822727Y-75684384D01*
X49822724Y-75684382D01*
X49822722Y-75684380D01*
X49630627Y-75544815D01*
X49419063Y-75437018D01*
X49419060Y-75437017D01*
X49419058Y-75437016D01*
X49193246Y-75363645D01*
X49193242Y-75363644D01*
X49193241Y-75363644D01*
X48958722Y-75326500D01*
X48721278Y-75326500D01*
X48487422Y-75363539D01*
X48486753Y-75363645D01*
X48392475Y-75394278D01*
X48321507Y-75396305D01*
X48264444Y-75363540D01*
X38943505Y-66042601D01*
X38909479Y-65980289D01*
X38906600Y-65953506D01*
X38906600Y-61260907D01*
X38926602Y-61192786D01*
X38980258Y-61146293D01*
X39050532Y-61136189D01*
X39115112Y-61165683D01*
G37*
G04 #@! TD.AperFunction*
G04 #@! TA.AperFunction,Conductor*
G36*
X54249612Y-47034370D02*
G01*
X54256195Y-47040499D01*
X61665902Y-54450206D01*
X61699928Y-54512518D01*
X61700386Y-54514719D01*
X61722070Y-54623730D01*
X61783016Y-54770866D01*
X61858473Y-54883797D01*
X61879687Y-54951550D01*
X61860903Y-55020017D01*
X61842803Y-55042893D01*
X61517799Y-55367896D01*
X61455489Y-55401920D01*
X61428706Y-55404800D01*
X61017603Y-55404800D01*
X60944568Y-55419328D01*
X60895215Y-55429145D01*
X60895213Y-55429145D01*
X60895212Y-55429146D01*
X60779923Y-55476901D01*
X60676171Y-55546226D01*
X60676164Y-55546231D01*
X60587931Y-55634464D01*
X60587926Y-55634471D01*
X60518599Y-55738225D01*
X60518597Y-55738229D01*
X60501826Y-55778719D01*
X60457278Y-55833999D01*
X60389914Y-55856420D01*
X60385418Y-55856500D01*
X60031350Y-55856500D01*
X59970803Y-55863009D01*
X59970795Y-55863011D01*
X59833797Y-55914110D01*
X59833792Y-55914112D01*
X59716738Y-56001738D01*
X59629112Y-56118792D01*
X59629110Y-56118797D01*
X59578011Y-56255795D01*
X59578009Y-56255803D01*
X59571500Y-56316350D01*
X59571500Y-58413649D01*
X59578009Y-58474196D01*
X59578011Y-58474204D01*
X59629110Y-58611202D01*
X59629112Y-58611207D01*
X59716738Y-58728261D01*
X59833792Y-58815887D01*
X59833794Y-58815888D01*
X59833796Y-58815889D01*
X59887356Y-58835866D01*
X59970795Y-58866988D01*
X59970803Y-58866990D01*
X60031350Y-58873499D01*
X60031355Y-58873499D01*
X60031362Y-58873500D01*
X60031368Y-58873500D01*
X62128632Y-58873500D01*
X62128638Y-58873500D01*
X62128645Y-58873499D01*
X62128649Y-58873499D01*
X62189196Y-58866990D01*
X62189199Y-58866989D01*
X62189201Y-58866989D01*
X62326204Y-58815889D01*
X62337284Y-58807595D01*
X62443261Y-58728261D01*
X62530887Y-58611207D01*
X62530887Y-58611206D01*
X62530889Y-58611204D01*
X62581989Y-58474201D01*
X62588500Y-58413638D01*
X62588500Y-56316362D01*
X62588499Y-56316350D01*
X62581990Y-56255803D01*
X62581989Y-56255798D01*
X62566744Y-56214927D01*
X62561678Y-56144111D01*
X62595699Y-56081803D01*
X65767207Y-52910296D01*
X65829517Y-52876272D01*
X65900333Y-52881337D01*
X65957168Y-52923884D01*
X65981979Y-52990404D01*
X65982300Y-52999393D01*
X65982300Y-75254605D01*
X65973514Y-75284526D01*
X65966886Y-75314993D01*
X65963073Y-75320086D01*
X65962298Y-75322726D01*
X65945397Y-75343697D01*
X65931009Y-75358086D01*
X65925552Y-75363543D01*
X65863239Y-75397566D01*
X65797523Y-75394278D01*
X65703246Y-75363645D01*
X65703242Y-75363644D01*
X65703241Y-75363644D01*
X65468722Y-75326500D01*
X65231278Y-75326500D01*
X64997422Y-75363539D01*
X64996753Y-75363645D01*
X64770941Y-75437016D01*
X64770935Y-75437019D01*
X64559369Y-75544817D01*
X64367275Y-75684382D01*
X64367272Y-75684384D01*
X64199384Y-75852272D01*
X64199382Y-75852275D01*
X64059817Y-76044369D01*
X63952019Y-76255935D01*
X63952016Y-76255941D01*
X63878645Y-76481753D01*
X63878645Y-76481755D01*
X63878644Y-76481759D01*
X63841500Y-76716278D01*
X63841500Y-76953722D01*
X63862420Y-77085806D01*
X63878645Y-77188246D01*
X63946279Y-77396400D01*
X63952018Y-77414063D01*
X64059815Y-77625627D01*
X64199380Y-77817722D01*
X64199382Y-77817724D01*
X64199384Y-77817727D01*
X64367272Y-77985615D01*
X64367275Y-77985617D01*
X64367278Y-77985620D01*
X64559373Y-78125185D01*
X64647703Y-78170191D01*
X64699318Y-78218939D01*
X64716500Y-78282458D01*
X64716500Y-81887541D01*
X64696498Y-81955662D01*
X64647704Y-81999807D01*
X64559372Y-82044815D01*
X64367275Y-82184382D01*
X64367272Y-82184384D01*
X64199384Y-82352272D01*
X64199382Y-82352275D01*
X64059817Y-82544369D01*
X63952019Y-82755935D01*
X63952016Y-82755941D01*
X63878645Y-82981753D01*
X63878644Y-82981758D01*
X63878644Y-82981759D01*
X63841500Y-83216278D01*
X63841500Y-83453722D01*
X63876184Y-83672708D01*
X63878645Y-83688246D01*
X63951954Y-83913867D01*
X63952018Y-83914063D01*
X63974660Y-83958500D01*
X64059817Y-84125630D01*
X64153766Y-84254939D01*
X64177624Y-84321806D01*
X64161544Y-84390958D01*
X64110630Y-84440438D01*
X64051830Y-84455000D01*
X62892551Y-84455000D01*
X62824430Y-84434998D01*
X62777937Y-84381342D01*
X62767833Y-84311068D01*
X62790615Y-84254939D01*
X62884754Y-84125367D01*
X62992519Y-83913867D01*
X63065866Y-83688129D01*
X63103000Y-83453678D01*
X63103000Y-83216321D01*
X63065866Y-82981870D01*
X62992519Y-82756132D01*
X62884757Y-82544637D01*
X62884756Y-82544636D01*
X62825766Y-82463442D01*
X62825765Y-82463442D01*
X62119982Y-83169225D01*
X62107518Y-83122708D01*
X62035110Y-82997292D01*
X61932708Y-82894890D01*
X61807292Y-82822482D01*
X61760771Y-82810016D01*
X62466556Y-82104232D01*
X62466556Y-82104230D01*
X62385368Y-82045246D01*
X62173867Y-81937480D01*
X61948129Y-81864133D01*
X61713679Y-81827000D01*
X61476321Y-81827000D01*
X61241870Y-81864133D01*
X61016132Y-81937480D01*
X60804634Y-82045243D01*
X60723442Y-82104231D01*
X61429227Y-82810017D01*
X61382708Y-82822482D01*
X61257292Y-82894890D01*
X61154890Y-82997292D01*
X61082482Y-83122708D01*
X61070017Y-83169227D01*
X60364232Y-82463442D01*
X60364231Y-82463442D01*
X60305243Y-82544634D01*
X60197480Y-82756132D01*
X60124133Y-82981870D01*
X60087000Y-83216321D01*
X60087000Y-83453678D01*
X60124133Y-83688129D01*
X60197480Y-83913867D01*
X60305245Y-84125367D01*
X60399385Y-84254939D01*
X60423243Y-84321807D01*
X60407163Y-84390958D01*
X60356249Y-84440438D01*
X60297449Y-84455000D01*
X58393170Y-84455000D01*
X58325049Y-84434998D01*
X58278556Y-84381342D01*
X58268452Y-84311068D01*
X58291234Y-84254939D01*
X58385185Y-84125627D01*
X58492982Y-83914063D01*
X58566356Y-83688241D01*
X58603500Y-83453722D01*
X58603500Y-83216278D01*
X58566356Y-82981759D01*
X58492982Y-82755937D01*
X58385185Y-82544373D01*
X58245620Y-82352278D01*
X58245617Y-82352275D01*
X58245615Y-82352272D01*
X58077727Y-82184384D01*
X58077724Y-82184382D01*
X58077722Y-82184380D01*
X57885627Y-82044815D01*
X57860559Y-82032042D01*
X57797296Y-81999807D01*
X57745681Y-81951059D01*
X57728500Y-81887541D01*
X57728500Y-78282458D01*
X57748502Y-78214337D01*
X57797296Y-78170191D01*
X57885627Y-78125185D01*
X58077722Y-77985620D01*
X58084342Y-77979000D01*
X58134693Y-77928650D01*
X58245615Y-77817727D01*
X58245620Y-77817722D01*
X58385185Y-77625627D01*
X58492982Y-77414063D01*
X58566356Y-77188241D01*
X58603500Y-76953722D01*
X58603500Y-76716321D01*
X60087000Y-76716321D01*
X60087000Y-76953678D01*
X60124133Y-77188129D01*
X60197480Y-77413867D01*
X60305246Y-77625368D01*
X60364230Y-77706556D01*
X60364232Y-77706556D01*
X61070016Y-77000771D01*
X61082482Y-77047292D01*
X61154890Y-77172708D01*
X61257292Y-77275110D01*
X61382708Y-77347518D01*
X61429226Y-77359982D01*
X60723442Y-78065766D01*
X60804636Y-78124756D01*
X60804637Y-78124757D01*
X61016132Y-78232519D01*
X61241870Y-78305866D01*
X61476321Y-78343000D01*
X61713679Y-78343000D01*
X61948129Y-78305866D01*
X62173867Y-78232519D01*
X62385367Y-78124754D01*
X62466556Y-78065767D01*
X62466556Y-78065765D01*
X61760773Y-77359982D01*
X61807292Y-77347518D01*
X61932708Y-77275110D01*
X62035110Y-77172708D01*
X62107518Y-77047292D01*
X62119982Y-77000773D01*
X62825765Y-77706556D01*
X62825767Y-77706556D01*
X62884754Y-77625367D01*
X62992519Y-77413867D01*
X63065866Y-77188129D01*
X63103000Y-76953678D01*
X63103000Y-76716321D01*
X63065866Y-76481870D01*
X62992519Y-76256132D01*
X62884757Y-76044637D01*
X62884756Y-76044636D01*
X62825766Y-75963442D01*
X62119982Y-76669226D01*
X62107518Y-76622708D01*
X62035110Y-76497292D01*
X61932708Y-76394890D01*
X61807292Y-76322482D01*
X61760771Y-76310016D01*
X62466556Y-75604232D01*
X62466556Y-75604230D01*
X62385368Y-75545246D01*
X62173867Y-75437480D01*
X61948129Y-75364133D01*
X61713679Y-75327000D01*
X61476321Y-75327000D01*
X61241870Y-75364133D01*
X61016132Y-75437480D01*
X60804634Y-75545243D01*
X60723442Y-75604231D01*
X61429227Y-76310017D01*
X61382708Y-76322482D01*
X61257292Y-76394890D01*
X61154890Y-76497292D01*
X61082482Y-76622708D01*
X61070017Y-76669227D01*
X60364231Y-75963442D01*
X60305243Y-76044634D01*
X60197480Y-76256132D01*
X60124133Y-76481870D01*
X60087000Y-76716321D01*
X58603500Y-76716321D01*
X58603500Y-76716278D01*
X58566356Y-76481759D01*
X58492982Y-76255937D01*
X58385185Y-76044373D01*
X58245620Y-75852278D01*
X58245617Y-75852275D01*
X58245615Y-75852272D01*
X58077727Y-75684384D01*
X58077724Y-75684382D01*
X58077722Y-75684380D01*
X57885627Y-75544815D01*
X57674063Y-75437018D01*
X57674060Y-75437017D01*
X57674058Y-75437016D01*
X57448246Y-75363645D01*
X57448242Y-75363644D01*
X57448241Y-75363644D01*
X57213722Y-75326500D01*
X56976278Y-75326500D01*
X56742422Y-75363539D01*
X56741753Y-75363645D01*
X56515941Y-75437016D01*
X56515935Y-75437019D01*
X56304369Y-75544817D01*
X56112275Y-75684382D01*
X56112272Y-75684384D01*
X55944385Y-75852271D01*
X55883638Y-75935882D01*
X55827415Y-75979235D01*
X55756679Y-75985310D01*
X55693887Y-75952178D01*
X55692607Y-75950915D01*
X48900304Y-69158612D01*
X48866278Y-69096300D01*
X48871343Y-69025485D01*
X48913890Y-68968649D01*
X48980410Y-68943838D01*
X49013973Y-68945937D01*
X49102770Y-68963600D01*
X49102771Y-68963600D01*
X49262029Y-68963600D01*
X49262030Y-68963600D01*
X49418231Y-68932530D01*
X49565368Y-68871583D01*
X49697789Y-68783103D01*
X49810403Y-68670489D01*
X49898883Y-68538068D01*
X49940667Y-68437195D01*
X49959828Y-68390937D01*
X49959828Y-68390934D01*
X49959830Y-68390931D01*
X49981513Y-68281919D01*
X50014419Y-68219011D01*
X50015939Y-68217463D01*
X53899671Y-64333733D01*
X53969000Y-64229975D01*
X54016755Y-64114685D01*
X54041100Y-63992294D01*
X54041100Y-63867506D01*
X54041100Y-47129594D01*
X54061102Y-47061473D01*
X54114758Y-47014980D01*
X54185032Y-47004876D01*
X54249612Y-47034370D01*
G37*
G04 #@! TD.AperFunction*
G04 #@! TA.AperFunction,Conductor*
G36*
X88207121Y-36215002D02*
G01*
X88253614Y-36268658D01*
X88265000Y-36321000D01*
X88265000Y-77979000D01*
X88244998Y-78047121D01*
X88191342Y-78093614D01*
X88139000Y-78105000D01*
X81280000Y-78105000D01*
X81280000Y-84329000D01*
X81259998Y-84397121D01*
X81206342Y-84443614D01*
X81154000Y-84455000D01*
X71147551Y-84455000D01*
X71079430Y-84434998D01*
X71032937Y-84381342D01*
X71022833Y-84311068D01*
X71045615Y-84254939D01*
X71139754Y-84125367D01*
X71247519Y-83913867D01*
X71320866Y-83688129D01*
X71358000Y-83453678D01*
X71358000Y-83216321D01*
X71320866Y-82981870D01*
X71247519Y-82756132D01*
X71139757Y-82544637D01*
X71139756Y-82544636D01*
X71080766Y-82463442D01*
X71080765Y-82463442D01*
X70374982Y-83169225D01*
X70362518Y-83122708D01*
X70290110Y-82997292D01*
X70187708Y-82894890D01*
X70062292Y-82822482D01*
X70015771Y-82810016D01*
X70721556Y-82104232D01*
X70721556Y-82104230D01*
X70640368Y-82045246D01*
X70428867Y-81937480D01*
X70203129Y-81864133D01*
X69968679Y-81827000D01*
X69731321Y-81827000D01*
X69496870Y-81864133D01*
X69271132Y-81937480D01*
X69059634Y-82045243D01*
X68978442Y-82104231D01*
X69684227Y-82810017D01*
X69637708Y-82822482D01*
X69512292Y-82894890D01*
X69409890Y-82997292D01*
X69337482Y-83122708D01*
X69325017Y-83169227D01*
X68619232Y-82463442D01*
X68619231Y-82463442D01*
X68560243Y-82544634D01*
X68452480Y-82756132D01*
X68379133Y-82981870D01*
X68342000Y-83216321D01*
X68342000Y-83453678D01*
X68379133Y-83688129D01*
X68452480Y-83913867D01*
X68560245Y-84125367D01*
X68654385Y-84254939D01*
X68678243Y-84321807D01*
X68662163Y-84390958D01*
X68611249Y-84440438D01*
X68552449Y-84455000D01*
X66648170Y-84455000D01*
X66580049Y-84434998D01*
X66533556Y-84381342D01*
X66523452Y-84311068D01*
X66546234Y-84254939D01*
X66640185Y-84125627D01*
X66747982Y-83914063D01*
X66821356Y-83688241D01*
X66858500Y-83453722D01*
X66858500Y-83216278D01*
X66821356Y-82981759D01*
X66747982Y-82755937D01*
X66640185Y-82544373D01*
X66500620Y-82352278D01*
X66500617Y-82352275D01*
X66500615Y-82352272D01*
X66332727Y-82184384D01*
X66332724Y-82184382D01*
X66332722Y-82184380D01*
X66140627Y-82044815D01*
X66115559Y-82032042D01*
X66052296Y-81999807D01*
X66000681Y-81951059D01*
X65983500Y-81887541D01*
X65983500Y-78282458D01*
X66003502Y-78214337D01*
X66052296Y-78170191D01*
X66140627Y-78125185D01*
X66332722Y-77985620D01*
X66339342Y-77979000D01*
X66389693Y-77928650D01*
X66500615Y-77817727D01*
X66500620Y-77817722D01*
X66640185Y-77625627D01*
X66747982Y-77414063D01*
X66821356Y-77188241D01*
X66858500Y-76953722D01*
X66858500Y-76716321D01*
X68342000Y-76716321D01*
X68342000Y-76953678D01*
X68379133Y-77188129D01*
X68452480Y-77413867D01*
X68560246Y-77625368D01*
X68619230Y-77706556D01*
X68619232Y-77706556D01*
X69325016Y-77000771D01*
X69337482Y-77047292D01*
X69409890Y-77172708D01*
X69512292Y-77275110D01*
X69637708Y-77347518D01*
X69684226Y-77359982D01*
X68978442Y-78065766D01*
X69059636Y-78124756D01*
X69059637Y-78124757D01*
X69271132Y-78232519D01*
X69496870Y-78305866D01*
X69731321Y-78343000D01*
X69968679Y-78343000D01*
X70203129Y-78305866D01*
X70428867Y-78232519D01*
X70640367Y-78124754D01*
X70721556Y-78065767D01*
X70721556Y-78065765D01*
X70015773Y-77359982D01*
X70062292Y-77347518D01*
X70187708Y-77275110D01*
X70290110Y-77172708D01*
X70362518Y-77047292D01*
X70374982Y-77000773D01*
X71080765Y-77706556D01*
X71080767Y-77706556D01*
X71139754Y-77625367D01*
X71247519Y-77413867D01*
X71320866Y-77188129D01*
X71358000Y-76953678D01*
X71358000Y-76716321D01*
X71320866Y-76481870D01*
X71247519Y-76256132D01*
X71139757Y-76044637D01*
X71139756Y-76044636D01*
X71080766Y-75963442D01*
X70374982Y-76669226D01*
X70362518Y-76622708D01*
X70290110Y-76497292D01*
X70187708Y-76394890D01*
X70062292Y-76322482D01*
X70015771Y-76310016D01*
X70721556Y-75604232D01*
X70721556Y-75604230D01*
X70640368Y-75545246D01*
X70428867Y-75437480D01*
X70203129Y-75364133D01*
X69968679Y-75327000D01*
X69731321Y-75327000D01*
X69496870Y-75364133D01*
X69271132Y-75437480D01*
X69059634Y-75545243D01*
X68978442Y-75604231D01*
X69684227Y-76310017D01*
X69637708Y-76322482D01*
X69512292Y-76394890D01*
X69409890Y-76497292D01*
X69337482Y-76622708D01*
X69325017Y-76669227D01*
X68619231Y-75963442D01*
X68560243Y-76044634D01*
X68452480Y-76256132D01*
X68379133Y-76481870D01*
X68342000Y-76716321D01*
X66858500Y-76716321D01*
X66858500Y-76716278D01*
X66821356Y-76481759D01*
X66790720Y-76387474D01*
X66788693Y-76316508D01*
X66821457Y-76259446D01*
X67107872Y-75973033D01*
X67177201Y-75869275D01*
X67224955Y-75753984D01*
X67225012Y-75753700D01*
X67238800Y-75684382D01*
X67249299Y-75631601D01*
X67249300Y-75631592D01*
X67249300Y-60289394D01*
X67269302Y-60221273D01*
X67322958Y-60174780D01*
X67393232Y-60164676D01*
X67457812Y-60194170D01*
X67464395Y-60200299D01*
X74613167Y-67349071D01*
X74716925Y-67418400D01*
X74832215Y-67466155D01*
X74954606Y-67490500D01*
X75079394Y-67490500D01*
X77637633Y-67490500D01*
X77705754Y-67510502D01*
X77752247Y-67564158D01*
X77762351Y-67634432D01*
X77757466Y-67655435D01*
X77738153Y-67714875D01*
X77738152Y-67714876D01*
X77738151Y-67714884D01*
X77704700Y-67926084D01*
X77704700Y-68139916D01*
X77738151Y-68351116D01*
X77738152Y-68351121D01*
X77804226Y-68554478D01*
X77804228Y-68554483D01*
X77901306Y-68745009D01*
X78026994Y-68918004D01*
X78026996Y-68918006D01*
X78026998Y-68918009D01*
X78178190Y-69069201D01*
X78178193Y-69069203D01*
X78178196Y-69069206D01*
X78351191Y-69194894D01*
X78541717Y-69291972D01*
X78745078Y-69358047D01*
X78745079Y-69358047D01*
X78745084Y-69358049D01*
X78956284Y-69391500D01*
X78956287Y-69391500D01*
X79170113Y-69391500D01*
X79170116Y-69391500D01*
X79381316Y-69358049D01*
X79584683Y-69291972D01*
X79775209Y-69194894D01*
X79948204Y-69069206D01*
X80099406Y-68918004D01*
X80225094Y-68745009D01*
X80225102Y-68744992D01*
X80226054Y-68743441D01*
X80226577Y-68742967D01*
X80228004Y-68741004D01*
X80228416Y-68741303D01*
X80278697Y-68695804D01*
X80348737Y-68684189D01*
X80413938Y-68712285D01*
X80438685Y-68740842D01*
X80438824Y-68740742D01*
X80439994Y-68742353D01*
X80440926Y-68743428D01*
X80441736Y-68744750D01*
X80479820Y-68797167D01*
X80479821Y-68797168D01*
X81119041Y-68157947D01*
X81137275Y-68225993D01*
X81203101Y-68340007D01*
X81296193Y-68433099D01*
X81410207Y-68498925D01*
X81478250Y-68517157D01*
X80839030Y-69156377D01*
X80839031Y-69156378D01*
X80891449Y-69194463D01*
X80891451Y-69194464D01*
X80947257Y-69222899D01*
X80998872Y-69271647D01*
X81015938Y-69340562D01*
X80993037Y-69407764D01*
X80979149Y-69424261D01*
X75204467Y-75198945D01*
X75116231Y-75287180D01*
X75116226Y-75287187D01*
X75064813Y-75364133D01*
X75046900Y-75390941D01*
X74999145Y-75506231D01*
X74989328Y-75555584D01*
X74974800Y-75628619D01*
X74974800Y-82535696D01*
X74976579Y-82544637D01*
X74999145Y-82658085D01*
X75046900Y-82773375D01*
X75116229Y-82877133D01*
X75281167Y-83042071D01*
X75370503Y-83101763D01*
X75416029Y-83156238D01*
X75426500Y-83206527D01*
X75426500Y-83498649D01*
X75433009Y-83559196D01*
X75433011Y-83559204D01*
X75484110Y-83696202D01*
X75484112Y-83696207D01*
X75571738Y-83813261D01*
X75688792Y-83900887D01*
X75688794Y-83900888D01*
X75688796Y-83900889D01*
X75747875Y-83922924D01*
X75825795Y-83951988D01*
X75825803Y-83951990D01*
X75886350Y-83958499D01*
X75886355Y-83958499D01*
X75886362Y-83958500D01*
X75886368Y-83958500D01*
X77783632Y-83958500D01*
X77783638Y-83958500D01*
X77783645Y-83958499D01*
X77783649Y-83958499D01*
X77844196Y-83951990D01*
X77844199Y-83951989D01*
X77844201Y-83951989D01*
X77981204Y-83900889D01*
X78098261Y-83813261D01*
X78185889Y-83696204D01*
X78236989Y-83559201D01*
X78238270Y-83547292D01*
X78243499Y-83498649D01*
X78243500Y-83498632D01*
X78243500Y-81601367D01*
X78243499Y-81601350D01*
X78236990Y-81540803D01*
X78236988Y-81540795D01*
X78207924Y-81462875D01*
X78185889Y-81403796D01*
X78185888Y-81403794D01*
X78185887Y-81403792D01*
X78098261Y-81286738D01*
X77981208Y-81199113D01*
X77981205Y-81199112D01*
X77981204Y-81199111D01*
X77914788Y-81174338D01*
X77857956Y-81131794D01*
X77833145Y-81065274D01*
X77848237Y-80995899D01*
X77869730Y-80967189D01*
X77909341Y-80927578D01*
X77909343Y-80927576D01*
X78039657Y-80748215D01*
X78140308Y-80550676D01*
X78208818Y-80339824D01*
X78243500Y-80120851D01*
X78243500Y-79899149D01*
X78208818Y-79680176D01*
X78140308Y-79469324D01*
X78039657Y-79271785D01*
X77909343Y-79092424D01*
X77909341Y-79092421D01*
X77752578Y-78935658D01*
X77573218Y-78805345D01*
X77573217Y-78805344D01*
X77573215Y-78805343D01*
X77375676Y-78704692D01*
X77375673Y-78704691D01*
X77375671Y-78704690D01*
X77164829Y-78636183D01*
X77164825Y-78636182D01*
X77164824Y-78636182D01*
X76945851Y-78601500D01*
X76724149Y-78601500D01*
X76505176Y-78636182D01*
X76505170Y-78636183D01*
X76406736Y-78668167D01*
X76335769Y-78670195D01*
X76274971Y-78633532D01*
X76243645Y-78569820D01*
X76241800Y-78548334D01*
X76241800Y-76005610D01*
X76261802Y-75937489D01*
X76278705Y-75916515D01*
X77317516Y-74877704D01*
X83271271Y-68923949D01*
X83340600Y-68820191D01*
X83388355Y-68704901D01*
X83412700Y-68582510D01*
X83412700Y-68457722D01*
X83412700Y-66936806D01*
X83388355Y-66814415D01*
X83340600Y-66699125D01*
X83271271Y-66595367D01*
X83183033Y-66507129D01*
X83040833Y-66364929D01*
X82937075Y-66295600D01*
X82882880Y-66273151D01*
X82827600Y-66228603D01*
X82805179Y-66161240D01*
X82818832Y-66099541D01*
X82862172Y-66014483D01*
X82928249Y-65811116D01*
X82961700Y-65599916D01*
X82961700Y-65386084D01*
X82928249Y-65174884D01*
X82924880Y-65164517D01*
X82922852Y-65093553D01*
X82955616Y-65036487D01*
X83285372Y-64706733D01*
X83354701Y-64602975D01*
X83388468Y-64521452D01*
X83402455Y-64487685D01*
X83426800Y-64365294D01*
X83426800Y-36321000D01*
X83446802Y-36252879D01*
X83500458Y-36206386D01*
X83552800Y-36195000D01*
X88139000Y-36195000D01*
X88207121Y-36215002D01*
G37*
G04 #@! TD.AperFunction*
G04 #@! TA.AperFunction,Conductor*
G36*
X52740929Y-35196850D02*
G01*
X52772254Y-35260562D01*
X52774100Y-35282049D01*
X52774100Y-63615305D01*
X52754098Y-63683426D01*
X52737195Y-63704400D01*
X49120092Y-67321502D01*
X49057780Y-67355528D01*
X49055579Y-67355986D01*
X48946569Y-67377670D01*
X48799432Y-67438617D01*
X48667009Y-67527098D01*
X48667003Y-67527103D01*
X48554403Y-67639703D01*
X48554398Y-67639709D01*
X48496746Y-67725993D01*
X48465917Y-67772132D01*
X48404970Y-67919269D01*
X48403614Y-67926087D01*
X48373900Y-68075467D01*
X48373900Y-68234732D01*
X48391561Y-68323518D01*
X48385233Y-68394232D01*
X48341679Y-68450300D01*
X48274726Y-68473919D01*
X48205633Y-68457592D01*
X48178887Y-68437195D01*
X40160405Y-60418713D01*
X40126379Y-60356401D01*
X40123500Y-60329618D01*
X40123500Y-40916000D01*
X40143502Y-40847879D01*
X40197158Y-40801386D01*
X40249500Y-40790000D01*
X40351000Y-40790000D01*
X40351000Y-39804816D01*
X40371060Y-39824876D01*
X40457939Y-39875036D01*
X40554840Y-39901000D01*
X40655160Y-39901000D01*
X40752061Y-39875036D01*
X40838940Y-39824876D01*
X40859000Y-39804816D01*
X40859000Y-40790000D01*
X41415585Y-40790000D01*
X41415597Y-40789999D01*
X41476093Y-40783494D01*
X41612964Y-40732444D01*
X41612965Y-40732444D01*
X41729904Y-40644904D01*
X41817444Y-40527965D01*
X41817444Y-40527964D01*
X41868494Y-40391093D01*
X41874999Y-40330597D01*
X41875000Y-40330585D01*
X41875000Y-40321286D01*
X41895002Y-40253165D01*
X41948658Y-40206672D01*
X42018932Y-40196568D01*
X42083512Y-40226062D01*
X42102934Y-40247223D01*
X42175917Y-40347675D01*
X42175919Y-40347677D01*
X42175921Y-40347680D01*
X42317319Y-40489078D01*
X42317322Y-40489080D01*
X42317325Y-40489083D01*
X42394195Y-40544932D01*
X42479109Y-40606627D01*
X42479113Y-40606629D01*
X42657297Y-40697419D01*
X42847484Y-40759214D01*
X42847485Y-40759214D01*
X42847490Y-40759216D01*
X43045009Y-40790500D01*
X43045012Y-40790500D01*
X43244988Y-40790500D01*
X43244991Y-40790500D01*
X43442510Y-40759216D01*
X43632703Y-40697419D01*
X43810887Y-40606629D01*
X43972675Y-40489083D01*
X44114083Y-40347675D01*
X44231629Y-40185887D01*
X44302734Y-40046335D01*
X44351481Y-39994722D01*
X44420396Y-39977656D01*
X44487598Y-40000557D01*
X44527264Y-40046334D01*
X44598371Y-40185887D01*
X44715917Y-40347675D01*
X44715919Y-40347677D01*
X44715921Y-40347680D01*
X44857319Y-40489078D01*
X44857322Y-40489080D01*
X44857325Y-40489083D01*
X44934195Y-40544932D01*
X45019109Y-40606627D01*
X45019113Y-40606629D01*
X45197297Y-40697419D01*
X45387484Y-40759214D01*
X45387485Y-40759214D01*
X45387490Y-40759216D01*
X45585009Y-40790500D01*
X45585012Y-40790500D01*
X45784988Y-40790500D01*
X45784991Y-40790500D01*
X45982510Y-40759216D01*
X46172703Y-40697419D01*
X46350887Y-40606629D01*
X46512675Y-40489083D01*
X46654083Y-40347675D01*
X46771629Y-40185887D01*
X46842734Y-40046335D01*
X46891481Y-39994722D01*
X46960396Y-39977656D01*
X47027598Y-40000557D01*
X47067264Y-40046334D01*
X47138371Y-40185887D01*
X47255917Y-40347675D01*
X47255919Y-40347677D01*
X47255921Y-40347680D01*
X47397319Y-40489078D01*
X47397322Y-40489080D01*
X47397325Y-40489083D01*
X47474195Y-40544932D01*
X47559109Y-40606627D01*
X47559113Y-40606629D01*
X47737297Y-40697419D01*
X47927484Y-40759214D01*
X47927485Y-40759214D01*
X47927490Y-40759216D01*
X48125009Y-40790500D01*
X48125012Y-40790500D01*
X48324988Y-40790500D01*
X48324991Y-40790500D01*
X48522510Y-40759216D01*
X48712703Y-40697419D01*
X48890887Y-40606629D01*
X49052675Y-40489083D01*
X49194083Y-40347675D01*
X49311629Y-40185887D01*
X49402419Y-40007703D01*
X49464216Y-39817510D01*
X49495500Y-39619991D01*
X49495500Y-39420009D01*
X49464216Y-39222490D01*
X49402419Y-39032297D01*
X49311629Y-38854113D01*
X49311627Y-38854109D01*
X49233989Y-38747251D01*
X49194083Y-38692325D01*
X49194080Y-38692322D01*
X49194078Y-38692319D01*
X49052680Y-38550921D01*
X49052677Y-38550919D01*
X49052675Y-38550917D01*
X48999157Y-38512034D01*
X48890890Y-38433372D01*
X48778287Y-38375998D01*
X48712703Y-38342581D01*
X48712700Y-38342580D01*
X48712698Y-38342579D01*
X48522513Y-38280785D01*
X48522517Y-38280785D01*
X48485743Y-38274960D01*
X48324991Y-38249500D01*
X48125009Y-38249500D01*
X47927490Y-38280784D01*
X47927484Y-38280785D01*
X47737301Y-38342579D01*
X47737295Y-38342582D01*
X47559109Y-38433372D01*
X47397322Y-38550919D01*
X47397319Y-38550921D01*
X47255921Y-38692319D01*
X47255919Y-38692322D01*
X47138372Y-38854110D01*
X47067267Y-38993662D01*
X47018518Y-39045277D01*
X46949603Y-39062343D01*
X46882402Y-39039442D01*
X46842733Y-38993662D01*
X46820486Y-38950000D01*
X46771629Y-38854113D01*
X46654083Y-38692325D01*
X46654080Y-38692322D01*
X46654078Y-38692319D01*
X46512680Y-38550921D01*
X46512677Y-38550919D01*
X46512675Y-38550917D01*
X46459157Y-38512034D01*
X46350890Y-38433372D01*
X46238287Y-38375998D01*
X46172703Y-38342581D01*
X46172700Y-38342580D01*
X46172698Y-38342579D01*
X45982513Y-38280785D01*
X45982517Y-38280785D01*
X45945743Y-38274960D01*
X45784991Y-38249500D01*
X45615593Y-38249500D01*
X45547472Y-38229498D01*
X45500979Y-38175842D01*
X45490875Y-38105568D01*
X45520369Y-38040988D01*
X45526480Y-38034422D01*
X47186402Y-36374502D01*
X47248712Y-36340479D01*
X47275495Y-36337600D01*
X50418293Y-36337600D01*
X50418294Y-36337600D01*
X50540685Y-36313255D01*
X50655975Y-36265500D01*
X50759733Y-36196171D01*
X51733487Y-35222415D01*
X51795796Y-35188393D01*
X51861515Y-35191679D01*
X51871884Y-35195049D01*
X52083084Y-35228500D01*
X52083087Y-35228500D01*
X52296913Y-35228500D01*
X52296916Y-35228500D01*
X52508116Y-35195049D01*
X52609167Y-35162215D01*
X52680131Y-35160188D01*
X52740929Y-35196850D01*
G37*
G04 #@! TD.AperFunction*
G04 #@! TA.AperFunction,Conductor*
G36*
X71320445Y-34549766D02*
G01*
X71345021Y-34578130D01*
X71345196Y-34578004D01*
X71346668Y-34580030D01*
X71347439Y-34580920D01*
X71348104Y-34582006D01*
X71348106Y-34582009D01*
X71473794Y-34755004D01*
X71473796Y-34755006D01*
X71473798Y-34755009D01*
X71624990Y-34906201D01*
X71624993Y-34906203D01*
X71624996Y-34906206D01*
X71797991Y-35031894D01*
X71988517Y-35128972D01*
X72191878Y-35195047D01*
X72191879Y-35195047D01*
X72191884Y-35195049D01*
X72403084Y-35228500D01*
X72403087Y-35228500D01*
X72616913Y-35228500D01*
X72616916Y-35228500D01*
X72828116Y-35195049D01*
X72888264Y-35175505D01*
X72959231Y-35173478D01*
X73020029Y-35210141D01*
X73051355Y-35273853D01*
X73053200Y-35295339D01*
X73053200Y-50539229D01*
X73043609Y-50587448D01*
X73001746Y-50688512D01*
X72977400Y-50810903D01*
X72977400Y-50810906D01*
X72977400Y-55626706D01*
X72977400Y-55751494D01*
X73001745Y-55873885D01*
X73049500Y-55989175D01*
X73118829Y-56092933D01*
X73118831Y-56092935D01*
X77027995Y-60002099D01*
X77062021Y-60064411D01*
X77064900Y-60091194D01*
X77064900Y-61650596D01*
X77074585Y-61699286D01*
X77089245Y-61772985D01*
X77137000Y-61888275D01*
X77206329Y-61992033D01*
X77206331Y-61992035D01*
X77710781Y-62496485D01*
X77744807Y-62558797D01*
X77741521Y-62624510D01*
X77738152Y-62634879D01*
X77738151Y-62634882D01*
X77738151Y-62634884D01*
X77704700Y-62846084D01*
X77704700Y-63059916D01*
X77738151Y-63271116D01*
X77738152Y-63271121D01*
X77804226Y-63474478D01*
X77804228Y-63474483D01*
X77901306Y-63665009D01*
X78026994Y-63838004D01*
X78026996Y-63838006D01*
X78026998Y-63838009D01*
X78178190Y-63989201D01*
X78178193Y-63989203D01*
X78178196Y-63989206D01*
X78351191Y-64114894D01*
X78351196Y-64114896D01*
X78352288Y-64115566D01*
X78352618Y-64115931D01*
X78355196Y-64117804D01*
X78354802Y-64118345D01*
X78399921Y-64168213D01*
X78411528Y-64238255D01*
X78383426Y-64303453D01*
X78355070Y-64328023D01*
X78355196Y-64328196D01*
X78353182Y-64329658D01*
X78352288Y-64330434D01*
X78351187Y-64331108D01*
X78178193Y-64456796D01*
X78178190Y-64456798D01*
X78026998Y-64607990D01*
X78026996Y-64607993D01*
X77901308Y-64780987D01*
X77804229Y-64971515D01*
X77804226Y-64971521D01*
X77738152Y-65174878D01*
X77738151Y-65174883D01*
X77738151Y-65174884D01*
X77704700Y-65386084D01*
X77704700Y-65599916D01*
X77738151Y-65811116D01*
X77738152Y-65811121D01*
X77804226Y-66014478D01*
X77804231Y-66014490D01*
X77817381Y-66040298D01*
X77830485Y-66110075D01*
X77803784Y-66175860D01*
X77745756Y-66216765D01*
X77705114Y-66223500D01*
X75331594Y-66223500D01*
X75263473Y-66203498D01*
X75242499Y-66186595D01*
X68053462Y-58997558D01*
X68019436Y-58935246D01*
X68024501Y-58864431D01*
X68067048Y-58807595D01*
X68133568Y-58782784D01*
X68181493Y-58788630D01*
X68326870Y-58835866D01*
X68561321Y-58873000D01*
X68798679Y-58873000D01*
X69033129Y-58835866D01*
X69258867Y-58762519D01*
X69470367Y-58654754D01*
X69551556Y-58595767D01*
X69551556Y-58595765D01*
X68804948Y-57849157D01*
X68872993Y-57830925D01*
X68987007Y-57765099D01*
X69080099Y-57672007D01*
X69145925Y-57557993D01*
X69164157Y-57489948D01*
X69910765Y-58236556D01*
X69910767Y-58236556D01*
X69969754Y-58155367D01*
X70077519Y-57943867D01*
X70150866Y-57718129D01*
X70188000Y-57483678D01*
X70188000Y-57246321D01*
X70150866Y-57011870D01*
X70077519Y-56786132D01*
X69969757Y-56574637D01*
X69969756Y-56574636D01*
X69910766Y-56493442D01*
X69164157Y-57240051D01*
X69145925Y-57172007D01*
X69080099Y-57057993D01*
X68987007Y-56964901D01*
X68872993Y-56899075D01*
X68804947Y-56880841D01*
X69551556Y-56134233D01*
X69551556Y-56134230D01*
X69470368Y-56075246D01*
X69258867Y-55967480D01*
X69033129Y-55894133D01*
X68798679Y-55857000D01*
X68561321Y-55857000D01*
X68326870Y-55894133D01*
X68101131Y-55967481D01*
X68101130Y-55967481D01*
X68081700Y-55977381D01*
X68011923Y-55990483D01*
X67946139Y-55963780D01*
X67905235Y-55905751D01*
X67898501Y-55865112D01*
X67898501Y-51179500D01*
X67918503Y-51111379D01*
X67972159Y-51064886D01*
X68024501Y-51053500D01*
X68167978Y-51053500D01*
X68167981Y-51053500D01*
X68371408Y-51021280D01*
X68567290Y-50957634D01*
X68750803Y-50864129D01*
X68917430Y-50743068D01*
X69063068Y-50597430D01*
X69184129Y-50430803D01*
X69277634Y-50247290D01*
X69341280Y-50051408D01*
X69373500Y-49847981D01*
X69373500Y-49642019D01*
X69341280Y-49438592D01*
X69277634Y-49242710D01*
X69184129Y-49059197D01*
X69063068Y-48892570D01*
X69063065Y-48892567D01*
X69063063Y-48892564D01*
X68917435Y-48746936D01*
X68917432Y-48746934D01*
X68917430Y-48746932D01*
X68791999Y-48655802D01*
X68750806Y-48625873D01*
X68750805Y-48625872D01*
X68750803Y-48625871D01*
X68567290Y-48532366D01*
X68567287Y-48532365D01*
X68567285Y-48532364D01*
X68371412Y-48468721D01*
X68371410Y-48468720D01*
X68371408Y-48468720D01*
X68167981Y-48436500D01*
X67962019Y-48436500D01*
X67758592Y-48468720D01*
X67758590Y-48468720D01*
X67758587Y-48468721D01*
X67562714Y-48532364D01*
X67562708Y-48532367D01*
X67432503Y-48598710D01*
X67362726Y-48611814D01*
X67296941Y-48585114D01*
X67256035Y-48527086D01*
X67249300Y-48486443D01*
X67249300Y-40842996D01*
X67269302Y-40774875D01*
X67322958Y-40728382D01*
X67393232Y-40718278D01*
X67432503Y-40730729D01*
X67562900Y-40797170D01*
X67562906Y-40797173D01*
X67758705Y-40860791D01*
X67758701Y-40860791D01*
X67962061Y-40893000D01*
X68167939Y-40893000D01*
X68371296Y-40860791D01*
X68567093Y-40797173D01*
X68567099Y-40797170D01*
X68750541Y-40703701D01*
X68793372Y-40672582D01*
X68105789Y-39985000D01*
X68117661Y-39985000D01*
X68219394Y-39957741D01*
X68310606Y-39905080D01*
X68385080Y-39830606D01*
X68437741Y-39739394D01*
X68465000Y-39637661D01*
X68465000Y-39625791D01*
X69152581Y-40313372D01*
X69152582Y-40313372D01*
X69183701Y-40270541D01*
X69277170Y-40087099D01*
X69277173Y-40087093D01*
X69340791Y-39891296D01*
X69373000Y-39687938D01*
X69373000Y-39482061D01*
X69340791Y-39278703D01*
X69277173Y-39082906D01*
X69277170Y-39082900D01*
X69183699Y-38899454D01*
X69152583Y-38856626D01*
X69152582Y-38856626D01*
X68465000Y-39544208D01*
X68465000Y-39532339D01*
X68437741Y-39430606D01*
X68385080Y-39339394D01*
X68310606Y-39264920D01*
X68219394Y-39212259D01*
X68117661Y-39185000D01*
X68105790Y-39185000D01*
X68793372Y-38497417D01*
X68793372Y-38497416D01*
X68750541Y-38466298D01*
X68750540Y-38466297D01*
X68567099Y-38372829D01*
X68567093Y-38372826D01*
X68371294Y-38309208D01*
X68371298Y-38309208D01*
X68167939Y-38277000D01*
X67962061Y-38277000D01*
X67758703Y-38309208D01*
X67562906Y-38372826D01*
X67562900Y-38372829D01*
X67432503Y-38439270D01*
X67362726Y-38452374D01*
X67296941Y-38425674D01*
X67256035Y-38367646D01*
X67249300Y-38327003D01*
X67249300Y-35354500D01*
X67269302Y-35286379D01*
X67322958Y-35239886D01*
X67375300Y-35228500D01*
X67536913Y-35228500D01*
X67536916Y-35228500D01*
X67748116Y-35195049D01*
X67951483Y-35128972D01*
X68142009Y-35031894D01*
X68315004Y-34906206D01*
X68466206Y-34755004D01*
X68591894Y-34582009D01*
X68591899Y-34581997D01*
X68592561Y-34580920D01*
X68592924Y-34580591D01*
X68594804Y-34578004D01*
X68595347Y-34578398D01*
X68645204Y-34533283D01*
X68715244Y-34521670D01*
X68780445Y-34549766D01*
X68805021Y-34578130D01*
X68805196Y-34578004D01*
X68806668Y-34580030D01*
X68807439Y-34580920D01*
X68808104Y-34582006D01*
X68808106Y-34582009D01*
X68933794Y-34755004D01*
X68933796Y-34755006D01*
X68933798Y-34755009D01*
X69084990Y-34906201D01*
X69084993Y-34906203D01*
X69084996Y-34906206D01*
X69257991Y-35031894D01*
X69448517Y-35128972D01*
X69651878Y-35195047D01*
X69651879Y-35195047D01*
X69651884Y-35195049D01*
X69863084Y-35228500D01*
X69863087Y-35228500D01*
X70076913Y-35228500D01*
X70076916Y-35228500D01*
X70288116Y-35195049D01*
X70491483Y-35128972D01*
X70682009Y-35031894D01*
X70855004Y-34906206D01*
X71006206Y-34755004D01*
X71131894Y-34582009D01*
X71131899Y-34581997D01*
X71132561Y-34580920D01*
X71132924Y-34580591D01*
X71134804Y-34578004D01*
X71135347Y-34578398D01*
X71185204Y-34533283D01*
X71255244Y-34521670D01*
X71320445Y-34549766D01*
G37*
G04 #@! TD.AperFunction*
G04 #@! TA.AperFunction,Conductor*
G36*
X61884075Y-34062993D02*
G01*
X61949901Y-34177007D01*
X62042993Y-34270099D01*
X62157007Y-34335925D01*
X62225051Y-34354157D01*
X61585831Y-34993378D01*
X61638249Y-35031463D01*
X61638251Y-35031464D01*
X61828707Y-35128506D01*
X61828713Y-35128509D01*
X62031996Y-35194559D01*
X62243126Y-35228000D01*
X62456874Y-35228000D01*
X62668003Y-35194559D01*
X62871286Y-35128509D01*
X62871292Y-35128506D01*
X63061750Y-35031463D01*
X63114167Y-34993378D01*
X63114167Y-34993376D01*
X62474948Y-34354157D01*
X62542993Y-34335925D01*
X62657007Y-34270099D01*
X62750099Y-34177007D01*
X62815925Y-34062993D01*
X62834157Y-33994948D01*
X63473376Y-34634167D01*
X63473378Y-34634167D01*
X63511459Y-34581756D01*
X63512259Y-34580451D01*
X63512694Y-34580057D01*
X63514377Y-34577741D01*
X63514863Y-34578094D01*
X63564897Y-34532809D01*
X63634936Y-34521188D01*
X63700140Y-34549278D01*
X63725097Y-34578075D01*
X63725196Y-34578004D01*
X63726025Y-34579145D01*
X63727136Y-34580427D01*
X63728103Y-34582006D01*
X63803518Y-34685806D01*
X63853794Y-34755004D01*
X63853796Y-34755006D01*
X63853798Y-34755009D01*
X64004990Y-34906201D01*
X64004993Y-34906203D01*
X64004996Y-34906206D01*
X64177991Y-35031894D01*
X64368517Y-35128972D01*
X64571878Y-35195047D01*
X64571879Y-35195047D01*
X64571884Y-35195049D01*
X64783084Y-35228500D01*
X64783087Y-35228500D01*
X64996913Y-35228500D01*
X64996916Y-35228500D01*
X65208116Y-35195049D01*
X65361565Y-35145190D01*
X65432532Y-35143163D01*
X65493329Y-35179826D01*
X65524655Y-35243538D01*
X65526500Y-35265024D01*
X65526500Y-51307006D01*
X65506498Y-51375127D01*
X65489595Y-51396101D01*
X63154493Y-53731202D01*
X63092181Y-53765228D01*
X63021365Y-53760163D01*
X62995397Y-53746873D01*
X62971943Y-53731202D01*
X62882468Y-53671417D01*
X62735331Y-53610470D01*
X62682744Y-53600009D01*
X62626319Y-53588786D01*
X62563410Y-53555878D01*
X62561806Y-53554302D01*
X55400405Y-46392901D01*
X55366379Y-46330589D01*
X55363500Y-46303806D01*
X55363500Y-35149108D01*
X55383502Y-35080987D01*
X55432297Y-35036842D01*
X55442009Y-35031894D01*
X55615004Y-34906206D01*
X55766206Y-34755004D01*
X55891894Y-34582009D01*
X55891899Y-34581997D01*
X55892561Y-34580920D01*
X55892924Y-34580591D01*
X55894804Y-34578004D01*
X55895347Y-34578398D01*
X55945204Y-34533283D01*
X56015244Y-34521670D01*
X56080445Y-34549766D01*
X56105021Y-34578130D01*
X56105196Y-34578004D01*
X56106668Y-34580030D01*
X56107439Y-34580920D01*
X56108104Y-34582006D01*
X56108106Y-34582009D01*
X56233794Y-34755004D01*
X56233796Y-34755006D01*
X56233798Y-34755009D01*
X56384990Y-34906201D01*
X56384993Y-34906203D01*
X56384996Y-34906206D01*
X56557991Y-35031894D01*
X56748517Y-35128972D01*
X56951878Y-35195047D01*
X56951879Y-35195047D01*
X56951884Y-35195049D01*
X57163084Y-35228500D01*
X57163087Y-35228500D01*
X57376913Y-35228500D01*
X57376916Y-35228500D01*
X57588116Y-35195049D01*
X57791483Y-35128972D01*
X57982009Y-35031894D01*
X58155004Y-34906206D01*
X58306206Y-34755004D01*
X58431894Y-34582009D01*
X58431899Y-34581997D01*
X58432561Y-34580920D01*
X58432924Y-34580591D01*
X58434804Y-34578004D01*
X58435347Y-34578398D01*
X58485204Y-34533283D01*
X58555244Y-34521670D01*
X58620445Y-34549766D01*
X58645021Y-34578130D01*
X58645196Y-34578004D01*
X58646668Y-34580030D01*
X58647439Y-34580920D01*
X58648104Y-34582006D01*
X58648106Y-34582009D01*
X58773794Y-34755004D01*
X58773796Y-34755006D01*
X58773798Y-34755009D01*
X58924990Y-34906201D01*
X58924993Y-34906203D01*
X58924996Y-34906206D01*
X59097991Y-35031894D01*
X59288517Y-35128972D01*
X59491878Y-35195047D01*
X59491879Y-35195047D01*
X59491884Y-35195049D01*
X59703084Y-35228500D01*
X59703087Y-35228500D01*
X59916913Y-35228500D01*
X59916916Y-35228500D01*
X60128116Y-35195049D01*
X60331483Y-35128972D01*
X60522009Y-35031894D01*
X60695004Y-34906206D01*
X60695009Y-34906201D01*
X60744950Y-34856261D01*
X60846201Y-34755009D01*
X60846206Y-34755004D01*
X60971894Y-34582009D01*
X60971902Y-34581992D01*
X60972854Y-34580441D01*
X60973377Y-34579967D01*
X60974804Y-34578004D01*
X60975216Y-34578303D01*
X61025497Y-34532804D01*
X61095537Y-34521189D01*
X61160738Y-34549285D01*
X61185485Y-34577842D01*
X61185624Y-34577742D01*
X61186794Y-34579353D01*
X61187726Y-34580428D01*
X61188536Y-34581750D01*
X61226620Y-34634167D01*
X61226621Y-34634168D01*
X61865841Y-33994947D01*
X61884075Y-34062993D01*
G37*
G04 #@! TD.AperFunction*
G04 #@! TA.AperFunction,Conductor*
G36*
X81696512Y-33792870D02*
G01*
X81703095Y-33798999D01*
X82122895Y-34218799D01*
X82156921Y-34281111D01*
X82159800Y-34307894D01*
X82159800Y-48832014D01*
X82139798Y-48900135D01*
X82086142Y-48946628D01*
X82015868Y-48956732D01*
X81994865Y-48951848D01*
X81921317Y-48927951D01*
X81842167Y-48915415D01*
X81710116Y-48894500D01*
X81496284Y-48894500D01*
X81285084Y-48927951D01*
X81285078Y-48927952D01*
X81081721Y-48994026D01*
X81081715Y-48994029D01*
X80891187Y-49091108D01*
X80718193Y-49216796D01*
X80718190Y-49216798D01*
X80563493Y-49371496D01*
X80562369Y-49370372D01*
X80508779Y-49405349D01*
X80437784Y-49405849D01*
X80377789Y-49367888D01*
X80359692Y-49336318D01*
X80357960Y-49337127D01*
X80354859Y-49330478D01*
X80261834Y-49179660D01*
X80261829Y-49179654D01*
X80136545Y-49054370D01*
X80136539Y-49054365D01*
X79985725Y-48961342D01*
X79817521Y-48905606D01*
X79817518Y-48905605D01*
X79713716Y-48895000D01*
X79573986Y-48895000D01*
X79505865Y-48874998D01*
X79459372Y-48821342D01*
X79449268Y-48751068D01*
X79469221Y-48698998D01*
X79493501Y-48662661D01*
X79541255Y-48547371D01*
X79565600Y-48424980D01*
X79565600Y-48300192D01*
X79565600Y-35287924D01*
X79585602Y-35219803D01*
X79639258Y-35173310D01*
X79709532Y-35163206D01*
X79730537Y-35168091D01*
X79811998Y-35194560D01*
X80023126Y-35228000D01*
X80236874Y-35228000D01*
X80448003Y-35194559D01*
X80651286Y-35128509D01*
X80651292Y-35128506D01*
X80841750Y-35031463D01*
X80894167Y-34993378D01*
X80894167Y-34993376D01*
X80254948Y-34354157D01*
X80322993Y-34335925D01*
X80437007Y-34270099D01*
X80530099Y-34177007D01*
X80595925Y-34062993D01*
X80614157Y-33994948D01*
X81253376Y-34634167D01*
X81253378Y-34634167D01*
X81291463Y-34581750D01*
X81388506Y-34391292D01*
X81388509Y-34391286D01*
X81454559Y-34188003D01*
X81488000Y-33976873D01*
X81488000Y-33888094D01*
X81508002Y-33819973D01*
X81561658Y-33773480D01*
X81631932Y-33763376D01*
X81696512Y-33792870D01*
G37*
G04 #@! TD.AperFunction*
G04 #@! TA.AperFunction,Conductor*
G36*
X43124490Y-34605280D02*
G01*
X43234284Y-34538579D01*
X43240289Y-34536979D01*
X43244897Y-34532809D01*
X43274190Y-34527948D01*
X43302888Y-34520304D01*
X43308805Y-34522205D01*
X43314936Y-34521188D01*
X43342209Y-34532937D01*
X43370482Y-34542021D01*
X43374431Y-34546818D01*
X43380140Y-34549278D01*
X43405097Y-34578075D01*
X43405196Y-34578004D01*
X43406025Y-34579145D01*
X43407136Y-34580427D01*
X43408103Y-34582006D01*
X43483518Y-34685806D01*
X43533794Y-34755004D01*
X43533796Y-34755006D01*
X43533798Y-34755009D01*
X43684990Y-34906201D01*
X43684993Y-34906203D01*
X43684996Y-34906206D01*
X43857991Y-35031894D01*
X44048517Y-35128972D01*
X44251878Y-35195047D01*
X44251879Y-35195047D01*
X44251884Y-35195049D01*
X44463084Y-35228500D01*
X44463087Y-35228500D01*
X44676913Y-35228500D01*
X44676916Y-35228500D01*
X44888116Y-35195049D01*
X45091483Y-35128972D01*
X45282009Y-35031894D01*
X45455004Y-34906206D01*
X45606206Y-34755004D01*
X45731894Y-34582009D01*
X45731899Y-34581997D01*
X45732561Y-34580920D01*
X45732924Y-34580591D01*
X45734804Y-34578004D01*
X45735347Y-34578398D01*
X45785204Y-34533283D01*
X45855244Y-34521670D01*
X45920445Y-34549766D01*
X45945021Y-34578130D01*
X45945196Y-34578004D01*
X45946668Y-34580030D01*
X45947439Y-34580920D01*
X45948104Y-34582006D01*
X45948106Y-34582009D01*
X46073794Y-34755004D01*
X46073796Y-34755006D01*
X46073798Y-34755009D01*
X46224990Y-34906201D01*
X46224993Y-34906203D01*
X46224996Y-34906206D01*
X46397991Y-35031894D01*
X46468182Y-35067658D01*
X46519797Y-35116405D01*
X46536863Y-35185319D01*
X46513963Y-35252521D01*
X46500074Y-35269019D01*
X43527445Y-38241649D01*
X43465133Y-38275675D01*
X43418640Y-38277003D01*
X43326787Y-38262455D01*
X43244991Y-38249500D01*
X43045009Y-38249500D01*
X42847490Y-38280784D01*
X42847484Y-38280785D01*
X42657301Y-38342579D01*
X42657295Y-38342582D01*
X42479109Y-38433372D01*
X42317322Y-38550919D01*
X42317319Y-38550921D01*
X42175918Y-38692322D01*
X42102936Y-38792774D01*
X42046713Y-38836128D01*
X41975977Y-38842203D01*
X41913185Y-38809071D01*
X41878274Y-38747251D01*
X41875000Y-38718713D01*
X41875000Y-38709414D01*
X41874999Y-38709402D01*
X41868494Y-38648906D01*
X41817444Y-38512035D01*
X41817444Y-38512034D01*
X41729904Y-38395095D01*
X41612965Y-38307555D01*
X41476093Y-38256505D01*
X41415597Y-38250000D01*
X40859000Y-38250000D01*
X40859000Y-39235184D01*
X40838940Y-39215124D01*
X40752061Y-39164964D01*
X40655160Y-39139000D01*
X40554840Y-39139000D01*
X40457939Y-39164964D01*
X40371060Y-39215124D01*
X40351000Y-39235184D01*
X40351000Y-38250000D01*
X40249500Y-38250000D01*
X40181379Y-38229998D01*
X40134886Y-38176342D01*
X40123500Y-38124000D01*
X40123500Y-35149108D01*
X40143502Y-35080987D01*
X40192297Y-35036842D01*
X40202009Y-35031894D01*
X40375004Y-34906206D01*
X40375009Y-34906201D01*
X40424950Y-34856261D01*
X40526201Y-34755009D01*
X40526206Y-34755004D01*
X40651894Y-34582009D01*
X40651902Y-34581992D01*
X40652854Y-34580441D01*
X40653377Y-34579967D01*
X40654804Y-34578004D01*
X40655216Y-34578303D01*
X40705497Y-34532804D01*
X40775537Y-34521189D01*
X40840738Y-34549285D01*
X40865485Y-34577842D01*
X40865624Y-34577742D01*
X40866794Y-34579353D01*
X40867726Y-34580428D01*
X40868536Y-34581750D01*
X40906620Y-34634167D01*
X40906621Y-34634168D01*
X41545841Y-33994947D01*
X41564075Y-34062993D01*
X41629901Y-34177007D01*
X41722993Y-34270099D01*
X41837007Y-34335925D01*
X41905051Y-34354157D01*
X41265831Y-34993378D01*
X41318249Y-35031463D01*
X41318251Y-35031464D01*
X41508707Y-35128506D01*
X41508713Y-35128509D01*
X41711996Y-35194559D01*
X41923126Y-35228000D01*
X42136874Y-35228000D01*
X42348003Y-35194559D01*
X42551286Y-35128509D01*
X42551292Y-35128506D01*
X42741750Y-35031463D01*
X42794167Y-34993378D01*
X42794167Y-34993376D01*
X42154948Y-34354157D01*
X42222993Y-34335925D01*
X42337007Y-34270099D01*
X42430099Y-34177007D01*
X42495925Y-34062993D01*
X42514158Y-33994947D01*
X43124490Y-34605280D01*
G37*
G04 #@! TD.AperFunction*
G04 #@! TA.AperFunction,Conductor*
G36*
X61160445Y-32009766D02*
G01*
X61185021Y-32038130D01*
X61185196Y-32038004D01*
X61186668Y-32040030D01*
X61187439Y-32040920D01*
X61188104Y-32042006D01*
X61188106Y-32042009D01*
X61313794Y-32215004D01*
X61313796Y-32215006D01*
X61313798Y-32215009D01*
X61464990Y-32366201D01*
X61464993Y-32366203D01*
X61464996Y-32366206D01*
X61637991Y-32491894D01*
X61638001Y-32491899D01*
X61639567Y-32492859D01*
X61640042Y-32493384D01*
X61641996Y-32494804D01*
X61641697Y-32495214D01*
X61687200Y-32545505D01*
X61698808Y-32615546D01*
X61670707Y-32680745D01*
X61642157Y-32705484D01*
X61642259Y-32705624D01*
X61640639Y-32706800D01*
X61639574Y-32707724D01*
X61638261Y-32708528D01*
X61585831Y-32746621D01*
X61585831Y-32746622D01*
X62225051Y-33385842D01*
X62157007Y-33404075D01*
X62042993Y-33469901D01*
X61949901Y-33562993D01*
X61884075Y-33677007D01*
X61865842Y-33745051D01*
X61226622Y-33105831D01*
X61226621Y-33105831D01*
X61188528Y-33158261D01*
X61187724Y-33159574D01*
X61187288Y-33159967D01*
X61185624Y-33162259D01*
X61185142Y-33161909D01*
X61135075Y-33207203D01*
X61065033Y-33218807D01*
X60999836Y-33190702D01*
X60974901Y-33161924D01*
X60974804Y-33161996D01*
X60973975Y-33160855D01*
X60972859Y-33159567D01*
X60971899Y-33158001D01*
X60971894Y-33157991D01*
X60846206Y-32984996D01*
X60846203Y-32984993D01*
X60846201Y-32984990D01*
X60695009Y-32833798D01*
X60695006Y-32833796D01*
X60695004Y-32833794D01*
X60522009Y-32708106D01*
X60522007Y-32708105D01*
X60520920Y-32707439D01*
X60520591Y-32707075D01*
X60518004Y-32705196D01*
X60518398Y-32704652D01*
X60473283Y-32654796D01*
X60461670Y-32584756D01*
X60489766Y-32519555D01*
X60518130Y-32494978D01*
X60518004Y-32494804D01*
X60520030Y-32493331D01*
X60520920Y-32492561D01*
X60521997Y-32491899D01*
X60522009Y-32491894D01*
X60695004Y-32366206D01*
X60846206Y-32215004D01*
X60971894Y-32042009D01*
X60971899Y-32041997D01*
X60972561Y-32040920D01*
X60972924Y-32040591D01*
X60974804Y-32038004D01*
X60975347Y-32038398D01*
X61025204Y-31993283D01*
X61095244Y-31981670D01*
X61160445Y-32009766D01*
G37*
G04 #@! TD.AperFunction*
G04 #@! TA.AperFunction,Conductor*
G36*
X63700445Y-32009766D02*
G01*
X63725021Y-32038130D01*
X63725196Y-32038004D01*
X63726668Y-32040030D01*
X63727439Y-32040920D01*
X63728104Y-32042006D01*
X63728106Y-32042009D01*
X63853794Y-32215004D01*
X63853796Y-32215006D01*
X63853798Y-32215009D01*
X64004990Y-32366201D01*
X64004993Y-32366203D01*
X64004996Y-32366206D01*
X64177991Y-32491894D01*
X64177996Y-32491896D01*
X64179088Y-32492566D01*
X64179418Y-32492931D01*
X64181996Y-32494804D01*
X64181602Y-32495345D01*
X64226721Y-32545213D01*
X64238328Y-32615255D01*
X64210226Y-32680453D01*
X64181870Y-32705023D01*
X64181996Y-32705196D01*
X64179982Y-32706658D01*
X64179088Y-32707434D01*
X64177987Y-32708108D01*
X64004993Y-32833796D01*
X64004990Y-32833798D01*
X63853798Y-32984990D01*
X63853796Y-32984993D01*
X63728100Y-33157998D01*
X63727131Y-33159580D01*
X63726606Y-33160054D01*
X63725196Y-33161996D01*
X63724787Y-33161699D01*
X63674479Y-33207206D01*
X63604437Y-33218807D01*
X63539242Y-33190697D01*
X63514514Y-33162157D01*
X63514376Y-33162258D01*
X63513199Y-33160639D01*
X63512270Y-33159566D01*
X63511461Y-33158247D01*
X63473378Y-33105831D01*
X62834157Y-33745051D01*
X62815925Y-33677007D01*
X62750099Y-33562993D01*
X62657007Y-33469901D01*
X62542993Y-33404075D01*
X62474947Y-33385841D01*
X63114168Y-32746621D01*
X63114167Y-32746620D01*
X63061750Y-32708536D01*
X63060428Y-32707726D01*
X63060030Y-32707286D01*
X63057742Y-32705624D01*
X63058091Y-32705143D01*
X63012797Y-32655078D01*
X63001191Y-32585036D01*
X63029295Y-32519839D01*
X63058075Y-32494903D01*
X63058004Y-32494804D01*
X63059158Y-32493965D01*
X63060441Y-32492854D01*
X63061992Y-32491902D01*
X63062009Y-32491894D01*
X63235004Y-32366206D01*
X63386206Y-32215004D01*
X63511894Y-32042009D01*
X63511899Y-32041997D01*
X63512561Y-32040920D01*
X63512924Y-32040591D01*
X63514804Y-32038004D01*
X63515347Y-32038398D01*
X63565204Y-31993283D01*
X63635244Y-31981670D01*
X63700445Y-32009766D01*
G37*
G04 #@! TD.AperFunction*
G04 #@! TA.AperFunction,Conductor*
G36*
X36484075Y-31522993D02*
G01*
X36549901Y-31637007D01*
X36642993Y-31730099D01*
X36757007Y-31795925D01*
X36825051Y-31814157D01*
X36185831Y-32453378D01*
X36238247Y-32491461D01*
X36239566Y-32492270D01*
X36239962Y-32492708D01*
X36242258Y-32494376D01*
X36241907Y-32494858D01*
X36287199Y-32544915D01*
X36298809Y-32614956D01*
X36270708Y-32680155D01*
X36241925Y-32705098D01*
X36241996Y-32705196D01*
X36240862Y-32706019D01*
X36239580Y-32707131D01*
X36237998Y-32708100D01*
X36064993Y-32833796D01*
X36064990Y-32833798D01*
X35913798Y-32984990D01*
X35913796Y-32984993D01*
X35788108Y-33157987D01*
X35787434Y-33159088D01*
X35787068Y-33159418D01*
X35785196Y-33161996D01*
X35784654Y-33161602D01*
X35734787Y-33206721D01*
X35664745Y-33218328D01*
X35599547Y-33190226D01*
X35574976Y-33161870D01*
X35574804Y-33161996D01*
X35573341Y-33159982D01*
X35572566Y-33159088D01*
X35571896Y-33157996D01*
X35571894Y-33157991D01*
X35446206Y-32984996D01*
X35446203Y-32984993D01*
X35446201Y-32984990D01*
X35295009Y-32833798D01*
X35295006Y-32833796D01*
X35295004Y-32833794D01*
X35122009Y-32708106D01*
X35122007Y-32708105D01*
X35120920Y-32707439D01*
X35120591Y-32707075D01*
X35118004Y-32705196D01*
X35118398Y-32704652D01*
X35073283Y-32654796D01*
X35061670Y-32584756D01*
X35089766Y-32519555D01*
X35118130Y-32494978D01*
X35118004Y-32494804D01*
X35120030Y-32493331D01*
X35120920Y-32492561D01*
X35121997Y-32491899D01*
X35122009Y-32491894D01*
X35295004Y-32366206D01*
X35446206Y-32215004D01*
X35571894Y-32042009D01*
X35571902Y-32041992D01*
X35572854Y-32040441D01*
X35573377Y-32039967D01*
X35574804Y-32038004D01*
X35575216Y-32038303D01*
X35625497Y-31992804D01*
X35695537Y-31981189D01*
X35760738Y-32009285D01*
X35785485Y-32037842D01*
X35785624Y-32037742D01*
X35786794Y-32039353D01*
X35787726Y-32040428D01*
X35788536Y-32041750D01*
X35826620Y-32094167D01*
X35826621Y-32094168D01*
X36465841Y-31454947D01*
X36484075Y-31522993D01*
G37*
G04 #@! TD.AperFunction*
G04 #@! TA.AperFunction,Conductor*
G36*
X48233376Y-32094167D02*
G01*
X48233378Y-32094167D01*
X48271459Y-32041756D01*
X48272259Y-32040451D01*
X48272694Y-32040057D01*
X48274377Y-32037741D01*
X48274863Y-32038094D01*
X48324897Y-31992809D01*
X48394936Y-31981188D01*
X48460140Y-32009278D01*
X48485097Y-32038075D01*
X48485196Y-32038004D01*
X48486025Y-32039145D01*
X48487136Y-32040427D01*
X48488103Y-32042006D01*
X48533072Y-32103900D01*
X48613794Y-32215004D01*
X48613796Y-32215006D01*
X48613798Y-32215009D01*
X48764990Y-32366201D01*
X48764993Y-32366203D01*
X48764996Y-32366206D01*
X48937991Y-32491894D01*
X48937996Y-32491896D01*
X48939088Y-32492566D01*
X48939418Y-32492931D01*
X48941996Y-32494804D01*
X48941602Y-32495345D01*
X48986721Y-32545213D01*
X48998328Y-32615255D01*
X48970226Y-32680453D01*
X48941870Y-32705023D01*
X48941996Y-32705196D01*
X48939982Y-32706658D01*
X48939088Y-32707434D01*
X48937987Y-32708108D01*
X48764993Y-32833796D01*
X48764990Y-32833798D01*
X48613798Y-32984990D01*
X48613796Y-32984993D01*
X48488108Y-33157987D01*
X48487434Y-33159088D01*
X48487068Y-33159418D01*
X48485196Y-33161996D01*
X48484654Y-33161602D01*
X48434787Y-33206721D01*
X48364745Y-33218328D01*
X48299547Y-33190226D01*
X48274976Y-33161870D01*
X48274804Y-33161996D01*
X48273341Y-33159982D01*
X48272566Y-33159088D01*
X48271896Y-33157996D01*
X48271894Y-33157991D01*
X48146206Y-32984996D01*
X48146203Y-32984993D01*
X48146201Y-32984990D01*
X47995009Y-32833798D01*
X47995006Y-32833796D01*
X47995004Y-32833794D01*
X47875022Y-32746622D01*
X47822006Y-32708103D01*
X47820427Y-32707136D01*
X47819952Y-32706611D01*
X47818004Y-32705196D01*
X47818301Y-32704786D01*
X47772797Y-32654488D01*
X47761191Y-32584446D01*
X47789296Y-32519249D01*
X47817843Y-32494517D01*
X47817741Y-32494377D01*
X47819384Y-32493182D01*
X47820451Y-32492259D01*
X47821756Y-32491459D01*
X47874167Y-32453378D01*
X47874167Y-32453377D01*
X47234947Y-31814158D01*
X47302993Y-31795925D01*
X47417007Y-31730099D01*
X47510099Y-31637007D01*
X47575925Y-31522993D01*
X47594157Y-31454948D01*
X48233376Y-32094167D01*
G37*
G04 #@! TD.AperFunction*
G04 #@! TA.AperFunction,Conductor*
G36*
X55853376Y-32094167D02*
G01*
X55853378Y-32094167D01*
X55891459Y-32041756D01*
X55892259Y-32040451D01*
X55892694Y-32040057D01*
X55894377Y-32037741D01*
X55894863Y-32038094D01*
X55944897Y-31992809D01*
X56014936Y-31981188D01*
X56080140Y-32009278D01*
X56105097Y-32038075D01*
X56105196Y-32038004D01*
X56106025Y-32039145D01*
X56107136Y-32040427D01*
X56108103Y-32042006D01*
X56153072Y-32103900D01*
X56233794Y-32215004D01*
X56233796Y-32215006D01*
X56233798Y-32215009D01*
X56384990Y-32366201D01*
X56384993Y-32366203D01*
X56384996Y-32366206D01*
X56557991Y-32491894D01*
X56557996Y-32491896D01*
X56559088Y-32492566D01*
X56559418Y-32492931D01*
X56561996Y-32494804D01*
X56561602Y-32495345D01*
X56606721Y-32545213D01*
X56618328Y-32615255D01*
X56590226Y-32680453D01*
X56561870Y-32705023D01*
X56561996Y-32705196D01*
X56559982Y-32706658D01*
X56559088Y-32707434D01*
X56557987Y-32708108D01*
X56384993Y-32833796D01*
X56384990Y-32833798D01*
X56233798Y-32984990D01*
X56233796Y-32984993D01*
X56108108Y-33157987D01*
X56107434Y-33159088D01*
X56107068Y-33159418D01*
X56105196Y-33161996D01*
X56104654Y-33161602D01*
X56054787Y-33206721D01*
X55984745Y-33218328D01*
X55919547Y-33190226D01*
X55894976Y-33161870D01*
X55894804Y-33161996D01*
X55893341Y-33159982D01*
X55892566Y-33159088D01*
X55891896Y-33157996D01*
X55891894Y-33157991D01*
X55766206Y-32984996D01*
X55766203Y-32984993D01*
X55766201Y-32984990D01*
X55615009Y-32833798D01*
X55615006Y-32833796D01*
X55615004Y-32833794D01*
X55495022Y-32746622D01*
X55442006Y-32708103D01*
X55440427Y-32707136D01*
X55439952Y-32706611D01*
X55438004Y-32705196D01*
X55438301Y-32704786D01*
X55392797Y-32654488D01*
X55381191Y-32584446D01*
X55409296Y-32519249D01*
X55437843Y-32494517D01*
X55437741Y-32494377D01*
X55439384Y-32493182D01*
X55440451Y-32492259D01*
X55441756Y-32491459D01*
X55494167Y-32453378D01*
X55494167Y-32453376D01*
X54854948Y-31814157D01*
X54922993Y-31795925D01*
X55037007Y-31730099D01*
X55130099Y-31637007D01*
X55195925Y-31522993D01*
X55214157Y-31454948D01*
X55853376Y-32094167D01*
G37*
G04 #@! TD.AperFunction*
G04 #@! TA.AperFunction,Conductor*
G36*
X38044490Y-32065280D02*
G01*
X38154284Y-31998579D01*
X38160289Y-31996979D01*
X38164897Y-31992809D01*
X38194190Y-31987948D01*
X38222888Y-31980304D01*
X38228805Y-31982205D01*
X38234936Y-31981188D01*
X38262209Y-31992937D01*
X38290482Y-32002021D01*
X38294431Y-32006818D01*
X38300140Y-32009278D01*
X38325097Y-32038075D01*
X38325196Y-32038004D01*
X38326025Y-32039145D01*
X38327136Y-32040427D01*
X38328103Y-32042006D01*
X38434933Y-32189045D01*
X38458792Y-32255913D01*
X38442711Y-32325065D01*
X38422092Y-32352201D01*
X37972201Y-32802092D01*
X37941944Y-32818613D01*
X37911983Y-32835643D01*
X37910869Y-32835582D01*
X37909889Y-32836118D01*
X37875482Y-32833657D01*
X37841092Y-32831786D01*
X37839796Y-32831104D01*
X37839074Y-32831053D01*
X37809327Y-32815137D01*
X37808946Y-32814862D01*
X37662009Y-32708106D01*
X37659102Y-32706625D01*
X37652485Y-32701845D01*
X37633538Y-32677414D01*
X37612797Y-32654488D01*
X37611992Y-32649632D01*
X37608976Y-32645743D01*
X37606245Y-32614948D01*
X37601191Y-32584446D01*
X37603139Y-32579925D01*
X37602705Y-32575024D01*
X37617056Y-32547641D01*
X37629296Y-32519249D01*
X37634134Y-32515057D01*
X37635663Y-32512141D01*
X37641006Y-32509103D01*
X37657843Y-32494517D01*
X37657741Y-32494377D01*
X37659384Y-32493182D01*
X37660451Y-32492259D01*
X37661756Y-32491459D01*
X37714167Y-32453378D01*
X37714167Y-32453376D01*
X37074948Y-31814157D01*
X37142993Y-31795925D01*
X37257007Y-31730099D01*
X37350099Y-31637007D01*
X37415925Y-31522993D01*
X37434158Y-31454947D01*
X38044490Y-32065280D01*
G37*
G04 #@! TD.AperFunction*
G04 #@! TA.AperFunction,Conductor*
G36*
X66173412Y-31981541D02*
G01*
X66175537Y-31981189D01*
X66206321Y-31994454D01*
X66237499Y-32006688D01*
X66239489Y-32008746D01*
X66240738Y-32009285D01*
X66247038Y-32016555D01*
X66262425Y-32032472D01*
X66375487Y-32188955D01*
X66387280Y-32222287D01*
X66399150Y-32255553D01*
X66399110Y-32255721D01*
X66399169Y-32255886D01*
X66391043Y-32290416D01*
X66383070Y-32324705D01*
X66382945Y-32324825D01*
X66382906Y-32324995D01*
X66362452Y-32351842D01*
X65912202Y-32802093D01*
X65849889Y-32836118D01*
X65779074Y-32831054D01*
X65749045Y-32814934D01*
X65742259Y-32810004D01*
X65602009Y-32708106D01*
X65602007Y-32708105D01*
X65600920Y-32707439D01*
X65600591Y-32707075D01*
X65598004Y-32705196D01*
X65598398Y-32704652D01*
X65553283Y-32654796D01*
X65541670Y-32584756D01*
X65569766Y-32519555D01*
X65598130Y-32494978D01*
X65598004Y-32494804D01*
X65600030Y-32493331D01*
X65600920Y-32492561D01*
X65601997Y-32491899D01*
X65602009Y-32491894D01*
X65775004Y-32366206D01*
X65926206Y-32215004D01*
X66051894Y-32042009D01*
X66051902Y-32041992D01*
X66052854Y-32040441D01*
X66053377Y-32039967D01*
X66054804Y-32038004D01*
X66055216Y-32038303D01*
X66077692Y-32017964D01*
X66101788Y-31994671D01*
X66103900Y-31994248D01*
X66105497Y-31992804D01*
X66138553Y-31987322D01*
X66171408Y-31980755D01*
X66173412Y-31981541D01*
G37*
G04 #@! TD.AperFunction*
G04 #@! TA.AperFunction,Conductor*
G36*
X54264075Y-31522993D02*
G01*
X54329901Y-31637007D01*
X54422993Y-31730099D01*
X54537007Y-31795925D01*
X54605051Y-31814157D01*
X53965831Y-32453378D01*
X54018247Y-32491461D01*
X54019566Y-32492270D01*
X54019962Y-32492708D01*
X54022258Y-32494376D01*
X54021907Y-32494858D01*
X54042052Y-32517122D01*
X54065343Y-32541226D01*
X54065762Y-32543327D01*
X54067199Y-32544915D01*
X54072680Y-32577982D01*
X54079241Y-32610849D01*
X54078458Y-32612841D01*
X54078809Y-32614956D01*
X54065537Y-32645748D01*
X54053292Y-32676934D01*
X54051344Y-32678678D01*
X54050708Y-32680155D01*
X54027502Y-32701854D01*
X54020889Y-32706628D01*
X54017991Y-32708106D01*
X53877740Y-32810004D01*
X53877088Y-32810475D01*
X53843882Y-32822215D01*
X53810513Y-32834121D01*
X53810328Y-32834078D01*
X53810151Y-32834141D01*
X53775690Y-32826022D01*
X53741362Y-32818039D01*
X53741164Y-32817888D01*
X53741047Y-32817861D01*
X53740824Y-32817630D01*
X53714226Y-32797421D01*
X53262577Y-32345772D01*
X53228551Y-32283460D01*
X53233616Y-32212645D01*
X53249730Y-32182625D01*
X53351894Y-32042009D01*
X53351903Y-32041989D01*
X53352854Y-32040441D01*
X53353375Y-32039969D01*
X53354804Y-32038003D01*
X53355216Y-32038302D01*
X53405497Y-31992804D01*
X53475537Y-31981189D01*
X53540738Y-32009285D01*
X53565485Y-32037842D01*
X53565624Y-32037742D01*
X53566794Y-32039353D01*
X53567726Y-32040428D01*
X53568536Y-32041750D01*
X53606620Y-32094167D01*
X53606621Y-32094168D01*
X54245841Y-31454947D01*
X54264075Y-31522993D01*
G37*
G04 #@! TD.AperFunction*
M02*
